<svg width="115" height="28" viewBox="0 0 115 28" fill="none" xmlns="http://www.w3.org/2000/svg">
<path d="M30.2042 27.1597C27.9044 26.8043 26.4103 25.4765 25.8381 23.2788C25.5638 22.2271 25.6511 20.2047 26.0103 19.267C26.518 17.9427 27.3279 17.0429 28.5605 16.433C30.1113 15.6663 32.1272 15.6696 33.7655 16.4423C34.4394 16.7601 35.4144 17.6392 35.6968 18.1837L35.8623 18.503L34.6286 19.1419C33.4948 19.7291 33.3894 19.7631 33.3255 19.5625C33.2049 19.1839 32.2947 18.4391 31.8509 18.356C30.7175 18.1443 29.814 18.5878 29.3016 19.6086C29.0827 20.0448 29.0125 20.3875 28.977 21.1972C28.8763 23.4944 29.7421 24.7418 31.4412 24.7463C32.3347 24.7485 32.9585 24.4261 33.3782 23.7451C33.5341 23.4919 33.7008 23.2839 33.7488 23.2819C33.8792 23.2775 35.8719 24.2887 35.8719 24.3593C35.8719 24.7879 34.496 26.1628 33.6288 26.6003C32.5699 27.1352 31.3436 27.3356 30.2042 27.1597Z" fill="#BBBBBB"/>
<path d="M43.3516 16.0376C42.5616 15.8492 40.8758 15.8512 40.0643 16.0411C38.5874 16.3869 37.2345 17.4106 36.5966 18.6665C35.7514 20.3293 35.7882 22.8667 36.6817 24.5382C37.321 25.7335 38.6694 26.7122 40.0646 26.9928C40.4074 27.062 40.7901 27.1417 40.9149 27.1707C41.2995 27.2589 43.0378 27.1295 43.6353 26.9685C45.738 26.4018 47.1115 24.7994 47.4334 22.538C47.8967 19.2827 46.2996 16.7395 43.3516 16.0376ZM42.7604 24.5722C42.1508 24.8261 41.1309 24.7983 40.5508 24.5119C39.5924 24.0387 39.0762 22.7583 39.1878 21.1296C39.2564 20.132 39.4845 19.523 39.9853 19.0039C40.4648 18.5069 40.9743 18.3058 41.7503 18.3089C42.8718 18.3136 43.5745 18.7801 44.0463 19.8338C44.2513 20.2916 44.2978 20.5989 44.2944 21.471C44.2882 23.1653 43.8082 24.1358 42.7604 24.5722Z" fill="#BBBBBB"/>
<path d="M87.7299 15.8906C86.0109 15.8906 84.6477 16.3741 83.593 17.3574C81.9622 18.8781 81.5009 21.993 82.5688 24.2692C83.2204 25.6567 84.5447 26.6815 86.0918 26.9946C86.4313 27.0636 86.8112 27.1427 86.9359 27.1712C87.3178 27.2582 89.0552 27.126 89.6739 26.963C92.1124 26.3199 93.51 24.3059 93.4854 21.4714C93.4552 17.9716 91.3089 15.8906 87.7299 15.8906ZM90.2866 22.1497C90.1182 23.427 89.6784 24.1694 88.8765 24.5326C87.8045 25.0178 86.3515 24.6918 85.7855 23.8396C84.6743 22.1655 85.1157 19.2482 86.5879 18.5378C87.4659 18.1141 88.7994 18.2847 89.4679 18.9062C90.1182 19.511 90.4577 20.8551 90.2866 22.1497Z" fill="#BBBBBB"/>
<path d="M108.587 27.1556C107.418 27.0013 106.314 26.5081 105.269 25.6744L104.559 25.1076L105.536 24.2528L106.515 23.3979L106.984 23.7693C107.985 24.5625 108.819 24.8754 109.927 24.8754C111.143 24.8754 111.839 24.3975 111.66 23.6854C111.556 23.273 111.126 23.0926 109.212 22.6582C108.284 22.4477 107.268 22.1649 106.954 22.0302C105.44 21.3809 104.877 19.7785 105.585 18.1315C106.197 16.7081 107.753 15.8893 109.834 15.8936C111.324 15.8969 112.843 16.3222 114.104 17.0894L114.633 17.4111L113.65 18.3602L112.668 19.309L112.384 19.0527C111.606 18.348 109.564 17.9531 108.805 18.3611C108.135 18.7207 108.204 19.4257 108.939 19.7319C109.153 19.821 109.901 20.0185 110.601 20.1704C113.095 20.7113 113.904 21.1063 114.422 22.0367C114.802 22.7205 114.821 24.0851 114.46 24.8787C114.173 25.5109 113.472 26.2346 112.834 26.5593C111.769 27.0995 110.021 27.3454 108.587 27.1556Z" fill="#BBBBBB"/>
<path d="M22.213 8.53166C20.2199 5.54329 16.9932 3.62401 13.3923 3.28442C9.69741 2.93593 6.22385 4.19875 3.73533 6.79565C2.218 8.37913 1.22715 10.145 0.64618 12.3023C0.389086 13.2556 0.353124 13.6092 0.355581 15.1428C0.357815 16.6729 0.396234 17.0369 0.658465 18.0241C1.80344 22.3294 5.17313 25.634 9.51693 26.7117C9.89084 26.8046 10.3501 26.9017 10.537 26.9275C11.3646 27.0417 13.3666 26.9939 14.2583 26.8384C17.9293 26.2005 21.1909 23.8392 22.8648 20.6078C24.8184 16.8379 24.5597 12.0498 22.213 8.53166ZM21.7254 17.6426C20.7663 21.1861 17.848 23.8902 14.1647 24.6479C8.42221 25.8297 2.82668 21.4981 2.46996 15.5946C2.23922 11.7817 4.55486 7.95603 8.11017 6.27658C9.4564 5.6406 10.5404 5.4079 12.1808 5.40234C13.7586 5.39744 14.6342 5.55844 16.0108 6.10779C18.7743 7.21117 20.9403 9.7092 21.737 12.7118C22.0703 13.968 22.0645 16.3896 21.7254 17.6426Z" fill="#BBBBBB"/>
<path d="M7.57737 18.5756C6.49092 18.1915 5.65754 17.0643 5.51101 15.7794C5.29301 13.875 6.0118 12.3964 7.47708 11.7329C8.27114 11.3737 9.71341 11.3819 10.5702 11.7511C11.0905 11.9754 12.0679 12.8554 12.0679 13.0999C12.0679 13.14 11.7302 13.3386 11.3181 13.5412L10.568 13.9098L10.1677 13.5107C9.94437 13.2881 9.60285 13.0807 9.39512 13.0422C8.88004 12.9454 8.26332 13.1743 7.98434 13.5648C7.52309 14.2111 7.49115 15.9005 7.92805 16.5655C8.15477 16.9104 8.53561 17.1522 8.89478 17.1796C9.64998 17.2375 9.84051 17.1725 10.2872 16.704L10.738 16.2319L11.3185 16.5503C11.6377 16.7256 11.9451 16.9104 12.0016 16.9614C12.1975 17.1373 11.2993 18.0512 10.5767 18.411C9.96269 18.717 9.76926 18.758 8.96201 18.7497C8.45631 18.7444 7.83379 18.6662 7.57737 18.5756Z" fill="#BBBBBB"/>
<path d="M14.4917 18.5755C13.4204 18.1967 12.6011 17.1049 12.4251 15.8212C12.1698 13.9613 12.9219 12.3983 14.3914 11.7332C15.244 11.3473 16.6898 11.3767 17.554 11.7984C18.089 12.0592 18.9822 12.8778 18.9822 13.1069C18.9822 13.1459 18.6322 13.3467 18.2038 13.5532L17.4256 13.9288L17.0226 13.4904C16.6603 13.096 16.5639 13.0519 16.0675 13.0519C15.3843 13.0519 14.9447 13.3196 14.7075 13.8801C14.4953 14.3815 14.4685 15.611 14.6574 16.1712C15.0423 17.31 16.4464 17.5799 17.2433 16.6682L17.6016 16.2585L18.292 16.6063C18.6718 16.7972 18.9825 16.986 18.9825 17.0254C18.9825 17.2837 18.0903 18.1123 17.4902 18.4112C16.8759 18.7171 16.6827 18.7581 15.8754 18.7499C15.3709 18.7443 14.7483 18.6661 14.4917 18.5755Z" fill="#BBBBBB"/>
<path d="M48.2266 21.5274V16.1596H49.8136H51.4004V16.5467V16.9339L52.0499 16.544C52.9117 16.0269 53.4301 15.8906 54.5177 15.8973C55.6014 15.9033 56.2374 16.1441 56.9461 16.8163L57.4239 17.269L57.7998 16.9399C58.6414 16.2028 60.1869 15.7499 61.3759 15.8909C62.6455 16.0414 63.4592 16.5039 63.899 17.3243C64.1483 17.789 64.1539 17.8832 64.1863 22.3466L64.2193 26.8951H62.6328H61.0469L61.0129 23.1941C60.9823 19.9098 60.9562 19.4522 60.7784 19.128C60.2316 18.1304 58.5773 18.1938 58.0095 19.2342C57.8282 19.5655 57.8016 20.0049 57.7679 23.2507L57.7292 26.8951H56.1518H54.5742V23.1605C54.5742 19.0603 54.555 18.9302 53.898 18.5913C53.4272 18.3486 52.5558 18.3731 52.1145 18.6414C51.4138 19.0672 51.4006 19.1529 51.4006 23.2171V26.8955H49.8138H48.2268V21.5274H48.2266Z" fill="#BBBBBB"/>
<path d="M65.2295 21.5277V16.16H66.8163H68.4031V16.6221V17.0839L68.7707 16.7755C69.5836 16.0939 71.0859 15.7187 72.1893 15.9222C73.0497 16.0805 73.5436 16.3279 74.0375 16.8477L74.4478 17.2792L74.8586 16.9552C75.9589 16.0865 77.3294 15.708 78.629 15.9146C79.553 16.0616 80.0802 16.2912 80.5359 16.7455C81.2685 17.4761 81.2654 17.4514 81.3031 22.4027L81.3373 26.8946H79.753H78.1684L78.1302 23.2502C78.0882 19.1867 78.0476 18.9442 77.3484 18.5839C76.7867 18.2942 75.861 18.4042 75.4349 18.8113C74.9336 19.2898 74.8644 19.8652 74.8644 23.5664V26.8943H73.2832H71.7017L71.668 23.0805C71.6372 19.6289 71.6146 19.2381 71.4306 18.9669C71.1447 18.5472 70.6689 18.3815 69.9258 18.443C69.1344 18.5084 68.655 18.9262 68.5094 19.6766C68.4569 19.948 68.4116 21.6832 68.4089 23.5319L68.404 26.8939H66.8172H65.2304V21.5277H65.2295Z" fill="#BBBBBB"/>
<path d="M94.3604 21.5273V16.1596H95.9471H97.5339V16.6216V17.0835L97.879 16.7937C99.3814 15.5338 102.372 15.5781 103.365 16.875C103.961 17.6531 103.995 17.9702 103.995 22.6184V26.8945H102.408H100.822V23.2183C100.822 19.1666 100.786 18.921 100.156 18.5961C99.6383 18.3293 98.779 18.3672 98.3164 18.6774C97.6067 19.1537 97.5951 19.2245 97.5547 23.2497L97.5181 26.8941H95.9395H94.3612V21.5273H94.3604Z" fill="#BBBBBB"/>
<path d="M30.4862 14.7293C28.6636 14.5612 27.0207 13.5272 26.295 12.0905C25.6948 10.9025 25.4788 8.68751 25.8335 7.35922C26.3138 5.55997 27.5945 4.17734 29.249 3.67097C31.1101 3.10135 33.3417 3.47612 34.7003 4.58552C35.1425 4.9467 35.9498 5.96079 35.8533 6.03316C35.6951 6.15229 33.5778 7.23118 33.5026 7.23118C33.4503 7.23118 33.2729 7.02876 33.1085 6.78114C32.2892 5.54683 30.3042 5.55217 29.4983 6.79117C29.0822 7.43093 28.9166 8.26152 28.9767 9.40454C29.0714 11.204 29.8409 12.1943 31.2216 12.294C31.5834 12.3201 32.0598 12.282 32.2808 12.2094C32.6533 12.0867 33.2624 11.5158 33.5618 11.0078C33.6837 10.8005 33.7402 10.8157 34.7802 11.3269C35.3802 11.6218 35.8707 11.9066 35.8707 11.9598C35.8707 12.1315 35.2408 12.9262 34.7699 13.3487C33.6444 14.3587 32.0476 14.8733 30.4862 14.7293Z" fill="#BBBBBB"/>
<path d="M53.6671 9.71791V9.21977C53.6671 8.52746 53.3941 7.18002 53.1071 6.45653C52.3756 4.61207 50.9038 3.56414 48.8544 3.42786C47.8106 3.35838 46.5756 3.57572 45.7461 3.97431C44.6149 4.5181 43.6239 5.87845 43.2908 7.3448C42.4056 11.2415 44.1162 14.2343 47.4881 14.6886C49.7182 14.9888 51.9136 14.174 53.0608 12.6203C53.3356 12.248 53.5451 11.8971 53.5261 11.8401C53.5071 11.783 52.9963 11.4733 52.3912 11.1511L51.2909 10.5657L50.5857 11.3437C49.7999 12.2104 49.3952 12.4313 48.598 12.4275C47.2942 12.4215 46.5006 11.6497 46.2469 10.1414L46.1756 9.71769H49.9217H53.6671V9.71791ZM46.1573 7.79684L46.2305 7.43143C46.5211 5.984 48.3029 5.25562 49.5623 6.06974C50.0434 6.3806 50.3248 6.81683 50.4515 7.4488L50.5214 7.79684H48.3393H46.1573Z" fill="#BBBBBB"/>
<path d="M64.2562 14.2666C64.2057 14.1579 64.1349 12.1872 64.0983 9.88783C64.0328 5.80276 64.0252 5.69431 63.7664 5.16656C63.2209 4.05405 62.0974 3.53943 59.966 3.42542C57.9475 3.31787 56.6401 3.63763 55.7223 4.46445C55.2371 4.90135 54.8016 5.83816 54.8016 6.44541V6.7801H56.3191H57.8367L57.9097 6.39152C58.0585 5.60145 59.0781 5.14674 60.077 5.42554C60.799 5.62684 60.9772 5.87824 60.9781 6.69459L60.979 7.37733L59.438 7.63631C56.4788 8.13422 55.2132 8.78623 54.5715 10.1441C54.2333 10.8598 54.2193 12.1643 54.5416 12.8884C54.9439 13.7925 55.9276 14.4942 57.0685 14.6928C58.2285 14.8939 59.897 14.4984 60.6699 13.8388C61.2104 13.3777 61.2622 13.3659 61.2642 13.7017C61.2649 13.8415 61.2968 14.0702 61.3341 14.2101C61.4003 14.4572 61.4434 14.4646 62.8747 14.4646C64.2363 14.4646 64.3404 14.4494 64.2562 14.2666ZM60.9113 10.7387C60.7677 11.4045 60.2676 12.0452 59.7094 12.2779C59.5077 12.3618 59.0938 12.4306 58.7893 12.4308C57.3832 12.4308 56.8023 11.0464 57.8758 10.2546C58.144 10.0566 60.5495 9.27033 60.8943 9.26766C61.073 9.2661 61.0806 9.95151 60.9113 10.7387Z" fill="#BBBBBB"/>
<path d="M68.7658 14.6834C67.7466 14.5037 67.1352 14.0467 66.7369 13.1649C66.5571 12.7674 66.5281 12.2942 66.4968 9.23795L66.4611 5.76302H65.6706H64.8799L64.9125 4.83066L64.9453 3.89807L65.7104 3.8649L66.4756 3.83172V2.31125V0.791016H68.0624H69.6492V2.31682V3.8424H70.6126H71.5759V4.79837V5.75434L70.6407 5.78707L69.7053 5.81958L69.6726 8.41871C69.6543 9.84854 69.6697 11.1862 69.707 11.3917C69.8178 12.0036 70.112 12.2043 70.8956 12.2043H71.5755V13.4473V14.6905L71.0372 14.6918C70.7414 14.6923 70.2438 14.7146 69.9324 14.741C69.6215 14.7673 69.0964 14.7415 68.7658 14.6834Z" fill="#BBBBBB"/>
<path d="M95.0875 10.6242C95.0196 10.6231 94.7321 10.92 94.4486 11.2838C93.8321 12.0757 93.1851 12.4315 92.3695 12.428C91.2415 12.4231 90.2739 11.6354 90.1113 10.5897C90.0702 10.3281 90.0119 10.025 89.9811 9.91634C89.9286 9.73063 90.1584 9.71838 93.6896 9.71838H97.4542L97.3883 8.84236C97.1022 5.03519 94.7542 2.97362 91.2789 3.47865C89.0101 3.80844 87.5699 5.1492 87.0407 7.42344C86.8209 8.36716 86.797 10.0295 86.9905 10.8487C87.4944 12.9771 89.0461 14.3782 91.2436 14.6884C92.5987 14.8799 93.9932 14.6528 95.1636 14.0493C95.9584 13.64 96.5072 13.1392 97.0607 12.3177L97.4029 11.8098L96.3068 11.2184C95.7044 10.8926 95.1556 10.6254 95.0875 10.6242ZM89.9916 7.48623C90.3398 6.05529 91.8565 5.31822 93.1725 5.94083C93.6604 6.17175 94.116 6.80594 94.2103 7.38558L94.2775 7.7971H92.0966H89.9157L89.9916 7.48623Z" fill="#BBBBBB"/>
<path d="M36.6916 9.06816L36.7211 3.67262L38.2737 3.641L39.8263 3.60938L39.8607 4.1732L39.8949 4.73703L40.3856 4.40768C40.8462 4.0986 41.5813 3.8374 42.4066 3.68932C42.8723 3.60581 42.8987 3.68553 42.8987 5.1913V6.40958L42.0202 6.54653C41.5368 6.62202 40.9295 6.78346 40.6706 6.90594C39.8625 7.28761 39.8379 7.41164 39.8379 11.1754V14.4639H38.2502H36.6621L36.6916 9.06816Z" fill="#BBBBBB"/>
<path d="M72.8232 9.03676V3.60938L74.3821 3.64077L75.9408 3.67217L75.9698 9.06816L75.9995 14.4642H74.4116H72.8232V9.03676Z" fill="#BBBBBB"/>
<path d="M78.468 9.23801C77.4908 6.36343 76.6757 3.93532 76.6565 3.84202C76.6272 3.69839 76.8769 3.66766 78.2806 3.64183C79.5457 3.618 79.9511 3.64472 79.9907 3.75473C80.019 3.83378 80.443 5.53906 80.933 7.54341C81.4227 9.54775 81.8515 11.1871 81.8866 11.1865C81.9212 11.1856 82.3615 9.49453 82.8647 7.42895L83.7801 3.673L85.4435 3.6416C86.4397 3.62268 87.1071 3.65341 87.1071 3.71754C87.1071 3.77677 86.4381 5.77355 85.6206 8.156C84.8031 10.5385 83.9824 12.9323 83.797 13.4761L83.4595 14.465H81.8524H80.2455L78.468 9.23801Z" fill="#BBBBBB"/>
<path d="M72.8232 1.24634V0H74.4143H76.0051L75.9729 1.21472L75.9408 2.42944L74.3821 2.46106L72.8232 2.49246V1.24634Z" fill="#BBBBBB"/>
</svg>
