<svg width="137" height="29" viewBox="0 0 137 29" fill="none" xmlns="http://www.w3.org/2000/svg">
<path fill-rule="evenodd" clip-rule="evenodd" d="M2.69764 0.000976562C4.02148 0.000976562 5.03982 1.00867 5.03982 2.31868V26.2011C5.03982 27.4103 4.02148 28.5188 2.69764 28.5188C1.3738 28.5188 0.355469 27.4103 0.355469 26.2011V2.31868C0.355469 1.00867 1.3738 0.000976562 2.69764 0.000976562Z" fill="#BBBBBB"/>
<path fill-rule="evenodd" clip-rule="evenodd" d="M12.0668 0C13.3906 0 14.409 1.0077 14.409 2.3177V26.2001C14.409 27.4093 13.3906 28.5178 12.0668 28.5178C10.8448 28.5178 9.72461 27.4093 9.72461 26.2001V2.3177C9.72461 1.0077 10.8448 0 12.0668 0Z" fill="#BBBBBB"/>
<path fill-rule="evenodd" clip-rule="evenodd" d="M132.942 8.56575V6.75189H133.859V6.34882H131.618V6.75189H132.433V8.56575H132.942ZM135.997 6.55036L135.386 8.0619C135.386 8.16267 135.386 8.16267 135.284 8.0619L134.775 6.55036C134.775 6.55036 134.673 6.55036 134.673 6.44959C134.571 6.34882 134.368 6.24805 134.266 6.34882C134.062 6.34882 133.96 6.44959 133.96 6.65112V8.56575H134.368V6.85266C134.368 6.75189 134.47 6.85266 134.47 6.85266L134.979 8.36421C135.081 8.56575 135.182 8.66652 135.386 8.66652C135.59 8.66652 135.59 8.46498 135.692 8.36421L136.303 6.85266C136.303 6.85266 136.303 6.75189 136.303 6.85266V8.56575H136.812V6.65112C136.812 6.44959 136.608 6.34882 136.404 6.24805C136.201 6.24805 136.099 6.34882 135.997 6.55036Z" fill="#BBBBBB"/>
<path fill-rule="evenodd" clip-rule="evenodd" d="M117.26 24.4868H127.444C130.091 24.4868 131.619 22.8745 131.517 20.2545C131.517 18.8437 131.11 17.5337 129.786 16.6268C128.768 16.0222 127.647 15.7199 126.527 15.4176L123.269 14.5107C122.658 14.3091 122.047 14.2083 121.537 13.8053C121.232 13.503 121.232 13.3014 121.232 12.9991C121.232 12.2937 121.537 11.9914 122.352 11.9914H130.906V8.66602H121.843C119.603 8.66602 117.668 9.27063 117.159 11.7899C116.955 13.3014 117.057 14.9137 118.177 16.0222C119.093 16.9291 120.214 17.3322 121.436 17.7353L124.389 18.4407C125.102 18.6422 125.814 18.8437 126.527 19.1461C126.731 19.2468 127.036 19.3476 127.138 19.5491C127.24 19.8514 127.342 20.4561 127.138 20.7584C126.935 21.0607 126.629 21.1614 126.222 21.1614H117.26V24.4868Z" fill="#BBBBBB"/>
<path fill-rule="evenodd" clip-rule="evenodd" d="M102.597 11.9916C104.125 11.9916 105.856 12.2939 105.958 14.1078C105.958 14.4101 106.059 14.7124 105.652 14.7124H99.1347C99.1347 14.007 99.2365 13.3016 99.7457 12.7978C100.357 12.0924 101.477 11.9916 102.597 11.9916ZM101.477 21.1616C100.56 21.0609 99.7457 20.8593 99.3384 19.9524C99.2365 19.3478 99.1347 18.7432 99.1347 18.1385H107.485C108.707 18.1385 109.624 17.5339 110.031 16.4255C110.336 15.8208 110.336 15.1155 110.336 14.4101C110.235 12.697 109.827 11.0847 108.503 9.9762C106.772 8.6662 104.634 8.56543 102.597 8.56543C100.357 8.56543 98.1164 8.76697 96.3852 10.3793C94.8577 12.0924 94.7559 14.3093 94.7559 16.4255C94.7559 17.5339 94.7559 18.5416 94.9595 19.5493C95.1632 20.7586 95.4687 21.867 96.1815 22.7739C97.098 23.7816 98.1164 24.1847 99.3384 24.3863C99.9494 24.487 100.459 24.487 100.968 24.487H109.827V21.1616H101.986H101.477Z" fill="#BBBBBB"/>
<path fill-rule="evenodd" clip-rule="evenodd" d="M51.4757 17.7353V20.8591C51.4757 21.1614 51.1702 21.1614 50.8647 21.1614H46.1804C45.2639 21.1614 45.0602 20.2545 45.0602 19.4484C45.0602 18.6422 45.1621 17.8361 46.2822 17.7353H51.4757ZM41.9034 8.66602V12.0922H49.8464C50.2537 12.0922 50.6611 12.193 51.0684 12.4953C51.3739 12.8983 51.4757 13.3014 51.4757 13.7045V14.4099H45.2639C44.3474 14.4099 43.6345 14.5107 42.8199 14.9137C41.1905 15.9214 40.7832 17.5337 40.7832 19.3476C40.7832 21.1614 41.0887 23.1768 42.8199 24.1845C43.6345 24.4868 44.3474 24.5876 45.2639 24.5876H52.4941C54.5308 24.5876 55.6509 23.6807 55.6509 21.6653V13.8053C55.6509 12.6968 55.4473 11.6891 54.9381 10.6814C54.0216 9.27063 52.5959 8.76679 50.9666 8.66602H41.9034Z" fill="#BBBBBB"/>
<path fill-rule="evenodd" clip-rule="evenodd" d="M26.1196 13.7035V8.46353C26.1196 8.26199 26.1196 7.95968 26.2215 7.85891C26.4251 7.65737 26.6288 7.65737 26.8325 7.65737H32.9425C34.3682 7.65737 35.2847 8.06045 35.4883 9.47122C35.692 10.3781 35.692 11.3858 35.4883 12.2928C35.081 13.6028 34.0627 13.7035 32.9425 13.7035H26.1196ZM26.1196 24.5867V17.5328H35.081C36.4048 17.5328 37.6268 17.2305 38.6452 16.3236C39.6635 15.3159 40.0708 13.9051 40.2745 12.4943C40.3763 11.2851 40.3763 9.97507 40.2745 8.76584C40.1727 7.85891 39.969 6.95198 39.4598 6.04506C38.3397 4.33197 36.6085 3.92889 34.6737 3.82812H34.47H24.8976C23.8793 3.82812 22.8609 4.13043 22.1481 4.93659C21.5371 5.64198 21.5371 6.34737 21.5371 7.25429V24.5867H26.1196Z" fill="#BBBBBB"/>
<path fill-rule="evenodd" clip-rule="evenodd" d="M58.7062 10.2783C57.4842 11.5883 57.1787 13.0999 57.1787 14.7122V24.4868H61.3539V15.6191C61.4557 14.813 61.4557 13.906 61.8631 13.2006C62.5759 12.193 63.5942 11.9914 64.6126 11.9914H67.2602V8.66602H63.7979C61.8631 8.66602 60.1319 8.96833 58.7062 10.2783Z" fill="#BBBBBB"/>
<path fill-rule="evenodd" clip-rule="evenodd" d="M115.733 24.4861H111.558V3.72754H115.733V24.4861Z" fill="#BBBBBB"/>
<path fill-rule="evenodd" clip-rule="evenodd" d="M93.5329 24.4859H89.2559V3.82812H93.5329V24.4859Z" fill="#BBBBBB"/>
<path fill-rule="evenodd" clip-rule="evenodd" d="M87.7289 24.4859H83.5537V3.82812H87.7289V24.4859Z" fill="#BBBBBB"/>
<path fill-rule="evenodd" clip-rule="evenodd" d="M77.7492 17.7353V20.7584C77.7492 21.1614 77.5455 21.1614 77.24 21.1614H72.5557C71.5373 21.0607 71.4355 20.2545 71.4355 19.4484C71.4355 18.5414 71.5373 17.7353 72.6575 17.7353H77.7492ZM68.1768 8.66602V11.9914H76.1198C76.629 11.9914 77.0363 12.0922 77.3418 12.4953C77.7492 12.7976 77.7492 13.2006 77.7492 13.7045V14.3091H71.6392C70.7227 14.3091 69.908 14.4099 69.1952 14.9137C67.464 15.9214 67.1585 17.433 67.0566 19.2468C67.1585 21.0607 67.3621 23.0761 69.1952 24.0838C69.908 24.4868 70.7227 24.4868 71.6392 24.4868H78.8694C80.906 24.4868 82.0262 23.5799 82.0262 21.5645V13.8053C81.9244 12.6968 81.8225 11.5883 81.2115 10.5806C80.3969 9.16986 78.8694 8.66602 77.3418 8.66602H68.1768Z" fill="#BBBBBB"/>
</svg>
