<svg width="53" height="33" viewBox="0 0 53 33" fill="none" xmlns="http://www.w3.org/2000/svg">
<path d="M11.1866 3.61346C7.53059 3.61346 4.50231 6.41591 4.03045 10.0367H18.3428C17.8706 6.41591 14.8428 3.61346 11.1866 3.61346ZM6.3033 8.34398C7.23438 6.53885 9.07282 5.30606 11.1865 5.30606C13.3001 5.30606 15.1386 6.53885 16.0696 8.34398H6.3033ZM43.5681 16.3762V0.227657H41.8773V18.0688H52.3391V16.3762H43.5681ZM39.9597 0.227657H38.2685V4.70337C36.2745 1.86242 32.9776 0 29.2523 0C25.4688 0 22.1257 1.91971 20.1419 4.83584C18.1916 1.91985 14.9067 0 11.1866 0C5.21444 0 0.355469 4.94491 0.355469 11.023C0.355469 17.1016 5.21444 22.0464 11.1866 22.0464C14.9067 22.0464 18.1914 20.126 20.1415 17.2096C22.1253 20.1268 25.4688 22.0464 29.2523 22.0464C32.9776 22.0464 36.2745 20.184 38.2686 17.3426V21.6823H52.3391V19.9893H39.9597V0.227657ZM29.2523 20.3534C25.6698 20.3534 22.5607 18.3165 21.0006 15.3431H19.276C17.7466 18.3165 14.6986 20.3534 11.1865 20.3534C6.14661 20.3534 2.04639 16.1676 2.04639 11.023C2.04639 5.87847 6.14661 1.69301 11.1865 1.69301C15.5796 1.69301 19.2577 4.87354 20.1298 9.0969C21.0193 4.87354 24.771 1.69301 29.2522 1.69301C34.3932 1.69301 38.5755 5.87847 38.5755 11.023C38.5756 16.1677 34.3932 20.3534 29.2523 20.3534ZM29.2523 3.61346C25.1688 3.61346 21.8469 6.93708 21.8469 11.023C21.8469 11.3396 21.8691 11.6511 21.9078 11.9573H4.02379C4.47329 15.6033 7.51285 18.433 11.1866 18.433C13.5962 18.433 15.7255 17.2106 17.0354 15.3431H14.7973C13.828 16.2116 12.5674 16.7403 11.1865 16.7403C9.05298 16.7403 7.20143 15.4832 6.27891 13.6502H16.0941H22.329C23.3914 16.4429 26.0932 18.433 29.2522 18.433C33.3358 18.433 36.6577 15.109 36.6577 11.0231C36.6578 6.93708 33.3359 3.61346 29.2523 3.61346ZM29.2523 16.7403C26.1015 16.7403 23.5378 14.1754 23.5378 11.023C23.5378 7.87091 26.1015 5.30606 29.2523 5.30606C32.4032 5.30606 34.9667 7.87091 34.9667 11.023C34.9667 14.1754 32.4032 16.7403 29.2523 16.7403Z" fill="#BBBBBB"/>
<path d="M3.88699 28.8152V29.154H1.94737V30.7124H4.10709V31.0511H1.5752V27.0537H4.01678V27.3925H1.94737V28.8152H3.88699Z" fill="#BBBBBB"/>
<path d="M4.87983 29.1778C4.87983 28.9861 4.85156 28.5793 4.85156 28.4441H5.18996C5.1954 28.6358 5.20124 28.8504 5.21252 28.901H5.22944C5.36487 28.613 5.69743 28.376 6.12043 28.376C6.93218 28.376 7.1128 28.9294 7.1128 29.4999V31.0524H6.7744V29.5166C6.7744 29.0929 6.65616 28.6811 6.12043 28.6811C5.6184 28.6811 5.21796 29.0309 5.21796 29.7482V31.0525H4.87976V29.1778H4.87983Z" fill="#BBBBBB"/>
<path d="M10.2529 30.6676C9.99908 30.9726 9.66652 31.1193 9.29449 31.1193C8.49381 31.1193 7.92383 30.5431 7.92383 29.7472C7.92383 28.951 8.49381 28.375 9.29449 28.375C9.67216 28.375 10.0106 28.5392 10.2642 28.8271L9.99365 29.03C9.79631 28.8158 9.56494 28.6801 9.29449 28.6801C8.65723 28.6801 8.26243 29.1598 8.26243 29.7472C8.26243 30.3342 8.6573 30.8142 9.29449 30.8142C9.57622 30.8142 9.81908 30.6676 9.99365 30.4528L10.2529 30.6676Z" fill="#BBBBBB"/>
<path d="M11.5725 31.8593C11.4427 32.1925 11.2283 32.407 10.8562 32.407C10.7436 32.407 10.6309 32.3842 10.5235 32.3561L10.5573 32.0397C10.6533 32.0683 10.7603 32.1023 10.8618 32.1023C11.1099 32.1023 11.2173 31.8708 11.2962 31.6676L11.533 31.0628L10.4727 28.4434H10.8505L11.7135 30.6398L12.5537 28.4434H12.9143L11.5725 31.8593Z" fill="#BBBBBB"/>
<path d="M15.6893 30.6676C15.4356 30.9726 15.103 31.1193 14.7306 31.1193C13.9301 31.1193 13.3604 30.5431 13.3604 29.7472C13.3604 28.951 13.9301 28.375 14.7306 28.375C15.1085 28.375 15.4467 28.5392 15.7008 28.8271L15.43 29.03C15.2326 28.8158 15.0013 28.6801 14.7306 28.6801C14.0936 28.6801 13.6987 29.1598 13.6987 29.7472C13.6987 30.3342 14.0936 30.8142 14.7306 30.8142C15.0127 30.8142 15.255 30.6676 15.43 30.4528L15.6893 30.6676Z" fill="#BBBBBB"/>
<path d="M16.332 26.7832H16.6704V31.052H16.332V26.7832Z" fill="#BBBBBB"/>
<path d="M18.9091 28.375C19.71 28.375 20.2796 28.951 20.2796 29.7472C20.2796 30.5433 19.71 31.1192 18.9091 31.1192C18.1084 31.1192 17.5391 30.5433 17.5391 29.7472C17.5391 28.951 18.1084 28.375 18.9091 28.375ZM18.9091 30.8142C19.5464 30.8142 19.9413 30.3342 19.9413 29.7472C19.9413 29.1601 19.5464 28.6801 18.9091 28.6801C18.2719 28.6801 17.8771 29.16 17.8771 29.7472C17.8771 30.3342 18.2719 30.8142 18.9091 30.8142Z" fill="#BBBBBB"/>
<path d="M21.0176 28.4431H21.3558V28.9001H21.3673C21.5758 28.539 22.0212 28.375 22.4103 28.375C23.2111 28.375 23.7803 28.951 23.7803 29.7472C23.7803 30.5433 23.2111 31.1192 22.4103 31.1192C22.0212 31.1192 21.5759 30.9554 21.3673 30.5944H21.3558V32.3387H21.0176V28.4431ZM22.4102 30.8142C23.0474 30.8142 23.4424 30.3342 23.4424 29.7472C23.4424 29.1601 23.0474 28.6801 22.4102 28.6801C21.7957 28.6801 21.3219 29.16 21.3219 29.7472C21.3219 30.3342 21.7957 30.8142 22.4102 30.8142Z" fill="#BBBBBB"/>
<path d="M26.8929 30.5604C26.6277 30.9556 26.2276 31.119 25.765 31.119C24.9698 31.119 24.4453 30.549 24.4453 29.7416C24.4453 28.9625 24.9867 28.375 25.7481 28.375C26.549 28.375 26.9716 28.9907 26.9716 29.5951V29.832H24.784C24.784 30.1141 24.9812 30.8142 25.7709 30.8142C26.1146 30.8142 26.4756 30.6337 26.6447 30.3512L26.8929 30.5604ZM26.6335 29.5269C26.6335 29.0639 26.233 28.6799 25.7314 28.6799C24.9926 28.6799 24.7841 29.3912 24.7841 29.5269H26.6335Z" fill="#BBBBBB"/>
<path d="M30.0626 30.5944H30.0515C29.8429 30.9557 29.3971 31.1196 29.0082 31.1196C28.2072 31.1196 27.6377 30.5436 27.6377 29.7475C27.6377 28.9513 28.2072 28.3752 29.0082 28.3752C29.3971 28.3752 29.8429 28.5395 30.0515 28.9002H30.0626V26.7832H30.401V31.0519H30.0626V30.5944ZM29.0082 28.6803C28.3708 28.6803 27.9759 29.1603 27.9759 29.7475C27.9759 30.3345 28.3708 30.8144 29.0082 30.8144C29.6226 30.8144 30.0965 30.3345 30.0965 29.7475C30.0965 29.1603 29.6226 28.6803 29.0082 28.6803Z" fill="#BBBBBB"/>
<path d="M31.5117 27.1553C31.6527 27.1553 31.7652 27.2684 31.7652 27.4096C31.7652 27.5506 31.6527 27.6637 31.5117 27.6637C31.3706 27.6637 31.2578 27.5506 31.2578 27.4096C31.2578 27.2684 31.3706 27.1553 31.5117 27.1553ZM31.3424 28.4429H31.6807V31.0515H31.3424V28.4429Z" fill="#BBBBBB"/>
<path d="M34.7202 29.9569C34.7202 30.465 34.7315 30.7528 34.771 31.0523H34.4552C34.4324 30.9222 34.4214 30.7755 34.4214 30.6289H34.4098C34.2184 30.9617 33.936 31.1197 33.4965 31.1197C33.0506 31.1197 32.5771 30.8997 32.5771 30.3464C32.5771 29.5503 33.508 29.4713 34.0211 29.4713H34.4157V29.3133C34.4157 28.8614 34.1001 28.6809 33.6826 28.6809C33.3782 28.6809 33.1189 28.7767 32.8875 28.9743L32.6902 28.7428C32.9383 28.5059 33.3442 28.376 33.6826 28.376C34.3142 28.376 34.7203 28.6583 34.7203 29.3187V29.9569H34.7202ZM34.0434 29.7421C33.4793 29.7421 32.9156 29.8834 32.9156 30.3292C32.9156 30.6512 33.2257 30.815 33.508 30.815C34.2298 30.815 34.4156 30.3519 34.4156 29.9173V29.7421H34.0434Z" fill="#BBBBBB"/>
<path d="M38.4251 28.375C39.226 28.375 39.7952 28.951 39.7952 29.7472C39.7952 30.5433 39.226 31.1192 38.4251 31.1192C37.6245 31.1192 37.0547 30.5433 37.0547 29.7472C37.0547 28.951 37.6244 28.375 38.4251 28.375ZM38.4251 30.8142C39.0624 30.8142 39.4574 30.3342 39.4574 29.7472C39.4574 29.1601 39.0624 28.6801 38.4251 28.6801C37.7875 28.6801 37.3931 29.16 37.3931 29.7472C37.393 30.3342 37.7875 30.8142 38.4251 30.8142Z" fill="#BBBBBB"/>
<path d="M40.7996 28.7476H40.2578V28.443H40.7996V27.5903C40.7996 26.9186 41.2448 26.7148 41.5775 26.7148C41.7409 26.7148 41.8651 26.7378 41.9667 26.7829L41.8988 27.0765C41.8198 27.0371 41.7243 27.0199 41.5944 27.0199C41.2843 27.0199 41.1375 27.2459 41.1375 27.7142V28.443H41.7468V28.7476H41.1375V31.0516H40.7995V28.7476H40.7996Z" fill="#BBBBBB"/>
<path d="M43.9512 31.0511V27.0537H44.3236V30.7124H46.1842V31.0511H43.9512Z" fill="#BBBBBB"/>
<path d="M46.9571 27.1553C47.0977 27.1553 47.2107 27.2684 47.2107 27.4096C47.2107 27.5506 47.0977 27.6637 46.9571 27.6637C46.8162 27.6637 46.7031 27.5506 46.7031 27.4096C46.7031 27.2684 46.8162 27.1553 46.9571 27.1553ZM46.7879 28.4429H47.1262V31.0515H46.7879V28.4429Z" fill="#BBBBBB"/>
<path d="M48.3316 28.7476H47.79V28.443H48.3316V27.5903C48.3316 26.9186 48.7768 26.7148 49.1097 26.7148C49.273 26.7148 49.3973 26.7378 49.4987 26.7829L49.4308 27.0765C49.3521 27.0371 49.2563 27.0199 49.1264 27.0199C48.8163 27.0199 48.67 27.2459 48.67 27.7142V28.443H49.2788V28.7476H48.67V31.0516H48.3316V28.7476Z" fill="#BBBBBB"/>
<path d="M52.1672 30.5604C51.902 30.9556 51.5018 31.119 51.0394 31.119C50.2443 31.119 49.7197 30.549 49.7197 29.7416C49.7197 28.9625 50.2613 28.375 51.0223 28.375C51.8232 28.375 52.2463 28.9907 52.2463 29.5951V29.832H50.0585C50.0585 30.1141 50.2559 30.8142 51.0451 30.8142C51.3888 30.8142 51.7499 30.6337 51.919 30.3512L52.1672 30.5604ZM51.9081 29.5269C51.9081 29.0639 51.5076 28.6799 51.0057 28.6799C50.2672 28.6799 50.0585 29.3912 50.0585 29.5269H51.9081Z" fill="#BBBBBB"/>
</svg>
