<svg width="26" height="26" viewBox="0 0 26 26" fill="none" xmlns="http://www.w3.org/2000/svg">
<path d="M15.7939 12.6992C15.5244 12.6992 15.3057 12.918 15.3057 13.1875C15.3057 13.457 15.5244 13.6758 15.7939 13.6758C16.0635 13.6758 16.2822 13.457 16.2822 13.1875C16.2822 12.918 16.0635 12.6992 15.7939 12.6992Z" fill="#F40009"/>
<path d="M5.35289 18.0598L0.470084 24.2122C0.353545 24.3588 0.331419 24.5593 0.412863 24.7279C0.494307 24.8967 0.665205 25.0039 0.852507 25.0039H24.8759C25.0632 25.0039 25.2341 24.8967 25.3156 24.7279C25.3972 24.5593 25.3749 24.3588 25.2584 24.2122L20.3755 18.0598C20.283 17.9431 20.1421 17.875 19.9931 17.875H15.7159L19.3675 12.1476C20.2241 10.8634 20.6767 9.36575 20.6767 7.81641C20.6767 3.50866 17.1722 0.00390625 12.8642 0.00390625C8.55628 0.00390625 5.05172 3.50866 5.05172 7.81641C5.05172 9.36575 5.50434 10.8632 6.36093 12.1476L10.0125 17.875H5.73532C5.58635 17.875 5.44559 17.9431 5.35289 18.0598ZM3.52985 21.9277H6.48223L4.81597 24.0273H1.8634L3.52985 21.9277ZM10.6353 18.8516L11.9739 20.9512H8.50402L10.1705 18.8516H10.6353ZM15.0933 18.8516H15.5582L17.2244 20.9512H13.7548L15.0933 18.8516ZM17.9996 21.9277L19.6658 24.0273H6.06262L7.72907 21.9277H17.9996ZM20.9127 24.0273L19.2462 21.9277H22.1988L23.865 24.0273H20.9127ZM21.4236 20.9512H18.4712L16.8048 18.8516H19.7574L21.4236 20.9512ZM7.17613 11.6097C6.4252 10.4855 6.02828 9.17387 6.02828 7.81641C6.02828 4.0471 9.09492 0.980469 12.8642 0.980469C16.6335 0.980469 19.7002 4.0471 19.7002 7.81641C19.7002 9.17387 19.3032 10.4855 18.5525 11.6097C18.5504 11.6126 18.5487 11.6155 18.5468 11.6183C18.2262 12.1213 13.1112 20.144 12.8642 20.5312C12.243 19.5567 7.81432 12.6105 7.18166 11.6183C7.17994 11.6155 7.17803 11.6126 7.17613 11.6097ZM8.92364 18.8516L7.25738 20.9512H4.30481L5.97125 18.8516H8.92364Z" fill="#F40009"/>
<path d="M12.8643 12.6992C15.5448 12.6992 17.7471 10.5285 17.7471 7.81641C17.7471 5.12399 15.5567 2.93359 12.8643 2.93359C10.1718 2.93359 7.98145 5.12399 7.98145 7.81641C7.98145 10.5292 10.1844 12.6992 12.8643 12.6992ZM12.8643 3.91016C15.0182 3.91016 16.7705 5.66244 16.7705 7.81641C16.7705 9.9904 15.0041 11.7227 12.8643 11.7227C10.7238 11.7227 8.95801 9.9904 8.95801 7.81641C8.95801 5.66244 10.7103 3.91016 12.8643 3.91016Z" fill="#F40009"/>
<path d="M14.9211 14.3651C14.6903 14.2259 14.3901 14.3003 14.2509 14.5312L12.4462 17.5254C12.3069 17.7564 12.3813 18.0564 12.6123 18.1956C12.8442 18.3354 13.1439 18.2595 13.2825 18.0295L15.0873 15.0353C15.2265 14.8044 15.1521 14.5043 14.9211 14.3651Z" fill="#F40009"/>
</svg>
