<svg width="83" height="59" viewBox="0 0 83 59" fill="none" xmlns="http://www.w3.org/2000/svg">
<path fill-rule="evenodd" clip-rule="evenodd" d="M20.5186 42.5478C6.96973 49.6855 1.19434 28.7802 0 17.4355C2.70312 8.42471 11.7012 10.0976 18.9199 11.4394C23.8789 12.3603 27.998 13.1259 28.6611 10.1659C30.29 2.89639 42.667 -4.37314 51.1348 3.22647C52.0146 4.01651 52.5635 4.96963 52.8223 6.05557C52.877 6.28506 52.9189 6.52041 52.9482 6.76162C57.5479 4.37002 63.4414 4.01455 68.1348 8.22647C70.0146 9.91397 70.3857 12.3505 69.6396 15.2187C78.1377 17.2177 82.042 32.4657 83 41.5644C80.2969 50.5751 71.2988 48.9022 64.0801 47.5605C59.1211 46.6396 55.002 45.8739 54.3389 48.8339C52.71 56.1034 40.333 63.373 31.8652 55.7733C29.9854 54.0858 29.6143 51.6493 30.3604 48.7812C27.0361 47.9989 24.415 45.1894 22.3975 41.5136C21.8975 41.8007 21.4004 42.0771 20.9072 42.3417L20.5186 42.5478Z" fill="#F40009"/>
</svg>
