<svg width="80" height="78" viewBox="0 0 80 78" fill="none" xmlns="http://www.w3.org/2000/svg">
<path d="M66.0156 41.2715C65.3727 41.2715 64.8514 41.7901 64.8514 42.4297C64.8514 43.2407 64.1883 43.9005 63.3731 43.9005C62.5581 43.9005 61.8948 43.2407 61.8948 42.4297C61.8948 41.7899 61.3736 41.2715 60.7306 41.2715C60.0877 41.2715 59.5664 41.7901 59.5664 42.4297C59.5664 44.5181 61.2742 46.217 63.3731 46.217C65.472 46.217 67.1798 44.5179 67.1798 42.4297C67.1798 41.7898 66.6586 41.2715 66.0156 41.2715Z" fill="#3C3C3C"/>
<path d="M76.9444 41.4608L73.6675 40.4165C73.2478 40.2827 72.917 39.9494 72.7828 39.5249C72.0922 37.3403 71.05 35.2895 69.6852 33.4291C69.0631 32.5811 68.3714 31.7713 67.6158 31.0005C68.0992 28.8905 68.362 26.5027 68.328 24.4397C68.2792 21.4885 67.6864 19.7575 66.5158 19.1476C65.8853 18.8186 63.9666 17.8194 53.5811 22.5491C53.3352 22.661 53.1055 22.7989 52.8928 22.9569C52.1927 22.7697 51.477 22.5965 50.757 22.4411C50.6703 22.4223 50.5809 22.4056 50.4936 22.3873C51.3352 20.5583 51.8266 18.5718 51.9189 16.5211C51.9477 15.8819 51.4503 15.3406 50.8078 15.3121C50.167 15.2804 49.6213 15.7782 49.5927 16.4174C49.4409 19.7893 48.035 22.9618 45.6341 25.3506C44.1995 26.7778 42.5198 27.8145 40.7297 28.4674C37.6252 28.034 34.463 28.034 31.3584 28.4674C29.5681 27.8145 27.8886 26.7778 26.4541 25.3506C23.8925 22.8022 22.4817 19.4138 22.4817 15.8097C22.4817 12.2055 23.8925 8.81728 26.4541 6.26883C29.0156 3.72023 32.4216 2.31667 36.0441 2.31667C39.6666 2.31667 43.0725 3.72023 45.6341 6.26883C46.6634 7.29294 47.5141 8.46161 48.1623 9.74205C48.4516 10.3135 49.1517 10.5436 49.7259 10.2557C50.3003 9.96808 50.5314 9.27151 50.2422 8.70023C49.4823 7.19874 48.4859 5.82969 47.2808 4.63055C44.2794 1.64451 40.2887 0 36.0442 0C31.7997 0 27.8091 1.64451 24.8077 4.63055C21.8062 7.61674 20.1533 11.5868 20.1533 15.8096C20.1533 20.0324 21.8062 24.0026 24.8077 26.9886C25.6734 27.85 26.6153 28.5907 27.6116 29.2112C27.6119 29.2112 27.6122 29.2111 27.6125 29.2111C26.8886 29.3982 26.1702 29.6084 25.4597 29.8447C24.8498 30.0476 24.5208 30.7037 24.7247 31.3106C24.9284 31.9173 25.5883 32.2447 26.198 32.042C32.5473 29.9302 39.5411 29.9302 45.8905 32.042C46.013 32.0827 46.1373 32.102 46.2597 32.102C46.7467 32.102 47.2008 31.7954 47.3637 31.3106C47.5677 30.7039 47.2386 30.0476 46.6288 29.8447C45.9183 29.6084 45.1998 29.3981 44.4759 29.2111C44.4762 29.2111 44.4766 29.2112 44.4769 29.2112C45.4733 28.5907 46.415 27.85 47.2808 26.9886C48.0467 26.2266 48.7228 25.3945 49.3098 24.5101C49.6308 24.5721 49.9494 24.6371 50.2633 24.7049C50.6814 24.7952 51.0977 24.8922 51.5102 24.994C51.4972 25.0444 51.4839 25.0946 51.4731 25.1458C50.9053 27.8265 50.9422 30.1974 51.5827 32.1923C52.1583 33.9854 53.1972 35.4381 54.6702 36.5102C56.4062 37.7737 58.5022 38.3195 60.4008 38.3195C61.8297 38.3195 63.147 38.0102 64.1145 37.465C65.2089 36.8483 66.1258 35.5489 66.8516 33.598C67.187 33.9876 67.505 34.3866 67.8047 34.7952C69.0198 36.4513 69.9475 38.2766 70.5619 40.2201C70.9227 41.3615 71.8183 42.2597 72.9575 42.623L76.2344 43.6673C77.0942 43.9414 77.6719 44.7287 77.6719 45.6269V51.0327C77.6719 51.9309 77.0942 52.7182 76.2344 52.9923L70.9548 54.6747C70.1102 54.9441 69.3953 55.5216 68.942 56.301C66.8678 59.8674 63.6067 62.8186 59.2487 65.0728C58.7453 65.3335 58.3966 65.7997 58.2916 66.3521L56.6006 75.2599C56.5539 75.5053 56.3378 75.6833 56.0867 75.6833H50.5888C50.3377 75.6833 50.1216 75.5052 50.0748 75.2599L49.1383 70.3369C48.9539 69.3683 48.0408 68.7249 47.058 68.8731C44.6897 69.2294 42.2494 69.4098 39.8052 69.4098C37.9867 69.4098 36.1916 69.3089 34.4692 69.1098C33.5169 69.0008 32.6297 69.6467 32.4517 70.5822L31.5617 75.2599C31.515 75.5053 31.2989 75.6833 31.0478 75.6833H25.5498C25.2987 75.6833 25.0827 75.5052 25.0353 75.2561L23.4072 66.8429C23.3023 66.3008 22.9602 65.8399 22.4678 65.5783C15.0391 61.6328 11.1125 55.0411 11.1125 46.5162C11.1125 42.209 12.0597 38.4003 13.9277 35.1956C15.6708 32.2049 18.2167 29.7321 21.4947 27.8458C22.0512 27.5254 22.2414 26.8168 21.9195 26.263C21.5977 25.7093 20.8855 25.5204 20.3288 25.8403C13.9727 29.4983 10.1391 35.1418 9.08359 42.3096V42.3095C8.97156 42.2994 8.85938 42.2897 8.74766 42.2782C8.76797 41.5048 8.62734 40.7245 8.32109 39.9671C7.64563 38.2967 6.25812 37.091 4.78609 36.8956C3.62609 36.7411 2.52219 37.2311 1.75609 38.2381C0.645313 39.6984 0.826406 40.854 1.17375 41.5662C1.76016 42.7683 3.2675 43.6187 5.76891 44.1532C5.70016 44.2557 5.62453 44.3586 5.54172 44.462C4.06375 46.3061 2.3225 46.7138 1.19187 46.7522C0.53 46.7744 0 47.3031 0 47.9621V47.9677C0 48.6176 0.515469 49.1477 1.16812 49.1774C1.25172 49.1813 1.33906 49.1833 1.43 49.1833C2.86063 49.1833 5.15672 48.6583 7.36266 45.9064C7.71094 45.4721 7.99469 45.0138 8.21281 44.5403C8.4325 44.565 8.64359 44.5862 8.84578 44.6048C8.84578 44.6044 8.84578 44.604 8.84594 44.6036C8.80625 45.2313 8.78422 45.8682 8.78422 46.5162C8.78422 51.3395 9.94 55.6401 12.2192 59.2989C14.3208 62.6722 17.3297 65.4342 21.1653 67.5113L22.7481 75.6905C23.0027 77.0286 24.1809 77.9998 25.5498 77.9998H31.0478C32.4167 77.9998 33.595 77.0286 33.8495 75.6905L34.6542 71.461C36.3255 71.6371 38.0558 71.7263 39.805 71.7263C42.205 71.7263 44.6022 71.56 46.9384 71.2317L47.7867 75.6908C48.0414 77.0289 49.2197 78 50.5884 78H56.0864C57.4553 78 58.6336 77.0287 58.8883 75.6902L60.5347 67.0175C65.1859 64.5705 68.6919 61.3561 70.9572 57.4612C71.1205 57.1804 71.3719 56.9745 71.665 56.881L76.9444 55.1986C78.772 54.6158 80 52.9418 80 51.0324V45.6266C80 43.7174 78.772 42.0433 76.9444 41.4608ZM65.8247 27.6947C65.3766 31.5072 64.1745 34.7686 62.9667 35.4491C61.5939 36.2228 58.4244 36.3722 56.0447 34.6403C53.6622 32.9064 52.8692 29.7884 53.7513 25.6233C53.7513 25.6231 53.7513 25.6231 53.7513 25.6231C53.8398 25.2048 54.1386 24.8429 54.5503 24.6555C60.3791 22.001 63.7395 21.1328 64.988 21.1328C65.1764 21.1328 65.3167 21.1525 65.4102 21.1889C65.7852 21.5866 66.277 23.847 65.8247 27.6947ZM3.26891 40.5547C3.14844 40.3076 3.43281 39.8731 3.61313 39.6359C3.89891 39.2603 4.16219 39.1835 4.36109 39.1835C4.40312 39.1835 4.44234 39.1869 4.47828 39.1917C5.01359 39.2628 5.76359 39.8488 6.16094 40.8314C6.25453 41.0627 6.37609 41.4459 6.40453 41.9238C4.79281 41.5916 3.54062 41.1126 3.26891 40.5547Z" fill="#3C3C3C"/>
<path d="M37.1745 14.4822V10.3373C38.6112 10.4394 39.145 11.0928 39.6375 11.0928C40.2532 11.0928 40.5406 10.3169 40.5406 9.9289C40.5406 8.92827 38.5701 8.49953 37.1745 8.45865V7.90711C37.1745 7.66213 36.8665 7.4375 36.5587 7.4375C36.2096 7.4375 35.9634 7.66213 35.9634 7.90711V8.49922C34.0136 8.70349 32.0637 9.72448 32.0637 12.2973C32.0637 14.9111 34.1162 15.6462 35.9634 16.2995V21.0981C33.8698 20.9348 33.3157 19.5054 32.6384 19.5054C32.1253 19.5054 31.6943 20.1793 31.6943 20.6694C31.6943 21.6699 33.4184 23.038 35.9634 23.0789V23.7119C35.9634 23.9569 36.2098 24.1815 36.5587 24.1815C36.8667 24.1815 37.1745 23.9569 37.1745 23.7119V23.0176C39.3912 22.7112 40.91 21.3228 40.91 18.8112C40.91 16.0342 38.9601 15.1355 37.1745 14.4822ZM36.0865 14.0943C34.9987 13.686 34.1162 13.2572 34.1162 12.0934C34.1162 11.0315 34.9371 10.521 36.0865 10.3781V14.0943ZM37.0512 21.0573V16.7488C38.0568 17.1775 38.8573 17.7493 38.8573 19.0356C38.8573 20.1998 38.1595 20.8531 37.0512 21.0573Z" fill="#3C3C3C"/>
</svg>
