<svg width="80" height="80" viewBox="0 0 80 80" fill="none" xmlns="http://www.w3.org/2000/svg">
<path d="M58.681 5.64504L58.7623 6.04557H59.171H79.5V23.5687V78.5244H0.5V23.5687V6.04557H20.829H21.2377L21.319 5.64504C21.9144 2.71158 24.5013 0.5 27.5862 0.5C31.1104 0.5 33.9828 3.3834 33.9828 6.93196C33.9828 10.4805 31.1104 13.3639 27.5862 13.3639C27.1031 13.3639 26.7069 12.9702 26.7069 12.4775C26.7069 11.9849 27.1031 11.5911 27.5862 11.5911C30.1461 11.5911 32.2241 9.49878 32.2241 6.93196C32.2241 4.36515 30.1461 2.27279 27.5862 2.27279C25.5669 2.27279 23.8686 3.57922 23.2308 5.37852L22.9944 6.04557H23.7021H26.2069C26.69 6.04557 27.0862 6.43934 27.0862 6.93196C27.0862 7.42459 26.69 7.81836 26.2069 7.81836H22.069H2.75862H2.25862V8.31836V20.7959V21.2959H2.75862H77.2414H77.7414V20.7959V8.31836V7.81836H77.2414H59.171H58.7623L58.681 8.21889C58.0856 11.1523 55.4987 13.3639 52.4138 13.3639C51.9306 13.3639 51.5345 12.9702 51.5345 12.4775C51.5345 11.9849 51.9306 11.5911 52.4138 11.5911C54.9737 11.5911 57.0517 9.49878 57.0517 6.93196C57.0517 4.36515 54.9737 2.27279 52.4138 2.27279C51.9306 2.27279 51.5345 1.87902 51.5345 1.38639C51.5345 0.893769 51.9306 0.5 52.4138 0.5C55.5 0.5 58.0855 2.71152 58.681 5.64504ZM77.2414 76.7516H77.7414V76.2516V23.5687V23.0687H77.2414H2.75862H2.25862V23.5687V76.2516V76.7516H2.75862H77.2414Z" fill="#3C3C3C" stroke="#3C3C3C"/>
<path d="M40.4997 6.93196C40.4997 4.36515 38.4217 2.27279 35.8617 2.27279C35.3786 2.27279 34.9824 1.87902 34.9824 1.38639C34.9824 0.893769 35.3786 0.5 35.8617 0.5C39.3859 0.5 42.2583 3.3834 42.2583 6.93196C42.2583 10.4805 39.3859 13.3639 35.8617 13.3639C35.3786 13.3639 34.9824 12.9702 34.9824 12.4775C34.9824 11.9849 35.3786 11.5911 35.8617 11.5911C38.4217 11.5911 40.4997 9.49878 40.4997 6.93196Z" fill="#3C3C3C" stroke="#3C3C3C"/>
<path d="M48.7751 6.93196C48.7751 4.36515 46.6971 2.27279 44.1371 2.27279C43.654 2.27279 43.2578 1.87902 43.2578 1.38639C43.2578 0.893769 43.654 0.5 44.1371 0.5C47.6613 0.5 50.5337 3.3834 50.5337 6.93196C50.5337 10.4805 47.6613 13.3639 44.1371 13.3639C43.654 13.3639 43.2578 12.9702 43.2578 12.4775C43.2578 11.9849 43.654 11.5911 44.1371 11.5911C46.6971 11.5911 48.7751 9.49878 48.7751 6.93196Z" fill="#3C3C3C" stroke="#3C3C3C"/>
<path d="M44.6499 41.8044V41.7358H30.8789V39.6436H46.9993V41.8387L35.6636 64.3901H33.1769L44.6499 41.8044Z" fill="black"/>
</svg>
