<svg width="80" height="75" viewBox="0 0 80 75" fill="none" xmlns="http://www.w3.org/2000/svg">
<path d="M32.6299 13H34.8535V0.317383H32.6123L29.2988 2.64648V4.78223L32.5771 2.47949H32.6299V13Z" fill="#3C3C3C"/>
<path d="M37.71 4.0791V4.10547H39.8369V4.07031C39.8369 2.81348 40.8213 1.88184 42.1396 1.88184C43.3965 1.88184 44.3369 2.7168 44.3369 3.7627C44.3369 4.71191 43.9414 5.3623 42.5 6.83008L37.833 11.4707V13H46.7451V11.1455H40.8564V11.1016L43.9941 7.99902C45.6553 6.32031 46.5518 5.17773 46.5518 3.66602C46.5518 1.60938 44.7412 0.0625 42.21 0.0625C39.582 0.0625 37.71 1.74121 37.71 4.0791Z" fill="#3C3C3C"/>
<path d="M32.577 53.8528H28.8662L28.8675 51.107C31.8969 48.4535 33.8141 44.5545 33.8141 40.2149V35.4566C34.7809 30.5819 34.3373 26.9672 32.4941 24.7133C31.3325 23.2925 29.8924 22.7509 28.8656 22.5485V17.0593C28.8656 16.3743 28.3117 15.8191 27.6285 15.8191C27.1591 15.8191 26.6782 15.8166 26.1885 15.814C25.6767 15.8113 25.1552 15.8086 24.6279 15.8086C18.6599 15.8086 11.9591 16.1871 7.97896 20.7072C5.11595 23.9584 4.12456 28.7602 4.94807 35.3863V40.2151C4.94807 44.5556 6.86606 48.4554 9.89662 51.1089V53.8528H6.18549C2.77469 53.8528 0 56.6347 0 60.0539V73.2834C0 73.9684 0.553827 74.5236 1.2371 74.5236H37.5254C38.2087 74.5236 38.7625 73.9684 38.7625 73.2834V60.0572C38.7625 60.0561 38.7627 60.0552 38.7627 60.0541C38.7627 56.6345 35.9878 53.8528 32.577 53.8528ZM9.83405 22.3487C13.1327 18.6025 19.2 18.289 24.6281 18.289C25.1511 18.289 25.6679 18.2917 26.1755 18.2944C26.2478 18.2948 26.3197 18.2951 26.3915 18.2955V23.6739C26.3915 24.0162 26.5267 24.3438 26.7756 24.5783C27.0245 24.8128 27.3523 24.9332 27.6939 24.9124C27.806 24.9081 29.4377 24.888 30.5807 26.286C31.4252 27.3186 31.8464 28.9034 31.837 30.9577L31.2993 29.8796C31.0267 29.3331 30.3974 29.0667 29.8171 29.2527C29.7434 29.2761 22.4136 31.6019 18.1851 31.6019C14.1297 31.6019 10.46 29.3974 10.4249 29.3761C9.8809 29.0427 9.17301 29.1787 8.79024 29.6903L7.15735 31.8729C7.05776 27.6791 7.9537 24.4837 9.83405 22.3487ZM7.42227 40.2149V35.6526L10.1306 32.0325C11.6561 32.7929 14.7499 34.0823 18.1851 34.0823C21.8494 34.0823 27.3048 32.5904 29.5534 31.9256L31.3398 35.5073V40.2149C31.3398 46.823 25.9751 52.1991 19.3809 52.1991C12.7871 52.1991 7.42227 46.823 7.42227 40.2149ZM26.3925 52.854L26.3917 54.4291L22.5926 56.9686L20.6182 55.9798V54.6257C22.6993 54.4479 24.6557 53.8256 26.3925 52.854ZM18.1438 54.6259V55.907L15.4682 56.9799L12.3708 54.4969V52.855C14.1074 53.8259 16.0634 54.448 18.1438 54.6259ZM36.2885 60.0536V72.0431H36.2882H30.5172V68.3222C30.5172 67.6372 29.9634 67.082 29.2801 67.082C28.5968 67.082 28.043 67.6372 28.043 68.3222V72.0431H10.7216V68.3222C10.7216 67.6372 10.1677 67.082 9.48447 67.082C8.8012 67.082 8.24737 67.6372 8.24737 68.3222V72.0431H2.47404V60.0539C2.47404 58.0024 4.13885 56.3333 6.18533 56.3333H10.7L14.4859 59.3683C14.4972 59.3773 14.5097 59.3832 14.5212 59.3918C14.5556 59.4175 14.5909 59.441 14.6276 59.4628C14.6503 59.4765 14.6728 59.4898 14.6964 59.5017C14.7315 59.5195 14.7673 59.535 14.8039 59.5495C14.8287 59.5593 14.8531 59.57 14.8784 59.5781C14.919 59.5912 14.9605 59.6006 15.0023 59.6095C15.0234 59.6139 15.044 59.6205 15.0653 59.6238C15.1292 59.634 15.1938 59.6399 15.2592 59.6399C15.3023 59.6399 15.3456 59.637 15.389 59.6323C15.3966 59.6316 15.4041 59.63 15.4117 59.6291C15.4457 59.6249 15.4797 59.6194 15.5137 59.6124C15.5277 59.6095 15.5415 59.6057 15.5554 59.6023C15.5818 59.5956 15.6083 59.5885 15.6347 59.58C15.6522 59.5743 15.6693 59.5684 15.6865 59.5619C15.6971 59.5581 15.7079 59.555 15.7184 59.5509L19.3255 58.1046L22.1067 59.4974C22.1077 59.4979 22.1086 59.4982 22.1094 59.4987L22.1293 59.5087C22.1466 59.5175 22.1644 59.5235 22.1818 59.5313C22.206 59.542 22.23 59.5534 22.2547 59.5627C22.2849 59.5738 22.3153 59.5823 22.3457 59.5909C22.3613 59.5952 22.3766 59.6009 22.3923 59.6046C22.4363 59.6154 22.4806 59.6232 22.5249 59.6289C22.5282 59.6292 22.5316 59.6302 22.5347 59.6305C22.5835 59.6364 22.6324 59.6397 22.6812 59.6397C22.7393 59.6397 22.797 59.6354 22.8541 59.6273C22.8789 59.6238 22.9032 59.617 22.9278 59.612C22.9598 59.6054 22.9918 59.5999 23.0231 59.5909C23.0479 59.5837 23.0719 59.5735 23.0964 59.5649C23.1276 59.5538 23.1589 59.5431 23.1891 59.5296C23.2104 59.5198 23.2309 59.5081 23.2518 59.4971C23.2847 59.48 23.3173 59.4625 23.3484 59.4423C23.3549 59.4383 23.3619 59.4355 23.3683 59.4312L28.0033 56.3329H32.577C34.6227 56.3329 36.2872 58.001 36.2883 60.0515C36.2885 60.0521 36.2885 60.0529 36.2885 60.0536Z" fill="#3C3C3C"/>
<path d="M79.9996 31.9283C79.995 21.2184 71.3025 12.5068 60.6184 12.5068C49.9316 12.5068 41.2373 21.2232 41.2373 31.9369V61.7084V73.2839C41.2373 73.9689 41.7911 74.5242 42.4744 74.5242H78.7627C79.446 74.5242 79.9998 73.9689 79.9998 73.2839V61.7147C79.9998 61.7125 80.0001 61.7104 80.0001 61.7082V31.9369C80.0001 31.934 79.9998 31.9312 79.9996 31.9283ZM77.5256 61.7084V72.0437H77.5255H71.7535V68.3228C71.7535 67.6378 71.1997 67.0826 70.5164 67.0826C69.8332 67.0826 69.2794 67.6378 69.2794 68.3228V72.0437H51.9582V68.3228C51.9582 67.6378 51.4044 67.0826 50.7211 67.0826C50.0379 67.0826 49.484 67.6378 49.484 68.3228V72.0437H43.7115V61.7084C43.7115 59.6569 45.3765 57.9877 47.4228 57.9877H51.2178C51.8272 62.6456 55.8091 66.2538 60.6187 66.2538C65.4283 66.2538 69.4102 62.6456 70.0196 57.9877H73.8146C75.8595 57.9877 77.5236 59.6547 77.5258 61.7042C77.5258 61.7055 77.5256 61.7069 77.5256 61.7084ZM55.67 57.9876C56.3533 57.9876 56.9071 57.4323 56.9071 56.7474V54.1945C58.0918 54.5107 59.3357 54.6801 60.6184 54.6801C61.9014 54.6801 63.1456 54.5105 64.3305 54.1942L64.3294 56.7469V56.747C64.3294 56.7472 64.3294 56.7474 64.3294 56.7474C64.3294 56.7684 64.3314 56.7889 64.3326 56.8095C64.3335 56.8309 64.3335 56.8528 64.3357 56.8739C64.3376 56.893 64.3416 56.9115 64.3443 56.9305C64.3475 56.9528 64.3499 56.9752 64.3545 56.997C64.3583 57.0161 64.3642 57.0344 64.3688 57.0532C64.374 57.0741 64.3785 57.0954 64.3848 57.116C64.3916 57.1379 64.4002 57.1588 64.4082 57.1801C64.4143 57.1967 64.4194 57.2137 64.4264 57.23C64.4388 57.2594 64.4529 57.2876 64.4677 57.3159C64.4714 57.3233 64.4745 57.3309 64.4785 57.3382C64.6494 57.6541 64.9534 57.8871 65.3151 57.9621C65.3155 57.9621 65.3162 57.9624 65.3166 57.9624C65.3482 57.9688 65.3806 57.9732 65.4132 57.9772C65.4221 57.9783 65.4308 57.9802 65.4396 57.9812C65.4643 57.9837 65.4898 57.9839 65.515 57.985C65.5322 57.9857 65.5488 57.9876 65.5662 57.9876C65.5663 57.9876 65.5665 57.9876 65.5666 57.9876H67.5169C66.9297 61.2719 64.061 63.7732 60.6186 63.7732C57.1762 63.7732 54.3073 61.2719 53.7203 57.9876H55.67ZM48.6597 40.2155V34.8367H48.6599H72.5774V40.2155C72.5774 46.8236 67.2127 52.1997 60.6186 52.1997C54.0244 52.1997 48.6597 46.8236 48.6597 40.2155ZM77.5258 56.7507C76.4913 55.9703 75.2058 55.5071 73.8145 55.5071H68.9075C68.8936 55.5067 68.8801 55.5051 68.8659 55.5051C68.8518 55.5051 68.8385 55.5067 68.8243 55.5071H66.8044L66.8053 53.282C71.6765 50.956 75.0514 45.9736 75.0514 40.2155V33.5965C75.0514 32.9115 74.4976 32.3563 73.8143 32.3563H71.7526V30.2889C71.7526 29.6039 71.1988 29.0487 70.5155 29.0487C69.8322 29.0487 69.2784 29.6039 69.2784 30.2889V32.3563H66.8042V30.2889C66.8042 29.6039 66.2504 29.0487 65.5671 29.0487C64.8838 29.0487 64.33 29.6039 64.33 30.2889V32.3563H61.8558V30.2889C61.8558 29.6039 61.302 29.0487 60.6187 29.0487C59.9354 29.0487 59.3816 29.6039 59.3816 30.2889V32.3563H56.9074V30.2889C56.9074 29.6039 56.3536 29.0487 55.6703 29.0487C54.9871 29.0487 54.4332 29.6039 54.4332 30.2889V32.3563H51.959V30.2889C51.959 29.6039 51.4052 29.0487 50.7219 29.0487C50.0387 29.0487 49.4848 29.6039 49.4848 30.2889V32.3563H47.423C46.7397 32.3563 46.1859 32.9115 46.1859 33.5965V40.2155C46.1859 45.9743 49.5614 50.9569 54.4332 53.2826V55.5071H52.413C52.399 55.5067 52.3855 55.5051 52.3713 55.5051C52.3574 55.5051 52.3439 55.5067 52.3297 55.5071H47.4228C46.0313 55.5071 44.7459 55.9705 43.7115 56.7507V31.9369C43.7115 22.5908 51.2958 14.9873 60.6182 14.9873C69.9409 14.9873 77.5255 22.5908 77.5255 31.9369C77.5255 31.939 77.5258 31.941 77.5258 31.9433V56.7507Z" fill="#3C3C3C"/>
</svg>
