<svg width="81" height="94" viewBox="0 0 81 94" fill="none" xmlns="http://www.w3.org/2000/svg">
<ellipse rx="0.512385" ry="0.49035" transform="matrix(0.999996 0.00266606 -0.00265199 0.999996 46.5306 25.9487)" fill="#F40009"/>
<ellipse rx="1.53716" ry="1.47105" transform="matrix(0.999996 0.00266606 -0.00265199 0.999996 46.3379 20.9468)" fill="#F40009"/>
<ellipse rx="0.563624" ry="0.539385" transform="matrix(0.999996 0.00266606 -0.00265199 0.999996 44.8513 21.4823)" fill="#F40009"/>
<ellipse rx="0.614862" ry="0.588419" transform="matrix(0.999996 0.00266606 -0.00265199 0.999996 46.4473 18.594)" fill="#F40009"/>
<ellipse rx="0.512385" ry="0.49035" transform="matrix(0.999996 0.00266606 -0.00265199 0.999996 47.0501 23.0083)" fill="#F40009"/>
<ellipse rx="0.307431" ry="0.29421" transform="matrix(0.999996 0.00266606 -0.00265199 0.999996 45.8106 27.1241)" fill="#F40009"/>
<ellipse rx="0.204954" ry="0.19614" transform="matrix(0.999996 0.00266606 -0.00265199 0.999996 45.7093 26.4379)" fill="#F40009"/>
<ellipse rx="0.871055" ry="0.833594" transform="matrix(0.999996 0.00266606 -0.00265199 0.999996 45.6647 24.0342)" fill="#F40009"/>
<ellipse rx="0.35867" ry="0.343245" transform="matrix(0.999996 0.00266606 -0.00265199 0.999996 45.1507 24.6215)" fill="#F40009"/>
<mask id="mask0" mask-type="alpha" maskUnits="userSpaceOnUse" x="20" y="32" width="41" height="43">
<path d="M40.5471 74.0004C51.8427 74.0004 60.9995 64.8152 60.9995 53.4846C60.9995 42.154 51.8427 32.9688 40.5471 32.9688C29.2516 32.9688 20.0947 42.154 20.0947 53.4846C20.0947 64.8152 29.2516 74.0004 40.5471 74.0004Z" fill="#3F3F5B"/>
</mask>
<g mask="url(#mask0)">
<g filter="url(#filter0_d)">
<path d="M27.6607 38.2829C23.896 36.0229 19.3631 40.1683 17.5672 42.5235L15.9346 44.9252C15.2998 45.8592 14.9251 47.5572 14.5445 49.8373C14.1638 52.1175 16.148 54.6459 17.1524 56.8955C18.1568 59.1451 24.1511 62.6551 24.7681 63.4676C25.3852 64.2801 35.4318 68.9962 40.6083 65.1082C45.7848 61.2202 42.9835 55.5932 37.3283 53.8781C35.0367 53.1831 33.1064 51.7745 31.0857 48.4397C29.0651 45.1048 32.3666 41.1079 27.6607 38.2829Z" fill="#F40009"/>
<path d="M27.6607 38.2829C23.896 36.0229 19.3631 40.1683 17.5672 42.5235L15.9346 44.9252C15.2998 45.8592 14.9251 47.5572 14.5445 49.8373C14.1638 52.1175 16.148 54.6459 17.1524 56.8955C18.1568 59.1451 24.1511 62.6551 24.7681 63.4676C25.3852 64.2801 35.4318 68.9962 40.6083 65.1082C45.7848 61.2202 42.9835 55.5932 37.3283 53.8781C35.0367 53.1831 33.1064 51.7745 31.0857 48.4397C29.0651 45.1048 32.3666 41.1079 27.6607 38.2829Z" stroke="#FF3A41" stroke-width="0.5"/>
</g>
<g filter="url(#filter1_d)">
<path d="M58.757 57.076C64.2827 56.1971 65.3319 48.4246 65.1658 44.6482L64.8021 40.9604C64.6606 39.5263 63.6412 37.5585 62.1525 35.0166C60.6638 32.4748 56.6601 31.6304 53.8421 30.2548C51.024 28.8791 42.2981 30.3649 41.0317 30.0767C39.7652 29.7885 26.0925 33.4199 24.204 41.4686C22.3154 49.5174 29.6468 52.7213 36.5764 49.7585C39.3843 48.558 42.4214 48.3515 47.1189 49.9546C51.8164 51.5576 51.8499 58.1745 58.757 57.076Z" fill="#F40009"/>
<path d="M58.757 57.076C64.2827 56.1971 65.3319 48.4246 65.1658 44.6482L64.8021 40.9604C64.6606 39.5263 63.6412 37.5585 62.1525 35.0166C60.6638 32.4748 56.6601 31.6304 53.8421 30.2548C51.024 28.8791 42.2981 30.3649 41.0317 30.0767C39.7652 29.7885 26.0925 33.4199 24.204 41.4686C22.3154 49.5174 29.6468 52.7213 36.5764 49.7585C39.3843 48.558 42.4214 48.3515 47.1189 49.9546C51.8164 51.5576 51.8499 58.1745 58.757 57.076Z" stroke="#FF3A41" stroke-width="0.5"/>
</g>
<g filter="url(#filter2_d)">
<path d="M31.154 58.0748C32.4109 61.8432 40.29 61.2472 44.0725 60.4782L47.7526 59.5842C49.1838 59.2366 51.0916 58.1741 53.5444 56.6797C55.9971 55.1852 56.5744 52.1994 57.7656 49.963C58.9569 47.7267 56.8737 41.7926 57.0775 40.8445C57.2813 39.8964 52.7079 30.823 44.4943 30.8711C36.2808 30.9193 33.5584 36.6728 37.0038 41.0778C38.3999 42.8627 38.8129 44.9816 37.5204 48.5905C36.2279 52.1994 29.5829 53.3643 31.154 58.0748Z" fill="#F40009"/>
<path d="M31.154 58.0748C32.4109 61.8432 40.29 61.2472 44.0725 60.4782L47.7526 59.5842C49.1838 59.2366 51.0916 58.1741 53.5444 56.6797C55.9971 55.1852 56.5744 52.1994 57.7656 49.963C58.9569 47.7267 56.8737 41.7926 57.0775 40.8445C57.2813 39.8964 52.7079 30.823 44.4943 30.8711C36.2808 30.9193 33.5584 36.6728 37.0038 41.0778C38.3999 42.8627 38.8129 44.9816 37.5204 48.5905C36.2279 52.1994 29.5829 53.3643 31.154 58.0748Z" stroke="#FF3A41" stroke-width="0.5"/>
</g>
<g filter="url(#filter3_d)">
<path d="M47.516 55.1542C47.9409 57.691 51.4998 58.1411 53.2261 58.049L54.9111 57.8665C55.5664 57.7955 56.4621 57.3187 57.6183 56.6237C58.7746 55.9288 59.1441 54.0846 59.7616 52.7833C60.379 51.482 59.6633 47.4765 59.7898 46.893C59.9164 46.3096 58.1989 40.0387 54.5102 39.2038C50.8215 38.369 49.3867 41.7528 50.7704 44.9264C51.3311 46.2123 51.4381 47.6078 50.7245 49.7741C50.0109 51.9404 46.985 51.9833 47.516 55.1542Z" fill="#F40009"/>
<path d="M47.516 55.1542C47.9409 57.691 51.4998 58.1411 53.2261 58.049L54.9111 57.8665C55.5664 57.7955 56.4621 57.3187 57.6183 56.6237C58.7746 55.9288 59.1441 54.0846 59.7616 52.7833C60.379 51.482 59.6633 47.4765 59.7898 46.893C59.9164 46.3096 58.1989 40.0387 54.5102 39.2038C50.8215 38.369 49.3867 41.7528 50.7704 44.9264C51.3311 46.2123 51.4381 47.6078 50.7245 49.7741C50.0109 51.9404 46.985 51.9833 47.516 55.1542Z" stroke="#FF3A41" stroke-width="0.5"/>
</g>
<g filter="url(#filter4_d)">
<path d="M32.4788 50.5615C29.5842 52.6573 31.2186 57.3868 32.3977 59.4896L33.6639 61.4849C34.1563 62.2609 35.3019 63.0872 36.8797 64.1051C38.4575 65.123 40.9802 64.4481 42.9802 64.418C44.9802 64.3879 49.5231 61.0226 50.3272 60.8212C51.1312 60.6197 57.8754 54.6044 56.6396 49.4752C55.4039 44.346 50.3084 44.6378 47.2126 48.3257C45.9582 49.82 44.2878 50.8144 41.1521 51.2575C38.0164 51.7006 36.0971 47.9418 32.4788 50.5615Z" fill="#FC141C"/>
<path d="M32.4788 50.5615C29.5842 52.6573 31.2186 57.3868 32.3977 59.4896L33.6639 61.4849C34.1563 62.2609 35.3019 63.0872 36.8797 64.1051C38.4575 65.123 40.9802 64.4481 42.9802 64.418C44.9802 64.3879 49.5231 61.0226 50.3272 60.8212C51.1312 60.6197 57.8754 54.6044 56.6396 49.4752C55.4039 44.346 50.3084 44.6378 47.2126 48.3257C45.9582 49.82 44.2878 50.8144 41.1521 51.2575C38.0164 51.7006 36.0971 47.9418 32.4788 50.5615Z" stroke="#FF3A41" stroke-width="0.5"/>
</g>
<g filter="url(#filter5_d)">
<path d="M37.3596 66.6137C35.5598 70.6261 40.1945 74.6568 42.7369 76.1706L45.3062 77.5163C46.3054 78.0397 48.031 78.2148 50.334 78.328C52.637 78.4413 54.9102 76.1706 57.0215 74.9082C59.1328 73.6458 61.9109 67.2674 62.6438 66.5583C63.3766 65.8491 66.877 55.2947 62.4223 50.5932C57.9675 45.8916 52.7202 49.3371 51.6805 55.1686C51.2593 57.5316 50.0891 59.6181 47.0212 62.019C43.9534 64.42 39.6094 61.5982 37.3596 66.6137Z" fill="#F40009"/>
<path d="M37.3596 66.6137C35.5598 70.6261 40.1945 74.6568 42.7369 76.1706L45.3062 77.5163C46.3054 78.0397 48.031 78.2148 50.334 78.328C52.637 78.4413 54.9102 76.1706 57.0215 74.9082C59.1328 73.6458 61.9109 67.2674 62.6438 66.5583C63.3766 65.8491 66.877 55.2947 62.4223 50.5932C57.9675 45.8916 52.7202 49.3371 51.6805 55.1686C51.2593 57.5316 50.0891 59.6181 47.0212 62.019C43.9534 64.42 39.6094 61.5982 37.3596 66.6137Z" stroke="#FF3A41" stroke-width="0.5"/>
</g>
<g filter="url(#filter6_d)">
<path d="M49.8634 53.7707C54.7899 54.8328 55.3664 61.738 55.0388 65.0578L54.5378 68.2894C54.343 69.5461 53.3336 71.2274 51.8752 73.3903C50.4168 75.5533 46.7774 76.0892 44.1789 77.1552C41.5803 78.2211 33.8053 76.4576 32.653 76.6457C31.5008 76.8339 19.3795 72.922 18.0614 65.7296C16.7432 58.5373 23.4859 56.0947 29.5762 59.0665C32.044 60.2707 34.7648 60.6107 39.0639 59.4421C43.3629 58.2735 43.7053 52.4432 49.8634 53.7707Z" fill="#F40009"/>
<path d="M49.8634 53.7707C54.7899 54.8328 55.3664 61.738 55.0388 65.0578L54.5378 68.2894C54.343 69.5461 53.3336 71.2274 51.8752 73.3903C50.4168 75.5533 46.7774 76.0892 44.1789 77.1552C41.5803 78.2211 33.8053 76.4576 32.653 76.6457C31.5008 76.8339 19.3795 72.922 18.0614 65.7296C16.7432 58.5373 23.4859 56.0947 29.5762 59.0665C32.044 60.2707 34.7648 60.6107 39.0639 59.4421C43.3629 58.2735 43.7053 52.4432 49.8634 53.7707Z" stroke="#FF3A41" stroke-width="0.5"/>
</g>
<g filter="url(#filter7_d)">
<path d="M28.6295 55.4129C24.2491 55.6713 22.8319 61.6564 22.6709 64.6166V67.5231C22.6709 68.6534 23.3151 70.2681 24.2813 72.3672C25.2476 74.4663 28.3074 75.4351 30.4009 76.7268C32.4945 78.0186 39.4193 77.5342 40.3856 77.8571C41.3518 78.18 52.3027 76.4039 54.3963 70.2681C56.4898 64.1323 51.0144 61.0644 45.3779 62.8405C43.094 63.5602 40.7077 63.4864 37.1647 61.8717C33.6218 60.257 34.1049 55.09 28.6295 55.4129Z" fill="#F40009"/>
<path d="M28.6295 55.4129C24.2491 55.6713 22.8319 61.6564 22.6709 64.6166V67.5231C22.6709 68.6534 23.3151 70.2681 24.2813 72.3672C25.2476 74.4663 28.3074 75.4351 30.4009 76.7268C32.4945 78.0186 39.4193 77.5342 40.3856 77.8571C41.3518 78.18 52.3027 76.4039 54.3963 70.2681C56.4898 64.1323 51.0144 61.0644 45.3779 62.8405C43.094 63.5602 40.7077 63.4864 37.1647 61.8717C33.6218 60.257 34.1049 55.09 28.6295 55.4129Z" stroke="#FF3A41" stroke-width="0.5"/>
</g>
<g filter="url(#filter8_d)">
<path d="M21.9838 48.4947C19.6068 46.7166 16.2757 49.1927 14.9072 50.6531L13.6454 52.1559C13.1547 52.7403 12.7868 53.8563 12.3752 55.3634C11.9635 56.8705 13.125 58.7068 13.6467 60.2884C14.1684 61.87 17.9592 64.6418 18.3186 65.2305C18.678 65.8192 25.1114 69.6802 28.8576 67.4213C32.6039 65.1624 31.1046 61.1864 27.4192 59.6449C25.9258 59.0202 24.724 57.9405 23.5931 55.5594C22.4622 53.1782 24.9551 50.7174 21.9838 48.4947Z" fill="#FC141C"/>
<path d="M21.9838 48.4947C19.6068 46.7166 16.2757 49.1927 14.9072 50.6531L13.6454 52.1559C13.1547 52.7403 12.7868 53.8563 12.3752 55.3634C11.9635 56.8705 13.125 58.7068 13.6467 60.2884C14.1684 61.87 17.9592 64.6418 18.3186 65.2305C18.678 65.8192 25.1114 69.6802 28.8576 67.4213C32.6039 65.1624 31.1046 61.1864 27.4192 59.6449C25.9258 59.0202 24.724 57.9405 23.5931 55.5594C22.4622 53.1782 24.9551 50.7174 21.9838 48.4947Z" stroke="#FF3A41" stroke-width="0.5"/>
</g>
<g filter="url(#filter9_d)">
<path d="M59.9446 63.1036C61.8954 65.3433 65.6715 63.6251 67.3157 62.4861L68.8645 61.283C69.4668 60.8151 70.0606 59.8017 70.7793 58.4151C71.4979 57.0286 70.7476 54.9884 70.5694 53.3321C70.3912 51.6759 67.2667 48.1666 67.0388 47.5153C66.8109 46.864 61.3315 41.7326 57.1952 43.1508C53.0588 44.5691 53.6904 48.7723 56.97 51.0567C58.299 51.9823 59.2474 53.2913 59.8534 55.8576C60.4595 58.424 57.5061 60.304 59.9446 63.1036Z" fill="#FC141C"/>
<path d="M59.9446 63.1036C61.8954 65.3433 65.6715 63.6251 67.3157 62.4861L68.8645 61.283C69.4668 60.8151 70.0606 59.8017 70.7793 58.4151C71.4979 57.0286 70.7476 54.9884 70.5694 53.3321C70.3912 51.6759 67.2667 48.1666 67.0388 47.5153C66.8109 46.864 61.3315 41.7326 57.1952 43.1508C53.0588 44.5691 53.6904 48.7723 56.97 51.0567C58.299 51.9823 59.2474 53.2913 59.8534 55.8576C60.4595 58.424 57.5061 60.304 59.9446 63.1036Z" stroke="#FF3A41" stroke-width="0.5"/>
</g>
<g filter="url(#filter10_d)">
<path d="M38.8115 69.6549C35.8963 72.9431 39.1151 78.18 41.0889 80.3874L43.1387 82.4426C43.9358 83.2418 45.53 83.9269 47.6937 84.7261C49.8573 85.5253 52.7041 84.041 55.0955 83.4702C57.4868 82.8993 62.0418 77.6472 62.9528 77.1905C63.8638 76.7338 70.3546 67.7139 67.5078 61.891C64.6609 56.068 58.6256 57.7806 55.8926 63.0327C54.7852 65.1609 53.0457 66.8005 49.4018 68.1706C45.7578 69.5407 42.4554 65.5446 38.8115 69.6549Z" fill="#F40009"/>
<path d="M38.8115 69.6549C35.8963 72.9431 39.1151 78.18 41.0889 80.3874L43.1387 82.4426C43.9358 83.2418 45.53 83.9269 47.6937 84.7261C49.8573 85.5253 52.7041 84.041 55.0955 83.4702C57.4868 82.8993 62.0418 77.6472 62.9528 77.1905C63.8638 76.7338 70.3546 67.7139 67.5078 61.891C64.6609 56.068 58.6256 57.7806 55.8926 63.0327C54.7852 65.1609 53.0457 66.8005 49.4018 68.1706C45.7578 69.5407 42.4554 65.5446 38.8115 69.6549Z" stroke="#FF3A41" stroke-width="0.5"/>
</g>
<g filter="url(#filter11_d)">
<path fill-rule="evenodd" clip-rule="evenodd" d="M47.5151 28.1552C46.3831 27.9583 45.251 27.7615 44.119 27.5647C42.3983 27.2619 42.0813 27.8069 41.8549 28.4277C41.6587 29.0788 41.719 29.4573 42.0813 29.6087C41.3568 30.4414 40.9945 31.3196 41.5983 32.334C40.9945 41.6911 32.3155 45.2643 32.9343 60.4203C33.04 64.1752 32.4664 67.3548 31.3193 70.0196C31.0023 70.6101 30.6853 71.2006 30.4287 71.7911C33.3419 73.396 36.6776 74.3045 40.2247 74.3045C41.8096 74.3045 43.3492 74.1076 44.8435 73.7594C44.8435 73.7745 44.8435 73.7897 44.8435 73.8048C44.4963 70.7009 44.6926 67.5214 46.1416 64.1601C47.7114 59.9055 48.4963 55.4692 48.617 50.8664C48.6774 48.0957 48.4057 46.7178 47.9831 44.0833C47.6208 41.8425 47.4397 39.5714 47.4548 37.2851C47.4699 35.7861 47.5906 34.8928 47.8925 33.4393C48.6774 32.7428 48.7981 31.8192 48.3755 30.6988C48.5566 30.6988 48.7528 30.6988 48.8434 30.4414C49.2811 28.9879 48.4208 28.3671 47.5151 28.1552Z" fill="white"/>
</g>
</g>
<g filter="url(#filter12_d)">
<path d="M45.6775 63.9746C44.2625 67.2629 44.0146 70.1524 44.3004 73.1563C42.9936 73.4148 41.6398 73.4815 40.225 73.4815C36.9423 73.4815 33.9587 72.6209 31.2216 71.1848C31.2631 71.1087 31.3046 71.0375 31.3478 70.9651C31.3719 70.9247 31.3971 70.8831 31.4235 70.8395C31.5192 70.6816 31.6305 70.4978 31.7602 70.2561L31.7704 70.2371L31.7789 70.2173C32.9599 67.474 33.5419 64.2199 33.4346 60.4062L33.4343 60.3999C33.1298 52.941 35.1066 48.3496 37.2468 44.4428C37.5982 43.8012 37.9571 43.1741 38.3128 42.5525C40.1162 39.4011 41.8379 36.3924 42.0977 32.3662L42.1077 32.2115L42.0284 32.0783C41.7883 31.675 41.7547 31.3337 41.8289 31.0174C41.908 30.6802 42.121 30.3253 42.4589 29.9369L42.9135 29.4144L42.2745 29.1474C42.2658 29.1437 42.2602 29.1407 42.2569 29.1387C42.2553 29.1344 42.253 29.127 42.2508 29.1151C42.237 29.0397 42.2429 28.8787 42.33 28.5856C42.435 28.3006 42.5183 28.1696 42.6665 28.0888C42.8381 27.9951 43.2077 27.9119 44.0327 28.0571L44.0338 28.0573L47.4151 28.6452C47.8042 28.7384 48.1114 28.9041 48.284 29.1334C48.4311 29.3288 48.5376 29.6466 48.3928 30.1988C48.3875 30.1988 48.3819 30.1988 48.3759 30.1988H47.6529L47.9081 30.8753C48.0991 31.3818 48.1508 31.8012 48.0939 32.1468C48.0386 32.4822 47.875 32.7867 47.5611 33.0653L47.4371 33.1753L47.4034 33.3376C47.0963 34.8162 46.9707 35.7424 46.9552 37.2801L46.9552 37.2818C46.9399 39.5965 47.1233 41.8952 47.4898 44.1625C47.5263 44.3903 47.5617 44.6084 47.5957 44.8185C47.9562 47.0418 48.1716 48.3708 48.1176 50.8545C47.9981 55.4033 47.2233 59.7804 45.6775 63.9746Z" fill="white" stroke="#F7B2B5"/>
</g>
<path d="M38.6844 47.8748C38.6844 48.385 38.3041 48.7676 37.9238 48.7676C37.5435 48.7676 37.29 48.2574 37.4168 47.7473C37.4168 47.2371 37.7971 46.8545 38.1773 46.8545C38.4309 46.8545 38.6844 47.3646 38.6844 47.8748Z" fill="#3F3F5B"/>
<path d="M47.0584 49.1668C47.0584 49.677 46.6781 50.0596 46.2978 50.0596C45.9175 50.0596 45.664 49.5494 45.7908 49.0393C45.7908 48.5291 46.1711 48.1465 46.5514 48.1465C46.8049 48.274 47.0584 48.6566 47.0584 49.1668Z" fill="#3F3F5B"/>
<path d="M45.0767 52.0961C45.6336 53.2526 43.906 56.0566 40.497 55.5001C37.0881 54.9435 37.2093 51.4303 37.8375 50.7211C38.8084 49.9356 40.3612 51.1904 41.5678 51.4195C42.8957 51.5505 44.5305 50.8305 45.0767 52.0961Z" fill="#3F3F5B"/>
<path d="M40.1231 52.4889C39.3057 52.8489 38.5775 53.4381 38.2706 54.2891C38.6597 54.8783 39.3915 55.3911 40.498 55.5002C42.9218 55.8495 44.4995 54.573 45.0706 53.3074C44.7493 53.1655 44.5494 52.9255 44.2389 52.6745C42.9645 51.998 41.4153 51.8452 40.1231 52.4889Z" fill="#FF2936"/>
<ellipse rx="0.321729" ry="0.307886" transform="matrix(0.997775 0.0666682 -0.0663182 0.997799 57.9197 43.9585)" fill="#F40009"/>
<mask id="path-29-inside-1" fill="white">
<ellipse rx="0.965188" ry="0.923658" transform="matrix(0.997775 0.0666682 -0.0663182 0.997799 57.9994 40.8161)"/>
</mask>
<ellipse rx="0.965188" ry="0.923658" transform="matrix(0.997775 0.0666682 -0.0663182 0.997799 57.9994 40.8161)" fill="#F40009"/>
<path d="M57.9647 40.8137C57.9657 40.7986 57.9703 40.7829 57.9772 40.7697C57.9836 40.7574 57.9906 40.75 57.9952 40.7463C58.0041 40.7388 58.0093 40.7402 58.0045 40.7399L57.8719 42.7355C58.913 42.805 59.8871 42.048 59.9603 40.9471L57.9647 40.8137ZM58.0045 40.7399C57.9997 40.7396 58.005 40.7388 58.0129 40.7474C58.0169 40.7518 58.0229 40.76 58.0277 40.7731C58.0328 40.7871 58.0352 40.8032 58.0342 40.8184L56.0386 40.685C55.9655 41.786 56.8308 42.6659 57.8719 42.7355L58.0045 40.7399ZM58.0342 40.8184C58.0332 40.8335 58.0286 40.8492 58.0217 40.8624C58.0152 40.8747 58.0083 40.8821 58.0037 40.8858C57.9948 40.8933 57.9896 40.8919 57.9944 40.8922L58.127 38.8966C57.0859 38.8271 56.1118 39.5841 56.0386 40.685L58.0342 40.8184ZM57.9944 40.8922C57.9991 40.8925 57.9938 40.8933 57.986 40.8847C57.982 40.8803 57.976 40.8721 57.9712 40.859C57.9661 40.845 57.9637 40.8289 57.9647 40.8137L59.9603 40.9471C60.0334 39.8461 59.1681 38.9662 58.127 38.8966L57.9944 40.8922Z" fill="white" mask="url(#path-29-inside-1)"/>
<ellipse rx="0.353902" ry="0.338675" transform="matrix(0.997775 0.0666682 -0.0663182 0.997799 57.0465 41.092)" fill="#F40009"/>
<ellipse rx="0.386075" ry="0.369463" transform="matrix(0.997775 0.0666682 -0.0663182 0.997799 58.1625 39.3456)" fill="#F40009"/>
<ellipse rx="0.321729" ry="0.307886" transform="matrix(0.997775 0.0666682 -0.0663182 0.997799 58.3641 42.1363)" fill="#F40009"/>
<ellipse rx="0.193038" ry="0.184732" transform="matrix(0.997775 0.0666682 -0.0663182 0.997799 57.4216 44.665)" fill="#F40009"/>
<ellipse rx="0.128692" ry="0.123154" transform="matrix(0.997775 0.0666682 -0.0663182 0.997799 57.3859 44.2311)" fill="#F40009"/>
<mask id="path-36-inside-2" fill="white">
<ellipse rx="0.54694" ry="0.523406" transform="matrix(0.997775 0.0666682 -0.0663182 0.997799 57.4534 42.7238)"/>
</mask>
<ellipse rx="0.54694" ry="0.523406" transform="matrix(0.997775 0.0666682 -0.0663182 0.997799 57.4534 42.7238)" fill="#F40009"/>
<path d="M57.0013 42.6936C57.0215 42.39 57.2772 42.2343 57.485 42.2482L57.3524 44.2438C58.163 44.298 58.9384 43.7073 58.9969 42.8269L57.0013 42.6936ZM57.485 42.2482C57.6929 42.2621 57.9256 42.4504 57.9054 42.754L55.9099 42.6206C55.8514 43.501 56.5417 44.1896 57.3524 44.2438L57.485 42.2482ZM57.9054 42.754C57.8853 43.0575 57.6296 43.2132 57.4218 43.1993L57.5544 41.2037C56.7438 41.1495 55.9684 41.7402 55.9099 42.6206L57.9054 42.754ZM57.4218 43.1993C57.2139 43.1854 56.9812 42.9971 57.0013 42.6936L58.9969 42.8269C59.0554 41.9465 58.3651 41.2579 57.5544 41.2037L57.4218 43.1993Z" fill="white" mask="url(#path-36-inside-2)"/>
<ellipse rx="0.225211" ry="0.21552" transform="matrix(0.997775 0.0666682 -0.0663182 0.997799 57.1089 43.0709)" fill="#F40009"/>
<ellipse cx="19.8365" cy="54.9509" rx="0.321726" ry="0.30789" transform="rotate(180 19.8365 54.9509)" fill="#F40009"/>
<mask id="path-40-inside-3" fill="white">
<ellipse cx="19.9655" cy="58.092" rx="0.965177" ry="0.923669" transform="rotate(180 19.9655 58.092)"/>
</mask>
<ellipse cx="19.9655" cy="58.092" rx="0.965177" ry="0.923669" transform="rotate(180 19.9655 58.092)" fill="#F40009"/>
<path d="M20.0003 58.092C20.0003 58.1071 19.9968 58.1231 19.9908 58.1367C19.9852 58.1495 19.9787 58.1572 19.9744 58.1613C19.966 58.1694 19.9607 58.1683 19.9655 58.1683L19.9655 56.1683C18.922 56.1683 18.0003 56.9886 18.0003 58.092L20.0003 58.092ZM19.9655 58.1683C19.9702 58.1683 19.965 58.1694 19.9566 58.1613C19.9523 58.1572 19.9458 58.1495 19.9402 58.1367C19.9342 58.1231 19.9307 58.1071 19.9307 58.092L21.9307 58.092C21.9307 56.9886 21.0089 56.1683 19.9655 56.1683L19.9655 58.1683ZM19.9307 58.092C19.9307 58.0768 19.9342 58.0608 19.9402 58.0472C19.9458 58.0345 19.9523 58.0267 19.9566 58.0226C19.965 58.0145 19.9702 58.0156 19.9655 58.0156L19.9655 60.0156C21.0089 60.0156 21.9307 59.1953 21.9307 58.092L19.9307 58.092ZM19.9655 58.0156C19.9607 58.0156 19.966 58.0145 19.9744 58.0226C19.9787 58.0267 19.9852 58.0345 19.9908 58.0472C19.9968 58.0608 20.0003 58.0768 20.0003 58.092L18.0003 58.092C18.0003 59.1953 18.922 60.0156 19.9655 60.0156L19.9655 58.0156Z" fill="white" mask="url(#path-40-inside-3)"/>
<ellipse cx="20.8981" cy="57.7531" rx="0.353898" ry="0.338679" transform="rotate(180 20.8981 57.7531)" fill="#F40009"/>
<ellipse cx="19.901" cy="59.569" rx="0.386071" ry="0.369467" transform="rotate(180 19.901 59.569)" fill="#F40009"/>
<ellipse cx="19.5142" cy="56.7986" rx="0.321726" ry="0.30789" transform="rotate(180 19.5142 56.7986)" fill="#F40009"/>
<ellipse cx="20.2865" cy="54.2118" rx="0.193035" ry="0.184734" transform="rotate(180 20.2865 54.2118)" fill="#F40009"/>
<ellipse cx="20.3508" cy="54.6434" rx="0.12869" ry="0.123156" transform="rotate(180 20.3508 54.6434)" fill="#F40009"/>
<mask id="path-47-inside-4" fill="white">
<ellipse cx="20.3837" cy="56.1514" rx="0.546934" ry="0.523412" transform="rotate(180 20.3837 56.1514)"/>
</mask>
<ellipse cx="20.3837" cy="56.1514" rx="0.546934" ry="0.523412" transform="rotate(180 20.3837 56.1514)" fill="#F40009"/>
<path d="M20.8368 56.1514C20.8368 56.4556 20.5921 56.628 20.3837 56.628L20.3837 54.628C19.5713 54.628 18.8368 55.2691 18.8368 56.1514L20.8368 56.1514ZM20.3837 56.628C20.1754 56.628 19.9307 56.4556 19.9307 56.1514L21.9307 56.1514C21.9307 55.2691 21.1962 54.628 20.3837 54.628L20.3837 56.628ZM19.9307 56.1514C19.9307 55.8472 20.1754 55.6748 20.3837 55.6748L20.3837 57.6748C21.1962 57.6748 21.9307 57.0337 21.9307 56.1514L19.9307 56.1514ZM20.3837 55.6748C20.5921 55.6748 20.8368 55.8472 20.8368 56.1514L18.8368 56.1514C18.8368 57.0337 19.5713 57.6748 20.3837 57.6748L20.3837 55.6748Z" fill="white" mask="url(#path-47-inside-4)"/>
<ellipse cx="20.7045" cy="55.7825" rx="0.225208" ry="0.215523" transform="rotate(180 20.7045 55.7825)" fill="#F40009"/>
<mask id="path-50-inside-5" fill="white">
<ellipse cx="25.2742" cy="64.4654" rx="0.506114" ry="0.487771" transform="rotate(180 25.2742 64.4654)"/>
</mask>
<ellipse cx="25.2742" cy="64.4654" rx="0.506114" ry="0.487771" transform="rotate(180 25.2742 64.4654)" fill="#F40009"/>
<path d="M25.768 64.4654C25.768 64.7827 25.5118 64.9776 25.2742 64.9776L25.2742 62.9776C24.4775 62.9776 23.768 63.6092 23.768 64.4654L25.768 64.4654ZM25.2742 64.9776C25.0365 64.9776 24.7803 64.7827 24.7803 64.4654L26.7803 64.4654C26.7803 63.6092 26.0708 62.9776 25.2742 62.9776L25.2742 64.9776ZM24.7803 64.4654C24.7803 64.148 25.0365 63.9531 25.2742 63.9531L25.2742 65.9531C26.0708 65.9531 26.7803 65.3215 26.7803 64.4654L24.7803 64.4654ZM25.2742 63.9531C25.5118 63.9531 25.768 64.148 25.768 64.4654L23.768 64.4654C23.768 65.3215 24.4775 65.9531 25.2742 65.9531L25.2742 63.9531Z" fill="white" mask="url(#path-50-inside-5)"/>
<path d="M24.4594 69.441C24.4594 68.9262 24.8978 68.4777 25.4778 68.4777C26.0577 68.4777 26.4961 68.9262 26.4961 69.441C26.4961 69.9558 26.0577 70.4043 25.4778 70.4043C24.8978 70.4043 24.4594 69.9558 24.4594 69.441Z" fill="#F40009" stroke="white"/>
<mask id="path-53-inside-6" fill="white">
<ellipse cx="26.9443" cy="68.9039" rx="0.556725" ry="0.536548" transform="rotate(180 26.9443 68.9039)"/>
</mask>
<ellipse cx="26.9443" cy="68.9039" rx="0.556725" ry="0.536548" transform="rotate(180 26.9443 68.9039)" fill="#F40009"/>
<path d="M27.3875 68.9039C27.3875 69.1943 27.154 69.3673 26.9443 69.3673L26.9443 67.3673C26.1196 67.3673 25.3875 68.0208 25.3875 68.9039L27.3875 68.9039ZM26.9443 69.3673C26.7346 69.3673 26.501 69.1943 26.501 68.9039L28.501 68.9039C28.501 68.0208 27.7689 67.3673 26.9443 67.3673L26.9443 69.3673ZM26.501 68.9039C26.501 68.6135 26.7346 68.4404 26.9443 68.4404L26.9443 70.4404C27.7689 70.4404 28.501 69.787 28.501 68.9039L26.501 68.9039ZM26.9443 68.4404C27.1539 68.4404 27.3875 68.6135 27.3875 68.9039L25.3875 68.9039C25.3875 69.787 26.1196 70.4404 26.9443 70.4404L26.9443 68.4404Z" fill="white" mask="url(#path-53-inside-6)"/>
<mask id="path-55-inside-7" fill="white">
<ellipse cx="25.3761" cy="71.7819" rx="0.607337" ry="0.585325" transform="rotate(180 25.3761 71.7819)"/>
</mask>
<ellipse cx="25.3761" cy="71.7819" rx="0.607337" ry="0.585325" transform="rotate(180 25.3761 71.7819)" fill="#F40009"/>
<path d="M25.7687 71.7819C25.7687 72.0454 25.5578 72.1965 25.3761 72.1965L25.3761 70.1965C24.5235 70.1965 23.7687 70.8718 23.7687 71.7819L25.7687 71.7819ZM25.3761 72.1965C25.1943 72.1965 24.9834 72.0454 24.9834 71.7819L26.9834 71.7819C26.9834 70.8718 26.2287 70.1965 25.3761 70.1965L25.3761 72.1965ZM24.9834 71.7819C24.9834 71.5184 25.1943 71.3672 25.3761 71.3672L25.3761 73.3672C26.2287 73.3672 26.9834 72.6919 26.9834 71.7819L24.9834 71.7819ZM25.3761 71.3672C25.5578 71.3672 25.7687 71.5184 25.7687 71.7819L23.7687 71.7819C23.7687 72.6919 24.5235 73.3672 25.3761 73.3672L25.3761 71.3672Z" fill="white" mask="url(#path-55-inside-7)"/>
<mask id="path-57-inside-8" fill="white">
<ellipse cx="24.7693" cy="67.3921" rx="0.506114" ry="0.487771" transform="rotate(180 24.7693 67.3921)"/>
</mask>
<ellipse cx="24.7693" cy="67.3921" rx="0.506114" ry="0.487771" transform="rotate(180 24.7693 67.3921)" fill="#F40009"/>
<path d="M25.2632 67.3921C25.2632 67.7095 25.0069 67.9043 24.7693 67.9043L24.7693 65.9043C23.9726 65.9043 23.2632 66.536 23.2632 67.3921L25.2632 67.3921ZM24.7693 67.9043C24.5316 67.9043 24.2754 67.7095 24.2754 67.3921L26.2754 67.3921C26.2754 66.536 25.566 65.9043 24.7693 65.9043L24.7693 67.9043ZM24.2754 67.3921C24.2754 67.0747 24.5316 66.8799 24.7693 66.8799L24.7693 68.8799C25.566 68.8799 26.2754 68.2483 26.2754 67.3921L24.2754 67.3921ZM24.7693 66.8799C25.0069 66.8799 25.2632 67.0747 25.2632 67.3921L23.2632 67.3921C23.2632 68.2483 23.9726 68.8799 24.7693 68.8799L24.7693 66.8799Z" fill="white" mask="url(#path-57-inside-8)"/>
<ellipse cx="25.9834" cy="63.2943" rx="0.303668" ry="0.292663" transform="rotate(180 25.9834 63.2943)" fill="#F40009"/>
<ellipse cx="26.0837" cy="63.9777" rx="0.202446" ry="0.195108" transform="rotate(180 26.0837 63.9777)" fill="#F40009"/>
<mask id="path-61-inside-9" fill="white">
<ellipse cx="26.1357" cy="66.3671" rx="0.860394" ry="0.829211" transform="rotate(180 26.1357 66.3671)"/>
</mask>
<ellipse cx="26.1357" cy="66.3671" rx="0.860394" ry="0.829211" transform="rotate(180 26.1357 66.3671)" fill="#F40009"/>
<path d="M26.2753 66.3671C26.2753 66.4263 26.2488 66.4742 26.2212 66.5008C26.1943 66.5267 26.1621 66.5379 26.1357 66.5379L26.1357 64.5379C25.1433 64.5379 24.2753 65.3224 24.2753 66.3671L26.2753 66.3671ZM26.1357 66.5379C26.1093 66.5379 26.0771 66.5267 26.0502 66.5008C26.0226 66.4742 25.9961 66.4263 25.9961 66.3671L27.9961 66.3671C27.9961 65.3224 27.1281 64.5379 26.1357 64.5379L26.1357 66.5379ZM25.9961 66.3671C25.9961 66.3078 26.0226 66.26 26.0502 66.2334C26.0771 66.2074 26.1093 66.1963 26.1357 66.1963L26.1357 68.1963C27.1281 68.1963 27.9961 67.4118 27.9961 66.3671L25.9961 66.3671ZM26.1357 66.1963C26.1621 66.1963 26.1943 66.2074 26.2212 66.2334C26.2488 66.26 26.2753 66.3078 26.2753 66.3671L24.2753 66.3671C24.2753 67.4118 25.1433 68.1963 26.1357 68.1963L26.1357 66.1963Z" fill="white" mask="url(#path-61-inside-9)"/>
<ellipse cx="26.6408" cy="65.7826" rx="0.35428" ry="0.34144" transform="rotate(180 26.6408 65.7826)" fill="#F40009"/>
<defs>
<filter id="filter0_d" x="-15.7529" y="7.37891" width="89.3402" height="89.4963" filterUnits="userSpaceOnUse" color-interpolation-filters="sRGB">
<feFlood flood-opacity="0" result="BackgroundImageFix"/>
<feColorMatrix in="SourceAlpha" type="matrix" values="0 0 0 0 0 0 0 0 0 0 0 0 0 0 0 0 0 0 127 0"/>
<feOffset/>
<feGaussianBlur stdDeviation="15"/>
<feColorMatrix type="matrix" values="0 0 0 0 0 0 0 0 0 0 0 0 0 0 0 0 0 0 0.35 0"/>
<feBlend mode="normal" in2="BackgroundImageFix" result="effect1_dropShadow"/>
<feBlend mode="normal" in="SourceGraphic" in2="effect1_dropShadow" result="shape"/>
</filter>
<filter id="filter1_d" x="-6.34766" y="-0.588867" width="101.779" height="88.0372" filterUnits="userSpaceOnUse" color-interpolation-filters="sRGB">
<feFlood flood-opacity="0" result="BackgroundImageFix"/>
<feColorMatrix in="SourceAlpha" type="matrix" values="0 0 0 0 0 0 0 0 0 0 0 0 0 0 0 0 0 0 127 0"/>
<feOffset/>
<feGaussianBlur stdDeviation="15"/>
<feColorMatrix type="matrix" values="0 0 0 0 0 0 0 0 0 0 0 0 0 0 0 0 0 0 0.35 0"/>
<feBlend mode="normal" in2="BackgroundImageFix" result="effect1_dropShadow"/>
<feBlend mode="normal" in="SourceGraphic" in2="effect1_dropShadow" result="shape"/>
</filter>
<filter id="filter2_d" x="0.665039" y="0.621094" width="87.7205" height="90.6796" filterUnits="userSpaceOnUse" color-interpolation-filters="sRGB">
<feFlood flood-opacity="0" result="BackgroundImageFix"/>
<feColorMatrix in="SourceAlpha" type="matrix" values="0 0 0 0 0 0 0 0 0 0 0 0 0 0 0 0 0 0 127 0"/>
<feOffset/>
<feGaussianBlur stdDeviation="15"/>
<feColorMatrix type="matrix" values="0 0 0 0 0 0 0 0 0 0 0 0 0 0 0 0 0 0 0.35 0"/>
<feBlend mode="normal" in2="BackgroundImageFix" result="effect1_dropShadow"/>
<feBlend mode="normal" in="SourceGraphic" in2="effect1_dropShadow" result="shape"/>
</filter>
<filter id="filter3_d" x="17.2041" y="8.8252" width="73.0623" height="79.4847" filterUnits="userSpaceOnUse" color-interpolation-filters="sRGB">
<feFlood flood-opacity="0" result="BackgroundImageFix"/>
<feColorMatrix in="SourceAlpha" type="matrix" values="0 0 0 0 0 0 0 0 0 0 0 0 0 0 0 0 0 0 127 0"/>
<feOffset/>
<feGaussianBlur stdDeviation="15"/>
<feColorMatrix type="matrix" values="0 0 0 0 0 0 0 0 0 0 0 0 0 0 0 0 0 0 0.35 0"/>
<feBlend mode="normal" in2="BackgroundImageFix" result="effect1_dropShadow"/>
<feBlend mode="normal" in="SourceGraphic" in2="effect1_dropShadow" result="shape"/>
</filter>
<filter id="filter4_d" x="0.609375" y="15.3359" width="86.431" height="79.5795" filterUnits="userSpaceOnUse" color-interpolation-filters="sRGB">
<feFlood flood-opacity="0" result="BackgroundImageFix"/>
<feColorMatrix in="SourceAlpha" type="matrix" values="0 0 0 0 0 0 0 0 0 0 0 0 0 0 0 0 0 0 127 0"/>
<feOffset/>
<feGaussianBlur stdDeviation="15"/>
<feColorMatrix type="matrix" values="0 0 0 0 0 0 0 0 0 0 0 0 0 0 0 0 0 0 0.35 0"/>
<feBlend mode="normal" in2="BackgroundImageFix" result="effect1_dropShadow"/>
<feBlend mode="normal" in="SourceGraphic" in2="effect1_dropShadow" result="shape"/>
</filter>
<filter id="filter5_d" x="6.7041" y="18.1426" width="88.1885" height="90.4396" filterUnits="userSpaceOnUse" color-interpolation-filters="sRGB">
<feFlood flood-opacity="0" result="BackgroundImageFix"/>
<feColorMatrix in="SourceAlpha" type="matrix" values="0 0 0 0 0 0 0 0 0 0 0 0 0 0 0 0 0 0 127 0"/>
<feOffset/>
<feGaussianBlur stdDeviation="15"/>
<feColorMatrix type="matrix" values="0 0 0 0 0 0 0 0 0 0 0 0 0 0 0 0 0 0 0.35 0"/>
<feBlend mode="normal" in2="BackgroundImageFix" result="effect1_dropShadow"/>
<feBlend mode="normal" in="SourceGraphic" in2="effect1_dropShadow" result="shape"/>
</filter>
<filter id="filter6_d" x="-12.3555" y="23.3252" width="97.7191" height="84.4246" filterUnits="userSpaceOnUse" color-interpolation-filters="sRGB">
<feFlood flood-opacity="0" result="BackgroundImageFix"/>
<feColorMatrix in="SourceAlpha" type="matrix" values="0 0 0 0 0 0 0 0 0 0 0 0 0 0 0 0 0 0 127 0"/>
<feOffset/>
<feGaussianBlur stdDeviation="15"/>
<feColorMatrix type="matrix" values="0 0 0 0 0 0 0 0 0 0 0 0 0 0 0 0 0 0 0.35 0"/>
<feBlend mode="normal" in2="BackgroundImageFix" result="effect1_dropShadow"/>
<feBlend mode="normal" in="SourceGraphic" in2="effect1_dropShadow" result="shape"/>
</filter>
<filter id="filter7_d" x="-7.5791" y="25.1484" width="92.6816" height="82.995" filterUnits="userSpaceOnUse" color-interpolation-filters="sRGB">
<feFlood flood-opacity="0" result="BackgroundImageFix"/>
<feColorMatrix in="SourceAlpha" type="matrix" values="0 0 0 0 0 0 0 0 0 0 0 0 0 0 0 0 0 0 127 0"/>
<feOffset/>
<feGaussianBlur stdDeviation="15"/>
<feColorMatrix type="matrix" values="0 0 0 0 0 0 0 0 0 0 0 0 0 0 0 0 0 0 0.35 0"/>
<feBlend mode="normal" in2="BackgroundImageFix" result="effect1_dropShadow"/>
<feBlend mode="normal" in="SourceGraphic" in2="effect1_dropShadow" result="shape"/>
</filter>
<filter id="filter8_d" x="-17.9609" y="17.626" width="79.2421" height="80.748" filterUnits="userSpaceOnUse" color-interpolation-filters="sRGB">
<feFlood flood-opacity="0" result="BackgroundImageFix"/>
<feColorMatrix in="SourceAlpha" type="matrix" values="0 0 0 0 0 0 0 0 0 0 0 0 0 0 0 0 0 0 127 0"/>
<feOffset/>
<feGaussianBlur stdDeviation="15"/>
<feColorMatrix type="matrix" values="0 0 0 0 0 0 0 0 0 0 0 0 0 0 0 0 0 0 0.35 0"/>
<feBlend mode="normal" in2="BackgroundImageFix" result="effect1_dropShadow"/>
<feBlend mode="normal" in="SourceGraphic" in2="effect1_dropShadow" result="shape"/>
</filter>
<filter id="filter9_d" x="24.0498" y="12.6533" width="77.2848" height="81.7918" filterUnits="userSpaceOnUse" color-interpolation-filters="sRGB">
<feFlood flood-opacity="0" result="BackgroundImageFix"/>
<feColorMatrix in="SourceAlpha" type="matrix" values="0 0 0 0 0 0 0 0 0 0 0 0 0 0 0 0 0 0 127 0"/>
<feOffset/>
<feGaussianBlur stdDeviation="15"/>
<feColorMatrix type="matrix" values="0 0 0 0 0 0 0 0 0 0 0 0 0 0 0 0 0 0 0.35 0"/>
<feBlend mode="normal" in2="BackgroundImageFix" result="effect1_dropShadow"/>
<feBlend mode="normal" in="SourceGraphic" in2="effect1_dropShadow" result="shape"/>
</filter>
<filter id="filter10_d" x="7.39355" y="27.9902" width="91.081" height="87.2171" filterUnits="userSpaceOnUse" color-interpolation-filters="sRGB">
<feFlood flood-opacity="0" result="BackgroundImageFix"/>
<feColorMatrix in="SourceAlpha" type="matrix" values="0 0 0 0 0 0 0 0 0 0 0 0 0 0 0 0 0 0 127 0"/>
<feOffset/>
<feGaussianBlur stdDeviation="15"/>
<feColorMatrix type="matrix" values="0 0 0 0 0 0 0 0 0 0 0 0 0 0 0 0 0 0 0.35 0"/>
<feBlend mode="normal" in2="BackgroundImageFix" result="effect1_dropShadow"/>
<feBlend mode="normal" in="SourceGraphic" in2="effect1_dropShadow" result="shape"/>
</filter>
<filter id="filter11_d" x="10.4287" y="7.47852" width="58.5323" height="86.8259" filterUnits="userSpaceOnUse" color-interpolation-filters="sRGB">
<feFlood flood-opacity="0" result="BackgroundImageFix"/>
<feColorMatrix in="SourceAlpha" type="matrix" values="0 0 0 0 0 0 0 0 0 0 0 0 0 0 0 0 0 0 127 0"/>
<feOffset/>
<feGaussianBlur stdDeviation="10"/>
<feColorMatrix type="matrix" values="0 0 0 0 0 0 0 0 0 0 0 0 0 0 0 0 0 0 0.11 0"/>
<feBlend mode="normal" in2="BackgroundImageFix" result="effect1_dropShadow"/>
<feBlend mode="normal" in="SourceGraphic" in2="effect1_dropShadow" result="shape"/>
</filter>
<filter id="filter12_d" x="10.5625" y="0.478516" width="58.3989" height="86.503" filterUnits="userSpaceOnUse" color-interpolation-filters="sRGB">
<feFlood flood-opacity="0" result="BackgroundImageFix"/>
<feColorMatrix in="SourceAlpha" type="matrix" values="0 0 0 0 0 0 0 0 0 0 0 0 0 0 0 0 0 0 127 0"/>
<feOffset dy="-7"/>
<feGaussianBlur stdDeviation="10"/>
<feColorMatrix type="matrix" values="0 0 0 0 0 0 0 0 0 0 0 0 0 0 0 0 0 0 0.12 0"/>
<feBlend mode="normal" in2="BackgroundImageFix" result="effect1_dropShadow"/>
<feBlend mode="normal" in="SourceGraphic" in2="effect1_dropShadow" result="shape"/>
</filter>
</defs>
</svg>
