<svg width="120" height="148" viewBox="0 0 120 148" fill="none" xmlns="http://www.w3.org/2000/svg">
<ellipse cx="36.0364" cy="16.4302" rx="1.06375" ry="1.01422" fill="#F40009"/>
<ellipse cx="35.6102" cy="6.08466" rx="3.19124" ry="3.04267" fill="#F40009"/>
<ellipse cx="32.5256" cy="7.20061" rx="1.17012" ry="1.11565" fill="#F40009"/>
<ellipse cx="35.8224" cy="1.21707" rx="1.2765" ry="1.21707" fill="#F40009"/>
<ellipse cx="37.0999" cy="10.3443" rx="1.06375" ry="1.01422" fill="#F40009"/>
<ellipse cx="34.5465" cy="18.8644" rx="0.638248" ry="0.608534" fill="#F40009"/>
<ellipse cx="34.3337" cy="17.4438" rx="0.425498" ry="0.405689" fill="#F40009"/>
<ellipse cx="34.2273" cy="12.4742" rx="1.80837" ry="1.72418" fill="#F40009"/>
<ellipse cx="33.1636" cy="13.6914" rx="0.744622" ry="0.709956" fill="#F40009"/>
<ellipse cx="96.6745" cy="55.2319" rx="1.06375" ry="1.01422" transform="rotate(180 96.6745 55.2319)" fill="#F40009"/>
<ellipse cx="97.1008" cy="65.5774" rx="3.19124" ry="3.04267" transform="rotate(180 97.1008 65.5774)" fill="#F40009"/>
<ellipse cx="100.185" cy="64.4615" rx="1.17012" ry="1.11565" transform="rotate(180 100.185 64.4615)" fill="#F40009"/>
<ellipse cx="96.8885" cy="70.445" rx="1.2765" ry="1.21707" transform="rotate(180 96.8885 70.445)" fill="#F40009"/>
<ellipse cx="95.6111" cy="61.3178" rx="1.06375" ry="1.01422" transform="rotate(180 95.6111 61.3178)" fill="#F40009"/>
<ellipse cx="98.1645" cy="52.7977" rx="0.638248" ry="0.608534" transform="rotate(180 98.1645 52.7977)" fill="#F40009"/>
<ellipse cx="98.3772" cy="54.2183" rx="0.425498" ry="0.405689" transform="rotate(180 98.3772 54.2183)" fill="#F40009"/>
<ellipse cx="98.4836" cy="59.1879" rx="1.80837" ry="1.72418" transform="rotate(180 98.4836 59.1879)" fill="#F40009"/>
<ellipse cx="99.5474" cy="57.9707" rx="0.744622" ry="0.709956" transform="rotate(180 99.5474 57.9707)" fill="#F40009"/>
<ellipse cx="59.4727" cy="87.9249" rx="39.1172" ry="39.0753" fill="#F40009"/>
<ellipse rx="0.988185" ry="0.954436" transform="matrix(0.999996 0.00269072 -0.00262768 0.999997 71.4505 34.4737)" fill="#F40009"/>
<ellipse rx="2.96456" ry="2.86331" transform="matrix(0.999996 0.00269072 -0.00262768 0.999997 71.0801 24.7375)" fill="#F40009"/>
<ellipse rx="1.087" ry="1.04988" transform="matrix(0.999996 0.00269072 -0.00262768 0.999997 68.2131 25.7794)" fill="#F40009"/>
<ellipse rx="1.18582" ry="1.14532" transform="matrix(0.999996 0.00269072 -0.00262768 0.999997 71.2883 20.1563)" fill="#F40009"/>
<ellipse rx="0.988185" ry="0.954436" transform="matrix(0.999996 0.00269072 -0.00262768 0.999997 72.4544 28.7501)" fill="#F40009"/>
<ellipse rx="0.592911" ry="0.572662" transform="matrix(0.999996 0.00269072 -0.00262768 0.999997 70.0611 36.7608)" fill="#F40009"/>
<ellipse rx="0.395274" ry="0.381774" transform="matrix(0.999996 0.00269072 -0.00262768 0.999997 69.8659 35.4239)" fill="#F40009"/>
<ellipse rx="1.67991" ry="1.62254" transform="matrix(0.999996 0.00269072 -0.00262768 0.999997 69.7811 30.7472)" fill="#F40009"/>
<ellipse rx="0.691729" ry="0.668105" transform="matrix(0.999996 0.00269072 -0.00262768 0.999997 68.7896 31.8897)" fill="#F40009"/>
<mask id="mask0" mask-type="alpha" maskUnits="userSpaceOnUse" x="20" y="48" width="80" height="80">
<path d="M59.9112 128C81.6958 128 99.3557 110.121 99.3557 88.0667C99.3557 66.0123 81.6958 48.1338 59.9112 48.1338C38.1267 48.1338 20.4668 66.0123 20.4668 88.0667C20.4668 110.121 38.1267 128 59.9112 128Z" fill="#3F3F5B"/>
</mask>
<g mask="url(#mask0)">
<g filter="url(#filter0_d)">
<path d="M35.0593 58.4777C27.7987 54.0787 19.0565 62.1475 15.593 66.7318L12.4444 71.4065C11.22 73.2245 10.4974 76.5296 9.76333 80.9678C9.02925 85.406 12.856 90.3273 14.793 94.706C16.7301 99.0847 28.2906 105.917 29.4807 107.498C30.6707 109.08 50.0467 118.259 60.03 110.691C70.0134 103.124 64.6109 92.1712 53.7042 88.8327C49.2847 87.48 45.5618 84.7384 41.6648 78.2472C37.7677 71.7561 44.1351 63.9765 35.0593 58.4777Z" fill="#F40009"/>
<path d="M35.0593 58.4777C27.7987 54.0787 19.0565 62.1475 15.593 66.7318L12.4444 71.4065C11.22 73.2245 10.4974 76.5296 9.76333 80.9678C9.02925 85.406 12.856 90.3273 14.793 94.706C16.7301 99.0847 28.2906 105.917 29.4807 107.498C30.6707 109.08 50.0467 118.259 60.03 110.691C70.0134 103.124 64.6109 92.1712 53.7042 88.8327C49.2847 87.48 45.5618 84.7384 41.6648 78.2472C37.7677 71.7561 44.1351 63.9765 35.0593 58.4777Z" stroke="#FF3A41" stroke-width="0.5"/>
</g>
<g filter="url(#filter1_d)">
<path d="M95.0296 95.0571C105.686 93.3464 107.71 78.2178 107.389 70.8673L106.688 63.6891C106.415 60.8976 104.449 57.0675 101.578 52.1199C98.707 47.1723 90.9855 45.5289 85.5506 42.8513C80.1158 40.1736 63.287 43.0657 60.8445 42.5047C58.4021 41.9437 32.0329 49.0119 28.3907 64.6783C24.7484 80.3448 38.8877 86.5809 52.2521 80.8141C57.6673 78.4774 63.5247 78.0754 72.5843 81.1957C81.6438 84.316 81.7086 97.1954 95.0296 95.0571Z" fill="#F40009"/>
<path d="M95.0296 95.0571C105.686 93.3464 107.71 78.2178 107.389 70.8673L106.688 63.6891C106.415 60.8976 104.449 57.0675 101.578 52.1199C98.707 47.1723 90.9855 45.5289 85.5506 42.8513C80.1158 40.1736 63.287 43.0657 60.8445 42.5047C58.4021 41.9437 32.0329 49.0119 28.3907 64.6783C24.7484 80.3448 38.8877 86.5809 52.2521 80.8141C57.6673 78.4774 63.5247 78.0754 72.5843 81.1957C81.6438 84.316 81.7086 97.1954 95.0296 95.0571Z" stroke="#FF3A41" stroke-width="0.5"/>
</g>
<g filter="url(#filter2_d)">
<path d="M41.7964 97.0004C44.2204 104.335 59.4161 103.175 66.711 101.679L73.8085 99.9385C76.5686 99.2618 80.248 97.1937 84.9784 94.2849C89.7088 91.3761 90.8221 85.5644 93.1195 81.2114C95.417 76.8584 91.3993 65.3082 91.7923 63.4627C92.1854 61.6172 83.3652 43.9564 67.5246 44.0502C51.684 44.1439 46.4336 55.3427 53.0783 63.9168C55.7708 67.391 56.5673 71.5154 54.0746 78.5399C51.5819 85.5644 38.7663 87.8317 41.7964 97.0004Z" fill="#F40009"/>
<path d="M41.7964 97.0004C44.2204 104.335 59.4161 103.175 66.711 101.679L73.8085 99.9385C76.5686 99.2618 80.248 97.1937 84.9784 94.2849C89.7088 91.3761 90.8221 85.5644 93.1195 81.2114C95.417 76.8584 91.3993 65.3082 91.7923 63.4627C92.1854 61.6172 83.3652 43.9564 67.5246 44.0502C51.684 44.1439 46.4336 55.3427 53.0783 63.9168C55.7708 67.391 56.5673 71.5154 54.0746 78.5399C51.5819 85.5644 38.7663 87.8317 41.7964 97.0004Z" stroke="#FF3A41" stroke-width="0.5"/>
</g>
<g filter="url(#filter3_d)">
<path d="M73.3522 91.3158C74.1715 96.2534 81.0352 97.1295 84.3646 96.9504L87.6143 96.5951C88.8781 96.457 90.6054 95.5288 92.8354 94.1761C95.0654 92.8234 95.7781 89.2338 96.9688 86.7009C98.1596 84.168 96.7793 76.3715 97.0233 75.2359C97.2674 74.1002 93.9552 61.8943 86.8411 60.2693C79.7271 58.6443 76.96 65.2308 79.6286 71.4079C80.7099 73.9109 80.9163 76.627 79.54 80.8436C78.1637 85.0602 72.3279 85.1437 73.3522 91.3158Z" fill="#F40009"/>
<path d="M73.3522 91.3158C74.1715 96.2534 81.0352 97.1295 84.3646 96.9504L87.6143 96.5951C88.8781 96.457 90.6054 95.5288 92.8354 94.1761C95.0654 92.8234 95.7781 89.2338 96.9688 86.7009C98.1596 84.168 96.7793 76.3715 97.0233 75.2359C97.2674 74.1002 93.9552 61.8943 86.8411 60.2693C79.7271 58.6443 76.96 65.2308 79.6286 71.4079C80.7099 73.9109 80.9163 76.627 79.54 80.8436C78.1637 85.0602 72.3279 85.1437 73.3522 91.3158Z" stroke="#FF3A41" stroke-width="0.5"/>
</g>
<g filter="url(#filter4_d)">
<path d="M44.3516 82.3775C38.769 86.4567 41.9212 95.6625 44.1951 99.7554L46.6371 103.639C47.5867 105.15 49.7962 106.758 52.8392 108.739C55.8821 110.721 60.7473 109.407 64.6045 109.348C68.4617 109.29 77.2233 102.739 78.7739 102.347C80.3246 101.955 93.3314 90.2467 90.9481 80.263C88.5648 70.2793 78.7377 70.8473 72.7672 78.0255C70.3479 80.9342 67.1264 82.8697 61.0789 83.7322C55.0313 84.5947 51.3298 77.2784 44.3516 82.3775Z" fill="#FC141C"/>
<path d="M44.3516 82.3775C38.769 86.4567 41.9212 95.6625 44.1951 99.7554L46.6371 103.639C47.5867 105.15 49.7962 106.758 52.8392 108.739C55.8821 110.721 60.7473 109.407 64.6045 109.348C68.4617 109.29 77.2233 102.739 78.7739 102.347C80.3246 101.955 93.3314 90.2467 90.9481 80.263C88.5648 70.2793 78.7377 70.8473 72.7672 78.0255C70.3479 80.9342 67.1264 82.8697 61.0789 83.7322C55.0313 84.5947 51.3298 77.2784 44.3516 82.3775Z" stroke="#FF3A41" stroke-width="0.5"/>
</g>
<g filter="url(#filter5_d)">
<path d="M53.7645 113.622C50.2934 121.432 59.2319 129.277 64.135 132.224L69.0902 134.843C71.0172 135.862 74.3453 136.203 78.7869 136.423C83.2285 136.644 87.6126 132.224 91.6844 129.767C95.7562 127.309 101.114 114.894 102.527 113.514C103.941 112.134 110.692 91.5902 102.1 82.439C93.5088 73.2877 83.3889 79.9941 81.3838 91.3448C80.5713 95.9442 78.3145 100.005 72.3978 104.679C66.4812 109.352 58.1034 103.86 53.7645 113.622Z" fill="#F40009"/>
<path d="M53.7645 113.622C50.2934 121.432 59.2319 129.277 64.135 132.224L69.0902 134.843C71.0172 135.862 74.3453 136.203 78.7869 136.423C83.2285 136.644 87.6126 132.224 91.6844 129.767C95.7562 127.309 101.114 114.894 102.527 113.514C103.941 112.134 110.692 91.5902 102.1 82.439C93.5088 73.2877 83.3889 79.9941 81.3838 91.3448C80.5713 95.9442 78.3145 100.005 72.3978 104.679C66.4812 109.352 58.1034 103.86 53.7645 113.622Z" stroke="#FF3A41" stroke-width="0.5"/>
</g>
<g filter="url(#filter6_d)">
<path d="M77.8797 88.6224C87.3809 90.6897 88.4928 104.13 87.8611 110.592L86.8948 116.882C86.519 119.328 84.5723 122.601 81.7597 126.811C78.947 131.021 71.9281 132.064 66.9165 134.139C61.905 136.214 46.91 132.781 44.6879 133.147C42.4657 133.513 19.0885 125.899 16.5464 111.9C14.0042 97.9002 27.0081 93.146 38.7539 98.9304C43.5133 101.274 48.7607 101.936 57.0517 99.6615C65.3428 97.3869 66.0032 86.0384 77.8797 88.6224Z" fill="#F40009"/>
<path d="M77.8797 88.6224C87.3809 90.6897 88.4928 104.13 87.8611 110.592L86.8948 116.882C86.519 119.328 84.5723 122.601 81.7597 126.811C78.947 131.021 71.9281 132.064 66.9165 134.139C61.905 136.214 46.91 132.781 44.6879 133.147C42.4657 133.513 19.0885 125.899 16.5464 111.9C14.0042 97.9002 27.0081 93.146 38.7539 98.9304C43.5133 101.274 48.7607 101.936 57.0517 99.6615C65.3428 97.3869 66.0032 86.0384 77.8797 88.6224Z" stroke="#FF3A41" stroke-width="0.5"/>
</g>
<g filter="url(#filter7_d)">
<path d="M36.9272 91.8202C28.4793 92.3231 25.7461 103.973 25.4355 109.735V115.392C25.4355 117.592 26.6779 120.735 28.5414 124.821C30.4049 128.906 36.3061 130.792 40.3437 133.306C44.3813 135.821 57.7365 134.878 59.6 135.506C61.4635 136.135 82.5834 132.678 86.621 120.735C90.6587 108.792 80.0987 102.82 69.2282 106.278C64.8234 107.678 60.2212 107.535 53.3883 104.392C46.5554 101.249 47.4872 91.1916 36.9272 91.8202Z" fill="#F40009"/>
<path d="M36.9272 91.8202C28.4793 92.3231 25.7461 103.973 25.4355 109.735V115.392C25.4355 117.592 26.6779 120.735 28.5414 124.821C30.4049 128.906 36.3061 130.792 40.3437 133.306C44.3813 135.821 57.7365 134.878 59.6 135.506C61.4635 136.135 82.5834 132.678 86.621 120.735C90.6587 108.792 80.0987 102.82 69.2282 106.278C64.8234 107.678 60.2212 107.535 53.3883 104.392C46.5554 101.249 47.4872 91.1916 36.9272 91.8202Z" stroke="#FF3A41" stroke-width="0.5"/>
</g>
<g filter="url(#filter8_d)">
<path d="M24.1104 78.3537C19.526 74.8926 13.1017 79.7123 10.4625 82.5548L8.02903 85.4799C7.08268 86.6174 6.37311 88.7897 5.57915 91.7231C4.78518 94.6565 7.02526 98.2309 8.0314 101.309C9.03754 104.388 16.3485 109.783 17.0417 110.929C17.7349 112.075 30.1422 119.59 37.3672 115.193C44.5922 110.796 41.7008 103.057 34.593 100.057C31.7129 98.8409 29.3951 96.7394 27.214 92.1046C25.0329 87.4698 29.8409 82.6801 24.1104 78.3537Z" fill="#FC141C"/>
<path d="M24.1104 78.3537C19.526 74.8926 13.1017 79.7123 10.4625 82.5548L8.02903 85.4799C7.08268 86.6174 6.37311 88.7897 5.57915 91.7231C4.78518 94.6565 7.02526 98.2309 8.0314 101.309C9.03754 104.388 16.3485 109.783 17.0417 110.929C17.7349 112.075 30.1422 119.59 37.3672 115.193C44.5922 110.796 41.7008 103.057 34.593 100.057C31.7129 98.8409 29.3951 96.7394 27.214 92.1046C25.0329 87.4698 29.8409 82.6801 24.1104 78.3537Z" stroke="#FF3A41" stroke-width="0.5"/>
</g>
<g filter="url(#filter9_d)">
<path d="M97.3206 106.791C101.083 111.15 108.365 107.806 111.536 105.589L114.524 103.247C115.685 102.336 116.83 100.364 118.216 97.6648C119.602 94.966 118.155 90.9948 117.812 87.771C117.468 84.5472 111.442 77.7167 111.002 76.4489C110.563 75.1812 99.9954 65.1932 92.0181 67.9537C84.0408 70.7143 85.2588 78.8956 91.5839 83.342C94.1468 85.1437 95.9759 87.6915 97.1448 92.6868C98.3137 97.6821 92.6176 101.341 97.3206 106.791Z" fill="#FC141C"/>
<path d="M97.3206 106.791C101.083 111.15 108.365 107.806 111.536 105.589L114.524 103.247C115.685 102.336 116.83 100.364 118.216 97.6648C119.602 94.966 118.155 90.9948 117.812 87.771C117.468 84.5472 111.442 77.7167 111.002 76.4489C110.563 75.1812 99.9954 65.1932 92.0181 67.9537C84.0408 70.7143 85.2588 78.8956 91.5839 83.342C94.1468 85.1437 95.9759 87.6915 97.1448 92.6868C98.3137 97.6821 92.6176 101.341 97.3206 106.791Z" stroke="#FF3A41" stroke-width="0.5"/>
</g>
<g filter="url(#filter10_d)">
<path d="M56.5645 119.541C50.9423 125.942 57.1501 136.135 60.9569 140.432L64.91 144.432C66.4473 145.987 69.522 147.321 73.6947 148.877C77.8674 150.432 83.3579 147.543 87.9698 146.432C92.5818 145.321 101.367 135.098 103.123 134.209C104.88 133.32 117.399 115.763 111.908 104.429C106.418 93.0953 94.778 96.4288 89.5072 106.652C87.3714 110.794 84.0167 113.985 76.9889 116.652C69.9612 119.319 63.5923 111.541 56.5645 119.541Z" fill="#F40009"/>
<path d="M56.5645 119.541C50.9423 125.942 57.1501 136.135 60.9569 140.432L64.91 144.432C66.4473 145.987 69.522 147.321 73.6947 148.877C77.8674 150.432 83.3579 147.543 87.9698 146.432C92.5818 145.321 101.367 135.098 103.123 134.209C104.88 133.32 117.399 115.763 111.908 104.429C106.418 93.0953 94.778 96.4288 89.5072 106.652C87.3714 110.794 84.0167 113.985 76.9889 116.652C69.9612 119.319 63.5923 111.541 56.5645 119.541Z" stroke="#FF3A41" stroke-width="0.5"/>
</g>
<g filter="url(#filter11_d)">
<path fill-rule="evenodd" clip-rule="evenodd" d="M73.3493 38.7653C71.1661 38.3822 68.9828 37.9991 66.7995 37.6159C63.4809 37.0265 62.8696 38.0875 62.433 39.2958C62.0545 40.563 62.171 41.2998 62.8696 41.5945C61.4723 43.2154 60.7737 44.9247 61.9381 46.8992C60.7737 65.1121 44.0353 72.0672 45.2288 101.567C45.4326 108.876 44.3264 115.065 42.114 120.252C41.5027 121.401 40.8914 122.551 40.3965 123.7C46.0148 126.824 52.4481 128.592 59.2891 128.592C62.3456 128.592 65.3149 128.209 68.1968 127.531C68.1968 127.561 68.1968 127.59 68.1968 127.62C67.5273 121.578 67.9057 115.389 70.7003 108.847C73.7278 100.565 75.2415 91.9305 75.4744 82.9714C75.5908 77.5783 75.0668 74.8964 74.2518 69.7685C73.5531 65.4069 73.2038 60.9862 73.2329 56.5362C73.262 53.6186 73.4949 51.8798 74.0771 49.0506C75.5908 47.6949 75.8237 45.8972 75.0086 43.7164C75.3579 43.7164 75.7364 43.7164 75.911 43.2154C76.7552 40.3862 75.096 39.1779 73.3493 38.7653Z" fill="white"/>
</g>
</g>
<g filter="url(#filter12_d)">
<path d="M70.2358 108.663C67.4741 115.134 67.044 120.795 67.653 126.735C64.96 127.319 62.1776 127.464 59.2895 127.464C52.7089 127.464 46.7477 125.677 41.3008 122.72C41.4616 122.384 41.6116 122.118 41.7711 121.848C41.8197 121.766 41.8697 121.683 41.9216 121.596C42.1054 121.29 42.3121 120.945 42.556 120.487L42.5661 120.468L42.5745 120.448C44.8202 115.183 45.9346 108.92 45.7292 101.554L45.729 101.547C45.137 86.9151 48.9857 77.8915 53.1393 70.2391C53.8254 68.975 54.5229 67.7442 55.2118 66.5285C58.6867 60.3967 61.9443 54.6482 62.4377 46.9311L62.4475 46.7777L62.3694 46.6452C61.8483 45.7615 61.758 44.9713 61.9309 44.2274C62.1085 43.4632 62.5746 42.7032 63.2489 41.921L63.6974 41.4007L63.0646 41.1338C62.8748 41.0537 62.7796 40.9381 62.7399 40.7202C62.6925 40.46 62.73 40.0548 62.9087 39.4523C63.1199 38.8705 63.3305 38.4657 63.7773 38.2197C64.2477 37.9607 65.0892 37.8199 66.7127 38.1082L66.7137 38.1084L69.9886 38.6831L73.2489 39.2552C74.0583 39.4486 74.7748 39.811 75.2016 40.3831C75.6114 40.9324 75.8198 41.7648 75.4361 43.0602C75.4124 43.1253 75.39 43.1537 75.3799 43.1646C75.3706 43.1745 75.3612 43.1813 75.3438 43.1881C75.3226 43.1964 75.2875 43.2052 75.2284 43.2105C75.1671 43.216 75.1005 43.2164 75.0092 43.2164H74.2886L74.5409 43.8914C74.9284 44.9284 75.0507 45.8323 74.9233 46.6124C74.7976 47.3824 74.4228 48.0704 73.7441 48.6781L73.6212 48.7882L73.588 48.9498C73.0007 51.8038 72.763 53.5752 72.7335 56.5312L72.7335 56.5329C72.7042 61.0111 73.0557 65.4591 73.7586 69.847C73.8291 70.2905 73.8973 70.7154 73.9631 71.1251C74.6587 75.455 75.0804 78.0797 74.9752 82.9589C74.7436 91.8647 73.2398 100.441 70.2358 108.663Z" fill="white" stroke="#F7B2B5"/>
</g>
<path d="M56.3179 77.1491C56.3179 78.1421 55.5845 78.8868 54.8511 78.8868C54.1176 78.8868 53.6287 77.8938 53.8732 76.9008C53.8732 75.9078 54.6066 75.1631 55.34 75.1631C55.829 75.1631 56.3179 76.1561 56.3179 77.1491Z" fill="#3F3F5B"/>
<path d="M72.4683 79.6627C72.4683 80.6557 71.7349 81.4005 71.0014 81.4005C70.268 81.4005 69.7791 80.4075 70.0236 79.4145C70.0236 78.4215 70.757 77.6768 71.4904 77.6768C71.9793 77.925 72.4683 78.6697 72.4683 79.6627Z" fill="#3F3F5B"/>
<path d="M68.6458 85.365C69.7198 87.6161 66.388 93.0739 59.8134 91.9906C53.2389 90.9073 53.4727 84.069 54.6842 82.6887C56.5567 81.1597 59.5515 83.602 61.8784 84.0481C64.4394 84.303 67.5924 82.9015 68.6458 85.365Z" fill="#3F3F5B"/>
<path d="M59.0929 86.1291C57.5164 86.8299 56.1121 87.9766 55.5201 89.6331C56.2705 90.7799 57.6818 91.778 59.816 91.9905C64.4905 92.6702 67.5332 90.1856 68.6346 87.7222C68.015 87.4461 67.6295 86.9788 67.0305 86.4904C64.5728 85.1736 61.585 84.8762 59.0929 86.1291Z" fill="#FF2936"/>
<mask id="path-47-inside-1" fill="white">
<ellipse rx="0.620512" ry="0.599258" transform="matrix(0.997734 0.0672822 -0.0657129 0.997839 93.4166 69.5235)"/>
</mask>
<ellipse rx="0.620512" ry="0.599258" transform="matrix(0.997734 0.0672822 -0.0657129 0.997839 93.4166 69.5235)" fill="#F40009"/>
<path d="M93.038 69.498C93.0547 69.2446 93.2669 69.1118 93.443 69.1236L93.3115 71.1193C94.1714 71.1773 94.9733 70.5464 95.0335 69.6325L93.038 69.498ZM93.443 69.1236C93.619 69.1355 93.812 69.2957 93.7953 69.549L91.7998 69.4145C91.7396 70.3283 92.4517 71.0613 93.3115 71.1193L93.443 69.1236ZM93.7953 69.549C93.7786 69.8024 93.5664 69.9352 93.3903 69.9234L93.5217 67.9277C92.6618 67.8697 91.86 68.5006 91.7998 69.4145L93.7953 69.549ZM93.3903 69.9234C93.2143 69.9115 93.0213 69.7513 93.038 69.498L95.0335 69.6325C95.0937 68.7187 94.3816 67.9857 93.5217 67.9277L93.3903 69.9234Z" fill="white" mask="url(#path-47-inside-1)"/>
<path d="M94.9297 63.5C94.8836 64.1989 94.2527 64.7551 93.4859 64.7034C92.7191 64.6517 92.1667 64.0157 92.2128 63.3168C92.2588 62.6178 92.8897 62.0617 93.6565 62.1134C94.4233 62.1651 94.9757 62.8011 94.9297 63.5Z" fill="#F40009" stroke="white"/>
<mask id="path-50-inside-2" fill="white">
<ellipse rx="0.682563" ry="0.659183" transform="matrix(0.997734 0.0672822 -0.0657129 0.997839 91.7314 63.9449)"/>
</mask>
<ellipse rx="0.682563" ry="0.659183" transform="matrix(0.997734 0.0672822 -0.0657129 0.997839 91.7314 63.9449)" fill="#F40009"/>
<path d="M91.4147 63.9235C91.4292 63.7032 91.612 63.5952 91.7538 63.6048L91.6224 65.6005C92.5165 65.6608 93.3478 65.005 93.4102 64.0581L91.4147 63.9235ZM91.7538 63.6048C91.8957 63.6144 92.0627 63.7459 92.0482 63.9663L90.0527 63.8317C89.9903 64.7785 90.7283 65.5402 91.6224 65.6005L91.7538 63.6048ZM92.0482 63.9663C92.0337 64.1866 91.8509 64.2945 91.7091 64.285L91.8405 62.2893C90.9464 62.229 90.1151 62.8848 90.0527 63.8317L92.0482 63.9663ZM91.7091 64.285C91.5672 64.2754 91.4002 64.1439 91.4147 63.9235L93.4102 64.0581C93.4726 63.1112 92.7346 62.3496 91.8405 62.2893L91.7091 64.285Z" fill="white" mask="url(#path-50-inside-2)"/>
<mask id="path-52-inside-3" fill="white">
<ellipse rx="0.744615" ry="0.719109" transform="matrix(0.997734 0.0672822 -0.0657129 0.997839 93.8832 60.546)"/>
</mask>
<ellipse rx="0.744615" ry="0.719109" transform="matrix(0.997734 0.0672822 -0.0657129 0.997839 93.8832 60.546)" fill="#F40009"/>
<path d="M93.6284 60.5288C93.6407 60.3415 93.794 60.2584 93.9016 60.2657L93.7702 62.2614C94.6985 62.324 95.5593 61.6432 95.6238 60.6634L93.6284 60.5288ZM93.9016 60.2657C94.0093 60.273 94.1503 60.3759 94.138 60.5632L92.1425 60.4286C92.078 61.4085 92.8419 62.1988 93.7702 62.2614L93.9016 60.2657ZM94.138 60.5632C94.1256 60.7504 93.9724 60.8335 93.8647 60.8263L93.9961 58.8306C93.0679 58.768 92.207 59.4487 92.1425 60.4286L94.138 60.5632ZM93.8647 60.8263C93.7571 60.819 93.616 60.7161 93.6284 60.5288L95.6238 60.6634C95.6884 59.6835 94.9244 58.8932 93.9961 58.8306L93.8647 60.8263Z" fill="white" mask="url(#path-52-inside-3)"/>
<mask id="path-54-inside-4" fill="white">
<ellipse rx="0.620512" ry="0.599258" transform="matrix(0.997734 0.0672822 -0.0657129 0.997839 94.2721 65.9776)"/>
</mask>
<ellipse rx="0.620512" ry="0.599258" transform="matrix(0.997734 0.0672822 -0.0657129 0.997839 94.2721 65.9776)" fill="#F40009"/>
<path d="M93.8935 65.9521C93.9102 65.6987 94.1224 65.5659 94.2984 65.5777L94.167 67.5734C95.0269 67.6314 95.8288 67.0005 95.889 66.0866L93.8935 65.9521ZM94.2984 65.5777C94.4745 65.5896 94.6674 65.7498 94.6507 66.0031L92.6553 65.8686C92.5951 66.7824 93.3071 67.5154 94.167 67.5734L94.2984 65.5777ZM94.6507 66.0031C94.6341 66.2565 94.4218 66.3894 94.2458 66.3775L94.3772 64.3818C93.5173 64.3238 92.7155 64.9547 92.6553 65.8686L94.6507 66.0031ZM94.2458 66.3775C94.0697 66.3656 93.8768 66.2054 93.8935 65.9521L95.889 66.0866C95.9491 65.1728 95.2371 64.4398 94.3772 64.3818L94.2458 66.3775Z" fill="white" mask="url(#path-54-inside-4)"/>
<ellipse rx="0.372307" ry="0.359555" transform="matrix(0.997734 0.0672822 -0.0657129 0.997839 92.4533 70.9004)" fill="#F40009"/>
<ellipse rx="0.248205" ry="0.239703" transform="matrix(0.997734 0.0672822 -0.0657129 0.997839 92.3872 70.0557)" fill="#F40009"/>
<path d="M93.0714 67.158C93.0536 67.4277 92.806 67.6601 92.4837 67.6383C92.1614 67.6166 91.9464 67.353 91.9641 67.0834C91.9819 66.8138 92.2296 66.5814 92.5519 66.6031C92.8741 66.6248 93.0891 66.8884 93.0714 67.158Z" fill="#F40009" stroke="white"/>
<ellipse rx="0.434359" ry="0.41948" transform="matrix(0.997734 0.0672822 -0.0657129 0.997839 91.8511 67.7964)" fill="#F40009"/>
<mask id="path-60-inside-5" fill="white">
<ellipse cx="19.9684" cy="90.9232" rx="0.62048" ry="0.599289" transform="rotate(180 19.9684 90.9232)"/>
</mask>
<ellipse cx="19.9684" cy="90.9232" rx="0.62048" ry="0.599289" transform="rotate(180 19.9684 90.9232)" fill="#F40009"/>
<path d="M20.3479 90.9232C20.3479 91.1769 20.145 91.3239 19.9684 91.3239L19.9684 89.3239C19.1065 89.3239 18.3479 90.0074 18.3479 90.9232L20.3479 90.9232ZM19.9684 91.3239C19.7918 91.3239 19.5889 91.1769 19.5889 90.9232L21.5889 90.9232C21.5889 90.0074 20.8303 89.3239 19.9684 89.3239L19.9684 91.3239ZM19.5889 90.9232C19.5889 90.6694 19.7918 90.5225 19.9684 90.5225L19.9684 92.5225C20.8303 92.5225 21.5889 91.8389 21.5889 90.9232L19.5889 90.9232ZM19.9684 90.5225C20.145 90.5225 20.3479 90.6694 20.3479 90.9232L18.3479 90.9232C18.3479 91.8389 19.1065 92.5225 19.9684 92.5225L19.9684 90.5225Z" fill="white" mask="url(#path-60-inside-5)"/>
<path d="M18.8552 97.0351C18.8552 96.3346 19.4483 95.7373 20.2167 95.7373C20.9851 95.7373 21.5781 96.3346 21.5781 97.0351C21.5781 97.7357 20.9851 98.333 20.2167 98.333C19.4483 98.333 18.8552 97.7357 18.8552 97.0351Z" fill="#F40009" stroke="white"/>
<mask id="path-63-inside-6" fill="white">
<ellipse cx="22.0157" cy="96.3769" rx="0.682527" ry="0.659218" transform="rotate(180 22.0157 96.3769)"/>
</mask>
<ellipse cx="22.0157" cy="96.3769" rx="0.682527" ry="0.659218" transform="rotate(180 22.0157 96.3769)" fill="#F40009"/>
<path d="M22.3332 96.3769C22.3332 96.5976 22.158 96.7177 22.0157 96.7177L22.0157 94.7177C21.1195 94.7177 20.3332 95.4281 20.3332 96.3769L22.3332 96.3769ZM22.0157 96.7177C21.8734 96.7177 21.6982 96.5976 21.6982 96.3769L23.6982 96.3769C23.6982 95.4281 22.9119 94.7177 22.0157 94.7177L22.0157 96.7177ZM21.6982 96.3769C21.6982 96.1562 21.8734 96.0361 22.0157 96.0361L22.0157 98.0361C22.9119 98.0361 23.6982 97.3257 23.6982 96.3769L21.6982 96.3769ZM22.0157 96.0361C22.158 96.0361 22.3332 96.1562 22.3332 96.3769L20.3332 96.3769C20.3332 97.3257 21.1195 98.0361 22.0157 98.0361L22.0157 96.0361Z" fill="white" mask="url(#path-63-inside-6)"/>
<mask id="path-65-inside-7" fill="white">
<ellipse cx="20.0923" cy="99.9117" rx="0.744575" ry="0.719146" transform="rotate(180 20.0923 99.9117)"/>
</mask>
<ellipse cx="20.0923" cy="99.9117" rx="0.744575" ry="0.719146" transform="rotate(180 20.0923 99.9117)" fill="#F40009"/>
<path d="M20.3478 99.9117C20.3478 100.099 20.2004 100.193 20.0923 100.193L20.0923 98.1926C19.1619 98.1926 18.3478 98.9298 18.3478 99.9117L20.3478 99.9117ZM20.0923 100.193C19.9843 100.193 19.8369 100.099 19.8369 99.9117L21.8369 99.9117C21.8369 98.9298 21.0228 98.1926 20.0923 98.1926L20.0923 100.193ZM19.8369 99.9117C19.8369 99.7241 19.9843 99.6309 20.0923 99.6309L20.0923 101.631C21.0228 101.631 21.8369 100.894 21.8369 99.9117L19.8369 99.9117ZM20.0923 99.6309C20.2004 99.6309 20.3478 99.7241 20.3478 99.9117L18.3478 99.9117C18.3478 100.894 19.1619 101.631 20.0923 101.631L20.0923 99.6309Z" fill="white" mask="url(#path-65-inside-7)"/>
<mask id="path-67-inside-8" fill="white">
<ellipse cx="19.3483" cy="94.5189" rx="0.62048" ry="0.599289" transform="rotate(180 19.3483 94.5189)"/>
</mask>
<ellipse cx="19.3483" cy="94.5189" rx="0.62048" ry="0.599289" transform="rotate(180 19.3483 94.5189)" fill="#F40009"/>
<path d="M19.7278 94.5189C19.7278 94.7727 19.5248 94.9196 19.3483 94.9196L19.3483 92.9196C18.4863 92.9196 17.7278 93.6031 17.7278 94.5189L19.7278 94.5189ZM19.3483 94.9196C19.1717 94.9196 18.9687 94.7727 18.9687 94.5189L20.9687 94.5189C20.9687 93.6031 20.2102 92.9196 19.3483 92.9196L19.3483 94.9196ZM18.9687 94.5189C18.9687 94.2651 19.1717 94.1182 19.3483 94.1182L19.3483 96.1182C20.2102 96.1182 20.9688 95.4346 20.9687 94.5189L18.9687 94.5189ZM19.3483 94.1182C19.5248 94.1182 19.7278 94.2651 19.7278 94.5189L17.7278 94.5189C17.7278 95.4346 18.4863 96.1182 19.3483 96.1182L19.3483 94.1182Z" fill="white" mask="url(#path-67-inside-8)"/>
<ellipse cx="20.8377" cy="89.4842" rx="0.372288" ry="0.359573" transform="rotate(180 20.8377 89.4842)" fill="#F40009"/>
<ellipse cx="20.9608" cy="90.3238" rx="0.248192" ry="0.239715" transform="rotate(180 20.9608 90.3238)" fill="#F40009"/>
<path d="M20.4685 93.2595C20.4685 92.9892 20.7004 92.7407 21.0233 92.7407C21.3462 92.7407 21.5781 92.9892 21.5781 93.2595C21.5781 93.5298 21.3462 93.7783 21.0233 93.7783C20.7004 93.7783 20.4685 93.5298 20.4685 93.2595Z" fill="#F40009" stroke="white"/>
<ellipse cx="21.6428" cy="92.5405" rx="0.434336" ry="0.419502" transform="rotate(180 21.6428 92.5405)" fill="#F40009"/>
<mask id="path-73-inside-9" fill="white">
<ellipse cx="30.4565" cy="109.44" rx="0.97609" ry="0.949417" transform="rotate(180 30.4565 109.44)"/>
</mask>
<ellipse cx="30.4565" cy="109.44" rx="0.97609" ry="0.949417" transform="rotate(180 30.4565 109.44)" fill="#F40009"/>
<path d="M30.4804 109.44C30.4804 109.449 30.4783 109.46 30.4742 109.469C30.4704 109.478 30.4662 109.483 30.4636 109.486C30.4582 109.491 30.4539 109.491 30.4565 109.491L30.4565 107.491C29.3915 107.491 28.4804 108.338 28.4804 109.44L30.4804 109.44ZM30.4565 109.491C30.4592 109.491 30.4548 109.491 30.4495 109.486C30.4468 109.483 30.4426 109.478 30.4389 109.469C30.4348 109.46 30.4326 109.449 30.4326 109.44L32.4326 109.44C32.4326 108.338 31.5216 107.491 30.4565 107.491L30.4565 109.491ZM30.4326 109.44C30.4326 109.431 30.4348 109.42 30.4389 109.411C30.4426 109.402 30.4468 109.397 30.4495 109.395C30.4548 109.39 30.4592 109.39 30.4565 109.39L30.4565 111.39C31.5216 111.39 32.4326 110.543 32.4326 109.44L30.4326 109.44ZM30.4565 109.39C30.4539 109.39 30.4582 109.39 30.4636 109.395C30.4662 109.397 30.4704 109.402 30.4742 109.411C30.4783 109.42 30.4804 109.431 30.4804 109.44L28.4804 109.44C28.4804 110.543 29.3915 111.39 30.4565 111.39L30.4565 109.39Z" fill="white" mask="url(#path-73-inside-9)"/>
<path d="M28.4198 119.124C28.4198 117.84 29.4938 116.776 30.8481 116.776C32.2023 116.776 33.2764 117.84 33.2764 119.124C33.2764 120.408 32.2023 121.473 30.8481 121.473C29.4938 121.473 28.4198 120.408 28.4198 119.124Z" fill="#F40009" stroke="white"/>
<path d="M33.1046 118.081C33.1046 117.793 33.3483 117.536 33.6783 117.536C34.0082 117.536 34.252 117.793 34.252 118.081C34.252 118.368 34.0082 118.625 33.6783 118.625C33.3483 118.625 33.1046 118.368 33.1046 118.081Z" fill="#F40009" stroke="white"/>
<path d="M29.9816 123.682C29.9816 123.342 30.269 123.043 30.6529 123.043C31.0368 123.043 31.3242 123.342 31.3242 123.682C31.3242 124.022 31.0368 124.321 30.6529 124.321C30.269 124.321 29.9816 124.022 29.9816 123.682Z" fill="#F40009" stroke="white"/>
<mask id="path-78-inside-10" fill="white">
<ellipse cx="29.4829" cy="115.137" rx="0.97609" ry="0.949417" transform="rotate(180 29.4829 115.137)"/>
</mask>
<ellipse cx="29.4829" cy="115.137" rx="0.97609" ry="0.949417" transform="rotate(180 29.4829 115.137)" fill="#F40009"/>
<path d="M29.5068 115.137C29.5068 115.147 29.5046 115.157 29.5006 115.167C29.4968 115.175 29.4926 115.18 29.4899 115.183C29.4846 115.188 29.4803 115.188 29.4829 115.188L29.4829 113.188C28.4178 113.188 27.5068 114.035 27.5068 115.137L29.5068 115.137ZM29.4829 115.188C29.4855 115.188 29.4812 115.188 29.4758 115.183C29.4732 115.18 29.469 115.175 29.4652 115.167C29.4611 115.157 29.459 115.147 29.459 115.137L31.459 115.137C31.459 114.035 30.548 113.188 29.4829 113.188L29.4829 115.188ZM29.459 115.137C29.459 115.128 29.4611 115.118 29.4652 115.108C29.469 115.1 29.4732 115.095 29.4758 115.092C29.4812 115.087 29.4855 115.087 29.4829 115.087L29.4829 117.087C30.548 117.087 31.459 116.24 31.459 115.137L29.459 115.137ZM29.4829 115.087C29.4803 115.087 29.4846 115.087 29.4899 115.092C29.4926 115.095 29.4968 115.1 29.5006 115.108C29.5046 115.118 29.5068 115.128 29.5068 115.137L27.5068 115.137C27.5068 116.24 28.4178 117.087 29.4829 117.087L29.4829 115.087Z" fill="white" mask="url(#path-78-inside-10)"/>
<mask id="path-80-inside-11" fill="white">
<ellipse cx="31.8245" cy="107.162" rx="0.585654" ry="0.56965" transform="rotate(180 31.8245 107.162)"/>
</mask>
<ellipse cx="31.8245" cy="107.162" rx="0.585654" ry="0.56965" transform="rotate(180 31.8245 107.162)" fill="#F40009"/>
<path d="M32.2388 107.162C32.2388 107.425 32.027 107.592 31.8245 107.592L31.8245 105.592C30.9751 105.592 30.2388 106.269 30.2388 107.162L32.2388 107.162ZM31.8245 107.592C31.622 107.592 31.4102 107.425 31.4102 107.162L33.4102 107.162C33.4102 106.269 32.6739 105.592 31.8245 105.592L31.8245 107.592ZM31.4102 107.162C31.4102 106.898 31.622 106.731 31.8245 106.731L31.8245 108.731C32.6739 108.731 33.4102 108.055 33.4102 107.162L31.4102 107.162ZM31.8245 106.731C32.027 106.731 32.2388 106.898 32.2388 107.162L30.2388 107.162C30.2388 108.055 30.9751 108.731 31.8245 108.731L31.8245 106.731Z" fill="white" mask="url(#path-80-inside-11)"/>
<ellipse cx="32.0178" cy="108.491" rx="0.390436" ry="0.379767" transform="rotate(180 32.0178 108.491)" fill="#F40009"/>
<path d="M30.9577 113.143C30.9577 112.541 31.4636 112.029 32.117 112.029C32.7705 112.029 33.2764 112.541 33.2764 113.143C33.2764 113.745 32.7705 114.257 32.117 114.257C31.4636 114.257 30.9577 113.745 30.9577 113.143Z" fill="#F40009" stroke="white"/>
<mask id="path-84-inside-12" fill="white">
<ellipse cx="33.0931" cy="112.004" rx="0.683263" ry="0.664592" transform="rotate(180 33.0931 112.004)"/>
</mask>
<ellipse cx="33.0931" cy="112.004" rx="0.683263" ry="0.664592" transform="rotate(180 33.0931 112.004)" fill="#F40009"/>
<path d="M33.4098 112.004C33.4098 112.216 33.2417 112.34 33.0931 112.34L33.0931 110.34C32.1898 110.34 31.4098 111.059 31.4098 112.004L33.4098 112.004ZM33.0931 112.34C32.9445 112.34 32.7764 112.216 32.7764 112.004L34.7764 112.004C34.7764 111.059 33.9964 110.34 33.0931 110.34L33.0931 112.34ZM32.7764 112.004C32.7764 111.793 32.9445 111.669 33.0931 111.669L33.0931 113.669C33.9964 113.669 34.7764 112.95 34.7764 112.004L32.7764 112.004ZM33.0931 111.669C33.2417 111.669 33.4098 111.793 33.4098 112.004L31.4098 112.004C31.4098 112.95 32.1898 113.669 33.0931 113.669L33.0931 111.669Z" fill="white" mask="url(#path-84-inside-12)"/>
<path d="M29.6119 122.724C29.6119 122.986 29.3822 123.238 29.0481 123.238C28.714 123.238 28.4844 122.986 28.4844 122.724C28.4844 122.462 28.714 122.21 29.0481 122.21C29.3822 122.21 29.6119 122.462 29.6119 122.724Z" fill="#F40009" stroke="white"/>
<path d="M31.3141 112.379C31.3141 113.761 30.1319 114.921 28.6229 114.921C27.1138 114.921 25.9316 113.761 25.9316 112.379C25.9316 110.997 27.1138 109.836 28.6229 109.836C30.1319 109.836 31.3141 110.997 31.3141 112.379Z" fill="#F40009" stroke="white"/>
<path d="M26.2084 113.495C26.2084 113.812 25.9311 114.11 25.5383 114.11C25.1455 114.11 24.8682 113.812 24.8682 113.495C24.8682 113.177 25.1455 112.879 25.5383 112.879C25.9311 112.879 26.2084 113.177 26.2084 113.495Z" fill="#F40009" stroke="white"/>
<path d="M29.6116 107.51C29.6116 107.884 29.2867 108.227 28.8351 108.227C28.3835 108.227 28.0586 107.884 28.0586 107.51C28.0586 107.136 28.3835 106.793 28.8351 106.793C29.2867 106.793 29.6116 107.136 29.6116 107.51Z" fill="#F40009" stroke="white"/>
<path d="M30.6763 116.638C30.6763 116.9 30.4467 117.152 30.1126 117.152C29.7785 117.152 29.5488 116.9 29.5488 116.638C29.5488 116.376 29.7785 116.124 30.1126 116.124C30.4467 116.124 30.6763 116.376 30.6763 116.638Z" fill="#F40009" stroke="white"/>
<mask id="path-91-inside-13" fill="white">
<ellipse cx="27.5591" cy="125.158" rx="0.638248" ry="0.608534"/>
</mask>
<ellipse cx="27.5591" cy="125.158" rx="0.638248" ry="0.608534" fill="#F40009"/>
<path d="M27.1974 125.158C27.1974 124.898 27.4048 124.767 27.5591 124.767L27.5591 126.767C28.4185 126.767 29.1974 126.091 29.1974 125.158L27.1974 125.158ZM27.5591 124.767C27.7135 124.767 27.9209 124.898 27.9209 125.158L25.9209 125.158C25.9209 126.091 26.6998 126.767 27.5591 126.767L27.5591 124.767ZM27.9209 125.158C27.9209 125.419 27.7135 125.55 27.5591 125.55L27.5591 123.55C26.6998 123.55 25.9209 124.226 25.9209 125.158L27.9209 125.158ZM27.5591 125.55C27.4048 125.55 27.1974 125.419 27.1974 125.158L29.1974 125.158C29.1974 124.226 28.4185 123.55 27.5591 123.55L27.5591 125.55Z" fill="white" mask="url(#path-91-inside-13)"/>
<ellipse cx="27.3464" cy="123.738" rx="0.425498" ry="0.405689" fill="#F40009"/>
<path d="M28.5484 118.768C28.5484 119.422 27.9853 119.992 27.24 119.992C26.4947 119.992 25.9316 119.422 25.9316 118.768C25.9316 118.114 26.4947 117.544 27.24 117.544C27.9853 117.544 28.5484 118.114 28.5484 118.768Z" fill="#F40009" stroke="white"/>
<mask id="path-95-inside-14" fill="white">
<ellipse cx="26.1763" cy="119.985" rx="0.744622" ry="0.709956"/>
</mask>
<ellipse cx="26.1763" cy="119.985" rx="0.744622" ry="0.709956" fill="#F40009"/>
<path d="M25.9209 119.985C25.9209 119.781 26.0807 119.695 26.1763 119.695L26.1763 121.695C27.0943 121.695 27.9209 120.974 27.9209 119.985L25.9209 119.985ZM26.1763 119.695C26.2718 119.695 26.4316 119.781 26.4316 119.985L24.4316 119.985C24.4316 120.974 25.2582 121.695 26.1763 121.695L26.1763 119.695ZM26.4316 119.985C26.4316 120.19 26.2718 120.275 26.1763 120.275L26.1763 118.275C25.2582 118.275 24.4316 118.997 24.4316 119.985L26.4316 119.985ZM26.1763 120.275C26.0807 120.275 25.9209 120.19 25.9209 119.985L27.9209 119.985C27.9209 118.997 27.0943 118.275 26.1763 118.275L26.1763 120.275Z" fill="white" mask="url(#path-95-inside-14)"/>
<path d="M98.4849 78.6392C98.4849 78.901 98.2552 79.1534 97.9212 79.1534C97.5871 79.1534 97.3574 78.901 97.3574 78.6392C97.3574 78.3774 97.5871 78.125 97.9212 78.125C98.2552 78.125 98.4849 78.3774 98.4849 78.6392Z" fill="#F40009" stroke="white"/>
<path d="M95.0805 69.4096C95.0805 69.7274 94.8032 70.0252 94.4104 70.0252C94.0175 70.0252 93.7402 69.7274 93.7402 69.4096C93.7402 69.0918 94.0175 68.7939 94.4104 68.7939C94.8032 68.7939 95.0805 69.0918 95.0805 69.4096Z" fill="#F40009" stroke="white"/>
<path d="M99.5484 72.5533C99.5484 72.8151 99.3187 73.0675 98.9846 73.0675C98.6506 73.0675 98.4209 72.8151 98.4209 72.5533C98.4209 72.2915 98.6506 72.0391 98.9846 72.0391C99.3187 72.0391 99.5484 72.2915 99.5484 72.5533Z" fill="#F40009" stroke="white"/>
<mask id="path-100-inside-15" fill="white">
<ellipse cx="96.4322" cy="81.0734" rx="0.638248" ry="0.608534"/>
</mask>
<ellipse cx="96.4322" cy="81.0734" rx="0.638248" ry="0.608534" fill="#F40009"/>
<path d="M96.0704 81.0734C96.0704 80.8128 96.2779 80.6819 96.4322 80.6819L96.4322 82.6819C97.2915 82.6819 98.0704 82.0061 98.0704 81.0734L96.0704 81.0734ZM96.4322 80.6819C96.5865 80.6819 96.7939 80.8128 96.7939 81.0734L94.7939 81.0734C94.7939 82.0061 95.5729 82.6819 96.4322 82.6819L96.4322 80.6819ZM96.7939 81.0734C96.7939 81.334 96.5865 81.4648 96.4322 81.4648L96.4322 79.4648C95.5729 79.4648 94.7939 80.1406 94.7939 81.0734L96.7939 81.0734ZM96.4322 81.4648C96.2779 81.4648 96.0704 81.334 96.0704 81.0734L98.0704 81.0734C98.0704 80.1406 97.2915 79.4648 96.4322 79.4648L96.4322 81.4648Z" fill="white" mask="url(#path-100-inside-15)"/>
<ellipse cx="96.2194" cy="79.6528" rx="0.425498" ry="0.405689" fill="#F40009"/>
<path d="M97.4214 74.6832C97.4214 75.3371 96.8584 75.9073 96.1131 75.9073C95.3677 75.9073 94.8047 75.3371 94.8047 74.6832C94.8047 74.0293 95.3677 73.459 96.1131 73.459C96.8584 73.459 97.4214 74.0293 97.4214 74.6832Z" fill="#F40009" stroke="white"/>
<mask id="path-104-inside-16" fill="white">
<ellipse cx="95.0493" cy="75.9004" rx="0.744622" ry="0.709956"/>
</mask>
<ellipse cx="95.0493" cy="75.9004" rx="0.744622" ry="0.709956" fill="#F40009"/>
<path d="M94.7939 75.9004C94.7939 75.6958 94.9537 75.6103 95.0493 75.6103L95.0493 77.6103C95.9674 77.6103 96.7939 76.8892 96.7939 75.9004L94.7939 75.9004ZM95.0493 75.6103C95.1449 75.6103 95.3047 75.6958 95.3047 75.9004L93.3047 75.9004C93.3047 76.8892 94.1312 77.6103 95.0493 77.6103L95.0493 75.6103ZM95.3047 75.9004C95.3047 76.105 95.1449 76.1904 95.0493 76.1904L95.0493 74.1904C94.1312 74.1904 93.3047 74.9116 93.3047 75.9004L95.3047 75.9004ZM95.0493 76.1904C94.9537 76.1904 94.7939 76.105 94.7939 75.9004L96.7939 75.9004C96.7939 74.9116 95.9674 74.1904 95.0493 74.1904L95.0493 76.1904Z" fill="white" mask="url(#path-104-inside-16)"/>
<defs>
<filter id="filter0_d" x="-20.5781" y="26.9551" width="116.12" height="116.941" filterUnits="userSpaceOnUse" color-interpolation-filters="sRGB">
<feFlood flood-opacity="0" result="BackgroundImageFix"/>
<feColorMatrix in="SourceAlpha" type="matrix" values="0 0 0 0 0 0 0 0 0 0 0 0 0 0 0 0 0 0 127 0"/>
<feOffset/>
<feGaussianBlur stdDeviation="15"/>
<feColorMatrix type="matrix" values="0 0 0 0 0 0 0 0 0 0 0 0 0 0 0 0 0 0 0.35 0"/>
<feBlend mode="normal" in2="BackgroundImageFix" result="effect1_dropShadow"/>
<feBlend mode="normal" in="SourceGraphic" in2="effect1_dropShadow" result="shape"/>
</filter>
<filter id="filter1_d" x="-2.44043" y="11.4453" width="140.111" height="114.1" filterUnits="userSpaceOnUse" color-interpolation-filters="sRGB">
<feFlood flood-opacity="0" result="BackgroundImageFix"/>
<feColorMatrix in="SourceAlpha" type="matrix" values="0 0 0 0 0 0 0 0 0 0 0 0 0 0 0 0 0 0 127 0"/>
<feOffset/>
<feGaussianBlur stdDeviation="15"/>
<feColorMatrix type="matrix" values="0 0 0 0 0 0 0 0 0 0 0 0 0 0 0 0 0 0 0.35 0"/>
<feBlend mode="normal" in2="BackgroundImageFix" result="effect1_dropShadow"/>
<feBlend mode="normal" in="SourceGraphic" in2="effect1_dropShadow" result="shape"/>
</filter>
<filter id="filter2_d" x="11.0859" y="13.7998" width="112.997" height="119.243" filterUnits="userSpaceOnUse" color-interpolation-filters="sRGB">
<feFlood flood-opacity="0" result="BackgroundImageFix"/>
<feColorMatrix in="SourceAlpha" type="matrix" values="0 0 0 0 0 0 0 0 0 0 0 0 0 0 0 0 0 0 127 0"/>
<feOffset/>
<feGaussianBlur stdDeviation="15"/>
<feColorMatrix type="matrix" values="0 0 0 0 0 0 0 0 0 0 0 0 0 0 0 0 0 0 0.35 0"/>
<feBlend mode="normal" in2="BackgroundImageFix" result="effect1_dropShadow"/>
<feBlend mode="normal" in="SourceGraphic" in2="effect1_dropShadow" result="shape"/>
</filter>
<filter id="filter3_d" x="42.9824" y="29.7686" width="84.7276" height="97.4527" filterUnits="userSpaceOnUse" color-interpolation-filters="sRGB">
<feFlood flood-opacity="0" result="BackgroundImageFix"/>
<feColorMatrix in="SourceAlpha" type="matrix" values="0 0 0 0 0 0 0 0 0 0 0 0 0 0 0 0 0 0 127 0"/>
<feOffset/>
<feGaussianBlur stdDeviation="15"/>
<feColorMatrix type="matrix" values="0 0 0 0 0 0 0 0 0 0 0 0 0 0 0 0 0 0 0.35 0"/>
<feBlend mode="normal" in2="BackgroundImageFix" result="effect1_dropShadow"/>
<feBlend mode="normal" in="SourceGraphic" in2="effect1_dropShadow" result="shape"/>
</filter>
<filter id="filter4_d" x="10.9785" y="42.4424" width="110.509" height="97.6385" filterUnits="userSpaceOnUse" color-interpolation-filters="sRGB">
<feFlood flood-opacity="0" result="BackgroundImageFix"/>
<feColorMatrix in="SourceAlpha" type="matrix" values="0 0 0 0 0 0 0 0 0 0 0 0 0 0 0 0 0 0 127 0"/>
<feOffset/>
<feGaussianBlur stdDeviation="15"/>
<feColorMatrix type="matrix" values="0 0 0 0 0 0 0 0 0 0 0 0 0 0 0 0 0 0 0.35 0"/>
<feBlend mode="normal" in2="BackgroundImageFix" result="effect1_dropShadow"/>
<feBlend mode="normal" in="SourceGraphic" in2="effect1_dropShadow" result="shape"/>
</filter>
<filter id="filter5_d" x="22.7344" y="47.9053" width="113.898" height="118.777" filterUnits="userSpaceOnUse" color-interpolation-filters="sRGB">
<feFlood flood-opacity="0" result="BackgroundImageFix"/>
<feColorMatrix in="SourceAlpha" type="matrix" values="0 0 0 0 0 0 0 0 0 0 0 0 0 0 0 0 0 0 127 0"/>
<feOffset/>
<feGaussianBlur stdDeviation="15"/>
<feColorMatrix type="matrix" values="0 0 0 0 0 0 0 0 0 0 0 0 0 0 0 0 0 0 0.35 0"/>
<feBlend mode="normal" in2="BackgroundImageFix" result="effect1_dropShadow"/>
<feBlend mode="normal" in="SourceGraphic" in2="effect1_dropShadow" result="shape"/>
</filter>
<filter id="filter6_d" x="-14.0254" y="57.9922" width="132.281" height="107.068" filterUnits="userSpaceOnUse" color-interpolation-filters="sRGB">
<feFlood flood-opacity="0" result="BackgroundImageFix"/>
<feColorMatrix in="SourceAlpha" type="matrix" values="0 0 0 0 0 0 0 0 0 0 0 0 0 0 0 0 0 0 127 0"/>
<feOffset/>
<feGaussianBlur stdDeviation="15"/>
<feColorMatrix type="matrix" values="0 0 0 0 0 0 0 0 0 0 0 0 0 0 0 0 0 0 0.35 0"/>
<feBlend mode="normal" in2="BackgroundImageFix" result="effect1_dropShadow"/>
<feBlend mode="normal" in="SourceGraphic" in2="effect1_dropShadow" result="shape"/>
</filter>
<filter id="filter7_d" x="-4.81445" y="61.542" width="122.565" height="104.285" filterUnits="userSpaceOnUse" color-interpolation-filters="sRGB">
<feFlood flood-opacity="0" result="BackgroundImageFix"/>
<feColorMatrix in="SourceAlpha" type="matrix" values="0 0 0 0 0 0 0 0 0 0 0 0 0 0 0 0 0 0 127 0"/>
<feOffset/>
<feGaussianBlur stdDeviation="15"/>
<feColorMatrix type="matrix" values="0 0 0 0 0 0 0 0 0 0 0 0 0 0 0 0 0 0 0.35 0"/>
<feBlend mode="normal" in2="BackgroundImageFix" result="effect1_dropShadow"/>
<feBlend mode="normal" in="SourceGraphic" in2="effect1_dropShadow" result="shape"/>
</filter>
<filter id="filter8_d" x="-24.8359" y="46.8984" width="96.6445" height="99.913" filterUnits="userSpaceOnUse" color-interpolation-filters="sRGB">
<feFlood flood-opacity="0" result="BackgroundImageFix"/>
<feColorMatrix in="SourceAlpha" type="matrix" values="0 0 0 0 0 0 0 0 0 0 0 0 0 0 0 0 0 0 127 0"/>
<feOffset/>
<feGaussianBlur stdDeviation="15"/>
<feColorMatrix type="matrix" values="0 0 0 0 0 0 0 0 0 0 0 0 0 0 0 0 0 0 0.35 0"/>
<feBlend mode="normal" in2="BackgroundImageFix" result="effect1_dropShadow"/>
<feBlend mode="normal" in="SourceGraphic" in2="effect1_dropShadow" result="shape"/>
</filter>
<filter id="filter9_d" x="56.1846" y="37.2217" width="92.8695" height="101.945" filterUnits="userSpaceOnUse" color-interpolation-filters="sRGB">
<feFlood flood-opacity="0" result="BackgroundImageFix"/>
<feColorMatrix in="SourceAlpha" type="matrix" values="0 0 0 0 0 0 0 0 0 0 0 0 0 0 0 0 0 0 127 0"/>
<feOffset/>
<feGaussianBlur stdDeviation="15"/>
<feColorMatrix type="matrix" values="0 0 0 0 0 0 0 0 0 0 0 0 0 0 0 0 0 0 0.35 0"/>
<feBlend mode="normal" in2="BackgroundImageFix" result="effect1_dropShadow"/>
<feBlend mode="normal" in="SourceGraphic" in2="effect1_dropShadow" result="shape"/>
</filter>
<filter id="filter10_d" x="24.0625" y="67.0732" width="119.477" height="112.505" filterUnits="userSpaceOnUse" color-interpolation-filters="sRGB">
<feFlood flood-opacity="0" result="BackgroundImageFix"/>
<feColorMatrix in="SourceAlpha" type="matrix" values="0 0 0 0 0 0 0 0 0 0 0 0 0 0 0 0 0 0 127 0"/>
<feOffset/>
<feGaussianBlur stdDeviation="15"/>
<feColorMatrix type="matrix" values="0 0 0 0 0 0 0 0 0 0 0 0 0 0 0 0 0 0 0.35 0"/>
<feBlend mode="normal" in2="BackgroundImageFix" result="effect1_dropShadow"/>
<feBlend mode="normal" in="SourceGraphic" in2="effect1_dropShadow" result="shape"/>
</filter>
<filter id="filter11_d" x="20.3965" y="17.4482" width="75.7413" height="131.144" filterUnits="userSpaceOnUse" color-interpolation-filters="sRGB">
<feFlood flood-opacity="0" result="BackgroundImageFix"/>
<feColorMatrix in="SourceAlpha" type="matrix" values="0 0 0 0 0 0 0 0 0 0 0 0 0 0 0 0 0 0 127 0"/>
<feOffset/>
<feGaussianBlur stdDeviation="10"/>
<feColorMatrix type="matrix" values="0 0 0 0 0 0 0 0 0 0 0 0 0 0 0 0 0 0 0.11 0"/>
<feBlend mode="normal" in2="BackgroundImageFix" result="effect1_dropShadow"/>
<feBlend mode="normal" in="SourceGraphic" in2="effect1_dropShadow" result="shape"/>
</filter>
<filter id="filter12_d" x="20.6543" y="10.4482" width="75.4841" height="130.515" filterUnits="userSpaceOnUse" color-interpolation-filters="sRGB">
<feFlood flood-opacity="0" result="BackgroundImageFix"/>
<feColorMatrix in="SourceAlpha" type="matrix" values="0 0 0 0 0 0 0 0 0 0 0 0 0 0 0 0 0 0 127 0"/>
<feOffset dy="-7"/>
<feGaussianBlur stdDeviation="10"/>
<feColorMatrix type="matrix" values="0 0 0 0 0 0 0 0 0 0 0 0 0 0 0 0 0 0 0.12 0"/>
<feBlend mode="normal" in2="BackgroundImageFix" result="effect1_dropShadow"/>
<feBlend mode="normal" in="SourceGraphic" in2="effect1_dropShadow" result="shape"/>
</filter>
</defs>
</svg>
