<svg width="168" height="168" viewBox="0 0 168 168" fill="none" xmlns="http://www.w3.org/2000/svg">
<g filter="url(#filter0_d)">
<path d="M83.9004 147.408C118.97 147.408 147.4 118.965 147.4 83.8794C147.4 48.7934 118.97 20.3506 83.9004 20.3506C48.8303 20.3506 20.4004 48.7934 20.4004 83.8794C20.4004 118.965 48.8303 147.408 83.9004 147.408Z" fill="#3F3F5B"/>
</g>
<mask id="mask0" mask-type="alpha" maskUnits="userSpaceOnUse" x="20" y="20" width="128" height="128">
<path d="M83.9004 147.408C118.97 147.408 147.4 118.965 147.4 83.8794C147.4 48.7934 118.97 20.3506 83.9004 20.3506C48.8303 20.3506 20.4004 48.7934 20.4004 83.8794C20.4004 118.965 48.8303 147.408 83.9004 147.408Z" fill="#3F3F5B"/>
</mask>
<g mask="url(#mask0)">
<g filter="url(#filter1_d)">
<path d="M43.8926 36.8067C32.204 29.8083 18.1304 42.6449 12.5547 49.938L7.48591 57.375C5.51475 60.2671 4.35145 65.5251 3.16969 72.5858C1.98793 79.6465 8.14847 87.4758 11.2668 94.4419C14.3852 101.408 32.996 112.277 34.9118 114.793C36.8276 117.309 68.0203 131.912 84.092 119.873C100.164 107.834 91.4665 90.4092 73.9082 85.0982C66.7936 82.9461 60.8001 78.5845 54.5265 68.2578C48.2529 57.931 58.5034 45.5546 43.8926 36.8067Z" fill="#F40009"/>
<path d="M43.8926 36.8067C32.204 29.8083 18.1304 42.6449 12.5547 49.938L7.48591 57.375C5.51475 60.2671 4.35145 65.5251 3.16969 72.5858C1.98793 79.6465 8.14847 87.4758 11.2668 94.4419C14.3852 101.408 32.996 112.277 34.9118 114.793C36.8276 117.309 68.0203 131.912 84.092 119.873C100.164 107.834 91.4665 90.4092 73.9082 85.0982C66.7936 82.9461 60.8001 78.5845 54.5265 68.2578C48.2529 57.931 58.5034 45.5546 43.8926 36.8067Z" stroke="#FF3A41" stroke-width="0.5"/>
</g>
<g filter="url(#filter2_d)">
<path d="M140.44 94.9992C157.596 92.2777 160.853 68.2097 160.337 56.5159L159.208 45.0962C158.769 40.6552 155.604 34.5619 150.982 26.6909C146.36 18.8198 133.929 16.2052 125.18 11.9454C116.431 7.68558 89.3386 12.2865 85.4066 11.3941C81.4746 10.5016 39.0239 21.7463 33.1604 46.6699C27.2968 71.5935 50.0592 81.5146 71.5739 72.3402C80.2917 68.6227 89.7212 67.9832 104.306 72.9473C118.891 77.9113 118.995 98.401 140.44 94.9992Z" fill="#F40009"/>
<path d="M140.44 94.9992C157.596 92.2777 160.853 68.2097 160.337 56.5159L159.208 45.0962C158.769 40.6552 155.604 34.5619 150.982 26.6909C146.36 18.8198 133.929 16.2052 125.18 11.9454C116.431 7.68558 89.3386 12.2865 85.4066 11.3941C81.4746 10.5016 39.0239 21.7463 33.1604 46.6699C27.2968 71.5935 50.0592 81.5146 71.5739 72.3402C80.2917 68.6227 89.7212 67.9832 104.306 72.9473C118.891 77.9113 118.995 98.401 140.44 94.9992Z" stroke="#FF3A41" stroke-width="0.5"/>
</g>
<g filter="url(#filter3_d)">
<path d="M54.7386 98.0922C58.6409 109.761 83.1039 107.916 94.8476 105.535L106.274 102.766C110.717 101.69 116.64 98.3997 124.256 93.7721C131.871 89.1445 133.663 79.8986 137.362 72.9735C141.06 66.0485 134.592 47.6732 135.225 44.7373C135.858 41.8014 121.659 13.7049 96.1574 13.8541C70.6562 14.0032 62.2039 31.8192 72.9009 45.4597C77.2354 50.9868 78.5177 57.5483 74.5048 68.7235C70.4918 79.8987 49.8606 83.5057 54.7386 98.0922Z" fill="#F40009"/>
<path d="M54.7386 98.0922C58.6409 109.761 83.1039 107.916 94.8476 105.535L106.274 102.766C110.717 101.69 116.64 98.3997 124.256 93.7721C131.871 89.1445 133.663 79.8986 137.362 72.9735C141.06 66.0485 134.592 47.6732 135.225 44.7373C135.858 41.8014 121.659 13.7049 96.1574 13.8541C70.6562 14.0032 62.2039 31.8192 72.9009 45.4597C77.2354 50.9868 78.5177 57.5483 74.5048 68.7235C70.4918 79.8987 49.8606 83.5057 54.7386 98.0922Z" stroke="#FF3A41" stroke-width="0.5"/>
</g>
<g filter="url(#filter4_d)">
<path d="M105.539 89.0483C106.858 96.9036 117.908 98.2974 123.268 98.0124L128.499 97.4472C130.534 97.2274 133.314 95.7508 136.904 93.5988C140.494 91.4467 141.642 85.7361 143.559 81.7066C145.476 77.677 143.253 65.2736 143.646 63.4669C144.039 61.6603 138.707 42.242 127.254 39.6568C115.802 37.0716 111.347 47.55 115.643 57.3771C117.384 61.3591 117.716 65.6802 115.501 72.3883C113.285 79.0964 103.89 79.2293 105.539 89.0483Z" fill="#F40009"/>
<path d="M105.539 89.0483C106.858 96.9036 117.908 98.2974 123.268 98.0124L128.499 97.4472C130.534 97.2274 133.314 95.7508 136.904 93.5988C140.494 91.4467 141.642 85.7361 143.559 81.7066C145.476 77.677 143.253 65.2736 143.646 63.4669C144.039 61.6603 138.707 42.242 127.254 39.6568C115.802 37.0716 111.347 47.55 115.643 57.3771C117.384 61.3591 117.716 65.6802 115.501 72.3883C113.285 79.0964 103.89 79.2293 105.539 89.0483Z" stroke="#FF3A41" stroke-width="0.5"/>
</g>
<g filter="url(#filter5_d)">
<path d="M58.852 74.8275C49.8648 81.3172 54.9394 95.9625 58.6001 102.474L62.5313 108.653C64.0601 111.055 67.6171 113.614 72.5158 116.766C77.4145 119.918 85.2468 117.828 91.4563 117.735C97.6659 117.642 111.771 107.221 114.267 106.597C116.763 105.973 137.703 87.3466 133.866 71.4636C130.029 55.5806 114.209 56.4843 104.597 67.904C100.702 72.5314 95.5162 75.6106 85.7805 76.9827C76.0449 78.3549 70.0859 66.7155 58.852 74.8275Z" fill="#FC141C"/>
<path d="M58.852 74.8275C49.8648 81.3172 54.9394 95.9625 58.6001 102.474L62.5313 108.653C64.0601 111.055 67.6171 113.614 72.5158 116.766C77.4145 119.918 85.2468 117.828 91.4563 117.735C97.6659 117.642 111.771 107.221 114.267 106.597C116.763 105.973 137.703 87.3466 133.866 71.4636C130.029 55.5806 114.209 56.4843 104.597 67.904C100.702 72.5314 95.5162 75.6106 85.7805 76.9827C76.0449 78.3549 70.0859 66.7155 58.852 74.8275Z" stroke="#FF3A41" stroke-width="0.5"/>
</g>
<g filter="url(#filter6_d)">
<path d="M74.006 124.534C68.418 136.959 82.8077 149.44 90.7011 154.128L98.6782 158.295C101.78 159.916 107.138 160.458 114.289 160.809C121.439 161.159 128.497 154.128 135.052 150.219C141.607 146.31 150.232 126.559 152.507 124.363C154.783 122.167 165.651 89.4843 151.82 74.9257C137.989 60.367 121.697 71.0362 118.469 89.0939C117.161 96.411 113.528 102.872 104.003 110.307C94.4781 117.741 80.991 109.004 74.006 124.534Z" fill="#F40009"/>
<path d="M74.006 124.534C68.418 136.959 82.8077 149.44 90.7011 154.128L98.6782 158.295C101.78 159.916 107.138 160.458 114.289 160.809C121.439 161.159 128.497 154.128 135.052 150.219C141.607 146.31 150.232 126.559 152.507 124.363C154.783 122.167 165.651 89.4843 151.82 74.9257C137.989 60.367 121.697 71.0362 118.469 89.0939C117.161 96.411 113.528 102.872 104.003 110.307C94.4781 117.741 80.991 109.004 74.006 124.534Z" stroke="#FF3A41" stroke-width="0.5"/>
</g>
<g filter="url(#filter7_d)">
<path d="M112.827 84.7637C128.122 88.0524 129.912 109.435 128.895 119.715L127.34 129.722C126.735 133.613 123.601 138.82 119.073 145.517C114.545 152.215 103.245 153.875 95.1776 157.175C87.1098 160.476 62.9699 155.015 59.3926 155.598C55.8152 156.18 18.1812 144.067 14.0887 121.795C9.99627 99.5236 30.9306 91.9601 49.8397 101.163C57.5017 104.891 65.9492 105.944 79.2967 102.326C92.6441 98.7069 93.7073 80.6528 112.827 84.7637Z" fill="#F40009"/>
<path d="M112.827 84.7637C128.122 88.0524 129.912 109.435 128.895 119.715L127.34 129.722C126.735 133.613 123.601 138.82 119.073 145.517C114.545 152.215 103.245 153.875 95.1776 157.175C87.1098 160.476 62.9699 155.015 59.3926 155.598C55.8152 156.18 18.1812 144.067 14.0887 121.795C9.99627 99.5236 30.9306 91.9601 49.8397 101.163C57.5017 104.891 65.9492 105.944 79.2967 102.326C92.6441 98.7069 93.7073 80.6528 112.827 84.7637Z" stroke="#FF3A41" stroke-width="0.5"/>
</g>
<g filter="url(#filter8_d)">
<path d="M46.9004 89.8505C33.3004 90.6505 28.9004 109.184 28.4004 118.351V127.351C28.4004 130.851 30.4004 135.851 33.4004 142.351C36.4004 148.851 45.9004 151.851 52.4004 155.851C58.9004 159.851 80.4004 158.351 83.4004 159.351C86.4004 160.351 120.4 154.851 126.9 135.851C133.4 116.851 116.4 107.351 98.9004 112.851C91.8093 115.079 84.4004 114.851 73.4004 109.851C62.4004 104.851 63.9004 88.8505 46.9004 89.8505Z" fill="#F40009"/>
<path d="M46.9004 89.8505C33.3004 90.6505 28.9004 109.184 28.4004 118.351V127.351C28.4004 130.851 30.4004 135.851 33.4004 142.351C36.4004 148.851 45.9004 151.851 52.4004 155.851C58.9004 159.851 80.4004 158.351 83.4004 159.351C86.4004 160.351 120.4 154.851 126.9 135.851C133.4 116.851 116.4 107.351 98.9004 112.851C91.8093 115.079 84.4004 114.851 73.4004 109.851C62.4004 104.851 63.9004 88.8505 46.9004 89.8505Z" stroke="#FF3A41" stroke-width="0.5"/>
</g>
<g filter="url(#filter9_d)">
<path d="M26.2668 68.4265C18.8865 62.9203 8.54422 70.5879 4.29559 75.11L0.378005 79.7635C-1.14549 81.5732 -2.28779 85.0291 -3.56596 89.6958C-4.84413 94.3625 -1.23792 100.049 0.381821 104.946C2.00157 109.844 13.7713 118.427 14.8871 120.25C16.003 122.073 35.9771 134.029 47.6084 127.034C59.2396 120.039 54.5848 107.727 43.1423 102.954C38.5057 101.019 34.7744 97.6761 31.2631 90.3027C27.7519 82.9293 35.492 75.3093 26.2668 68.4265Z" fill="#FC141C"/>
<path d="M26.2668 68.4265C18.8865 62.9203 8.54422 70.5879 4.29559 75.11L0.378005 79.7635C-1.14549 81.5732 -2.28779 85.0291 -3.56596 89.6958C-4.84413 94.3625 -1.23792 100.049 0.381821 104.946C2.00157 109.844 13.7713 118.427 14.8871 120.25C16.003 122.073 35.9771 134.029 47.6084 127.034C59.2396 120.039 54.5848 107.727 43.1423 102.954C38.5057 101.019 34.7744 97.6761 31.2631 90.3027C27.7519 82.9293 35.492 75.3093 26.2668 68.4265Z" stroke="#FF3A41" stroke-width="0.5"/>
</g>
<g filter="url(#filter10_d)">
<path d="M144.125 113.667C150.182 120.602 161.906 115.281 167.01 111.754L171.819 108.029C173.689 106.58 175.533 103.442 177.764 99.1483C179.995 94.8549 177.666 88.5372 177.113 83.4085C176.559 78.2797 166.858 67.4131 166.151 65.3962C165.443 63.3794 148.431 47.4896 135.589 51.8813C122.746 56.273 124.707 69.2885 134.89 76.3622C139.016 79.2285 141.96 83.2818 143.842 91.2289C145.724 99.1759 136.554 104.997 144.125 113.667Z" fill="#FC141C"/>
<path d="M144.125 113.667C150.182 120.602 161.906 115.281 167.01 111.754L171.819 108.029C173.689 106.58 175.533 103.442 177.764 99.1483C179.995 94.8549 177.666 88.5372 177.113 83.4085C176.559 78.2797 166.858 67.4131 166.151 65.3962C165.443 63.3794 148.431 47.4896 135.589 51.8813C122.746 56.273 124.707 69.2885 134.89 76.3622C139.016 79.2285 141.96 83.2818 143.842 91.2289C145.724 99.1759 136.554 104.997 144.125 113.667Z" stroke="#FF3A41" stroke-width="0.5"/>
</g>
<g filter="url(#filter11_d)">
<path d="M78.5136 133.952C69.4626 144.135 79.4564 160.351 85.5847 167.186L91.9487 173.55C94.4235 176.025 99.3733 178.147 106.091 180.622C112.808 183.096 121.647 178.5 129.072 176.732C136.496 174.965 150.639 158.701 153.467 157.287C156.295 155.873 176.448 127.942 167.609 109.911C158.77 91.8796 140.032 97.1829 131.547 113.446C128.108 120.036 122.708 125.114 111.394 129.356C100.08 133.599 89.8273 121.225 78.5136 133.952Z" fill="#F40009"/>
<path d="M78.5136 133.952C69.4626 144.135 79.4564 160.351 85.5847 167.186L91.9487 173.55C94.4235 176.025 99.3733 178.147 106.091 180.622C112.808 183.096 121.647 178.5 129.072 176.732C136.496 174.965 150.639 158.701 153.467 157.287C156.295 155.873 176.448 127.942 167.609 109.911C158.77 91.8796 140.032 97.1829 131.547 113.446C128.108 120.036 122.708 125.114 111.394 129.356C100.08 133.599 89.8273 121.225 78.5136 133.952Z" stroke="#FF3A41" stroke-width="0.5"/>
</g>
</g>
<defs>
<filter id="filter0_d" x="0.400391" y="0.350586" width="167" height="167.058" filterUnits="userSpaceOnUse" color-interpolation-filters="sRGB">
<feFlood flood-opacity="0" result="BackgroundImageFix"/>
<feColorMatrix in="SourceAlpha" type="matrix" values="0 0 0 0 0 0 0 0 0 0 0 0 0 0 0 0 0 0 127 0"/>
<feOffset/>
<feGaussianBlur stdDeviation="10"/>
<feColorMatrix type="matrix" values="0 0 0 0 0 0 0 0 0 0 0 0 0 0 0 0 0 0 0.11 0"/>
<feBlend mode="normal" in2="BackgroundImageFix" result="effect1_dropShadow"/>
<feBlend mode="normal" in="SourceGraphic" in2="effect1_dropShadow" result="shape"/>
</filter>
<filter id="filter1_d" x="-40.9473" y="-3.99683" width="182.489" height="174.526" filterUnits="userSpaceOnUse" color-interpolation-filters="sRGB">
<feFlood flood-opacity="0" result="BackgroundImageFix"/>
<feColorMatrix in="SourceAlpha" type="matrix" values="0 0 0 0 0 0 0 0 0 0 0 0 0 0 0 0 0 0 127 0"/>
<feOffset/>
<feGaussianBlur stdDeviation="15"/>
<feColorMatrix type="matrix" values="0 0 0 0 0 0 0 0 0 0 0 0 0 0 0 0 0 0 0.35 0"/>
<feBlend mode="normal" in2="BackgroundImageFix" result="effect1_dropShadow"/>
<feBlend mode="normal" in="SourceGraphic" in2="effect1_dropShadow" result="shape"/>
</filter>
<filter id="filter2_d" x="-1.87305" y="-25.9229" width="196.065" height="161.468" filterUnits="userSpaceOnUse" color-interpolation-filters="sRGB">
<feFlood flood-opacity="0" result="BackgroundImageFix"/>
<feColorMatrix in="SourceAlpha" type="matrix" values="0 0 0 0 0 0 0 0 0 0 0 0 0 0 0 0 0 0 127 0"/>
<feOffset/>
<feGaussianBlur stdDeviation="15"/>
<feColorMatrix type="matrix" values="0 0 0 0 0 0 0 0 0 0 0 0 0 0 0 0 0 0 0.35 0"/>
<feBlend mode="normal" in2="BackgroundImageFix" result="effect1_dropShadow"/>
<feBlend mode="normal" in="SourceGraphic" in2="effect1_dropShadow" result="shape"/>
</filter>
<filter id="filter3_d" x="7.09863" y="-24.9512" width="170.245" height="169.567" filterUnits="userSpaceOnUse" color-interpolation-filters="sRGB">
<feFlood flood-opacity="0" result="BackgroundImageFix"/>
<feColorMatrix in="SourceAlpha" type="matrix" values="0 0 0 0 0 0 0 0 0 0 0 0 0 0 0 0 0 0 127 0"/>
<feOffset/>
<feGaussianBlur stdDeviation="15"/>
<feColorMatrix type="matrix" values="0 0 0 0 0 0 0 0 0 0 0 0 0 0 0 0 0 0 0.35 0"/>
<feBlend mode="normal" in2="BackgroundImageFix" result="effect1_dropShadow"/>
<feBlend mode="normal" in="SourceGraphic" in2="effect1_dropShadow" result="shape"/>
</filter>
<filter id="filter4_d" x="70.125" y="7.0752" width="107.316" height="123.005" filterUnits="userSpaceOnUse" color-interpolation-filters="sRGB">
<feFlood flood-opacity="0" result="BackgroundImageFix"/>
<feColorMatrix in="SourceAlpha" type="matrix" values="0 0 0 0 0 0 0 0 0 0 0 0 0 0 0 0 0 0 127 0"/>
<feOffset/>
<feGaussianBlur stdDeviation="15"/>
<feColorMatrix type="matrix" values="0 0 0 0 0 0 0 0 0 0 0 0 0 0 0 0 0 0 0.35 0"/>
<feBlend mode="normal" in2="BackgroundImageFix" result="effect1_dropShadow"/>
<feBlend mode="normal" in="SourceGraphic" in2="effect1_dropShadow" result="shape"/>
</filter>
<filter id="filter5_d" x="15.7871" y="8.88916" width="159.71" height="152.154" filterUnits="userSpaceOnUse" color-interpolation-filters="sRGB">
<feFlood flood-opacity="0" result="BackgroundImageFix"/>
<feColorMatrix in="SourceAlpha" type="matrix" values="0 0 0 0 0 0 0 0 0 0 0 0 0 0 0 0 0 0 127 0"/>
<feOffset/>
<feGaussianBlur stdDeviation="15"/>
<feColorMatrix type="matrix" values="0 0 0 0 0 0 0 0 0 0 0 0 0 0 0 0 0 0 0.35 0"/>
<feBlend mode="normal" in2="BackgroundImageFix" result="effect1_dropShadow"/>
<feBlend mode="normal" in="SourceGraphic" in2="effect1_dropShadow" result="shape"/>
</filter>
<filter id="filter6_d" x="35.0635" y="22.0132" width="168.679" height="181.488" filterUnits="userSpaceOnUse" color-interpolation-filters="sRGB">
<feFlood flood-opacity="0" result="BackgroundImageFix"/>
<feColorMatrix in="SourceAlpha" type="matrix" values="0 0 0 0 0 0 0 0 0 0 0 0 0 0 0 0 0 0 127 0"/>
<feOffset/>
<feGaussianBlur stdDeviation="15"/>
<feColorMatrix type="matrix" values="0 0 0 0 0 0 0 0 0 0 0 0 0 0 0 0 0 0 0.35 0"/>
<feBlend mode="normal" in2="BackgroundImageFix" result="effect1_dropShadow"/>
<feBlend mode="normal" in="SourceGraphic" in2="effect1_dropShadow" result="shape"/>
</filter>
<filter id="filter7_d" x="-21.8857" y="40.0652" width="186" height="155.646" filterUnits="userSpaceOnUse" color-interpolation-filters="sRGB">
<feFlood flood-opacity="0" result="BackgroundImageFix"/>
<feColorMatrix in="SourceAlpha" type="matrix" values="0 0 0 0 0 0 0 0 0 0 0 0 0 0 0 0 0 0 127 0"/>
<feOffset/>
<feGaussianBlur stdDeviation="15"/>
<feColorMatrix type="matrix" values="0 0 0 0 0 0 0 0 0 0 0 0 0 0 0 0 0 0 0.35 0"/>
<feBlend mode="normal" in2="BackgroundImageFix" result="effect1_dropShadow"/>
<feBlend mode="normal" in="SourceGraphic" in2="effect1_dropShadow" result="shape"/>
</filter>
<filter id="filter8_d" x="-1.84961" y="59.5557" width="160.416" height="130.157" filterUnits="userSpaceOnUse" color-interpolation-filters="sRGB">
<feFlood flood-opacity="0" result="BackgroundImageFix"/>
<feColorMatrix in="SourceAlpha" type="matrix" values="0 0 0 0 0 0 0 0 0 0 0 0 0 0 0 0 0 0 127 0"/>
<feOffset/>
<feGaussianBlur stdDeviation="15"/>
<feColorMatrix type="matrix" values="0 0 0 0 0 0 0 0 0 0 0 0 0 0 0 0 0 0 0.35 0"/>
<feBlend mode="normal" in2="BackgroundImageFix" result="effect1_dropShadow"/>
<feBlend mode="normal" in="SourceGraphic" in2="effect1_dropShadow" result="shape"/>
</filter>
<filter id="filter9_d" x="-43.9521" y="29.9983" width="142.688" height="140.213" filterUnits="userSpaceOnUse" color-interpolation-filters="sRGB">
<feFlood flood-opacity="0" result="BackgroundImageFix"/>
<feColorMatrix in="SourceAlpha" type="matrix" values="0 0 0 0 0 0 0 0 0 0 0 0 0 0 0 0 0 0 127 0"/>
<feOffset/>
<feGaussianBlur stdDeviation="15"/>
<feColorMatrix type="matrix" values="0 0 0 0 0 0 0 0 0 0 0 0 0 0 0 0 0 0 0.35 0"/>
<feBlend mode="normal" in2="BackgroundImageFix" result="effect1_dropShadow"/>
<feBlend mode="normal" in="SourceGraphic" in2="effect1_dropShadow" result="shape"/>
</filter>
<filter id="filter10_d" x="80.0498" y="10.9998" width="139.278" height="142.921" filterUnits="userSpaceOnUse" color-interpolation-filters="sRGB">
<feFlood flood-opacity="0" result="BackgroundImageFix"/>
<feColorMatrix in="SourceAlpha" type="matrix" values="0 0 0 0 0 0 0 0 0 0 0 0 0 0 0 0 0 0 127 0"/>
<feOffset/>
<feGaussianBlur stdDeviation="15"/>
<feColorMatrix type="matrix" values="0 0 0 0 0 0 0 0 0 0 0 0 0 0 0 0 0 0 0.35 0"/>
<feBlend mode="normal" in2="BackgroundImageFix" result="effect1_dropShadow"/>
<feBlend mode="normal" in="SourceGraphic" in2="effect1_dropShadow" result="shape"/>
</filter>
<filter id="filter11_d" x="35.0469" y="45.9971" width="180.614" height="180.614" filterUnits="userSpaceOnUse" color-interpolation-filters="sRGB">
<feFlood flood-opacity="0" result="BackgroundImageFix"/>
<feColorMatrix in="SourceAlpha" type="matrix" values="0 0 0 0 0 0 0 0 0 0 0 0 0 0 0 0 0 0 127 0"/>
<feOffset/>
<feGaussianBlur stdDeviation="15"/>
<feColorMatrix type="matrix" values="0 0 0 0 0 0 0 0 0 0 0 0 0 0 0 0 0 0 0.35 0"/>
<feBlend mode="normal" in2="BackgroundImageFix" result="effect1_dropShadow"/>
<feBlend mode="normal" in="SourceGraphic" in2="effect1_dropShadow" result="shape"/>
</filter>
</defs>
</svg>
