<svg width="16" height="11" viewBox="0 0 16 11" fill="none" xmlns="http://www.w3.org/2000/svg">
<path fill-rule="evenodd" clip-rule="evenodd" d="M6.70703 10L15 1.70703L14.293 1L6 9.29297L1.70703 5L1 5.70703L5.29297 10L6 10.707L6.70703 10Z" fill="#F40009"/>
<path d="M15 1.70703L15.0884 1.79542L15.1768 1.70703L15.0884 1.61864L15 1.70703ZM14.293 1L14.3814 0.911612L14.293 0.823223L14.2046 0.911612L14.293 1ZM6 9.29297L5.91161 9.38136L6 9.46975L6.08839 9.38136L6 9.29297ZM1.70703 5L1.79542 4.91161L1.70703 4.82322L1.61864 4.91161L1.70703 5ZM1 5.70703L0.911612 5.61864L0.823223 5.70703L0.911612 5.79542L1 5.70703ZM6 10.707L5.91161 10.7954L6 10.8838L6.08839 10.7954L6 10.707ZM14.9116 1.61864L6.61864 9.91161L6.79542 10.0884L15.0884 1.79542L14.9116 1.61864ZM14.2046 1.08839L14.9116 1.79542L15.0884 1.61864L14.3814 0.911612L14.2046 1.08839ZM6.08839 9.38136L14.3814 1.08839L14.2046 0.911612L5.91161 9.20458L6.08839 9.38136ZM1.61864 5.08839L5.91161 9.38136L6.08839 9.20458L1.79542 4.91161L1.61864 5.08839ZM1.08839 5.79542L1.79542 5.08839L1.61864 4.91161L0.911612 5.61864L1.08839 5.79542ZM5.38136 9.91161L1.08839 5.61864L0.911612 5.79542L5.20458 10.0884L5.38136 9.91161ZM6.08839 10.6186L5.38136 9.91161L5.20458 10.0884L5.91161 10.7954L6.08839 10.6186ZM6.61864 9.91161L5.91161 10.6186L6.08839 10.7954L6.79542 10.0884L6.61864 9.91161Z" fill="white"/>
</svg>
