<svg width="26" height="26" viewBox="0 0 26 26" fill="none" xmlns="http://www.w3.org/2000/svg">
<path d="M15.621 17.283C16.0264 16.8794 16.0264 16.8794 16.5131 16.395C16.9647 15.9458 17.3199 15.5929 17.5464 15.3685C18.6747 14.2503 20.182 14.2502 21.3125 15.3701C22.3632 16.4111 23.4276 17.4747 24.5106 18.5655C25.6544 19.7179 25.6471 21.2258 24.4988 22.3845C24.2715 22.6138 23.8992 22.8866 23.3931 23.2123C23.2802 23.285 23.1616 23.3596 23.0378 23.4359C22.7046 23.6415 22.3491 23.8503 21.9937 24.0522C21.7805 24.1733 21.6141 24.2655 21.5321 24.3098C20.232 25.0596 18.1199 25.222 16.7653 24.6987C16.6293 24.6573 16.3861 24.5747 16.0511 24.4474C15.4995 24.2379 14.8866 23.9767 14.2277 23.6602C12.3483 22.7576 10.4696 21.5913 8.71416 20.1311C8.00921 19.5448 7.33718 18.9207 6.70287 18.2577C6.19111 17.7228 5.7047 17.1655 5.24299 16.5882C3.72282 14.6871 2.52915 12.6527 1.62398 10.6176C1.30667 9.9042 1.04779 9.24073 0.842764 8.64365C0.718292 8.28117 0.638691 8.0183 0.616652 7.9262C0.106788 6.52245 0.395812 4.40944 1.24581 3.166C1.29892 3.0838 1.39203 2.94281 1.51458 2.76234C1.71879 2.46165 1.93105 2.16076 2.14133 1.87847C2.23256 1.756 2.32169 1.63941 2.40831 1.52952C2.6305 1.24766 2.83219 1.01468 3.01326 0.836567C4.14348 -0.274734 5.64809 -0.273183 6.78037 0.838438C7.2419 1.29126 9.23556 3.28587 9.95677 4.01313C11.1239 5.19097 11.1266 6.67977 9.9609 7.85095C9.78606 8.02668 9.40621 8.40721 8.88223 8.93166C8.43722 9.37704 8.43722 9.37704 8.06744 9.74701C7.87663 9.93788 7.8089 10.0056 7.76501 10.0496C7.83921 10.238 7.96225 10.5292 8.12996 10.8917C8.45457 11.5933 8.82656 12.2946 9.23806 12.9456C9.68648 13.655 10.1543 14.2594 10.6321 14.7251C11.0733 15.1552 11.5995 15.5714 12.1929 15.9697C12.8854 16.4345 13.6311 16.8504 14.377 17.2101C14.7635 17.3965 15.0737 17.5321 15.2849 17.6177C15.3329 17.5698 15.405 17.498 15.621 17.283ZM7.73331 9.96752C7.73425 9.97002 7.73521 9.97256 7.73618 9.97512C7.73542 9.97281 7.73439 9.97019 7.73331 9.96752ZM23.5767 19.4922C22.4963 18.404 21.4345 17.3429 20.3864 16.3045C19.7688 15.6928 19.0882 15.6928 18.4726 16.3028C18.2469 16.5265 17.8922 16.8789 17.4439 17.3249C16.9547 17.8116 16.9547 17.8116 16.5495 18.215C16.2254 18.5378 16.2254 18.5378 16.1444 18.6185C15.8222 18.9395 15.2838 19.0424 14.8829 18.8734C14.6616 18.7876 14.2855 18.6265 13.8054 18.395C13.0071 18.01 12.2084 17.5645 11.4595 17.0619C10.8039 16.6218 10.2162 16.1571 9.71352 15.667C9.1539 15.1215 8.62516 14.4384 8.12577 13.6484C7.68081 12.9445 7.28276 12.194 6.93573 11.444C6.72714 10.9931 6.58088 10.64 6.50741 10.4452C6.34049 10.0299 6.4532 9.50088 6.76703 9.18694C6.84095 9.113 6.84095 9.113 7.13672 8.81712C7.50642 8.44723 7.50642 8.44723 7.95005 8.00324C8.47454 7.47827 8.8541 7.09804 9.02812 6.92313C9.68268 6.26547 9.6815 5.60449 9.02221 4.93916C8.30517 4.2161 6.31482 2.22481 5.85862 1.77721C5.23773 1.16764 4.55378 1.16694 3.93599 1.77439C3.80091 1.90726 3.63261 2.10166 3.44173 2.34381C3.36288 2.44383 3.28098 2.55097 3.19661 2.66422C2.999 2.92951 2.79739 3.21531 2.60317 3.5013C2.48667 3.67284 2.39898 3.80563 2.34162 3.894C1.71841 4.80596 1.48992 6.4764 1.87062 7.53184C1.90219 7.64994 1.97298 7.8837 2.08726 8.21649C2.28014 8.7782 2.52508 9.40595 2.82626 10.0831C3.6882 12.021 4.82563 13.9596 6.27071 15.7667C6.70846 16.3141 7.16928 16.8421 7.65371 17.3484C8.25284 17.9746 8.88835 18.5648 9.55568 19.1199C11.2224 20.5061 13.0103 21.6161 14.7974 22.4745C15.4218 22.7743 16.0006 23.021 16.5184 23.2177C16.825 23.3341 17.0402 23.4072 17.1933 23.4556C18.2224 23.8518 19.9191 23.7214 20.8891 23.1622C20.9788 23.1134 21.1382 23.0251 21.3437 22.9084C21.6864 22.7138 22.0288 22.5126 22.347 22.3163C22.4638 22.2443 22.5753 22.1741 22.6808 22.1062C23.11 21.8299 23.424 21.6 23.5641 21.4586C24.2062 20.8108 24.2094 20.1297 23.5767 19.4922Z" fill="#F40009"/>
</svg>
