<svg width="26" height="20" viewBox="0 0 26 20" fill="none" xmlns="http://www.w3.org/2000/svg">
<path d="M21.3674 19.0039H4.36112C3.2975 18.9935 2.28095 18.5593 1.5325 17.7959C0.78405 17.0324 0.364208 16.0013 0.364258 14.9268V4.08099C0.364208 3.0065 0.78405 1.97544 1.5325 1.21196C2.28095 0.448488 3.2975 0.0143382 4.36112 0.00390625H21.3674C22.431 0.0143382 23.4476 0.448488 24.196 1.21196C24.9445 1.97544 25.3643 3.0065 25.3643 4.08099V14.9268C25.3643 16.0013 24.9445 17.0324 24.196 17.7959C23.4476 18.5593 22.431 18.9935 21.3674 19.0039ZM4.36112 1.19141C3.60247 1.19141 2.87489 1.49584 2.33844 2.03775C1.80199 2.57965 1.50062 3.31462 1.50062 4.08099V14.9268C1.50062 15.6932 1.80199 16.4282 2.33844 16.9701C2.87489 17.512 3.60247 17.8164 4.36112 17.8164H21.3674C22.126 17.8164 22.8536 17.512 23.3901 16.9701C23.9265 16.4282 24.2279 15.6932 24.2279 14.9268V4.08099C24.2279 3.31462 23.9265 2.57965 23.3901 2.03775C22.8536 1.49584 22.126 1.19141 21.3674 1.19141H4.36112Z" fill="#F40009"/>
<path d="M3.42081 4.15964L12.4334 13.0263C12.9819 13.5805 13.844 12.7096 13.2954 12.1555L4.28288 3.28881C3.73429 2.73464 2.87222 3.60548 3.42081 4.15964Z" fill="#F40009"/>
<path d="M13.2956 13.0263L22.3081 4.15964C22.8567 3.60548 21.9946 2.73464 21.446 3.28881L12.4335 12.1555C11.8849 12.7096 12.747 13.5805 13.2956 13.0263Z" fill="#F40009"/>
<path d="M22.2684 15.1246L16.2731 9.34545C15.7245 8.79128 14.8625 9.66212 15.411 10.2163L21.4063 15.9955C21.9549 16.5496 22.817 15.6788 22.2684 15.1246Z" fill="#F40009"/>
<path d="M4.36136 15.9955L10.3567 10.2163C10.9444 9.66212 10.0824 8.79128 9.49459 9.34545L3.49929 15.1246C2.91152 15.6788 3.77358 16.5496 4.36136 15.9955Z" fill="#F40009"/>
</svg>
