<svg width="16" height="13" viewBox="0 0 16 13" fill="none" xmlns="http://www.w3.org/2000/svg">
<path d="M15.2627 8.92578C15.0518 8.92578 14.8808 9.09442 14.8808 9.30235V10.7412C14.8808 11.5718 14.1956 12.2475 13.3534 12.2475H2.93563C2.09344 12.2475 1.40824 11.5718 1.40824 10.7412V9.30235C1.40824 9.09442 1.23729 8.92578 1.02639 8.92578C0.815479 8.92578 0.644531 9.09439 0.644531 9.30235V10.7412C0.644531 11.9871 1.67232 13.0006 2.93563 13.0006H13.3534C14.6167 13.0006 15.6445 11.9871 15.6445 10.7412V9.30235C15.6445 9.09439 15.4736 8.92578 15.2627 8.92578Z" fill="#B7BEC5"/>
<path d="M12.9443 10.4092H3.34475C3.1339 10.4092 2.96289 10.5778 2.96289 10.7857C2.96289 10.9937 3.13384 11.1623 3.34475 11.1623H12.9443C13.1552 11.1623 13.3262 10.9937 13.3262 10.7857C13.3262 10.5778 13.1552 10.4092 12.9443 10.4092Z" fill="#B7BEC5"/>
<path d="M12.0094 5.1113C11.8689 4.95624 11.6275 4.94274 11.4702 5.08131L8.52638 7.67472V0.376566C8.52638 0.168637 8.35543 0 8.14452 0C7.93367 0 7.76267 0.16858 7.76267 0.376566V7.67472L4.81886 5.08134C4.66162 4.94277 4.42021 4.9563 4.27968 5.11132C4.13923 5.26644 4.15279 5.5045 4.31006 5.64304L7.50852 8.4607C7.68977 8.62044 7.91709 8.70026 8.14449 8.70026C8.37181 8.70026 8.59915 8.62044 8.78047 8.46078L11.9789 5.64304C12.1362 5.50442 12.1498 5.26635 12.0094 5.1113Z" fill="#B7BEC5"/>
</svg>
