<svg width="168" height="194" viewBox="0 0 168 194" fill="none" xmlns="http://www.w3.org/2000/svg">
<ellipse cx="102.474" cy="24.6165" rx="1.59084" ry="1.5184" transform="rotate(0.15235 102.474 24.6165)" fill="#F40009"/>
<ellipse cx="101.879" cy="9.12729" rx="4.77252" ry="4.55521" transform="rotate(0.15235 101.879 9.12729)" fill="#F40009"/>
<ellipse cx="97.2604" cy="10.7852" rx="1.74992" ry="1.67024" transform="rotate(0.15235 97.2604 10.7852)" fill="#F40009"/>
<ellipse cx="102.215" cy="1.83983" rx="1.90901" ry="1.82208" transform="rotate(0.15235 102.215 1.83983)" fill="#F40009"/>
<ellipse cx="104.089" cy="15.5103" rx="1.59084" ry="1.5184" transform="rotate(0.15235 104.089 15.5103)" fill="#F40009"/>
<ellipse cx="100.237" cy="28.2548" rx="0.954503" ry="0.911042" transform="rotate(0.15235 100.237 28.2548)" fill="#F40009"/>
<ellipse cx="99.924" cy="26.1281" rx="0.636335" ry="0.607362" transform="rotate(0.15235 99.924 26.1281)" fill="#F40009"/>
<ellipse cx="99.785" cy="18.6877" rx="2.70443" ry="2.58129" transform="rotate(0.15235 99.785 18.6877)" fill="#F40009"/>
<ellipse cx="98.1894" cy="20.5053" rx="1.11359" ry="1.06288" transform="rotate(0.15235 98.1894 20.5053)" fill="#F40009"/>
<mask id="mask0" mask-type="alpha" maskUnits="userSpaceOnUse" x="20" y="46" width="128" height="128">
<path d="M83.9004 173.408C118.97 173.408 147.4 144.965 147.4 109.879C147.4 74.7933 118.97 46.3505 83.9004 46.3505C48.8303 46.3505 20.4004 74.7933 20.4004 109.879C20.4004 144.965 48.8303 173.408 83.9004 173.408Z" fill="#3F3F5B"/>
</mask>
<g mask="url(#mask0)">
<g filter="url(#filter0_d)">
<path d="M43.8924 62.8066C32.2038 55.8082 18.1302 68.6448 12.5544 75.9379L7.48567 83.3748C5.5145 86.267 4.3512 91.525 3.16945 98.5857C1.98769 105.646 8.14822 113.476 11.2666 120.442C14.3849 127.408 32.9958 138.277 34.9116 140.793C36.8273 143.309 68.02 157.912 84.0918 145.873C100.164 133.833 91.4663 116.409 73.908 111.098C66.7933 108.946 60.7999 104.584 54.5263 94.2576C48.2526 83.9309 58.5032 71.5545 43.8924 62.8066Z" fill="#F40009"/>
<path d="M43.8924 62.8066C32.2038 55.8082 18.1302 68.6448 12.5544 75.9379L7.48567 83.3748C5.5145 86.267 4.3512 91.525 3.16945 98.5857C1.98769 105.646 8.14822 113.476 11.2666 120.442C14.3849 127.408 32.9958 138.277 34.9116 140.793C36.8273 143.309 68.02 157.912 84.0918 145.873C100.164 133.833 91.4663 116.409 73.908 111.098C66.7933 108.946 60.7999 104.584 54.5263 94.2576C48.2526 83.9309 58.5032 71.5545 43.8924 62.8066Z" stroke="#FF3A41" stroke-width="0.5"/>
</g>
<g filter="url(#filter1_d)">
<path d="M140.44 120.999C157.596 118.278 160.853 94.2096 160.337 82.5158L159.208 71.0961C158.769 66.6551 155.604 60.5619 150.982 52.6908C146.36 44.8197 133.929 42.2051 125.18 37.9453C116.431 33.6855 89.3386 38.2864 85.4066 37.394C81.4746 36.5016 39.0239 47.7462 33.1604 72.6698C27.2968 97.5935 50.0592 107.514 71.5739 98.3401C80.2917 94.6226 89.7212 93.9831 104.306 98.9472C118.891 103.911 118.995 124.401 140.44 120.999Z" fill="#F40009"/>
<path d="M140.44 120.999C157.596 118.278 160.853 94.2096 160.337 82.5158L159.208 71.0961C158.769 66.6551 155.604 60.5619 150.982 52.6908C146.36 44.8197 133.929 42.2051 125.18 37.9453C116.431 33.6855 89.3386 38.2864 85.4066 37.394C81.4746 36.5016 39.0239 47.7462 33.1604 72.6698C27.2968 97.5935 50.0592 107.514 71.5739 98.3401C80.2917 94.6226 89.7212 93.9831 104.306 98.9472C118.891 103.911 118.995 124.401 140.44 120.999Z" stroke="#FF3A41" stroke-width="0.5"/>
</g>
<g filter="url(#filter2_d)">
<path d="M54.7386 124.092C58.6409 135.761 83.1039 133.916 94.8476 131.534L106.274 128.766C110.717 127.69 116.64 124.4 124.256 119.772C131.871 115.144 133.663 105.899 137.362 98.9735C141.06 92.0484 134.592 73.6731 135.225 70.7372C135.858 67.8013 121.659 39.7048 96.1574 39.854C70.6562 40.0031 62.2039 57.8191 72.9009 71.4596C77.2354 76.9868 78.5177 83.5482 74.5048 94.7234C70.4918 105.899 49.8606 109.506 54.7386 124.092Z" fill="#F40009"/>
<path d="M54.7386 124.092C58.6409 135.761 83.1039 133.916 94.8476 131.534L106.274 128.766C110.717 127.69 116.64 124.4 124.256 119.772C131.871 115.144 133.663 105.899 137.362 98.9735C141.06 92.0484 134.592 73.6731 135.225 70.7372C135.858 67.8013 121.659 39.7048 96.1574 39.854C70.6562 40.0031 62.2039 57.8191 72.9009 71.4596C77.2354 76.9868 78.5177 83.5482 74.5048 94.7234C70.4918 105.899 49.8606 109.506 54.7386 124.092Z" stroke="#FF3A41" stroke-width="0.5"/>
</g>
<g filter="url(#filter3_d)">
<path d="M105.539 115.048C106.858 122.903 117.908 124.297 123.268 124.012L128.499 123.447C130.534 123.227 133.315 121.751 136.905 119.599C140.495 117.447 141.642 111.736 143.559 107.706C145.476 103.677 143.254 91.2734 143.647 89.4668C144.04 87.6601 138.707 68.2418 127.255 65.6566C115.802 63.0714 111.347 73.5499 115.643 83.377C117.384 87.359 117.717 91.68 115.501 98.3882C113.285 105.096 103.891 105.229 105.539 115.048Z" fill="#F40009"/>
<path d="M105.539 115.048C106.858 122.903 117.908 124.297 123.268 124.012L128.499 123.447C130.534 123.227 133.315 121.751 136.905 119.599C140.495 117.447 141.642 111.736 143.559 107.706C145.476 103.677 143.254 91.2734 143.647 89.4668C144.04 87.6601 138.707 68.2418 127.255 65.6566C115.802 63.0714 111.347 73.5499 115.643 83.377C117.384 87.359 117.717 91.68 115.501 98.3882C113.285 105.096 103.891 105.229 105.539 115.048Z" stroke="#FF3A41" stroke-width="0.5"/>
</g>
<g filter="url(#filter4_d)">
<path d="M58.8524 100.827C49.8653 107.317 54.9399 121.962 58.6006 128.474L62.5318 134.653C64.0606 137.055 67.6176 139.614 72.5163 142.766C77.415 145.918 85.2473 143.828 91.4568 143.735C97.6663 143.642 111.771 133.221 114.268 132.597C116.764 131.973 137.703 113.346 133.866 97.4635C130.029 81.5806 114.209 82.4842 104.598 93.9039C100.703 98.5313 95.5166 101.61 85.781 102.983C76.0454 104.355 70.0864 92.7154 58.8524 100.827Z" fill="#FC141C"/>
<path d="M58.8524 100.827C49.8653 107.317 54.9399 121.962 58.6006 128.474L62.5318 134.653C64.0606 137.055 67.6176 139.614 72.5163 142.766C77.415 145.918 85.2473 143.828 91.4568 143.735C97.6663 143.642 111.771 133.221 114.268 132.597C116.764 131.973 137.703 113.346 133.866 97.4635C130.029 81.5806 114.209 82.4842 104.598 93.9039C100.703 98.5313 95.5166 101.61 85.781 102.983C76.0454 104.355 70.0864 92.7154 58.8524 100.827Z" stroke="#FF3A41" stroke-width="0.5"/>
</g>
<g filter="url(#filter5_d)">
<path d="M74.006 150.534C68.418 162.959 82.8077 175.44 90.7011 180.128L98.6782 184.295C101.78 185.916 107.138 186.458 114.289 186.809C121.439 187.159 128.497 180.128 135.052 176.219C141.607 172.31 150.232 152.559 152.507 150.363C154.783 148.167 165.651 115.484 151.82 100.926C137.989 86.367 121.697 97.0362 118.469 115.094C117.161 122.411 113.528 128.872 104.003 136.307C94.4781 143.741 80.991 135.004 74.006 150.534Z" fill="#F40009"/>
<path d="M74.006 150.534C68.418 162.959 82.8077 175.44 90.7011 180.128L98.6782 184.295C101.78 185.916 107.138 186.458 114.289 186.809C121.439 187.159 128.497 180.128 135.052 176.219C141.607 172.31 150.232 152.559 152.507 150.363C154.783 148.167 165.651 115.484 151.82 100.926C137.989 86.367 121.697 97.0362 118.469 115.094C117.161 122.411 113.528 128.872 104.003 136.307C94.4781 143.741 80.991 135.004 74.006 150.534Z" stroke="#FF3A41" stroke-width="0.5"/>
</g>
<g filter="url(#filter6_d)">
<path d="M112.827 110.764C128.123 114.052 129.913 135.435 128.896 145.715L127.34 155.722C126.735 159.613 123.601 164.819 119.073 171.517C114.545 178.215 103.246 179.874 95.1778 183.175C87.11 186.476 62.9702 181.015 59.3928 181.598C55.8154 182.18 18.1815 170.067 14.089 147.795C9.99651 125.523 30.9308 117.96 49.8399 127.162C57.5019 130.891 65.9494 131.944 79.2969 128.325C92.6444 124.707 93.7076 106.653 112.827 110.764Z" fill="#F40009"/>
<path d="M112.827 110.764C128.123 114.052 129.913 135.435 128.896 145.715L127.34 155.722C126.735 159.613 123.601 164.819 119.073 171.517C114.545 178.215 103.246 179.874 95.1778 183.175C87.11 186.476 62.9702 181.015 59.3928 181.598C55.8154 182.18 18.1815 170.067 14.089 147.795C9.99651 125.523 30.9308 117.96 49.8399 127.162C57.5019 130.891 65.9494 131.944 79.2969 128.325C92.6444 124.707 93.7076 106.653 112.827 110.764Z" stroke="#FF3A41" stroke-width="0.5"/>
</g>
<g filter="url(#filter7_d)">
<path d="M46.9004 115.85C33.3004 116.65 28.9004 135.184 28.4004 144.35V153.35C28.4004 156.85 30.4004 161.85 33.4004 168.35C36.4004 174.85 45.9004 177.85 52.4004 181.85C58.9004 185.85 80.4004 184.35 83.4004 185.35C86.4004 186.35 120.4 180.85 126.9 161.85C133.4 142.85 116.4 133.35 98.9004 138.85C91.8093 141.079 84.4004 140.85 73.4004 135.85C62.4004 130.85 63.9004 114.85 46.9004 115.85Z" fill="#F40009"/>
<path d="M46.9004 115.85C33.3004 116.65 28.9004 135.184 28.4004 144.35V153.35C28.4004 156.85 30.4004 161.85 33.4004 168.35C36.4004 174.85 45.9004 177.85 52.4004 181.85C58.9004 185.85 80.4004 184.35 83.4004 185.35C86.4004 186.35 120.4 180.85 126.9 161.85C133.4 142.85 116.4 133.35 98.9004 138.85C91.8093 141.079 84.4004 140.85 73.4004 135.85C62.4004 130.85 63.9004 114.85 46.9004 115.85Z" stroke="#FF3A41" stroke-width="0.5"/>
</g>
<g filter="url(#filter8_d)">
<path d="M26.2673 94.4264C18.887 88.9202 8.54471 96.5878 4.29608 101.11L0.378493 105.763C-1.145 107.573 -2.2873 111.029 -3.56547 115.696C-4.84364 120.362 -1.23743 126.049 0.38231 130.946C2.00206 135.844 13.7717 144.427 14.8876 146.25C16.0035 148.073 35.9776 160.029 47.6089 153.034C59.2401 146.039 54.5853 133.727 43.1427 128.954C38.5062 127.019 34.7749 123.676 31.2636 116.303C27.7524 108.929 35.4925 101.309 26.2673 94.4264Z" fill="#FC141C"/>
<path d="M26.2673 94.4264C18.887 88.9202 8.54471 96.5878 4.29608 101.11L0.378493 105.763C-1.145 107.573 -2.2873 111.029 -3.56547 115.696C-4.84364 120.362 -1.23743 126.049 0.38231 130.946C2.00206 135.844 13.7717 144.427 14.8876 146.25C16.0035 148.073 35.9776 160.029 47.6089 153.034C59.2401 146.039 54.5853 133.727 43.1427 128.954C38.5062 127.019 34.7749 123.676 31.2636 116.303C27.7524 108.929 35.4925 101.309 26.2673 94.4264Z" stroke="#FF3A41" stroke-width="0.5"/>
</g>
<g filter="url(#filter9_d)">
<path d="M144.125 139.666C150.182 146.602 161.906 141.281 167.01 137.754L171.819 134.029C173.689 132.58 175.533 129.442 177.764 125.148C179.995 120.855 177.666 114.537 177.113 109.408C176.559 104.28 166.858 93.4129 166.151 91.3961C165.443 89.3793 148.431 73.4895 135.589 77.8812C122.746 82.2729 124.707 95.2884 134.89 102.362C139.016 105.228 141.96 109.282 143.842 117.229C145.724 125.176 136.554 130.997 144.125 139.666Z" fill="#FC141C"/>
<path d="M144.125 139.666C150.182 146.602 161.906 141.281 167.01 137.754L171.819 134.029C173.689 132.58 175.533 129.442 177.764 125.148C179.995 120.855 177.666 114.537 177.113 109.408C176.559 104.28 166.858 93.4129 166.151 91.3961C165.443 89.3793 148.431 73.4895 135.589 77.8812C122.746 82.2729 124.707 95.2884 134.89 102.362C139.016 105.228 141.96 109.282 143.842 117.229C145.724 125.176 136.554 130.997 144.125 139.666Z" stroke="#FF3A41" stroke-width="0.5"/>
</g>
<g filter="url(#filter10_d)">
<path d="M78.5136 159.952C69.4626 170.135 79.4564 186.351 85.5847 193.186L91.9487 199.55C94.4235 202.025 99.3733 204.146 106.091 206.621C112.808 209.096 121.647 204.5 129.072 202.732C136.496 200.965 150.639 184.701 153.467 183.287C156.295 181.873 176.448 153.942 167.609 135.911C158.77 117.879 140.032 123.183 131.547 139.446C128.108 146.036 122.708 151.113 111.394 155.356C100.08 159.599 89.8273 147.224 78.5136 159.952Z" fill="#F40009"/>
<path d="M78.5136 159.952C69.4626 170.135 79.4564 186.351 85.5847 193.186L91.9487 199.55C94.4235 202.025 99.3733 204.146 106.091 206.621C112.808 209.096 121.647 204.5 129.072 202.732C136.496 200.965 150.639 184.701 153.467 183.287C156.295 181.873 176.448 153.942 167.609 135.911C158.77 117.879 140.032 123.183 131.547 139.446C128.108 146.036 122.708 151.113 111.394 155.356C100.08 159.599 89.8273 147.224 78.5136 159.952Z" stroke="#FF3A41" stroke-width="0.5"/>
</g>
<g filter="url(#filter11_d)">
<path fill-rule="evenodd" clip-rule="evenodd" d="M105.536 31.4457C102.021 30.8362 98.5063 30.2267 94.9915 29.6172C89.6491 28.6795 88.6649 30.3674 87.962 32.2897C87.3528 34.3057 87.5402 35.4778 88.6649 35.9467C86.4155 38.5253 85.2908 41.2447 87.1653 44.3859C85.2908 73.3607 58.3443 84.4255 60.2657 131.357C60.5937 142.985 58.8129 152.83 55.2513 161.082C54.2671 162.911 53.283 164.739 52.4863 166.568C61.531 171.537 71.8878 174.35 82.9007 174.35C87.8214 174.35 92.6015 173.741 97.2409 172.663C97.2409 172.71 97.2409 172.756 97.2409 172.803C96.1631 163.192 96.7723 153.346 101.271 142.938C106.145 129.763 108.582 116.026 108.957 101.773C109.144 93.193 108.301 88.9264 106.989 80.7685C105.864 73.8296 105.301 66.7968 105.348 59.7173C105.395 55.0757 105.77 52.3095 106.707 47.8085C109.144 45.6518 109.519 42.7919 108.207 39.3224C108.769 39.3224 109.379 39.3224 109.66 38.5253C111.019 34.0244 108.348 32.1021 105.536 31.4457Z" fill="white"/>
</g>
</g>
<g filter="url(#filter12_d)">
<path d="M100.807 142.752C96.3408 153.09 95.6788 162.117 96.6954 171.628C92.2454 172.611 87.6527 172.85 82.9004 172.85C72.1476 172.85 62.4197 169.937 53.5462 165.133C53.8559 164.466 54.1358 163.972 54.4346 163.473C54.514 163.34 54.5954 163.206 54.6795 163.068C54.975 162.581 55.3029 162.041 55.6916 161.319L55.7018 161.3L55.7103 161.28C59.3059 152.95 61.0952 143.029 60.7655 131.343L60.7652 131.337C59.8094 107.99 66.0273 93.5823 72.7302 81.3784C73.84 79.358 74.9661 77.3939 76.0769 75.4563C81.6689 65.703 86.8746 56.6232 87.6643 44.4182L87.6743 44.2632L87.5947 44.1297C86.7194 42.6631 86.5589 41.3301 86.8553 40.0698C87.1567 38.7885 87.9413 37.5368 89.0417 36.2754L89.498 35.7523L88.8573 35.4852C88.4533 35.3168 88.236 35.0475 88.1549 34.6077C88.0659 34.125 88.1425 33.425 88.4365 32.4479C88.7806 31.5095 89.1504 30.7693 89.9759 30.3202C90.8268 29.8572 92.2691 29.647 94.9051 30.1097L94.9061 30.1099L105.436 31.9359C106.779 32.2517 108.015 32.8545 108.763 33.8451C109.492 34.8118 109.825 36.2388 109.185 38.3691C109.089 38.6329 108.968 38.714 108.859 38.7564C108.703 38.8164 108.508 38.8224 108.207 38.8224H107.483L107.739 39.4993C108.375 41.1802 108.585 42.6707 108.37 43.9762C108.156 45.2716 107.516 46.4252 106.376 47.4341L106.252 47.5441L106.218 47.7066C105.275 52.2326 104.896 55.0318 104.848 59.7122L104.848 59.7139C104.801 66.8221 105.366 73.8824 106.495 80.8479C106.608 81.5536 106.718 82.2298 106.824 82.8819C107.945 89.7723 108.627 93.9707 108.457 101.761C108.083 115.96 105.657 129.638 100.807 142.752Z" fill="white" stroke="#F7B2B5"/>
</g>
<mask id="path-24-inside-1" fill="white">
<ellipse cx="137.841" cy="80.3797" rx="0.998885" ry="0.953403" transform="rotate(3.81258 137.841 80.3797)"/>
</mask>
<ellipse cx="137.841" cy="80.3797" rx="0.998885" ry="0.953403" transform="rotate(3.81258 137.841 80.3797)" fill="#F40009"/>
<path d="M137.84 80.3796C137.841 80.3682 137.844 80.356 137.85 80.3461C137.854 80.337 137.859 80.3328 137.86 80.3316C137.863 80.3294 137.859 80.3342 137.844 80.3332L137.711 82.3288C138.769 82.3992 139.761 81.6324 139.836 80.5126L137.84 80.3796ZM137.844 80.3332C137.829 80.3322 137.826 80.327 137.829 80.3295C137.83 80.3309 137.834 80.3357 137.837 80.3453C137.841 80.3558 137.843 80.3683 137.842 80.3798L135.847 80.2468C135.772 81.3665 136.654 82.2583 137.711 82.3288L137.844 80.3332ZM137.842 80.3798C137.842 80.3912 137.838 80.4033 137.833 80.4132C137.828 80.4223 137.824 80.4266 137.822 80.4278C137.819 80.43 137.823 80.4252 137.838 80.4262L137.971 78.4306C136.914 78.3602 135.921 79.127 135.847 80.2468L137.842 80.3798ZM137.838 80.4262C137.853 80.4272 137.856 80.4324 137.854 80.4299C137.853 80.4285 137.849 80.4237 137.845 80.4141C137.841 80.4035 137.839 80.3911 137.84 80.3796L139.836 80.5126C139.91 79.3928 139.028 78.5011 137.971 78.4306L137.838 80.4262Z" fill="white" mask="url(#path-24-inside-1)"/>
<path d="M140.58 70.8162C140.495 72.0951 139.33 73.0983 137.932 73.0051C136.534 72.912 135.513 71.7631 135.598 70.4841C135.683 69.2052 136.848 68.202 138.246 68.2952C139.644 68.3883 140.665 69.5372 140.58 70.8162Z" fill="#F40009" stroke="white"/>
<path d="M135.726 71.5437C135.707 71.8244 135.444 72.0749 135.092 72.0514C134.74 72.0279 134.513 71.7448 134.531 71.4641C134.55 71.1833 134.813 70.9329 135.165 70.9563C135.517 70.9798 135.745 71.2629 135.726 71.5437Z" fill="#F40009" stroke="white"/>
<path d="M139.289 66.1436C139.267 66.4769 138.956 66.7669 138.549 66.7398C138.142 66.7126 137.873 66.3839 137.895 66.0507C137.917 65.7174 138.228 65.4273 138.635 65.4545C139.042 65.4816 139.311 65.8103 139.289 66.1436Z" fill="#F40009" stroke="white"/>
<mask id="path-29-inside-2" fill="white">
<ellipse cx="139.218" cy="74.7384" rx="0.998885" ry="0.953403" transform="rotate(3.81258 139.218 74.7384)"/>
</mask>
<ellipse cx="139.218" cy="74.7384" rx="0.998885" ry="0.953403" transform="rotate(3.81258 139.218 74.7384)" fill="#F40009"/>
<path d="M139.217 74.7383C139.218 74.7269 139.222 74.7148 139.227 74.7049C139.232 74.6958 139.236 74.6915 139.238 74.6904C139.24 74.6881 139.236 74.6929 139.222 74.6919L139.089 76.6875C140.146 76.7579 141.138 75.9911 141.213 74.8713L139.217 74.7383ZM139.222 74.6919C139.207 74.6909 139.204 74.6857 139.206 74.6882C139.207 74.6896 139.211 74.6944 139.215 74.704C139.218 74.7146 139.22 74.727 139.22 74.7385L137.224 74.6055C137.149 75.7253 138.031 76.617 139.089 76.6875L139.222 74.6919ZM139.22 74.7385C139.219 74.7499 139.215 74.7621 139.21 74.772C139.205 74.7811 139.201 74.7853 139.199 74.7865C139.197 74.7887 139.2 74.7839 139.215 74.7849L139.348 72.7893C138.291 72.7189 137.299 73.4857 137.224 74.6055L139.22 74.7385ZM139.215 74.7849C139.23 74.7859 139.233 74.7911 139.231 74.7886C139.23 74.7872 139.226 74.7824 139.222 74.7728C139.218 74.7623 139.217 74.7498 139.217 74.7383L141.213 74.8713C141.288 73.7516 140.406 72.8598 139.348 72.7893L139.215 74.7849Z" fill="white" mask="url(#path-29-inside-2)"/>
<mask id="path-31-inside-3" fill="white">
<ellipse cx="136.293" cy="82.5699" rx="0.599331" ry="0.572042" transform="rotate(3.81258 136.293 82.5699)"/>
</mask>
<ellipse cx="136.293" cy="82.5699" rx="0.599331" ry="0.572042" transform="rotate(3.81258 136.293 82.5699)" fill="#F40009"/>
<path d="M135.893 82.5432C135.912 82.2641 136.145 82.1311 136.322 82.1429L136.189 84.1384C137.026 84.1942 137.828 83.5858 137.889 82.6762L135.893 82.5432ZM136.322 82.1429C136.498 82.1546 136.712 82.3174 136.693 82.5965L134.697 82.4635C134.637 83.3731 135.352 84.0827 136.189 84.1384L136.322 82.1429ZM136.693 82.5965C136.674 82.8757 136.441 83.0087 136.265 82.9969L136.398 81.0013C135.561 80.9455 134.758 81.5539 134.697 82.4635L136.693 82.5965ZM136.265 82.9969C136.088 82.9851 135.875 82.8224 135.893 82.5432L137.889 82.6762C137.95 81.7666 137.235 81.0571 136.398 81.0013L136.265 82.9969Z" fill="white" mask="url(#path-31-inside-3)"/>
<ellipse cx="136.184" cy="81.2248" rx="0.399554" ry="0.381361" transform="rotate(3.81258 136.184 81.2248)" fill="#F40009"/>
<path d="M137.589 76.6365C137.549 77.2325 137.002 77.7206 136.319 77.6751C135.637 77.6297 135.159 77.0731 135.198 76.4772C135.238 75.8812 135.786 75.3931 136.468 75.4385C137.151 75.484 137.629 76.0405 137.589 76.6365Z" fill="#F40009" stroke="white"/>
<mask id="path-35-inside-4" fill="white">
<ellipse cx="135.322" cy="77.6319" rx="0.699219" ry="0.667382" transform="rotate(3.81258 135.322 77.6319)"/>
</mask>
<ellipse cx="135.322" cy="77.6319" rx="0.699219" ry="0.667382" transform="rotate(3.81258 135.322 77.6319)" fill="#F40009"/>
<path d="M135.022 77.6119C135.037 77.3853 135.223 77.2919 135.344 77.3L135.211 79.2956C136.103 79.3551 136.953 78.707 137.017 77.7449L135.022 77.6119ZM135.344 77.3C135.466 77.3081 135.637 77.4253 135.622 77.6519L133.627 77.5189C133.562 78.4811 134.319 79.2362 135.211 79.2956L135.344 77.3ZM135.622 77.6519C135.607 77.8785 135.421 77.9719 135.3 77.9638L135.433 75.9682C134.541 75.9088 133.691 76.5568 133.627 77.5189L135.622 77.6519ZM135.3 77.9638C135.178 77.9557 135.007 77.8385 135.022 77.6119L137.017 77.7449C137.082 76.7828 136.325 76.0277 135.433 75.9682L135.3 77.9638Z" fill="white" mask="url(#path-35-inside-4)"/>
<mask id="path-37-inside-5" fill="white">
<ellipse cx="19.5968" cy="114.423" rx="0.998885" ry="0.953403" transform="rotate(180 19.5968 114.423)"/>
</mask>
<ellipse cx="19.5968" cy="114.423" rx="0.998885" ry="0.953403" transform="rotate(180 19.5968 114.423)" fill="#F40009"/>
<path d="M19.5979 114.423C19.5979 114.434 19.5952 114.447 19.5907 114.457C19.5865 114.466 19.5823 114.471 19.5809 114.472C19.5784 114.475 19.5819 114.47 19.5968 114.47L19.5968 112.47C18.5373 112.47 17.5979 113.301 17.5979 114.423L19.5979 114.423ZM19.5968 114.47C19.6117 114.47 19.6152 114.475 19.6127 114.472C19.6114 114.471 19.6071 114.466 19.603 114.457C19.5984 114.447 19.5957 114.434 19.5957 114.423L21.5957 114.423C21.5957 113.301 20.6563 112.47 19.5968 112.47L19.5968 114.47ZM19.5957 114.423C19.5957 114.411 19.5984 114.399 19.603 114.389C19.6071 114.38 19.6114 114.375 19.6127 114.374C19.6152 114.371 19.6117 114.376 19.5968 114.376L19.5968 116.376C20.6563 116.376 21.5957 115.545 21.5957 114.423L19.5957 114.423ZM19.5968 114.376C19.5819 114.376 19.5784 114.371 19.5809 114.374C19.5823 114.375 19.5865 114.38 19.5907 114.389C19.5952 114.399 19.5979 114.411 19.5979 114.423L17.5979 114.423C17.5979 115.545 18.5373 116.376 19.5968 116.376L19.5968 114.376Z" fill="white" mask="url(#path-37-inside-5)"/>
<path d="M17.5001 124.147C17.5001 122.866 18.5957 121.787 19.9968 121.787C21.3978 121.787 22.4934 122.866 22.4934 124.147C22.4934 125.429 21.3978 126.508 19.9968 126.508C18.5957 126.508 17.5001 125.429 17.5001 124.147Z" fill="#F40009" stroke="white"/>
<path d="M22.2949 123.099C22.2949 122.817 22.5408 122.55 22.8937 122.55C23.2466 122.55 23.4924 122.817 23.4924 123.099C23.4924 123.38 23.2466 123.648 22.8937 123.648C22.5408 123.648 22.2949 123.38 22.2949 123.099Z" fill="#F40009" stroke="white"/>
<path d="M19.0988 128.724C19.0988 128.39 19.3894 128.08 19.7974 128.08C20.2055 128.08 20.4961 128.39 20.4961 128.724C20.4961 129.058 20.2055 129.368 19.7974 129.368C19.3894 129.368 19.0988 129.058 19.0988 128.724Z" fill="#F40009" stroke="white"/>
<mask id="path-42-inside-6" fill="white">
<ellipse cx="18.5978" cy="120.143" rx="0.998885" ry="0.953403" transform="rotate(180 18.5978 120.143)"/>
</mask>
<ellipse cx="18.5978" cy="120.143" rx="0.998885" ry="0.953403" transform="rotate(180 18.5978 120.143)" fill="#F40009"/>
<path d="M18.5989 120.143C18.5989 120.155 18.5962 120.167 18.5917 120.177C18.5875 120.187 18.5832 120.191 18.5819 120.193C18.5794 120.195 18.5829 120.19 18.5978 120.19L18.5978 118.19C17.5383 118.19 16.5989 119.021 16.5989 120.143L18.5989 120.143ZM18.5978 120.19C18.6127 120.19 18.6162 120.195 18.6137 120.193C18.6123 120.191 18.6081 120.187 18.6039 120.177C18.5994 120.167 18.5967 120.155 18.5967 120.143L20.5967 120.143C20.5967 119.021 19.6573 118.19 18.5978 118.19L18.5978 120.19ZM18.5967 120.143C18.5967 120.132 18.5994 120.12 18.6039 120.109C18.6081 120.1 18.6123 120.095 18.6137 120.094C18.6162 120.092 18.6127 120.097 18.5978 120.097L18.5978 122.097C19.6573 122.097 20.5967 121.266 20.5967 120.143L18.5967 120.143ZM18.5978 120.097C18.5829 120.097 18.5794 120.092 18.5819 120.094C18.5832 120.095 18.5875 120.1 18.5917 120.109C18.5962 120.12 18.5989 120.132 18.5989 120.143L16.5989 120.143C16.5989 121.266 17.5383 122.097 18.5978 122.097L18.5978 120.097Z" fill="white" mask="url(#path-42-inside-6)"/>
<mask id="path-44-inside-7" fill="white">
<ellipse cx="20.9961" cy="112.135" rx="0.599331" ry="0.572042" transform="rotate(180 20.9961 112.135)"/>
</mask>
<ellipse cx="20.9961" cy="112.135" rx="0.599331" ry="0.572042" transform="rotate(180 20.9961 112.135)" fill="#F40009"/>
<path d="M21.3968 112.135C21.3968 112.414 21.173 112.563 20.9961 112.563L20.9961 110.563C20.1573 110.563 19.3968 111.223 19.3968 112.135L21.3968 112.135ZM20.9961 112.563C20.8193 112.563 20.5955 112.414 20.5955 112.135L22.5955 112.135C22.5955 111.223 21.835 110.563 20.9961 110.563L20.9961 112.563ZM20.5955 112.135C20.5955 111.855 20.8193 111.707 20.9961 111.707L20.9961 113.707C21.835 113.707 22.5955 113.046 22.5955 112.135L20.5955 112.135ZM20.9961 111.707C21.173 111.707 21.3968 111.855 21.3968 112.135L19.3968 112.135C19.3968 113.046 20.1573 113.707 20.9961 113.707L20.9961 111.707Z" fill="white" mask="url(#path-44-inside-7)"/>
<ellipse cx="21.1947" cy="113.47" rx="0.399554" ry="0.381361" transform="rotate(180 21.1947 113.47)" fill="#F40009"/>
<path d="M20.0972 118.141C20.0972 117.544 20.6114 117.02 21.2953 117.02C21.9792 117.02 22.4934 117.544 22.4934 118.141C22.4934 118.738 21.9792 119.262 21.2953 119.262C20.6114 119.262 20.0972 118.738 20.0972 118.141Z" fill="#F40009" stroke="white"/>
<mask id="path-48-inside-8" fill="white">
<ellipse cx="22.2935" cy="116.997" rx="0.699219" ry="0.667382" transform="rotate(180 22.2935 116.997)"/>
</mask>
<ellipse cx="22.2935" cy="116.997" rx="0.699219" ry="0.667382" transform="rotate(180 22.2935 116.997)" fill="#F40009"/>
<path d="M22.5942 116.997C22.5942 117.224 22.4151 117.33 22.2935 117.33L22.2935 115.33C21.3994 115.33 20.5942 116.033 20.5942 116.997L22.5942 116.997ZM22.2935 117.33C22.1718 117.33 21.9927 117.224 21.9927 116.997L23.9927 116.997C23.9927 116.033 23.1875 115.33 22.2935 115.33L22.2935 117.33ZM21.9927 116.997C21.9927 116.77 22.1718 116.665 22.2935 116.665L22.2935 118.665C23.1875 118.665 23.9927 117.961 23.9927 116.997L21.9927 116.997ZM22.2935 116.665C22.4151 116.665 22.5942 116.77 22.5942 116.997L20.5942 116.997C20.5942 117.961 21.3994 118.665 22.2935 118.665L22.2935 116.665Z" fill="white" mask="url(#path-48-inside-8)"/>
<path d="M35.4129 143.882C35.4129 143.342 35.8738 142.872 36.4843 142.872C37.0948 142.872 37.5557 143.342 37.5557 143.882C37.5557 144.422 37.0948 144.892 36.4843 144.892C35.8738 144.892 35.4129 144.422 35.4129 143.882Z" fill="#F40009" stroke="white"/>
<path d="M32.9004 159.288C32.9004 157.08 34.7683 155.257 37.1145 155.257C39.4607 155.257 41.3286 157.08 41.3286 159.288C41.3286 161.496 39.4607 163.319 37.1145 163.319C34.7683 163.319 32.9004 161.496 32.9004 159.288Z" fill="#F40009" stroke="white"/>
<path d="M40.4417 157.627C40.4417 157.004 40.9729 156.465 41.6702 156.465C42.3675 156.465 42.8987 157.004 42.8987 157.627C42.8987 158.25 42.3675 158.788 41.6702 158.788C40.9729 158.788 40.4417 158.25 40.4417 157.627Z" fill="#F40009" stroke="white"/>
<path d="M35.4143 166.538C35.4143 165.832 36.0158 165.226 36.7999 165.226C37.584 165.226 38.1855 165.832 38.1855 166.538C38.1855 167.245 37.584 167.851 36.7999 167.851C36.0158 167.851 35.4143 167.245 35.4143 166.538Z" fill="#F40009" stroke="white"/>
<path d="M33.8429 152.945C33.8429 152.405 34.3037 151.934 34.9142 151.934C35.5248 151.934 35.9856 152.405 35.9856 152.945C35.9856 153.484 35.5248 153.955 34.9142 153.955C34.3037 153.955 33.8429 153.484 33.8429 152.945Z" fill="#F40009" stroke="white"/>
<mask id="path-55-inside-9" fill="white">
<ellipse cx="38.6858" cy="140.257" rx="0.942821" ry="0.906252" transform="rotate(180 38.6858 140.257)"/>
</mask>
<ellipse cx="38.6858" cy="140.257" rx="0.942821" ry="0.906252" transform="rotate(180 38.6858 140.257)" fill="#F40009"/>
<path d="M38.743 140.257C38.743 140.296 38.725 140.324 38.7122 140.337C38.706 140.343 38.7003 140.346 38.6955 140.348C38.693 140.349 38.6907 140.35 38.6888 140.35C38.6869 140.35 38.6858 140.35 38.6858 140.35L38.6858 138.35C37.6505 138.35 36.743 139.167 36.743 140.257L38.743 140.257ZM38.6858 140.35C38.6859 140.35 38.6848 140.35 38.6829 140.35C38.681 140.35 38.6787 140.349 38.6762 140.348C38.6714 140.346 38.6656 140.343 38.6595 140.337C38.6467 140.324 38.6287 140.296 38.6287 140.257L40.6287 140.257C40.6287 139.167 39.7212 138.35 38.6858 138.35L38.6858 140.35ZM38.6287 140.257C38.6287 140.218 38.6467 140.189 38.6595 140.177C38.6656 140.171 38.6714 140.167 38.6762 140.165C38.6787 140.164 38.681 140.164 38.6829 140.163C38.6848 140.163 38.6859 140.163 38.6858 140.163L38.6858 142.163C39.7212 142.163 40.6287 141.346 40.6287 140.257L38.6287 140.257ZM38.6858 140.163C38.6858 140.163 38.6869 140.163 38.6888 140.163C38.6907 140.164 38.693 140.164 38.6955 140.165C38.7003 140.167 38.706 140.171 38.7122 140.177C38.725 140.189 38.743 140.218 38.743 140.257L36.743 140.257C36.743 141.346 37.6505 142.163 38.6858 142.163L38.6858 140.163Z" fill="white" mask="url(#path-55-inside-9)"/>
<mask id="path-57-inside-10" fill="white">
<ellipse cx="38.9972" cy="142.372" rx="0.628547" ry="0.604168" transform="rotate(180 38.9972 142.372)"/>
</mask>
<ellipse cx="38.9972" cy="142.372" rx="0.628547" ry="0.604168" transform="rotate(180 38.9972 142.372)" fill="#F40009"/>
<path d="M39.3686 142.372C39.3686 142.627 39.1647 142.767 38.9972 142.767L38.9972 140.767C38.1354 140.767 37.3686 141.449 37.3686 142.372L39.3686 142.372ZM38.9972 142.767C38.8297 142.767 38.6257 142.627 38.6257 142.372L40.6257 142.372C40.6257 141.449 39.859 140.767 38.9972 140.767L38.9972 142.767ZM38.6257 142.372C38.6257 142.116 38.8297 141.976 38.9972 141.976L38.9972 143.976C39.859 143.976 40.6257 143.294 40.6257 142.372L38.6257 142.372ZM38.9972 141.976C39.1647 141.976 39.3686 142.116 39.3686 142.372L37.3686 142.372C37.3686 143.294 38.1354 143.976 38.9972 143.976L38.9972 141.976Z" fill="white" mask="url(#path-57-inside-10)"/>
<path d="M36.986 149.772C36.986 148.649 37.9393 147.705 39.1573 147.705C40.3753 147.705 41.3286 148.649 41.3286 149.772C41.3286 150.896 40.3753 151.84 39.1573 151.84C37.9393 151.84 36.986 150.896 36.986 149.772Z" fill="#F40009" stroke="white"/>
<path d="M40.1255 147.96C40.1255 147.671 40.3753 147.403 40.7255 147.403C41.0757 147.403 41.3254 147.671 41.3254 147.96C41.3254 148.249 41.0757 148.517 40.7255 148.517C40.3753 148.517 40.1255 148.249 40.1255 147.96Z" fill="#F40009" stroke="white"/>
<path d="M100.6 103.074C100.545 103.06 100.436 103.031 100.395 102.964L95.7137 100.276C95.4126 100.084 95.2486 99.8146 95.3312 99.495C95.3591 99.1612 95.5923 98.9373 95.9075 98.8483C95.9075 98.8483 100.32 97.8293 101.621 97.5406C102.06 97.4267 102.457 97.6998 102.58 98.1293C102.702 98.5589 102.428 98.9426 101.989 99.0566C101.236 99.2596 99.509 99.6089 98.1387 99.9367L101.095 101.61C101.451 101.816 101.615 102.313 101.409 102.658C101.312 103.031 100.929 103.159 100.6 103.074Z" fill="#3F3F5B"/>
<path d="M73.0994 96.6448C72.7708 96.5599 72.4973 96.2618 72.4703 95.9139C72.4572 95.5126 72.7865 95.1431 73.2112 95.0824L76.636 94.9448C75.5825 94.0472 74.2417 92.9049 73.6808 92.362C73.3525 92.0498 73.2984 91.5811 73.6139 91.2648C73.9294 90.9486 74.4089 90.902 74.7372 91.2142C75.7907 92.1118 79.1837 95.0351 79.1837 95.0351C79.4163 95.2657 79.5117 95.5746 79.4291 95.8942C79.3464 96.2139 79.0585 96.4236 78.7161 96.3919L73.2913 96.5808C73.209 96.6732 73.1542 96.659 73.0994 96.6448Z" fill="#3F3F5B"/>
<path d="M101.036 94.3769C100.992 94.3656 100.992 94.3656 100.949 94.3543C98.017 93.0986 97.0723 90.2753 97.0506 90.1792C96.9529 89.8373 97.1279 89.5205 97.4769 89.4298C97.826 89.3391 98.153 89.5141 98.2506 89.856C98.2506 89.856 99.0324 92.23 101.419 93.2543C101.768 93.3445 101.953 93.709 101.778 94.0258C101.658 94.3114 101.341 94.4558 101.036 94.3769Z" fill="#3F3F5B"/>
<path d="M76.6166 88.0628C76.3113 87.9839 76.1045 87.7042 76.1377 87.396C76.1818 87.0454 76.4766 86.8049 76.8364 86.8527C79.4641 87.1249 81.255 85.416 81.255 85.416C81.5062 85.1642 81.9205 85.1809 82.1383 85.4182C82.3997 85.6667 82.3882 86.071 82.148 86.2804C82.0825 86.3539 79.8877 88.3655 76.7147 88.0429C76.7038 88.0853 76.6602 88.074 76.6166 88.0628Z" fill="#3F3F5B"/>
<path d="M92.5493 106.009C92.7779 106.052 93.0354 106.193 93.1848 106.405L94.6209 108.332C94.9197 108.757 94.8567 109.343 94.4158 109.675C93.9831 109.962 93.3805 109.894 93.036 109.461L92.1685 108.285L88.8408 110.376C88.4082 110.663 87.8139 110.551 87.5151 110.126L85.2199 106.978L81.8922 109.069C81.4596 109.356 80.8653 109.244 80.5665 108.819L78.2256 105.663L76.9901 106.443C76.5575 106.73 75.9175 106.61 75.6271 106.141C75.3283 105.716 75.4453 105.094 75.9237 104.816L77.9619 103.542C78.3945 103.255 78.9888 103.367 79.2876 103.791L81.5828 106.939L84.9105 104.849C85.3431 104.562 85.9374 104.673 86.2362 105.098L88.5314 108.246L91.8134 106.147C92.0754 106.012 92.3207 105.966 92.5493 106.009Z" fill="#3F3F5B"/>
<defs>
<filter id="filter0_d" x="-27.229" y="30.5341" width="150.044" height="150.287" filterUnits="userSpaceOnUse" color-interpolation-filters="sRGB">
<feFlood flood-opacity="0" result="BackgroundImageFix"/>
<feColorMatrix in="SourceAlpha" type="matrix" values="0 0 0 0 0 0 0 0 0 0 0 0 0 0 0 0 0 0 127 0"/>
<feOffset/>
<feGaussianBlur stdDeviation="15"/>
<feColorMatrix type="matrix" values="0 0 0 0 0 0 0 0 0 0 0 0 0 0 0 0 0 0 0.35 0"/>
<feBlend mode="normal" in2="BackgroundImageFix" result="effect1_dropShadow"/>
<feBlend mode="normal" in="SourceGraphic" in2="effect1_dropShadow" result="shape"/>
</filter>
<filter id="filter1_d" x="1.97461" y="5.85695" width="188.663" height="145.771" filterUnits="userSpaceOnUse" color-interpolation-filters="sRGB">
<feFlood flood-opacity="0" result="BackgroundImageFix"/>
<feColorMatrix in="SourceAlpha" type="matrix" values="0 0 0 0 0 0 0 0 0 0 0 0 0 0 0 0 0 0 127 0"/>
<feOffset/>
<feGaussianBlur stdDeviation="15"/>
<feColorMatrix type="matrix" values="0 0 0 0 0 0 0 0 0 0 0 0 0 0 0 0 0 0 0.35 0"/>
<feBlend mode="normal" in2="BackgroundImageFix" result="effect1_dropShadow"/>
<feBlend mode="normal" in="SourceGraphic" in2="effect1_dropShadow" result="shape"/>
</filter>
<filter id="filter2_d" x="23.7471" y="9.60341" width="145.014" height="153.953" filterUnits="userSpaceOnUse" color-interpolation-filters="sRGB">
<feFlood flood-opacity="0" result="BackgroundImageFix"/>
<feColorMatrix in="SourceAlpha" type="matrix" values="0 0 0 0 0 0 0 0 0 0 0 0 0 0 0 0 0 0 127 0"/>
<feOffset/>
<feGaussianBlur stdDeviation="15"/>
<feColorMatrix type="matrix" values="0 0 0 0 0 0 0 0 0 0 0 0 0 0 0 0 0 0 0.35 0"/>
<feBlend mode="normal" in2="BackgroundImageFix" result="effect1_dropShadow"/>
<feBlend mode="normal" in="SourceGraphic" in2="effect1_dropShadow" result="shape"/>
</filter>
<filter id="filter3_d" x="75.0964" y="35.0085" width="99.5032" height="119.288" filterUnits="userSpaceOnUse" color-interpolation-filters="sRGB">
<feFlood flood-opacity="0" result="BackgroundImageFix"/>
<feColorMatrix in="SourceAlpha" type="matrix" values="0 0 0 0 0 0 0 0 0 0 0 0 0 0 0 0 0 0 127 0"/>
<feOffset/>
<feGaussianBlur stdDeviation="15"/>
<feColorMatrix type="matrix" values="0 0 0 0 0 0 0 0 0 0 0 0 0 0 0 0 0 0 0.35 0"/>
<feBlend mode="normal" in2="BackgroundImageFix" result="effect1_dropShadow"/>
<feBlend mode="normal" in="SourceGraphic" in2="effect1_dropShadow" result="shape"/>
</filter>
<filter id="filter4_d" x="23.5728" y="55.1709" width="141.012" height="119.579" filterUnits="userSpaceOnUse" color-interpolation-filters="sRGB">
<feFlood flood-opacity="0" result="BackgroundImageFix"/>
<feColorMatrix in="SourceAlpha" type="matrix" values="0 0 0 0 0 0 0 0 0 0 0 0 0 0 0 0 0 0 127 0"/>
<feOffset/>
<feGaussianBlur stdDeviation="15"/>
<feColorMatrix type="matrix" values="0 0 0 0 0 0 0 0 0 0 0 0 0 0 0 0 0 0 0.35 0"/>
<feBlend mode="normal" in2="BackgroundImageFix" result="effect1_dropShadow"/>
<feBlend mode="normal" in="SourceGraphic" in2="effect1_dropShadow" result="shape"/>
</filter>
<filter id="filter5_d" x="42.4985" y="63.8626" width="146.467" height="153.209" filterUnits="userSpaceOnUse" color-interpolation-filters="sRGB">
<feFlood flood-opacity="0" result="BackgroundImageFix"/>
<feColorMatrix in="SourceAlpha" type="matrix" values="0 0 0 0 0 0 0 0 0 0 0 0 0 0 0 0 0 0 127 0"/>
<feOffset/>
<feGaussianBlur stdDeviation="15"/>
<feColorMatrix type="matrix" values="0 0 0 0 0 0 0 0 0 0 0 0 0 0 0 0 0 0 0.35 0"/>
<feBlend mode="normal" in2="BackgroundImageFix" result="effect1_dropShadow"/>
<feBlend mode="normal" in="SourceGraphic" in2="effect1_dropShadow" result="shape"/>
</filter>
<filter id="filter6_d" x="-16.6787" y="79.9085" width="176.057" height="134.584" filterUnits="userSpaceOnUse" color-interpolation-filters="sRGB">
<feFlood flood-opacity="0" result="BackgroundImageFix"/>
<feColorMatrix in="SourceAlpha" type="matrix" values="0 0 0 0 0 0 0 0 0 0 0 0 0 0 0 0 0 0 127 0"/>
<feOffset/>
<feGaussianBlur stdDeviation="15"/>
<feColorMatrix type="matrix" values="0 0 0 0 0 0 0 0 0 0 0 0 0 0 0 0 0 0 0.35 0"/>
<feBlend mode="normal" in2="BackgroundImageFix" result="effect1_dropShadow"/>
<feBlend mode="normal" in="SourceGraphic" in2="effect1_dropShadow" result="shape"/>
</filter>
<filter id="filter7_d" x="-1.84961" y="85.5555" width="160.416" height="130.157" filterUnits="userSpaceOnUse" color-interpolation-filters="sRGB">
<feFlood flood-opacity="0" result="BackgroundImageFix"/>
<feColorMatrix in="SourceAlpha" type="matrix" values="0 0 0 0 0 0 0 0 0 0 0 0 0 0 0 0 0 0 127 0"/>
<feOffset/>
<feGaussianBlur stdDeviation="15"/>
<feColorMatrix type="matrix" values="0 0 0 0 0 0 0 0 0 0 0 0 0 0 0 0 0 0 0.35 0"/>
<feBlend mode="normal" in2="BackgroundImageFix" result="effect1_dropShadow"/>
<feBlend mode="normal" in="SourceGraphic" in2="effect1_dropShadow" result="shape"/>
</filter>
<filter id="filter8_d" x="-34.0842" y="62.2615" width="118.692" height="123.197" filterUnits="userSpaceOnUse" color-interpolation-filters="sRGB">
<feFlood flood-opacity="0" result="BackgroundImageFix"/>
<feColorMatrix in="SourceAlpha" type="matrix" values="0 0 0 0 0 0 0 0 0 0 0 0 0 0 0 0 0 0 127 0"/>
<feOffset/>
<feGaussianBlur stdDeviation="15"/>
<feColorMatrix type="matrix" values="0 0 0 0 0 0 0 0 0 0 0 0 0 0 0 0 0 0 0.35 0"/>
<feBlend mode="normal" in2="BackgroundImageFix" result="effect1_dropShadow"/>
<feBlend mode="normal" in="SourceGraphic" in2="effect1_dropShadow" result="shape"/>
</filter>
<filter id="filter9_d" x="96.3484" y="46.8671" width="112.615" height="126.43" filterUnits="userSpaceOnUse" color-interpolation-filters="sRGB">
<feFlood flood-opacity="0" result="BackgroundImageFix"/>
<feColorMatrix in="SourceAlpha" type="matrix" values="0 0 0 0 0 0 0 0 0 0 0 0 0 0 0 0 0 0 127 0"/>
<feOffset/>
<feGaussianBlur stdDeviation="15"/>
<feColorMatrix type="matrix" values="0 0 0 0 0 0 0 0 0 0 0 0 0 0 0 0 0 0 0.35 0"/>
<feBlend mode="normal" in2="BackgroundImageFix" result="effect1_dropShadow"/>
<feBlend mode="normal" in="SourceGraphic" in2="effect1_dropShadow" result="shape"/>
</filter>
<filter id="filter10_d" x="44.6353" y="94.3576" width="155.449" height="143.23" filterUnits="userSpaceOnUse" color-interpolation-filters="sRGB">
<feFlood flood-opacity="0" result="BackgroundImageFix"/>
<feColorMatrix in="SourceAlpha" type="matrix" values="0 0 0 0 0 0 0 0 0 0 0 0 0 0 0 0 0 0 127 0"/>
<feOffset/>
<feGaussianBlur stdDeviation="15"/>
<feColorMatrix type="matrix" values="0 0 0 0 0 0 0 0 0 0 0 0 0 0 0 0 0 0 0.35 0"/>
<feBlend mode="normal" in2="BackgroundImageFix" result="effect1_dropShadow"/>
<feBlend mode="normal" in="SourceGraphic" in2="effect1_dropShadow" result="shape"/>
</filter>
<filter id="filter11_d" x="32.4863" y="9.35046" width="97.5385" height="185" filterUnits="userSpaceOnUse" color-interpolation-filters="sRGB">
<feFlood flood-opacity="0" result="BackgroundImageFix"/>
<feColorMatrix in="SourceAlpha" type="matrix" values="0 0 0 0 0 0 0 0 0 0 0 0 0 0 0 0 0 0 127 0"/>
<feOffset/>
<feGaussianBlur stdDeviation="10"/>
<feColorMatrix type="matrix" values="0 0 0 0 0 0 0 0 0 0 0 0 0 0 0 0 0 0 0.11 0"/>
<feBlend mode="normal" in2="BackgroundImageFix" result="effect1_dropShadow"/>
<feBlend mode="normal" in="SourceGraphic" in2="effect1_dropShadow" result="shape"/>
</filter>
<filter id="filter12_d" x="32.9004" y="2.35046" width="97.1245" height="184" filterUnits="userSpaceOnUse" color-interpolation-filters="sRGB">
<feFlood flood-opacity="0" result="BackgroundImageFix"/>
<feColorMatrix in="SourceAlpha" type="matrix" values="0 0 0 0 0 0 0 0 0 0 0 0 0 0 0 0 0 0 127 0"/>
<feOffset dy="-7"/>
<feGaussianBlur stdDeviation="10"/>
<feColorMatrix type="matrix" values="0 0 0 0 0 0 0 0 0 0 0 0 0 0 0 0 0 0 0.12 0"/>
<feBlend mode="normal" in2="BackgroundImageFix" result="effect1_dropShadow"/>
<feBlend mode="normal" in="SourceGraphic" in2="effect1_dropShadow" result="shape"/>
</filter>
</defs>
</svg>
