<svg width="24" height="24" viewBox="0 0 24 24" fill="none" xmlns="http://www.w3.org/2000/svg">
<path fill-rule="evenodd" clip-rule="evenodd" d="M12.1133 22.9972C17.9095 22.9972 22.6133 18.2838 22.6133 12.4634C22.6133 6.64304 17.9095 1.92969 12.1133 1.92969C6.31705 1.92969 1.61328 6.64304 1.61328 12.4634C1.61328 18.2838 6.31705 22.9972 12.1133 22.9972ZM12.1133 23.9972C18.4646 23.9972 23.6133 18.8333 23.6133 12.4634C23.6133 6.09352 18.4646 0.929688 12.1133 0.929688C5.76201 0.929688 0.613281 6.09352 0.613281 12.4634C0.613281 18.8333 5.76201 23.9972 12.1133 23.9972Z" fill="#F40009"/>
<path d="M13.1939 19.9297H10.2403V13.6526H8.61328V10.7699H10.2403V9.15109C10.2403 7.66497 11.1518 5.92969 13.7219 5.92969C14.6279 5.92969 15.293 6.0163 15.3208 6.02003L15.5935 6.05618L15.5278 8.75396L15.2273 8.75115C15.2267 8.75115 14.5515 8.74461 13.815 8.74461C13.2668 8.74461 13.1942 8.88259 13.1942 9.43142V10.7705H15.6133L15.4792 13.6533H13.1944V19.9297H13.1939ZM10.8507 19.3067H12.5828V13.03H14.8957L14.972 11.3928H12.5828V9.43079C12.5828 8.78289 12.729 8.12099 13.8143 8.12099C14.2504 8.12099 14.6648 8.12317 14.9313 8.12535L14.9683 6.60875C14.6987 6.58413 14.2501 6.55267 13.7212 6.55267C11.6047 6.55267 10.8504 7.89485 10.8504 9.15109V11.3928H9.22342V13.03H10.8504V19.3067H10.8507Z" fill="white"/>
<path fill-rule="evenodd" clip-rule="evenodd" d="M10.2403 19.9297H13.1939L13.1944 13.6533H15.4792L15.6133 10.7705H13.1942V9.43142C13.1942 9.43121 13.1942 9.43163 13.1942 9.43142C13.1942 8.88334 13.267 8.74472 13.8143 8.74461C13.8145 8.74461 13.8141 8.74461 13.8143 8.74461C14.2476 8.74461 14.6603 8.74687 14.9262 8.74873C15.0997 8.74995 15.2111 8.751 15.2257 8.75113L15.5278 8.75396L15.5935 6.05618L15.3208 6.02003C15.31 6.01858 15.2037 6.00472 15.025 5.98827C14.7419 5.96222 14.2771 5.92969 13.7219 5.92969C13.7216 5.92969 13.7221 5.92969 13.7219 5.92969C11.1523 5.92999 10.2403 7.6651 10.2403 9.15109V10.7699H8.61328V13.6526H10.2403V19.9297ZM10.8504 13.03V19.3067H12.5828V13.03H14.8957L14.972 11.3928H12.5828V9.43142C12.5828 8.78352 12.729 8.12099 13.8143 8.12099C13.8141 8.12099 13.8145 8.12099 13.8143 8.12099C14.0735 8.12099 14.3256 8.12176 14.5429 8.12285C14.691 8.12358 14.8233 8.12447 14.9313 8.12535L14.9683 6.60875C14.8639 6.59922 14.7327 6.58866 14.5804 6.5793C14.3395 6.5645 14.0457 6.55269 13.7219 6.55267C13.7221 6.55267 13.7216 6.55267 13.7219 6.55267C11.6053 6.55267 10.8504 7.89485 10.8504 9.15109V11.3928H9.22342V13.03H10.8504Z" fill="#F40009"/>
</svg>
