<svg width="15" height="31" viewBox="0 0 15 31" fill="none" xmlns="http://www.w3.org/2000/svg">
<circle cx="5.85547" cy="25.5" r="5.5" fill="#F40009"/>
<path d="M9.64386 11.209C9.54155 12.7661 8.14821 13.9675 6.49949 13.856C4.85077 13.7446 3.62691 12.3664 3.72922 10.8092C3.83153 9.25213 5.22487 8.05078 6.87359 8.16222C8.52232 8.27365 9.74617 9.6519 9.64386 11.209Z" fill="#F40009" stroke="white"/>
<path d="M4.88243 11.2768C4.82983 12.0773 4.1136 12.6945 3.26655 12.6373C2.41951 12.58 1.79036 11.8719 1.84296 11.0713C1.89555 10.2708 2.61178 9.65359 3.45883 9.71084C4.30588 9.76809 4.93503 10.4763 4.88243 11.2768Z" fill="#F40009" stroke="white" stroke-width="0.5"/>
<path d="M7.38389 2.41979C7.33519 3.16093 6.66861 3.74698 5.86277 3.69252C5.05693 3.63805 4.47291 2.96746 4.52161 2.22632C4.57031 1.48518 5.23689 0.899126 6.04273 0.953593C6.84857 1.00806 7.43259 1.67865 7.38389 2.41979Z" fill="#F40009" stroke="white"/>
<path d="M11.0725 16.5454C11.0351 17.1145 10.5217 17.5709 9.89355 17.5284C9.26536 17.486 8.8162 16.9646 8.85359 16.3954C8.89099 15.8262 9.4044 15.3699 10.0326 15.4123C10.6608 15.4548 11.1099 15.9762 11.0725 16.5454Z" fill="#F40009" stroke="white"/>
<mask id="path-6-inside-1" fill="white">
<ellipse rx="0.967203" ry="0.936207" transform="matrix(0.997724 0.0674366 -0.0655624 0.997848 7.23858 29.2846)"/>
</mask>
<ellipse rx="0.967203" ry="0.936207" transform="matrix(0.997724 0.0674366 -0.0655624 0.997848 7.23858 29.2846)" fill="#F40009"/>
<path d="M7.20586 29.2824C7.20663 29.2707 7.21018 29.2579 7.21586 29.247C7.22114 29.2368 7.22687 29.2307 7.23073 29.2274C7.23847 29.2208 7.24449 29.221 7.24276 29.2209L7.11164 31.2166C8.16474 31.2878 9.1292 30.5147 9.20131 29.4172L7.20586 29.2824ZM7.24276 29.2209C7.24104 29.2208 7.24703 29.2214 7.25385 29.2289C7.25724 29.2327 7.26212 29.2395 7.26603 29.2504C7.27022 29.262 7.27207 29.2751 7.2713 29.2868L5.27586 29.1519C5.20375 30.2493 6.05854 31.1454 7.11164 31.2166L7.24276 29.2209ZM7.2713 29.2868C7.27054 29.2985 7.26698 29.3112 7.26131 29.3222C7.25602 29.3324 7.25029 29.3385 7.24643 29.3418C7.23869 29.3483 7.23267 29.3481 7.2344 29.3482L7.36552 27.3525C6.31242 27.2814 5.34796 28.0545 5.27586 29.1519L7.2713 29.2868ZM7.2344 29.3482C7.23613 29.3483 7.23013 29.3477 7.22332 29.3402C7.21992 29.3364 7.21504 29.3296 7.21114 29.3188C7.20695 29.3072 7.20509 29.2941 7.20586 29.2824L9.20131 29.4172C9.27341 28.3198 8.41863 27.4237 7.36552 27.3525L7.2344 29.3482Z" fill="white" mask="url(#path-6-inside-1)"/>
<mask id="path-8-inside-2" fill="white">
<ellipse rx="0.644802" ry="0.624138" transform="matrix(0.997724 0.0674366 -0.0655624 0.997848 7.06628 27.0862)"/>
</mask>
<ellipse rx="0.644802" ry="0.624138" transform="matrix(0.997724 0.0674366 -0.0655624 0.997848 7.06628 27.0862)" fill="#F40009"/>
<path d="M6.71189 27.0622C6.7275 26.8247 6.92608 26.7 7.09092 26.7111L6.9598 28.7068C7.83525 28.766 8.64653 28.1226 8.70734 27.1971L6.71189 27.0622ZM7.09092 26.7111C7.25577 26.7223 7.43628 26.8726 7.42067 27.1102L5.42522 26.9753C5.36442 27.9007 6.08435 28.6477 6.9598 28.7068L7.09092 26.7111ZM7.42067 27.1102C7.40506 27.3477 7.20648 27.4724 7.04164 27.4613L7.17276 25.4656C6.29731 25.4064 5.48603 26.0498 5.42522 26.9753L7.42067 27.1102ZM7.04164 27.4613C6.8768 27.4501 6.69629 27.2998 6.71189 27.0622L8.70734 27.1971C8.76814 26.2717 8.04821 25.5247 7.17276 25.4656L7.04164 27.4613Z" fill="white" mask="url(#path-8-inside-2)"/>
<path d="M8.88972 19.6149C8.80323 20.9313 7.62747 21.9376 6.24747 21.8443C4.86746 21.7511 3.83375 20.5954 3.92025 19.279C4.00674 17.9625 5.1825 16.9562 6.56251 17.0495C7.94251 17.1428 8.97622 18.2984 8.88972 19.6149Z" fill="#F40009" stroke="white" stroke-width="0.5"/>
<path d="M5.54977 21.2623C5.51977 21.7189 5.10989 22.0768 4.61815 22.0435C4.1264 22.0103 3.76696 21.6004 3.79696 21.1439C3.82696 20.6873 4.23684 20.3294 4.72858 20.3627C5.22033 20.3959 5.57977 20.8058 5.54977 21.2623Z" fill="#F40009" stroke="white" stroke-width="0.5"/>
</svg>
