<svg width="159" height="29" viewBox="0 0 159 29" fill="none" xmlns="http://www.w3.org/2000/svg">
<path d="M35.9992 1.2913C35.1661 1.34392 34.5543 1.44917 34.1637 1.60704C33.7993 1.76491 33.5519 2.06749 33.4217 2.51478C33.2916 2.96208 33.2265 3.68564 33.2265 4.68548V24.2612C33.2265 25.2611 33.2916 25.9846 33.4217 26.4319C33.578 26.8792 33.8383 27.1818 34.2028 27.3397C34.5673 27.4975 35.1661 27.6028 35.9992 27.6554V28.4447C34.4111 28.3658 32.107 28.3263 29.087 28.3263C25.9368 28.3263 23.6197 28.3658 22.1357 28.4447V27.6554C23.073 27.6028 23.7499 27.4975 24.1664 27.3397C24.609 27.1818 24.9084 26.8792 25.0646 26.4319C25.2208 25.9846 25.299 25.2611 25.299 24.2612V4.09347L15.8874 28.4053H15.2626L4.24998 3.06732V20.7092C4.24998 22.6562 4.32808 24.0639 4.48429 24.9322C4.6405 25.7741 4.97895 26.3925 5.49964 26.7871C6.04637 27.1818 6.94456 27.4712 8.19422 27.6554V28.4447C7.1268 28.3658 5.66887 28.3263 3.82041 28.3263C2.44058 28.3263 1.36014 28.3658 0.579102 28.4447V27.6554C1.38617 27.4712 1.98497 27.195 2.37549 26.8266C2.76601 26.4319 3.02635 25.8399 3.15653 25.0506C3.2867 24.2612 3.35179 23.0772 3.35179 21.4985V4.68548C3.35179 3.68564 3.27368 2.96208 3.11748 2.51478C2.9873 2.06749 2.73997 1.76491 2.37549 1.60704C2.011 1.44917 1.41221 1.34392 0.579102 1.2913V0.501953C1.36014 0.580887 2.44058 0.620354 3.82041 0.620354C6.94456 0.620354 9.63914 0.580887 11.9042 0.501953L19.285 17.2755L25.6895 0.620354H29.087C32.107 0.620354 34.4111 0.580887 35.9992 0.501953V1.2913Z" fill="#3C3C3C"/>
<path d="M57.9912 24.1428C57.9912 25.3532 58.1474 26.2346 58.4598 26.7871C58.7983 27.3397 59.371 27.6159 60.1781 27.6159V28.4447C59.371 28.3658 58.5639 28.3263 57.7569 28.3263C55.0493 28.3263 52.7843 28.5105 50.9618 28.8789V26.0372C49.7903 28.0106 47.7205 28.9973 44.7526 28.9973C42.6698 28.9973 41.1989 28.4711 40.3397 27.4186C39.9492 26.945 39.6628 26.3135 39.4806 25.5242C39.2983 24.7085 39.2072 23.6429 39.2072 22.3273V12.2632C39.2072 11.0529 39.038 10.1714 38.6996 9.61888C38.3871 9.06634 37.8274 8.79007 37.0203 8.79007V7.96126C37.8274 8.04019 38.6345 8.07966 39.4415 8.07966C42.1491 8.07966 44.4141 7.89548 46.2366 7.52712V24.4586C46.2366 25.3005 46.3798 25.932 46.6661 26.353C46.9786 26.7477 47.4732 26.945 48.1501 26.945C48.9051 26.945 49.556 26.6819 50.1027 26.1556C50.6755 25.6031 50.9618 24.919 50.9618 24.1034V12.2632C50.9618 11.0529 50.7926 10.1714 50.4542 9.61888C50.1418 9.06634 49.582 8.79007 48.7749 8.79007V7.96126C49.582 8.04019 50.3891 8.07966 51.1962 8.07966C53.9038 8.07966 56.1688 7.89548 57.9912 7.52712V24.1428Z" fill="#3C3C3C"/>
<path d="M69.9048 7.40872C70.9201 7.40872 71.8704 7.52712 72.7555 7.76392C73.6668 7.97441 74.3567 8.21122 74.8253 8.47433C75.1117 8.6322 75.346 8.71114 75.5282 8.71114C76.075 8.71114 76.4004 8.29015 76.5045 7.44819H77.2856C77.1814 8.81638 77.1294 11.1844 77.1294 14.5523H76.3483C76.14 12.8157 75.6454 11.3554 74.8643 10.1714C74.1093 8.9611 73.0029 8.35593 71.5449 8.35593C70.8941 8.35593 70.3473 8.55327 69.9048 8.94794C69.4622 9.34261 69.2409 9.882 69.2409 10.5661C69.2409 11.4344 69.5273 12.2106 70.1 12.8947C70.6728 13.5524 71.571 14.3681 72.7946 15.3416C72.8467 15.3679 73.2242 15.6705 73.9271 16.2494C75.385 17.4597 76.4525 18.5385 77.1294 19.4857C77.8063 20.4066 78.1447 21.5511 78.1447 22.9193C78.1447 24.077 77.7932 25.1295 77.0903 26.0767C76.3874 26.9976 75.4241 27.7212 74.2005 28.2474C73.0029 28.7473 71.6881 28.9973 70.2562 28.9973C68.6161 28.9973 67.2753 28.6684 66.2339 28.0106C65.7913 27.7738 65.4268 27.6028 65.1404 27.4975C64.854 27.3923 64.5677 27.3397 64.2813 27.3397C63.7866 27.3397 63.4221 27.8001 63.1878 28.721H62.4068C62.5109 27.2213 62.563 24.5901 62.563 20.8276H63.344C63.5784 22.9851 64.1511 24.7217 65.0623 26.0372C65.9735 27.3528 67.1191 28.0106 68.4989 28.0106C69.1498 28.0106 69.6835 27.8264 70.1 27.4581C70.5426 27.0897 70.7639 26.5503 70.7639 25.8399C70.7639 25.1032 70.6077 24.4454 70.2953 23.8666C70.0089 23.2877 69.6444 22.7746 69.2018 22.3273C68.7853 21.8537 68.0954 21.1828 67.1321 20.3145C66.0386 19.2884 65.2055 18.4727 64.6328 17.8675C64.06 17.2624 63.5653 16.5651 63.1488 15.7758C62.7583 14.9601 62.563 14.0655 62.563 13.092C62.563 11.9606 62.9014 10.9608 63.5783 10.0925C64.2552 9.22421 65.1534 8.56642 66.2729 8.11913C67.3924 7.64552 68.603 7.40872 69.9048 7.40872Z" fill="#3C3C3C"/>
<path d="M92.308 24.6954C94.2086 24.6954 95.7837 23.8139 97.0333 22.0511L97.6972 22.2879C97.1244 24.1297 96.1481 25.7084 94.7683 27.0239C93.4145 28.3395 91.6702 28.9973 89.5354 28.9973C86.8017 28.9973 84.6148 28.1422 82.9746 26.4319C81.3345 24.7217 80.5144 21.9853 80.5144 18.2227C80.5144 14.6181 81.4256 11.9211 83.248 10.132C85.0965 8.31646 87.5307 7.40872 90.5507 7.40872C95.4712 7.40872 97.9315 10.3556 97.9315 16.2494H87.8561C87.8301 16.5651 87.8171 17.0387 87.8171 17.6702C87.8171 20.1961 88.2466 21.9984 89.1058 23.0772C89.991 24.156 91.0584 24.6954 92.308 24.6954ZM90.2773 8.31646C88.8194 8.31646 87.9603 10.7108 87.6999 15.4995H92.2299C92.256 13.3946 92.0998 11.6712 91.7613 10.3293C91.4489 8.98741 90.9542 8.31646 90.2773 8.31646Z" fill="#3C3C3C"/>
<path d="M120.345 24.1428C120.345 25.3532 120.501 26.2346 120.813 26.7871C121.152 27.3397 121.724 27.6159 122.531 27.6159V28.4447C121.724 28.3658 120.917 28.3263 120.11 28.3263C117.403 28.3263 115.138 28.5105 113.315 28.8789V26.0372C112.144 28.0106 110.074 28.9973 107.106 28.9973C105.023 28.9973 103.552 28.4711 102.693 27.4186C102.303 26.945 102.016 26.3135 101.834 25.5242C101.652 24.7085 101.561 23.6429 101.561 22.3273V12.2632C101.561 11.0529 101.391 10.1714 101.053 9.61888C100.741 9.06634 100.181 8.79007 99.3737 8.79007V7.96126C100.181 8.04019 100.988 8.07966 101.795 8.07966C104.502 8.07966 106.768 7.89548 108.59 7.52712V24.4586C108.59 25.3005 108.733 25.932 109.02 26.353C109.332 26.7477 109.827 26.945 110.503 26.945C111.258 26.945 111.909 26.6819 112.456 26.1556C113.029 25.6031 113.315 24.919 113.315 24.1034V12.2632C113.315 11.0529 113.146 10.1714 112.808 9.61888C112.495 9.06634 111.935 8.79007 111.128 8.79007V7.96126C111.935 8.04019 112.742 8.07966 113.55 8.07966C116.257 8.07966 118.522 7.89548 120.345 7.52712V24.1428Z" fill="#3C3C3C"/>
<path d="M156.392 24.7743C156.392 25.8531 156.548 26.6029 156.861 27.0239C157.199 27.4186 157.772 27.6159 158.579 27.6159V28.4447C155.767 28.3395 153.945 28.2869 153.112 28.2869C152.279 28.2869 150.56 28.3395 147.957 28.4447V27.6159C148.478 27.6159 148.842 27.4186 149.05 27.0239C149.259 26.6293 149.363 25.8794 149.363 24.7743V11.9474C149.363 11.1055 149.207 10.4872 148.894 10.0925C148.608 9.6715 148.126 9.46101 147.449 9.46101C146.772 9.46101 146.148 9.75044 145.575 10.3293C145.028 10.9081 144.69 11.5922 144.559 12.3816C144.612 13.0131 144.638 13.5788 144.638 14.0787V24.7743C144.638 25.8794 144.768 26.6293 145.028 27.0239C145.288 27.4186 145.757 27.6159 146.434 27.6159V28.4447C143.831 28.3395 142.138 28.2869 141.357 28.2869C140.524 28.2869 138.806 28.3395 136.202 28.4447V27.6159C136.723 27.6159 137.088 27.4186 137.296 27.0239C137.504 26.6029 137.608 25.8531 137.608 24.7743V11.9474C137.608 11.1055 137.491 10.4872 137.257 10.0925C137.022 9.6715 136.632 9.46101 136.085 9.46101C135.33 9.46101 134.666 9.73728 134.094 10.2898C133.547 10.8161 133.273 11.487 133.273 12.3027V24.7743C133.273 25.8794 133.378 26.6293 133.586 27.0239C133.794 27.4186 134.159 27.6159 134.679 27.6159V28.4447C132.284 28.3395 130.696 28.2869 129.915 28.2869C129.03 28.2869 127.077 28.3395 124.057 28.4447V27.6159C124.864 27.6159 125.424 27.4186 125.736 27.0239C126.075 26.6029 126.244 25.8531 126.244 24.7743V12.2632C126.244 11.0529 126.075 10.1714 125.736 9.61888C125.424 9.06634 124.864 8.79007 124.057 8.79007V7.96126C124.89 8.04019 125.697 8.07966 126.478 8.07966C129.186 8.07966 131.451 7.89548 133.273 7.52712V10.3688C134.367 8.3954 136.307 7.40872 139.092 7.40872C141.175 7.40872 142.646 7.93495 143.505 8.98741C143.896 9.46101 144.182 10.0793 144.364 10.8424C145.015 9.57942 145.874 8.69798 146.942 8.19806C148.035 7.67183 149.337 7.40872 150.847 7.40872C152.93 7.40872 154.401 7.93495 155.26 8.98741C155.65 9.46101 155.937 10.1056 156.119 10.9213C156.301 11.7106 156.392 12.7631 156.392 14.0787V24.7743Z" fill="#3C3C3C"/>
</svg>
