<svg width="806" height="773" viewBox="0 0 806 773" fill="none" xmlns="http://www.w3.org/2000/svg">
<g filter="url(#filter0_i)">
<mask id="mask0" mask-type="alpha" maskUnits="userSpaceOnUse" x="-334" y="125" width="1135" height="810">
<path d="M-133.442 210.425C-84.2293 140.698 -307.223 108.671 -332.645 134.905C-337.973 150.461 -199.726 639.455 -201.691 642.959C-204.147 647.34 -185.918 667.376 -154.048 695.884C-122.178 724.391 -81.2246 762.496 -72.8265 769.173C-64.4284 775.851 -11.3018 827.593 11.9165 846.055L11.917 846.055C35.1362 864.517 121.586 933.255 134.162 933.754C144.223 934.153 710.163 852.25 799.591 808.923C775.819 752.412 623.312 696.312 575.134 684.035C486.274 661.39 426.411 623.166 366.734 595.197C330.2 578.075 229.018 468.856 141.54 483.388C62.4553 496.525 -199.176 303.561 -133.442 210.425Z" fill="#CE5E63" stroke="#FF3A41"/>
</mask>
<g mask="url(#mask0)">
<g filter="url(#filter1_d)">
<path d="M25.7769 186.313C-35.0977 105.19 -205.393 134.074 -282.931 158.656C-313.769 179.127 -377.478 221.106 -385.613 225.256C-395.782 230.443 -396.52 271.987 -388.352 334.686C-380.183 397.385 -371.823 480.196 -368.46 495.446C-365.097 510.697 -357.603 621.644 -348.306 663.807C-339.009 705.971 -304.394 862.963 -285.58 871.33C-270.529 878.024 -173.629 870.278 -127.061 865.569C104.871 793.002 579.061 647.242 620.365 644.736C671.994 641.603 679.427 508.571 622.922 476.766C566.417 444.961 430.562 386.766 248.198 431.886C116.355 464.506 101.87 287.717 25.7769 186.313Z" fill="#DE0B12"/>
<path d="M25.7769 186.313C-35.0977 105.19 -205.393 134.074 -282.931 158.656C-313.769 179.127 -377.478 221.106 -385.613 225.256C-395.782 230.443 -396.52 271.987 -388.352 334.686C-380.183 397.385 -371.823 480.196 -368.46 495.446C-365.097 510.697 -357.603 621.644 -348.306 663.807C-339.009 705.971 -304.394 862.963 -285.58 871.33C-270.529 878.024 -173.629 870.278 -127.061 865.569C104.871 793.002 579.061 647.242 620.365 644.736C671.994 641.603 679.427 508.571 622.922 476.766C566.417 444.961 430.562 386.766 248.198 431.886C116.355 464.506 101.87 287.717 25.7769 186.313Z" stroke="#FF3A41"/>
</g>
<g filter="url(#filter2_d)">
<path d="M205.439 619.604C162.128 598.938 96.5085 649.337 69.1129 677.12C60.5393 692.694 42.7587 724.735 40.2255 728.314C37.0589 732.788 45.7672 750.526 62.8285 775.217C79.8899 799.907 101.399 833.061 106.13 838.758C110.86 844.455 138.113 889.704 151.192 905.455C164.271 921.206 212.97 979.852 222.728 979.173C230.535 978.63 269.76 953.628 288.396 941.195C370.551 858.498 539.084 690.525 555.976 680.204C577.091 667.303 551.346 609.364 520.587 608.58C489.828 607.795 419.841 613.639 352.652 673.612C304.077 716.971 259.578 645.437 205.439 619.604Z" fill="#DE0B12"/>
<path d="M205.439 619.604C162.128 598.938 96.5085 649.337 69.1129 677.12C60.5393 692.694 42.7587 724.735 40.2255 728.314C37.0589 732.788 45.7672 750.526 62.8285 775.217C79.8899 799.907 101.399 833.061 106.13 838.758C110.86 844.455 138.113 889.704 151.192 905.455C164.271 921.206 212.97 979.852 222.728 979.173C230.535 978.63 269.76 953.628 288.396 941.195C370.551 858.498 539.084 690.525 555.976 680.204C577.091 667.303 551.346 609.364 520.587 608.58C489.828 607.795 419.841 613.639 352.652 673.612C304.077 716.971 259.578 645.437 205.439 619.604Z" stroke="#FF3A41"/>
</g>
<g filter="url(#filter3_d)">
<path d="M135.549 589.761C133.293 533.519 47.71 491.772 5.20054 477.929C-15.0197 477.255 -56.6969 475.722 -61.6436 474.979C-67.8268 474.051 -81.0322 492.584 -96.7848 523.541C-112.537 554.499 -134.435 594.605 -137.648 602.577C-140.86 610.55 -171.867 663.09 -180.748 685.132C-189.63 707.174 -222.699 789.245 -216.826 799.079C-212.127 806.947 -166.122 834.627 -143.707 847.484C-16.8517 889.328 241.7 976.054 261.064 988.212C285.268 1003.41 329.835 945.695 314.263 913.142C298.691 880.59 255.589 810.581 159.544 772.287C90.1064 744.601 138.37 660.062 135.549 589.761Z" fill="#DE0B12"/>
<path d="M135.549 589.761C133.293 533.519 47.71 491.772 5.20054 477.929C-15.0197 477.255 -56.6969 475.722 -61.6436 474.979C-67.8268 474.051 -81.0322 492.584 -96.7848 523.541C-112.537 554.499 -134.435 594.605 -137.648 602.577C-140.86 610.55 -171.867 663.09 -180.748 685.132C-189.63 707.174 -222.699 789.245 -216.826 799.079C-212.127 806.947 -166.122 834.627 -143.707 847.484C-16.8517 889.328 241.7 976.054 261.064 988.212C285.268 1003.41 329.835 945.695 314.263 913.142C298.691 880.59 255.589 810.581 159.544 772.287C90.1064 744.601 138.37 660.062 135.549 589.761Z" stroke="#FF3A41"/>
</g>
<g filter="url(#filter4_d)">
<path d="M380.648 636.709C403.498 584.354 509.066 573.582 558.993 574.741C580.591 580.874 625.16 593.379 630.654 594.334C637.521 595.527 644.722 617.449 650.09 651.957C655.459 686.465 663.988 731.669 664.479 740.273C664.97 748.878 678.592 808.873 679.95 832.662C681.307 856.45 686.361 945.024 676.58 952.345C668.755 958.201 610.1 968.94 581.751 973.577C432.564 970.622 127.972 965.963 103.1 970.962C72.0097 977.211 45.9507 907.788 74.2411 882.26C102.532 856.733 173.525 805.051 288.885 801.042C372.286 798.144 352.085 702.153 380.648 636.709Z" fill="#DE0B12"/>
<path d="M380.648 636.709C403.498 584.354 509.066 573.582 558.993 574.741C580.591 580.874 625.16 593.379 630.654 594.334C637.521 595.527 644.722 617.449 650.09 651.957C655.459 686.465 663.988 731.669 664.479 740.273C664.97 748.878 678.592 808.873 679.95 832.662C681.307 856.45 686.361 945.024 676.58 952.345C668.755 958.201 610.1 968.94 581.751 973.577C432.564 970.622 127.972 965.963 103.1 970.962C72.0097 977.211 45.9507 907.788 74.2411 882.26C102.532 856.733 173.525 805.051 288.885 801.042C372.286 798.144 352.085 702.153 380.648 636.709Z" stroke="#FF3A41"/>
</g>
<g filter="url(#filter5_d)">
<path d="M256.485 754.256C204.059 736.57 135.546 803.47 107.843 839.131C100.092 858.179 83.9833 897.389 81.5565 901.845C78.5231 907.415 90.8785 926.547 113.741 952.491C136.604 978.435 165.698 1013.47 171.883 1019.34C178.069 1025.22 215.364 1073.33 232.466 1089.57C249.568 1105.82 313.246 1166.31 324.346 1164.18C333.225 1162.47 374.865 1128.36 394.574 1111.51C477.734 1005.28 648.552 789.274 666.544 775.095C689.034 757.371 651.771 694.505 616.394 697.875C581.018 701.244 501.545 717.659 432.511 795.756C382.601 852.217 322.018 776.365 256.485 754.256Z" fill="#DE0B12"/>
<path d="M256.485 754.256C204.059 736.57 135.546 803.47 107.843 839.131C100.092 858.179 83.9833 897.389 81.5565 901.845C78.5231 907.415 90.8785 926.547 113.741 952.491C136.604 978.435 165.698 1013.47 171.883 1019.34C178.069 1025.22 215.364 1073.33 232.466 1089.57C249.568 1105.82 313.246 1166.31 324.346 1164.18C333.225 1162.47 374.865 1128.36 394.574 1111.51C477.734 1005.28 648.552 789.274 666.544 775.095C689.034 757.371 651.771 694.505 616.394 697.875C581.018 701.244 501.545 717.659 432.511 795.756C382.601 852.217 322.018 776.365 256.485 754.256Z" stroke="#FF3A41"/>
</g>
<g filter="url(#filter6_d)">
<path d="M632.64 687.188C674.411 632.332 760.203 642.869 797.878 654.994C811.564 666.671 839.875 690.597 843.637 692.876C848.34 695.724 843.683 722.321 831.787 762.896C819.892 803.472 805.454 856.948 801.839 866.882C798.224 876.816 780.824 948.289 770.83 975.753C760.836 1003.22 723.624 1105.48 712.743 1111.72C704.038 1116.72 654.166 1116.29 630.318 1115.46C517.508 1079.81 286.549 1008.59 265.195 1008.91C238.501 1009.33 250.755 924.395 284.246 901.359C317.738 878.323 396.043 834.652 486.193 855.031C551.368 869.765 580.427 755.757 632.64 687.188Z" fill="#F8222A"/>
<path d="M632.64 687.188C674.411 632.332 760.203 642.869 797.878 654.994C811.564 666.671 839.875 690.597 843.637 692.876C848.34 695.724 843.683 722.321 831.787 762.896C819.892 803.472 805.454 856.948 801.839 866.882C798.224 876.816 780.824 948.289 770.83 975.753C760.836 1003.22 723.624 1105.48 712.743 1111.72C704.038 1116.72 654.166 1116.29 630.318 1115.46C517.508 1079.81 286.549 1008.59 265.195 1008.91C238.501 1009.33 250.755 924.395 284.246 901.359C317.738 878.323 396.043 834.652 486.193 855.031C551.368 869.765 580.427 755.757 632.64 687.188Z" stroke="#FF3A41"/>
</g>
<g filter="url(#filter7_d)">
<path d="M95.1612 506.074C126.903 572.672 76.5598 651.245 47.4206 682.206C30.0151 690.016 -5.77365 706.284 -9.68506 708.87C-14.5743 712.104 -37.3198 695.002 -69.7599 664.246C-102.2 633.489 -145.539 594.161 -153.15 585.947C-160.761 577.733 -219.58 527.017 -240.621 504.308C-261.663 481.598 -340.009 397.041 -340.734 383.493C-341.314 372.655 -317.394 324.287 -305.362 301.458C-218.725 208.44 -43.0101 17.1663 -33.2469 -3.78561C-21.043 -29.9755 52.8235 22.0872 58.6303 65.5881C64.4372 109.089 68.4594 205.982 6.83125 284.148C-37.7239 340.659 55.4842 422.827 95.1612 506.074Z" fill="#F8222A"/>
<path d="M95.1612 506.074C126.903 572.672 76.5598 651.245 47.4206 682.206C30.0151 690.016 -5.77365 706.284 -9.68506 708.87C-14.5743 712.104 -37.3198 695.002 -69.7599 664.246C-102.2 633.489 -145.539 594.161 -153.15 585.947C-160.761 577.733 -219.58 527.017 -240.621 504.308C-261.663 481.598 -340.009 397.041 -340.734 383.493C-341.314 372.655 -317.394 324.287 -305.362 301.458C-218.725 208.44 -43.0101 17.1663 -33.2469 -3.78561C-21.043 -29.9755 52.8235 22.0872 58.6303 65.5881C64.4372 109.089 68.4594 205.982 6.83125 284.148C-37.7239 340.659 55.4842 422.827 95.1612 506.074Z" stroke="#FF3A41"/>
</g>
<g filter="url(#filter8_d)">
<path d="M20.475 619.091C18.2187 562.85 -67.3642 521.103 -109.874 507.259C-130.094 506.585 -171.771 505.052 -176.718 504.31C-182.901 503.381 -196.106 521.914 -211.859 552.871C-227.612 583.829 -249.51 623.935 -252.722 631.907C-255.934 639.88 -286.941 692.42 -295.822 714.462C-304.704 736.504 -337.774 818.575 -331.9 828.409C-327.201 836.277 -281.197 863.957 -258.782 876.814C-131.926 918.658 126.626 1005.38 145.989 1017.54C170.194 1032.74 214.761 975.025 199.189 942.473C183.617 909.92 140.515 839.911 44.4696 801.617C-24.9679 773.931 23.2954 689.392 20.475 619.091Z" fill="#DE0B12"/>
<path d="M20.475 619.091C18.2187 562.85 -67.3642 521.103 -109.874 507.259C-130.094 506.585 -171.771 505.052 -176.718 504.31C-182.901 503.381 -196.106 521.914 -211.859 552.871C-227.612 583.829 -249.51 623.935 -252.722 631.907C-255.934 639.88 -286.941 692.42 -295.822 714.462C-304.704 736.504 -337.774 818.575 -331.9 828.409C-327.201 836.277 -281.197 863.957 -258.782 876.814C-131.926 918.658 126.626 1005.38 145.989 1017.54C170.194 1032.74 214.761 975.025 199.189 942.473C183.617 909.92 140.515 839.911 44.4696 801.617C-24.9679 773.931 23.2954 689.392 20.475 619.091Z" stroke="#FF3A41"/>
</g>
<g filter="url(#filter9_d)">
<path d="M310.567 620.733C216.977 546.893 65.5 563.5 -35 518L-24.4209 860.353H496C496 860.353 496 755 450.5 706C405 657 408.5 698 310.567 620.733Z" fill="white"/>
</g>
</g>
</g>
<defs>
<filter id="filter0_i" x="-333.316" y="125.316" width="1133.56" height="812.917" filterUnits="userSpaceOnUse" color-interpolation-filters="sRGB">
<feFlood flood-opacity="0" result="BackgroundImageFix"/>
<feBlend mode="normal" in="SourceGraphic" in2="BackgroundImageFix" result="shape"/>
<feColorMatrix in="SourceAlpha" type="matrix" values="0 0 0 0 0 0 0 0 0 0 0 0 0 0 0 0 0 0 127 0" result="hardAlpha"/>
<feOffset dy="4"/>
<feGaussianBlur stdDeviation="10"/>
<feComposite in2="hardAlpha" operator="arithmetic" k2="-1" k3="1"/>
<feColorMatrix type="matrix" values="0 0 0 0 0 0 0 0 0 0 0 0 0 0 0 0 0 0 0.45 0"/>
<feBlend mode="normal" in2="shape" result="effect1_innerShadow"/>
</filter>
<filter id="filter1_d" x="-424.392" y="102.316" width="1117.14" height="802.152" filterUnits="userSpaceOnUse" color-interpolation-filters="sRGB">
<feFlood flood-opacity="0" result="BackgroundImageFix"/>
<feColorMatrix in="SourceAlpha" type="matrix" values="0 0 0 0 0 0 0 0 0 0 0 0 0 0 0 0 0 0 127 0"/>
<feOffset/>
<feGaussianBlur stdDeviation="15"/>
<feColorMatrix type="matrix" values="0 0 0 0 0 0 0 0 0 0 0 0 0 0 0 0 0 0 0.35 0"/>
<feBlend mode="normal" in2="BackgroundImageFix" result="effect1_dropShadow"/>
<feBlend mode="normal" in="SourceGraphic" in2="effect1_dropShadow" result="shape"/>
</filter>
<filter id="filter2_d" x="9.11133" y="577.99" width="585.043" height="431.714" filterUnits="userSpaceOnUse" color-interpolation-filters="sRGB">
<feFlood flood-opacity="0" result="BackgroundImageFix"/>
<feColorMatrix in="SourceAlpha" type="matrix" values="0 0 0 0 0 0 0 0 0 0 0 0 0 0 0 0 0 0 127 0"/>
<feOffset/>
<feGaussianBlur stdDeviation="15"/>
<feColorMatrix type="matrix" values="0 0 0 0 0 0 0 0 0 0 0 0 0 0 0 0 0 0 0.35 0"/>
<feBlend mode="normal" in2="BackgroundImageFix" result="effect1_dropShadow"/>
<feBlend mode="normal" in="SourceGraphic" in2="effect1_dropShadow" result="shape"/>
</filter>
<filter id="filter3_d" x="-248.018" y="444.441" width="596.005" height="576.774" filterUnits="userSpaceOnUse" color-interpolation-filters="sRGB">
<feFlood flood-opacity="0" result="BackgroundImageFix"/>
<feColorMatrix in="SourceAlpha" type="matrix" values="0 0 0 0 0 0 0 0 0 0 0 0 0 0 0 0 0 0 127 0"/>
<feOffset/>
<feGaussianBlur stdDeviation="15"/>
<feColorMatrix type="matrix" values="0 0 0 0 0 0 0 0 0 0 0 0 0 0 0 0 0 0 0.35 0"/>
<feBlend mode="normal" in2="BackgroundImageFix" result="effect1_dropShadow"/>
<feBlend mode="normal" in="SourceGraphic" in2="effect1_dropShadow" result="shape"/>
</filter>
<filter id="filter4_d" x="31.6416" y="544.141" width="681.304" height="459.955" filterUnits="userSpaceOnUse" color-interpolation-filters="sRGB">
<feFlood flood-opacity="0" result="BackgroundImageFix"/>
<feColorMatrix in="SourceAlpha" type="matrix" values="0 0 0 0 0 0 0 0 0 0 0 0 0 0 0 0 0 0 127 0"/>
<feOffset/>
<feGaussianBlur stdDeviation="15"/>
<feColorMatrix type="matrix" values="0 0 0 0 0 0 0 0 0 0 0 0 0 0 0 0 0 0 0.35 0"/>
<feBlend mode="normal" in2="BackgroundImageFix" result="effect1_dropShadow"/>
<feBlend mode="normal" in="SourceGraphic" in2="effect1_dropShadow" result="shape"/>
</filter>
<filter id="filter5_d" x="50.626" y="667.223" width="653.229" height="527.531" filterUnits="userSpaceOnUse" color-interpolation-filters="sRGB">
<feFlood flood-opacity="0" result="BackgroundImageFix"/>
<feColorMatrix in="SourceAlpha" type="matrix" values="0 0 0 0 0 0 0 0 0 0 0 0 0 0 0 0 0 0 127 0"/>
<feOffset/>
<feGaussianBlur stdDeviation="15"/>
<feColorMatrix type="matrix" values="0 0 0 0 0 0 0 0 0 0 0 0 0 0 0 0 0 0 0.35 0"/>
<feBlend mode="normal" in2="BackgroundImageFix" result="effect1_dropShadow"/>
<feBlend mode="normal" in="SourceGraphic" in2="effect1_dropShadow" result="shape"/>
</filter>
<filter id="filter6_d" x="220.154" y="614.787" width="655.797" height="531.677" filterUnits="userSpaceOnUse" color-interpolation-filters="sRGB">
<feFlood flood-opacity="0" result="BackgroundImageFix"/>
<feColorMatrix in="SourceAlpha" type="matrix" values="0 0 0 0 0 0 0 0 0 0 0 0 0 0 0 0 0 0 127 0"/>
<feOffset/>
<feGaussianBlur stdDeviation="15"/>
<feColorMatrix type="matrix" values="0 0 0 0 0 0 0 0 0 0 0 0 0 0 0 0 0 0 0.35 0"/>
<feBlend mode="normal" in2="BackgroundImageFix" result="effect1_dropShadow"/>
<feBlend mode="normal" in="SourceGraphic" in2="effect1_dropShadow" result="shape"/>
</filter>
<filter id="filter7_d" x="-371.228" y="-41.3516" width="507.008" height="781.127" filterUnits="userSpaceOnUse" color-interpolation-filters="sRGB">
<feFlood flood-opacity="0" result="BackgroundImageFix"/>
<feColorMatrix in="SourceAlpha" type="matrix" values="0 0 0 0 0 0 0 0 0 0 0 0 0 0 0 0 0 0 127 0"/>
<feOffset/>
<feGaussianBlur stdDeviation="15"/>
<feColorMatrix type="matrix" values="0 0 0 0 0 0 0 0 0 0 0 0 0 0 0 0 0 0 0.35 0"/>
<feBlend mode="normal" in2="BackgroundImageFix" result="effect1_dropShadow"/>
<feBlend mode="normal" in="SourceGraphic" in2="effect1_dropShadow" result="shape"/>
</filter>
<filter id="filter8_d" x="-363.092" y="473.771" width="596.005" height="576.774" filterUnits="userSpaceOnUse" color-interpolation-filters="sRGB">
<feFlood flood-opacity="0" result="BackgroundImageFix"/>
<feColorMatrix in="SourceAlpha" type="matrix" values="0 0 0 0 0 0 0 0 0 0 0 0 0 0 0 0 0 0 127 0"/>
<feOffset/>
<feGaussianBlur stdDeviation="15"/>
<feColorMatrix type="matrix" values="0 0 0 0 0 0 0 0 0 0 0 0 0 0 0 0 0 0 0.35 0"/>
<feBlend mode="normal" in2="BackgroundImageFix" result="effect1_dropShadow"/>
<feBlend mode="normal" in="SourceGraphic" in2="effect1_dropShadow" result="shape"/>
</filter>
<filter id="filter9_d" x="-65" y="488" width="591" height="402.353" filterUnits="userSpaceOnUse" color-interpolation-filters="sRGB">
<feFlood flood-opacity="0" result="BackgroundImageFix"/>
<feColorMatrix in="SourceAlpha" type="matrix" values="0 0 0 0 0 0 0 0 0 0 0 0 0 0 0 0 0 0 127 0"/>
<feOffset/>
<feGaussianBlur stdDeviation="15"/>
<feColorMatrix type="matrix" values="0 0 0 0 0 0 0 0 0 0 0 0 0 0 0 0 0 0 0.35 0"/>
<feBlend mode="normal" in2="BackgroundImageFix" result="effect1_dropShadow"/>
<feBlend mode="normal" in="SourceGraphic" in2="effect1_dropShadow" result="shape"/>
</filter>
</defs>
</svg>
