<svg width="24" height="24" viewBox="0 0 24 24" fill="none" xmlns="http://www.w3.org/2000/svg">
<path fill-rule="evenodd" clip-rule="evenodd" d="M12.1133 22.9972C17.9095 22.9972 22.6133 18.2838 22.6133 12.4634C22.6133 6.64304 17.9095 1.92969 12.1133 1.92969C6.31705 1.92969 1.61328 6.64304 1.61328 12.4634C1.61328 18.2838 6.31705 22.9972 12.1133 22.9972ZM12.1133 23.9972C18.4646 23.9972 23.6133 18.8333 23.6133 12.4634C23.6133 6.09352 18.4646 0.929688 12.1133 0.929688C5.76201 0.929688 0.613281 6.09352 0.613281 12.4634C0.613281 18.8333 5.76201 23.9972 12.1133 23.9972Z" fill="#F40009"/>
<path fill-rule="evenodd" clip-rule="evenodd" d="M15.8174 9.89754V11.6412H17.8688V9.89754H19.6133V7.84766L17.8685 7.84738V6.10371H15.8172V7.84738H14.0727V8.64572C14.0548 8.57477 14.0351 8.50494 14.0133 8.43636C14.0133 8.43638 14.0133 8.43635 14.0133 8.43636C14.0049 8.4099 13.9961 8.38358 13.9871 8.3575C13.9376 8.21413 13.879 8.07674 13.8107 7.9469L15.7329 5.92969H10.5771C8.35077 5.92969 6.46972 7.55901 6.46933 9.4879C6.46933 9.4877 6.46933 9.4881 6.46933 9.4879C6.46933 10.98 7.23571 12.1419 8.44812 12.6516C8.65017 12.7366 8.86462 12.8034 9.08997 12.8507C9.22196 12.8784 9.3577 12.8994 9.49688 12.9133C9.49249 12.9644 9.49043 13.0154 9.49041 13.0659C9.49041 13.0657 9.49041 13.0661 9.49041 13.0659C9.49041 13.0691 9.49042 13.0729 9.49044 13.0761C9.49092 13.1644 9.49792 13.2479 9.5104 13.3271C9.51896 13.3813 9.53009 13.4335 9.54346 13.4838C9.50839 13.4863 9.47349 13.4893 9.43878 13.4926C9.33497 13.5024 9.23276 13.5152 9.13223 13.5308C8.93351 13.5618 8.7413 13.604 8.55612 13.6562C8.50504 13.6706 8.45449 13.6858 8.40448 13.7017C6.68784 14.2484 5.61343 15.6713 5.61328 17.0196C5.61328 17.0195 5.61328 17.0197 5.61328 17.0196C5.61328 18.7326 7.52161 19.9297 10.2536 19.9297C10.2536 19.9297 10.2536 19.9297 10.2536 19.9297C13.1547 19.9297 14.8884 18.1819 14.8884 16.4925C14.8884 16.4926 14.8884 16.4924 14.8884 16.4925C14.8883 15.0903 14.4899 14.3639 13.1839 13.3848L13.1034 13.3248L13.1016 13.3234C12.946 13.2079 12.5244 12.8948 12.3538 12.6928C12.3351 12.6707 12.3195 12.65 12.3075 12.6309C12.3143 12.4887 12.3708 12.3918 12.8388 12.0266C13.4725 11.5313 13.8909 10.9466 14.0752 10.3083C14.1141 10.1737 14.1425 10.0366 14.1605 9.89754H15.8174ZM14.662 9.30829H16.4065V11.0519H17.2791V9.30829H19.0236V8.43659L17.2791 8.43632V6.6927H16.4065V8.43632H14.662V9.30829ZM13.5134 7.40503L14.3579 6.5186L10.5771 6.51803C10.5771 6.51803 10.5772 6.51803 10.5771 6.51803C10.3896 6.51804 10.2048 6.53156 10.0246 6.5574C10.0224 6.55771 10.0202 6.55803 10.018 6.55835C9.99983 6.56098 9.98172 6.56374 9.96365 6.56663C9.74266 6.60189 9.52834 6.65567 9.32292 6.72574C8.63154 6.96158 8.04101 7.38196 7.63658 7.90198C7.27225 8.37044 7.05894 8.91976 7.05894 9.4879C7.05894 9.4881 7.05894 9.4877 7.05894 9.4879C7.05916 10.7953 7.77034 11.8852 9.02731 12.2303C9.08914 12.2472 9.1523 12.2624 9.21676 12.2757C9.32603 12.2983 9.43903 12.3155 9.55569 12.327C9.6715 12.3385 9.7909 12.3444 9.91381 12.3444C10.0396 12.3444 10.161 12.3379 10.2807 12.3293C10.2179 12.4495 10.1647 12.577 10.1288 12.7098C10.1065 12.7926 10.0909 12.8774 10.0839 12.9638C10.0814 12.9948 10.0799 13.026 10.0797 13.0573C10.0797 13.0602 10.0797 13.063 10.0797 13.0659C10.0797 13.0661 10.0797 13.0657 10.0797 13.0659C10.0797 13.1628 10.0915 13.2511 10.113 13.3322C10.1138 13.3349 10.1145 13.3376 10.1152 13.3403C10.1317 13.4003 10.1536 13.4566 10.18 13.5103C10.2347 13.6215 10.309 13.7213 10.3957 13.8187C10.4105 13.8354 10.4258 13.852 10.4413 13.8686C10.4437 13.8711 10.4461 13.8737 10.4485 13.8762C10.5035 13.9345 10.5624 13.9924 10.6237 14.0521C10.5637 14.0521 10.5043 14.0525 10.4448 14.0531C10.4431 14.0531 10.4414 14.0531 10.4396 14.0531C10.425 14.0533 10.4103 14.0535 10.3957 14.0536C10.3605 14.054 10.3252 14.0545 10.2898 14.055C10.1752 14.0565 10.059 14.058 9.93765 14.058C9.81877 14.058 9.70181 14.0624 9.58693 14.071C9.51028 14.0767 9.43456 14.0843 9.3598 14.0937C8.41697 14.212 7.62712 14.6141 7.07324 15.1518C6.52032 15.6885 6.20257 16.3603 6.20257 17.0196C6.20257 17.0197 6.20257 17.0195 6.20257 17.0196C6.20271 17.848 6.82647 18.4964 7.7791 18.8947C8.46671 19.1821 9.32565 19.3395 10.2451 19.3404C10.2479 19.3404 10.2507 19.3404 10.2536 19.3404C10.2536 19.3404 10.2536 19.3404 10.2536 19.3404C12.0996 19.3404 13.422 18.5691 13.9898 17.5916C14.1924 17.2429 14.2989 16.868 14.299 16.4925C14.299 16.4924 14.299 16.4926 14.299 16.4925C14.299 15.3477 14.0519 14.7717 12.8316 13.8567C12.8313 13.8565 12.831 13.8562 12.8307 13.856C12.8305 13.8559 12.8308 13.8561 12.8307 13.856C12.8067 13.8381 12.7804 13.8186 12.7529 13.7982C12.7527 13.798 12.7532 13.7984 12.7529 13.7982C12.7525 13.7979 12.7515 13.7971 12.7511 13.7968C12.4626 13.5828 12.0048 13.2429 11.8098 12.9443C11.7517 12.8553 11.717 12.77 11.717 12.6928C11.717 12.6617 11.7176 12.6318 11.7191 12.6029C11.7201 12.5835 11.7214 12.5646 11.7231 12.546C11.7543 12.2134 11.9161 11.9991 12.4761 11.562C12.6447 11.4302 12.801 11.2873 12.9396 11.1339C13.277 10.7605 13.5117 10.3232 13.5761 9.82229C13.5878 9.73101 13.5939 9.63762 13.5939 9.54211C13.5939 9.32061 13.5718 9.10412 13.5283 8.89754C13.5241 8.8777 13.5197 8.85795 13.5151 8.8383C13.5113 8.82171 13.5073 8.80519 13.5031 8.78874C13.491 8.74044 13.4776 8.69274 13.463 8.64572C13.4409 8.57429 13.416 8.50443 13.3884 8.43636C13.3841 8.42587 13.3798 8.41543 13.3754 8.40503C13.3489 8.34212 13.32 8.28081 13.2887 8.22127C13.2261 8.10184 13.154 7.98955 13.0727 7.88592C12.9848 7.77393 12.8861 7.67204 12.7769 7.58217C12.7501 7.56005 12.7225 7.53866 12.6944 7.51803C12.6389 7.47735 12.581 7.43961 12.5206 7.40503H13.5134ZM8.48086 9.4654C8.58466 10.2523 8.96276 10.8996 9.46409 11.3053C9.60534 11.4196 9.75637 11.5148 9.91381 11.5884C10.0188 11.6375 10.1266 11.6771 10.2363 11.7064C10.3702 11.7422 10.5069 11.7628 10.6445 11.7669C10.6444 11.7669 10.6445 11.7669 10.6445 11.7669C10.6488 11.7671 10.6532 11.7672 10.6574 11.7673C10.6689 11.7675 10.6803 11.7675 10.6919 11.7675C10.6934 11.7675 10.695 11.7675 10.6965 11.7675C10.6965 11.7675 10.6966 11.7675 10.6965 11.7675C10.7792 11.7675 10.8592 11.7615 10.9358 11.7498C11.2456 11.7022 11.5037 11.5602 11.698 11.3392C11.6978 11.3394 11.6981 11.3391 11.698 11.3392C11.731 11.3016 11.7626 11.2613 11.7919 11.2191C11.8578 11.1243 11.9141 11.0182 11.9599 10.9017C11.9599 10.902 11.96 10.9015 11.9599 10.9017C11.995 10.8126 12.0243 10.7168 12.0469 10.616C12.1128 10.3221 12.1245 9.97998 12.0745 9.59922C11.9884 8.94447 11.7352 8.34661 11.3796 7.90389C11.2618 7.7571 11.1326 7.6273 10.9946 7.51803C10.8629 7.41376 10.723 7.32819 10.5771 7.26439C10.4042 7.18877 10.2228 7.14372 10.0363 7.13438C10.0268 7.13391 10.0173 7.13352 10.0078 7.13323C10.008 7.13324 10.0076 7.13323 10.0078 7.13323C10.0058 7.1332 10.0032 7.13314 10.0012 7.1331C9.99958 7.13307 9.99797 7.13304 9.99637 7.13301C9.98757 7.13284 9.97885 7.13269 9.97014 7.13264C9.96798 7.13263 9.96581 7.13262 9.96365 7.13262C9.96377 7.13262 9.96352 7.13262 9.96365 7.13262C9.55095 7.13273 9.19513 7.30738 8.93294 7.60593C8.93306 7.6058 8.93283 7.60606 8.93294 7.60593C8.75047 7.81385 8.61285 8.08222 8.53292 8.39314C8.45109 8.71149 8.42943 9.07532 8.48086 9.4654ZM9.96397 7.72165C9.96386 7.72165 9.96408 7.72165 9.96397 7.72165C9.73278 7.72201 9.53481 7.81388 9.37578 7.99492C9.10681 8.30169 8.9907 8.82213 9.06511 9.38791C9.19625 10.3851 9.8829 11.1553 10.6621 11.1786L10.6965 11.1789C10.6966 11.1789 10.6965 11.1789 10.6965 11.1789C10.9374 11.1788 11.1204 11.1043 11.2552 10.9506C11.4774 10.6971 11.5629 10.2327 11.4901 9.67554C11.3517 8.62203 10.6822 7.74769 9.99625 7.72213C9.99423 7.72205 9.99156 7.72198 9.98954 7.72192L9.96397 7.72165ZM11.767 14.8997C11.6788 14.8401 11.5878 14.7786 11.4946 14.7146C11.4697 14.6975 11.4446 14.6801 11.4194 14.6626C11.387 14.6522 11.3543 14.6422 11.3213 14.6326C11.1031 14.5698 10.8698 14.528 10.6237 14.5122C10.5617 14.5082 10.499 14.5059 10.4355 14.5053C10.435 14.5053 10.4346 14.5053 10.4342 14.5053C10.4344 14.5053 10.434 14.5053 10.4342 14.5053C10.4232 14.5051 10.4117 14.5051 10.4007 14.5051C10.399 14.5051 10.3974 14.5051 10.3958 14.5051C10.3958 14.5051 10.3957 14.5051 10.3958 14.5051C10.322 14.5051 10.2488 14.5074 10.1763 14.512C10.0958 14.5171 10.0162 14.5249 9.93765 14.5354C9.86656 14.5449 9.7963 14.5565 9.72701 14.5702C8.88912 14.7356 8.19118 15.2014 7.85168 15.7941C7.7092 16.0429 7.62985 16.314 7.62979 16.5947C7.62979 16.5946 7.62979 16.5948 7.62979 16.5947C7.62979 17.1419 7.87627 17.6459 8.29731 18.0244C8.76444 18.4442 9.44644 18.71 10.2451 18.71C10.2451 18.71 10.2451 18.71 10.2451 18.71C10.2479 18.71 10.2508 18.71 10.2536 18.71C12.0592 18.708 12.8676 18.0591 13.0712 17.1587C13.1076 16.9977 13.1247 16.8287 13.1247 16.6539C13.1247 16.654 13.1247 16.6538 13.1247 16.6539C13.1247 16.5194 13.1079 16.3873 13.0794 16.26C13.0784 16.2555 13.0774 16.2511 13.0764 16.2467C13.0764 16.2467 13.0764 16.2466 13.0764 16.2467C12.9504 15.7532 12.54 15.4283 11.9914 15.0521C11.9192 15.0025 11.8438 14.9516 11.767 14.8997ZM11.2304 15.2467C11.207 15.2307 11.1835 15.2146 11.1599 15.1982C11.1285 15.1892 11.0968 15.1808 11.065 15.173C10.8609 15.1228 10.6481 15.0961 10.4301 15.094C10.4296 15.094 10.4292 15.0939 10.4288 15.0939L10.3958 15.0937C10.3957 15.0937 10.3958 15.0937 10.3958 15.0937C9.25683 15.0937 8.21922 15.8093 8.21922 16.5947C8.21922 16.5948 8.21922 16.5946 8.21922 16.5947C8.21944 17.4503 9.10927 18.1207 10.2451 18.1207C10.2451 18.1207 10.2451 18.1207 10.2451 18.1207C12.5347 18.1207 12.5354 17.0171 12.5354 16.6539C12.5354 16.6538 12.5354 16.654 12.5354 16.6539C12.5354 16.5669 12.5242 16.4742 12.5054 16.3924C12.5054 16.3923 12.5054 16.3925 12.5054 16.3924C12.5043 16.3881 12.5031 16.3835 12.5019 16.3792C12.4126 16.059 12.0553 15.8049 11.4375 15.3872C11.4181 15.3741 11.3987 15.3609 11.3791 15.3477C11.3303 15.3147 11.2807 15.2811 11.2304 15.2467Z" fill="#F40009"/>
</svg>
