<?xml version="1.0" encoding="utf-8"?>
<!-- Generator: Adobe Illustrator 18.0.0, SVG Export Plug-In . SVG Version: 6.00 Build 0)  -->
<!DOCTYPE svg PUBLIC "-//W3C//DTD SVG 1.1//EN" "http://www.w3.org/Graphics/SVG/1.1/DTD/svg11.dtd">
<svg version="1.1" id="Layer_1" xmlns="http://www.w3.org/2000/svg" xmlns:xlink="http://www.w3.org/1999/xlink" x="0px" y="0px"
	 viewBox="384.3 283.1 73.3 29" enable-background="new 384.3 283.1 73.3 29" xml:space="preserve">
<g>
	<g>
		<g>
			<g>
				<g>
					<g>
						<g>
							<path fill="#ED1C24" d="M439.5,306.3c-0.4,0.4-0.9,0.7-1.4,0.7c-0.2,0-0.4,0-0.6,0c0.1-0.1,0.2-0.3,0.3-0.4
								c0.8,0.1,1.5-0.3,2.1-0.8l0,0C439.9,306,439.7,306.2,439.5,306.3z"/>
							<path fill="#ED1C24" d="M431.5,307.4L431.5,307.4H431v-0.1l0.2-0.3h0.1h0.4c0,0,0,0,0,0.1L431.5,307.4z"/>
							<path fill="#ED1C24" d="M430.2,311c-0.4-0.2-0.8-0.3-1.2-0.4c-0.2,0-0.5,0-0.7,0.3l-0.1,0.1c-0.5-0.7-1.4-0.6-2.1-0.4
								c-0.6,0.1-1.2,0.3-1.8,0.4c-0.5,0-1.1-0.1-1.3-0.6c-0.3-0.6-0.1-1.4,0.1-1.9c0.4-0.9,1.1-1.7,2-2.3c0.4-0.2,0.8-0.4,1.3-0.4
								c0.1,0,0.2,0.1,0.3,0.2c0.1,0.3,0,0.5-0.2,0.7c-0.1,0.1-0.2,0.1-0.3,0.1l-0.1-0.1c0-0.2,0.1-0.3,0.2-0.4c0.1,0,0.1,0,0.2,0
								c0-0.1,0-0.1,0-0.2c-0.1-0.1-0.2-0.1-0.3-0.1c-0.5,0.2-0.9,0.6-1.3,1c-0.6,0.7-1.2,1.5-1.3,2.4c-0.1,0.4,0,0.8,0.3,1.1
								c0.7,0.5,1.6,0.1,2.3,0c1-0.2,2.2-0.6,3.2,0C429.7,310.5,430,310.7,430.2,311L430.2,311z"/>
							<path fill="#ED1C24" d="M429.7,309v0.1h0.1c0.3-0.2,0.5-0.5,0.8-0.8h0.1v0.1c-0.3,0.4-0.6,0.8-1,1.1
								c-0.1,0.1-0.3,0.2-0.4,0.1s-0.1-0.2-0.1-0.3v-0.2l0,0c-0.2,0.2-0.4,0.5-0.8,0.4c-0.1,0-0.2-0.2-0.2-0.3c0-0.2,0-0.3,0.1-0.4
								l0,0c-0.4,0.3-0.8,0.8-1.3,0.7c-0.1,0-0.2-0.1-0.3-0.3c-0.1-0.4,0-0.8,0.2-1.1l0.1-0.1l0,0c-0.1,0-0.2,0.1-0.3,0.1
								c-0.2,0.3-0.3,0.6-0.6,0.8c-0.3,0.3-0.5,0.6-0.9,0.6c-0.1,0-0.3,0-0.3-0.1c-0.2-0.3,0-0.7,0.1-1c0.3-0.6,0.8-1.2,1.4-1.5
								c0.2-0.1,0.3-0.1,0.5,0c0.1,0.1,0.2,0.3,0.1,0.5c0,0.2-0.1,0.3-0.2,0.5h0.1c0.5-0.2,0.8-0.7,1.3-0.9c0.1-0.1,0.3-0.1,0.5,0
								c0.1,0.1,0.2,0.2,0.2,0.3c0,0.3-0.1,0.5-0.4,0.6c-0.1,0-0.1,0-0.1-0.1s0-0.3,0.1-0.3c0.1-0.1,0.1-0.1,0.2-0.1v-0.1
								c0,0,0-0.1-0.1-0.1s-0.2,0-0.3,0.1c-0.5,0.4-0.8,0.9-1,1.4c0,0.1-0.1,0.3,0,0.4c0,0.1,0.1,0.1,0.2,0.1c0.2,0,0.3-0.1,0.4-0.2
								c0.7-0.6,1.1-1.5,1.9-1.9c0.2-0.1,0.4-0.1,0.5,0c0,0,0,0.1,0.1,0.1l0.1-0.1h0.4c0,0,0,0,0,0.1L429.7,309z M430.1,307.3
								C430.1,307.3,430.1,307.2,430.1,307.3c-0.3-0.1-0.5,0.1-0.6,0.3c-0.3,0.4-0.6,0.8-0.8,1.3c0,0.1,0,0.2,0,0.2h0.1
								c0.2-0.1,0.4-0.4,0.5-0.6C429.7,308.1,429.9,307.7,430.1,307.3z M426.6,307.7c0.1-0.2,0.1-0.4,0-0.5s-0.2,0-0.3,0
								c-0.1,0.1-0.3,0.3-0.2,0.5c0,0.1,0.2,0.2,0.3,0.3h0.1L426.6,307.7z M426.4,308.2C426.4,308.1,426.4,308.1,426.4,308.2
								c-0.2-0.1-0.4-0.2-0.5-0.4l0,0c-0.2,0.3-0.4,0.5-0.5,0.8c0,0.1-0.1,0.3,0,0.5c0.1,0.1,0.2,0,0.2,0c0.2-0.1,0.4-0.3,0.5-0.5
								L426.4,308.2z"/>
							<path fill="#ED1C24" d="M437,306.9c-0.4-0.2-0.9-0.5-1.3-0.7c-0.2-0.1-0.4-0.2-0.6-0.1l0,0c0,0.3-0.1,0.7-0.2,0.9
								c-0.2,0.4-0.5,0.7-0.9,0.8c-0.1,0-0.2,0-0.3-0.1c-0.1-0.2,0-0.4,0.1-0.6c0.2-0.4,0.6-0.9,1.1-1.1l0,0c-0.2-0.1-0.3,0-0.4,0.1
								c-0.8,0.4-1.4,1.1-1.9,1.8c-0.5,0.7-0.9,1.3-1,2.2c0,0.2,0,0.5,0.3,0.6c0.3,0.2,0.6,0,0.8-0.2c0.4-0.4,0.8-0.9,0.8-1.5
								c0-0.1,0-0.2-0.1-0.3c-0.2,0-0.3,0.1-0.4,0.3s-0.2,0.4-0.3,0.6c-0.1,0.1-0.2,0.1-0.2,0.1c-0.2,0.1-0.3,0.2-0.4,0.3l0,0
								c0-0.2,0.1-0.5,0.2-0.7c0.2-0.4,0.6-0.8,1.1-0.9c0.1,0,0.2,0.1,0.3,0.2c0.1,0.2,0,0.5,0,0.7c-0.3,0.7-0.8,1.3-1.4,1.6
								c-0.3,0.1-0.7,0.1-1-0.1c-0.3-0.3-0.3-0.9-0.2-1.4c0.2-0.7,0.7-1.4,1.1-1.9c0.6-0.7,1.4-1.4,2.3-1.7c0.2-0.1,0.5-0.1,0.7,0.1
								c0.1,0,0.2-0.1,0.3-0.1c0.4-0.1,0.8,0,1.2,0.1c0.3,0.2,0.6,0.3,1,0.5C437.3,306.6,437.1,306.7,437,306.9z M434.9,306.3
								c0-0.1,0-0.2,0-0.2c-0.5,0.2-0.9,0.7-1.1,1.2c0,0.1-0.1,0.3,0,0.4c0,0,0.1,0,0.2,0c0.2-0.1,0.4-0.2,0.5-0.4
								C434.7,307,434.8,306.7,434.9,306.3z"/>
							<path fill="#ED1C24" d="M438.2,309.7c-0.1,0.2-0.3,0.4-0.4,0.6v0.1h0.1c0.3-0.2,0.5-0.5,0.8-0.8h0.1v0.1
								c-0.3,0.5-0.7,1-1.2,1.2c-0.1,0-0.2,0-0.3-0.1c-0.1-0.1-0.1-0.2,0-0.4l0,0c-0.2,0.2-0.4,0.4-0.6,0.4c-0.1,0-0.2,0-0.3-0.1
								c-0.1-0.1-0.1-0.3-0.1-0.5l0,0c-0.2,0.2-0.4,0.4-0.7,0.5c-0.1,0-0.2,0-0.3-0.1c-0.2-0.2-0.1-0.5,0-0.7c0-0.2,0.1-0.4,0.2-0.6
								l0,0c-0.1,0-0.2,0-0.3,0c-0.3,0.5-0.7,1-1.2,1.3c-0.1,0.1-0.3,0.1-0.4,0c-0.2-0.1-0.2-0.3-0.2-0.5c0-0.3,0.2-0.6,0.3-0.9
								c0.3-0.5,0.7-1,1.2-1.2c0.1-0.1,0.3-0.1,0.4,0c0.2,0.1,0.2,0.3,0.1,0.5c0,0.2-0.1,0.4-0.2,0.5h0.1c0.1,0,0.2,0,0.2-0.1
								c0.6-1.2,1.4-2.5,2.6-3.3c0.2-0.1,0.4-0.3,0.7-0.2l0.1,0.1c0,0.2-0.1,0.4-0.2,0.6h-0.1V306c0.1-0.2,0.2-0.3,0.2-0.5
								c0,0,0,0-0.1,0c-0.3,0.1-0.4,0.3-0.6,0.5c-0.7,0.6-1.1,1.4-1.6,2.2c-0.1,0.1-0.2,0.3-0.2,0.4c0.1,0,0.2-0.1,0.3-0.2
								c0.6-0.5,1.2-1.1,1.6-1.7h0.1v0.1c-0.6,0.8-1.4,1.6-2.2,2.1c-0.1,0.3-0.3,0.6-0.3,1c0,0.1,0,0.2,0,0.2h0.1
								c0.3-0.1,0.4-0.4,0.6-0.6c0.4-0.5,0.8-1.2,1.4-1.5c0.1-0.1,0.3-0.1,0.5,0c0.1,0,0.1,0.1,0.1,0.1c0.1,0,0.1-0.2,0.2-0.2h0.4
								c0,0,0,0,0,0.1L438.2,309.7z M435.2,308.9c0-0.1,0-0.3-0.1-0.4c-0.1,0-0.2,0-0.2,0c-0.2,0.1-0.3,0.3-0.3,0.5
								c0,0.1,0.1,0.3,0.3,0.3h0.1C435.1,309.2,435.1,309.1,435.2,308.9z M434.9,309.5c-0.2-0.1-0.4-0.2-0.5-0.4l0,0
								c-0.2,0.3-0.4,0.6-0.5,0.9c0,0.1-0.1,0.3,0,0.4c0,0,0.1,0.1,0.2,0.1c0.2-0.1,0.4-0.3,0.6-0.5
								C434.7,309.8,434.8,309.7,434.9,309.5z M438.2,308.6c-0.1,0-0.2,0-0.2,0.1c-0.4,0.3-0.7,0.7-0.9,1.2
								c-0.1,0.2-0.2,0.4-0.2,0.6c0,0,0,0.1,0.1,0.1s0.2-0.1,0.3-0.1c0.4-0.5,0.7-1.1,1-1.6C438.3,308.7,438.2,308.6,438.2,308.6z"
								/>
						</g>
					</g>
				</g>
			</g>
		</g>
	</g>
	<g>
		<g>
			<path fill="#ED1C24" d="M418.1,301.3c-0.4-2.5-0.9-5.1-1.3-7.6c-1.1,0-1.6,0-2.7,0.1c0,4,0,8,0,12c0.7-0.1,1.1-0.2,1.8-0.3
				c0-2.9,0-4.4,0-7.3c0.5,2.9,0.7,4.3,1.2,7.1c0.8-0.1,1.1-0.1,1.9-0.2c0.5-2.9,0.7-4.3,1.1-7.2c0,2.8,0,4.2,0,7
				c0.8-0.1,1.2-0.1,1.9-0.2c0-3.7,0-7.5,0-11.2c-1.1,0-1.6,0-2.7,0C418.9,296.2,418.5,298.7,418.1,301.3z"/>
			<path fill="#ED1C24" d="M426.3,297.3c-0.1,0.8-0.2,1.3-0.4,2.1c-0.2-0.8-0.3-1.3-0.5-2.1c-0.4-1.5-0.6-2.2-1-3.8
				c-0.8,0-1.2,0-2,0c0.9,2.8,1.7,5.6,2.6,8.4c0,0,0,0,0,0.1c-0.1,0.6-0.5,0.9-1.2,0.9c-0.1,0-0.2,0-0.3,0h-0.1c0,0.7,0,1,0,1.7
				c0,0,0,0,0.1,0c0.2,0,0.4,0,0.5,0c2.2-0.1,2.9-1.2,3.3-3c0.7-2.7,1.3-5.4,2-8.2c-0.8,0-1.3,0-2.1,0
				C426.8,295,426.6,295.8,426.3,297.3z"/>
			<path fill="#ED1C24" d="M431.9,293.4c-1.8,0-2.8,1-2.8,2.8c0,0.3,0,0.5,0,0.9c0.7,0,1.1,0,1.9,0c0-0.4,0-0.6,0-1
				c0-0.7,0.3-1,0.9-1c0.5,0,0.9,0.1,0.9,1.2c0,0.2,0,0.4,0,0.6c0,0.7-0.3,1.1-1,1.1c-0.3,0-0.4,0-0.6,0c0,0.7,0,1,0,1.7
				c0.2,0,0.3,0,0.5,0c0.8,0,1.1,0.4,1.1,1.3c0,0.3,0,0.5,0,0.8c0,1-0.4,1.1-0.9,1.1c-0.6,0-0.9-0.3-0.9-1c0-0.5,0-0.8,0-1.4
				c-0.8,0-1.2,0-1.9,0c0,0.5,0,0.8,0,1.3c0,1.8,1,2.8,2.9,2.8c1.8,0,2.9-0.9,2.9-2.7c0-0.3,0-0.5,0-0.8c0-1.1-0.4-1.9-1.2-2.3
				c0.8-0.4,1.2-1.1,1.2-2.2c0-0.1,0-0.2,0-0.3C434.7,294.4,433.7,293.4,431.9,293.4z"/>
			<path fill="#ED1C24" d="M435.5,304.5c2.1,0.1,3.1,0.2,5.2,0.4c0-0.7,0-1,0-1.7c-1.3-0.1-1.9-0.1-3.2-0.2c0-1.2,0-1.8,0-3
				c1,0,1.5,0.1,2.5,0.1c0-0.7,0-1,0-1.7c-1,0-1.5-0.1-2.5-0.1c0-1.2,0-1.7,0-2.9c1.3,0,1.9,0,3.2,0.1c0-0.7,0-1,0-1.7
				c-2.1,0-3.1,0-5.2-0.1C435.5,297.2,435.5,300.8,435.5,304.5z"/>
			<path fill="#ED1C24" d="M445.4,293.7c-0.6,1.9-0.9,2.9-1.5,4.7c-0.2,0.7-0.3,1.1-0.5,1.9c0-2.7,0-4,0-6.6c-0.7,0-1.1,0-1.8,0
				c0,3.8,0,7.6,0,11.3c0.8,0.1,1.2,0.1,2,0.2c0.6-2,0.9-3.1,1.6-5.1c0.2-0.9,0.4-1.3,0.6-2.2c0,2.5,0,5.1,0,7.6
				c0.7,0.1,1.1,0.2,1.8,0.3c0-4,0-8,0-12C446.7,293.7,446.3,293.7,445.4,293.7z"/>
			<path fill="#ED1C24" d="M444.6,293.1c1.3,0,2.1-0.7,2.1-1.9c0,0,0,0,0-0.1c-0.5,0-0.8,0-1.3,0c0,0,0,0,0,0.1
				c0,0.6-0.3,0.7-0.8,0.7c-0.4,0-0.7-0.1-0.7-0.7c0,0,0,0,0-0.1c-0.5,0-0.8,0-1.3,0c0,0,0,0,0,0.1
				C442.6,292.4,443.3,293.1,444.6,293.1z"/>
		</g>
	</g>
	<g>
		<path fill="none" d="M398,295.4l-1.7-1.7l-1.7,1.7l1.7,1.7L398,295.4z M396.3,294.2l1.2,1.2l-1.2,1.2l-1.2-1.2L396.3,294.2z"/>
		<path fill="none" d="M408.8,294.5c0,0.2,0.1,0.4,0.1,0.5c0,0.1,0,0.3,0.1,0.4l1.3,1.3l-1.1,1.1c0,0.3,0,0.5,0,0.7l1.8-1.8
			L408.8,294.5z"/>
		<path fill="none" d="M409.1,296.5c0,0,0,0.1,0,0.1L409.1,296.5L409.1,296.5z"/>
		
			<rect x="408.2" y="286.3" transform="matrix(-0.7071 0.7071 -0.7071 -0.7071 899.9293 200.36)" fill="none" width="0.6" height="0.6"/>
		
			<rect x="411.6" y="300.2" transform="matrix(-0.7071 -0.7071 0.7071 -0.7071 490.6021 804.0224)" fill="none" width="0.5" height="0.5"/>
		
			<rect x="396.1" y="295.1" transform="matrix(0.7071 0.7071 -0.7071 0.7071 324.9446 -193.7466)" fill="none" width="0.6" height="0.6"/>
		<path fill="none" d="M401.3,302.5c0-0.2-0.1-0.5-0.1-0.7l-0.9-0.9l0.7-0.7c0-0.2,0-0.4,0-0.5l-1.2,1.2L401.3,302.5z"/>
		<path fill="#FFFFFF" d="M406.9,287.3c0-0.2,0-0.3-0.1-0.5c0-0.2,0-0.4,0-0.6l-1.2-1.2l1.4-1.4c-0.1-0.1-0.2-0.2-0.5-0.3
			c-0.1,0-0.1,0-0.2,0l-1.8,1.8L406.9,287.3z"/>
		<path fill="#EC1C24" d="M407.1,285C407.1,285,407.1,285,407.1,285L407.1,285L407.1,285z"/>
		
			<rect x="401.3" y="300.7" transform="matrix(0.707 0.7072 -0.7072 0.707 330.513 -195.8156)" fill="#757575" width="0.7" height="0.7"/>
		<path fill="#757575" d="M408.5,298.3l-1.7-1.7l1.7-1.7l0.4,0.4c0-0.1,0-0.3-0.1-0.4c0-0.1,0-0.3-0.1-0.5l-0.2-0.2l-2.4,2.4
			l2.4,2.4l0.6-0.6c0-0.2,0-0.5,0-0.7L408.5,298.3z"/>
		<path fill="#EC1C24" d="M405.8,311.2l3-3c0-0.1-0.1-0.2-0.1-0.3c-0.3-1-0.4-2-0.2-3.1c0.1-0.5,0.1-1,0.2-1.5l-0.1,0.1v-1.5
			l0.4-0.4c0-0.3,0.1-0.5,0.1-0.7c0-0.4,0.1-1.3,0.1-1.9l-0.6,0.6l-2.9-2.9l2.9-2.9l0.1,0.1c-0.1-0.4-0.1-0.8-0.2-1.1
			c0,0,0-0.1,0-0.1v0.1l-0.7,0.7v-0.1v-1.2v-0.4l0.3-0.3c0-0.1,0-0.1-0.1-0.2l-0.4,0.4h-0.4h-1.2h-0.1l0.7-0.7h1.2
			c0-0.1,0-0.1-0.1-0.2h-1.1l-0.7-0.7h0.1h1.2h0.3c-0.1-0.3-0.2-0.5-0.2-0.7c-0.1-0.3-0.2-0.7-0.2-1.2l-3.1-3.1l1.8-1.8
			c-0.2,0-0.4,0-0.7,0c-0.5,0-1,0.1-1.5,0.2c-0.5,0.1-0.6,0.3-0.6,0.8c0,0.4,0,0.7,0,1.1c0,0.2,0,0.4,0.1,0.6
			c0.2,0.3,0.3,0.7,0.2,1.1c-0.1,0.8-0.2,1.9-0.4,2.5c-0.2,0.9-1,2.6-1.2,3.4c-0.1,0.2-0.1,0.6-0.2,1v1.2l-0.2-0.2
			c0,0.1,0,0.1,0,0.2c0,0.2-0.1,0.4-0.1,0.6h0l-0.1,0.1c0,0.2,0,0.4-0.1,0.6l0.4-0.4v1.9l-0.5,0.5c0,0.2,0,0.4,0,0.5
			c0,0.2,0,0.4,0,0.7l0.6-0.6l2.3,2.3l-2.3,2.3l-0.2-0.2c0.1,0.6,0.2,1.2,0.3,1.8c0.1,0.8,0.1,1.6-0.1,2.5l0.2-0.2l0.1-0.1v2.7l-1,1
			c0,0.2,0.1,0.4,0.2,0.5l1.1-1.1h2.7l-0.1,0.1L403,312c1,0.1,2.5,0.1,3.7,0L405.8,311.2z M408.3,305.6l-0.4,0.4l-1.3,1.3l-0.1,0.1
			v-1.5l1.8-1.8V305.6z M406.5,300.1L406.5,300.1l1.4,1.4l0.4,0.4v1.5l-1.8-1.8V300.1z M408.1,303.6h-1.5l-0.4-0.4l-1.3-1.3
			l-0.1-0.1h1.5L408.1,303.6z M406,297.6L406,297.6l-1.8,0.1l-2.2-2.2h1.9l0.5,0.5L406,297.6z M406.1,293L406.1,293l-1.7,1.7
			l-0.5,0.5H402l2.2-2.2H406.1z M401.8,293l0.5-0.5l1.6-1.6l0.1-0.1v1.9l-2.2,2.2V293z M402.3,298.2l-0.5-0.5v-1.9l2.2,2.2v1.9
			l-0.1-0.1L402.3,298.2z M402.9,309.2v-2l2,0l0,2H402.9z M404.8,305.7L404.8,305.7l1.4-1.4l0.4-0.4h1.5l-1.8,1.8H404.8z"/>
		<path fill="#757575" d="M403.1,307.4v1.6h1.6l0-1.6L403.1,307.4z M403.3,308.8l0-1.1l1.1,0l0,1.1L403.3,308.8z"/>
		<path fill="#757575" d="M401.6,299.7l1.3,1.3l-1.3,1.3l-0.4-0.4c0,0.2,0.1,0.4,0.1,0.7l0.3,0.3l1.9-1.9l-1.9-1.9l-0.6,0.6
			c0,0.2,0,0.4,0,0.5L401.6,299.7z"/>
		<path fill="#757575" d="M408.5,296l-0.6,0.6l0.6,0.6l0.5-0.5c0,0,0-0.1,0-0.1L408.5,296z"/>
		<rect x="403.7" y="308" fill="#EC1C24" width="0.4" height="0.4"/>
		<path fill="#FFFFFF" d="M407.3,312c0.3,0,0.6-0.1,0.8-0.2l-0.7-0.7l1.7-1.7c0-0.1,0-0.1,0-0.2c0-0.2-0.1-0.4-0.1-0.6l-2.4,2.4
			L407.3,312z"/>
		<path d="M408.9,311.3c0.1-0.1,0.1-0.2,0.2-0.4L408.9,311.3L408.9,311.3z"/>
		<polygon fill="#FFFFFF" points="403.9,295.2 404.4,294.7 406,293.1 406.1,293 404.2,293 402,295.2 		"/>
		<path fill="#231F20" d="M401.4,293l-0.5-0.5l-1.6-1.6l-0.1-0.1v1.9l2,2c0-0.2,0.1-0.6,0.2-1V293z"/>
		<path fill="#FFFFFF" d="M401.4,293.8c-0.1,0.4-0.1,0.8-0.2,1l0.2,0.2V293.8z"/>
		<polygon fill="#231F20" points="398.8,294.7 399.3,295.2 401.2,295.2 399,293 397,293 397.1,293.1 		"/>
		<polygon fill="#FFFFFF" points="404,290.8 403.9,290.9 402.3,292.5 401.8,293 401.8,295 404,292.7 		"/>
		<path fill="#231F20" d="M399.2,298v1.9l0.1-0.1l1.6-1.6l0,0c0-0.6,0-1.3,0.1-2L399.2,298z"/>
		<path fill="#FFFFFF" d="M401.4,295.8l-0.4,0.4c-0.1,0.7-0.1,1.4-0.1,2l0.5-0.5V295.8z"/>
		<polygon fill="#FFFFFF" points="403.9,295.5 402,295.5 404.2,297.7 406.1,297.7 406,297.6 404.4,296 		"/>
		<polygon fill="#FFFFFF" points="404,299.9 404,298 401.8,295.8 401.8,297.7 402.3,298.2 403.9,299.8 		"/>
		<path fill="#231F20" d="M399.3,295.5l-0.5,0.5l-1.6,1.6l-0.1,0.1h1.9l2.1-2.1c0,0,0,0,0-0.1H399.3z"/>
		<path fill="#EC1C24" d="M401.1,295.5C401.1,295.6,401.1,295.6,401.1,295.5L401.1,295.5L401.1,295.5z"/>
		<polygon fill="#757575" points="408.8,303.6 410.3,303.6 410.7,303.2 412,301.9 412.1,301.9 410.5,301.9 		"/>
		<polygon points="408.3,301.9 407.9,301.5 406.6,300.2 406.5,300.1 406.5,301.7 408.3,303.4 		"/>
		<polygon points="404.9,301.9 406.2,303.2 406.6,303.6 408.1,303.6 406.4,301.9 404.8,301.9 		"/>
		<path fill="#757575" d="M410.3,301.7v-1.5l-0.1,0.1l-1.3,1.3l0,0c-0.1,0.5-0.2,1.2-0.3,1.8L410.3,301.7z"/>
		<path d="M408.6,303.4L408.6,303.4c0.2-0.7,0.3-1.4,0.4-1.9l-0.4,0.4V303.4z"/>
		<polygon points="406.5,307.4 406.6,307.3 407.9,306 408.3,305.6 408.3,304.1 406.5,305.8 		"/>
		<polygon fill="#757575" points="410.7,304.3 410.3,303.9 408.8,303.9 410.5,305.7 412.1,305.7 412,305.6 		"/>
		<polygon fill="#757575" points="408.6,305.6 409,306 410.3,307.3 410.3,307.4 410.3,305.8 408.6,304.1 		"/>
		<polygon points="408.1,303.9 406.6,303.9 406.2,304.3 404.9,305.6 404.8,305.7 406.4,305.7 		"/>
		<polygon points="409.3,288.3 409.3,288.2 408.6,289 408.6,290.6 409.3,289.9 409.3,289.5 		"/>
		<path d="M408.3,290.8l-0.7-0.7h-0.1c0.1,0.2,0.2,0.5,0.3,0.7H408.3z"/>
		<path fill="#757575" d="M405.9,290L405.9,290l0.7,0.7h1.1c-0.1-0.3-0.2-0.5-0.3-0.7h-0.3H405.9z"/>
		<path d="M408.3,290.9h-0.5c0,0.1,0.1,0.2,0.1,0.4L408.3,290.9z"/>
		<path fill="#757575" d="M405.9,291.7L405.9,291.7h1.3h0.4l0.4-0.4c0-0.1-0.1-0.2-0.1-0.4h-1.2L405.9,291.7z"/>
		<polygon points="407.7,288.3 407.7,289.5 407.7,289.9 408.4,290.6 408.4,289 407.7,288.2 		"/>
		<polygon points="409.3,293.4 409.3,292.2 409.3,291.8 408.6,291.1 408.6,292.8 409.3,293.5 		"/>
		<polygon points="411.1,290 411.1,290 409.8,290 409.5,290 408.7,290.8 410.4,290.8 		"/>
		<polygon points="409.8,291.7 411.1,291.7 411.1,291.7 410.4,290.9 408.7,290.9 409.5,291.7 		"/>
		<path d="M408.4,291.1l-0.4,0.4c0.2,0.4,0.3,0.8,0.4,1.2V291.1z"/>
		<path fill="#757575" d="M407.7,292.2v1.2v0.1l0.7-0.7v-0.1c-0.1-0.3-0.2-0.7-0.4-1.2l-0.3,0.3V292.2z"/>
		<path d="M399.7,301l1.2-1.2c0-0.1,0-0.3,0-0.4l-1.6,1.6l2,2c0-0.2-0.1-0.3-0.1-0.5L399.7,301z"/>
		<path d="M403.9,301l-2.3-2.3l-0.6,0.6c0,0.1,0,0.3,0,0.4l0.6-0.6l1.9,1.9l-1.9,1.9l-0.3-0.3c0,0.2,0.1,0.3,0.1,0.5l0.2,0.2
			L403.9,301z"/>
		<path fill="#231F20" d="M401,300.3l-0.7,0.7l0.9,0.9c-0.1-0.4-0.1-0.8-0.1-1.1C401,300.7,401,300.5,401,300.3z"/>
		<path fill="#EC1C24" d="M402.9,301l-1.3-1.3l-0.6,0.6c0,0.2,0,0.4,0,0.5c0,0.3,0.1,0.7,0.1,1.1l0.4,0.4L402.9,301z M401.6,300.5
			l0.5,0.5l-0.5,0.5l-0.5-0.5L401.6,300.5z"/>
		<path d="M398.4,295.4l-2-2l-2,2l2,2L398.4,295.4z M396.3,293.7l1.7,1.7l-1.7,1.7l-1.7-1.7L396.3,293.7z"/>
		<path fill="#757575" d="M397.5,295.4l-1.2-1.2l-1.2,1.2l1.2,1.2L397.5,295.4z M396.3,295l0.4,0.4l-0.4,0.4l-0.4-0.4L396.3,295z"/>
		<path d="M410.9,296.6l-1.8,1.8c0,0.1,0,0.2,0,0.3c0,0.1,0,0.2,0,0.3l2.3-2.3l-2.8-2.8c0,0.2,0.1,0.5,0.1,0.6L410.9,296.6z"/>
		<path d="M405.6,296.6l2.9,2.9l0.6-0.6c0-0.1,0-0.2,0-0.3c0-0.1,0-0.2,0-0.3l-0.6,0.6l-2.4-2.4l2.4-2.4l0.2,0.2
			c0-0.2-0.1-0.4-0.1-0.6l-0.1-0.1L405.6,296.6z"/>
		<path fill="#EC1C24" d="M409.1,296.6L409.1,296.6c0,0.4,0,0.8,0,1.1l1.1-1.1l-1.3-1.3C409,295.7,409,296.1,409.1,296.6
			L409.1,296.6z"/>
		<path fill="#FFFFFF" d="M406.9,296.6l1.7,1.7l0.6-0.6c0-0.3,0-0.7,0-1l-0.5,0.5l-0.6-0.6l0.6-0.6l0.5,0.5c0-0.4-0.1-0.8-0.1-1.2
			l-0.4-0.4L406.9,296.6z"/>
		<path fill="#FFFFFF" d="M402.9,307.2v2h2l0-2L402.9,307.2z M403.1,309v-1.6l1.6,0l0,1.6H403.1z"/>
		<path fill="#231F20" d="M403.3,307.6l0,1.1l1.1,0l0-1.1L403.3,307.6z M404.1,308.4l-0.4,0l0-0.4h0.4V308.4z"/>
		<path d="M405,310.1h-2.7l-1.1,1.1c0.2,0.3,0.4,0.5,0.8,0.6c0.2,0.1,0.6,0.2,1,0.2l1.8-1.8L405,310.1z"/>
		<path d="M401.9,307l-0.1,0.1l-0.2,0.2c0,0.2-0.1,0.4-0.2,0.6c-0.2,0.5-0.3,0.9-0.4,1.4c-0.1,0.3-0.1,0.6-0.1,0.8
			c0,0.2,0,0.3,0,0.5l1-1V307z"/>
		<path d="M406.6,312.1c0.2,0,0.4,0,0.6-0.1l-0.8-0.8l2.4-2.4c0-0.2-0.1-0.4-0.1-0.6l-3,3L406.6,312.1z"/>
		<path fill="#EC1C24" d="M408.1,311.9C408.1,311.9,408.1,311.8,408.1,311.9c0.4-0.2,0.7-0.3,0.8-0.6l-0.1-0.1l0.3-0.3
			c0.1-0.2,0.1-0.5,0.1-0.8c0-0.2,0-0.4-0.1-0.6l-1.7,1.7L408.1,311.9z"/>
		<path d="M407,288.1c0-0.3-0.1-0.6-0.1-0.9l-2.3-2.3l1.8-1.8c-0.2,0-0.4-0.1-0.7-0.1l-1.8,1.8L407,288.1z"/>
		<path fill="#EC1C24" d="M406.8,286.2c0-0.2,0.1-0.3,0.2-0.5c0.1-0.2,0.1-0.4,0.1-0.6c0,0,0-0.1,0-0.1l0,0l0,0c0-0.3,0-0.6,0-0.9
			c0-0.2,0-0.4-0.1-0.5l-1.4,1.4L406.8,286.2z"/>
		
			<rect x="411" y="293" transform="matrix(-0.7071 -0.7071 0.7071 -0.7071 495.2626 792.7108)" fill="#EC1C24" width="1.5" height="1.5"/>
		<rect x="399.8" y="304.9" transform="matrix(0.7071 -0.7071 0.7071 0.7071 -98.6672 372.4747)" width="0.9" height="0.9"/>
		<path fill="#757575" d="M408.5,287.7l1.1-1.1l-1.1-1.1l-1.1,1.1L408.5,287.7z M408.5,286.2l0.4,0.4l-0.4,0.4l-0.4-0.4L408.5,286.2
			z"/>
		<path d="M410.8,300.4l1,1l1-1l-1-1L410.8,300.4z M411.8,300.8l-0.4-0.4l0.4-0.4l0.4,0.4L411.8,300.8z"/>
	</g>
</g>
</svg>
