<svg width="159" height="30" viewBox="0 0 159 30" fill="none" xmlns="http://www.w3.org/2000/svg">
<path d="M35.9992 2.2913C35.1661 2.34392 34.5543 2.44917 34.1637 2.60704C33.7993 2.76491 33.5519 3.06749 33.4217 3.51478C33.2916 3.96208 33.2265 4.68564 33.2265 5.68548V25.2612C33.2265 26.2611 33.2916 26.9846 33.4217 27.4319C33.578 27.8792 33.8383 28.1818 34.2028 28.3397C34.5673 28.4975 35.1661 28.6028 35.9992 28.6554V29.4447C34.4111 29.3658 32.107 29.3263 29.087 29.3263C25.9368 29.3263 23.6197 29.3658 22.1357 29.4447V28.6554C23.073 28.6028 23.7499 28.4975 24.1664 28.3397C24.609 28.1818 24.9084 27.8792 25.0646 27.4319C25.2208 26.9846 25.299 26.2611 25.299 25.2612V5.09347L15.8874 29.4053H15.2626L4.24998 4.06732V21.7092C4.24998 23.6562 4.32808 25.0639 4.48429 25.9322C4.6405 26.7741 4.97895 27.3925 5.49964 27.7871C6.04637 28.1818 6.94456 28.4712 8.19422 28.6554V29.4447C7.1268 29.3658 5.66887 29.3263 3.82041 29.3263C2.44058 29.3263 1.36014 29.3658 0.579102 29.4447V28.6554C1.38617 28.4712 1.98497 28.195 2.37549 27.8266C2.76601 27.4319 3.02635 26.8399 3.15653 26.0506C3.2867 25.2612 3.35179 24.0772 3.35179 22.4985V5.68548C3.35179 4.68564 3.27368 3.96208 3.11748 3.51478C2.9873 3.06749 2.73997 2.76491 2.37549 2.60704C2.011 2.44917 1.41221 2.34392 0.579102 2.2913V1.50195C1.36014 1.58089 2.44058 1.62035 3.82041 1.62035C6.94456 1.62035 9.63914 1.58089 11.9042 1.50195L19.285 18.2755L25.6895 1.62035H29.087C32.107 1.62035 34.4111 1.58089 35.9992 1.50195V2.2913Z" fill="#3C3C3C"/>
<path d="M57.9912 25.1428C57.9912 26.3532 58.1474 27.2346 58.4598 27.7871C58.7983 28.3397 59.371 28.6159 60.1781 28.6159V29.4447C59.371 29.3658 58.5639 29.3263 57.7569 29.3263C55.0493 29.3263 52.7843 29.5105 50.9618 29.8789V27.0372C49.7903 29.0106 47.7205 29.9973 44.7526 29.9973C42.6698 29.9973 41.1989 29.4711 40.3397 28.4186C39.9492 27.945 39.6628 27.3135 39.4806 26.5242C39.2983 25.7085 39.2072 24.6429 39.2072 23.3273V13.2632C39.2072 12.0529 39.038 11.1714 38.6996 10.6189C38.3871 10.0663 37.8274 9.79007 37.0203 9.79007V8.96126C37.8274 9.04019 38.6345 9.07966 39.4415 9.07966C42.1491 9.07966 44.4141 8.89548 46.2366 8.52712V25.4586C46.2366 26.3005 46.3798 26.932 46.6661 27.353C46.9786 27.7477 47.4732 27.945 48.1501 27.945C48.9051 27.945 49.556 27.6819 50.1027 27.1556C50.6755 26.6031 50.9618 25.919 50.9618 25.1034V13.2632C50.9618 12.0529 50.7926 11.1714 50.4542 10.6189C50.1418 10.0663 49.582 9.79007 48.7749 9.79007V8.96126C49.582 9.04019 50.3891 9.07966 51.1962 9.07966C53.9038 9.07966 56.1688 8.89548 57.9912 8.52712V25.1428Z" fill="#3C3C3C"/>
<path d="M69.9048 8.40872C70.9201 8.40872 71.8704 8.52712 72.7555 8.76392C73.6668 8.97441 74.3567 9.21122 74.8253 9.47433C75.1117 9.6322 75.346 9.71114 75.5282 9.71114C76.075 9.71114 76.4004 9.29015 76.5045 8.44819H77.2856C77.1814 9.81638 77.1294 12.1844 77.1294 15.5523H76.3483C76.14 13.8157 75.6454 12.3554 74.8643 11.1714C74.1093 9.9611 73.0029 9.35593 71.5449 9.35593C70.8941 9.35593 70.3473 9.55327 69.9048 9.94794C69.4622 10.3426 69.2409 10.882 69.2409 11.5661C69.2409 12.4344 69.5273 13.2106 70.1 13.8947C70.6728 14.5524 71.571 15.3681 72.7946 16.3416C72.8467 16.3679 73.2242 16.6705 73.9271 17.2494C75.385 18.4597 76.4525 19.5385 77.1294 20.4857C77.8063 21.4066 78.1447 22.5511 78.1447 23.9193C78.1447 25.077 77.7932 26.1295 77.0903 27.0767C76.3874 27.9976 75.4241 28.7212 74.2005 29.2474C73.0029 29.7473 71.6881 29.9973 70.2562 29.9973C68.6161 29.9973 67.2753 29.6684 66.2339 29.0106C65.7913 28.7738 65.4268 28.6028 65.1404 28.4975C64.854 28.3923 64.5677 28.3397 64.2813 28.3397C63.7866 28.3397 63.4221 28.8001 63.1878 29.721H62.4068C62.5109 28.2213 62.563 25.5901 62.563 21.8276H63.344C63.5784 23.9851 64.1511 25.7217 65.0623 27.0372C65.9735 28.3528 67.1191 29.0106 68.4989 29.0106C69.1498 29.0106 69.6835 28.8264 70.1 28.4581C70.5426 28.0897 70.7639 27.5503 70.7639 26.8399C70.7639 26.1032 70.6077 25.4454 70.2953 24.8666C70.0089 24.2877 69.6444 23.7746 69.2018 23.3273C68.7853 22.8537 68.0954 22.1828 67.1321 21.3145C66.0386 20.2884 65.2055 19.4727 64.6328 18.8675C64.06 18.2624 63.5653 17.5651 63.1488 16.7758C62.7583 15.9601 62.563 15.0655 62.563 14.092C62.563 12.9606 62.9014 11.9608 63.5783 11.0925C64.2552 10.2242 65.1534 9.56642 66.2729 9.11913C67.3924 8.64552 68.603 8.40872 69.9048 8.40872Z" fill="#3C3C3C"/>
<path d="M92.308 25.6954C94.2086 25.6954 95.7837 24.8139 97.0333 23.0511L97.6972 23.2879C97.1244 25.1297 96.1481 26.7084 94.7683 28.0239C93.4145 29.3395 91.6702 29.9973 89.5354 29.9973C86.8017 29.9973 84.6148 29.1422 82.9746 27.4319C81.3345 25.7217 80.5144 22.9853 80.5144 19.2227C80.5144 15.6181 81.4256 12.9211 83.248 11.132C85.0965 9.31646 87.5307 8.40872 90.5507 8.40872C95.4712 8.40872 97.9315 11.3556 97.9315 17.2494H87.8561C87.8301 17.5651 87.8171 18.0387 87.8171 18.6702C87.8171 21.1961 88.2466 22.9984 89.1058 24.0772C89.991 25.156 91.0584 25.6954 92.308 25.6954ZM90.2773 9.31646C88.8194 9.31646 87.9603 11.7108 87.6999 16.4995H92.2299C92.256 14.3946 92.0998 12.6712 91.7613 11.3293C91.4489 9.98741 90.9542 9.31646 90.2773 9.31646Z" fill="#3C3C3C"/>
<path d="M120.345 25.1428C120.345 26.3532 120.501 27.2346 120.813 27.7871C121.152 28.3397 121.724 28.6159 122.531 28.6159V29.4447C121.724 29.3658 120.917 29.3263 120.11 29.3263C117.403 29.3263 115.138 29.5105 113.315 29.8789V27.0372C112.144 29.0106 110.074 29.9973 107.106 29.9973C105.023 29.9973 103.552 29.4711 102.693 28.4186C102.303 27.945 102.016 27.3135 101.834 26.5242C101.652 25.7085 101.561 24.6429 101.561 23.3273V13.2632C101.561 12.0529 101.391 11.1714 101.053 10.6189C100.741 10.0663 100.181 9.79007 99.3737 9.79007V8.96126C100.181 9.04019 100.988 9.07966 101.795 9.07966C104.502 9.07966 106.768 8.89548 108.59 8.52712V25.4586C108.59 26.3005 108.733 26.932 109.02 27.353C109.332 27.7477 109.827 27.945 110.503 27.945C111.258 27.945 111.909 27.6819 112.456 27.1556C113.029 26.6031 113.315 25.919 113.315 25.1034V13.2632C113.315 12.0529 113.146 11.1714 112.808 10.6189C112.495 10.0663 111.935 9.79007 111.128 9.79007V8.96126C111.935 9.04019 112.742 9.07966 113.55 9.07966C116.257 9.07966 118.522 8.89548 120.345 8.52712V25.1428Z" fill="#3C3C3C"/>
<path d="M156.392 25.7743C156.392 26.8531 156.548 27.6029 156.861 28.0239C157.199 28.4186 157.772 28.6159 158.579 28.6159V29.4447C155.767 29.3395 153.945 29.2869 153.112 29.2869C152.279 29.2869 150.56 29.3395 147.957 29.4447V28.6159C148.478 28.6159 148.842 28.4186 149.05 28.0239C149.259 27.6293 149.363 26.8794 149.363 25.7743V12.9474C149.363 12.1055 149.207 11.4872 148.894 11.0925C148.608 10.6715 148.126 10.461 147.449 10.461C146.772 10.461 146.148 10.7504 145.575 11.3293C145.028 11.9081 144.69 12.5922 144.559 13.3816C144.612 14.0131 144.638 14.5788 144.638 15.0787V25.7743C144.638 26.8794 144.768 27.6293 145.028 28.0239C145.288 28.4186 145.757 28.6159 146.434 28.6159V29.4447C143.831 29.3395 142.138 29.2869 141.357 29.2869C140.524 29.2869 138.806 29.3395 136.202 29.4447V28.6159C136.723 28.6159 137.088 28.4186 137.296 28.0239C137.504 27.6029 137.608 26.8531 137.608 25.7743V12.9474C137.608 12.1055 137.491 11.4872 137.257 11.0925C137.022 10.6715 136.632 10.461 136.085 10.461C135.33 10.461 134.666 10.7373 134.094 11.2898C133.547 11.8161 133.273 12.487 133.273 13.3027V25.7743C133.273 26.8794 133.378 27.6293 133.586 28.0239C133.794 28.4186 134.159 28.6159 134.679 28.6159V29.4447C132.284 29.3395 130.696 29.2869 129.915 29.2869C129.03 29.2869 127.077 29.3395 124.057 29.4447V28.6159C124.864 28.6159 125.424 28.4186 125.736 28.0239C126.075 27.6029 126.244 26.8531 126.244 25.7743V13.2632C126.244 12.0529 126.075 11.1714 125.736 10.6189C125.424 10.0663 124.864 9.79007 124.057 9.79007V8.96126C124.89 9.04019 125.697 9.07966 126.478 9.07966C129.186 9.07966 131.451 8.89548 133.273 8.52712V11.3688C134.367 9.3954 136.307 8.40872 139.092 8.40872C141.175 8.40872 142.646 8.93495 143.505 9.98741C143.896 10.461 144.182 11.0793 144.364 11.8424C145.015 10.5794 145.874 9.69798 146.942 9.19806C148.035 8.67183 149.337 8.40872 150.847 8.40872C152.93 8.40872 154.401 8.93495 155.26 9.98741C155.65 10.461 155.937 11.1056 156.119 11.9213C156.301 12.7106 156.392 13.7631 156.392 15.0787V25.7743Z" fill="#3C3C3C"/>
<path d="M40.1335 1.66049C39.4052 1.66049 38.8318 1.89603 38.4133 2.3671C37.9949 2.83817 37.7857 3.48322 37.7857 4.30224C37.7857 5.14 37.983 5.7904 38.3776 6.25344C38.7722 6.71648 39.3363 6.948 40.0699 6.948C40.5572 6.948 41.0048 6.8851 41.4126 6.7593V7.12064C41.0286 7.25714 40.5493 7.32539 39.9746 7.32539C39.1589 7.32539 38.5166 7.05908 38.0479 6.52645C37.5791 5.99381 37.3447 5.24973 37.3447 4.29421C37.3447 3.69734 37.456 3.1714 37.6784 2.71639C37.9035 2.26137 38.2253 1.91075 38.6438 1.66451C39.0648 1.41559 39.5535 1.29113 40.1096 1.29113C40.6764 1.29113 41.1835 1.39819 41.6311 1.61231L41.4682 1.98168C41.0445 1.76755 40.5996 1.66049 40.1335 1.66049Z" fill="#3C3C3C"/>
<path d="M46.1797 5.05702C46.1797 5.76898 46.0089 6.3257 45.6672 6.72719C45.3256 7.12599 44.8542 7.32539 44.253 7.32539C43.8743 7.32539 43.5406 7.23305 43.2519 7.04837C42.9633 6.86369 42.7421 6.59871 42.5885 6.25344C42.4349 5.90816 42.3581 5.50936 42.3581 5.05702C42.3581 4.34506 42.5289 3.79102 42.8706 3.39489C43.2122 2.99609 43.681 2.79668 44.2769 2.79668C44.8701 2.79668 45.3349 2.99876 45.6712 3.40292C46.0102 3.8044 46.1797 4.35577 46.1797 5.05702ZM42.7712 5.05702C42.7712 5.65657 42.901 6.12496 43.1606 6.46221C43.4227 6.79678 43.7922 6.96406 44.2689 6.96406C44.7456 6.96406 45.1137 6.79678 45.3733 6.46221C45.6355 6.12496 45.7666 5.65657 45.7666 5.05702C45.7666 4.4548 45.6341 3.98774 45.3693 3.65585C45.1071 3.32396 44.7377 3.15802 44.261 3.15802C43.7843 3.15802 43.4161 3.32396 43.1566 3.65585C42.8997 3.98507 42.7712 4.45213 42.7712 5.05702Z" fill="#3C3C3C"/>
<path d="M49.0995 7.32539C48.4825 7.32539 47.9991 7.12867 47.6496 6.73522C47.3 6.34176 47.1252 5.79307 47.1252 5.08914C47.1252 4.36648 47.3066 3.8044 47.6694 3.40292C48.0322 2.99876 48.5288 2.79668 49.1591 2.79668C49.5326 2.79668 49.8901 2.86226 50.2317 2.99341L50.1245 3.34671C49.751 3.22092 49.4266 3.15802 49.1512 3.15802C48.6215 3.15802 48.2203 3.32396 47.9475 3.65585C47.6747 3.98507 47.5383 4.46015 47.5383 5.08111C47.5383 5.66995 47.6747 6.13166 47.9475 6.46622C48.2203 6.79811 48.6016 6.96406 49.0916 6.96406C49.4836 6.96406 49.8477 6.89313 50.1841 6.75128V7.12064C49.9086 7.25714 49.5471 7.32539 49.0995 7.32539Z" fill="#3C3C3C"/>
<path d="M53.8666 7.2451L53.7673 6.55455H53.7355C53.5184 6.83559 53.2946 7.03499 53.0642 7.15276C52.8364 7.26785 52.5663 7.32539 52.2538 7.32539C51.83 7.32539 51.5003 7.21566 51.2646 6.99618C51.0289 6.7767 50.911 6.47291 50.911 6.08482C50.911 5.65925 51.0858 5.32869 51.4354 5.09316C51.7876 4.85762 52.2961 4.73316 52.9609 4.71978L53.7832 4.69569V4.40662C53.7832 3.99176 53.6998 3.6786 53.5329 3.46716C53.3661 3.25571 53.0973 3.14999 52.7265 3.14999C52.3266 3.14999 51.9121 3.2624 51.4831 3.48723L51.3361 3.14196C51.8102 2.91713 52.2789 2.80471 52.7424 2.80471C53.2164 2.80471 53.57 2.92917 53.8031 3.17809C54.0388 3.42701 54.1566 3.81511 54.1566 4.34239V7.2451H53.8666ZM52.2776 6.96406C52.7384 6.96406 53.1012 6.83157 53.3661 6.56659C53.6336 6.29894 53.7673 5.92824 53.7673 5.45449V5.02491L53.0125 5.05702C52.406 5.08647 51.973 5.18282 51.7135 5.34609C51.4566 5.50668 51.3282 5.75828 51.3282 6.10088C51.3282 6.37388 51.4103 6.58667 51.5745 6.73923C51.7413 6.88912 51.9757 6.96406 52.2776 6.96406Z" fill="#3C3C3C"/>
<path d="M60.2505 1.66049C59.5222 1.66049 58.9489 1.89603 58.5304 2.3671C58.112 2.83817 57.9027 3.48322 57.9027 4.30224C57.9027 5.14 58.1 5.7904 58.4947 6.25344C58.8893 6.71648 59.4534 6.948 60.187 6.948C60.6743 6.948 61.1218 6.8851 61.5297 6.7593V7.12064C61.1457 7.25714 60.6663 7.32539 60.0916 7.32539C59.2759 7.32539 58.6337 7.05908 58.1649 6.52645C57.6962 5.99381 57.4618 5.24973 57.4618 4.29421C57.4618 3.69734 57.573 3.1714 57.7955 2.71639C58.0206 2.26137 58.3424 1.91075 58.7608 1.66451C59.1819 1.41559 59.6705 1.29113 60.2267 1.29113C60.7934 1.29113 61.3006 1.39819 61.7482 1.61231L61.5853 1.98168C61.1616 1.76755 60.7166 1.66049 60.2505 1.66049Z" fill="#3C3C3C"/>
<path d="M66.2968 5.05702C66.2968 5.76898 66.126 6.3257 65.7843 6.72719C65.4427 7.12599 64.9713 7.32539 64.3701 7.32539C63.9914 7.32539 63.6577 7.23305 63.369 7.04837C63.0803 6.86369 62.8592 6.59871 62.7056 6.25344C62.552 5.90816 62.4752 5.50936 62.4752 5.05702C62.4752 4.34506 62.646 3.79102 62.9876 3.39489C63.3293 2.99609 63.798 2.79668 64.3939 2.79668C64.9872 2.79668 65.4519 2.99876 65.7883 3.40292C66.1273 3.8044 66.2968 4.35577 66.2968 5.05702ZM62.8883 5.05702C62.8883 5.65657 63.0181 6.12496 63.2776 6.46221C63.5398 6.79678 63.9093 6.96406 64.386 6.96406C64.8627 6.96406 65.2308 6.79678 65.4903 6.46221C65.7525 6.12496 65.8836 5.65657 65.8836 5.05702C65.8836 4.4548 65.7512 3.98774 65.4864 3.65585C65.2242 3.32396 64.8547 3.15802 64.378 3.15802C63.9013 3.15802 63.5332 3.32396 63.2737 3.65585C63.0168 3.98507 62.8883 4.45213 62.8883 5.05702Z" fill="#3C3C3C"/>
<path d="M67.8858 7.2451H67.4925V0.998047H67.8858V7.2451Z" fill="#3C3C3C"/>
<path d="M71.9577 7.2451L71.8584 6.55455H71.8266C71.6094 6.83559 71.3856 7.03499 71.1552 7.15276C70.9275 7.26785 70.6573 7.32539 70.3448 7.32539C69.9211 7.32539 69.5914 7.21566 69.3556 6.99618C69.1199 6.7767 69.0021 6.47291 69.0021 6.08482C69.0021 5.65925 69.1769 5.32869 69.5265 5.09316C69.8787 4.85762 70.3872 4.73316 71.0519 4.71978L71.8743 4.69569V4.40662C71.8743 3.99176 71.7908 3.6786 71.624 3.46716C71.4571 3.25571 71.1883 3.14999 70.8176 3.14999C70.4176 3.14999 70.0032 3.2624 69.5741 3.48723L69.4272 3.14196C69.9012 2.91713 70.37 2.80471 70.8334 2.80471C71.3075 2.80471 71.6611 2.92917 71.8941 3.17809C72.1298 3.42701 72.2477 3.81511 72.2477 4.34239V7.2451H71.9577ZM70.3687 6.96406C70.8295 6.96406 71.1923 6.83157 71.4571 6.56659C71.7246 6.29894 71.8584 5.92824 71.8584 5.45449V5.02491L71.1036 5.05702C70.4971 5.08647 70.0641 5.18282 69.8046 5.34609C69.5477 5.50668 69.4192 5.75828 69.4192 6.10088C69.4192 6.37388 69.5013 6.58667 69.6655 6.73923C69.8324 6.88912 70.0667 6.96406 70.3687 6.96406Z" fill="#3C3C3C"/>
</svg>
