<svg width="124" height="44" viewBox="0 0 124 44" fill="none" xmlns="http://www.w3.org/2000/svg">
<path d="M0.580078 31.5132V30.9389L2.33625 30.7953V15.1461L0.580078 15.0743V14.5H11.1847L11.3198 19.3814H10.7119C10.6443 18.7353 10.5768 18.1611 10.4417 17.6586C10.3066 17.1561 10.104 16.7254 9.83378 16.3664C9.5636 16.0075 9.22587 15.6486 8.75305 15.505C8.28024 15.2896 7.73987 15.2179 7.13197 15.2179C6.25388 15.2179 5.64597 15.2896 5.17315 15.3614V22.6836C5.37579 22.6836 5.44334 22.6836 5.51088 22.6836C6.05124 22.6836 6.45651 22.6836 6.79424 22.6118C7.13197 22.54 7.40215 22.3964 7.60478 22.2528C7.87496 22.0375 8.01006 21.7503 8.14515 21.3914C8.21269 21.0325 8.28024 20.53 8.28024 19.8839H8.88814V26.2728H8.28024C8.28024 25.196 8.14515 24.4064 7.80742 23.9757C7.46969 23.545 6.92933 23.3296 6.11879 23.3296H5.2407V30.8671L7.40215 31.0107V31.585H0.580078V31.5132Z" fill="#A9AEBE"/>
<path d="M26.4502 31.5133V30.939L28.2064 30.7954V15.1461L26.4502 15.0743V14.5H32.3942C33.2047 14.5 33.9477 14.5718 34.6232 14.7154C35.2986 14.8589 35.9066 15.0743 36.4469 15.4332C36.9873 15.7921 37.3926 16.2229 37.6627 16.7254C37.9329 17.2996 38.068 17.9457 38.068 18.6636C38.068 20.0275 37.6627 21.1043 36.7846 21.8222C35.9066 22.54 34.7583 23.0425 33.2723 23.2579C33.8802 23.2579 34.4206 23.4015 34.8934 23.545C35.3662 23.7604 35.7039 24.0475 35.9741 24.3347C36.2443 24.6218 36.5145 25.0525 36.7846 25.555C36.9197 25.914 37.1899 26.4165 37.4601 27.1343C37.7303 27.8522 38.068 28.4983 38.3382 29.0725C38.6084 29.5033 38.811 29.8622 39.0812 30.1493C39.3514 30.3647 39.554 30.58 39.7566 30.58C39.9593 30.6518 40.1619 30.6518 40.3646 30.6518V31.2979H38.4733C37.9329 31.2979 37.4601 31.2261 37.1224 31.1543C36.7846 31.0825 36.4469 30.8672 36.1092 30.58C35.7715 30.2929 35.7039 30.1493 35.4337 29.6468C35.1636 29.1443 34.7583 28.0675 34.1504 26.4882C34.0828 26.2729 33.9477 25.914 33.7451 25.555C33.61 25.1961 33.4074 24.909 33.3398 24.6936C33.2047 24.4782 33.0696 24.2629 32.9346 24.0475C32.7995 23.8322 32.5968 23.6886 32.3942 23.6168C32.1916 23.545 32.0565 23.4732 31.8538 23.4732C31.5161 23.4732 31.2459 23.4732 31.1108 23.4732V30.7954L32.867 30.939V31.5133H26.4502ZM31.0433 22.8272C31.1108 22.8272 31.2459 22.8272 31.5161 22.8272C32.867 22.8272 33.8126 22.4682 34.353 21.8222C34.8934 21.1043 35.1636 20.0993 35.1636 18.7354C35.1636 18.0175 35.096 17.4432 34.9609 17.0125C34.8258 16.51 34.5556 16.1511 34.2855 15.9357C34.0153 15.6486 33.6776 15.505 33.3398 15.3614C33.0021 15.2179 32.5968 15.2179 32.1916 15.2179C31.9214 15.2179 31.5161 15.2179 31.1108 15.2896V22.8272H31.0433Z" fill="#A9AEBE"/>
<path d="M54.6836 31.5133V30.939L56.4398 30.7954V15.1461L54.6836 15.0743V14.5H65.6935L65.8285 19.3814H65.3557C65.2882 18.8072 65.1531 18.3764 65.0855 18.0175C65.018 17.6586 64.8154 17.2279 64.6803 16.8689C64.4776 16.51 64.275 16.1511 64.0048 15.9357C63.7346 15.7204 63.4645 15.505 63.0592 15.3614C62.6539 15.2179 62.1811 15.1461 61.7083 15.1461C61.1004 15.1461 60.2898 15.2179 59.3442 15.2896V22.3965C59.5468 22.3965 59.9521 22.3965 60.56 22.3965C61.3706 22.3965 61.9109 22.1811 62.2487 21.7504C62.5864 21.3197 62.7215 20.6018 62.7215 19.525H63.3294V25.914H62.7215C62.7215 24.8372 62.5188 24.0475 62.1811 23.6886C61.8434 23.2579 61.303 23.0425 60.4925 23.0425C59.8846 23.0425 59.4793 23.0425 59.2767 23.0425V30.7236C60.2223 30.7954 61.1679 30.8672 62.1136 30.8672C62.5864 30.8672 62.9241 30.7954 63.2618 30.7236C63.5996 30.6518 63.8697 30.5083 64.1399 30.3647C64.4101 30.2211 64.6127 30.0058 64.7478 29.7904C64.9505 29.575 65.0855 29.2879 65.2206 28.929C65.3557 28.57 65.4908 28.2111 65.5584 27.924C65.6259 27.6368 65.6935 27.1343 65.8285 26.6318H66.3014L66.1663 31.5133H54.6836Z" fill="#F40009"/>
<path d="M87.6463 14.7154C87.1059 14.7154 86.6331 14.7872 86.2278 14.9308C85.8226 15.0744 85.4848 15.2897 85.2147 15.5051C84.9445 15.7205 84.7418 16.0794 84.6068 16.3665C84.4717 16.7255 84.4041 17.0844 84.4041 17.5151C84.4041 17.8023 84.4717 18.0894 84.5392 18.3766C84.6068 18.6637 84.7418 18.9509 85.012 19.238C85.2822 19.5252 85.6199 19.8123 86.0927 20.1713C86.5656 20.4584 87.1735 20.8174 87.984 21.1763C88.8621 21.607 89.6726 22.0377 90.2805 22.3967C90.8885 22.7556 91.4288 23.1863 91.8341 23.6171C92.2394 24.0478 92.5095 24.5503 92.7122 25.0528C92.9148 25.6271 92.9823 26.2732 92.9823 26.9911C92.9823 27.5653 92.8473 28.1396 92.6446 28.7139C92.442 29.2882 92.1043 29.7908 91.6314 30.2215C91.2262 30.6522 90.6183 31.0111 90.0104 31.2983C89.3349 31.5854 88.5919 31.729 87.7138 31.729C86.7007 31.729 85.8901 31.6572 85.2147 31.4419C84.5392 31.2265 83.9989 31.0111 83.5936 30.6522C83.1883 30.3651 82.9181 30.0061 82.7155 29.5754C82.5129 29.2165 82.4453 28.7857 82.4453 28.355C82.4453 28.0679 82.5129 27.8525 82.5804 27.6371C82.648 27.4218 82.783 27.2064 82.9181 27.0628C83.0532 26.9193 83.2559 26.7757 83.4585 26.6321C83.6611 26.5603 83.9313 26.4885 84.2015 26.4885C84.4717 26.4885 84.6743 26.5603 84.8769 26.6321C85.0796 26.7039 85.2822 26.8475 85.4173 26.9911C85.5524 27.1346 85.6875 27.35 85.755 27.5654C85.8226 27.7807 85.8901 27.9961 85.8901 28.2832C85.8901 28.8575 85.755 29.2882 85.4173 29.5754C85.0796 29.8625 84.7418 30.0061 84.2015 30.0061V30.0779C84.269 30.1497 84.3366 30.2215 84.5392 30.3651C84.6743 30.5086 84.8769 30.5804 85.1471 30.724C85.4173 30.8676 85.755 30.9393 86.1603 31.0111C86.5656 31.0829 87.0384 31.1547 87.5787 31.1547C88.0516 31.1547 88.4568 31.0829 88.9296 30.9393C89.4025 30.7958 89.7402 30.6522 90.1455 30.3651C90.4832 30.1497 90.7534 29.8625 91.0235 29.5036C91.2937 29.1447 91.3613 28.7857 91.3613 28.355C91.3613 27.9961 91.2937 27.6371 91.1586 27.35C91.0235 27.0628 90.8209 26.7039 90.4156 26.345C90.0779 25.986 89.6051 25.6271 88.9296 25.2682C88.3217 24.9092 87.5112 24.4785 86.498 23.976C85.755 23.6171 85.1471 23.2581 84.6743 22.8992C84.2015 22.4685 83.7962 22.0377 83.526 21.607C83.2559 21.1763 83.0532 20.6738 82.9857 20.1713C82.9181 19.6688 82.8506 19.1662 82.8506 18.6637C82.8506 18.0177 82.9857 17.3716 83.1883 16.7973C83.3909 16.223 83.7287 15.7205 84.1339 15.2897C84.5392 14.859 85.0796 14.5001 85.6875 14.2847C86.2954 13.9976 87.0384 13.9258 87.8489 13.9258C88.5919 13.9258 89.2674 13.9976 89.8753 14.2129C90.4832 14.4283 90.8885 14.6437 91.2937 15.0026C91.699 15.2897 91.9692 15.6487 92.1043 16.0794C92.3069 16.5101 92.3744 16.9408 92.3744 17.3716C92.3744 17.5869 92.3069 17.8023 92.2393 18.0894C92.1718 18.3766 92.0367 18.5202 91.9016 18.6637C91.7665 18.8073 91.5639 18.9509 91.3613 19.0227C91.1586 19.0945 90.8885 19.1662 90.6183 19.1662C90.3481 19.1662 90.1455 19.0945 89.9428 19.0227C89.7402 18.9509 89.5375 18.8073 89.4025 18.6637C89.2674 18.5202 89.1323 18.3048 89.0647 18.1612C88.9972 17.9459 88.9296 17.7305 88.9296 17.5151C88.9296 17.228 88.9972 17.0126 89.0647 16.7973C89.1323 16.5819 89.2674 16.3665 89.4025 16.223C89.5375 16.0794 89.7402 15.9358 89.9428 15.864C90.1455 15.7922 90.3481 15.7205 90.6183 15.7205V15.7922C90.5507 15.7205 90.4832 15.6487 90.3481 15.5051C90.213 15.3615 90.0104 15.2897 89.8077 15.1462C89.5376 15.0026 89.2674 14.9308 88.9296 14.859C88.5244 14.7872 88.1191 14.7154 87.6463 14.7154Z" fill="#A9AEBE"/>
<path d="M108.383 31.5126V30.9383L110.139 30.7948V15.1456L108.383 15.002V14.4277H114.732V15.0738L112.976 15.2174V22.4677L118.987 22.3959V15.2174L117.231 15.0738V14.4995H123.581V15.0738L121.824 15.2174V30.8665L123.581 31.0101V31.5844H117.231V31.0101L118.987 30.8665V23.1137H112.976V30.7948L114.732 30.9383V31.5126H108.383Z" fill="#A9AEBE"/>
<path d="M4.97056 4.88193C4.97056 5.45616 4.76793 5.88684 4.4302 6.24573C4.02492 6.53285 3.5521 6.67641 3.01173 6.67641C2.33627 6.67641 1.86345 6.46107 1.52572 6.0304C1.18799 5.59972 0.985352 4.95371 0.985352 4.16414V3.80524C0.985352 3.30279 1.0529 2.87211 1.25554 2.44144C1.39063 2.15432 1.59327 1.79542 1.931 1.65186C2.20118 1.43653 2.60645 1.29297 3.01173 1.29297C3.5521 1.29297 4.02492 1.43653 4.36265 1.79542C4.76793 2.15432 4.97056 2.58499 4.97056 3.15923H3.95737C3.95737 2.80033 3.82228 2.58499 3.68719 2.44144C3.5521 2.29788 3.28191 2.2261 3.01173 2.2261C2.674 2.2261 2.40382 2.36966 2.26872 2.58499C2.13363 2.80033 1.99854 3.23101 1.99854 3.80524V4.23592C1.99854 4.81015 2.06609 5.24082 2.26872 5.45616C2.40382 5.74328 2.674 5.81506 3.01173 5.81506C3.34946 5.81506 3.5521 5.74328 3.68719 5.59972C3.82228 5.45616 3.95737 5.24082 3.95737 4.88193H4.97056Z" fill="#A9AEBE"/>
<path d="M12.6034 5.52711H10.8472L10.5094 6.60397H9.42871L11.2524 1.36328H12.1981L14.0218 6.60397H12.9411L12.6034 5.52711ZM11.1174 4.66563H12.3332L11.7253 2.7273L11.1174 4.66563Z" fill="#A9AEBE"/>
<path d="M21.6546 1.36403H22.6678V6.60478H21.6546V3.15881L19.6958 6.67657H18.6826V1.36403H19.6958V4.88179L21.6546 1.36403ZM21.8573 0C21.8573 0.287164 21.7222 0.574329 21.5195 0.789702C21.3169 1.00508 21.0467 1.07687 20.6415 1.07687C20.3037 1.07687 20.0335 1.00508 19.7634 0.789702C19.4932 0.574329 19.4932 0.358955 19.4932 0H20.1686C20.1686 0.143582 20.2362 0.287164 20.3037 0.358955C20.3713 0.430747 20.5064 0.502538 20.6415 0.502538C20.7765 0.502538 20.9116 0.430747 20.9792 0.358955C21.0467 0.287164 21.1143 0.143582 21.1143 0H21.8573V0Z" fill="#A9AEBE"/>
<path d="M31.4481 2.22476H29.9621V6.60397H28.9489V2.22476H27.4629V1.36328H31.5156V2.22476H31.4481Z" fill="#A9AEBE"/>
<path d="M42.9311 4.80874V6.67502H41.918V1.36328H43.8768C44.2145 1.36328 44.5522 1.43506 44.89 1.57862C45.1601 1.72218 45.3628 1.93752 45.5654 2.22464C45.7005 2.51177 45.768 2.79889 45.768 3.15779C45.768 3.66025 45.633 4.09093 45.2952 4.37805C44.9575 4.66517 44.4847 4.80874 43.9443 4.80874H42.9311ZM42.9311 3.87559H43.8092C44.0794 3.87559 44.2821 3.80381 44.4171 3.66025C44.5522 3.51669 44.6198 3.30135 44.6198 3.08601C44.6198 2.79889 44.5522 2.65533 44.4171 2.43999C44.2821 2.29643 44.0794 2.22464 43.8092 2.22464H42.8636V3.87559H42.9311Z" fill="#A9AEBE"/>
<path d="M52.7928 5.52711H51.0366L50.6989 6.60397H49.6182L51.4419 1.36328H52.3875L54.2113 6.60397H53.1305L52.7928 5.52711ZM51.2393 4.66563H52.4551L51.9147 2.7273L51.2393 4.66563Z" fill="#A9AEBE"/>
<path d="M61.3033 2.80003C61.3033 2.58467 61.2358 2.4411 61.1007 2.29752C60.8981 2.22573 60.6954 2.15394 60.4928 2.15394C60.2902 2.15394 60.0875 2.22573 59.9525 2.29752C59.8174 2.4411 59.7498 2.58467 59.7498 2.72825H58.6691C58.6691 2.4411 58.7367 2.15394 58.8717 1.93858C59.0068 1.72322 59.2095 1.50785 59.5472 1.43607C59.8174 1.29249 60.1551 1.2207 60.4253 1.2207C60.9656 1.2207 61.4384 1.36428 61.7762 1.57964C62.1139 1.79501 62.249 2.22573 62.249 2.65646C62.249 2.87182 62.1814 3.08719 62.0463 3.30255C61.9112 3.51791 61.7086 3.66149 61.506 3.80506C61.7762 3.87685 61.9788 4.09221 62.1139 4.23579C62.249 4.45115 62.3165 4.66652 62.3165 5.02545C62.3165 5.52797 62.1139 5.88691 61.7762 6.17406C61.4384 6.46121 60.9656 6.60479 60.4253 6.60479C60.0875 6.60479 59.7498 6.533 59.4796 6.38942C59.2095 6.24585 59.0068 6.10227 58.8042 5.81512C58.6691 5.59976 58.6016 5.31261 58.6016 5.02545H59.6147C59.6147 5.24082 59.6823 5.38439 59.8174 5.52797C60.02 5.74333 60.2226 5.81512 60.4928 5.81512C60.763 5.81512 60.9656 5.74333 61.1683 5.59976C61.3033 5.52797 61.3709 5.38439 61.3709 5.16903C61.3709 4.88188 61.3033 4.66652 61.1683 4.59473C61.0332 4.52294 60.8305 4.45115 60.5604 4.45115H59.9525V3.51791H60.5604C61.0332 3.51791 61.3033 3.30255 61.3033 2.80003Z" fill="#A9AEBE"/>
<path d="M68.3276 4.80874V6.67502H67.3145V1.36328H69.2733C69.611 1.36328 69.9487 1.43506 70.2864 1.57862C70.5566 1.72218 70.7593 1.93752 70.9619 2.22464C71.097 2.51177 71.1645 2.79889 71.1645 3.15779C71.1645 3.66025 71.0294 4.09093 70.6917 4.37805C70.354 4.66517 69.8812 4.80874 69.3408 4.80874H68.3276ZM68.3276 3.87559H69.2057C69.4759 3.87559 69.6785 3.80381 69.8136 3.66025C69.9487 3.51669 70.0163 3.30135 70.0163 3.08601C70.0163 2.79889 69.9487 2.65533 69.8136 2.43999C69.6785 2.29643 69.4759 2.22464 69.2057 2.22464H68.2601V3.87559H68.3276Z" fill="#A9AEBE"/>
<path d="M78.1893 5.52711H76.4331L76.0954 6.60397H75.0146L76.8384 1.36328H77.784L79.6078 6.60397H78.527L78.1893 5.52711ZM76.6357 4.66563H77.8516L77.2437 2.7273L76.6357 4.66563Z" fill="#A9AEBE"/>
<path d="M87.4435 2.22476H85.2145V3.22983H86.0251C86.633 3.22983 87.0382 3.37341 87.376 3.66057C87.7137 3.94773 87.9163 4.37847 87.9163 4.881C87.9163 5.38353 87.7137 5.81428 87.376 6.10144C87.0382 6.3886 86.5654 6.53218 86.0251 6.60397H84.1338V1.36328H87.376V2.22476H87.4435ZM85.2821 4.1631V5.74249H86.0926C86.3628 5.74249 86.5654 5.6707 86.7005 5.52711C86.8356 5.38353 86.9032 5.16816 86.9032 4.881C86.9032 4.66563 86.8356 4.45026 86.7005 4.30668C86.5654 4.1631 86.3628 4.09131 86.0926 4.09131H85.2821V4.1631Z" fill="#A9AEBE"/>
<path d="M96.8324 4.16426C96.8324 4.66674 96.7649 5.16922 96.5622 5.52813C96.3596 5.88704 96.1569 6.24595 95.8192 6.4613C95.4815 6.67665 95.1437 6.74843 94.7385 6.74843C94.3332 6.74843 93.9955 6.67665 93.6577 6.4613C93.32 6.24595 93.1174 5.95882 92.9147 5.52813C92.7121 5.16922 92.6445 4.66674 92.6445 4.16426V3.87713C92.6445 3.37466 92.7121 2.87218 92.9147 2.51327C93.1174 2.15436 93.32 1.79545 93.6577 1.5801C93.9955 1.36475 94.3332 1.29297 94.7385 1.29297C95.1437 1.29297 95.549 1.36475 95.8192 1.5801C96.1569 1.79545 96.3596 2.08257 96.5622 2.51327C96.7649 2.87218 96.8324 3.37466 96.8324 3.87713V4.16426ZM95.8192 3.87713C95.8192 3.30288 95.7517 2.87218 95.549 2.58505C95.3464 2.29792 95.0762 2.15436 94.7385 2.15436C94.4007 2.15436 94.1305 2.29792 93.9279 2.58505C93.7253 2.87218 93.6577 3.30288 93.6577 3.80535V4.09248C93.6577 4.59496 93.7253 5.02565 93.9279 5.31278C94.1305 5.59991 94.4007 5.74347 94.7385 5.74347C95.0762 5.74347 95.3464 5.59991 95.549 5.31278C95.7517 5.02565 95.8192 4.59496 95.8192 4.09248V3.87713Z" fill="#A9AEBE"/>
<path d="M105.208 2.22476H103.722V6.60397H102.709V2.22476H101.223V1.36328H105.275V2.22476H105.208Z" fill="#A9AEBE"/>
<path d="M112.301 5.52711H110.544L110.207 6.60397H109.126L110.95 1.36328H111.895L113.719 6.60397H112.638L112.301 5.52711ZM110.815 4.66563H112.03L111.422 2.7273L110.815 4.66563Z" fill="#A9AEBE"/>
<path d="M122.431 6.60397H121.418V4.37847H119.459V6.60397H118.446V1.36328H119.459V3.51699H121.418V1.36328H122.431V6.60397Z" fill="#A9AEBE"/>
<path d="M4.97071 41.1353C4.90316 41.7096 4.76807 42.1404 4.3628 42.4993C4.02507 42.8583 3.55225 43.0018 2.94434 43.0018C2.33643 43.0018 1.79606 42.7865 1.45833 42.3557C1.12061 41.925 0.917969 41.2789 0.917969 40.4892V40.2021C0.917969 39.6995 0.985514 39.2688 1.18815 38.8381C1.32324 38.4791 1.59343 38.192 1.93115 37.9766C2.26888 37.7612 2.60661 37.6895 3.01188 37.6895C3.55225 37.6895 4.02507 37.833 4.3628 38.192C4.70052 38.5509 4.90316 38.9817 4.97071 39.556H3.95752C3.95752 39.197 3.82243 38.9817 3.68734 38.8381C3.55225 38.6945 3.28207 38.6227 3.01188 38.6227C2.67415 38.6227 2.40397 38.7663 2.26888 38.9817C2.13379 39.197 1.9987 39.4842 1.9987 40.0585V40.4892C1.9987 41.0635 2.06624 41.4943 2.26888 41.7096C2.40397 41.9968 2.67415 42.0686 3.01188 42.0686C3.34961 42.0686 3.55225 41.9968 3.68734 41.8532C3.82243 41.7096 3.95752 41.4943 3.95752 41.1353H4.97071Z" fill="#A9AEBE"/>
<path d="M9.96923 40.9896H9.15869V42.9278H8.14551V37.6875H9.96923C10.5771 37.6875 10.9824 37.8311 11.3201 38.1182C11.6579 38.4053 11.793 38.7643 11.793 39.2668C11.793 39.6257 11.7254 39.9128 11.5903 40.2C11.4552 40.4153 11.2526 40.6307 10.9149 40.7742L11.9956 42.9278V42.9996H10.9149L9.96923 40.9896ZM9.15869 40.1282H10.0368C10.307 40.1282 10.5096 40.0564 10.6447 39.9128C10.7798 39.7693 10.8473 39.5539 10.8473 39.3385C10.8473 39.1232 10.7798 38.9078 10.6447 38.7643C10.5096 38.6207 10.307 38.5489 10.0368 38.5489H9.22623V40.1282H9.15869Z" fill="#A9AEBE"/>
<path d="M18.0746 40.6309H16.1157V42.0667H18.4123V42.9282H15.1025V37.6875H18.4123V38.549H16.1157V39.7694H18.0746V40.6309Z" fill="#A9AEBE"/>
<path d="M24.2888 41.8513H22.5327L22.195 42.9282H21.1143L22.938 37.6875H23.8836L25.7073 42.9282H24.6266L24.2888 41.8513ZM22.8029 40.9181H24.0187L23.4108 38.9797L22.8029 40.9181Z" fill="#A9AEBE"/>
<path d="M32.0565 38.549H30.5705V42.9282H29.5573V38.549H28.0713V37.6875H32.124V38.549H32.0565Z" fill="#A9AEBE"/>
<path d="M36.1762 42.9282H35.1631V37.6875H36.1762V42.9282Z" fill="#A9AEBE"/>
<path d="M41.5132 41.5652L42.6615 37.6172H43.8098L42.0536 42.8572H40.9728L39.2842 37.6172H40.4325L41.5132 41.5652Z" fill="#A9AEBE"/>
<path d="M49.6859 40.6309H47.727V42.0667H50.0236V42.9282H46.7139V37.6875H50.0236V38.549H47.727V39.7694H49.6859V40.6309Z" fill="#A9AEBE"/>
<path d="M61.2365 41.4206L61.9119 37.6875H62.9251L61.8444 42.9282H60.8312L60.0207 39.4105L59.2101 42.9282H58.1969L57.1162 37.6875H58.1294L58.8048 41.4206L59.6154 37.6875H60.4935L61.2365 41.4206Z" fill="#A9AEBE"/>
<path d="M68.9359 40.6309H66.977V42.0667H69.2736V42.9282H65.9639V37.6875H69.2736V38.549H66.977V39.7694H68.9359V40.6309Z" fill="#A9AEBE"/>
<path d="M72.3809 42.9282V37.6875H74.137C74.7449 37.6875 75.2177 37.8311 75.4879 38.0465C75.8257 38.2618 75.9607 38.6208 75.9607 39.1233C75.9607 39.4105 75.8932 39.6258 75.7581 39.7694C75.623 39.913 75.4879 40.1284 75.2177 40.2002C75.4879 40.2719 75.6906 40.4155 75.8257 40.6309C75.9607 40.8463 76.0283 41.0616 76.0283 41.3488C76.0283 41.8513 75.8932 42.2103 75.5555 42.4974C75.2177 42.7846 74.8125 42.8564 74.2721 42.9282H72.3809ZM73.394 39.8412H74.137C74.6774 39.8412 74.88 39.6258 74.88 39.1951C74.88 38.9797 74.8125 38.7644 74.6774 38.6926C74.5423 38.6208 74.3397 38.549 74.0695 38.549H73.3265V39.8412H73.394ZM73.394 40.6309V42.0667H74.2721C74.5423 42.0667 74.6774 41.9949 74.8125 41.8513C74.9476 41.7078 75.0151 41.5642 75.0151 41.3488C75.0151 40.8463 74.8125 40.6309 74.3397 40.6309H73.394Z" fill="#A9AEBE"/>
<path d="M86.3631 41.8513H84.6069L84.2692 42.9282H83.1885L85.0122 37.6875H85.9578L87.7816 42.9282H86.7008L86.3631 41.8513ZM84.8771 40.9181H86.0929L85.485 38.9797L84.8771 40.9181Z" fill="#A9AEBE"/>
<path d="M94.6036 42.2113C94.4009 42.4267 94.1308 42.642 93.7931 42.7856C93.4553 42.9292 93.1176 43.0009 92.6448 43.0009C92.2395 43.0009 91.8343 42.9292 91.4966 42.7138C91.1588 42.4985 90.9562 42.2113 90.7536 41.8524C90.5509 41.4935 90.4834 41.0628 90.4834 40.4885V40.1296C90.4834 39.6271 90.5509 39.1246 90.7536 38.7657C90.9562 38.4068 91.1588 38.1197 91.4966 37.9043C91.8343 37.689 92.172 37.6172 92.5773 37.6172C93.1852 37.6172 93.5904 37.7608 93.9281 38.0479C94.2659 38.335 94.4685 38.7657 94.536 39.34H93.5229C93.4553 39.0529 93.3878 38.8375 93.2527 38.6939C93.1176 38.5504 92.915 38.4786 92.6448 38.4786C92.3071 38.4786 92.0369 38.6222 91.8343 38.9093C91.6316 39.1964 91.5641 39.6271 91.5641 40.1296V40.4885C91.5641 41.0628 91.6316 41.4217 91.8343 41.7088C92.0369 41.996 92.3071 42.1395 92.7123 42.1395C93.1176 42.1395 93.3878 42.0678 93.5229 41.8524V40.9192H92.5773V40.1296H94.536V42.2113H94.6036Z" fill="#A9AEBE"/>
<path d="M100.885 40.6309H98.9263V42.0667H101.223V42.9282H97.9131V37.6875H101.223V38.549H98.9263V39.7694H100.885V40.6309Z" fill="#A9AEBE"/>
<path d="M108.383 42.9282H107.369L105.411 39.4823V42.9282H104.397V37.6875H105.411L107.369 41.1334V37.6875H108.383V42.9282Z" fill="#A9AEBE"/>
<path d="M115.678 41.1332C115.61 41.7074 115.475 42.1381 115.07 42.4971C114.732 42.856 114.259 42.9996 113.651 42.9996C113.043 42.9996 112.503 42.7842 112.165 42.3535C111.828 41.9228 111.625 41.2767 111.625 40.4871V40.2C111.625 39.6975 111.693 39.2668 111.895 38.8361C112.03 38.4771 112.3 38.19 112.638 37.9746C112.976 37.7593 113.314 37.6875 113.719 37.6875C114.259 37.6875 114.732 37.8311 115.07 38.19C115.408 38.5489 115.61 38.9796 115.678 39.5539H114.665C114.665 39.195 114.529 38.9796 114.394 38.8361C114.259 38.6925 113.989 38.6207 113.719 38.6207C113.381 38.6207 113.111 38.7643 112.976 38.9796C112.841 39.195 112.706 39.6257 112.706 40.2V40.6307C112.706 41.2049 112.773 41.6357 112.976 41.851C113.111 42.1381 113.381 42.2099 113.719 42.2099C114.057 42.2099 114.259 42.1381 114.394 41.9946C114.529 41.851 114.665 41.6357 114.665 41.2767H115.678V41.1332Z" fill="#A9AEBE"/>
<path d="M120.541 39.9859L121.554 37.6172H122.703L121.082 40.9909V42.9289H120.068V40.9909L118.447 37.6172H119.596L120.541 39.9859Z" fill="#A9AEBE"/>
</svg>
