<svg width="158" height="29" viewBox="0 0 158 29" fill="none" xmlns="http://www.w3.org/2000/svg">
<path d="M35.4201 1.29423C34.587 1.34685 33.9752 1.4521 33.5846 1.60997C33.2201 1.76784 32.9728 2.07042 32.8426 2.51771C32.7125 2.96501 32.6474 3.68857 32.6474 4.68841V24.2642C32.6474 25.264 32.7125 25.9876 32.8426 26.4348C32.9989 26.8821 33.2592 27.1847 33.6237 27.3426C33.9882 27.5005 34.587 27.6057 35.4201 27.6583V28.4477C33.832 28.3687 31.5279 28.3293 28.5079 28.3293C25.3577 28.3293 23.0406 28.3687 21.5566 28.4477V27.6583C22.4939 27.6057 23.1708 27.5005 23.5873 27.3426C24.0299 27.1847 24.3293 26.8821 24.4855 26.4348C24.6417 25.9876 24.7199 25.264 24.7199 24.2642V4.0964L15.3083 28.4082H14.6835L3.67088 3.07025V20.7121C3.67088 22.6592 3.74898 24.0668 3.90519 24.9351C4.0614 25.7771 4.39985 26.3954 4.92054 26.7901C5.46727 27.1847 6.36546 27.4742 7.61512 27.6583V28.4477C6.5477 28.3687 5.08976 28.3293 3.24131 28.3293C1.86147 28.3293 0.781038 28.3687 0 28.4477V27.6583C0.807073 27.4742 1.40587 27.1979 1.79639 26.8295C2.18691 26.4349 2.44725 25.8428 2.57743 25.0535C2.7076 24.2642 2.77268 23.0801 2.77268 21.5014V4.68841C2.77268 3.68857 2.69458 2.96501 2.53837 2.51771C2.4082 2.07042 2.16087 1.76784 1.79639 1.60997C1.4319 1.4521 0.833107 1.34685 0 1.29423V0.504883C0.781038 0.583816 1.86147 0.623284 3.24131 0.623284C6.36546 0.623284 9.06004 0.583816 11.3251 0.504883L18.7059 17.2785L25.1104 0.623284H28.5079C31.5279 0.623284 33.832 0.583816 35.4201 0.504883V1.29423Z" fill="#3C3C3C"/>
<path d="M57.4121 24.1458C57.4121 25.3561 57.5683 26.2375 57.8807 26.7901C58.2192 27.3426 58.7919 27.6189 59.599 27.6189V28.4477C58.7919 28.3687 57.9848 28.3293 57.1778 28.3293C54.4702 28.3293 52.2052 28.5135 50.3827 28.8818V26.0402C49.2112 28.0135 47.1414 29.0002 44.1735 29.0002C42.0907 29.0002 40.6198 28.474 39.7606 27.4215C39.3701 26.9479 39.0837 26.3164 38.9015 25.5271C38.7192 24.7114 38.6281 23.6458 38.6281 22.3303V12.2661C38.6281 11.0558 38.4589 10.1744 38.1204 9.62181C37.808 9.06927 37.2483 8.793 36.4412 8.793V7.96419C37.2483 8.04312 38.0554 8.08259 38.8624 8.08259C41.57 8.08259 43.835 7.89841 45.6575 7.53005V24.4615C45.6575 25.3035 45.8007 25.9349 46.087 26.3559C46.3995 26.7506 46.8941 26.9479 47.571 26.9479C48.326 26.9479 48.9769 26.6848 49.5236 26.1586C50.0964 25.606 50.3827 24.9219 50.3827 24.1063V12.2661C50.3827 11.0558 50.2135 10.1744 49.8751 9.62181C49.5627 9.06927 49.0029 8.793 48.1958 8.793V7.96419C49.0029 8.04312 49.81 8.08259 50.6171 8.08259C53.3247 8.08259 55.5897 7.89841 57.4121 7.53005V24.1458Z" fill="#3C3C3C"/>
<path d="M69.3257 7.41165C70.341 7.41165 71.2913 7.53005 72.1764 7.76685C73.0877 7.97734 73.7776 8.21415 74.2462 8.47726C74.5326 8.63513 74.7669 8.71407 74.9491 8.71407C75.4959 8.71407 75.8213 8.29308 75.9254 7.45112H76.7065C76.6023 8.81931 76.5503 11.1873 76.5503 14.5552H75.7692C75.5609 12.8187 75.0663 11.3584 74.2852 10.1744C73.5302 8.96403 72.4238 8.35886 70.9658 8.35886C70.315 8.35886 69.7682 8.5562 69.3257 8.95087C68.8831 9.34554 68.6618 9.88493 68.6618 10.569C68.6618 11.4373 68.9482 12.2135 69.5209 12.8976C70.0937 13.5554 70.9919 14.371 72.2155 15.3446C72.2676 15.3709 72.6451 15.6735 73.348 16.2523C74.8059 17.4626 75.8734 18.5414 76.5503 19.4886C77.2272 20.4095 77.5656 21.5541 77.5656 22.9223C77.5656 24.08 77.2141 25.1324 76.5112 26.0796C75.8083 27.0005 74.845 27.7241 73.6214 28.2503C72.4238 28.7503 71.109 29.0002 69.6771 29.0002C68.0369 29.0002 66.6962 28.6713 65.6548 28.0135C65.2122 27.7767 64.8477 27.6057 64.5613 27.5005C64.2749 27.3952 63.9886 27.3426 63.7022 27.3426C63.2075 27.3426 62.843 27.803 62.6087 28.7239H61.8277C61.9318 27.2242 61.9839 24.593 61.9839 20.8305H62.7649C62.9993 22.988 63.572 24.7246 64.4832 26.0402C65.3944 27.3558 66.54 28.0135 67.9198 28.0135C68.5707 28.0135 69.1044 27.8294 69.5209 27.461C69.9635 27.0926 70.1848 26.5533 70.1848 25.8428C70.1848 25.1061 70.0286 24.4483 69.7162 23.8695C69.4298 23.2906 69.0653 22.7776 68.6227 22.3303C68.2062 21.8567 67.5163 21.1857 66.553 20.3174C65.4595 19.2913 64.6264 18.4756 64.0536 17.8705C63.4809 17.2653 62.9862 16.568 62.5697 15.7787C62.1792 14.963 61.9839 14.0685 61.9839 13.0949C61.9839 11.9635 62.3223 10.9637 62.9992 10.0954C63.6761 9.22714 64.5743 8.56935 65.6938 8.12206C66.8133 7.64845 68.0239 7.41165 69.3257 7.41165Z" fill="#3C3C3C"/>
<path d="M91.7289 24.6983C93.6295 24.6983 95.2046 23.8169 96.4542 22.054L97.1181 22.2908C96.5453 24.1326 95.569 25.7113 94.1892 27.0269C92.8354 28.3424 91.0911 29.0002 88.9563 29.0002C86.2226 29.0002 84.0357 28.1451 82.3955 26.4348C80.7554 24.7246 79.9353 21.9882 79.9353 18.2257C79.9353 14.621 80.8465 11.9241 82.6689 10.1349C84.5173 8.31939 86.9516 7.41165 89.9716 7.41165C94.8921 7.41165 97.3524 10.3585 97.3524 16.2523H87.277C87.251 16.568 87.238 17.0417 87.238 17.6731C87.238 20.199 87.6675 22.0014 88.5267 23.0801C89.4119 24.1589 90.4793 24.6983 91.7289 24.6983ZM89.6982 8.31939C88.2403 8.31939 87.3812 10.7137 87.1208 15.5024H91.6508C91.6769 13.3975 91.5207 11.6741 91.1822 10.3322C90.8698 8.99034 90.3751 8.31939 89.6982 8.31939Z" fill="#3C3C3C"/>
<path d="M119.765 24.1458C119.765 25.3561 119.922 26.2375 120.234 26.7901C120.573 27.3426 121.145 27.6189 121.952 27.6189V28.4477C121.145 28.3687 120.338 28.3293 119.531 28.3293C116.824 28.3293 114.559 28.5135 112.736 28.8818V26.0402C111.565 28.0135 109.495 29.0002 106.527 29.0002C104.444 29.0002 102.973 28.474 102.114 27.4215C101.723 26.9479 101.437 26.3164 101.255 25.5271C101.073 24.7114 100.981 23.6458 100.981 22.3303V12.2661C100.981 11.0558 100.812 10.1744 100.474 9.62181C100.161 9.06927 99.6017 8.793 98.7946 8.793V7.96419C99.6017 8.04312 100.409 8.08259 101.216 8.08259C103.923 8.08259 106.188 7.89841 108.011 7.53005V24.4615C108.011 25.3035 108.154 25.9349 108.44 26.3559C108.753 26.7506 109.247 26.9479 109.924 26.9479C110.679 26.9479 111.33 26.6848 111.877 26.1586C112.45 25.606 112.736 24.9219 112.736 24.1063V12.2661C112.736 11.0558 112.567 10.1744 112.228 9.62181C111.916 9.06927 111.356 8.793 110.549 8.793V7.96419C111.356 8.04312 112.163 8.08259 112.97 8.08259C115.678 8.08259 117.943 7.89841 119.765 7.53005V24.1458Z" fill="#3C3C3C"/>
<path d="M155.813 24.7772C155.813 25.856 155.969 26.6059 156.282 27.0269C156.62 27.4215 157.193 27.6189 158 27.6189V28.4477C155.188 28.3424 153.366 28.2898 152.533 28.2898C151.7 28.2898 149.981 28.3424 147.378 28.4477V27.6189C147.899 27.6189 148.263 27.4215 148.471 27.0269C148.68 26.6322 148.784 25.8823 148.784 24.7772V11.9504C148.784 11.1084 148.628 10.4901 148.315 10.0954C148.029 9.67443 147.547 9.46394 146.87 9.46394C146.193 9.46394 145.568 9.75337 144.996 10.3322C144.449 10.9111 144.111 11.5952 143.98 12.3845C144.032 13.016 144.058 13.5817 144.058 14.0816V24.7772C144.058 25.8823 144.189 26.6322 144.449 27.0269C144.709 27.4215 145.178 27.6189 145.855 27.6189V28.4477C143.251 28.3424 141.559 28.2898 140.778 28.2898C139.945 28.2898 138.227 28.3424 135.623 28.4477V27.6189C136.144 27.6189 136.508 27.4215 136.717 27.0269C136.925 26.6059 137.029 25.856 137.029 24.7772V11.9504C137.029 11.1084 136.912 10.4901 136.678 10.0954C136.443 9.67443 136.053 9.46394 135.506 9.46394C134.751 9.46394 134.087 9.74021 133.514 10.2928C132.968 10.819 132.694 11.4899 132.694 12.3056V24.7772C132.694 25.8823 132.799 26.6322 133.007 27.0269C133.215 27.4215 133.58 27.6189 134.1 27.6189V28.4477C131.705 28.3424 130.117 28.2898 129.336 28.2898C128.451 28.2898 126.498 28.3424 123.478 28.4477V27.6189C124.285 27.6189 124.845 27.4215 125.157 27.0269C125.496 26.6059 125.665 25.856 125.665 24.7772V12.2661C125.665 11.0558 125.496 10.1744 125.157 9.62181C124.845 9.06927 124.285 8.793 123.478 8.793V7.96419C124.311 8.04312 125.118 8.08259 125.899 8.08259C128.607 8.08259 130.872 7.89841 132.694 7.53005V10.3717C133.788 8.39833 135.727 7.41165 138.513 7.41165C140.596 7.41165 142.067 7.93788 142.926 8.99034C143.316 9.46394 143.603 10.0823 143.785 10.8453C144.436 9.58235 145.295 8.70091 146.363 8.20099C147.456 7.67476 148.758 7.41165 150.268 7.41165C152.35 7.41165 153.821 7.93788 154.681 8.99034C155.071 9.46394 155.357 10.1086 155.54 10.9242C155.722 11.7136 155.813 12.766 155.813 14.0816V24.7772Z" fill="#3C3C3C"/>
<path d="M39.5544 0.662444C38.8261 0.662444 38.2527 0.89798 37.8342 1.36905C37.4158 1.84012 37.2066 2.48517 37.2066 3.30419C37.2066 4.14195 37.4039 4.79235 37.7985 5.25539C38.1931 5.71843 38.7572 5.94995 39.4908 5.94995C39.9781 5.94995 40.4257 5.88706 40.8335 5.76126V6.12259C40.4495 6.25909 39.9702 6.32735 39.3955 6.32735C38.5798 6.32735 37.9375 6.06103 37.4688 5.5284C37 4.99577 36.7656 4.25169 36.7656 3.29616C36.7656 2.69929 36.8769 2.17335 37.0993 1.71834C37.3244 1.26333 37.6462 0.912701 38.0647 0.666459C38.4857 0.417541 38.9744 0.293081 39.5305 0.293081C40.0973 0.293081 40.6044 0.400143 41.052 0.614267L40.8891 0.983629C40.4654 0.769506 40.0205 0.662444 39.5544 0.662444Z" fill="#F40009"/>
<path d="M45.6006 4.05898C45.6006 4.77094 45.4298 5.32766 45.0881 5.72914C44.7465 6.12794 44.2751 6.32735 43.6739 6.32735C43.2952 6.32735 42.9615 6.23501 42.6728 6.05032C42.3842 5.86564 42.163 5.60067 42.0094 5.25539C41.8558 4.91012 41.779 4.51131 41.779 4.05898C41.779 3.34702 41.9498 2.79297 42.2915 2.39684C42.6331 1.99804 43.1019 1.79864 43.6977 1.79864C44.291 1.79864 44.7558 2.00072 45.0921 2.40487C45.4311 2.80635 45.6006 3.35772 45.6006 4.05898ZM42.1921 4.05898C42.1921 4.65852 42.3219 5.12692 42.5815 5.46416C42.8436 5.79873 43.2131 5.96601 43.6898 5.96601C44.1665 5.96601 44.5346 5.79873 44.7942 5.46416C45.0564 5.12692 45.1875 4.65852 45.1875 4.05898C45.1875 3.45675 45.055 2.9897 44.7902 2.65781C44.528 2.32592 44.1586 2.15997 43.6819 2.15997C43.2052 2.15997 42.837 2.32592 42.5775 2.65781C42.3206 2.98702 42.1921 3.45408 42.1921 4.05898Z" fill="#F40009"/>
<path d="M48.5204 6.32735C47.9034 6.32735 47.42 6.13062 47.0705 5.73717C46.7209 5.34372 46.5461 4.79503 46.5461 4.0911C46.5461 3.36843 46.7275 2.80635 47.0903 2.40487C47.4531 2.00072 47.9497 1.79864 48.58 1.79864C48.9535 1.79864 49.311 1.86421 49.6526 1.99536L49.5454 2.34867C49.1719 2.22287 48.8475 2.15997 48.5721 2.15997C48.0424 2.15997 47.6412 2.32592 47.3684 2.65781C47.0956 2.98702 46.9592 3.46211 46.9592 4.08307C46.9592 4.67191 47.0956 5.13361 47.3684 5.46818C47.6412 5.80007 48.0225 5.96601 48.5125 5.96601C48.9045 5.96601 49.2686 5.89508 49.605 5.75323V6.12259C49.3295 6.25909 48.968 6.32735 48.5204 6.32735Z" fill="#F40009"/>
<path d="M53.2875 6.24705L53.1882 5.5565H53.1564C52.9393 5.83754 52.7155 6.03694 52.4851 6.15471C52.2573 6.2698 51.9872 6.32735 51.6747 6.32735C51.2509 6.32735 50.9212 6.21761 50.6855 5.99813C50.4498 5.77866 50.3319 5.47487 50.3319 5.08677C50.3319 4.6612 50.5067 4.33065 50.8563 4.09511C51.2085 3.85957 51.717 3.73512 52.3818 3.72173L53.2041 3.69764V3.40858C53.2041 2.99371 53.1207 2.68056 52.9538 2.46911C52.787 2.25766 52.5182 2.15194 52.1474 2.15194C51.7475 2.15194 51.333 2.26435 50.904 2.48918L50.757 2.14391C51.2311 1.91908 51.6998 1.80667 52.1633 1.80667C52.6373 1.80667 52.9909 1.93113 53.224 2.18004C53.4597 2.42896 53.5775 2.81706 53.5775 3.34434V6.24705H53.2875ZM51.6985 5.96601C52.1593 5.96601 52.5221 5.83352 52.787 5.56855C53.0545 5.30089 53.1882 4.93019 53.1882 4.45644V4.02686L52.4334 4.05898C51.8269 4.08842 51.3939 4.18477 51.1344 4.34804C50.8775 4.50864 50.7491 4.76023 50.7491 5.10283C50.7491 5.37584 50.8312 5.58862 50.9953 5.74118C51.1622 5.89107 51.3966 5.96601 51.6985 5.96601Z" fill="#F40009"/>
<path d="M59.6714 0.662444C58.9431 0.662444 58.3698 0.89798 57.9513 1.36905C57.5329 1.84012 57.3236 2.48517 57.3236 3.30419C57.3236 4.14195 57.5209 4.79235 57.9156 5.25539C58.3102 5.71843 58.8743 5.94995 59.6079 5.94995C60.0952 5.94995 60.5427 5.88706 60.9506 5.76126V6.12259C60.5666 6.25909 60.0872 6.32735 59.5125 6.32735C58.6968 6.32735 58.0546 6.06103 57.5858 5.5284C57.1171 4.99577 56.8827 4.25169 56.8827 3.29616C56.8827 2.69929 56.9939 2.17335 57.2164 1.71834C57.4415 1.26333 57.7633 0.912701 58.1817 0.666459C58.6028 0.417541 59.0914 0.293081 59.6476 0.293081C60.2143 0.293081 60.7215 0.400143 61.1691 0.614267L61.0062 0.983629C60.5825 0.769506 60.1375 0.662444 59.6714 0.662444Z" fill="#F40009"/>
<path d="M65.7177 4.05898C65.7177 4.77094 65.5469 5.32766 65.2052 5.72914C64.8636 6.12794 64.3922 6.32735 63.791 6.32735C63.4123 6.32735 63.0786 6.23501 62.7899 6.05032C62.5012 5.86564 62.2801 5.60067 62.1265 5.25539C61.9729 4.91012 61.8961 4.51131 61.8961 4.05898C61.8961 3.34702 62.0669 2.79297 62.4085 2.39684C62.7502 1.99804 63.2189 1.79864 63.8148 1.79864C64.4081 1.79864 64.8728 2.00072 65.2092 2.40487C65.5482 2.80635 65.7177 3.35772 65.7177 4.05898ZM62.3092 4.05898C62.3092 4.65852 62.439 5.12692 62.6985 5.46416C62.9607 5.79873 63.3302 5.96601 63.8069 5.96601C64.2836 5.96601 64.6517 5.79873 64.9112 5.46416C65.1734 5.12692 65.3045 4.65852 65.3045 4.05898C65.3045 3.45675 65.1721 2.9897 64.9073 2.65781C64.6451 2.32592 64.2756 2.15997 63.7989 2.15997C63.3222 2.15997 62.9541 2.32592 62.6946 2.65781C62.4377 2.98702 62.3092 3.45408 62.3092 4.05898Z" fill="#F40009"/>
<path d="M67.3067 6.24705H66.9134V0H67.3067V6.24705Z" fill="#F40009"/>
<path d="M71.3786 6.24705L71.2793 5.5565H71.2475C71.0303 5.83754 70.8065 6.03694 70.5761 6.15471C70.3484 6.2698 70.0782 6.32735 69.7657 6.32735C69.342 6.32735 69.0123 6.21761 68.7765 5.99813C68.5408 5.77866 68.423 5.47487 68.423 5.08677C68.423 4.6612 68.5978 4.33065 68.9474 4.09511C69.2996 3.85957 69.8081 3.73512 70.4728 3.72173L71.2952 3.69764V3.40858C71.2952 2.99371 71.2117 2.68056 71.0449 2.46911C70.878 2.25766 70.6092 2.15194 70.2385 2.15194C69.8385 2.15194 69.4241 2.26435 68.995 2.48918L68.8481 2.14391C69.3221 1.91908 69.7909 1.80667 70.2543 1.80667C70.7284 1.80667 71.082 1.93113 71.315 2.18004C71.5507 2.42896 71.6686 2.81706 71.6686 3.34434V6.24705H71.3786ZM69.7896 5.96601C70.2504 5.96601 70.6132 5.83352 70.878 5.56855C71.1455 5.30089 71.2793 4.93019 71.2793 4.45644V4.02686L70.5245 4.05898C69.918 4.08842 69.485 4.18477 69.2254 4.34804C68.9686 4.50864 68.8401 4.76023 68.8401 5.10283C68.8401 5.37584 68.9222 5.58862 69.0864 5.74118C69.2533 5.89107 69.4876 5.96601 69.7896 5.96601Z" fill="#F40009"/>
</svg>
