<svg width="99" height="185" viewBox="0 0 99 185" fill="none" xmlns="http://www.w3.org/2000/svg">
<g filter="url(#filter0_d)">
<path d="M68.8069 140.752C64.3408 151.09 63.6788 160.117 64.6954 169.628C60.2454 170.611 55.6527 170.851 50.9004 170.851C40.1476 170.851 30.4197 167.937 21.5462 163.133C21.8559 162.466 22.1358 161.972 22.4346 161.473C22.514 161.34 22.5954 161.206 22.6795 161.068C22.975 160.581 23.3029 160.041 23.6916 159.319L23.7018 159.3L23.7103 159.28C27.3059 150.95 29.0952 141.03 28.7655 129.343L28.7652 129.337C27.8094 105.99 34.0273 91.5825 40.7302 79.3786C41.84 77.3581 42.9661 75.394 44.0769 73.4565C49.6689 63.7031 54.8746 54.6233 55.6643 42.4183L55.6743 42.2633L55.5947 42.1298C54.7194 40.6632 54.5589 39.3302 54.8553 38.0699C55.1567 36.7886 55.9413 35.5369 57.0417 34.2755L57.498 33.7524L56.8573 33.4853C56.4533 33.3169 56.236 33.0477 56.1549 32.6078C56.0659 32.1251 56.1425 31.4251 56.4365 30.4481C56.7806 29.5096 57.1504 28.7694 57.9759 28.3203C58.8268 27.8573 60.2691 27.6472 62.9051 28.1098L62.9061 28.11L68.1782 29.0243L73.436 29.936C74.7795 30.2518 76.015 30.8546 76.7628 31.8452C77.4925 32.8119 77.8251 34.239 77.1846 36.3692C77.0893 36.633 76.9681 36.7142 76.8586 36.7565C76.7033 36.8165 76.5083 36.8225 76.207 36.8225H75.4833L75.7393 37.4994C76.3751 39.1803 76.5855 40.6708 76.3698 41.9764C76.1558 43.2718 75.5159 44.4254 74.376 45.4342L74.2517 45.5442L74.2179 45.7067C73.2754 50.2327 72.8956 53.0319 72.8483 57.7123L72.8483 57.7141C72.8013 64.8222 73.3659 71.8826 74.4949 78.848C74.6084 79.5537 74.7183 80.2299 74.8243 80.882C75.9445 87.7724 76.6271 91.9709 76.457 99.7609C76.0834 113.96 73.6566 127.638 68.8069 140.752Z" fill="white" stroke="#F7B2B5"/>
<path d="M46.1162 90.5101C46.1162 92.0898 44.9355 93.2746 43.7548 93.2746C42.5741 93.2746 41.7869 91.6949 42.1805 90.1151C42.1805 88.5354 43.3612 87.3506 44.5419 87.3506C45.329 87.3506 46.1162 88.9303 46.1162 90.5101Z" fill="#3F3F5B"/>
<path d="M72.1162 94.5101C72.1162 96.0898 70.9355 97.2746 69.7548 97.2746C68.5741 97.2746 67.7869 95.6949 68.1805 94.1151C68.1805 92.5354 69.3612 91.3506 70.5419 91.3506C71.329 91.7455 72.1162 92.9303 72.1162 94.5101Z" fill="#3F3F5B"/>
<path d="M65.9625 103.581C67.6916 107.162 62.3279 115.845 51.7437 114.121C41.1596 112.398 41.536 101.519 43.4865 99.323C46.5009 96.8906 51.3221 100.776 55.0681 101.486C59.1909 101.891 64.2667 99.6616 65.9625 103.581Z" fill="#3F3F5B"/>
<path d="M50.582 104.797C48.0441 105.911 45.7833 107.736 44.8302 110.371C46.0383 112.196 48.3104 113.784 51.7461 114.121C59.2713 115.203 64.1697 111.25 65.9428 107.331C64.9454 106.892 64.3247 106.149 63.3605 105.371C59.4038 103.277 54.5939 102.803 50.582 104.797Z" fill="#FF2936"/>
</g>
<defs>
<filter id="filter0_d" x="0.900391" y="0.350586" width="97.1245" height="184" filterUnits="userSpaceOnUse" color-interpolation-filters="sRGB">
<feFlood flood-opacity="0" result="BackgroundImageFix"/>
<feColorMatrix in="SourceAlpha" type="matrix" values="0 0 0 0 0 0 0 0 0 0 0 0 0 0 0 0 0 0 127 0"/>
<feOffset dy="-7"/>
<feGaussianBlur stdDeviation="10"/>
<feColorMatrix type="matrix" values="0 0 0 0 0 0 0 0 0 0 0 0 0 0 0 0 0 0 0.12 0"/>
<feBlend mode="normal" in2="BackgroundImageFix" result="effect1_dropShadow"/>
<feBlend mode="normal" in="SourceGraphic" in2="effect1_dropShadow" result="shape"/>
</filter>
</defs>
</svg>
