<svg width="176" height="144" viewBox="0 0 176 144" fill="none" xmlns="http://www.w3.org/2000/svg">
<path d="M174.153 66.6816C176.467 88.4848 168.214 102.681 158.262 119.8C155.873 123.91 153.385 128.189 150.923 132.782C147.956 138.315 142.87 141.289 135.991 142.438C129.073 143.592 120.429 142.88 110.552 141.075C100.689 139.272 89.6912 136.399 78.086 133.292C76.9092 132.977 75.7261 132.66 74.5375 132.341C64.0191 129.518 53.0663 126.579 42.1103 124.147C16.5166 118.466 6.64348 104.522 4.59828 94.3782C2.017 81.575 0.997553 73.5302 1.16547 68.214C1.33143 62.9601 2.64961 60.5179 4.65714 58.7543C5.70819 57.831 6.98462 57.0621 8.52533 56.1894C8.76537 56.0534 9.0114 55.9152 9.26303 55.7738C10.6061 55.019 12.1085 54.1747 13.7079 53.1129C17.5374 50.5706 21.9198 46.7875 26.5174 39.8045C29.0606 35.9417 30.8039 31.7426 32.3505 27.6411C32.696 26.7249 33.0309 25.816 33.3622 24.9169C34.5259 21.7585 35.6451 18.7211 37.0228 15.911C38.7815 12.3238 40.9215 9.19936 44.0052 6.82356C47.0814 4.45361 51.1679 2.77395 56.9082 2.19425C73.7585 0.492565 101.785 3.68314 126.272 13.8335C150.781 23.9928 171.426 40.9772 174.153 66.6816Z" fill="#F40009" fill-opacity="0.1" stroke="#F40009" stroke-width="2"/>
<circle cx="92.0267" cy="81.3071" r="24.5" fill="#F40009"/>
<path d="M83.4554 90.4738C83.4554 91.105 82.9251 91.6405 82.2411 91.6405C81.557 91.6405 81.0267 91.105 81.0267 90.4738C81.0267 89.8427 81.557 89.3071 82.2411 89.3071C82.9251 89.3071 83.4554 89.8427 83.4554 90.4738Z" fill="#F40009" stroke="white"/>
<path d="M84.084 88.8071C84.084 89.0701 83.8607 89.3071 83.5553 89.3071C83.25 89.3071 83.0267 89.0701 83.0267 88.8071C83.0267 88.5442 83.25 88.3071 83.5553 88.3071C83.8607 88.3071 84.084 88.5442 84.084 88.8071Z" fill="#F40009" stroke="white"/>
<mask id="path-5-inside-1" fill="white">
<ellipse cx="83.2125" cy="86.4738" rx="0.685739" ry="0.666672"/>
</mask>
<ellipse cx="83.2125" cy="86.4738" rx="0.685739" ry="0.666672" fill="#F40009"/>
<path d="M82.8982 86.4738C82.8982 86.2633 83.0657 86.1405 83.2125 86.1405L83.2125 88.1405C84.1167 88.1405 84.8982 87.4207 84.8982 86.4738L82.8982 86.4738ZM83.2125 86.1405C83.3593 86.1405 83.5267 86.2633 83.5267 86.4738L81.5267 86.4738C81.5267 87.4207 82.3082 88.1405 83.2125 88.1405L83.2125 86.1405ZM83.5267 86.4738C83.5267 86.6843 83.3593 86.8071 83.2125 86.8071L83.2125 84.8071C82.3082 84.8071 81.5267 85.5269 81.5267 86.4738L83.5267 86.4738ZM83.2125 86.8071C83.0657 86.8071 82.8982 86.6843 82.8982 86.4738L84.8982 86.4738C84.8982 85.5269 84.1167 84.8071 83.2125 84.8071L83.2125 86.8071Z" fill="white" mask="url(#path-5-inside-1)"/>
<path d="M82.8555 98.9745C82.8555 100.25 81.7879 101.308 80.4411 101.308C79.0943 101.308 78.0267 100.25 78.0267 98.9745C78.0267 97.699 79.0943 96.6411 80.4411 96.6411C81.7879 96.6411 82.8555 97.699 82.8555 98.9745Z" fill="#F40009" stroke="white"/>
<path d="M79.4268 100.974C79.4268 101.329 79.1268 101.64 78.7268 101.64C78.3268 101.64 78.0267 101.329 78.0267 100.974C78.0267 100.619 78.3268 100.307 78.7268 100.307C79.1268 100.307 79.4268 100.619 79.4268 100.974Z" fill="#F40009" stroke="white"/>
<ellipse cx="113.374" cy="43.7297" rx="2.76344" ry="2.64086" transform="rotate(180 113.374 43.7297)" fill="#F40009"/>
<ellipse cx="91.8171" cy="61.6653" rx="8.29031" ry="7.92257" transform="rotate(180 91.8171 61.6653)" fill="#F40009"/>
<ellipse cx="99.8303" cy="58.7646" rx="3.03978" ry="2.90494" transform="rotate(180 99.8303 58.7646)" fill="#F40009"/>
<ellipse cx="91.2658" cy="74.3422" rx="3.31612" ry="3.16903" transform="rotate(180 91.2658 74.3422)" fill="#F40009"/>
<ellipse cx="87.9471" cy="50.5764" rx="2.76344" ry="2.64086" transform="rotate(180 87.9471 50.5764)" fill="#F40009"/>
<ellipse cx="94.5805" cy="28.3917" rx="1.65806" ry="1.58451" transform="rotate(180 94.5805 28.3917)" fill="#F40009"/>
<ellipse cx="95.1331" cy="32.0882" rx="1.10537" ry="1.05634" transform="rotate(180 95.1331 32.0882)" fill="#F40009"/>
<ellipse cx="95.4095" cy="45.0307" rx="4.69784" ry="4.48946" transform="rotate(180 95.4095 45.0307)" fill="#F40009"/>
<ellipse cx="98.173" cy="41.8587" rx="1.9344" ry="1.8486" transform="rotate(180 98.173 41.8587)" fill="#F40009"/>
<path d="M106.021 81.0152C105.983 81.5844 105.47 82.0408 104.842 81.9983C104.214 81.9558 103.764 81.4344 103.802 80.8652C103.839 80.2961 104.353 79.8397 104.981 79.8822C105.609 79.9246 106.058 80.4461 106.021 81.0152Z" fill="#F40009" stroke="white"/>
<path d="M109.639 65.31C109.489 67.599 107.443 69.3522 105.039 69.1896C102.634 69.0271 100.836 67.0142 100.987 64.7252C101.137 62.4362 103.182 60.683 105.587 60.8456C107.992 61.0081 109.789 63.021 109.639 65.31Z" fill="#F40009" stroke="white"/>
<path d="M101.804 66.5004C101.761 67.1556 101.171 67.6768 100.454 67.6283C99.7366 67.5798 99.22 66.9838 99.263 66.3287C99.3061 65.6735 99.8961 65.1523 100.613 65.2008C101.33 65.2492 101.847 65.8453 101.804 66.5004Z" fill="#F40009" stroke="white"/>
<path d="M107.554 57.6611C107.506 58.4023 106.839 58.9883 106.033 58.9338C105.227 58.8794 104.643 58.2088 104.692 57.4677C104.741 56.7265 105.407 56.1405 106.213 56.1949C107.019 56.2494 107.603 56.92 107.554 57.6611Z" fill="#F40009" stroke="white"/>
<path d="M108.243 71.7849C108.206 72.354 107.692 72.8104 107.064 72.7679C106.436 72.7255 105.987 72.2041 106.024 71.6349C106.062 71.0657 106.575 70.6094 107.203 70.6518C107.831 70.6943 108.28 71.2157 108.243 71.7849Z" fill="#F40009" stroke="white"/>
<mask id="path-23-inside-2" fill="white">
<ellipse rx="0.967203" ry="0.936207" transform="matrix(0.997724 0.0674366 -0.0655624 0.997848 102.409 84.5255)"/>
</mask>
<ellipse rx="0.967203" ry="0.936207" transform="matrix(0.997724 0.0674366 -0.0655624 0.997848 102.409 84.5255)" fill="#F40009"/>
<path d="M102.376 84.5233C102.377 84.5116 102.38 84.4989 102.386 84.4879C102.391 84.4777 102.397 84.4716 102.401 84.4684C102.409 84.4618 102.415 84.462 102.413 84.4619L102.282 86.4576C103.335 86.5288 104.299 85.7556 104.371 84.6582L102.376 84.5233ZM102.413 84.4619C102.411 84.4618 102.417 84.4624 102.424 84.4699C102.427 84.4737 102.432 84.4805 102.436 84.4913C102.44 84.5029 102.442 84.516 102.441 84.5278L100.446 84.3929C100.374 85.4903 101.229 86.3864 102.282 86.4576L102.413 84.4619ZM102.441 84.5278C102.441 84.5395 102.437 84.5522 102.431 84.5632C102.426 84.5734 102.42 84.5795 102.416 84.5827C102.409 84.5893 102.403 84.5891 102.404 84.5892L102.536 82.5935C101.482 82.5223 100.518 83.2955 100.446 84.3929L102.441 84.5278ZM102.404 84.5892C102.406 84.5893 102.4 84.5887 102.393 84.5812C102.39 84.5774 102.385 84.5706 102.381 84.5598C102.377 84.5481 102.375 84.535 102.376 84.5233L104.371 84.6582C104.443 83.5608 103.589 82.6647 102.536 82.5935L102.404 84.5892Z" fill="white" mask="url(#path-23-inside-2)"/>
<mask id="path-25-inside-3" fill="white">
<ellipse rx="0.644802" ry="0.624138" transform="matrix(0.997724 0.0674366 -0.0655624 0.997848 102.237 82.3259)"/>
</mask>
<ellipse rx="0.644802" ry="0.624138" transform="matrix(0.997724 0.0674366 -0.0655624 0.997848 102.237 82.3259)" fill="#F40009"/>
<path d="M101.882 82.302C101.898 82.0645 102.097 81.9398 102.261 81.9509L102.13 83.9466C103.006 84.0058 103.817 83.3623 103.878 82.4369L101.882 82.302ZM102.261 81.9509C102.426 81.962 102.607 82.1124 102.591 82.3499L100.596 82.215C100.535 83.1405 101.255 83.8874 102.13 83.9466L102.261 81.9509ZM102.591 82.3499C102.576 82.5874 102.377 82.7121 102.212 82.701L102.343 80.7053C101.468 80.6461 100.657 81.2896 100.596 82.215L102.591 82.3499ZM102.212 82.701C102.047 82.6899 101.867 82.5395 101.882 82.302L103.878 82.4369C103.939 81.5114 103.219 80.7645 102.343 80.7053L102.212 82.701Z" fill="white" mask="url(#path-25-inside-3)"/>
<path d="M104.811 74.8375C104.734 76.0086 103.685 76.9189 102.435 76.8344C101.185 76.7499 100.264 75.7064 100.341 74.5353C100.418 73.3642 101.467 72.454 102.717 72.5385C103.967 72.623 104.888 73.6664 104.811 74.8375Z" fill="#F40009" stroke="white"/>
<path d="M101.471 76.4856C101.451 76.7968 101.167 77.0586 100.805 77.0342C100.444 77.0097 100.197 76.712 100.217 76.4008C100.238 76.0896 100.521 75.8278 100.883 75.8522C101.245 75.8767 101.492 76.1744 101.471 76.4856Z" fill="#F40009" stroke="white"/>
<path d="M75.2835 73.8071C75.2835 74.4382 74.7532 74.9737 74.0691 74.9737C73.3851 74.9737 72.8548 74.4382 72.8548 73.8071C72.8548 73.1759 73.3851 72.6404 74.0691 72.6404C74.7532 72.6404 75.2835 73.1759 75.2835 73.8071Z" fill="#F40009" stroke="white"/>
<path d="M78.0267 56.8079C78.0267 59.28 75.9614 61.3079 73.3837 61.3079C70.806 61.3079 68.7407 59.28 68.7407 56.8079C68.7407 54.3358 70.806 52.3079 73.3837 52.3079C75.9614 52.3079 78.0267 54.3358 78.0267 56.8079Z" fill="#F40009" stroke="white"/>
<path d="M69.7983 58.6384C69.7983 59.3616 69.1912 59.9718 68.4125 59.9718C67.6338 59.9718 67.0267 59.3616 67.0267 58.6384C67.0267 57.9152 67.6338 57.3051 68.4125 57.3051C69.1912 57.3051 69.7983 57.9152 69.7983 58.6384Z" fill="#F40009" stroke="white"/>
<path d="M75.2834 48.8082C75.2834 49.6235 74.5996 50.3083 73.7262 50.3083C72.8528 50.3083 72.169 49.6235 72.169 48.8082C72.169 47.993 72.8528 47.3082 73.7262 47.3082C74.5996 47.3082 75.2834 47.993 75.2834 48.8082Z" fill="#F40009" stroke="white"/>
<path d="M76.9993 63.8066C76.9993 64.4377 76.469 64.9733 75.7849 64.9733C75.1009 64.9733 74.5706 64.4377 74.5706 63.8066C74.5706 63.1754 75.1009 62.6399 75.7849 62.6399C76.469 62.6399 76.9993 63.1754 76.9993 63.8066Z" fill="#F40009" stroke="white"/>
<path d="M72.1981 77.8071C72.1981 78.0701 71.9749 78.3071 71.6695 78.3071C71.3642 78.3071 71.1409 78.0701 71.1409 77.8071C71.1409 77.5442 71.3642 77.3071 71.6695 77.3071C71.9749 77.3071 72.1981 77.5442 72.1981 77.8071Z" fill="#F40009" stroke="white"/>
<mask id="path-35-inside-4" fill="white">
<ellipse cx="71.3267" cy="75.4744" rx="0.685739" ry="0.666672"/>
</mask>
<ellipse cx="71.3267" cy="75.4744" rx="0.685739" ry="0.666672" fill="#F40009"/>
<path d="M71.0124 75.4744C71.0124 75.2639 71.1799 75.1411 71.3267 75.1411L71.3267 77.1411C72.2309 77.1411 73.0124 76.4213 73.0124 75.4744L71.0124 75.4744ZM71.3267 75.1411C71.4735 75.1411 71.6409 75.2639 71.6409 75.4744L69.6409 75.4744C69.6409 76.4213 70.4224 77.1411 71.3267 77.1411L71.3267 75.1411ZM71.6409 75.4744C71.6409 75.6849 71.4735 75.8077 71.3267 75.8077L71.3267 73.8077C70.4224 73.8077 69.6409 74.5275 69.6409 75.4744L71.6409 75.4744ZM71.3267 75.8077C71.1799 75.8077 71.0124 75.6849 71.0124 75.4744L73.0124 75.4744C73.0124 74.5275 72.2309 73.8077 71.3267 73.8077L71.3267 75.8077Z" fill="white" mask="url(#path-35-inside-4)"/>
<path d="M73.5694 67.3066C73.5694 68.5821 72.5019 69.64 71.1551 69.64C69.8082 69.64 68.7407 68.5821 68.7407 67.3066C68.7407 66.0311 69.8082 64.9733 71.1551 64.9733C72.5019 64.9733 73.5694 66.0311 73.5694 67.3066Z" fill="#F40009" stroke="white"/>
<path d="M70.1407 69.3058C70.1407 69.6608 69.8407 69.9725 69.4407 69.9725C69.0407 69.9725 68.7407 69.6608 68.7407 69.3058C68.7407 68.9508 69.0407 68.6392 69.4407 68.6392C69.8407 68.6392 70.1407 68.9508 70.1407 69.3058Z" fill="#F40009" stroke="white"/>
<path d="M118.876 104.679C118.876 105.841 117.885 106.82 116.613 106.82C115.341 106.82 114.349 105.841 114.349 104.679C114.349 103.518 115.341 102.539 116.613 102.539C117.885 102.539 118.876 103.518 118.876 104.679Z" fill="#F40009" stroke="white"/>
<path d="M110.032 80.6446C110.032 81.9516 108.917 83.0495 107.492 83.0495C106.068 83.0495 104.953 81.9516 104.953 80.6446C104.953 79.3375 106.068 78.2396 107.492 78.2396C108.917 78.2396 110.032 79.3375 110.032 80.6446Z" fill="#F40009" stroke="white"/>
<path d="M121.639 88.8328C121.639 89.994 120.647 90.9736 119.376 90.9736C118.104 90.9736 117.112 89.994 117.112 88.8328C117.112 87.6715 118.104 86.6919 119.376 86.6919C120.647 86.6919 121.639 87.6715 121.639 88.8328Z" fill="#F40009" stroke="white"/>
<path d="M113.903 111.017C113.903 111.595 113.406 112.102 112.745 112.102C112.084 112.102 111.587 111.595 111.587 111.017C111.587 110.44 112.084 109.933 112.745 109.933C113.406 109.933 113.903 110.44 113.903 111.017Z" fill="#F40009" stroke="white"/>
<path d="M112.797 107.321C112.797 107.607 112.548 107.877 112.192 107.877C111.836 107.877 111.587 107.607 111.587 107.321C111.587 107.035 111.836 106.765 112.192 106.765C112.548 106.765 112.797 107.035 112.797 107.321Z" fill="#F40009" stroke="white"/>
<path d="M116.114 94.3785C116.114 96.5607 114.256 98.368 111.916 98.368C109.576 98.368 107.718 96.5607 107.718 94.3785C107.718 92.1963 109.576 90.389 111.916 90.389C114.256 90.389 116.114 92.1963 116.114 94.3785Z" fill="#F40009" stroke="white"/>
<path d="M110.587 97.5454C110.587 98.2691 109.966 98.894 109.152 98.894C108.338 98.894 107.718 98.2691 107.718 97.5454C107.718 96.8217 108.338 96.1968 109.152 96.1968C109.966 96.1968 110.587 96.8217 110.587 97.5454Z" fill="#F40009" stroke="white"/>
</svg>
