<svg width="274" height="401" viewBox="0 0 274 401" fill="none" xmlns="http://www.w3.org/2000/svg">
<path d="M247.483 159.34C271.26 203.864 275.873 250.354 270.129 290.687C264.38 331.056 248.265 365.185 230.699 384.95C224.145 392.324 211.003 397.023 193.953 398.514C176.962 400.001 156.31 398.281 134.999 393.048C92.3525 382.576 47.2969 358.095 23.6629 317.417C21.6276 313.914 19.5901 307.931 17.6279 300.572C15.6735 293.242 13.8177 284.643 12.1194 275.972C10.4214 267.304 8.88336 258.577 7.56277 250.993C7.39818 250.047 7.23691 249.12 7.0791 248.212C5.97236 241.844 5.03544 236.454 4.31078 232.871C0.349042 213.283 0.625754 198.706 3.64088 187.201C6.65213 175.711 12.4156 167.206 19.5681 159.787C24.8351 154.324 30.8149 149.485 37.019 144.464C39.2833 142.632 41.5776 140.775 43.8779 138.855C52.4459 131.705 61.0071 123.741 68.0573 113.067C70.0808 110.004 71.3163 105.985 72.0419 101.372C72.769 96.7495 72.9947 91.457 72.9485 85.7941C72.892 78.8561 72.4235 71.2676 71.9509 63.6138C71.6548 58.8174 71.3571 53.9954 71.1582 49.2917C70.6384 36.998 70.7882 25.4633 73.2787 16.7975C74.5203 12.4774 76.3253 8.93953 78.858 6.3798C81.3736 3.83732 84.6606 2.20472 88.9875 1.76915C111.477 -0.494827 128.529 2.50648 142.477 9.63152C156.433 16.7614 167.381 28.0706 177.576 42.5985C186.61 55.4726 195.011 70.8085 204.39 87.9295C205.606 90.1482 206.838 92.3969 208.089 94.6741C218.981 114.488 231.356 136.409 247.483 159.34Z" fill="#F40009" fill-opacity="0.1" stroke="#F40009" stroke-width="2"/>
<circle cx="142.857" cy="240.527" r="24.5" fill="#F40009"/>
<path d="M134.286 249.694C134.286 250.325 133.756 250.861 133.072 250.861C132.388 250.861 131.857 250.325 131.857 249.694C131.857 249.063 132.388 248.527 133.072 248.527C133.756 248.527 134.286 249.063 134.286 249.694Z" fill="#F40009" stroke="white"/>
<path d="M134.915 248.027C134.915 248.29 134.691 248.527 134.386 248.527C134.081 248.527 133.857 248.29 133.857 248.027C133.857 247.764 134.081 247.527 134.386 247.527C134.691 247.527 134.915 247.764 134.915 248.027Z" fill="#F40009" stroke="white"/>
<mask id="path-5-inside-1" fill="white">
<ellipse cx="134.043" cy="245.694" rx="0.685739" ry="0.666672"/>
</mask>
<ellipse cx="134.043" cy="245.694" rx="0.685739" ry="0.666672" fill="#F40009"/>
<path d="M133.729 245.694C133.729 245.484 133.896 245.361 134.043 245.361L134.043 247.361C134.947 247.361 135.729 246.641 135.729 245.694L133.729 245.694ZM134.043 245.361C134.19 245.361 134.357 245.484 134.357 245.694L132.357 245.694C132.357 246.641 133.139 247.361 134.043 247.361L134.043 245.361ZM134.357 245.694C134.357 245.905 134.19 246.027 134.043 246.027L134.043 244.027C133.139 244.027 132.357 244.747 132.357 245.694L134.357 245.694ZM134.043 246.027C133.896 246.027 133.729 245.905 133.729 245.694L135.729 245.694C135.729 244.747 134.947 244.027 134.043 244.027L134.043 246.027Z" fill="white" mask="url(#path-5-inside-1)"/>
<path d="M133.686 258.195C133.686 259.47 132.619 260.528 131.272 260.528C129.925 260.528 128.857 259.47 128.857 258.195C128.857 256.919 129.925 255.861 131.272 255.861C132.619 255.861 133.686 256.919 133.686 258.195Z" fill="#F40009" stroke="white"/>
<path d="M130.258 260.194C130.258 260.549 129.957 260.861 129.557 260.861C129.157 260.861 128.857 260.549 128.857 260.194C128.857 259.839 129.157 259.527 129.557 259.527C129.957 259.527 130.258 259.839 130.258 260.194Z" fill="#F40009" stroke="white"/>
<ellipse cx="164.204" cy="202.951" rx="2.76344" ry="2.64086" transform="rotate(180 164.204 202.951)" fill="#F40009"/>
<ellipse cx="142.648" cy="220.886" rx="8.29031" ry="7.92257" transform="rotate(180 142.648 220.886)" fill="#F40009"/>
<ellipse cx="150.661" cy="217.986" rx="3.03978" ry="2.90494" transform="rotate(180 150.661 217.986)" fill="#F40009"/>
<ellipse cx="142.096" cy="233.561" rx="3.31612" ry="3.16903" transform="rotate(180 142.096 233.561)" fill="#F40009"/>
<ellipse cx="138.778" cy="209.797" rx="2.76344" ry="2.64086" transform="rotate(180 138.778 209.797)" fill="#F40009"/>
<ellipse cx="145.411" cy="187.613" rx="1.65806" ry="1.58451" transform="rotate(180 145.411 187.613)" fill="#F40009"/>
<ellipse cx="145.964" cy="191.309" rx="1.10537" ry="1.05634" transform="rotate(180 145.964 191.309)" fill="#F40009"/>
<ellipse cx="146.241" cy="204.251" rx="4.69784" ry="4.48946" transform="rotate(180 146.241 204.251)" fill="#F40009"/>
<ellipse cx="149.004" cy="201.079" rx="1.9344" ry="1.8486" transform="rotate(180 149.004 201.079)" fill="#F40009"/>
<path d="M156.852 240.235C156.814 240.804 156.301 241.26 155.673 241.218C155.045 241.175 154.595 240.654 154.633 240.085C154.67 239.516 155.184 239.059 155.812 239.102C156.44 239.144 156.889 239.666 156.852 240.235Z" fill="#F40009" stroke="white"/>
<path d="M160.469 224.53C160.319 226.819 158.274 228.572 155.869 228.409C153.464 228.247 151.667 226.234 151.817 223.945C151.967 221.656 154.013 219.903 156.417 220.065C158.822 220.228 160.62 222.241 160.469 224.53Z" fill="#F40009" stroke="white"/>
<path d="M152.634 225.721C152.591 226.376 152.001 226.897 151.284 226.849C150.567 226.8 150.05 226.204 150.093 225.549C150.136 224.894 150.726 224.373 151.443 224.421C152.16 224.47 152.677 225.066 152.634 225.721Z" fill="#F40009" stroke="white"/>
<path d="M158.385 216.881C158.336 217.622 157.67 218.208 156.864 218.153C156.058 218.099 155.474 217.428 155.523 216.687C155.571 215.946 156.238 215.36 157.044 215.415C157.85 215.469 158.434 216.14 158.385 216.881Z" fill="#F40009" stroke="white"/>
<path d="M159.074 231.004C159.036 231.574 158.523 232.03 157.895 231.987C157.266 231.945 156.817 231.424 156.855 230.854C156.892 230.285 157.405 229.829 158.034 229.871C158.662 229.914 159.111 230.435 159.074 231.004Z" fill="#F40009" stroke="white"/>
<mask id="path-23-inside-2" fill="white">
<ellipse rx="0.967203" ry="0.936207" transform="matrix(0.997724 0.0674366 -0.0655624 0.997848 153.24 243.746)"/>
</mask>
<ellipse rx="0.967203" ry="0.936207" transform="matrix(0.997724 0.0674366 -0.0655624 0.997848 153.24 243.746)" fill="#F40009"/>
<path d="M153.207 243.743C153.208 243.732 153.211 243.719 153.217 243.708C153.222 243.698 153.228 243.692 153.232 243.688C153.239 243.682 153.245 243.682 153.244 243.682L153.113 245.678C154.166 245.749 155.13 244.976 155.202 243.878L153.207 243.743ZM153.244 243.682C153.242 243.682 153.248 243.682 153.255 243.69C153.258 243.694 153.263 243.7 153.267 243.711C153.271 243.723 153.273 243.736 153.272 243.748L151.277 243.613C151.205 244.71 152.06 245.606 153.113 245.678L153.244 243.682ZM153.272 243.748C153.272 243.759 153.268 243.772 153.262 243.783C153.257 243.793 153.251 243.799 153.247 243.803C153.24 243.809 153.234 243.809 153.235 243.809L153.367 241.813C152.313 241.742 151.349 242.515 151.277 243.613L153.272 243.748ZM153.235 243.809C153.237 243.809 153.231 243.809 153.224 243.801C153.221 243.797 153.216 243.791 153.212 243.78C153.208 243.768 153.206 243.755 153.207 243.743L155.202 243.878C155.274 242.781 154.42 241.885 153.367 241.813L153.235 243.809Z" fill="white" mask="url(#path-23-inside-2)"/>
<mask id="path-25-inside-3" fill="white">
<ellipse rx="0.644802" ry="0.624138" transform="matrix(0.997724 0.0674366 -0.0655624 0.997848 153.067 241.547)"/>
</mask>
<ellipse rx="0.644802" ry="0.624138" transform="matrix(0.997724 0.0674366 -0.0655624 0.997848 153.067 241.547)" fill="#F40009"/>
<path d="M152.713 241.523C152.728 241.286 152.927 241.161 153.092 241.172L152.961 243.168C153.836 243.227 154.648 242.584 154.708 241.658L152.713 241.523ZM153.092 241.172C153.257 241.183 153.437 241.334 153.422 241.571L151.426 241.436C151.365 242.362 152.085 243.109 152.961 243.168L153.092 241.172ZM153.422 241.571C153.406 241.809 153.207 241.933 153.043 241.922L153.174 239.926C152.298 239.867 151.487 240.511 151.426 241.436L153.422 241.571ZM153.043 241.922C152.878 241.911 152.697 241.761 152.713 241.523L154.708 241.658C154.769 240.733 154.049 239.986 153.174 239.926L153.043 241.922Z" fill="white" mask="url(#path-25-inside-3)"/>
<path d="M155.642 234.057C155.565 235.228 154.516 236.138 153.266 236.054C152.016 235.969 151.095 234.926 151.172 233.755C151.249 232.584 152.298 231.673 153.548 231.758C154.798 231.842 155.719 232.886 155.642 234.057Z" fill="#F40009" stroke="white"/>
<path d="M152.302 235.706C152.282 236.018 151.998 236.279 151.636 236.255C151.275 236.231 151.028 235.933 151.048 235.622C151.069 235.31 151.352 235.049 151.714 235.073C152.076 235.098 152.323 235.395 152.302 235.706Z" fill="#F40009" stroke="white"/>
<path d="M126.114 233.028C126.114 233.659 125.584 234.195 124.9 234.195C124.216 234.195 123.686 233.659 123.686 233.028C123.686 232.397 124.216 231.861 124.9 231.861C125.584 231.861 126.114 232.397 126.114 233.028Z" fill="#F40009" stroke="white"/>
<path d="M128.857 216.027C128.857 218.499 126.792 220.527 124.214 220.527C121.637 220.527 119.571 218.499 119.571 216.027C119.571 213.555 121.637 211.527 124.214 211.527C126.792 211.527 128.857 213.555 128.857 216.027Z" fill="#F40009" stroke="white"/>
<path d="M120.629 217.859C120.629 218.582 120.022 219.192 119.243 219.192C118.464 219.192 117.857 218.582 117.857 217.859C117.857 217.136 118.464 216.525 119.243 216.525C120.022 216.525 120.629 217.136 120.629 217.859Z" fill="#F40009" stroke="white"/>
<path d="M126.114 208.029C126.114 208.845 125.431 209.529 124.557 209.529C123.684 209.529 123 208.845 123 208.029C123 207.214 123.684 206.529 124.557 206.529C125.431 206.529 126.114 207.214 126.114 208.029Z" fill="#F40009" stroke="white"/>
<path d="M127.83 223.026C127.83 223.657 127.3 224.193 126.616 224.193C125.932 224.193 125.401 223.657 125.401 223.026C125.401 222.395 125.932 221.859 126.616 221.859C127.3 221.859 127.83 222.395 127.83 223.026Z" fill="#F40009" stroke="white"/>
<path d="M123.029 237.027C123.029 237.29 122.806 237.527 122.5 237.527C122.195 237.527 121.972 237.29 121.972 237.027C121.972 236.764 122.195 236.527 122.5 236.527C122.806 236.527 123.029 236.764 123.029 237.027Z" fill="#F40009" stroke="white"/>
<mask id="path-35-inside-4" fill="white">
<ellipse cx="122.157" cy="234.694" rx="0.685739" ry="0.666672"/>
</mask>
<ellipse cx="122.157" cy="234.694" rx="0.685739" ry="0.666672" fill="#F40009"/>
<path d="M121.843 234.694C121.843 234.484 122.011 234.361 122.157 234.361L122.157 236.361C123.062 236.361 123.843 235.641 123.843 234.694L121.843 234.694ZM122.157 234.361C122.304 234.361 122.472 234.484 122.472 234.694L120.472 234.694C120.472 235.641 121.253 236.361 122.157 236.361L122.157 234.361ZM122.472 234.694C122.472 234.905 122.304 235.027 122.157 235.027L122.157 233.027C121.253 233.027 120.472 233.747 120.472 234.694L122.472 234.694ZM122.157 235.027C122.011 235.027 121.843 234.905 121.843 234.694L123.843 234.694C123.843 233.747 123.062 233.027 122.157 233.027L122.157 235.027Z" fill="white" mask="url(#path-35-inside-4)"/>
<path d="M124.4 226.527C124.4 227.802 123.332 228.86 121.986 228.86C120.639 228.86 119.571 227.802 119.571 226.527C119.571 225.251 120.639 224.193 121.986 224.193C123.332 224.193 124.4 225.251 124.4 226.527Z" fill="#F40009" stroke="white"/>
<path d="M120.971 228.526C120.971 228.881 120.671 229.193 120.271 229.193C119.871 229.193 119.571 228.881 119.571 228.526C119.571 228.171 119.871 227.859 120.271 227.859C120.671 227.859 120.971 228.171 120.971 228.526Z" fill="#F40009" stroke="white"/>
<path d="M169.707 263.899C169.707 265.06 168.715 266.04 167.443 266.04C166.171 266.04 165.18 265.06 165.18 263.899C165.18 262.737 166.171 261.758 167.443 261.758C168.715 261.758 169.707 262.737 169.707 263.899Z" fill="#F40009" stroke="white"/>
<path d="M160.863 239.864C160.863 241.171 159.747 242.269 158.323 242.269C156.899 242.269 155.783 241.171 155.783 239.864C155.783 238.557 156.899 237.459 158.323 237.459C159.747 237.459 160.863 238.557 160.863 239.864Z" fill="#F40009" stroke="white"/>
<path d="M172.469 248.053C172.469 249.214 171.478 250.194 170.206 250.194C168.934 250.194 167.942 249.214 167.942 248.053C167.942 246.892 168.934 245.912 170.206 245.912C171.478 245.912 172.469 246.892 172.469 248.053Z" fill="#F40009" stroke="white"/>
<path d="M164.733 270.237C164.733 270.815 164.236 271.321 163.575 271.321C162.914 271.321 162.417 270.815 162.417 270.237C162.417 269.659 162.914 269.152 163.575 269.152C164.236 269.152 164.733 269.659 164.733 270.237Z" fill="#F40009" stroke="white"/>
<path d="M163.628 266.541C163.628 266.827 163.378 267.097 163.022 267.097C162.666 267.097 162.417 266.827 162.417 266.541C162.417 266.255 162.666 265.984 163.022 265.984C163.378 265.984 163.628 266.255 163.628 266.541Z" fill="#F40009" stroke="white"/>
<path d="M166.945 253.599C166.945 255.781 165.087 257.588 162.747 257.588C160.407 257.588 158.549 255.781 158.549 253.599C158.549 251.417 160.407 249.609 162.747 249.609C165.087 249.609 166.945 251.417 166.945 253.599Z" fill="#F40009" stroke="white"/>
<path d="M161.418 256.767C161.418 257.49 160.797 258.115 159.983 258.115C159.169 258.115 158.549 257.49 158.549 256.767C158.549 256.043 159.169 255.418 159.983 255.418C160.797 255.418 161.418 256.043 161.418 256.767Z" fill="#F40009" stroke="white"/>
</svg>
