<svg width="36" height="16" viewBox="0 0 36 16" fill="none" xmlns="http://www.w3.org/2000/svg">
<path d="M32.537 1.97763C32.1859 0.797056 31.1316 0.00390625 29.9143 0.00390625H26.9924H25.815H23.8879H22.7942H16.7787H15.685H5.508C4.16273 0.00390625 3.028 0.977191 2.80871 2.31795L2.07538 6.76868H2.07592C2.0721 6.78309 2.06991 6.79694 2.06608 6.81135C2.05788 6.84572 2.04913 6.87953 2.04256 6.915C2.02452 7.01477 2.01303 7.11287 2.01303 7.20932V7.76358V8.8721V12.1977H5.34941C5.48832 12.8877 5.88643 13.4786 6.43001 13.8793L0.364258 13.8954L0.366992 15.0039L13.4916 14.969L13.4883 13.8605L9.63897 13.8704C10.176 13.4703 10.5692 12.8827 10.7075 12.1977H24.4894C24.6262 12.8772 25.0139 13.4603 25.5432 13.8605H17.8648V14.969H32.0831V13.8605H28.7932C29.3231 13.4603 29.7103 12.8772 29.847 12.1977H33.7308V8.8721V8.31784V7.76358V6.10079L32.537 1.97763ZM29.9148 1.11243C30.6465 1.11243 31.2803 1.5891 31.4914 2.29689L32.6081 6.07973C32.5917 6.06809 32.5742 6.06033 32.5589 6.04924C32.5184 6.02042 32.4747 5.99659 32.4326 5.96998C32.3369 5.90957 32.2379 5.85414 32.1345 5.80592C32.0831 5.78209 32.0317 5.75992 31.9792 5.73941C31.8731 5.69784 31.7637 5.66403 31.6516 5.63577C31.6013 5.62302 31.5527 5.60805 31.5013 5.59807C31.3372 5.56704 31.1699 5.54653 30.9976 5.54653H29.1804L28.3054 3.32948L27.4304 1.11243H29.9148ZM32.537 7.76358H31.2234L30.1297 6.65505H30.997C31.1004 6.65505 31.2005 6.66725 31.2984 6.68609C31.329 6.69163 31.358 6.7005 31.3881 6.70826C31.4553 6.72544 31.5215 6.7454 31.5849 6.77034C31.6161 6.78253 31.6462 6.79528 31.6762 6.80914C31.7402 6.83907 31.802 6.87343 31.8616 6.91112C31.8841 6.92553 31.9081 6.93773 31.93 6.95325C32.0087 7.00867 32.0831 7.06964 32.1509 7.13782C32.1624 7.1489 32.1712 7.1622 32.1821 7.17384C32.2373 7.23259 32.2887 7.29523 32.3352 7.36174C32.3527 7.38723 32.3686 7.41384 32.385 7.43989C32.4211 7.49809 32.4539 7.55906 32.4823 7.62169C32.4954 7.65051 32.5086 7.67877 32.52 7.70815C32.5272 7.72589 32.5304 7.74529 32.537 7.76358ZM23.8879 1.11243H26.252L27.1269 3.32948L28.0019 5.54653H27.8936H27.4895H26.7562H23.8879V1.11243ZM16.7787 1.11243H22.7942V5.54653H16.7787V1.11243ZM16.7787 6.65505H22.7942V9.42636H16.7787V6.65505ZM3.88766 2.49975C4.01891 1.69607 4.70029 1.11243 5.508 1.11243H15.685V5.54653H5.29473H4.20101H3.65415C3.56174 5.54653 3.47096 5.55429 3.38182 5.56981L3.88766 2.49975ZM3.13737 7.05856C3.14175 7.04359 3.1412 7.02641 3.14667 7.012C3.15487 6.99204 3.16581 6.97375 3.1762 6.95491C3.19589 6.91722 3.21886 6.88175 3.2462 6.8496C3.26315 6.8302 3.2812 6.81191 3.30088 6.79473C3.33151 6.76812 3.36487 6.74595 3.40096 6.726C3.42119 6.71491 3.44088 6.70217 3.46275 6.69385C3.52291 6.67057 3.58634 6.6545 3.6547 6.6545H4.20156V7.76302H3.10784V7.25144H3.1073L3.13737 7.05856ZM8.02902 13.3062C7.12452 13.3062 6.38844 12.5602 6.38844 11.6434C6.38844 10.7267 7.12452 9.98063 8.02902 9.98063C8.93352 9.98063 9.66959 10.7267 9.66959 11.6434C9.66959 12.5602 8.93352 13.3062 8.02902 13.3062ZM24.6584 10.5548C24.5868 10.7233 24.531 10.899 24.4938 11.0797C24.4933 11.0831 24.4916 11.0864 24.4905 11.0897H10.7086C10.7086 11.0892 10.7081 11.0886 10.7081 11.088C10.7059 11.0781 10.7015 11.0686 10.6993 11.0587C10.6654 10.899 10.6173 10.7455 10.5577 10.5975C10.5364 10.5443 10.5074 10.4955 10.4828 10.444C10.4346 10.3431 10.3849 10.2439 10.3253 10.1497C10.2903 10.0948 10.2504 10.0438 10.2115 9.99171C10.1503 9.90913 10.0874 9.82931 10.0179 9.75393C9.972 9.7046 9.92443 9.6586 9.87521 9.6126C9.80193 9.54387 9.72537 9.48013 9.64444 9.41971C9.59084 9.37925 9.53725 9.34045 9.48038 9.30443C9.39343 9.249 9.30265 9.20078 9.20968 9.15533C9.15172 9.12706 9.09539 9.09713 9.03524 9.07275C8.93024 9.03007 8.82032 8.99903 8.70931 8.97021C8.65517 8.9558 8.60377 8.93695 8.54799 8.92587C8.37955 8.89261 8.2062 8.87266 8.02847 8.87266C7.85074 8.87266 7.67739 8.89261 7.50896 8.92587C7.45372 8.93695 7.40177 8.9558 7.34763 8.97021C7.23662 8.99958 7.1267 9.03062 7.02171 9.07275C6.96155 9.09713 6.90522 9.12706 6.84726 9.15533C6.75429 9.20078 6.66351 9.249 6.57656 9.30443C6.51969 9.34045 6.4661 9.37981 6.41251 9.41971C6.33212 9.48013 6.25556 9.54387 6.18173 9.6126C6.13251 9.6586 6.08494 9.7046 6.039 9.75393C5.96955 9.82876 5.90666 9.90913 5.84541 9.99171C5.80659 10.0438 5.76667 10.0948 5.73167 10.1497C5.67206 10.2433 5.6223 10.3426 5.57417 10.444C5.54956 10.4955 5.52058 10.5443 5.49925 10.5975C5.43965 10.7455 5.39152 10.8996 5.35762 11.0587C5.35543 11.0686 5.35105 11.0781 5.34887 11.088C5.34887 11.0886 5.34832 11.0892 5.34832 11.0897H3.1073V8.87266H5.29473V6.65561H15.685V7.20987H11.3102V8.31839H15.685V10.5354H22.7942H23.8879H24.6644C24.6617 10.541 24.6612 10.5482 24.6584 10.5548ZM23.8879 9.42636V6.65505H26.4445L26.2022 7.51582L25.698 9.30775C25.6789 9.31995 25.6619 9.33325 25.6433 9.346C25.6247 9.35874 25.6072 9.37094 25.5892 9.38424C25.5695 9.39865 25.5482 9.41195 25.529 9.42636H23.8879ZM27.169 13.3062C26.2645 13.3062 25.5285 12.5602 25.5285 11.6434C25.5285 11.1673 25.7319 10.7134 26.0956 10.3891C26.182 10.3088 26.2875 10.2361 26.4095 10.1718C26.4127 10.1702 26.4149 10.1685 26.4182 10.1669C26.6452 10.0455 26.9049 9.98174 27.169 9.98174C28.0735 9.98174 28.8096 10.7278 28.8096 11.6445C28.8096 12.5613 28.0735 13.3062 27.169 13.3062ZM32.6376 11.0892H29.8481C29.8481 11.0886 29.8476 11.088 29.8476 11.0875C29.8454 11.0775 29.841 11.0681 29.8388 11.0581C29.8049 10.8985 29.7568 10.745 29.6972 10.597C29.6758 10.5438 29.6469 10.495 29.6222 10.4434C29.5741 10.3426 29.5244 10.2433 29.4648 10.1491C29.4298 10.0942 29.3898 10.0433 29.351 9.99116C29.2898 9.90857 29.2269 9.82876 29.1574 9.75338C29.1115 9.70405 29.0639 9.65805 29.0147 9.61204C28.9414 9.54331 28.8649 9.47957 28.7839 9.41916C28.7303 9.3787 28.6767 9.3399 28.6199 9.30387C28.5329 9.24845 28.4421 9.20022 28.3492 9.15478C28.2912 9.12651 28.2349 9.09658 28.1747 9.07219C28.0697 9.02951 27.9598 8.99847 27.8488 8.96965C27.7946 8.95524 27.7432 8.9364 27.6875 8.92531C27.519 8.89205 27.3457 8.8721 27.1679 8.8721C27.0963 8.8721 27.0252 8.87487 26.9541 8.88042L27.5808 6.65505H28.4383H28.5821L30.7696 8.8721H32.6376V11.0892Z" fill="#F40009"/>
<path d="M16.7714 13.8613H14.584V14.9699H16.7714V13.8613Z" fill="#F40009"/>
<path d="M35.3642 13.8613H33.1768V14.9699H35.3642V13.8613Z" fill="#F40009"/>
<path d="M8.57321 11.0898H7.47949V12.1984H8.57321V11.0898Z" fill="#F40009"/>
<path d="M27.7138 11.0898H26.6201V12.1984H27.7138V11.0898Z" fill="#F40009"/>
</svg>
