<svg width="167" height="195" viewBox="0 0 167 195" fill="none" xmlns="http://www.w3.org/2000/svg">
<ellipse cx="102.073" cy="25.2658" rx="1.59084" ry="1.5184" transform="rotate(0.15235 102.073 25.2658)" fill="#F40009"/>
<ellipse cx="101.478" cy="9.77687" rx="4.77252" ry="4.55521" transform="rotate(0.15235 101.478 9.77687)" fill="#F40009"/>
<ellipse cx="96.8597" cy="11.4347" rx="1.74992" ry="1.67024" transform="rotate(0.15235 96.8597 11.4347)" fill="#F40009"/>
<ellipse cx="101.815" cy="2.48926" rx="1.90901" ry="1.82208" transform="rotate(0.15235 101.815 2.48926)" fill="#F40009"/>
<ellipse cx="103.688" cy="16.1593" rx="1.59084" ry="1.5184" transform="rotate(0.15235 103.688 16.1593)" fill="#F40009"/>
<ellipse cx="99.8359" cy="28.9038" rx="0.954503" ry="0.911042" transform="rotate(0.15235 99.8359 28.9038)" fill="#F40009"/>
<ellipse cx="99.5234" cy="26.777" rx="0.636335" ry="0.607362" transform="rotate(0.15235 99.5234 26.777)" fill="#F40009"/>
<ellipse cx="99.3841" cy="19.3365" rx="2.70443" ry="2.58129" transform="rotate(0.15235 99.3841 19.3365)" fill="#F40009"/>
<ellipse cx="97.7885" cy="21.1547" rx="1.11359" ry="1.06288" transform="rotate(0.15235 97.7885 21.1547)" fill="#F40009"/>
<mask id="mask0" mask-type="alpha" maskUnits="userSpaceOnUse" x="20" y="47" width="127" height="128">
<path d="M83.5 174.058C118.57 174.058 147 145.615 147 110.529C147 75.4428 118.57 47 83.5 47C48.4299 47 20 75.4428 20 110.529C20 145.615 48.4299 174.058 83.5 174.058Z" fill="#3F3F5B"/>
</mask>
<g mask="url(#mask0)">
<g filter="url(#filter0_d)">
<path d="M43.4923 63.4561C31.8037 56.4578 17.73 69.2943 12.1543 76.5874L7.08552 84.0244C5.11436 86.9165 3.95106 92.1745 2.7693 99.2352C1.58754 106.296 7.74808 114.125 10.8664 121.091C13.9848 128.057 32.5956 138.926 34.5114 141.442C36.4272 143.958 67.6199 158.562 83.6916 146.522C99.7634 134.483 91.0661 117.059 73.5078 111.748C66.3932 109.596 60.3998 105.234 54.1261 94.9072C47.8525 84.5805 58.103 72.204 43.4923 63.4561Z" fill="#F40009"/>
<path d="M43.4923 63.4561C31.8037 56.4578 17.73 69.2943 12.1543 76.5874L7.08552 84.0244C5.11436 86.9165 3.95106 92.1745 2.7693 99.2352C1.58754 106.296 7.74808 114.125 10.8664 121.091C13.9848 128.057 32.5956 138.926 34.5114 141.442C36.4272 143.958 67.6199 158.562 83.6916 146.522C99.7634 134.483 91.0661 117.059 73.5078 111.748C66.3932 109.596 60.3998 105.234 54.1261 94.9072C47.8525 84.5805 58.103 72.204 43.4923 63.4561Z" stroke="#FF3A41" stroke-width="0.5"/>
</g>
<g filter="url(#filter1_d)">
<path d="M140.039 121.649C157.195 118.928 160.453 94.8596 159.937 83.1658L158.808 71.7461C158.369 67.3051 155.204 61.2118 150.581 53.3408C145.959 45.4697 133.529 42.8551 124.78 38.5953C116.03 34.3355 88.9382 38.9364 85.0062 38.044C81.0742 37.1515 38.6235 48.3962 32.76 73.3198C26.8964 98.2434 49.6588 108.164 71.1735 98.9901C79.8913 95.2726 89.3208 94.6331 103.905 99.5972C118.49 104.561 118.594 125.051 140.039 121.649Z" fill="#F40009"/>
<path d="M140.039 121.649C157.195 118.928 160.453 94.8596 159.937 83.1658L158.808 71.7461C158.369 67.3051 155.204 61.2118 150.581 53.3408C145.959 45.4697 133.529 42.8551 124.78 38.5953C116.03 34.3355 88.9382 38.9364 85.0062 38.044C81.0742 37.1515 38.6235 48.3962 32.76 73.3198C26.8964 98.2434 49.6588 108.164 71.1735 98.9901C79.8913 95.2726 89.3208 94.6331 103.905 99.5972C118.49 104.561 118.594 125.051 140.039 121.649Z" stroke="#FF3A41" stroke-width="0.5"/>
</g>
<g filter="url(#filter2_d)">
<path d="M54.3382 124.742C58.2405 136.411 82.7035 134.566 94.4472 132.184L105.873 129.416C110.317 128.339 116.24 125.049 123.855 120.422C131.471 115.794 133.263 106.548 136.961 99.6232C140.66 92.6981 134.192 74.3229 134.825 71.387C135.457 68.451 121.258 40.3546 95.757 40.5037C70.2558 40.6529 61.8035 58.4689 72.5005 72.1093C76.835 77.6365 78.1173 84.198 74.1044 95.3732C70.0914 106.548 49.4602 110.155 54.3382 124.742Z" fill="#F40009"/>
<path d="M54.3382 124.742C58.2405 136.411 82.7035 134.566 94.4472 132.184L105.873 129.416C110.317 128.339 116.24 125.049 123.855 120.422C131.471 115.794 133.263 106.548 136.961 99.6232C140.66 92.6981 134.192 74.3229 134.825 71.387C135.457 68.451 121.258 40.3546 95.757 40.5037C70.2558 40.6529 61.8035 58.4689 72.5005 72.1093C76.835 77.6365 78.1173 84.198 74.1044 95.3732C70.0914 106.548 49.4602 110.155 54.3382 124.742Z" stroke="#FF3A41" stroke-width="0.5"/>
</g>
<g filter="url(#filter3_d)">
<path d="M105.139 115.697C106.458 123.553 117.507 124.947 122.867 124.662L128.099 124.096C130.133 123.877 132.914 122.4 136.504 120.248C140.094 118.096 141.241 112.385 143.158 108.356C145.075 104.326 142.853 91.9228 143.246 90.1161C143.639 88.3094 138.307 68.8911 126.854 66.3059C115.401 63.7207 110.947 74.1992 115.243 84.0263C116.984 88.0083 117.316 92.3293 115.1 99.0375C112.885 105.746 103.49 105.878 105.139 115.697Z" fill="#F40009"/>
<path d="M105.139 115.697C106.458 123.553 117.507 124.947 122.867 124.662L128.099 124.096C130.133 123.877 132.914 122.4 136.504 120.248C140.094 118.096 141.241 112.385 143.158 108.356C145.075 104.326 142.853 91.9228 143.246 90.1161C143.639 88.3094 138.307 68.8911 126.854 66.3059C115.401 63.7207 110.947 74.1992 115.243 84.0263C116.984 88.0083 117.316 92.3293 115.1 99.0375C112.885 105.746 103.49 105.878 105.139 115.697Z" stroke="#FF3A41" stroke-width="0.5"/>
</g>
<g filter="url(#filter4_d)">
<path d="M58.4516 101.477C49.4644 107.967 54.539 122.612 58.1997 129.124L62.1309 135.302C63.6597 137.705 67.2167 140.264 72.1154 143.416C77.0141 146.568 84.8464 144.478 91.0559 144.385C97.2655 144.292 111.37 133.871 113.867 133.247C116.363 132.623 137.302 113.996 133.465 98.1135C129.629 82.2306 113.808 83.1342 104.197 94.5539C100.302 99.1813 95.1158 102.26 85.3801 103.633C75.6445 105.005 69.6855 93.3654 58.4516 101.477Z" fill="#FC141C"/>
<path d="M58.4516 101.477C49.4644 107.967 54.539 122.612 58.1997 129.124L62.1309 135.302C63.6597 137.705 67.2167 140.264 72.1154 143.416C77.0141 146.568 84.8464 144.478 91.0559 144.385C97.2655 144.292 111.37 133.871 113.867 133.247C116.363 132.623 137.302 113.996 133.465 98.1135C129.629 82.2306 113.808 83.1342 104.197 94.5539C100.302 99.1813 95.1158 102.26 85.3801 103.633C75.6445 105.005 69.6855 93.3654 58.4516 101.477Z" stroke="#FF3A41" stroke-width="0.5"/>
</g>
<g filter="url(#filter5_d)">
<path d="M73.6056 151.184C68.0176 163.609 82.4073 176.09 90.3007 180.777L98.2778 184.945C101.38 186.565 106.738 187.108 113.888 187.458C121.038 187.809 128.096 180.778 134.651 176.868C141.206 172.959 149.832 153.208 152.107 151.012C154.383 148.816 165.25 116.134 151.419 101.575C137.588 87.0164 121.297 97.6856 118.069 115.743C116.761 123.06 113.128 129.521 103.603 136.956C94.0777 144.391 80.5906 135.653 73.6056 151.184Z" fill="#F40009"/>
<path d="M73.6056 151.184C68.0176 163.609 82.4073 176.09 90.3007 180.777L98.2778 184.945C101.38 186.565 106.738 187.108 113.888 187.458C121.038 187.809 128.096 180.778 134.651 176.868C141.206 172.959 149.832 153.208 152.107 151.012C154.383 148.816 165.25 116.134 151.419 101.575C137.588 87.0164 121.297 97.6856 118.069 115.743C116.761 123.06 113.128 129.521 103.603 136.956C94.0777 144.391 80.5906 135.653 73.6056 151.184Z" stroke="#FF3A41" stroke-width="0.5"/>
</g>
<g filter="url(#filter6_d)">
<path d="M112.426 111.413C127.722 114.702 129.512 136.084 128.495 146.364L126.939 156.371C126.334 160.263 123.201 165.469 118.673 172.167C114.145 178.864 102.845 180.524 94.7772 183.825C86.7094 187.125 62.5695 181.665 58.9922 182.247C55.4148 182.83 17.7808 170.717 13.6884 148.445C9.59588 126.173 30.5302 118.61 49.4393 127.812C57.1013 131.541 65.5488 132.594 78.8963 128.975C92.2437 125.356 93.3069 107.302 112.426 111.413Z" fill="#F40009"/>
<path d="M112.426 111.413C127.722 114.702 129.512 136.084 128.495 146.364L126.939 156.371C126.334 160.263 123.201 165.469 118.673 172.167C114.145 178.864 102.845 180.524 94.7772 183.825C86.7094 187.125 62.5695 181.665 58.9922 182.247C55.4148 182.83 17.7808 170.717 13.6884 148.445C9.59588 126.173 30.5302 118.61 49.4393 127.812C57.1013 131.541 65.5488 132.594 78.8963 128.975C92.2437 125.356 93.3069 107.302 112.426 111.413Z" stroke="#FF3A41" stroke-width="0.5"/>
</g>
<g filter="url(#filter7_d)">
<path d="M46.5 116.5C32.9 117.3 28.5 135.833 28 145V154C28 157.5 30 162.5 33 169C36 175.5 45.5 178.5 52 182.5C58.5 186.5 80 185 83 186C86 187 120 181.5 126.5 162.5C133 143.5 116 134 98.5 139.5C91.4089 141.729 84 141.5 73 136.5C62 131.5 63.5 115.5 46.5 116.5Z" fill="#F40009"/>
<path d="M46.5 116.5C32.9 117.3 28.5 135.833 28 145V154C28 157.5 30 162.5 33 169C36 175.5 45.5 178.5 52 182.5C58.5 186.5 80 185 83 186C86 187 120 181.5 126.5 162.5C133 143.5 116 134 98.5 139.5C91.4089 141.729 84 141.5 73 136.5C62 131.5 63.5 115.5 46.5 116.5Z" stroke="#FF3A41" stroke-width="0.5"/>
</g>
<g filter="url(#filter8_d)">
<path d="M25.8664 95.0759C18.4861 89.5697 8.14383 97.2373 3.8952 101.759L-0.022386 106.413C-1.54588 108.223 -2.68818 111.678 -3.96635 116.345C-5.24452 121.012 -1.63831 126.698 -0.0185692 131.596C1.60118 136.493 13.3709 145.077 14.4868 146.899C15.6026 148.722 35.5767 160.678 47.208 153.683C58.8393 146.689 54.1845 134.377 42.7419 129.603C38.1053 127.669 34.374 124.326 30.8627 116.952C27.3515 109.579 35.0917 101.959 25.8664 95.0759Z" fill="#FC141C"/>
<path d="M25.8664 95.0759C18.4861 89.5697 8.14383 97.2373 3.8952 101.759L-0.022386 106.413C-1.54588 108.223 -2.68818 111.678 -3.96635 116.345C-5.24452 121.012 -1.63831 126.698 -0.0185692 131.596C1.60118 136.493 13.3709 145.077 14.4868 146.899C15.6026 148.722 35.5767 160.678 47.208 153.683C58.8393 146.689 54.1845 134.377 42.7419 129.603C38.1053 127.669 34.374 124.326 30.8627 116.952C27.3515 109.579 35.0917 101.959 25.8664 95.0759Z" stroke="#FF3A41" stroke-width="0.5"/>
</g>
<g filter="url(#filter9_d)">
<path d="M143.725 140.316C149.782 147.252 161.505 141.931 166.61 138.404L171.419 134.679C173.289 133.23 175.133 130.092 177.364 125.798C179.595 121.505 177.266 115.187 176.712 110.058C176.159 104.93 166.458 94.063 165.75 92.0461C165.043 90.0293 148.031 74.1395 135.188 78.5312C122.346 82.9229 124.307 95.9384 134.489 103.012C138.615 105.878 141.56 109.932 143.442 117.879C145.323 125.826 136.154 131.647 143.725 140.316Z" fill="#FC141C"/>
<path d="M143.725 140.316C149.782 147.252 161.505 141.931 166.61 138.404L171.419 134.679C173.289 133.23 175.133 130.092 177.364 125.798C179.595 121.505 177.266 115.187 176.712 110.058C176.159 104.93 166.458 94.063 165.75 92.0461C165.043 90.0293 148.031 74.1395 135.188 78.5312C122.346 82.9229 124.307 95.9384 134.489 103.012C138.615 105.878 141.56 109.932 143.442 117.879C145.323 125.826 136.154 131.647 143.725 140.316Z" stroke="#FF3A41" stroke-width="0.5"/>
</g>
<g filter="url(#filter10_d)">
<path d="M78.1132 160.602C69.0622 170.784 79.056 187 85.1843 193.836L91.5483 200.2C94.0231 202.675 98.9729 204.796 105.69 207.271C112.408 209.746 121.247 205.149 128.671 203.382C136.096 201.614 150.238 185.35 153.067 183.936C155.895 182.522 176.048 154.591 167.209 136.56C158.37 118.529 139.632 123.832 131.146 140.096C127.708 146.686 122.307 151.763 110.994 156.005C99.68 160.248 89.4269 147.874 78.1132 160.602Z" fill="#F40009"/>
<path d="M78.1132 160.602C69.0622 170.784 79.056 187 85.1843 193.836L91.5483 200.2C94.0231 202.675 98.9729 204.796 105.69 207.271C112.408 209.746 121.247 205.149 128.671 203.382C136.096 201.614 150.238 185.35 153.067 183.936C155.895 182.522 176.048 154.591 167.209 136.56C158.37 118.529 139.632 123.832 131.146 140.096C127.708 146.686 122.307 151.763 110.994 156.005C99.68 160.248 89.4269 147.874 78.1132 160.602Z" stroke="#FF3A41" stroke-width="0.5"/>
</g>
<g filter="url(#filter11_d)">
<path fill-rule="evenodd" clip-rule="evenodd" d="M105.135 32.0953C101.621 31.4858 98.1059 30.8763 94.5911 30.2668C89.2487 29.3291 88.2645 31.0169 87.5616 32.9392C86.9524 34.9553 87.1398 36.1274 88.2645 36.5962C86.0151 39.1749 84.8904 41.8942 86.7649 45.0355C84.8904 74.0103 57.9439 85.0751 59.8653 132.007C60.1933 143.634 58.4125 153.48 54.8509 161.732C53.8668 163.56 52.8826 165.389 52.0859 167.217C61.1306 172.187 71.4874 175 82.5003 175C87.421 175 92.2011 174.391 96.8406 173.312C96.8406 173.359 96.8406 173.406 96.8406 173.453C95.7627 163.841 96.3719 153.996 100.871 143.587C105.745 130.413 108.182 116.675 108.556 102.422C108.744 93.8425 107.9 89.576 106.588 81.418C105.463 74.4791 104.901 67.4464 104.948 60.3668C104.995 55.7252 105.37 52.959 106.307 48.4581C108.744 46.3014 109.119 43.4414 107.807 39.9719C108.369 39.9719 108.978 39.9719 109.259 39.1749C110.618 34.6739 107.947 32.7517 105.135 32.0953Z" fill="white"/>
</g>
</g>
<g filter="url(#filter12_d)">
<path d="M100.406 143.401C95.9404 153.74 95.2784 162.766 96.295 172.277C91.845 173.261 87.2523 173.5 82.5 173.5C71.7472 173.5 62.0193 170.587 53.1458 165.783C53.4555 165.116 53.7354 164.622 54.0342 164.123C54.1136 163.99 54.195 163.856 54.2791 163.717C54.5746 163.231 54.9025 162.691 55.2912 161.969L55.3014 161.95L55.3099 161.93C58.9055 153.599 60.6948 143.679 60.3651 131.993L60.3649 131.986C59.409 108.64 65.6269 94.2319 72.3299 82.028C73.4396 80.0075 74.5657 78.0434 75.6765 76.1059C81.2685 66.3525 86.4743 57.2727 87.2639 45.0678L87.2739 44.9127L87.1943 44.7793C86.3191 43.3126 86.1585 41.9796 86.4549 40.7193C86.7563 39.438 87.5409 38.1863 88.6413 36.9249L89.0976 36.4018L88.4569 36.1347C88.0529 35.9663 87.8356 35.6971 87.7545 35.2573C87.6655 34.7745 87.7421 34.0745 88.0361 33.0975C88.3802 32.159 88.75 31.4189 89.5755 30.9697C90.4265 30.5067 91.8687 30.2966 94.5047 30.7593L94.5057 30.7594L105.036 32.5854C106.379 32.9012 107.615 33.5041 108.362 34.4946C109.092 35.4613 109.425 36.8884 108.784 39.0187C108.689 39.2824 108.568 39.3636 108.458 39.4059C108.303 39.4659 108.108 39.4719 107.807 39.4719H107.083L107.339 40.1488C107.975 41.8297 108.185 43.3202 107.969 44.6258C107.755 45.9212 107.116 47.0748 105.976 48.0836L105.851 48.1936L105.817 48.3561C104.875 52.8821 104.495 55.6813 104.448 60.3617L104.448 60.3635C104.401 67.4716 104.966 74.532 106.094 81.4974C106.208 82.2031 106.318 82.8793 106.424 83.5314C107.544 90.4218 108.227 94.6203 108.057 102.41C107.683 116.609 105.256 130.287 100.406 143.401Z" fill="white" stroke="#F7B2B5"/>
</g>
<path d="M77.7158 93.1595C77.7158 94.7392 76.5351 95.924 75.3544 95.924C74.1737 95.924 73.3865 94.3443 73.7801 92.7645C73.7801 91.1848 74.9608 90 76.1415 90C76.9287 90 77.7158 91.5797 77.7158 93.1595Z" fill="#3F3F5B"/>
<path d="M103.716 97.1595C103.716 98.7392 102.535 99.924 101.354 99.924C100.174 99.924 99.3865 98.3443 99.7801 96.7645C99.7801 95.1848 100.961 94 102.142 94C102.929 94.3949 103.716 95.5797 103.716 97.1595Z" fill="#3F3F5B"/>
<path d="M97.5621 106.23C99.2912 109.811 93.9275 118.494 83.3433 116.771C72.7592 115.047 73.1356 104.168 75.0861 101.972C78.1005 99.54 82.9217 103.425 86.6677 104.135C90.7905 104.541 95.8663 102.311 97.5621 106.23Z" fill="#3F3F5B"/>
<path d="M82.1816 107.446C79.6437 108.561 77.3829 110.385 76.4299 113.02C77.638 114.845 79.91 116.433 83.3457 116.771C90.8709 117.852 95.7693 113.9 97.5424 109.98C96.545 109.541 95.9243 108.798 94.9601 108.021C91.0034 105.926 86.1935 105.453 82.1816 107.446Z" fill="#FF2936"/>
<mask id="path-28-inside-1" fill="white">
<ellipse cx="137.441" cy="81.0294" rx="0.998885" ry="0.953403" transform="rotate(3.81258 137.441 81.0294)"/>
</mask>
<ellipse cx="137.441" cy="81.0294" rx="0.998885" ry="0.953403" transform="rotate(3.81258 137.441 81.0294)" fill="#F40009"/>
<path d="M137.44 81.0294C137.441 81.0179 137.444 81.0058 137.449 80.9959C137.454 80.9868 137.459 80.9825 137.46 80.9814C137.463 80.9792 137.459 80.9839 137.444 80.9829L137.311 82.9785C138.368 83.049 139.361 82.2821 139.436 81.1623L137.44 81.0294ZM137.444 80.9829C137.429 80.9819 137.426 80.9767 137.429 80.9793C137.43 80.9806 137.434 80.9854 137.437 80.9951C137.441 81.0056 137.443 81.0181 137.442 81.0295L135.447 80.8965C135.372 82.0163 136.254 82.9081 137.311 82.9785L137.444 80.9829ZM137.442 81.0295C137.441 81.041 137.438 81.0531 137.433 81.063C137.428 81.0721 137.423 81.0763 137.422 81.0775C137.419 81.0797 137.423 81.0749 137.438 81.0759L137.571 79.0804C136.514 79.0099 135.521 79.7768 135.447 80.8965L137.442 81.0295ZM137.438 81.0759C137.453 81.0769 137.456 81.0822 137.454 81.0796C137.452 81.0783 137.448 81.0734 137.445 81.0638C137.441 81.0533 137.439 81.0408 137.44 81.0294L139.436 81.1623C139.51 80.0426 138.628 79.1508 137.571 79.0804L137.438 81.0759Z" fill="white" mask="url(#path-28-inside-1)"/>
<path d="M140.18 71.4652C140.094 72.7442 138.93 73.7474 137.532 73.6542C136.134 73.5611 135.112 72.4122 135.197 71.1332C135.283 69.8543 136.447 68.8511 137.845 68.9442C139.243 69.0374 140.265 70.1863 140.18 71.4652Z" fill="#F40009" stroke="white"/>
<path d="M135.325 72.1925C135.307 72.4732 135.043 72.7237 134.691 72.7002C134.339 72.6767 134.112 72.3936 134.13 72.1129C134.149 71.8321 134.412 71.5817 134.764 71.6052C135.116 71.6286 135.344 71.9118 135.325 72.1925Z" fill="#F40009" stroke="white"/>
<path d="M138.888 66.7931C138.866 67.1264 138.556 67.4164 138.148 67.3893C137.741 67.3622 137.472 67.0335 137.494 66.7002C137.516 66.3669 137.827 66.0769 138.234 66.104C138.641 66.1311 138.911 66.4598 138.888 66.7931Z" fill="#F40009" stroke="white"/>
<mask id="path-33-inside-2" fill="white">
<ellipse cx="138.818" cy="75.3878" rx="0.998885" ry="0.953403" transform="rotate(3.81258 138.818 75.3878)"/>
</mask>
<ellipse cx="138.818" cy="75.3878" rx="0.998885" ry="0.953403" transform="rotate(3.81258 138.818 75.3878)" fill="#F40009"/>
<path d="M138.817 75.3878C138.818 75.3763 138.821 75.3642 138.826 75.3543C138.831 75.3452 138.836 75.3409 138.837 75.3398C138.84 75.3375 138.836 75.3423 138.821 75.3413L138.688 77.3369C139.745 77.4074 140.738 76.6405 140.813 75.5207L138.817 75.3878ZM138.821 75.3413C138.806 75.3403 138.803 75.3351 138.805 75.3377C138.807 75.339 138.811 75.3438 138.814 75.3535C138.818 75.364 138.82 75.3765 138.819 75.3879L136.824 75.2549C136.749 76.3747 137.631 77.2665 138.688 77.3369L138.821 75.3413ZM138.819 75.3879C138.818 75.3993 138.815 75.4115 138.81 75.4214C138.805 75.4305 138.8 75.4347 138.799 75.4359C138.796 75.4381 138.8 75.4333 138.815 75.4343L138.948 73.4387C137.891 73.3683 136.898 74.1352 136.824 75.2549L138.819 75.3879ZM138.815 75.4343C138.83 75.4353 138.833 75.4406 138.831 75.438C138.829 75.4367 138.825 75.4318 138.822 75.4222C138.818 75.4117 138.816 75.3992 138.817 75.3878L140.813 75.5207C140.887 74.401 140.005 73.5092 138.948 73.4387L138.815 75.4343Z" fill="white" mask="url(#path-33-inside-2)"/>
<mask id="path-35-inside-3" fill="white">
<ellipse cx="135.893" cy="83.219" rx="0.599331" ry="0.572042" transform="rotate(3.81258 135.893 83.219)"/>
</mask>
<ellipse cx="135.893" cy="83.219" rx="0.599331" ry="0.572042" transform="rotate(3.81258 135.893 83.219)" fill="#F40009"/>
<path d="M135.493 83.1924C135.512 82.9132 135.745 82.7803 135.921 82.792L135.788 84.7876C136.625 84.8434 137.428 84.235 137.489 83.3254L135.493 83.1924ZM135.921 82.792C136.098 82.8038 136.311 82.9665 136.293 83.2457L134.297 83.1127C134.237 84.0223 134.951 84.7318 135.788 84.7876L135.921 82.792ZM136.293 83.2457C136.274 83.5248 136.041 83.6578 135.865 83.646L135.998 81.6505C135.161 81.5947 134.358 82.2031 134.297 83.1127L136.293 83.2457ZM135.865 83.646C135.688 83.6343 135.475 83.4715 135.493 83.1924L137.489 83.3254C137.549 82.4158 136.835 81.7062 135.998 81.6505L135.865 83.646Z" fill="white" mask="url(#path-35-inside-3)"/>
<ellipse cx="135.783" cy="81.8739" rx="0.399554" ry="0.381361" transform="rotate(3.81258 135.783 81.8739)" fill="#F40009"/>
<path d="M137.189 77.2854C137.15 77.8813 136.602 78.3695 135.919 78.324C135.237 78.2785 134.759 77.722 134.798 77.126C134.838 76.5301 135.386 76.0419 136.068 76.0874C136.751 76.1329 137.229 76.6894 137.189 77.2854Z" fill="#F40009" stroke="white"/>
<mask id="path-39-inside-4" fill="white">
<ellipse cx="134.922" cy="78.2808" rx="0.699219" ry="0.667382" transform="rotate(3.81258 134.922 78.2808)"/>
</mask>
<ellipse cx="134.922" cy="78.2808" rx="0.699219" ry="0.667382" transform="rotate(3.81258 134.922 78.2808)" fill="#F40009"/>
<path d="M134.622 78.2608C134.637 78.0342 134.823 77.9408 134.944 77.9489L134.811 79.9444C135.703 80.0039 136.553 79.3559 136.617 78.3937L134.622 78.2608ZM134.944 77.9489C135.065 77.957 135.237 78.0742 135.222 78.3008L133.226 78.1678C133.162 79.1299 133.919 79.885 134.811 79.9444L134.944 77.9489ZM135.222 78.3008C135.207 78.5274 135.021 78.6207 134.9 78.6126L135.033 76.6171C134.141 76.5576 133.291 77.2056 133.226 78.1678L135.222 78.3008ZM134.9 78.6126C134.778 78.6045 134.607 78.4874 134.622 78.2608L136.617 78.3937C136.681 77.4316 135.925 76.6765 135.033 76.6171L134.9 78.6126Z" fill="white" mask="url(#path-39-inside-4)"/>
<mask id="path-41-inside-5" fill="white">
<ellipse cx="19.1964" cy="115.072" rx="0.998885" ry="0.953403" transform="rotate(180 19.1964 115.072)"/>
</mask>
<ellipse cx="19.1964" cy="115.072" rx="0.998885" ry="0.953403" transform="rotate(180 19.1964 115.072)" fill="#F40009"/>
<path d="M19.1975 115.072C19.1975 115.083 19.1948 115.096 19.1903 115.106C19.1861 115.115 19.1819 115.12 19.1806 115.121C19.1781 115.124 19.1815 115.119 19.1964 115.119L19.1964 113.119C18.1369 113.119 17.1975 113.95 17.1975 115.072L19.1975 115.072ZM19.1964 115.119C19.2113 115.119 19.2148 115.124 19.2123 115.121C19.211 115.12 19.2067 115.115 19.2026 115.106C19.198 115.096 19.1953 115.083 19.1953 115.072L21.1953 115.072C21.1953 113.95 20.256 113.119 19.1964 113.119L19.1964 115.119ZM19.1953 115.072C19.1953 115.061 19.198 115.048 19.2026 115.038C19.2067 115.029 19.211 115.024 19.2123 115.023C19.2148 115.02 19.2113 115.025 19.1964 115.025L19.1964 117.025C20.256 117.025 21.1953 116.194 21.1953 115.072L19.1953 115.072ZM19.1964 115.025C19.1815 115.025 19.1781 115.02 19.1806 115.023C19.1819 115.024 19.1861 115.029 19.1903 115.038C19.1948 115.048 19.1975 115.061 19.1975 115.072L17.1975 115.072C17.1975 116.194 18.1369 117.025 19.1964 117.025L19.1964 115.025Z" fill="white" mask="url(#path-41-inside-5)"/>
<path d="M17.0995 124.797C17.0995 123.515 18.195 122.437 19.5961 122.437C20.9972 122.437 22.0928 123.515 22.0928 124.797C22.0928 126.079 20.9972 127.157 19.5961 127.157C18.195 127.157 17.0995 126.079 17.0995 124.797Z" fill="#F40009" stroke="white"/>
<path d="M21.8943 123.748C21.8943 123.467 22.1401 123.199 22.493 123.199C22.8459 123.199 23.0918 123.467 23.0918 123.748C23.0918 124.029 22.8459 124.297 22.493 124.297C22.1401 124.297 21.8943 124.029 21.8943 123.748Z" fill="#F40009" stroke="white"/>
<path d="M18.6984 129.373C18.6984 129.039 18.989 128.729 19.397 128.729C19.8051 128.729 20.0957 129.039 20.0957 129.373C20.0957 129.708 19.8051 130.018 19.397 130.018C18.989 130.018 18.6984 129.708 18.6984 129.373Z" fill="#F40009" stroke="white"/>
<mask id="path-46-inside-6" fill="white">
<ellipse cx="18.1974" cy="120.793" rx="0.998885" ry="0.953403" transform="rotate(180 18.1974 120.793)"/>
</mask>
<ellipse cx="18.1974" cy="120.793" rx="0.998885" ry="0.953403" transform="rotate(180 18.1974 120.793)" fill="#F40009"/>
<path d="M18.1985 120.793C18.1985 120.804 18.1958 120.816 18.1913 120.827C18.1871 120.836 18.1829 120.841 18.1815 120.842C18.179 120.844 18.1825 120.839 18.1974 120.839L18.1974 118.839C17.1379 118.839 16.1985 119.67 16.1985 120.793L18.1985 120.793ZM18.1974 120.839C18.2123 120.839 18.2158 120.844 18.2133 120.842C18.212 120.841 18.2077 120.836 18.2035 120.827C18.199 120.816 18.1963 120.804 18.1963 120.793L20.1963 120.793C20.1963 119.67 19.2569 118.839 18.1974 118.839L18.1974 120.839ZM18.1963 120.793C18.1963 120.781 18.199 120.769 18.2035 120.759C18.2077 120.749 18.212 120.745 18.2133 120.743C18.2158 120.741 18.2123 120.746 18.1974 120.746L18.1974 122.746C19.2569 122.746 20.1963 121.915 20.1963 120.793L18.1963 120.793ZM18.1974 120.746C18.1825 120.746 18.179 120.741 18.1815 120.743C18.1829 120.745 18.1871 120.749 18.1913 120.759C18.1958 120.769 18.1985 120.781 18.1985 120.793L16.1985 120.793C16.1985 121.915 17.1379 122.746 18.1974 122.746L18.1974 120.746Z" fill="white" mask="url(#path-46-inside-6)"/>
<mask id="path-48-inside-7" fill="white">
<ellipse cx="20.596" cy="112.784" rx="0.599331" ry="0.572042" transform="rotate(180 20.596 112.784)"/>
</mask>
<ellipse cx="20.596" cy="112.784" rx="0.599331" ry="0.572042" transform="rotate(180 20.596 112.784)" fill="#F40009"/>
<path d="M20.9967 112.784C20.9967 113.064 20.7728 113.212 20.596 113.212L20.596 111.212C19.7571 111.212 18.9967 111.873 18.9967 112.784L20.9967 112.784ZM20.596 113.212C20.4191 113.212 20.1953 113.064 20.1953 112.784L22.1953 112.784C22.1953 111.873 21.4348 111.212 20.596 111.212L20.596 113.212ZM20.1953 112.784C20.1953 112.505 20.4191 112.356 20.596 112.356L20.596 114.356C21.4348 114.356 22.1953 113.696 22.1953 112.784L20.1953 112.784ZM20.596 112.356C20.7728 112.356 20.9967 112.505 20.9967 112.784L18.9967 112.784C18.9967 113.696 19.7571 114.356 20.596 114.356L20.596 112.356Z" fill="white" mask="url(#path-48-inside-7)"/>
<ellipse cx="20.7938" cy="114.119" rx="0.399554" ry="0.381361" transform="rotate(180 20.7938 114.119)" fill="#F40009"/>
<path d="M19.6966 118.79C19.6966 118.193 20.2108 117.67 20.8947 117.67C21.5786 117.67 22.0928 118.193 22.0928 118.79C22.0928 119.388 21.5786 119.911 20.8947 119.911C20.2108 119.911 19.6966 119.388 19.6966 118.79Z" fill="#F40009" stroke="white"/>
<mask id="path-52-inside-8" fill="white">
<ellipse cx="21.8926" cy="117.646" rx="0.699219" ry="0.667382" transform="rotate(180 21.8926 117.646)"/>
</mask>
<ellipse cx="21.8926" cy="117.646" rx="0.699219" ry="0.667382" transform="rotate(180 21.8926 117.646)" fill="#F40009"/>
<path d="M22.1934 117.646C22.1934 117.873 22.0143 117.979 21.8926 117.979L21.8926 115.979C20.9986 115.979 20.1934 116.682 20.1934 117.646L22.1934 117.646ZM21.8926 117.979C21.7709 117.979 21.5918 117.873 21.5918 117.646L23.5918 117.646C23.5918 116.682 22.7866 115.979 21.8926 115.979L21.8926 117.979ZM21.5918 117.646C21.5918 117.419 21.7709 117.313 21.8926 117.313L21.8926 119.313C22.7866 119.313 23.5918 118.61 23.5918 117.646L21.5918 117.646ZM21.8926 117.313C22.0143 117.313 22.1934 117.419 22.1934 117.646L20.1934 117.646C20.1934 118.61 20.9986 119.313 21.8926 119.313L21.8926 117.313Z" fill="white" mask="url(#path-52-inside-8)"/>
<path d="M35.0125 144.532C35.0125 143.992 35.4734 143.521 36.0839 143.521C36.6944 143.521 37.1553 143.992 37.1553 144.532C37.1553 145.071 36.6944 145.542 36.0839 145.542C35.4734 145.542 35.0125 145.071 35.0125 144.532Z" fill="#F40009" stroke="white"/>
<path d="M32.4995 159.937C32.4995 157.73 34.3674 155.906 36.7136 155.906C39.0598 155.906 40.9277 157.73 40.9277 159.937C40.9277 162.145 39.0598 163.969 36.7136 163.969C34.3674 163.969 32.4995 162.145 32.4995 159.937Z" fill="#F40009" stroke="white"/>
<path d="M40.041 158.276C40.041 157.653 40.5722 157.115 41.2695 157.115C41.9669 157.115 42.498 157.653 42.498 158.276C42.498 158.899 41.9669 159.438 41.2695 159.438C40.5722 159.438 40.041 158.899 40.041 158.276Z" fill="#F40009" stroke="white"/>
<path d="M35.0139 167.187C35.0139 166.481 35.6154 165.875 36.3995 165.875C37.1836 165.875 37.7852 166.481 37.7852 167.187C37.7852 167.894 37.1836 168.5 36.3995 168.5C35.6154 168.5 35.0139 167.894 35.0139 167.187Z" fill="#F40009" stroke="white"/>
<path d="M33.4422 153.594C33.4422 153.054 33.9031 152.584 34.5136 152.584C35.1241 152.584 35.585 153.054 35.585 153.594C35.585 154.134 35.1241 154.604 34.5136 154.604C33.9031 154.604 33.4422 154.134 33.4422 153.594Z" fill="#F40009" stroke="white"/>
<mask id="path-59-inside-9" fill="white">
<ellipse cx="38.2857" cy="140.906" rx="0.942821" ry="0.906252" transform="rotate(180 38.2857 140.906)"/>
</mask>
<ellipse cx="38.2857" cy="140.906" rx="0.942821" ry="0.906252" transform="rotate(180 38.2857 140.906)" fill="#F40009"/>
<path d="M38.3429 140.906C38.3429 140.945 38.3249 140.974 38.312 140.986C38.3059 140.992 38.3001 140.996 38.2953 140.998C38.2928 140.999 38.2906 140.999 38.2887 141C38.2867 141 38.2857 141 38.2857 141L38.2857 139C37.2504 139 36.3429 139.817 36.3429 140.906L38.3429 140.906ZM38.2857 141C38.2857 141 38.2846 141 38.2827 141C38.2808 140.999 38.2786 140.999 38.2761 140.998C38.2713 140.996 38.2655 140.992 38.2594 140.986C38.2465 140.974 38.2285 140.945 38.2285 140.906L40.2285 140.906C40.2285 139.817 39.321 139 38.2857 139L38.2857 141ZM38.2285 140.906C38.2285 140.867 38.2465 140.838 38.2594 140.826C38.2655 140.82 38.2713 140.817 38.2761 140.815C38.2786 140.814 38.2808 140.813 38.2827 140.813C38.2846 140.813 38.2857 140.813 38.2857 140.813L38.2857 142.813C39.321 142.812 40.2285 141.996 40.2285 140.906L38.2285 140.906ZM38.2857 140.813C38.2857 140.813 38.2867 140.813 38.2887 140.813C38.2906 140.813 38.2928 140.814 38.2953 140.815C38.3001 140.817 38.3059 140.82 38.312 140.826C38.3249 140.838 38.3429 140.867 38.3429 140.906L36.3429 140.906C36.3429 141.996 37.2504 142.813 38.2857 142.813L38.2857 140.813Z" fill="white" mask="url(#path-59-inside-9)"/>
<mask id="path-61-inside-10" fill="white">
<ellipse cx="38.597" cy="143.021" rx="0.628547" ry="0.604168" transform="rotate(180 38.597 143.021)"/>
</mask>
<ellipse cx="38.597" cy="143.021" rx="0.628547" ry="0.604168" transform="rotate(180 38.597 143.021)" fill="#F40009"/>
<path d="M38.9685 143.021C38.9685 143.276 38.7645 143.417 38.597 143.417L38.597 141.417C37.7353 141.417 36.9685 142.098 36.9685 143.021L38.9685 143.021ZM38.597 143.417C38.4295 143.417 38.2256 143.276 38.2256 143.021L40.2256 143.021C40.2256 142.098 39.4588 141.417 38.597 141.417L38.597 143.417ZM38.2256 143.021C38.2256 142.765 38.4295 142.625 38.597 142.625L38.597 144.625C39.4588 144.625 40.2256 143.944 40.2256 143.021L38.2256 143.021ZM38.597 142.625C38.7645 142.625 38.9685 142.765 38.9685 143.021L36.9685 143.021C36.9685 143.944 37.7353 144.625 38.597 144.625L38.597 142.625Z" fill="white" mask="url(#path-61-inside-10)"/>
<path d="M36.5851 150.422C36.5851 149.298 37.5384 148.354 38.7564 148.354C39.9744 148.354 40.9277 149.298 40.9277 150.422C40.9277 151.545 39.9744 152.489 38.7564 152.489C37.5384 152.489 36.5851 151.545 36.5851 150.422Z" fill="#F40009" stroke="white"/>
<path d="M39.7249 148.61C39.7249 148.32 39.9747 148.052 40.3248 148.052C40.675 148.052 40.9248 148.32 40.9248 148.61C40.9248 148.899 40.675 149.167 40.3248 149.167C39.9747 149.167 39.7249 148.899 39.7249 148.61Z" fill="#F40009" stroke="white"/>
<defs>
<filter id="filter0_d" x="-41.3477" y="22.6523" width="182.489" height="174.526" filterUnits="userSpaceOnUse" color-interpolation-filters="sRGB">
<feFlood flood-opacity="0" result="BackgroundImageFix"/>
<feColorMatrix in="SourceAlpha" type="matrix" values="0 0 0 0 0 0 0 0 0 0 0 0 0 0 0 0 0 0 127 0"/>
<feOffset/>
<feGaussianBlur stdDeviation="15"/>
<feColorMatrix type="matrix" values="0 0 0 0 0 0 0 0 0 0 0 0 0 0 0 0 0 0 0.35 0"/>
<feBlend mode="normal" in2="BackgroundImageFix" result="effect1_dropShadow"/>
<feBlend mode="normal" in="SourceGraphic" in2="effect1_dropShadow" result="shape"/>
</filter>
<filter id="filter1_d" x="-2.27344" y="0.726562" width="196.065" height="161.468" filterUnits="userSpaceOnUse" color-interpolation-filters="sRGB">
<feFlood flood-opacity="0" result="BackgroundImageFix"/>
<feColorMatrix in="SourceAlpha" type="matrix" values="0 0 0 0 0 0 0 0 0 0 0 0 0 0 0 0 0 0 127 0"/>
<feOffset/>
<feGaussianBlur stdDeviation="15"/>
<feColorMatrix type="matrix" values="0 0 0 0 0 0 0 0 0 0 0 0 0 0 0 0 0 0 0.35 0"/>
<feBlend mode="normal" in2="BackgroundImageFix" result="effect1_dropShadow"/>
<feBlend mode="normal" in="SourceGraphic" in2="effect1_dropShadow" result="shape"/>
</filter>
<filter id="filter2_d" x="6.69824" y="1.69824" width="170.245" height="169.567" filterUnits="userSpaceOnUse" color-interpolation-filters="sRGB">
<feFlood flood-opacity="0" result="BackgroundImageFix"/>
<feColorMatrix in="SourceAlpha" type="matrix" values="0 0 0 0 0 0 0 0 0 0 0 0 0 0 0 0 0 0 127 0"/>
<feOffset/>
<feGaussianBlur stdDeviation="15"/>
<feColorMatrix type="matrix" values="0 0 0 0 0 0 0 0 0 0 0 0 0 0 0 0 0 0 0.35 0"/>
<feBlend mode="normal" in2="BackgroundImageFix" result="effect1_dropShadow"/>
<feBlend mode="normal" in="SourceGraphic" in2="effect1_dropShadow" result="shape"/>
</filter>
<filter id="filter3_d" x="69.7246" y="33.7246" width="107.316" height="123.005" filterUnits="userSpaceOnUse" color-interpolation-filters="sRGB">
<feFlood flood-opacity="0" result="BackgroundImageFix"/>
<feColorMatrix in="SourceAlpha" type="matrix" values="0 0 0 0 0 0 0 0 0 0 0 0 0 0 0 0 0 0 127 0"/>
<feOffset/>
<feGaussianBlur stdDeviation="15"/>
<feColorMatrix type="matrix" values="0 0 0 0 0 0 0 0 0 0 0 0 0 0 0 0 0 0 0.35 0"/>
<feBlend mode="normal" in2="BackgroundImageFix" result="effect1_dropShadow"/>
<feBlend mode="normal" in="SourceGraphic" in2="effect1_dropShadow" result="shape"/>
</filter>
<filter id="filter4_d" x="15.3867" y="35.5391" width="159.71" height="152.154" filterUnits="userSpaceOnUse" color-interpolation-filters="sRGB">
<feFlood flood-opacity="0" result="BackgroundImageFix"/>
<feColorMatrix in="SourceAlpha" type="matrix" values="0 0 0 0 0 0 0 0 0 0 0 0 0 0 0 0 0 0 127 0"/>
<feOffset/>
<feGaussianBlur stdDeviation="15"/>
<feColorMatrix type="matrix" values="0 0 0 0 0 0 0 0 0 0 0 0 0 0 0 0 0 0 0.35 0"/>
<feBlend mode="normal" in2="BackgroundImageFix" result="effect1_dropShadow"/>
<feBlend mode="normal" in="SourceGraphic" in2="effect1_dropShadow" result="shape"/>
</filter>
<filter id="filter5_d" x="34.6631" y="48.6621" width="168.679" height="181.488" filterUnits="userSpaceOnUse" color-interpolation-filters="sRGB">
<feFlood flood-opacity="0" result="BackgroundImageFix"/>
<feColorMatrix in="SourceAlpha" type="matrix" values="0 0 0 0 0 0 0 0 0 0 0 0 0 0 0 0 0 0 127 0"/>
<feOffset/>
<feGaussianBlur stdDeviation="15"/>
<feColorMatrix type="matrix" values="0 0 0 0 0 0 0 0 0 0 0 0 0 0 0 0 0 0 0.35 0"/>
<feBlend mode="normal" in2="BackgroundImageFix" result="effect1_dropShadow"/>
<feBlend mode="normal" in="SourceGraphic" in2="effect1_dropShadow" result="shape"/>
</filter>
<filter id="filter6_d" x="-22.2861" y="66.7148" width="186" height="155.646" filterUnits="userSpaceOnUse" color-interpolation-filters="sRGB">
<feFlood flood-opacity="0" result="BackgroundImageFix"/>
<feColorMatrix in="SourceAlpha" type="matrix" values="0 0 0 0 0 0 0 0 0 0 0 0 0 0 0 0 0 0 127 0"/>
<feOffset/>
<feGaussianBlur stdDeviation="15"/>
<feColorMatrix type="matrix" values="0 0 0 0 0 0 0 0 0 0 0 0 0 0 0 0 0 0 0.35 0"/>
<feBlend mode="normal" in2="BackgroundImageFix" result="effect1_dropShadow"/>
<feBlend mode="normal" in="SourceGraphic" in2="effect1_dropShadow" result="shape"/>
</filter>
<filter id="filter7_d" x="-2.25" y="86.2051" width="160.416" height="130.157" filterUnits="userSpaceOnUse" color-interpolation-filters="sRGB">
<feFlood flood-opacity="0" result="BackgroundImageFix"/>
<feColorMatrix in="SourceAlpha" type="matrix" values="0 0 0 0 0 0 0 0 0 0 0 0 0 0 0 0 0 0 127 0"/>
<feOffset/>
<feGaussianBlur stdDeviation="15"/>
<feColorMatrix type="matrix" values="0 0 0 0 0 0 0 0 0 0 0 0 0 0 0 0 0 0 0.35 0"/>
<feBlend mode="normal" in2="BackgroundImageFix" result="effect1_dropShadow"/>
<feBlend mode="normal" in="SourceGraphic" in2="effect1_dropShadow" result="shape"/>
</filter>
<filter id="filter8_d" x="-44.3525" y="56.6475" width="142.688" height="140.213" filterUnits="userSpaceOnUse" color-interpolation-filters="sRGB">
<feFlood flood-opacity="0" result="BackgroundImageFix"/>
<feColorMatrix in="SourceAlpha" type="matrix" values="0 0 0 0 0 0 0 0 0 0 0 0 0 0 0 0 0 0 127 0"/>
<feOffset/>
<feGaussianBlur stdDeviation="15"/>
<feColorMatrix type="matrix" values="0 0 0 0 0 0 0 0 0 0 0 0 0 0 0 0 0 0 0.35 0"/>
<feBlend mode="normal" in2="BackgroundImageFix" result="effect1_dropShadow"/>
<feBlend mode="normal" in="SourceGraphic" in2="effect1_dropShadow" result="shape"/>
</filter>
<filter id="filter9_d" x="79.6494" y="37.6494" width="139.278" height="142.921" filterUnits="userSpaceOnUse" color-interpolation-filters="sRGB">
<feFlood flood-opacity="0" result="BackgroundImageFix"/>
<feColorMatrix in="SourceAlpha" type="matrix" values="0 0 0 0 0 0 0 0 0 0 0 0 0 0 0 0 0 0 127 0"/>
<feOffset/>
<feGaussianBlur stdDeviation="15"/>
<feColorMatrix type="matrix" values="0 0 0 0 0 0 0 0 0 0 0 0 0 0 0 0 0 0 0.35 0"/>
<feBlend mode="normal" in2="BackgroundImageFix" result="effect1_dropShadow"/>
<feBlend mode="normal" in="SourceGraphic" in2="effect1_dropShadow" result="shape"/>
</filter>
<filter id="filter10_d" x="34.6465" y="72.6465" width="180.614" height="180.614" filterUnits="userSpaceOnUse" color-interpolation-filters="sRGB">
<feFlood flood-opacity="0" result="BackgroundImageFix"/>
<feColorMatrix in="SourceAlpha" type="matrix" values="0 0 0 0 0 0 0 0 0 0 0 0 0 0 0 0 0 0 127 0"/>
<feOffset/>
<feGaussianBlur stdDeviation="15"/>
<feColorMatrix type="matrix" values="0 0 0 0 0 0 0 0 0 0 0 0 0 0 0 0 0 0 0.35 0"/>
<feBlend mode="normal" in2="BackgroundImageFix" result="effect1_dropShadow"/>
<feBlend mode="normal" in="SourceGraphic" in2="effect1_dropShadow" result="shape"/>
</filter>
<filter id="filter11_d" x="32.0859" y="10" width="97.5385" height="185" filterUnits="userSpaceOnUse" color-interpolation-filters="sRGB">
<feFlood flood-opacity="0" result="BackgroundImageFix"/>
<feColorMatrix in="SourceAlpha" type="matrix" values="0 0 0 0 0 0 0 0 0 0 0 0 0 0 0 0 0 0 127 0"/>
<feOffset/>
<feGaussianBlur stdDeviation="10"/>
<feColorMatrix type="matrix" values="0 0 0 0 0 0 0 0 0 0 0 0 0 0 0 0 0 0 0.11 0"/>
<feBlend mode="normal" in2="BackgroundImageFix" result="effect1_dropShadow"/>
<feBlend mode="normal" in="SourceGraphic" in2="effect1_dropShadow" result="shape"/>
</filter>
<filter id="filter12_d" x="32.5" y="3" width="97.1245" height="184" filterUnits="userSpaceOnUse" color-interpolation-filters="sRGB">
<feFlood flood-opacity="0" result="BackgroundImageFix"/>
<feColorMatrix in="SourceAlpha" type="matrix" values="0 0 0 0 0 0 0 0 0 0 0 0 0 0 0 0 0 0 127 0"/>
<feOffset dy="-7"/>
<feGaussianBlur stdDeviation="10"/>
<feColorMatrix type="matrix" values="0 0 0 0 0 0 0 0 0 0 0 0 0 0 0 0 0 0 0.12 0"/>
<feBlend mode="normal" in2="BackgroundImageFix" result="effect1_dropShadow"/>
<feBlend mode="normal" in="SourceGraphic" in2="effect1_dropShadow" result="shape"/>
</filter>
</defs>
</svg>
