<svg width="24" height="24" viewBox="0 0 24 24" fill="none" xmlns="http://www.w3.org/2000/svg">
<path fill-rule="evenodd" clip-rule="evenodd" d="M12.1133 22.9972C17.9095 22.9972 22.6133 18.2838 22.6133 12.4634C22.6133 6.64304 17.9095 1.92969 12.1133 1.92969C6.31705 1.92969 1.61328 6.64304 1.61328 12.4634C1.61328 18.2838 6.31705 22.9972 12.1133 22.9972ZM12.1133 23.9972C18.4646 23.9972 23.6133 18.8333 23.6133 12.4634C23.6133 6.09352 18.4646 0.929688 12.1133 0.929688C5.76201 0.929688 0.613281 6.09352 0.613281 12.4634C0.613281 18.8333 5.76201 23.9972 12.1133 23.9972Z" fill="#F40009"/>
<path d="M9.48744 19.9297C9.26411 19.9297 9.08003 19.7737 9.04942 19.5588L9.04409 19.5233C8.93876 18.816 8.80282 17.4581 9.08132 16.3062L10.1371 11.9208C10.0504 11.7095 9.88585 11.2227 9.88585 10.5864C9.88585 9.20727 10.7439 8.12715 11.8392 8.12715C12.7166 8.12715 13.3058 8.7553 13.3058 9.69024C13.3058 10.22 13.1001 10.8736 12.8821 11.5656C12.7651 11.9378 12.6438 12.3221 12.5548 12.6901C12.482 12.9922 12.5411 13.2807 12.7209 13.5035C12.9126 13.7409 13.2184 13.8767 13.559 13.8767C14.868 13.8767 15.8936 12.0951 15.8936 9.82016C15.8936 8.07279 14.6799 6.98741 12.7262 6.98741C10.2525 6.98741 8.9172 8.85365 8.9172 10.6095C8.9172 11.1934 9.06839 11.6402 9.39343 12.0147C9.59215 12.2465 9.67555 12.4263 9.58186 12.7689C9.55926 12.8522 9.52136 12.9985 9.48583 13.1379L9.41008 13.4293C9.30904 13.8103 8.91756 14.0051 8.54273 13.8543C7.33441 13.3716 6.61328 12.0815 6.61328 10.4041C6.61318 7.71329 8.98597 4.92969 12.9562 4.92969C16.4974 4.92969 18.6133 7.49607 18.6133 9.97713C18.6133 13.4387 16.5649 15.951 13.7428 15.951C13.0379 15.951 12.3327 15.6941 11.8512 15.2932C11.6986 15.8836 11.4827 16.716 11.4172 16.9501C11.0885 18.1185 10.2179 19.2889 9.85896 19.7379C9.75596 19.8682 9.627 19.9297 9.48744 19.9297ZM11.8393 8.77845C11.1165 8.77845 10.5506 9.57239 10.5506 10.5864C10.5506 11.2699 10.7812 11.7421 10.7839 11.7467L10.8357 11.8512L10.8092 11.9655L9.72814 16.4561C9.56795 17.1194 9.5377 17.987 9.63842 18.9372C10.0316 18.3953 10.5516 17.5773 10.7766 16.7772C10.877 16.4184 11.3612 14.5378 11.3658 14.5185L11.5785 13.693L11.9826 14.4466C12.2073 14.8657 12.9271 15.2995 13.7429 15.2995C16.219 15.2995 17.9488 13.1108 17.9488 9.97683C17.9488 7.8159 16.0815 5.58068 12.9563 5.58068C9.03959 5.58068 7.27799 8.40107 7.27799 10.4038C7.27799 11.817 7.82201 12.8497 8.77112 13.242L8.84124 12.9786C8.87779 12.836 8.91668 12.6855 8.93995 12.6005C8.95489 12.5455 8.95655 12.5253 8.95691 12.5198C8.95427 12.524 8.94326 12.5015 8.88581 12.4348C8.4601 11.9437 8.25275 11.3462 8.25275 10.6092C8.25275 8.17311 10.1759 6.33585 12.7264 6.33585C15.0544 6.33585 16.5584 7.70356 16.5584 9.8199C16.5584 12.5038 15.2694 14.5277 13.5593 14.5277C13.0139 14.5277 12.5184 14.302 12.2001 13.9077C11.8913 13.5254 11.788 13.0395 11.9083 12.5397C12.0023 12.1505 12.1269 11.7555 12.2476 11.3732C12.4503 10.7294 12.6421 10.1214 12.6421 9.68999C12.6412 9.41602 12.563 8.77845 11.8393 8.77845Z" fill="white"/>
<path fill-rule="evenodd" clip-rule="evenodd" d="M10.5029 18.8455C10.388 19.0222 10.2756 19.1838 10.1731 19.3251C10.05 19.4947 9.94108 19.6352 9.85896 19.7379C9.75596 19.8682 9.627 19.9297 9.48744 19.9297C9.26411 19.9297 9.08003 19.7737 9.04942 19.5588L9.04409 19.5233C9.02225 19.3766 8.9991 19.2021 8.9786 19.0071C8.95977 18.8281 8.94318 18.632 8.93189 18.4246C8.92822 18.3571 8.92511 18.2884 8.92266 18.2187C8.90136 17.6111 8.93084 16.9286 9.08132 16.3062L10.1371 11.9208C10.1232 11.8869 10.1073 11.846 10.0904 11.7984C10.0896 11.7963 10.0888 11.7941 10.0881 11.792C10.0748 11.7545 10.061 11.713 10.0471 11.6679C10.0309 11.6154 10.0146 11.5579 9.99888 11.4958C9.99843 11.494 9.99797 11.4922 9.99752 11.4904C9.93844 11.2555 9.88809 10.955 9.88592 10.6095C9.88587 10.6019 9.88585 10.5941 9.88585 10.5864C9.88585 10.5864 9.88585 10.5864 9.88585 10.5864C9.88585 9.24618 10.6962 8.18826 11.7472 8.12971C11.7777 8.12801 11.8084 8.12715 11.8392 8.12715C11.8392 8.12715 11.8393 8.12715 11.8392 8.12715C12.7158 8.12718 13.3048 8.75425 13.3058 9.68786C13.3058 9.68857 13.3058 9.68928 13.3058 9.68999C13.3058 9.6899 13.3058 9.69007 13.3058 9.68999C13.3058 10.2198 13.1001 10.8736 12.8821 11.5656L12.8751 11.5879C12.7603 11.9532 12.642 12.3294 12.5548 12.6901C12.5544 12.6917 12.554 12.6933 12.5536 12.6949C12.5537 12.6947 12.5536 12.6952 12.5536 12.6949C12.484 12.9906 12.5405 13.2735 12.7129 13.4935C12.7129 13.4934 12.713 13.4935 12.7129 13.4935C12.7155 13.4968 12.7183 13.5002 12.7209 13.5035C12.9126 13.7409 13.2184 13.8767 13.559 13.8767C13.5589 13.8767 13.5591 13.8767 13.559 13.8767C14.8679 13.8764 15.8936 12.0949 15.8936 9.82016C15.8936 9.82024 15.8936 9.82007 15.8936 9.82016C15.8935 8.073 14.6799 6.98748 12.7264 6.98741C12.7265 6.98741 12.7264 6.98741 12.7264 6.98741C12.3039 6.98741 11.9144 7.04185 11.5593 7.14088C9.84444 7.61912 8.92695 9.13733 8.91727 10.5864C8.91722 10.594 8.9172 10.6016 8.9172 10.6092C8.9172 10.6091 8.9172 10.6093 8.9172 10.6092C8.9172 10.9605 8.97193 11.2625 9.08633 11.5287C9.10985 11.5834 9.13589 11.6366 9.16449 11.6884C9.22565 11.7993 9.29855 11.9038 9.38359 12.0033C9.38408 12.0038 9.38457 12.0044 9.38506 12.005C9.38784 12.0082 9.39063 12.0115 9.39343 12.0147C9.44117 12.0704 9.48226 12.1231 9.51583 12.1758C9.57632 12.2707 9.61242 12.3655 9.61912 12.4776C9.62076 12.505 9.62065 12.5334 9.6187 12.5631C9.61464 12.6253 9.60258 12.6931 9.58186 12.7689C9.58136 12.7707 9.58086 12.7726 9.58035 12.7744C9.58024 12.7749 9.58013 12.7753 9.58002 12.7757C9.57174 12.8063 9.5616 12.8446 9.5504 12.8875C9.53077 12.9625 9.50784 13.0515 9.48583 13.1379L9.41008 13.4293C9.31739 13.7788 8.98023 13.9716 8.63574 13.8846C8.60474 13.8768 8.57368 13.8667 8.54273 13.8543C8.53565 13.8514 8.52859 13.8486 8.52155 13.8457C7.32599 13.3565 6.61328 12.0716 6.61328 10.4041C6.61328 10.4042 6.61328 10.404 6.61328 10.4041C6.61339 7.7134 8.98614 4.92969 12.9562 4.92969C12.9561 4.92969 12.9562 4.92969 12.9562 4.92969C16.4971 4.92976 18.6131 7.4959 18.6133 9.97683C18.6133 9.97673 18.6133 9.97693 18.6133 9.97683C18.6133 13.4383 16.5649 15.9509 13.7429 15.951C13.743 15.951 13.7429 15.951 13.7429 15.951C13.406 15.951 13.0689 15.8923 12.7563 15.7872C12.5377 15.7138 12.331 15.6177 12.1447 15.5031C12.0399 15.4387 11.9416 15.3685 11.8512 15.2932C11.8219 15.4066 11.7903 15.5288 11.7578 15.6541C11.6989 15.8817 11.6372 16.1191 11.5818 16.3306C11.509 16.609 11.4472 16.8426 11.4172 16.9501C11.4166 16.952 11.4161 16.954 11.4155 16.9559C11.4156 16.9556 11.4155 16.9562 11.4155 16.9559C11.2449 17.5588 10.9302 18.1628 10.6167 18.6667C10.5787 18.7278 10.5407 18.7875 10.5029 18.8455ZM10.6085 17.2598C10.4262 17.7037 10.1784 18.1348 9.93856 18.5019C9.83509 18.6603 9.73308 18.8067 9.63842 18.9372C9.61928 18.7566 9.60488 18.5791 9.59519 18.4053C9.56694 17.8987 9.57883 17.4245 9.6307 17.0035C9.65437 16.8114 9.68636 16.6303 9.72666 16.4623C9.72671 16.4621 9.72661 16.4625 9.72666 16.4623C9.7271 16.4604 9.72769 16.458 9.72814 16.4561L10.8092 11.9655L10.8357 11.8512L10.7839 11.7467C10.7832 11.7456 10.77 11.7187 10.7501 11.6693C10.6855 11.5085 10.5506 11.1093 10.5506 10.5864C10.5506 10.5864 10.5506 10.5864 10.5506 10.5864C10.5506 9.57244 11.1165 8.77849 11.8392 8.77845C11.8393 8.77845 11.8392 8.77845 11.8392 8.77845C12.563 8.77845 12.6412 9.41602 12.6421 9.68999C12.6421 9.69007 12.6421 9.6899 12.6421 9.68999C12.642 10.1199 12.4516 10.7252 12.2497 11.3664C12.2497 11.3665 12.2498 11.3662 12.2497 11.3664C12.2496 11.3668 12.2493 11.3676 12.2492 11.368L12.2476 11.3732C12.1512 11.6786 12.0523 11.9921 11.9685 12.3042C11.9479 12.3809 11.9282 12.4575 11.9097 12.5339C11.9096 12.5342 11.9097 12.5337 11.9097 12.5339C11.9092 12.5356 11.9087 12.538 11.9083 12.5397C11.8285 12.871 11.8471 13.1963 11.9586 13.4892C12.0055 13.6124 12.0688 13.7299 12.1482 13.8398C12.1648 13.8628 12.1821 13.8854 12.2001 13.9077C12.2027 13.911 12.2054 13.9142 12.208 13.9175C12.2081 13.9175 12.208 13.9174 12.208 13.9175C12.2886 14.0156 12.3804 14.1033 12.4811 14.1793C12.4811 14.1793 12.481 14.1793 12.4811 14.1793C12.4824 14.1803 12.4838 14.1814 12.4851 14.1824C12.782 14.4049 13.1569 14.5277 13.559 14.5277C13.5591 14.5277 13.5589 14.5277 13.559 14.5277C13.6208 14.5277 13.6823 14.5251 13.7429 14.5199C14.1679 14.4833 14.564 14.3201 14.9169 14.0525C15.9074 13.3013 16.5584 11.7274 16.5584 9.82016C16.5584 9.82007 16.5584 9.82024 16.5584 9.82016C16.5584 8.89911 16.2736 8.1196 15.7599 7.53318C15.1325 6.81703 14.164 6.38845 12.9563 6.34038C12.8806 6.33737 12.804 6.33585 12.7264 6.33585C12.7264 6.33585 12.7265 6.33585 12.7264 6.33585C10.2482 6.33595 8.36215 8.07061 8.25734 10.4038C8.25429 10.4718 8.25275 10.5402 8.25275 10.6092C8.25275 10.6093 8.25275 10.6091 8.25275 10.6092C8.25278 11.0003 8.3112 11.3524 8.42965 11.6698C8.4972 11.8508 8.58425 12.0207 8.69114 12.1803C8.75 12.2682 8.81487 12.3529 8.88581 12.4348C8.88836 12.4377 8.89082 12.4406 8.89319 12.4434C8.89409 12.4445 8.89498 12.4455 8.89585 12.4465C8.91924 12.4742 8.93367 12.4931 8.94263 12.5048C8.94676 12.5102 8.94972 12.5141 8.95187 12.5166C8.95308 12.518 8.95402 12.519 8.95477 12.5196C8.95582 12.5204 8.95648 12.5204 8.95691 12.5198C8.95656 12.525 8.95503 12.5438 8.94175 12.5938C8.94162 12.5943 8.94149 12.5948 8.94137 12.5953C8.94091 12.597 8.94044 12.5987 8.93995 12.6005C8.92076 12.6706 8.89094 12.7853 8.86057 12.9033C8.85996 12.9057 8.85935 12.9081 8.85874 12.9104C8.85356 12.9306 8.84838 12.9508 8.84323 12.9708C8.84297 12.9719 8.84271 12.9729 8.84245 12.9739C8.84204 12.9755 8.84164 12.977 8.84124 12.9786L8.77112 13.242C8.66838 13.1996 8.57038 13.1496 8.4773 13.0924C8.47359 13.0901 8.46989 13.0879 8.4662 13.0856C8.40285 13.0461 8.3418 13.0033 8.28311 12.9573C8.28238 12.9567 8.28164 12.9561 8.28091 12.9555C8.21441 12.9032 8.15094 12.8467 8.09059 12.7862C8.08726 12.7829 8.08394 12.7795 8.08063 12.7762C8.02084 12.7154 7.96416 12.6507 7.91066 12.5822C7.53246 12.0978 7.31331 11.4223 7.28191 10.6092C7.27931 10.5418 7.278 10.4734 7.27799 10.4041C7.27799 8.44104 8.97059 5.69194 12.7264 5.58397C12.8022 5.58179 12.8788 5.58068 12.9562 5.58068C12.9562 5.58068 12.9561 5.58068 12.9562 5.58068C14.4245 5.58068 15.6153 6.07409 16.465 6.82139C17.4239 7.66464 17.9488 8.83117 17.9488 9.97683C17.9488 9.97693 17.9488 9.97673 17.9488 9.97683C17.9487 12.3346 16.9696 14.1576 15.4302 14.9157C14.9235 15.1652 14.3561 15.2995 13.7429 15.2995C13.7429 15.2995 13.743 15.2995 13.7429 15.2995C13.6811 15.2994 13.6198 15.297 13.5593 15.2922C13.067 15.2532 12.6226 15.0626 12.3196 14.825C12.3035 14.8124 12.2879 14.7997 12.2726 14.7869C12.2534 14.7707 12.2348 14.7543 12.2169 14.7378C12.2104 14.7317 12.2039 14.7257 12.1975 14.7196C12.1049 14.631 12.0319 14.5384 11.9826 14.4466L11.5785 13.693L11.3658 14.5185C11.3647 14.5233 11.3347 14.6399 11.2886 14.8186C11.2886 14.8187 11.2886 14.8186 11.2886 14.8186C11.2671 14.902 11.2421 14.9989 11.2149 15.1042C11.2129 15.1118 11.2109 15.1195 11.2089 15.1273C11.0583 15.71 10.8443 16.5342 10.7785 16.7704C10.7784 16.7708 10.7783 16.7711 10.7782 16.7715C10.7777 16.7734 10.7772 16.7753 10.7766 16.7772C10.7314 16.9381 10.6742 17.0998 10.6085 17.2598Z" fill="#F40009"/>
</svg>
