<svg width="73" height="73" viewBox="0 0 73 73" fill="none" xmlns="http://www.w3.org/2000/svg">
<ellipse cx="36.0932" cy="36.047" rx="36.0932" ry="36.047" fill="#F40009"/>
<path d="M48.8732 35.5404L27.9466 23.5411C27.8028 23.4589 27.6398 23.4158 27.4739 23.416C27.308 23.4162 27.1451 23.4598 27.0015 23.5423C26.8579 23.6248 26.7387 23.7434 26.6558 23.8861C26.5729 24.0289 26.5293 24.1908 26.5293 24.3556L26.5293 48.3571C26.5289 48.522 26.5723 48.6841 26.6552 48.8269C26.7381 48.9698 26.8575 49.0884 27.0013 49.1707C27.1451 49.2531 27.3082 49.2963 27.4742 49.2959C27.6402 49.2956 27.8032 49.2517 27.9466 49.1687L48.8732 37.1839C49.0201 37.102 49.1424 36.9827 49.2275 36.8383C49.3126 36.6938 49.3574 36.5295 49.3574 36.3622C49.3574 36.1948 49.3126 36.0305 49.2275 35.8861C49.1424 35.7416 49.0201 35.6223 48.8732 35.5404Z" fill="white"/>
</svg>
