<svg width="167" height="192" viewBox="0 0 167 192" fill="none" xmlns="http://www.w3.org/2000/svg">
<mask id="mask0" mask-type="alpha" maskUnits="userSpaceOnUse" x="20" y="44" width="127" height="128">
<path d="M83.5 171.058C118.57 171.058 147 142.615 147 107.529C147 72.4428 118.57 44 83.5 44C48.4299 44 20 72.4428 20 107.529C20 142.615 48.4299 171.058 83.5 171.058Z" fill="#3F3F5B"/>
</mask>
<g mask="url(#mask0)">
<g filter="url(#filter0_d)">
<path d="M43.4923 60.4561C31.8037 53.4578 17.73 66.2943 12.1543 73.5874L7.08552 81.0244C5.11436 83.9165 3.95106 89.1745 2.7693 96.2352C1.58754 103.296 7.74808 111.125 10.8664 118.091C13.9848 125.057 32.5956 135.926 34.5114 138.442C36.4272 140.958 67.6199 155.562 83.6916 143.522C99.7634 131.483 91.0661 114.059 73.5078 108.748C66.3932 106.596 60.3998 102.234 54.1261 91.9072C47.8525 81.5805 58.103 69.204 43.4923 60.4561Z" fill="#F40009"/>
<path d="M43.4923 60.4561C31.8037 53.4578 17.73 66.2943 12.1543 73.5874L7.08552 81.0244C5.11436 83.9165 3.95106 89.1745 2.7693 96.2352C1.58754 103.296 7.74808 111.125 10.8664 118.091C13.9848 125.057 32.5956 135.926 34.5114 138.442C36.4272 140.958 67.6199 155.562 83.6916 143.522C99.7634 131.483 91.0661 114.059 73.5078 108.748C66.3932 106.596 60.3998 102.234 54.1261 91.9072C47.8525 81.5805 58.103 69.204 43.4923 60.4561Z" stroke="#FF3A41" stroke-width="0.5"/>
</g>
<g filter="url(#filter1_d)">
<path d="M140.039 118.649C157.195 115.928 160.453 91.8596 159.937 80.1658L158.808 68.7461C158.369 64.3051 155.204 58.2118 150.581 50.3408C145.959 42.4697 133.529 39.8551 124.78 35.5953C116.03 31.3355 88.9382 35.9364 85.0062 35.044C81.0742 34.1515 38.6235 45.3962 32.76 70.3198C26.8964 95.2434 49.6588 105.164 71.1735 95.9901C79.8913 92.2726 89.3208 91.6331 103.905 96.5972C118.49 101.561 118.594 122.051 140.039 118.649Z" fill="#F40009"/>
<path d="M140.039 118.649C157.195 115.928 160.453 91.8596 159.937 80.1658L158.808 68.7461C158.369 64.3051 155.204 58.2118 150.581 50.3408C145.959 42.4697 133.529 39.8551 124.78 35.5953C116.03 31.3355 88.9382 35.9364 85.0062 35.044C81.0742 34.1515 38.6235 45.3962 32.76 70.3198C26.8964 95.2434 49.6588 105.164 71.1735 95.9901C79.8913 92.2726 89.3208 91.6331 103.905 96.5972C118.49 101.561 118.594 122.051 140.039 118.649Z" stroke="#FF3A41" stroke-width="0.5"/>
</g>
<g filter="url(#filter2_d)">
<path d="M54.3382 121.742C58.2405 133.411 82.7035 131.566 94.4472 129.184L105.873 126.416C110.317 125.339 116.24 122.049 123.855 117.422C131.471 112.794 133.263 103.548 136.961 96.6232C140.66 89.6981 134.192 71.3229 134.825 68.387C135.457 65.451 121.258 37.3546 95.757 37.5037C70.2558 37.6529 61.8035 55.4689 72.5005 69.1093C76.835 74.6365 78.1173 81.198 74.1044 92.3732C70.0914 103.548 49.4602 107.155 54.3382 121.742Z" fill="#F40009"/>
<path d="M54.3382 121.742C58.2405 133.411 82.7035 131.566 94.4472 129.184L105.873 126.416C110.317 125.339 116.24 122.049 123.855 117.422C131.471 112.794 133.263 103.548 136.961 96.6232C140.66 89.6981 134.192 71.3229 134.825 68.387C135.457 65.451 121.258 37.3546 95.757 37.5037C70.2558 37.6529 61.8035 55.4689 72.5005 69.1093C76.835 74.6365 78.1173 81.198 74.1044 92.3732C70.0914 103.548 49.4602 107.155 54.3382 121.742Z" stroke="#FF3A41" stroke-width="0.5"/>
</g>
<g filter="url(#filter3_d)">
<path d="M105.139 112.697C106.458 120.553 117.507 121.947 122.867 121.662L128.099 121.096C130.133 120.877 132.914 119.4 136.504 117.248C140.094 115.096 141.241 109.385 143.158 105.356C145.075 101.326 142.853 88.9228 143.246 87.1161C143.639 85.3094 138.307 65.8911 126.854 63.3059C115.401 60.7207 110.947 71.1992 115.243 81.0263C116.984 85.0083 117.316 89.3293 115.1 96.0375C112.885 102.746 103.49 102.878 105.139 112.697Z" fill="#F40009"/>
<path d="M105.139 112.697C106.458 120.553 117.507 121.947 122.867 121.662L128.099 121.096C130.133 120.877 132.914 119.4 136.504 117.248C140.094 115.096 141.241 109.385 143.158 105.356C145.075 101.326 142.853 88.9228 143.246 87.1161C143.639 85.3094 138.307 65.8911 126.854 63.3059C115.401 60.7207 110.947 71.1992 115.243 81.0263C116.984 85.0083 117.316 89.3293 115.1 96.0375C112.885 102.746 103.49 102.878 105.139 112.697Z" stroke="#FF3A41" stroke-width="0.5"/>
</g>
<g filter="url(#filter4_d)">
<path d="M58.4516 98.4774C49.4644 104.967 54.539 119.612 58.1997 126.124L62.1309 132.302C63.6597 134.705 67.2167 137.264 72.1154 140.416C77.0141 143.568 84.8464 141.478 91.0559 141.385C97.2655 141.292 111.37 130.871 113.867 130.247C116.363 129.623 137.302 110.996 133.465 95.1135C129.629 79.2306 113.808 80.1342 104.197 91.5539C100.302 96.1813 95.1158 99.2605 85.3801 100.633C75.6445 102.005 69.6855 90.3654 58.4516 98.4774Z" fill="#FC141C"/>
<path d="M58.4516 98.4774C49.4644 104.967 54.539 119.612 58.1997 126.124L62.1309 132.302C63.6597 134.705 67.2167 137.264 72.1154 140.416C77.0141 143.568 84.8464 141.478 91.0559 141.385C97.2655 141.292 111.37 130.871 113.867 130.247C116.363 129.623 137.302 110.996 133.465 95.1135C129.629 79.2306 113.808 80.1342 104.197 91.5539C100.302 96.1813 95.1158 99.2605 85.3801 100.633C75.6445 102.005 69.6855 90.3654 58.4516 98.4774Z" stroke="#FF3A41" stroke-width="0.5"/>
</g>
<g filter="url(#filter5_d)">
<path d="M73.6056 148.184C68.0176 160.609 82.4073 173.09 90.3007 177.777L98.2778 181.945C101.38 183.565 106.738 184.108 113.888 184.458C121.038 184.809 128.096 177.778 134.651 173.868C141.206 169.959 149.832 150.208 152.107 148.012C154.383 145.816 165.25 113.134 151.419 98.5751C137.588 84.0164 121.297 94.6856 118.069 112.743C116.761 120.06 113.128 126.521 103.603 133.956C94.0777 141.391 80.5906 132.653 73.6056 148.184Z" fill="#F40009"/>
<path d="M73.6056 148.184C68.0176 160.609 82.4073 173.09 90.3007 177.777L98.2778 181.945C101.38 183.565 106.738 184.108 113.888 184.458C121.038 184.809 128.096 177.778 134.651 173.868C141.206 169.959 149.832 150.208 152.107 148.012C154.383 145.816 165.25 113.134 151.419 98.5751C137.588 84.0164 121.297 94.6856 118.069 112.743C116.761 120.06 113.128 126.521 103.603 133.956C94.0777 141.391 80.5906 132.653 73.6056 148.184Z" stroke="#FF3A41" stroke-width="0.5"/>
</g>
<g filter="url(#filter6_d)">
<path d="M112.426 108.413C127.722 111.702 129.512 133.084 128.495 143.364L126.939 153.371C126.334 157.263 123.201 162.469 118.673 169.167C114.145 175.864 102.845 177.524 94.7772 180.825C86.7094 184.125 62.5695 178.665 58.9922 179.247C55.4148 179.83 17.7808 167.717 13.6884 145.445C9.59588 123.173 30.5302 115.61 49.4393 124.812C57.1013 128.541 65.5488 129.594 78.8963 125.975C92.2437 122.356 93.3069 104.302 112.426 108.413Z" fill="#F40009"/>
<path d="M112.426 108.413C127.722 111.702 129.512 133.084 128.495 143.364L126.939 153.371C126.334 157.263 123.201 162.469 118.673 169.167C114.145 175.864 102.845 177.524 94.7772 180.825C86.7094 184.125 62.5695 178.665 58.9922 179.247C55.4148 179.83 17.7808 167.717 13.6884 145.445C9.59588 123.173 30.5302 115.61 49.4393 124.812C57.1013 128.541 65.5488 129.594 78.8963 125.975C92.2437 122.356 93.3069 104.302 112.426 108.413Z" stroke="#FF3A41" stroke-width="0.5"/>
</g>
<g filter="url(#filter7_d)">
<path d="M46.5 113.5C32.9 114.3 28.5 132.833 28 142V151C28 154.5 30 159.5 33 166C36 172.5 45.5 175.5 52 179.5C58.5 183.5 80 182 83 183C86 184 120 178.5 126.5 159.5C133 140.5 116 131 98.5 136.5C91.4089 138.729 84 138.5 73 133.5C62 128.5 63.5 112.5 46.5 113.5Z" fill="#F40009"/>
<path d="M46.5 113.5C32.9 114.3 28.5 132.833 28 142V151C28 154.5 30 159.5 33 166C36 172.5 45.5 175.5 52 179.5C58.5 183.5 80 182 83 183C86 184 120 178.5 126.5 159.5C133 140.5 116 131 98.5 136.5C91.4089 138.729 84 138.5 73 133.5C62 128.5 63.5 112.5 46.5 113.5Z" stroke="#FF3A41" stroke-width="0.5"/>
</g>
<g filter="url(#filter8_d)">
<path d="M25.8664 92.0759C18.4861 86.5697 8.14383 94.2373 3.8952 98.7594L-0.022386 103.413C-1.54588 105.223 -2.68818 108.678 -3.96635 113.345C-5.24452 118.012 -1.63831 123.698 -0.0185692 128.596C1.60118 133.493 13.3709 142.077 14.4868 143.899C15.6026 145.722 35.5767 157.678 47.208 150.683C58.8393 143.689 54.1845 131.377 42.7419 126.603C38.1053 124.669 34.374 121.326 30.8627 113.952C27.3515 106.579 35.0917 98.9587 25.8664 92.0759Z" fill="#FC141C"/>
<path d="M25.8664 92.0759C18.4861 86.5697 8.14383 94.2373 3.8952 98.7594L-0.022386 103.413C-1.54588 105.223 -2.68818 108.678 -3.96635 113.345C-5.24452 118.012 -1.63831 123.698 -0.0185692 128.596C1.60118 133.493 13.3709 142.077 14.4868 143.899C15.6026 145.722 35.5767 157.678 47.208 150.683C58.8393 143.689 54.1845 131.377 42.7419 126.603C38.1053 124.669 34.374 121.326 30.8627 113.952C27.3515 106.579 35.0917 98.9587 25.8664 92.0759Z" stroke="#FF3A41" stroke-width="0.5"/>
</g>
<g filter="url(#filter9_d)">
<path d="M143.725 137.316C149.782 144.252 161.505 138.931 166.61 135.404L171.419 131.679C173.289 130.23 175.133 127.092 177.364 122.798C179.595 118.505 177.266 112.187 176.712 107.058C176.159 101.93 166.458 91.063 165.75 89.0461C165.043 87.0293 148.031 71.1395 135.188 75.5312C122.346 79.9229 124.307 92.9384 134.489 100.012C138.615 102.878 141.56 106.932 143.442 114.879C145.323 122.826 136.154 128.647 143.725 137.316Z" fill="#FC141C"/>
<path d="M143.725 137.316C149.782 144.252 161.505 138.931 166.61 135.404L171.419 131.679C173.289 130.23 175.133 127.092 177.364 122.798C179.595 118.505 177.266 112.187 176.712 107.058C176.159 101.93 166.458 91.063 165.75 89.0461C165.043 87.0293 148.031 71.1395 135.188 75.5312C122.346 79.9229 124.307 92.9384 134.489 100.012C138.615 102.878 141.56 106.932 143.442 114.879C145.323 122.826 136.154 128.647 143.725 137.316Z" stroke="#FF3A41" stroke-width="0.5"/>
</g>
<g filter="url(#filter10_d)">
<path d="M78.1132 157.602C69.0622 167.784 79.056 184 85.1843 190.836L91.5483 197.2C94.0231 199.675 98.9729 201.796 105.69 204.271C112.408 206.746 121.247 202.149 128.671 200.382C136.096 198.614 150.238 182.35 153.067 180.936C155.895 179.522 176.048 151.591 167.209 133.56C158.37 115.529 139.632 120.832 131.146 137.096C127.708 143.686 122.307 148.763 110.994 153.005C99.68 157.248 89.4269 144.874 78.1132 157.602Z" fill="#F40009"/>
<path d="M78.1132 157.602C69.0622 167.784 79.056 184 85.1843 190.836L91.5483 197.2C94.0231 199.675 98.9729 201.796 105.69 204.271C112.408 206.746 121.247 202.149 128.671 200.382C136.096 198.614 150.238 182.35 153.067 180.936C155.895 179.522 176.048 151.591 167.209 133.56C158.37 115.529 139.632 120.832 131.146 137.096C127.708 143.686 122.307 148.763 110.994 153.005C99.68 157.248 89.4269 144.874 78.1132 157.602Z" stroke="#FF3A41" stroke-width="0.5"/>
</g>
<g filter="url(#filter11_d)">
<path fill-rule="evenodd" clip-rule="evenodd" d="M105.135 29.0953C101.621 28.4858 98.1059 27.8763 94.5911 27.2668C89.2487 26.3291 88.2645 28.0169 87.5616 29.9392C86.9524 31.9553 87.1398 33.1274 88.2645 33.5962C86.0151 36.1749 84.8904 38.8942 86.7649 42.0355C84.8904 71.0103 57.9439 82.0751 59.8653 129.007C60.1933 140.634 58.4125 150.48 54.8509 158.732C53.8668 160.56 52.8826 162.389 52.0859 164.217C61.1306 169.187 71.4874 172 82.5003 172C87.421 172 92.2011 171.391 96.8406 170.312C96.8406 170.359 96.8406 170.406 96.8406 170.453C95.7627 160.841 96.3719 150.996 100.871 140.587C105.745 127.413 108.182 113.675 108.556 99.4224C108.744 90.8425 107.9 86.576 106.588 78.418C105.463 71.4791 104.901 64.4464 104.948 57.3668C104.995 52.7252 105.37 49.959 106.307 45.4581C108.744 43.3014 109.119 40.4414 107.807 36.9719C108.369 36.9719 108.978 36.9719 109.259 36.1749C110.618 31.6739 107.947 29.7517 105.135 29.0953Z" fill="white"/>
</g>
</g>
<g filter="url(#filter12_d)">
<path d="M100.406 140.401C95.9404 150.74 95.2784 159.766 96.295 169.277C91.845 170.261 87.2523 170.5 82.5 170.5C71.7472 170.5 62.0193 167.587 53.1458 162.783C53.4555 162.116 53.7354 161.622 54.0342 161.123C54.1136 160.99 54.195 160.856 54.2791 160.717C54.5746 160.231 54.9025 159.691 55.2912 158.969L55.3014 158.95L55.3099 158.93C58.9055 150.599 60.6948 140.679 60.3651 128.993L60.3649 128.986C59.409 105.64 65.6269 91.2319 72.3299 79.028C73.4396 77.0075 74.5657 75.0434 75.6765 73.1059C81.2685 63.3525 86.4743 54.2727 87.2639 42.0678L87.2739 41.9127L87.1943 41.7793C86.3191 40.3126 86.1585 38.9796 86.4549 37.7193C86.7563 36.438 87.5409 35.1863 88.6413 33.9249L89.0976 33.4018L88.4569 33.1347C88.0529 32.9663 87.8356 32.6971 87.7545 32.2573C87.6655 31.7745 87.7421 31.0745 88.0361 30.0975C88.3802 29.159 88.75 28.4189 89.5755 27.9697C90.4265 27.5067 91.8687 27.2966 94.5047 27.7593L94.5057 27.7594L105.036 29.5854C106.379 29.9012 107.615 30.5041 108.362 31.4946C109.092 32.4613 109.425 33.8884 108.784 36.0187C108.689 36.2824 108.568 36.3636 108.458 36.4059C108.303 36.4659 108.108 36.4719 107.807 36.4719H107.083L107.339 37.1488C107.975 38.8297 108.185 40.3202 107.969 41.6258C107.755 42.9212 107.116 44.0748 105.976 45.0836L105.851 45.1936L105.817 45.3561C104.875 49.8821 104.495 52.6813 104.448 57.3617L104.448 57.3635C104.401 64.4716 104.966 71.532 106.094 78.4974C106.208 79.2031 106.318 79.8793 106.424 80.5314C107.544 87.4218 108.227 91.6203 108.057 99.4103C107.683 113.609 105.256 127.287 100.406 140.401Z" fill="white" stroke="#F7B2B5"/>
</g>
<path d="M77.7158 90.1595C77.7158 91.7392 76.5351 92.924 75.3544 92.924C74.1737 92.924 73.3865 91.3443 73.7801 89.7645C73.7801 88.1848 74.9608 87 76.1415 87C76.9287 87 77.7158 88.5797 77.7158 90.1595Z" fill="#3F3F5B"/>
<path d="M103.716 94.1595C103.716 95.7392 102.535 96.924 101.354 96.924C100.174 96.924 99.3865 95.3443 99.7801 93.7645C99.7801 92.1848 100.961 91 102.142 91C102.929 91.3949 103.716 92.5797 103.716 94.1595Z" fill="#3F3F5B"/>
<path d="M97.5621 103.23C99.2912 106.811 93.9275 115.494 83.3433 113.771C72.7592 112.047 73.1356 101.168 75.0861 98.9724C78.1005 96.54 82.9217 100.425 86.6677 101.135C90.7905 101.541 95.8663 99.311 97.5621 103.23Z" fill="#3F3F5B"/>
<path d="M82.1816 104.446C79.6437 105.561 77.3829 107.385 76.4299 110.02C77.638 111.845 79.91 113.433 83.3457 113.771C90.8709 114.852 95.7693 110.9 97.5424 106.98C96.545 106.541 95.9243 105.798 94.9601 105.021C91.0034 102.926 86.1935 102.453 82.1816 104.446Z" fill="#FF2936"/>
<defs>
<filter id="filter0_d" x="-41.3477" y="19.6523" width="182.489" height="174.526" filterUnits="userSpaceOnUse" color-interpolation-filters="sRGB">
<feFlood flood-opacity="0" result="BackgroundImageFix"/>
<feColorMatrix in="SourceAlpha" type="matrix" values="0 0 0 0 0 0 0 0 0 0 0 0 0 0 0 0 0 0 127 0"/>
<feOffset/>
<feGaussianBlur stdDeviation="15"/>
<feColorMatrix type="matrix" values="0 0 0 0 0 0 0 0 0 0 0 0 0 0 0 0 0 0 0.35 0"/>
<feBlend mode="normal" in2="BackgroundImageFix" result="effect1_dropShadow"/>
<feBlend mode="normal" in="SourceGraphic" in2="effect1_dropShadow" result="shape"/>
</filter>
<filter id="filter1_d" x="-2.27344" y="-2.27344" width="196.065" height="161.468" filterUnits="userSpaceOnUse" color-interpolation-filters="sRGB">
<feFlood flood-opacity="0" result="BackgroundImageFix"/>
<feColorMatrix in="SourceAlpha" type="matrix" values="0 0 0 0 0 0 0 0 0 0 0 0 0 0 0 0 0 0 127 0"/>
<feOffset/>
<feGaussianBlur stdDeviation="15"/>
<feColorMatrix type="matrix" values="0 0 0 0 0 0 0 0 0 0 0 0 0 0 0 0 0 0 0.35 0"/>
<feBlend mode="normal" in2="BackgroundImageFix" result="effect1_dropShadow"/>
<feBlend mode="normal" in="SourceGraphic" in2="effect1_dropShadow" result="shape"/>
</filter>
<filter id="filter2_d" x="6.69824" y="-1.30176" width="170.245" height="169.567" filterUnits="userSpaceOnUse" color-interpolation-filters="sRGB">
<feFlood flood-opacity="0" result="BackgroundImageFix"/>
<feColorMatrix in="SourceAlpha" type="matrix" values="0 0 0 0 0 0 0 0 0 0 0 0 0 0 0 0 0 0 127 0"/>
<feOffset/>
<feGaussianBlur stdDeviation="15"/>
<feColorMatrix type="matrix" values="0 0 0 0 0 0 0 0 0 0 0 0 0 0 0 0 0 0 0.35 0"/>
<feBlend mode="normal" in2="BackgroundImageFix" result="effect1_dropShadow"/>
<feBlend mode="normal" in="SourceGraphic" in2="effect1_dropShadow" result="shape"/>
</filter>
<filter id="filter3_d" x="69.7246" y="30.7246" width="107.316" height="123.005" filterUnits="userSpaceOnUse" color-interpolation-filters="sRGB">
<feFlood flood-opacity="0" result="BackgroundImageFix"/>
<feColorMatrix in="SourceAlpha" type="matrix" values="0 0 0 0 0 0 0 0 0 0 0 0 0 0 0 0 0 0 127 0"/>
<feOffset/>
<feGaussianBlur stdDeviation="15"/>
<feColorMatrix type="matrix" values="0 0 0 0 0 0 0 0 0 0 0 0 0 0 0 0 0 0 0.35 0"/>
<feBlend mode="normal" in2="BackgroundImageFix" result="effect1_dropShadow"/>
<feBlend mode="normal" in="SourceGraphic" in2="effect1_dropShadow" result="shape"/>
</filter>
<filter id="filter4_d" x="15.3867" y="32.5391" width="159.71" height="152.154" filterUnits="userSpaceOnUse" color-interpolation-filters="sRGB">
<feFlood flood-opacity="0" result="BackgroundImageFix"/>
<feColorMatrix in="SourceAlpha" type="matrix" values="0 0 0 0 0 0 0 0 0 0 0 0 0 0 0 0 0 0 127 0"/>
<feOffset/>
<feGaussianBlur stdDeviation="15"/>
<feColorMatrix type="matrix" values="0 0 0 0 0 0 0 0 0 0 0 0 0 0 0 0 0 0 0.35 0"/>
<feBlend mode="normal" in2="BackgroundImageFix" result="effect1_dropShadow"/>
<feBlend mode="normal" in="SourceGraphic" in2="effect1_dropShadow" result="shape"/>
</filter>
<filter id="filter5_d" x="34.6631" y="45.6621" width="168.679" height="181.488" filterUnits="userSpaceOnUse" color-interpolation-filters="sRGB">
<feFlood flood-opacity="0" result="BackgroundImageFix"/>
<feColorMatrix in="SourceAlpha" type="matrix" values="0 0 0 0 0 0 0 0 0 0 0 0 0 0 0 0 0 0 127 0"/>
<feOffset/>
<feGaussianBlur stdDeviation="15"/>
<feColorMatrix type="matrix" values="0 0 0 0 0 0 0 0 0 0 0 0 0 0 0 0 0 0 0.35 0"/>
<feBlend mode="normal" in2="BackgroundImageFix" result="effect1_dropShadow"/>
<feBlend mode="normal" in="SourceGraphic" in2="effect1_dropShadow" result="shape"/>
</filter>
<filter id="filter6_d" x="-22.2861" y="63.7148" width="186" height="155.646" filterUnits="userSpaceOnUse" color-interpolation-filters="sRGB">
<feFlood flood-opacity="0" result="BackgroundImageFix"/>
<feColorMatrix in="SourceAlpha" type="matrix" values="0 0 0 0 0 0 0 0 0 0 0 0 0 0 0 0 0 0 127 0"/>
<feOffset/>
<feGaussianBlur stdDeviation="15"/>
<feColorMatrix type="matrix" values="0 0 0 0 0 0 0 0 0 0 0 0 0 0 0 0 0 0 0.35 0"/>
<feBlend mode="normal" in2="BackgroundImageFix" result="effect1_dropShadow"/>
<feBlend mode="normal" in="SourceGraphic" in2="effect1_dropShadow" result="shape"/>
</filter>
<filter id="filter7_d" x="-2.25" y="83.2051" width="160.416" height="130.157" filterUnits="userSpaceOnUse" color-interpolation-filters="sRGB">
<feFlood flood-opacity="0" result="BackgroundImageFix"/>
<feColorMatrix in="SourceAlpha" type="matrix" values="0 0 0 0 0 0 0 0 0 0 0 0 0 0 0 0 0 0 127 0"/>
<feOffset/>
<feGaussianBlur stdDeviation="15"/>
<feColorMatrix type="matrix" values="0 0 0 0 0 0 0 0 0 0 0 0 0 0 0 0 0 0 0.35 0"/>
<feBlend mode="normal" in2="BackgroundImageFix" result="effect1_dropShadow"/>
<feBlend mode="normal" in="SourceGraphic" in2="effect1_dropShadow" result="shape"/>
</filter>
<filter id="filter8_d" x="-44.3525" y="53.6475" width="142.688" height="140.213" filterUnits="userSpaceOnUse" color-interpolation-filters="sRGB">
<feFlood flood-opacity="0" result="BackgroundImageFix"/>
<feColorMatrix in="SourceAlpha" type="matrix" values="0 0 0 0 0 0 0 0 0 0 0 0 0 0 0 0 0 0 127 0"/>
<feOffset/>
<feGaussianBlur stdDeviation="15"/>
<feColorMatrix type="matrix" values="0 0 0 0 0 0 0 0 0 0 0 0 0 0 0 0 0 0 0.35 0"/>
<feBlend mode="normal" in2="BackgroundImageFix" result="effect1_dropShadow"/>
<feBlend mode="normal" in="SourceGraphic" in2="effect1_dropShadow" result="shape"/>
</filter>
<filter id="filter9_d" x="79.6494" y="34.6494" width="139.278" height="142.921" filterUnits="userSpaceOnUse" color-interpolation-filters="sRGB">
<feFlood flood-opacity="0" result="BackgroundImageFix"/>
<feColorMatrix in="SourceAlpha" type="matrix" values="0 0 0 0 0 0 0 0 0 0 0 0 0 0 0 0 0 0 127 0"/>
<feOffset/>
<feGaussianBlur stdDeviation="15"/>
<feColorMatrix type="matrix" values="0 0 0 0 0 0 0 0 0 0 0 0 0 0 0 0 0 0 0.35 0"/>
<feBlend mode="normal" in2="BackgroundImageFix" result="effect1_dropShadow"/>
<feBlend mode="normal" in="SourceGraphic" in2="effect1_dropShadow" result="shape"/>
</filter>
<filter id="filter10_d" x="34.6465" y="69.6465" width="180.614" height="180.614" filterUnits="userSpaceOnUse" color-interpolation-filters="sRGB">
<feFlood flood-opacity="0" result="BackgroundImageFix"/>
<feColorMatrix in="SourceAlpha" type="matrix" values="0 0 0 0 0 0 0 0 0 0 0 0 0 0 0 0 0 0 127 0"/>
<feOffset/>
<feGaussianBlur stdDeviation="15"/>
<feColorMatrix type="matrix" values="0 0 0 0 0 0 0 0 0 0 0 0 0 0 0 0 0 0 0.35 0"/>
<feBlend mode="normal" in2="BackgroundImageFix" result="effect1_dropShadow"/>
<feBlend mode="normal" in="SourceGraphic" in2="effect1_dropShadow" result="shape"/>
</filter>
<filter id="filter11_d" x="32.0859" y="7" width="97.5385" height="185" filterUnits="userSpaceOnUse" color-interpolation-filters="sRGB">
<feFlood flood-opacity="0" result="BackgroundImageFix"/>
<feColorMatrix in="SourceAlpha" type="matrix" values="0 0 0 0 0 0 0 0 0 0 0 0 0 0 0 0 0 0 127 0"/>
<feOffset/>
<feGaussianBlur stdDeviation="10"/>
<feColorMatrix type="matrix" values="0 0 0 0 0 0 0 0 0 0 0 0 0 0 0 0 0 0 0.11 0"/>
<feBlend mode="normal" in2="BackgroundImageFix" result="effect1_dropShadow"/>
<feBlend mode="normal" in="SourceGraphic" in2="effect1_dropShadow" result="shape"/>
</filter>
<filter id="filter12_d" x="32.5" y="0" width="97.1245" height="184" filterUnits="userSpaceOnUse" color-interpolation-filters="sRGB">
<feFlood flood-opacity="0" result="BackgroundImageFix"/>
<feColorMatrix in="SourceAlpha" type="matrix" values="0 0 0 0 0 0 0 0 0 0 0 0 0 0 0 0 0 0 127 0"/>
<feOffset dy="-7"/>
<feGaussianBlur stdDeviation="10"/>
<feColorMatrix type="matrix" values="0 0 0 0 0 0 0 0 0 0 0 0 0 0 0 0 0 0 0.12 0"/>
<feBlend mode="normal" in2="BackgroundImageFix" result="effect1_dropShadow"/>
<feBlend mode="normal" in="SourceGraphic" in2="effect1_dropShadow" result="shape"/>
</filter>
</defs>
</svg>
