<svg width="333" height="533" viewBox="0 0 333 533" fill="none" xmlns="http://www.w3.org/2000/svg">
<g filter="url(#filter0_i)">
<g filter="url(#filter1_d)">
<path d="M54.5324 51.0819C-5.48699 -0.727526 -92.3423 32.3691 -128.268 55.3936C-139.167 71.993 -161.785 106.069 -165.057 109.578C-169.146 113.964 -156.401 142.931 -131.932 185.941C-107.463 228.952 -76.5142 285.943 -69.7869 296.3C-63.0596 306.656 -23.6855 383.294 -5.08638 411.927C13.5127 440.56 82.7645 547.173 96.0218 551.56C106.628 555.069 158.802 542.284 183.564 535.453C291.328 467.253 512.481 329.628 534.972 324.732C563.086 318.612 525.131 225.465 483.199 207.643C441.268 189.821 346.241 159.69 257.725 205.007C193.731 237.77 129.557 115.844 54.5324 51.0819Z" fill="#DE0B12"/>
</g>
<g filter="url(#filter2_d)">
<path d="M579.223 31.5504C651.483 8.24814 787.989 21.6996 811.05 55.2971C814.454 73.9496 754.993 124 756.566 128.302C758.531 133.679 736.473 154.435 698.835 183.195C661.197 211.954 612.624 250.609 602.824 257.224C593.025 263.839 529.684 316.653 502.592 334.941C475.499 353.23 374.624 421.324 361.3 420.262C350.641 419.413 -3.35279 301.316 -91.4348 239.648C-160.933 139.628 -120.425 82.4285 -67.9085 74.5307C28.9527 59.964 81.6923 -1.58241 148.558 -26.0981C189.491 -41.1061 287.189 -17.4409 348.272 55.2971C392.434 107.884 488.898 60.6782 579.223 31.5504Z" fill="#F40009"/>
</g>
<g filter="url(#filter3_d)">
<path d="M-4.64187 -32.2878C-80.7115 -69.5584 -161.398 -12.0054 -192.232 21.4299C-198.973 41.4919 -213.059 82.7414 -215.483 87.2427C-218.513 92.8694 -197.473 119.318 -160.507 157.093C-123.541 194.868 -76.081 245.32 -66.3172 254.19C-56.5534 263.061 4.95089 331.51 31.9449 356.035C58.9389 380.561 159.449 471.879 174.332 472.831C186.238 473.593 236.637 446.342 260.348 432.621C353.078 333.219 544.01 131.636 565.904 120.523C593.271 106.632 540.284 52.3527 509.495 36.9772C465.971 15.2426 326.124 1.13112 247.047 71.738C189.877 122.784 90.4451 14.3004 -4.64187 -32.2878Z" fill="#F8222A"/>
</g>
<g filter="url(#filter4_d)">
<path d="M605.434 172.438C677.694 149.136 741.88 210.505 764.94 244.103C768.345 262.755 775.546 301.136 777.119 305.438C779.084 310.815 757.027 331.571 719.388 360.331C681.75 389.09 633.177 427.745 623.377 434.36C613.578 440.975 550.237 493.789 523.145 512.077C496.053 530.366 395.177 598.46 381.853 597.398C371.194 596.549 17.2004 478.452 -70.8816 416.784C-140.38 316.764 -99.872 259.565 -47.3553 251.667C49.5059 237.1 102.245 175.554 169.111 151.038C210.044 136.03 307.743 159.695 368.826 232.433C412.987 285.02 515.109 201.566 605.434 172.438Z" fill="#F40009"/>
</g>
<g filter="url(#filter5_d)">
<path d="M29.8261 104.68C-25.7686 48.1419 -115.09 73.9763 -152.802 93.9608C-165.032 109.601 -190.382 141.687 -193.932 144.913C-198.369 148.946 -188.038 178.848 -167.169 223.702C-146.301 268.555 -120.118 327.868 -114.26 338.737C-108.402 349.606 -75.4311 429.181 -59.2354 459.231C-43.0398 489.281 17.2632 601.168 30.1222 606.627C40.4095 610.994 93.483 602.544 118.734 597.773C231.786 538.689 463.596 419.762 486.425 416.732C514.961 412.945 484.759 317.041 444.41 295.844C404.062 274.648 311.782 236.828 219.802 274.699C153.303 302.078 99.3195 175.353 29.8261 104.68Z" fill="#DE0B12"/>
</g>
<g filter="url(#filter6_d)">
<path d="M302.236 363.495C223.899 376.455 193.729 464.248 188.436 506.524C194.231 525.492 205.972 564.616 206.577 569.368C207.333 575.308 237.798 584.033 286.584 592.732C335.37 601.431 399.07 614.089 411.353 615.543C423.635 616.997 507.857 635.74 541.815 639.759C575.773 643.778 702.212 658.742 714.083 651.372C723.579 645.475 747.165 597.271 757.771 573.906C774.315 447.643 810.063 190.022 820.704 169.635C834.006 144.151 737.984 113.773 697.399 134.565C656.815 155.357 572.737 209.029 550.911 305.902C535.131 375.938 400.157 347.295 302.236 363.495Z" fill="#DE0B12"/>
</g>
<g filter="url(#filter7_d)">
<path d="M440.627 80.9625C362.489 67.2807 304.97 140.221 285.977 178.401C285.157 198.235 283.266 239.074 282.262 243.763C281.007 249.624 306.836 267.946 349.944 292.307C393.052 316.668 448.907 349.704 460.004 355.141C471.101 360.579 544.287 406.154 574.967 421.187C605.647 436.22 719.88 492.196 733.512 489.162C744.417 486.736 782.617 449.01 800.354 430.45C857.771 316.665 976.799 85.1597 993.583 69.4247C1014.56 49.7559 934.107 -10.713 888.963 -4.50416C843.819 1.7047 746.784 24.5771 694.122 108.855C656.049 169.785 538.3 98.0647 440.627 80.9625Z" fill="#DE0B12"/>
</g>
<g filter="url(#filter8_d)">
<path d="M96.4428 685.77C139.927 747.895 99.9091 827.097 74.4643 858.932C57.5865 867.64 22.9153 885.743 19.2532 888.503C14.6756 891.952 -11.6722 876.981 -50.2505 849.486C-88.8288 821.992 -140.092 786.959 -149.3 779.546C-158.507 772.132 -227.662 727.154 -253.119 706.657C-278.575 686.16 -373.361 609.841 -376.244 596.818C-378.551 586.399 -369.014 214.082 -335.705 111.993C-260.204 16.4112 -193.531 38.3201 -170.589 86.1161C-128.273 174.271 -53.854 206.578 -10.7857 263.201C15.5797 297.864 21.5035 398.006 -30.3178 477.575C-67.7828 535.1 42.0869 608.114 96.4428 685.77Z" fill="#F40009"/>
</g>
<g filter="url(#filter9_d)">
<path d="M737.531 36.6871C795.703 -11.9974 878.193 20.9095 912.166 43.4486C922.323 59.4815 943.405 92.3982 946.477 95.801C950.316 100.055 937.682 127.575 913.623 168.357C889.565 209.139 859.095 263.199 852.503 273.007C845.912 282.815 807.082 355.544 788.858 382.66C770.635 409.776 702.781 510.741 690.042 514.745C679.851 517.949 307.66 540.94 202.928 516.705C101.005 449.923 117.041 381.677 162.713 354.68C246.949 304.888 272.682 228.027 325.402 180.237C357.676 150.981 457.044 136.351 540.929 180.969C601.575 213.227 664.816 97.5427 737.531 36.6871Z" fill="#F40009"/>
</g>
<g filter="url(#filter10_d)">
<path d="M505.669 298.688C577.401 273.721 642.92 333.588 666.713 366.642C670.526 385.211 678.569 423.414 680.235 427.678C682.319 433.008 660.721 454.269 623.723 483.891C586.725 513.513 539.01 553.281 529.358 560.12C519.707 566.96 457.539 621.224 430.854 640.134C404.17 659.044 304.811 729.453 291.467 728.7C280.791 728.097 -75.716 618.223 -165.132 558.611C-236.811 460.228 -197.568 402.107 -145.236 392.996C-48.7161 376.193 2.66067 313.444 68.973 287.388C109.568 271.438 207.764 292.836 270.43 364.14C315.736 415.691 416.004 329.898 505.669 298.688Z" fill="#F40009"/>
</g>
<g filter="url(#filter11_d)">
<path d="M-191.834 170.33C-235.752 104.343 -328.341 112.921 -369.146 125.459C-384.109 138.52 -415.06 165.269 -419.155 167.77C-424.274 170.897 -419.774 202.209 -407.751 250.189C-395.727 298.168 -381.215 361.348 -377.514 373.125C-373.814 384.902 -356.461 469.262 -346.231 501.822C-336.001 534.382 -297.91 655.618 -286.313 663.398C-277.036 669.622 -223.324 671.302 -197.627 671.365C-75.4578 634.591 174.628 561.372 197.618 562.689C226.354 564.335 214.804 464.459 179.184 436.052C143.565 407.645 60.089 353.146 -37.3832 373.046C-107.852 387.433 -136.937 252.813 -191.834 170.33Z" fill="#F8222A"/>
</g>
<g filter="url(#filter12_d)">
<path d="M127.118 356.507C47.7515 354.324 1.364 434.774 -11.909 475.272C-9.84551 494.997 -5.79718 535.642 -6.11142 540.423C-6.50422 546.398 21.7312 560.761 67.9543 578.586C114.177 596.41 174.283 620.96 186.061 624.725C197.839 628.489 276.925 662.919 309.488 673.327C342.051 683.734 463.296 722.488 476.356 717.51C486.804 713.529 519.165 670.692 534.04 649.771C574.403 528.96 658.715 282.838 673.055 264.848C690.98 242.36 602.535 194.263 558.728 206.953C514.92 219.642 422.139 256.335 382.206 347.288C353.335 413.044 226.326 359.237 127.118 356.507Z" fill="#F8222A"/>
</g>
<g filter="url(#filter13_d)">
<path d="M99.8708 115.883C173.05 73.2351 169.682 -25.7223 158.851 -69.87C145.844 -86.5773 119.228 -121.119 116.814 -125.626C113.797 -131.259 80.0925 -128.393 28.128 -118.549C-23.8365 -108.705 -92.1821 -97.1459 -104.984 -93.9334C-117.787 -90.7208 -208.916 -77.4393 -244.31 -68.5575C-279.705 -59.6758 -411.492 -26.6053 -420.521 -14.7534C-427.745 -5.27186 -432.896 51.7271 -434.569 79.0413C-402.954 211.172 -340.435 481.524 -343.278 505.883C-346.831 536.332 -239.502 530.17 -206.954 494.042C-174.406 457.915 -111.015 372.509 -126.163 267.667C-137.115 191.869 8.39683 169.194 99.8708 115.883Z" fill="#DE0B12"/>
</g>
<g filter="url(#filter14_d)">
<path d="M-663.815 693.028C-739.611 721.716 -811.222 659.739 -837.553 625.164C-842.155 605.467 -851.834 564.949 -853.734 560.448C-856.11 554.823 -833.685 531.526 -795.073 498.869C-756.46 466.212 -706.71 422.426 -696.611 414.854C-686.513 407.281 -621.763 347.618 -593.843 326.683C-565.924 305.747 -461.969 227.797 -447.713 228.218C-436.308 228.555 -52.8671 335.527 44.2273 396.547C123.518 499.431 83.3315 562.55 27.773 573.769C-74.6985 594.46 -127.694 662.864 -197.677 692.558C-240.52 710.735 -345.879 690.727 -414.777 616.468C-464.587 562.782 -569.07 657.167 -663.815 693.028Z" fill="#F40009"/>
</g>
<g filter="url(#filter15_d)">
<path d="M105.878 61.7932C185.791 33.6651 201.167 -64.1642 198.866 -109.563C189.249 -128.419 169.634 -167.35 168.114 -172.231C166.215 -178.332 132.577 -181.855 79.6905 -181.957C26.804 -182.06 -42.4921 -183.559 -55.67 -182.811C-68.8481 -182.063 -160.842 -186.154 -197.276 -184.086C-233.709 -182.019 -369.365 -174.319 -380.469 -164.376C-389.352 -156.421 -405.173 -101.406 -411.973 -74.8924C-405.875 60.8319 -395.526 338.128 -402.917 361.519C-412.155 390.758 -305.597 404.888 -266.814 375.524C-228.032 346.16 -149.659 274.194 -144.739 168.37C-141.182 91.8626 5.98775 96.9534 105.878 61.7932Z" fill="#F8222A"/>
</g>
</g>
<defs>
<filter id="filter0_i" x="-853.906" y="-184.676" width="2434.1" height="1073.67" filterUnits="userSpaceOnUse" color-interpolation-filters="sRGB">
<feFlood flood-opacity="0" result="BackgroundImageFix"/>
<feBlend mode="normal" in="SourceGraphic" in2="BackgroundImageFix" result="shape"/>
<feColorMatrix in="SourceAlpha" type="matrix" values="0 0 0 0 0 0 0 0 0 0 0 0 0 0 0 0 0 0 127 0" result="hardAlpha"/>
<feOffset/>
<feGaussianBlur stdDeviation="10"/>
<feComposite in2="hardAlpha" operator="arithmetic" k2="-1" k3="1"/>
<feColorMatrix type="matrix" values="0 0 0 0 0 0 0 0 0 0 0 0 0 0 0 0 0 0 0.45 0"/>
<feBlend mode="normal" in2="shape" result="effect1_innerShadow"/>
</filter>
<filter id="filter1_d" x="-195.811" y="-6.42651" width="770.467" height="588.585" filterUnits="userSpaceOnUse" color-interpolation-filters="sRGB">
<feFlood flood-opacity="0" result="BackgroundImageFix"/>
<feColorMatrix in="SourceAlpha" type="matrix" values="0 0 0 0 0 0 0 0 0 0 0 0 0 0 0 0 0 0 127 0"/>
<feOffset/>
<feGaussianBlur stdDeviation="15"/>
<feColorMatrix type="matrix" values="0 0 0 0 0 0 0 0 0 0 0 0 0 0 0 0 0 0 0.35 0"/>
<feBlend mode="normal" in2="BackgroundImageFix" result="effect1_dropShadow"/>
<feBlend mode="normal" in="SourceGraphic" in2="effect1_dropShadow" result="shape"/>
</filter>
<filter id="filter2_d" x="-158.385" y="-60.3931" width="999.576" height="510.668" filterUnits="userSpaceOnUse" color-interpolation-filters="sRGB">
<feFlood flood-opacity="0" result="BackgroundImageFix"/>
<feColorMatrix in="SourceAlpha" type="matrix" values="0 0 0 0 0 0 0 0 0 0 0 0 0 0 0 0 0 0 127 0"/>
<feOffset/>
<feGaussianBlur stdDeviation="15"/>
<feColorMatrix type="matrix" values="0 0 0 0 0 0 0 0 0 0 0 0 0 0 0 0 0 0 0.35 0"/>
<feBlend mode="normal" in2="BackgroundImageFix" result="effect1_dropShadow"/>
<feBlend mode="normal" in="SourceGraphic" in2="effect1_dropShadow" result="shape"/>
</filter>
<filter id="filter3_d" x="-245.771" y="-74.4032" width="849.279" height="577.25" filterUnits="userSpaceOnUse" color-interpolation-filters="sRGB">
<feFlood flood-opacity="0" result="BackgroundImageFix"/>
<feColorMatrix in="SourceAlpha" type="matrix" values="0 0 0 0 0 0 0 0 0 0 0 0 0 0 0 0 0 0 127 0"/>
<feOffset/>
<feGaussianBlur stdDeviation="15"/>
<feColorMatrix type="matrix" values="0 0 0 0 0 0 0 0 0 0 0 0 0 0 0 0 0 0 0.35 0"/>
<feBlend mode="normal" in2="BackgroundImageFix" result="effect1_dropShadow"/>
<feBlend mode="normal" in="SourceGraphic" in2="effect1_dropShadow" result="shape"/>
</filter>
<filter id="filter4_d" x="-137.832" y="116.743" width="945.072" height="510.668" filterUnits="userSpaceOnUse" color-interpolation-filters="sRGB">
<feFlood flood-opacity="0" result="BackgroundImageFix"/>
<feColorMatrix in="SourceAlpha" type="matrix" values="0 0 0 0 0 0 0 0 0 0 0 0 0 0 0 0 0 0 127 0"/>
<feOffset/>
<feGaussianBlur stdDeviation="15"/>
<feColorMatrix type="matrix" values="0 0 0 0 0 0 0 0 0 0 0 0 0 0 0 0 0 0 0.35 0"/>
<feBlend mode="normal" in2="BackgroundImageFix" result="effect1_dropShadow"/>
<feBlend mode="normal" in="SourceGraphic" in2="effect1_dropShadow" result="shape"/>
</filter>
<filter id="filter5_d" x="-224.947" y="40.3544" width="752.598" height="597.488" filterUnits="userSpaceOnUse" color-interpolation-filters="sRGB">
<feFlood flood-opacity="0" result="BackgroundImageFix"/>
<feColorMatrix in="SourceAlpha" type="matrix" values="0 0 0 0 0 0 0 0 0 0 0 0 0 0 0 0 0 0 127 0"/>
<feOffset/>
<feGaussianBlur stdDeviation="15"/>
<feColorMatrix type="matrix" values="0 0 0 0 0 0 0 0 0 0 0 0 0 0 0 0 0 0 0.35 0"/>
<feBlend mode="normal" in2="BackgroundImageFix" result="effect1_dropShadow"/>
<feBlend mode="normal" in="SourceGraphic" in2="effect1_dropShadow" result="shape"/>
</filter>
<filter id="filter6_d" x="158.437" y="97.6559" width="693.521" height="585.727" filterUnits="userSpaceOnUse" color-interpolation-filters="sRGB">
<feFlood flood-opacity="0" result="BackgroundImageFix"/>
<feColorMatrix in="SourceAlpha" type="matrix" values="0 0 0 0 0 0 0 0 0 0 0 0 0 0 0 0 0 0 127 0"/>
<feOffset/>
<feGaussianBlur stdDeviation="15"/>
<feColorMatrix type="matrix" values="0 0 0 0 0 0 0 0 0 0 0 0 0 0 0 0 0 0 0.35 0"/>
<feBlend mode="normal" in2="BackgroundImageFix" result="effect1_dropShadow"/>
<feBlend mode="normal" in="SourceGraphic" in2="effect1_dropShadow" result="shape"/>
</filter>
<filter id="filter7_d" x="252.219" y="-34.9493" width="774.789" height="554.23" filterUnits="userSpaceOnUse" color-interpolation-filters="sRGB">
<feFlood flood-opacity="0" result="BackgroundImageFix"/>
<feColorMatrix in="SourceAlpha" type="matrix" values="0 0 0 0 0 0 0 0 0 0 0 0 0 0 0 0 0 0 127 0"/>
<feOffset/>
<feGaussianBlur stdDeviation="15"/>
<feColorMatrix type="matrix" values="0 0 0 0 0 0 0 0 0 0 0 0 0 0 0 0 0 0 0.35 0"/>
<feBlend mode="normal" in2="BackgroundImageFix" result="effect1_dropShadow"/>
<feBlend mode="normal" in="SourceGraphic" in2="effect1_dropShadow" result="shape"/>
</filter>
<filter id="filter8_d" x="-406.571" y="15.2776" width="552.321" height="903.715" filterUnits="userSpaceOnUse" color-interpolation-filters="sRGB">
<feFlood flood-opacity="0" result="BackgroundImageFix"/>
<feColorMatrix in="SourceAlpha" type="matrix" values="0 0 0 0 0 0 0 0 0 0 0 0 0 0 0 0 0 0 127 0"/>
<feOffset/>
<feGaussianBlur stdDeviation="15"/>
<feColorMatrix type="matrix" values="0 0 0 0 0 0 0 0 0 0 0 0 0 0 0 0 0 0 0.35 0"/>
<feBlend mode="normal" in2="BackgroundImageFix" result="effect1_dropShadow"/>
<feBlend mode="normal" in="SourceGraphic" in2="effect1_dropShadow" result="shape"/>
</filter>
<filter id="filter9_d" x="97.0947" y="-18.5139" width="880.061" height="576.195" filterUnits="userSpaceOnUse" color-interpolation-filters="sRGB">
<feFlood flood-opacity="0" result="BackgroundImageFix"/>
<feColorMatrix in="SourceAlpha" type="matrix" values="0 0 0 0 0 0 0 0 0 0 0 0 0 0 0 0 0 0 127 0"/>
<feOffset/>
<feGaussianBlur stdDeviation="15"/>
<feColorMatrix type="matrix" values="0 0 0 0 0 0 0 0 0 0 0 0 0 0 0 0 0 0 0.35 0"/>
<feBlend mode="normal" in2="BackgroundImageFix" result="effect1_dropShadow"/>
<feBlend mode="normal" in="SourceGraphic" in2="effect1_dropShadow" result="shape"/>
</filter>
<filter id="filter10_d" x="-234.186" y="252.395" width="944.56" height="506.31" filterUnits="userSpaceOnUse" color-interpolation-filters="sRGB">
<feFlood flood-opacity="0" result="BackgroundImageFix"/>
<feColorMatrix in="SourceAlpha" type="matrix" values="0 0 0 0 0 0 0 0 0 0 0 0 0 0 0 0 0 0 127 0"/>
<feOffset/>
<feGaussianBlur stdDeviation="15"/>
<feColorMatrix type="matrix" values="0 0 0 0 0 0 0 0 0 0 0 0 0 0 0 0 0 0 0.35 0"/>
<feBlend mode="normal" in2="BackgroundImageFix" result="effect1_dropShadow"/>
<feBlend mode="normal" in="SourceGraphic" in2="effect1_dropShadow" result="shape"/>
</filter>
<filter id="filter11_d" x="-451.24" y="86.7447" width="695.059" height="614.62" filterUnits="userSpaceOnUse" color-interpolation-filters="sRGB">
<feFlood flood-opacity="0" result="BackgroundImageFix"/>
<feColorMatrix in="SourceAlpha" type="matrix" values="0 0 0 0 0 0 0 0 0 0 0 0 0 0 0 0 0 0 127 0"/>
<feOffset/>
<feGaussianBlur stdDeviation="15"/>
<feColorMatrix type="matrix" values="0 0 0 0 0 0 0 0 0 0 0 0 0 0 0 0 0 0 0.35 0"/>
<feBlend mode="normal" in2="BackgroundImageFix" result="effect1_dropShadow"/>
<feBlend mode="normal" in="SourceGraphic" in2="effect1_dropShadow" result="shape"/>
</filter>
<filter id="filter12_d" x="-41.9089" y="174.855" width="747.329" height="573.095" filterUnits="userSpaceOnUse" color-interpolation-filters="sRGB">
<feFlood flood-opacity="0" result="BackgroundImageFix"/>
<feColorMatrix in="SourceAlpha" type="matrix" values="0 0 0 0 0 0 0 0 0 0 0 0 0 0 0 0 0 0 127 0"/>
<feOffset/>
<feGaussianBlur stdDeviation="15"/>
<feColorMatrix type="matrix" values="0 0 0 0 0 0 0 0 0 0 0 0 0 0 0 0 0 0 0.35 0"/>
<feBlend mode="normal" in2="BackgroundImageFix" result="effect1_dropShadow"/>
<feBlend mode="normal" in="SourceGraphic" in2="effect1_dropShadow" result="shape"/>
</filter>
<filter id="filter13_d" x="-464.569" y="-158.484" width="659.288" height="713.868" filterUnits="userSpaceOnUse" color-interpolation-filters="sRGB">
<feFlood flood-opacity="0" result="BackgroundImageFix"/>
<feColorMatrix in="SourceAlpha" type="matrix" values="0 0 0 0 0 0 0 0 0 0 0 0 0 0 0 0 0 0 127 0"/>
<feOffset/>
<feGaussianBlur stdDeviation="15"/>
<feColorMatrix type="matrix" values="0 0 0 0 0 0 0 0 0 0 0 0 0 0 0 0 0 0 0.35 0"/>
<feBlend mode="normal" in2="BackgroundImageFix" result="effect1_dropShadow"/>
<feBlend mode="normal" in="SourceGraphic" in2="effect1_dropShadow" result="shape"/>
</filter>
<filter id="filter14_d" x="-883.906" y="198.216" width="1002.6" height="532.179" filterUnits="userSpaceOnUse" color-interpolation-filters="sRGB">
<feFlood flood-opacity="0" result="BackgroundImageFix"/>
<feColorMatrix in="SourceAlpha" type="matrix" values="0 0 0 0 0 0 0 0 0 0 0 0 0 0 0 0 0 0 127 0"/>
<feOffset/>
<feGaussianBlur stdDeviation="15"/>
<feColorMatrix type="matrix" values="0 0 0 0 0 0 0 0 0 0 0 0 0 0 0 0 0 0 0.35 0"/>
<feBlend mode="normal" in2="BackgroundImageFix" result="effect1_dropShadow"/>
<feBlend mode="normal" in="SourceGraphic" in2="effect1_dropShadow" result="shape"/>
</filter>
<filter id="filter15_d" x="-441.973" y="-214.676" width="671.052" height="636.395" filterUnits="userSpaceOnUse" color-interpolation-filters="sRGB">
<feFlood flood-opacity="0" result="BackgroundImageFix"/>
<feColorMatrix in="SourceAlpha" type="matrix" values="0 0 0 0 0 0 0 0 0 0 0 0 0 0 0 0 0 0 127 0"/>
<feOffset/>
<feGaussianBlur stdDeviation="15"/>
<feColorMatrix type="matrix" values="0 0 0 0 0 0 0 0 0 0 0 0 0 0 0 0 0 0 0.35 0"/>
<feBlend mode="normal" in2="BackgroundImageFix" result="effect1_dropShadow"/>
<feBlend mode="normal" in="SourceGraphic" in2="effect1_dropShadow" result="shape"/>
</filter>
</defs>
</svg>
