<svg width="138" height="850" viewBox="0 0 138 850" fill="none" xmlns="http://www.w3.org/2000/svg">
<g filter="url(#filter0_i)">
<mask id="mask0" mask-type="alpha" maskUnits="userSpaceOnUse" x="-336" y="0" width="474" height="850">
<path d="M-46.6217 72.4442C-84.0076 37.46 -173.535 20.3574 -213.626 16.1791C-240.168 56.2151 -293.927 138.824 -296.626 148.971C-299.999 161.654 -320.41 334.883 -319.789 347.368C-319.167 359.852 -274.539 673.021 -225.002 793.206C-175.464 913.391 -65.5003 789.27 -14.6728 714.149C36.1546 639.029 104.644 637.121 120.395 541.219C136.146 445.317 31.3112 400.975 -2.31503 369.108C-25.9744 346.686 -58.1066 304.302 -61.5128 235.887C-66.1356 143.037 0.110624 116.175 -46.6217 72.4442Z" fill="#C4C4C4"/>
</mask>
<g mask="url(#mask0)">
<g filter="url(#filter1_d)">
<path d="M-266.616 351.943C-328.34 351.396 -363.147 414.605 -372.835 446.278C-370.924 461.581 -367.146 493.117 -367.316 496.837C-367.529 501.488 -345.359 512.243 -309.154 525.428C-272.948 538.614 -225.848 556.825 -216.635 559.581C-207.421 562.337 -145.414 587.953 -119.942 595.571C-94.4697 603.189 0.373907 631.555 10.448 627.497C18.5072 624.251 264.228 446.673 317.494 377.433C346.991 282.937 301.622 248.375 258.968 254.992C180.295 267.196 124.38 232.229 66.5433 229.431C31.1369 227.718 -38.8574 269.798 -68.4841 341.077C-89.9032 392.61 -189.461 352.626 -266.616 351.943Z" fill="#F40009"/>
<path d="M-266.616 351.943C-328.34 351.396 -363.147 414.605 -372.835 446.278C-370.924 461.581 -367.146 493.117 -367.316 496.837C-367.529 501.488 -345.359 512.243 -309.154 525.428C-272.948 538.614 -225.848 556.825 -216.635 559.581C-207.421 562.337 -145.414 587.953 -119.942 595.571C-94.4697 603.189 0.373907 631.555 10.448 627.497C18.5072 624.251 264.228 446.673 317.494 377.433C346.991 282.937 301.622 248.375 258.968 254.992C180.295 267.196 124.38 232.229 66.5433 229.431C31.1369 227.718 -38.8574 269.798 -68.4841 341.077C-89.9032 392.61 -189.461 352.626 -266.616 351.943Z" stroke="#FF3A41"/>
</g>
<g filter="url(#filter2_d)">
<path d="M-171.824 506.803C-184.256 567.264 -128.94 613.6 -99.7279 629.21C-84.3437 630.285 -52.6708 632.655 -49.0528 633.539C-44.5304 634.644 -29.7039 614.962 -9.78813 581.977C10.1276 548.992 37.0751 506.284 41.5546 497.774C46.0341 489.265 83.1203 433.357 95.5048 409.83C107.889 386.304 154.002 298.705 151.961 288.038C150.329 279.504 23.4361 4.16607 -34.241 -61.4452C-121.281 -108.601 -163.938 -70.7432 -165.666 -27.6128C-168.853 51.9365 -213.94 100.065 -227.832 156.278C-236.336 190.691 -208.534 267.482 -144.301 310.291C-97.8624 341.24 -156.284 431.226 -171.824 506.803Z" fill="#F40009"/>
<path d="M-171.824 506.803C-184.256 567.264 -128.94 613.6 -99.7279 629.21C-84.3437 630.285 -52.6708 632.655 -49.0528 633.539C-44.5304 634.644 -29.7039 614.962 -9.78813 581.977C10.1276 548.992 37.0751 506.284 41.5546 497.774C46.0341 489.265 83.1203 433.357 95.5048 409.83C107.889 386.304 154.002 298.705 151.961 288.038C150.329 279.504 23.4361 4.16607 -34.241 -61.4452C-121.281 -108.601 -163.938 -70.7432 -165.666 -27.6128C-168.853 51.9365 -213.94 100.065 -227.832 156.278C-236.336 190.691 -208.534 267.482 -144.301 310.291C-97.8624 341.24 -156.284 431.226 -171.824 506.803Z" stroke="#FF3A41"/>
</g>
<g filter="url(#filter3_d)">
<path d="M-118.879 174.408C-158.182 123.31 -127.305 54.3474 -106.953 26.2536C-92.9716 18.1731 -64.2593 1.38896 -61.2595 -1.10432C-57.5097 -4.22092 -34.5754 7.45851 -0.778824 29.2998C33.0177 51.1411 77.8684 78.8859 85.968 84.8231C94.0675 90.7603 154.483 126.249 176.876 142.663C199.269 159.078 282.646 220.196 285.598 231.158C287.959 239.927 275.172 281.68 268.484 301.461C208.139 385.773 86.1939 558.906 81.1815 576.933C74.9161 599.468 1.02993 564.369 -11.5087 529.517C-24.0473 494.665 -44.134 416.156 -3.257 346.41C26.2958 295.985 -69.7505 238.281 -118.879 174.408Z" fill="#F8222A"/>
<path d="M-118.879 174.408C-158.182 123.31 -127.305 54.3474 -106.953 26.2536C-92.9716 18.1731 -64.2593 1.38896 -61.2595 -1.10432C-57.5097 -4.22092 -34.5754 7.45851 -0.778824 29.2998C33.0177 51.1411 77.8684 78.8859 85.968 84.8231C94.0675 90.7603 154.483 126.249 176.876 142.663C199.269 159.078 282.646 220.196 285.598 231.158C287.959 239.927 275.172 281.68 268.484 301.461C208.139 385.773 86.1939 558.906 81.1815 576.933C74.9161 599.468 1.02993 564.369 -11.5087 529.517C-24.0473 494.665 -44.134 416.156 -3.257 346.41C26.2958 295.985 -69.7505 238.281 -118.879 174.408Z" stroke="#FF3A41"/>
</g>
<g>
<path d="M-114.369 327.066C-102.115 266.568 -157.568 220.396 -186.826 204.871C-202.213 203.842 -233.893 201.565 -237.513 200.692C-242.039 199.6 -256.807 219.326 -276.626 252.37C-296.444 285.414 -323.266 328.2 -327.72 336.723C-332.175 345.246 -369.096 401.263 -381.411 424.826C-393.726 448.389 -439.58 536.123 -437.508 546.784C-435.851 555.313 -308.147 830.276 -250.277 895.717C-163.099 942.616 -120.553 904.633 -118.952 861.497C-116 781.939 -71.055 733.678 -57.3288 677.424C-48.9259 642.987 -76.9537 566.277 -141.313 523.658C-187.843 492.846 -129.687 402.689 -114.369 327.066Z" fill="#F40009"/>
</g>
<path d="M-114.369 327.066C-102.115 266.568 -157.568 220.396 -186.826 204.871C-202.213 203.842 -233.893 201.565 -237.513 200.692C-242.039 199.6 -256.807 219.326 -276.626 252.37C-296.444 285.414 -323.266 328.2 -327.72 336.723C-332.175 345.246 -369.096 401.263 -381.411 424.826C-393.726 448.389 -439.58 536.123 -437.508 546.784C-435.851 555.313 -308.147 830.276 -250.277 895.717C-163.099 942.616 -120.553 904.633 -118.952 861.497C-116 781.939 -71.055 733.678 -57.3288 677.424C-48.9259 642.987 -76.9537 566.277 -141.313 523.658C-187.843 492.846 -129.687 402.689 -114.369 327.066Z" stroke="#FF3A41"/>
<g filter="url(#filter5_d)">
<path d="M-217.752 700.35C-277.898 714.232 -296.982 783.821 -299.006 816.88C-293.575 831.314 -282.537 861.096 -281.834 864.753C-280.955 869.325 -256.886 874.606 -218.603 878.973C-180.319 883.339 -130.268 890.049 -120.666 890.577C-111.064 891.105 -44.7897 901.533 -18.2427 902.993C8.30432 904.453 107.15 909.887 115.998 903.589C123.076 898.55 320.537 668.503 356.162 588.739C362.778 489.967 310.592 466.955 270.662 483.349C197.015 513.587 134.48 492.644 77.5888 503.429C42.7614 510.031 -15.4717 567.292 -27.6348 643.519C-36.4283 698.629 -142.57 682.998 -217.752 700.35Z" fill="#F40009"/>
<path d="M-217.752 700.35C-277.898 714.232 -296.982 783.821 -299.006 816.88C-293.575 831.314 -282.537 861.096 -281.834 864.753C-280.955 869.325 -256.886 874.606 -218.603 878.973C-180.319 883.339 -130.268 890.049 -120.666 890.577C-111.064 891.105 -44.7897 901.533 -18.2427 902.993C8.30432 904.453 107.15 909.887 115.998 903.589C123.076 898.55 320.537 668.503 356.162 588.739C362.778 489.967 310.592 466.955 270.662 483.349C197.015 513.587 134.48 492.644 77.5888 503.429C42.7614 510.031 -15.4717 567.292 -27.6348 643.519C-36.4283 698.629 -142.57 682.998 -217.752 700.35Z" stroke="#FF3A41"/>
</g>
<g filter="url(#filter6_d)">
<path d="M-93.1094 141.062C-67.1404 158.915 -34.3628 142.098 -21.2201 131.459C-17.6598 124.436 -10.2557 110.01 -9.12162 108.484C-7.70399 106.576 -14.017 95.6942 -25.5768 79.7771C-37.1366 63.8601 -51.8729 42.7053 -54.9858 38.9086C-58.0988 35.112 -77.0304 6.56739 -85.6368 -3.92917C-94.2431 -14.4257 -126.288 -53.5086 -131.711 -54.667C-136.049 -55.5937 -290.748 -50.5839 -333.06 -36.4843C-372.523 -4.90948 -363.187 22.6715 -343.244 32.0484C-306.462 49.343 -292.778 80.1062 -269.097 97.8022C-254.6 108.635 -212.961 110.807 -180.072 89.0961C-156.294 73.3996 -125.571 118.746 -93.1094 141.062Z" fill="#F40009"/>
<path d="M-93.1094 141.062C-67.1404 158.915 -34.3628 142.098 -21.2201 131.459C-17.6598 124.436 -10.2557 110.01 -9.12162 108.484C-7.70399 106.576 -14.017 95.6942 -25.5768 79.7771C-37.1366 63.8601 -51.8729 42.7053 -54.9858 38.9086C-58.0988 35.112 -77.0304 6.56739 -85.6368 -3.92917C-94.2431 -14.4257 -126.288 -53.5086 -131.711 -54.667C-136.049 -55.5937 -290.748 -50.5839 -333.06 -36.4843C-372.523 -4.90948 -363.187 22.6715 -343.244 32.0484C-306.462 49.343 -292.778 80.1062 -269.097 97.8022C-254.6 108.635 -212.961 110.807 -180.072 89.0961C-156.294 73.3996 -125.571 118.746 -93.1094 141.062Z" stroke="#FF3A41"/>
</g>
<g>
<path d="M-172.847 392.899C-160.673 432.846 -195.124 467.615 -213.872 480.006C-224.192 481.716 -245.428 485.343 -247.816 486.171C-250.8 487.205 -262.041 474.893 -277.551 453.941C-293.06 432.99 -313.925 405.938 -317.481 400.49C-321.038 395.043 -349.573 359.746 -359.406 344.686C-369.239 329.626 -405.85 273.551 -405.139 266.232C-404.571 260.376 -387.295 237.978 -378.728 227.51C-322.908 190.155 -363.305 88.7149 -233.675 82.2609C-163.586 78.7713 -156.6 129.113 -156.947 153.104C-157.295 177.095 -163.024 229.277 -203.716 262.241C-233.136 286.072 -188.065 342.967 -172.847 392.899Z" fill="#F8222A"/>
</g>
<path d="M-172.847 392.899C-160.673 432.846 -195.124 467.615 -213.872 480.006C-224.192 481.716 -245.428 485.343 -247.816 486.171C-250.8 487.205 -262.041 474.893 -277.551 453.941C-293.06 432.99 -313.925 405.938 -317.481 400.49C-321.038 395.043 -349.573 359.746 -359.406 344.686C-369.239 329.626 -405.85 273.551 -405.139 266.232C-404.571 260.376 -387.295 237.978 -378.728 227.51C-322.908 190.155 -363.305 88.7149 -233.675 82.2609C-163.586 78.7713 -156.6 129.113 -156.947 153.104C-157.295 177.095 -163.024 229.277 -203.716 262.241C-233.136 286.072 -188.065 342.967 -172.847 392.899Z" stroke="#FF3A41"/>
<g filter="url(#filter8_d)">
<path d="M210.405 598.973C250.357 586.819 285.11 621.287 297.492 640.041C299.197 650.362 302.814 671.6 303.64 673.988C304.673 676.973 292.355 688.208 271.396 703.707C250.437 719.206 223.374 740.057 217.925 743.611C212.476 747.165 177.165 775.683 162.1 785.509C147.035 795.334 90.9424 831.918 83.6237 831.204C77.7686 830.632 55.3783 813.345 44.9151 804.773C7.58773 748.935 -93.8727 789.282 -100.263 659.649C-103.718 589.558 -53.3735 582.597 -29.3827 582.956C-5.39188 583.315 46.7878 589.07 79.7314 629.779C103.549 659.21 160.465 614.167 210.405 598.973Z" fill="#F8222A"/>
<path d="M210.405 598.973C250.357 586.819 285.11 621.287 297.492 640.041C299.197 650.362 302.814 671.6 303.64 673.988C304.673 676.973 292.355 688.208 271.396 703.707C250.437 719.206 223.374 740.057 217.925 743.611C212.476 747.165 177.165 775.683 162.1 785.509C147.035 795.334 90.9424 831.918 83.6237 831.204C77.7686 830.632 55.3783 813.345 44.9151 804.773C7.58773 748.935 -93.8727 789.282 -100.263 659.649C-103.718 589.558 -53.3735 582.597 -29.3827 582.956C-5.39188 583.315 46.7878 589.07 79.7314 629.779C103.549 659.21 160.465 614.167 210.405 598.973Z" stroke="#FF3A41"/>
</g>
</g>
<path d="M-76.7045 232.789C-96.3326 147.437 -155.762 188.642 -183.023 219.913L-220.644 421.642V586.582C-186.658 605.59 -110.29 639.681 -76.7045 623.984C-34.7223 604.363 12.1669 451.687 -39.0841 421.642C-90.3351 391.597 -52.1695 339.479 -76.7045 232.789Z" fill="white"/>
</g>
<defs>
<filter id="filter0_i" x="-335.975" y="0.754883" width="473.35" height="852.988" filterUnits="userSpaceOnUse" color-interpolation-filters="sRGB">
<feFlood flood-opacity="0" result="BackgroundImageFix"/>
<feBlend mode="normal" in="SourceGraphic" in2="BackgroundImageFix" result="shape"/>
<feColorMatrix in="SourceAlpha" type="matrix" values="0 0 0 0 0 0 0 0 0 0 0 0 0 0 0 0 0 0 127 0" result="hardAlpha"/>
<feOffset dy="4"/>
<feGaussianBlur stdDeviation="10"/>
<feComposite in2="hardAlpha" operator="arithmetic" k2="-1" k3="1"/>
<feColorMatrix type="matrix" values="0 0 0 0 0 0 0 0 0 0 0 0 0 0 0 0 0 0 0.45 0"/>
<feBlend mode="normal" in2="shape" result="effect1_innerShadow"/>
</filter>
<filter id="filter1_d" x="-403.344" y="198.881" width="760.763" height="459.511" filterUnits="userSpaceOnUse" color-interpolation-filters="sRGB">
<feFlood flood-opacity="0" result="BackgroundImageFix"/>
<feColorMatrix in="SourceAlpha" type="matrix" values="0 0 0 0 0 0 0 0 0 0 0 0 0 0 0 0 0 0 127 0"/>
<feOffset/>
<feGaussianBlur stdDeviation="15"/>
<feColorMatrix type="matrix" values="0 0 0 0 0 0 0 0 0 0 0 0 0 0 0 0 0 0 0.35 0"/>
<feBlend mode="normal" in2="BackgroundImageFix" result="effect1_dropShadow"/>
<feBlend mode="normal" in="SourceGraphic" in2="effect1_dropShadow" result="shape"/>
</filter>
<filter id="filter2_d" x="-259.825" y="-113.723" width="442.352" height="777.806" filterUnits="userSpaceOnUse" color-interpolation-filters="sRGB">
<feFlood flood-opacity="0" result="BackgroundImageFix"/>
<feColorMatrix in="SourceAlpha" type="matrix" values="0 0 0 0 0 0 0 0 0 0 0 0 0 0 0 0 0 0 127 0"/>
<feOffset/>
<feGaussianBlur stdDeviation="15"/>
<feColorMatrix type="matrix" values="0 0 0 0 0 0 0 0 0 0 0 0 0 0 0 0 0 0 0.35 0"/>
<feBlend mode="normal" in2="BackgroundImageFix" result="effect1_dropShadow"/>
<feBlend mode="normal" in="SourceGraphic" in2="effect1_dropShadow" result="shape"/>
</filter>
<filter id="filter3_d" x="-168.316" y="-32.1025" width="484.701" height="646.656" filterUnits="userSpaceOnUse" color-interpolation-filters="sRGB">
<feFlood flood-opacity="0" result="BackgroundImageFix"/>
<feColorMatrix in="SourceAlpha" type="matrix" values="0 0 0 0 0 0 0 0 0 0 0 0 0 0 0 0 0 0 127 0"/>
<feOffset/>
<feGaussianBlur stdDeviation="15"/>
<feColorMatrix type="matrix" values="0 0 0 0 0 0 0 0 0 0 0 0 0 0 0 0 0 0 0.35 0"/>
<feBlend mode="normal" in2="BackgroundImageFix" result="effect1_dropShadow"/>
<feBlend mode="normal" in="SourceGraphic" in2="effect1_dropShadow" result="shape"/>
</filter>
<filter id="filter5_d" x="-329.512" y="448.021" width="716.745" height="489.042" filterUnits="userSpaceOnUse" color-interpolation-filters="sRGB">
<feFlood flood-opacity="0" result="BackgroundImageFix"/>
<feColorMatrix in="SourceAlpha" type="matrix" values="0 0 0 0 0 0 0 0 0 0 0 0 0 0 0 0 0 0 127 0"/>
<feOffset/>
<feGaussianBlur stdDeviation="15"/>
<feColorMatrix type="matrix" values="0 0 0 0 0 0 0 0 0 0 0 0 0 0 0 0 0 0 0.35 0"/>
<feBlend mode="normal" in2="BackgroundImageFix" result="effect1_dropShadow"/>
<feBlend mode="normal" in="SourceGraphic" in2="effect1_dropShadow" result="shape"/>
</filter>
<filter id="filter6_d" x="-390.931" y="-85.2734" width="412.506" height="264.663" filterUnits="userSpaceOnUse" color-interpolation-filters="sRGB">
<feFlood flood-opacity="0" result="BackgroundImageFix"/>
<feColorMatrix in="SourceAlpha" type="matrix" values="0 0 0 0 0 0 0 0 0 0 0 0 0 0 0 0 0 0 127 0"/>
<feOffset/>
<feGaussianBlur stdDeviation="15"/>
<feColorMatrix type="matrix" values="0 0 0 0 0 0 0 0 0 0 0 0 0 0 0 0 0 0 0.35 0"/>
<feBlend mode="normal" in2="BackgroundImageFix" result="effect1_dropShadow"/>
<feBlend mode="normal" in="SourceGraphic" in2="effect1_dropShadow" result="shape"/>
</filter>
<filter id="filter8_d" x="-130.933" y="552.443" width="465.132" height="309.271" filterUnits="userSpaceOnUse" color-interpolation-filters="sRGB">
<feFlood flood-opacity="0" result="BackgroundImageFix"/>
<feColorMatrix in="SourceAlpha" type="matrix" values="0 0 0 0 0 0 0 0 0 0 0 0 0 0 0 0 0 0 127 0"/>
<feOffset/>
<feGaussianBlur stdDeviation="15"/>
<feColorMatrix type="matrix" values="0 0 0 0 0 0 0 0 0 0 0 0 0 0 0 0 0 0 0.35 0"/>
<feBlend mode="normal" in2="BackgroundImageFix" result="effect1_dropShadow"/>
<feBlend mode="normal" in="SourceGraphic" in2="effect1_dropShadow" result="shape"/>
</filter>
</defs>
</svg>
