<svg width="1122" height="671" viewBox="0 0 1122 671" fill="none" xmlns="http://www.w3.org/2000/svg">
<g filter="url(#filter0_i)">
<mask id="mask0" mask-type="alpha" maskUnits="userSpaceOnUse" x="0" y="0" width="1516" height="671">
<path d="M33.1961 209.89C99.3577 147.803 195.607 209.89 281.701 209.89C747.324 209.89 1404.37 -278.142 1505.31 234.149C1527.72 347.909 1505.31 532.547 1505.31 532.547C1505.31 532.547 1061.41 762.004 927.272 629.277C792.272 495.697 273.818 755.465 97.1162 488.492C35.293 395.084 -46.2627 284.456 33.1961 209.89Z" fill="#C4C4C4"/>
</mask>
<g mask="url(#mask0)">
<g filter="url(#filter1_d)">
<path d="M576.144 184.189C721.002 212.008 699.402 267.246 697.912 312.332C690.577 331.231 612.63 593.466 611.484 598.339C610.05 604.429 583.99 608.599 542.983 609.762C501.975 610.925 448.253 613.803 438.03 613.326C427.807 612.848 356.501 618.753 328.237 617.432C299.973 616.112 194.736 611.195 186.061 601.553C179.121 593.84 -4.63779 257.313 -33.5859 144.711C-29.736 9.93785 28.0376 -14.7839 68.5076 12.4132C143.15 62.5751 211.652 41.946 270.694 63.6441C306.837 76.9271 321.872 158.448 382.437 228.704C438.797 294.082 495.081 168.621 576.144 184.189Z" fill="#F40009"/>
<path d="M576.144 184.189C721.002 212.008 699.402 267.246 697.912 312.332C690.577 331.231 612.63 593.466 611.484 598.339C610.05 604.429 583.99 608.599 542.983 609.762C501.975 610.925 448.253 613.803 438.03 613.326C427.807 612.848 356.501 618.753 328.237 617.432C299.973 616.112 194.736 611.195 186.061 601.553C179.121 593.84 -4.63779 257.313 -33.5859 144.711C-29.736 9.93785 28.0376 -14.7839 68.5076 12.4132C143.15 62.5751 211.652 41.946 270.694 63.6441C306.837 76.9271 321.872 158.448 382.437 228.704C438.797 294.082 495.081 168.621 576.144 184.189Z" stroke="#FF3A41"/>
</g>
<g filter="url(#filter2_d)">
<path d="M472.123 491.019C501.746 587.973 521.72 568.502 540.05 563.673C546.891 557.049 644.805 481.471 646.662 480.273C648.984 478.776 647.423 460.559 642.749 432.349C638.076 404.139 632.509 367.068 631.029 360.101C629.549 353.133 623.017 303.752 618.924 284.488C614.831 265.224 599.592 193.496 594.542 188.364C590.502 184.258 429.2 86.7033 379.316 76.367C324.445 90.3868 321.549 132.08 337.803 157.526C367.782 204.46 367.915 253.162 384.243 291.804C394.239 315.46 429.61 318.882 466.074 354.469C500.005 387.584 455.546 436.762 472.123 491.019Z" fill="#F40009"/>
<path d="M472.123 491.019C501.746 587.973 521.72 568.502 540.05 563.673C546.891 557.049 644.805 481.471 646.662 480.273C648.984 478.776 647.423 460.559 642.749 432.349C638.076 404.139 632.509 367.068 631.029 360.101C629.549 353.133 623.017 303.752 618.924 284.488C614.831 265.224 599.592 193.496 594.542 188.364C590.502 184.258 429.2 86.7033 379.316 76.367C324.445 90.3868 321.549 132.08 337.803 157.526C367.782 204.46 367.915 253.162 384.243 291.804C394.239 315.46 429.61 318.882 466.074 354.469C500.005 387.584 455.546 436.762 472.123 491.019Z" stroke="#FF3A41"/>
</g>
<g filter="url(#filter3_d)">
<path d="M302.517 256.599C352.123 264.496 386.924 211.154 398.124 183.497C398.232 169.344 398.583 140.196 399.12 136.831C399.791 132.625 383.108 120.181 355.395 103.843C327.681 87.5058 291.741 65.2887 284.624 61.677C277.507 58.0652 230.369 27.3237 210.693 17.3382C191.017 7.35281 117.754 -29.827 109.212 -27.3421C102.378 -25.3541 79.0442 2.43517 68.2314 16.0814C34.3383 98.527 -36.0152 266.321 -46.2846 277.932C-59.1213 292.445 -7.08728 333.628 21.2809 328.133C49.649 322.638 110.428 304.038 141.929 242.733C164.703 198.411 240.51 246.727 302.517 256.599Z" fill="#F8222A"/>
<path d="M302.517 256.599C352.123 264.496 386.924 211.154 398.124 183.497C398.232 169.344 398.583 140.196 399.12 136.831C399.791 132.625 383.108 120.181 355.395 103.843C327.681 87.5058 291.741 65.2887 284.624 61.677C277.507 58.0652 230.369 27.3237 210.693 17.3382C191.017 7.35281 117.754 -29.827 109.212 -27.3421C102.378 -25.3541 79.0442 2.43517 68.2314 16.0814C34.3383 98.527 -36.0152 266.321 -46.2846 277.932C-59.1213 292.445 -7.08728 333.628 21.2809 328.133C49.649 322.638 110.428 304.038 141.929 242.733C164.703 198.411 240.51 246.727 302.517 256.599Z" stroke="#FF3A41"/>
</g>
<g filter="url(#filter4_d)">
<path d="M530.515 567.692C500.567 640.787 550.791 716.275 579.647 744.882C596.725 750.867 631.844 763.39 635.694 765.6C640.506 768.361 662.42 747.804 693.579 711.871C724.738 675.937 766.392 629.762 773.688 620.294C780.983 610.826 837.554 550.921 857.724 524.745C877.894 498.57 952.994 401.106 953.5 386.939C953.905 375.605 929.878 328.27 917.815 306.019C832.006 219.963 657.933 42.7072 648.109 22.1295C635.828 -3.59257 564.612 59.5543 559.597 105.471C554.581 151.387 552.096 252.57 613.312 326.254C657.569 379.525 567.95 476.325 530.515 567.692Z" fill="#F8222A"/>
<path d="M530.515 567.692C500.567 640.787 550.791 716.275 579.647 744.882C596.725 750.867 631.844 763.39 635.694 765.6C640.506 768.361 662.42 747.804 693.579 711.871C724.738 675.937 766.392 629.762 773.688 620.294C780.983 610.826 837.554 550.921 857.724 524.745C877.894 498.57 952.994 401.106 953.5 386.939C953.905 375.605 929.878 328.27 917.815 306.019C832.006 219.963 657.933 42.7072 648.109 22.1295C635.828 -3.59257 564.612 59.5543 559.597 105.471C554.581 151.387 552.096 252.57 613.312 326.254C657.569 379.525 567.95 476.325 530.515 567.692Z" stroke="#FF3A41"/>
</g>
<g filter="url(#filter5_d)">
<path d="M788.814 429.631C789.901 510.143 864.165 553.635 901.161 565.317C918.852 562.366 955.314 556.492 959.633 556.602C965.031 556.739 976.884 527.504 991.164 479.892C1005.44 432.28 1025.25 370.308 1028.18 358.21C1031.12 346.112 1059.1 264.478 1067.22 231.03C1075.34 197.583 1105.59 73.0436 1100.6 60.0278C1096.61 49.6152 1056.78 18.6943 1037.36 4.53551C926.961 -31.0929 701.983 -105.786 685.224 -119.531C664.274 -136.712 624.347 -45 637.466 -1.16607C650.584 42.6679 687.212 135.075 770.69 171.57C831.041 197.955 787.455 328.991 788.814 429.631Z" fill="#F8222A"/>
<path d="M788.814 429.631C789.901 510.143 864.165 553.635 901.161 565.317C918.852 562.366 955.314 556.492 959.633 556.602C965.031 556.739 976.884 527.504 991.164 479.892C1005.44 432.28 1025.25 370.308 1028.18 358.21C1031.12 346.112 1059.1 264.478 1067.22 231.03C1075.34 197.583 1105.59 73.0436 1100.6 60.0278C1096.61 49.6152 1056.78 18.6943 1037.36 4.53551C926.961 -31.0929 701.983 -105.786 685.224 -119.531C664.274 -136.712 624.347 -45 637.466 -1.16607C650.584 42.6679 687.212 135.075 770.69 171.57C831.041 197.955 787.455 328.991 788.814 429.631Z" stroke="#FF3A41"/>
</g>
<g filter="url(#filter6_d)">
<path d="M829.282 474.914C770.535 520.668 779.735 614.474 791.679 655.658C803.684 670.608 828.273 701.536 830.592 705.647C833.49 710.785 861.627 705.657 904.66 692.593C947.692 679.529 1004.38 663.668 1014.93 659.701C1025.48 655.735 1101.2 636.61 1130.37 625.643C1159.54 614.677 1268.16 573.844 1274.98 561.936C1280.44 552.409 1281.1 497.872 1280.75 471.794C1245.68 348.476 1175.74 96.0019 1176.56 72.6487C1177.58 43.4572 1087.79 56.9726 1062.77 93.6293C1037.74 130.286 989.971 215.977 1009.45 314.535C1023.53 385.789 902.716 417.723 829.282 474.914Z" fill="#F8222A"/>
<path d="M829.282 474.914C770.535 520.668 779.735 614.474 791.679 655.658C803.684 670.608 828.273 701.536 830.592 705.647C833.49 710.785 861.627 705.657 904.66 692.593C947.692 679.529 1004.38 663.668 1014.93 659.701C1025.48 655.735 1101.2 636.61 1130.37 625.643C1159.54 614.677 1268.16 573.844 1274.98 561.936C1280.44 552.409 1281.1 497.872 1280.75 471.794C1245.68 348.476 1175.74 96.0019 1176.56 72.6487C1177.58 43.4572 1087.79 56.9726 1062.77 93.6293C1037.74 130.286 989.971 215.977 1009.45 314.535C1023.53 385.789 902.716 417.723 829.282 474.914Z" stroke="#FF3A41"/>
</g>
<g filter="url(#filter7_d)">
<path d="M917.868 88.1312C833.494 -76.2476 885.578 -88.0288 916.626 -114.065C934.407 -118.152 1164.2 -199.103 1168.25 -200.914C1173.32 -203.178 1194.61 -179.213 1224.5 -138.202C1254.4 -97.1916 1294.47 -44.2931 1301.41 -33.6002C1308.35 -22.9073 1362.92 46.0309 1382.12 75.5935C1401.31 105.156 1472.78 215.23 1472.53 229.947C1472.33 241.721 1378.98 634.333 1324.64 732.598C1232.26 811.042 1174.78 767.37 1164.13 709.576C1144.49 602.98 1082.11 545.892 1054.62 472.563C1037.78 427.673 1081.33 362.559 1085.05 258.006C1088.51 160.712 965.084 180.119 917.868 88.1312Z" fill="#F40009"/>
<path d="M917.868 88.1312C833.494 -76.2476 885.578 -88.0288 916.626 -114.065C934.407 -118.152 1164.2 -199.103 1168.25 -200.914C1173.32 -203.178 1194.61 -179.213 1224.5 -138.202C1254.4 -97.1916 1294.47 -44.2931 1301.41 -33.6002C1308.35 -22.9073 1362.92 46.0309 1382.12 75.5935C1401.31 105.156 1472.78 215.23 1472.53 229.947C1472.33 241.721 1378.98 634.333 1324.64 732.598C1232.26 811.042 1174.78 767.37 1164.13 709.576C1144.49 602.98 1082.11 545.892 1054.62 472.563C1037.78 427.673 1081.33 362.559 1085.05 258.006C1088.51 160.712 965.084 180.119 917.868 88.1312Z" stroke="#FF3A41"/>
</g>
<g filter="url(#filter8_d)">
<path d="M102.567 264.168C62.3114 205.174 -14.0404 219.228 -47.1844 233.629C-58.8503 246.843 -82.9958 273.923 -86.2505 276.534C-90.3189 279.797 -84.779 308.853 -72.033 353.041C-59.287 397.229 -43.5995 455.503 -39.8493 466.301C-36.0991 477.099 -16.8327 555.038 -6.46454 584.892C3.90366 614.745 42.5087 725.9 52.5821 732.439C60.6408 737.67 105.317 735.756 126.648 734.146C225.925 691.743 429.268 606.875 448.424 606.616C472.369 606.292 457.024 513.432 425.823 489.121C394.622 464.81 322.197 419.152 242.445 444.135C184.787 462.196 152.886 337.911 102.567 264.168Z" fill="#F8222A"/>
<path d="M102.567 264.168C62.3114 205.174 -14.0404 219.228 -47.1844 233.629C-58.8503 246.843 -82.9958 273.923 -86.2505 276.534C-90.3189 279.797 -84.779 308.853 -72.033 353.041C-59.287 397.229 -43.5995 455.503 -39.8493 466.301C-36.0991 477.099 -16.8327 555.038 -6.46454 584.892C3.90366 614.745 42.5087 725.9 52.5821 732.439C60.6408 737.67 105.317 735.756 126.648 734.146C225.925 691.743 429.268 606.875 448.424 606.616C472.369 606.292 457.024 513.432 425.823 489.121C394.622 464.81 322.197 419.152 242.445 444.135C184.787 462.196 152.886 337.911 102.567 264.168Z" stroke="#FF3A41"/>
</g>
<g filter="url(#filter9_d)">
<path d="M202.503 510.019C137.636 476.388 70.8064 533.185 45.5 565.788C40.2274 585.061 29.1945 624.695 27.2432 629.042C24.8041 634.475 43.0743 659.15 74.9963 694.221C106.918 729.293 147.942 776.18 156.351 784.39C164.761 792.599 217.987 856.284 241.235 878.98C264.484 901.677 351.048 986.185 363.61 986.727C373.66 987.161 415.58 959.968 435.285 946.317C511.413 849.365 668.226 652.681 686.451 641.558C709.232 627.656 653.102 547.461 612.381 541.896C571.66 536.331 481.943 533.73 416.735 602.92C369.592 652.943 283.587 552.058 202.503 510.019Z" fill="#F8222A"/>
<path d="M202.503 510.019C137.636 476.388 70.8064 533.185 45.5 565.788C40.2274 585.061 29.1945 624.695 27.2432 629.042C24.8041 634.475 43.0743 659.15 74.9963 694.221C106.918 729.293 147.942 776.18 156.351 784.39C164.761 792.599 217.987 856.284 241.235 878.98C264.484 901.677 351.048 986.185 363.61 986.727C373.66 987.161 415.58 959.968 435.285 946.317C511.413 849.365 668.226 652.681 686.451 641.558C709.232 627.656 653.102 547.461 612.381 541.896C571.66 536.331 481.943 533.73 416.735 602.92C369.592 652.943 283.587 552.058 202.503 510.019Z" stroke="#FF3A41"/>
</g>
<g filter="url(#filter10_d)">
<path d="M858.085 494.194C982.316 461.071 976.822 502.415 985.499 530.57C983.664 544.697 977.64 732.454 977.774 735.838C977.941 740.068 957.605 751.651 924.42 766.569C891.234 781.486 848.057 801.859 839.616 805.107C831.174 808.355 774.322 836.675 750.984 845.655C727.646 854.636 640.749 888.074 631.56 885.169C624.208 882.844 400.519 740.195 352.206 681.194C325.775 597.241 367.463 562.074 406.432 564.729C478.307 569.624 529.643 533.25 582.55 526.1C614.938 521.724 645.086 566.49 709.89 588.581C770.194 609.137 788.564 512.73 858.085 494.194Z" fill="#F40009"/>
<path d="M858.085 494.194C982.316 461.071 976.822 502.415 985.499 530.57C983.664 544.697 977.64 732.454 977.774 735.838C977.941 740.068 957.605 751.651 924.42 766.569C891.234 781.486 848.057 801.859 839.616 805.107C831.174 808.355 774.322 836.675 750.984 845.655C727.646 854.636 640.749 888.074 631.56 885.169C624.208 882.844 400.519 740.195 352.206 681.194C325.775 597.241 367.463 562.074 406.432 564.729C478.307 569.624 529.643 533.25 582.55 526.1C614.938 521.724 645.086 566.49 709.89 588.581C770.194 609.137 788.564 512.73 858.085 494.194Z" stroke="#FF3A41"/>
</g>
<g filter="url(#filter11_d)">
<path d="M1266.15 506.052C1267.23 586.564 1341.5 630.056 1378.49 641.738C1396.18 638.787 1432.65 632.913 1436.96 633.023C1442.36 633.16 1454.22 603.925 1468.5 556.313C1482.77 508.701 1502.58 446.729 1505.52 434.631C1508.45 422.533 1536.43 340.899 1544.55 307.451C1552.67 274.004 1582.92 149.465 1577.93 136.449C1573.95 126.036 1534.11 95.1152 1514.69 80.9564C1404.29 45.3279 1179.32 -29.3652 1162.56 -43.1102C1141.61 -60.2916 1101.68 31.4209 1114.8 75.2548C1127.92 119.089 1164.54 211.496 1248.02 247.991C1308.37 274.376 1264.79 405.412 1266.15 506.052Z" fill="#F8222A"/>
<path d="M1266.15 506.052C1267.23 586.564 1341.5 630.056 1378.49 641.738C1396.18 638.787 1432.65 632.913 1436.96 633.023C1442.36 633.16 1454.22 603.925 1468.5 556.313C1482.77 508.701 1502.58 446.729 1505.52 434.631C1508.45 422.533 1536.43 340.899 1544.55 307.451C1552.67 274.004 1582.92 149.465 1577.93 136.449C1573.95 126.036 1534.11 95.1152 1514.69 80.9564C1404.29 45.3279 1179.32 -29.3652 1162.56 -43.1102C1141.61 -60.2916 1101.68 31.4209 1114.8 75.2548C1127.92 119.089 1164.54 211.496 1248.02 247.991C1308.37 274.376 1264.79 405.412 1266.15 506.052Z" stroke="#FF3A41"/>
</g>
<g filter="url(#filter12_d)">
<path d="M1065.83 384.252C1168.1 298.09 1177.65 338.484 1195.55 360.416C1198.85 374.199 1259.59 549.143 1260.91 552.188C1262.56 555.993 1247.99 575.749 1222.81 604.333C1197.63 632.917 1165.22 670.992 1158.62 677.761C1152.02 684.531 1109.86 736.035 1091.62 754.752C1073.38 773.468 1005.47 843.158 996.015 844.618C988.451 845.786 732.902 815.357 667.758 782.924C613.88 717.777 639.711 666.799 676.396 651.738C744.059 623.959 778.313 567.542 824.324 537.23C852.491 518.673 895.947 546.205 963.192 537.374C1025.77 529.156 1008.59 432.469 1065.83 384.252Z" fill="#F40009"/>
<path d="M1065.83 384.252C1168.1 298.09 1177.65 338.484 1195.55 360.416C1198.85 374.199 1259.59 549.143 1260.91 552.188C1262.56 555.993 1247.99 575.749 1222.81 604.333C1197.63 632.917 1165.22 670.992 1158.62 677.761C1152.02 684.531 1109.86 736.035 1091.62 754.752C1073.38 773.468 1005.47 843.158 996.015 844.618C988.451 845.786 732.902 815.357 667.758 782.924C613.88 717.777 639.711 666.799 676.396 651.738C744.059 623.959 778.313 567.542 824.324 537.23C852.491 518.673 895.947 546.205 963.192 537.374C1025.77 529.156 1008.59 432.469 1065.83 384.252Z" stroke="#FF3A41"/>
</g>
<g>
<path d="M1277.5 1277.26C1435.67 1404.61 1372.33 1425.61 1340.32 1454.86C1318.72 1462.08 1048.02 1580.23 1043.36 1582.65C1037.53 1585.68 1002.93 1568.95 952.105 1538.98C901.277 1509.01 833.783 1470.67 821.626 1462.68C809.468 1454.7 718.487 1405.2 684.875 1383.12C651.264 1361.04 526.114 1278.82 521.982 1265.82C518.676 1255.42 519.701 891.012 559.756 793.477C654.684 705.606 741.747 732.278 772.932 780.939C830.449 870.688 927.867 908.161 985.4 967.044C1020.62 1003.09 984.392 1069.26 1011.28 1161.99C1036.29 1248.27 1188.98 1205.99 1277.5 1277.26Z" fill="#F40009"/>
</g>
<path d="M1277.5 1277.26C1435.67 1404.61 1372.33 1425.61 1340.32 1454.86C1318.72 1462.08 1048.02 1580.23 1043.36 1582.65C1037.53 1585.68 1002.93 1568.95 952.105 1538.98C901.277 1509.01 833.783 1470.67 821.626 1462.68C809.468 1454.7 718.487 1405.2 684.875 1383.12C651.264 1361.04 526.114 1278.82 521.982 1265.82C518.676 1255.42 519.701 891.012 559.756 793.477C654.684 705.606 741.747 732.278 772.932 780.939C830.449 870.688 927.867 908.161 985.4 967.044C1020.62 1003.09 984.392 1069.26 1011.28 1161.99C1036.29 1248.27 1188.98 1205.99 1277.5 1277.26Z" stroke="#FF3A41"/>
<g filter="url(#filter14_d)">
<path d="M1311.5 1200.76C1469.67 1328.11 1406.33 1349.11 1374.32 1378.35C1352.72 1385.58 1082.02 1503.73 1077.36 1506.15C1071.53 1509.18 1036.93 1492.44 986.105 1462.48C935.277 1432.51 867.783 1394.17 855.626 1386.18C843.468 1378.19 752.487 1328.7 718.875 1306.62C685.264 1284.54 560.114 1202.32 555.982 1189.32C552.676 1178.92 553.701 814.51 593.756 716.975C688.684 629.104 775.747 655.776 806.932 704.437C864.449 794.186 961.867 831.659 1019.4 890.542C1054.62 926.589 1018.39 992.76 1045.28 1085.49C1070.29 1171.77 1222.98 1129.49 1311.5 1200.76Z" fill="#F40009"/>
<path d="M1311.5 1200.76C1469.67 1328.11 1406.33 1349.11 1374.32 1378.35C1352.72 1385.58 1082.02 1503.73 1077.36 1506.15C1071.53 1509.18 1036.93 1492.44 986.105 1462.48C935.277 1432.51 867.783 1394.17 855.626 1386.18C843.468 1378.19 752.487 1328.7 718.875 1306.62C685.264 1284.54 560.114 1202.32 555.982 1189.32C552.676 1178.92 553.701 814.51 593.756 716.975C688.684 629.104 775.747 655.776 806.932 704.437C864.449 794.186 961.867 831.659 1019.4 890.542C1054.62 926.589 1018.39 992.76 1045.28 1085.49C1070.29 1171.77 1222.98 1129.49 1311.5 1200.76Z" stroke="#FF3A41"/>
</g>
<g filter="url(#filter15_d)">
<path d="M679.207 1011.37C521.034 1138.72 584.378 1159.72 616.381 1188.97C637.987 1196.19 908.683 1314.34 913.345 1316.76C919.172 1319.79 953.77 1303.06 1004.6 1273.09C1055.43 1243.12 1122.92 1204.78 1135.08 1196.79C1147.23 1188.8 1238.22 1139.31 1271.83 1117.23C1305.44 1095.15 1430.59 1012.93 1434.72 999.93C1438.03 989.533 1437 625.121 1396.95 527.586C1302.02 439.715 1214.96 466.387 1183.77 515.048C1126.25 604.797 1028.84 642.271 971.303 701.153C936.083 737.2 972.311 803.371 945.428 896.096C920.411 982.383 767.722 940.1 679.207 1011.37Z" fill="#F40009"/>
<path d="M679.207 1011.37C521.034 1138.72 584.378 1159.72 616.381 1188.97C637.987 1196.19 908.683 1314.34 913.345 1316.76C919.172 1319.79 953.77 1303.06 1004.6 1273.09C1055.43 1243.12 1122.92 1204.78 1135.08 1196.79C1147.23 1188.8 1238.22 1139.31 1271.83 1117.23C1305.44 1095.15 1430.59 1012.93 1434.72 999.93C1438.03 989.533 1437 625.121 1396.95 527.586C1302.02 439.715 1214.96 466.387 1183.77 515.048C1126.25 604.797 1028.84 642.271 971.303 701.153C936.083 737.2 972.311 803.371 945.428 896.096C920.411 982.383 767.722 940.1 679.207 1011.37Z" stroke="#FF3A41"/>
</g>
<g filter="url(#filter16_d)">
<path d="M699.206 1241.81C541.033 1369.16 604.377 1390.16 636.38 1419.4C657.986 1426.63 928.683 1544.78 933.344 1547.2C939.171 1550.23 973.769 1533.49 1024.6 1503.53C1075.42 1473.56 1142.92 1435.22 1155.08 1427.23C1167.23 1419.24 1258.22 1369.75 1291.83 1347.67C1325.44 1325.59 1450.59 1243.37 1454.72 1230.37C1458.03 1219.97 1457 855.56 1416.95 758.025C1322.02 670.153 1234.96 696.826 1203.77 745.487C1146.25 835.236 1048.84 872.709 991.302 931.592C956.082 967.639 992.31 1033.81 965.427 1126.53C940.41 1212.82 787.721 1170.54 699.206 1241.81Z" fill="#F40009"/>
<path d="M699.206 1241.81C541.033 1369.16 604.377 1390.16 636.38 1419.4C657.986 1426.63 928.683 1544.78 933.344 1547.2C939.171 1550.23 973.769 1533.49 1024.6 1503.53C1075.42 1473.56 1142.92 1435.22 1155.08 1427.23C1167.23 1419.24 1258.22 1369.75 1291.83 1347.67C1325.44 1325.59 1450.59 1243.37 1454.72 1230.37C1458.03 1219.97 1457 855.56 1416.95 758.025C1322.02 670.153 1234.96 696.826 1203.77 745.487C1146.25 835.236 1048.84 872.709 991.302 931.592C956.082 967.639 992.31 1033.81 965.427 1126.53C940.41 1212.82 787.721 1170.54 699.206 1241.81Z" stroke="#FF3A41"/>
</g>
<g>
<path d="M915.074 993.117C1056.04 847.295 1074.4 915.639 1103.03 952.743C1109.36 976.063 1217.33 1272.05 1219.59 1277.2C1222.41 1283.64 1203.14 1317.07 1169.23 1365.45C1135.31 1413.82 1091.79 1478.25 1082.82 1489.71C1073.86 1501.17 1017.47 1588.33 992.686 1620C967.906 1651.68 875.638 1769.62 861.908 1772.09C850.924 1774.07 472.354 1722.67 373.203 1667.81C287.091 1557.6 319.561 1471.34 371.824 1445.84C468.217 1398.81 512.475 1303.34 576.799 1252.04C616.176 1220.63 682.949 1267.2 780.76 1252.24C871.78 1238.31 836.19 1074.72 915.074 993.117Z" fill="#F40009"/>
</g>
<path d="M915.074 993.117C1056.04 847.295 1074.4 915.639 1103.03 952.743C1109.36 976.063 1217.33 1272.05 1219.59 1277.2C1222.41 1283.64 1203.14 1317.07 1169.23 1365.45C1135.31 1413.82 1091.79 1478.25 1082.82 1489.71C1073.86 1501.17 1017.47 1588.33 992.686 1620C967.906 1651.68 875.638 1769.62 861.908 1772.09C850.924 1774.07 472.354 1722.67 373.203 1667.81C287.091 1557.6 319.561 1471.34 371.824 1445.84C468.217 1398.81 512.475 1303.34 576.799 1252.04C616.176 1220.63 682.949 1267.2 780.76 1252.24C871.78 1238.31 836.19 1074.72 915.074 993.117Z" stroke="#FF3A41"/>
</g>
</g>
<defs>
<filter id="filter0_i" x="0.271484" y="0" width="1515" height="674.601" filterUnits="userSpaceOnUse" color-interpolation-filters="sRGB">
<feFlood flood-opacity="0" result="BackgroundImageFix"/>
<feBlend mode="normal" in="SourceGraphic" in2="BackgroundImageFix" result="shape"/>
<feColorMatrix in="SourceAlpha" type="matrix" values="0 0 0 0 0 0 0 0 0 0 0 0 0 0 0 0 0 0 127 0" result="hardAlpha"/>
<feOffset dy="4"/>
<feGaussianBlur stdDeviation="10"/>
<feComposite in2="hardAlpha" operator="arithmetic" k2="-1" k3="1"/>
<feColorMatrix type="matrix" values="0 0 0 0 0 0 0 0 0 0 0 0 0 0 0 0 0 0 0.45 0"/>
<feBlend mode="normal" in2="shape" result="effect1_innerShadow"/>
</filter>
<filter id="filter1_d" x="-64.0879" y="-27.9072" width="794.473" height="676.032" filterUnits="userSpaceOnUse" color-interpolation-filters="sRGB">
<feFlood flood-opacity="0" result="BackgroundImageFix"/>
<feColorMatrix in="SourceAlpha" type="matrix" values="0 0 0 0 0 0 0 0 0 0 0 0 0 0 0 0 0 0 127 0"/>
<feOffset/>
<feGaussianBlur stdDeviation="15"/>
<feColorMatrix type="matrix" values="0 0 0 0 0 0 0 0 0 0 0 0 0 0 0 0 0 0 0.35 0"/>
<feBlend mode="normal" in2="BackgroundImageFix" result="effect1_dropShadow"/>
<feBlend mode="normal" in="SourceGraphic" in2="effect1_dropShadow" result="shape"/>
</filter>
<filter id="filter2_d" x="298.654" y="45.8477" width="379.565" height="553.186" filterUnits="userSpaceOnUse" color-interpolation-filters="sRGB">
<feFlood flood-opacity="0" result="BackgroundImageFix"/>
<feColorMatrix in="SourceAlpha" type="matrix" values="0 0 0 0 0 0 0 0 0 0 0 0 0 0 0 0 0 0 127 0"/>
<feOffset/>
<feGaussianBlur stdDeviation="15"/>
<feColorMatrix type="matrix" values="0 0 0 0 0 0 0 0 0 0 0 0 0 0 0 0 0 0 0.35 0"/>
<feBlend mode="normal" in2="BackgroundImageFix" result="effect1_dropShadow"/>
<feBlend mode="normal" in="SourceGraphic" in2="effect1_dropShadow" result="shape"/>
</filter>
<filter id="filter3_d" x="-78.7686" y="-57.9775" width="508.39" height="417.129" filterUnits="userSpaceOnUse" color-interpolation-filters="sRGB">
<feFlood flood-opacity="0" result="BackgroundImageFix"/>
<feColorMatrix in="SourceAlpha" type="matrix" values="0 0 0 0 0 0 0 0 0 0 0 0 0 0 0 0 0 0 127 0"/>
<feOffset/>
<feGaussianBlur stdDeviation="15"/>
<feColorMatrix type="matrix" values="0 0 0 0 0 0 0 0 0 0 0 0 0 0 0 0 0 0 0.35 0"/>
<feBlend mode="normal" in2="BackgroundImageFix" result="effect1_dropShadow"/>
<feBlend mode="normal" in="SourceGraphic" in2="effect1_dropShadow" result="shape"/>
</filter>
<filter id="filter4_d" x="490.837" y="-14.3555" width="493.138" height="810.73" filterUnits="userSpaceOnUse" color-interpolation-filters="sRGB">
<feFlood flood-opacity="0" result="BackgroundImageFix"/>
<feColorMatrix in="SourceAlpha" type="matrix" values="0 0 0 0 0 0 0 0 0 0 0 0 0 0 0 0 0 0 127 0"/>
<feOffset/>
<feGaussianBlur stdDeviation="15"/>
<feColorMatrix type="matrix" values="0 0 0 0 0 0 0 0 0 0 0 0 0 0 0 0 0 0 0.35 0"/>
<feBlend mode="normal" in2="BackgroundImageFix" result="effect1_dropShadow"/>
<feBlend mode="normal" in="SourceGraphic" in2="effect1_dropShadow" result="shape"/>
</filter>
<filter id="filter5_d" x="604.384" y="-152.156" width="527.263" height="747.994" filterUnits="userSpaceOnUse" color-interpolation-filters="sRGB">
<feFlood flood-opacity="0" result="BackgroundImageFix"/>
<feColorMatrix in="SourceAlpha" type="matrix" values="0 0 0 0 0 0 0 0 0 0 0 0 0 0 0 0 0 0 127 0"/>
<feOffset/>
<feGaussianBlur stdDeviation="15"/>
<feColorMatrix type="matrix" values="0 0 0 0 0 0 0 0 0 0 0 0 0 0 0 0 0 0 0.35 0"/>
<feBlend mode="normal" in2="BackgroundImageFix" result="effect1_dropShadow"/>
<feBlend mode="normal" in="SourceGraphic" in2="effect1_dropShadow" result="shape"/>
</filter>
<filter id="filter6_d" x="752.335" y="26.2822" width="558.98" height="711.842" filterUnits="userSpaceOnUse" color-interpolation-filters="sRGB">
<feFlood flood-opacity="0" result="BackgroundImageFix"/>
<feColorMatrix in="SourceAlpha" type="matrix" values="0 0 0 0 0 0 0 0 0 0 0 0 0 0 0 0 0 0 127 0"/>
<feOffset/>
<feGaussianBlur stdDeviation="15"/>
<feColorMatrix type="matrix" values="0 0 0 0 0 0 0 0 0 0 0 0 0 0 0 0 0 0 0.35 0"/>
<feBlend mode="normal" in2="BackgroundImageFix" result="effect1_dropShadow"/>
<feBlend mode="normal" in="SourceGraphic" in2="effect1_dropShadow" result="shape"/>
</filter>
<filter id="filter7_d" x="841.569" y="-231.595" width="661.428" height="1037.19" filterUnits="userSpaceOnUse" color-interpolation-filters="sRGB">
<feFlood flood-opacity="0" result="BackgroundImageFix"/>
<feColorMatrix in="SourceAlpha" type="matrix" values="0 0 0 0 0 0 0 0 0 0 0 0 0 0 0 0 0 0 127 0"/>
<feOffset/>
<feGaussianBlur stdDeviation="15"/>
<feColorMatrix type="matrix" values="0 0 0 0 0 0 0 0 0 0 0 0 0 0 0 0 0 0 0.35 0"/>
<feBlend mode="normal" in2="BackgroundImageFix" result="effect1_dropShadow"/>
<feBlend mode="normal" in="SourceGraphic" in2="effect1_dropShadow" result="shape"/>
</filter>
<filter id="filter8_d" x="-118.025" y="190.477" width="608.628" height="575.92" filterUnits="userSpaceOnUse" color-interpolation-filters="sRGB">
<feFlood flood-opacity="0" result="BackgroundImageFix"/>
<feColorMatrix in="SourceAlpha" type="matrix" values="0 0 0 0 0 0 0 0 0 0 0 0 0 0 0 0 0 0 127 0"/>
<feOffset/>
<feGaussianBlur stdDeviation="15"/>
<feColorMatrix type="matrix" values="0 0 0 0 0 0 0 0 0 0 0 0 0 0 0 0 0 0 0.35 0"/>
<feBlend mode="normal" in2="BackgroundImageFix" result="effect1_dropShadow"/>
<feBlend mode="normal" in="SourceGraphic" in2="effect1_dropShadow" result="shape"/>
</filter>
<filter id="filter9_d" x="-3.44824" y="469.2" width="725.633" height="548.06" filterUnits="userSpaceOnUse" color-interpolation-filters="sRGB">
<feFlood flood-opacity="0" result="BackgroundImageFix"/>
<feColorMatrix in="SourceAlpha" type="matrix" values="0 0 0 0 0 0 0 0 0 0 0 0 0 0 0 0 0 0 127 0"/>
<feOffset/>
<feGaussianBlur stdDeviation="15"/>
<feColorMatrix type="matrix" values="0 0 0 0 0 0 0 0 0 0 0 0 0 0 0 0 0 0 0.35 0"/>
<feBlend mode="normal" in2="BackgroundImageFix" result="effect1_dropShadow"/>
<feBlend mode="normal" in="SourceGraphic" in2="effect1_dropShadow" result="shape"/>
</filter>
<filter id="filter10_d" x="313.438" y="451.381" width="702.532" height="464.503" filterUnits="userSpaceOnUse" color-interpolation-filters="sRGB">
<feFlood flood-opacity="0" result="BackgroundImageFix"/>
<feColorMatrix in="SourceAlpha" type="matrix" values="0 0 0 0 0 0 0 0 0 0 0 0 0 0 0 0 0 0 127 0"/>
<feOffset/>
<feGaussianBlur stdDeviation="15"/>
<feColorMatrix type="matrix" values="0 0 0 0 0 0 0 0 0 0 0 0 0 0 0 0 0 0 0.35 0"/>
<feBlend mode="normal" in2="BackgroundImageFix" result="effect1_dropShadow"/>
<feBlend mode="normal" in="SourceGraphic" in2="effect1_dropShadow" result="shape"/>
</filter>
<filter id="filter11_d" x="1081.73" y="-75.7432" width="527.242" height="748.008" filterUnits="userSpaceOnUse" color-interpolation-filters="sRGB">
<feFlood flood-opacity="0" result="BackgroundImageFix"/>
<feColorMatrix in="SourceAlpha" type="matrix" values="0 0 0 0 0 0 0 0 0 0 0 0 0 0 0 0 0 0 127 0"/>
<feOffset/>
<feGaussianBlur stdDeviation="15"/>
<feColorMatrix type="matrix" values="0 0 0 0 0 0 0 0 0 0 0 0 0 0 0 0 0 0 0.35 0"/>
<feBlend mode="normal" in2="BackgroundImageFix" result="effect1_dropShadow"/>
<feBlend mode="normal" in="SourceGraphic" in2="effect1_dropShadow" result="shape"/>
</filter>
<filter id="filter12_d" x="606.471" y="301.035" width="685.034" height="574.149" filterUnits="userSpaceOnUse" color-interpolation-filters="sRGB">
<feFlood flood-opacity="0" result="BackgroundImageFix"/>
<feColorMatrix in="SourceAlpha" type="matrix" values="0 0 0 0 0 0 0 0 0 0 0 0 0 0 0 0 0 0 127 0"/>
<feOffset/>
<feGaussianBlur stdDeviation="15"/>
<feColorMatrix type="matrix" values="0 0 0 0 0 0 0 0 0 0 0 0 0 0 0 0 0 0 0.35 0"/>
<feBlend mode="normal" in2="BackgroundImageFix" result="effect1_dropShadow"/>
<feBlend mode="normal" in="SourceGraphic" in2="effect1_dropShadow" result="shape"/>
</filter>
<filter id="filter14_d" x="524.235" y="628.932" width="920.548" height="908.008" filterUnits="userSpaceOnUse" color-interpolation-filters="sRGB">
<feFlood flood-opacity="0" result="BackgroundImageFix"/>
<feColorMatrix in="SourceAlpha" type="matrix" values="0 0 0 0 0 0 0 0 0 0 0 0 0 0 0 0 0 0 127 0"/>
<feOffset/>
<feGaussianBlur stdDeviation="15"/>
<feColorMatrix type="matrix" values="0 0 0 0 0 0 0 0 0 0 0 0 0 0 0 0 0 0 0.35 0"/>
<feBlend mode="normal" in2="BackgroundImageFix" result="effect1_dropShadow"/>
<feBlend mode="normal" in="SourceGraphic" in2="effect1_dropShadow" result="shape"/>
</filter>
<filter id="filter15_d" x="545.92" y="439.543" width="920.548" height="908.008" filterUnits="userSpaceOnUse" color-interpolation-filters="sRGB">
<feFlood flood-opacity="0" result="BackgroundImageFix"/>
<feColorMatrix in="SourceAlpha" type="matrix" values="0 0 0 0 0 0 0 0 0 0 0 0 0 0 0 0 0 0 127 0"/>
<feOffset/>
<feGaussianBlur stdDeviation="15"/>
<feColorMatrix type="matrix" values="0 0 0 0 0 0 0 0 0 0 0 0 0 0 0 0 0 0 0.35 0"/>
<feBlend mode="normal" in2="BackgroundImageFix" result="effect1_dropShadow"/>
<feBlend mode="normal" in="SourceGraphic" in2="effect1_dropShadow" result="shape"/>
</filter>
<filter id="filter16_d" x="565.919" y="669.981" width="920.548" height="908.008" filterUnits="userSpaceOnUse" color-interpolation-filters="sRGB">
<feFlood flood-opacity="0" result="BackgroundImageFix"/>
<feColorMatrix in="SourceAlpha" type="matrix" values="0 0 0 0 0 0 0 0 0 0 0 0 0 0 0 0 0 0 127 0"/>
<feOffset/>
<feGaussianBlur stdDeviation="15"/>
<feColorMatrix type="matrix" values="0 0 0 0 0 0 0 0 0 0 0 0 0 0 0 0 0 0 0.35 0"/>
<feBlend mode="normal" in2="BackgroundImageFix" result="effect1_dropShadow"/>
<feBlend mode="normal" in="SourceGraphic" in2="effect1_dropShadow" result="shape"/>
</filter>
</defs>
</svg>
