<svg width="12" height="11" viewBox="0 0 12 11" fill="none" xmlns="http://www.w3.org/2000/svg">
<path fill-rule="evenodd" clip-rule="evenodd" d="M6.14453 11C9.18164 11 11.6445 8.53711 11.6445 5.5C11.6445 2.46289 9.18164 0 6.14453 0C3.10742 0 0.644531 2.46289 0.644531 5.5C0.644531 8.53711 3.10742 11 6.14453 11ZM5.82812 5.85254C5.75098 6.04004 5.71191 6.2627 5.71191 6.52051V6.70215H6.32227V6.37598C6.32227 6.25977 6.35352 6.15137 6.41699 6.0498C6.47949 5.94922 6.5625 5.86523 6.66406 5.7998C6.7832 5.72754 6.89746 5.64941 7.00586 5.56641C7.10938 5.4873 7.20801 5.40332 7.30273 5.31445C7.40527 5.22266 7.4873 5.10449 7.5498 4.95703C7.61328 4.80566 7.64453 4.63672 7.64453 4.44922V4.06934C7.64453 3.68066 7.52832 3.4043 7.2959 3.24316C7.06836 3.08105 6.69336 3 6.16992 3C5.64648 3 5.13867 3.04785 4.64453 3.14453V3.69824C5.23047 3.5918 5.69336 3.53906 6.03223 3.53906C6.36621 3.53906 6.60059 3.5791 6.73633 3.66016C6.81934 3.70801 6.87891 3.78223 6.91211 3.88184C6.93555 3.9502 6.94727 4.03027 6.94727 4.12305V4.35059C6.94727 4.67383 6.80176 4.9375 6.51172 5.13965C6.46387 5.1709 6.4082 5.20996 6.34473 5.25781L6.14844 5.41309C6.01758 5.51367 5.91113 5.66016 5.82812 5.85254ZM6.43164 7.18066H5.58887V8H6.43164V7.18066Z" fill="#37393C"/>
</svg>
