<svg width="9" height="33" viewBox="0 0 9 33" fill="none" xmlns="http://www.w3.org/2000/svg">
<g clip-path="url(#clip0)">
<path d="M9.00011 28.6855C8.97258 28.3423 8.91363 28.0024 8.82402 27.6702C8.70983 27.2341 8.55929 26.8085 8.37402 26.3981C8.29745 26.2043 8.24106 26.0031 8.20576 25.7976C8.15098 25.5408 8.10793 25.2761 8.08446 25.1023C8.08446 25.0509 8.08446 24.9403 8.11576 24.7783C8.14707 24.6163 8.16272 24.3833 8.19794 24.1502C8.23315 23.9171 8.27228 23.6563 8.31141 23.3838C8.35054 23.1112 8.40924 22.7477 8.46011 22.4277L8.58141 21.5428V21.4835L8.70272 20.7526C8.73794 20.5235 8.76924 20.3299 8.7888 20.1917L8.81228 20.0178C8.81228 19.9823 8.81228 19.9467 8.81228 19.927C8.8113 19.8478 8.78676 19.7707 8.74185 19.7057C8.71956 19.6663 8.69333 19.6292 8.66359 19.5951V11.6939C8.7274 11.6208 8.76223 11.5266 8.76141 11.4292C8.76495 11.2709 8.74784 11.1128 8.71054 10.9591C8.60397 10.4951 8.46403 10.0395 8.29185 9.5961C7.90054 8.56104 7.37228 7.36005 6.99272 6.56992L6.97315 6.53042H6.93402C6.89922 6.51142 6.87067 6.48259 6.85185 6.44746C6.80726 6.37055 6.76929 6.28993 6.73837 6.20647C6.6477 5.94873 6.57577 5.68465 6.52315 5.41634C6.40576 4.85536 6.31185 4.21141 6.25707 3.74918H6.60141L6.65228 3.56746L6.26098 3.44104V3.31857H6.5662V2.5798V2.47313L6.40576 0.695356V0.604492H2.59446V0.695356L2.43402 2.46918L2.4262 2.5798V3.31857H2.73924V3.44104L2.34794 3.56746L2.38315 3.76499H2.73924C2.68446 4.22721 2.59054 4.87116 2.47315 5.43215C2.43794 5.59807 2.39881 5.7561 2.35967 5.89437C2.32054 6.03264 2.29315 6.1156 2.25794 6.20647C2.22701 6.28993 2.18905 6.37055 2.14446 6.44746C2.12564 6.48259 2.09708 6.51142 2.06228 6.53042H2.02315V6.56992C1.69446 7.19807 1.29924 8.07116 0.958805 8.90079C0.864892 9.13387 0.774892 9.36301 0.692718 9.5882C0.521632 10.0374 0.381729 10.4981 0.274023 10.967C0.236722 11.1207 0.219619 11.2788 0.223153 11.4371C0.224408 11.5341 0.258986 11.6277 0.320979 11.7018V19.603C0.291232 19.6371 0.26501 19.6742 0.242718 19.7136C0.200307 19.7798 0.176005 19.8561 0.172284 19.9349C0.172284 19.9349 0.172284 19.9902 0.172284 20.0257L0.195762 20.1996C0.195762 20.3378 0.246631 20.5314 0.281849 20.7605L0.391414 21.4756V21.5349L0.52837 22.4277C0.57924 22.7477 0.63011 23.0756 0.677066 23.3838C0.724023 23.6919 0.782718 23.9131 0.810109 24.1502L0.857066 24.4939L0.892283 24.7783C0.909493 24.8855 0.919949 24.9937 0.923588 25.1023C0.923588 25.1773 0.90011 25.2682 0.884457 25.3709C0.868805 25.4736 0.833588 25.6514 0.802283 25.7976C0.770979 25.9438 0.727936 26.1294 0.692718 26.248C0.677242 26.2995 0.657612 26.3497 0.634023 26.3981C0.448752 26.8085 0.298215 27.2341 0.184023 27.6702C0.0348151 28.1825 -0.0208734 28.718 0.0196749 29.2504C-0.0121903 29.8366 0.0378664 30.4245 0.168371 30.9966C0.213466 31.1748 0.272342 31.3492 0.344457 31.5181C0.392652 31.625 0.448904 31.728 0.512718 31.8262C0.659179 32.06 0.886531 32.2304 1.15054 32.3042C1.96697 32.4638 2.81221 32.3673 3.57272 32.0277C3.61081 32.0631 3.64614 32.1014 3.67837 32.1423L3.70967 32.1739L3.85837 32.3319C3.98133 32.4773 4.15233 32.5727 4.33967 32.6005V32.5018V32.6045H4.64489C4.83097 32.5789 5.00106 32.4846 5.12228 32.3398L5.18881 32.2726L5.27489 32.1778L5.30228 32.1462C5.33687 32.1062 5.37344 32.068 5.41185 32.0317C6.17242 32.371 7.01759 32.4675 7.83402 32.3082C7.9864 32.2683 8.12722 32.1925 8.24489 32.087C8.33056 32.011 8.40677 31.9247 8.47185 31.8302C8.63174 31.575 8.74813 31.2946 8.8162 31.0005C8.9486 30.4287 8.99868 29.8406 8.96489 29.2544C8.99445 29.0663 9.00624 28.8758 9.00011 28.6855ZM8.79272 29.2583C8.82617 29.826 8.77739 30.3957 8.64793 30.9492C8.58924 31.222 8.48184 31.4817 8.33098 31.7156C8.21358 31.9093 8.02747 32.0506 7.81054 32.1107C7.01721 32.2613 6.19713 32.1606 5.46272 31.8223L5.38837 31.8144L5.34141 31.8539C5.27923 31.9068 5.22163 31.9649 5.16924 32.0277L5.13794 32.0633L5.09098 32.1107L4.99315 32.2134C4.90493 32.3222 4.78168 32.3963 4.64489 32.4228H4.35141C4.21215 32.3971 4.08618 32.323 3.99533 32.2134C3.94837 32.166 3.90141 32.1146 3.85837 32.0633L3.82315 32.0277C3.77107 31.9659 3.71485 31.9079 3.65489 31.8539L3.60402 31.8144H3.54924C2.81483 32.1527 1.99475 32.2534 1.20141 32.1028C0.984483 32.0427 0.798378 31.9014 0.680979 31.7077C0.531474 31.4731 0.424175 31.2136 0.364023 30.9413C0.236507 30.3875 0.187757 29.8181 0.21924 29.2504C0.182602 28.7344 0.240979 28.216 0.391414 27.7215C0.50055 27.2975 0.645876 26.8837 0.825762 26.485C0.910556 26.2765 0.972236 26.0592 1.00967 25.8371C1.06446 25.5724 1.11141 25.2998 1.13489 25.126C1.13489 25.0865 1.13489 25.0193 1.13489 24.9363L1.11533 24.7704C1.11533 24.6005 1.06446 24.3754 1.02924 24.1383C0.958805 23.6405 0.864892 23.0203 0.770979 22.4119L0.602718 21.5033V21.444L0.48924 20.725C0.454023 20.4958 0.426631 20.3062 0.407066 20.164L0.391414 19.9981V19.9467C0.386662 19.9219 0.386662 19.8964 0.391414 19.8717V19.8084L0.442284 19.7413L0.473588 19.7097L0.500979 19.6781V11.5872L0.446197 11.5596C0.446197 11.5596 0.410979 11.5319 0.403153 11.4252C0.399328 11.2841 0.415134 11.1432 0.45011 11.0065C0.485327 10.8405 0.536197 10.647 0.598805 10.4376C0.661414 10.2282 0.782718 9.94375 0.876631 9.69091C1.26794 8.67955 1.77663 7.50227 2.15228 6.7161C2.2111 6.68066 2.25968 6.63026 2.29315 6.56992C2.34967 6.48365 2.39566 6.3908 2.43011 6.29338C2.52317 6.03576 2.59771 5.7717 2.65315 5.50326C2.73533 5.1082 2.80185 4.71313 2.85663 4.31807C2.88794 4.08894 2.91533 3.8756 2.93098 3.69783V3.58721V3.12104H2.62967V2.72597H2.78228V2.37832H2.64141L2.77446 0.798072H6.21794L6.35098 2.37832H6.21011V2.72597H6.36272V3.12104H6.0575V3.5635V3.67412C6.10837 4.14425 6.2062 4.85931 6.33533 5.4677C6.39077 5.73615 6.46531 6.00021 6.55837 6.25783C6.59282 6.35524 6.63881 6.44809 6.69533 6.53437C6.71826 6.56972 6.74446 6.60279 6.77359 6.63313C6.79173 6.65231 6.81289 6.66832 6.8362 6.68054C7.2275 7.47066 7.7362 8.65585 8.11185 9.65536C8.27976 10.0901 8.41705 10.5364 8.52272 10.9907C8.55769 11.1273 8.5735 11.2683 8.56967 11.4094C8.56967 11.5161 8.53446 11.5398 8.52663 11.5438L8.47185 11.5714V19.6781L8.50315 19.7097L8.53054 19.7413L8.58141 19.8084C8.58288 19.8229 8.58288 19.8375 8.58141 19.8519C8.5939 19.8764 8.6006 19.9034 8.60098 19.9309V19.9941L8.57359 20.16V20.2628L8.50315 20.721L8.38967 21.44V21.4993L8.24881 22.3921C8.15489 23.0005 8.06098 23.6208 7.99054 24.1186L7.9475 24.4307L7.90446 24.7507C7.88489 24.9166 7.87315 25.043 7.87315 25.1062C7.89663 25.28 7.94359 25.5526 7.99837 25.8173C8.02967 25.9714 8.06489 26.1255 8.10402 26.2519C8.125 26.3248 8.15115 26.3961 8.18228 26.4652C8.27832 26.6706 8.36195 26.8817 8.43272 27.0973C8.49924 27.283 8.56185 27.4924 8.61663 27.7018C8.76363 28.1929 8.81805 28.7075 8.77707 29.2188L8.79272 29.2583Z" fill="#BBBBBB"/>
<path opacity="0.29" fill-rule="evenodd" clip-rule="evenodd" d="M6.33941 2.61159H2.65332V2.41406H6.33941V2.61159Z" fill="#BBBBBB"/>
<path fill-rule="evenodd" clip-rule="evenodd" d="M8.67187 11.6262H0.235352V11.4287H8.67187V11.6262Z" fill="#3C3C3C" fill-opacity="0.11"/>
<path fill-rule="evenodd" clip-rule="evenodd" d="M8.67177 19.8167H0.293945V19.6191H8.67177V19.8167Z" fill="#3C3C3C" fill-opacity="0.11"/>
<path fill-rule="evenodd" clip-rule="evenodd" d="M6.90286 7.43283C6.77699 7.396 6.64413 7.3907 6.51578 7.4174L6.51188 7.41821L6.50794 7.4187C6.28973 7.4457 5.99655 7.51511 5.66525 7.59354C5.54595 7.62178 5.42171 7.6512 5.29424 7.68022C4.81943 7.78834 4.30506 7.88955 3.87038 7.88955C3.46687 7.88955 3.08138 7.81665 2.7311 7.75041C2.70508 7.74549 2.67925 7.7406 2.65363 7.73579C2.27734 7.66509 1.95064 7.61091 1.66666 7.65531L1.63672 7.4601C1.95926 7.40968 2.31929 7.47205 2.68942 7.54159C2.71421 7.54625 2.73907 7.55095 2.764 7.55566C3.11722 7.62239 3.4858 7.69202 3.87038 7.69202C4.28092 7.69202 4.77612 7.59571 5.2512 7.48753C5.37233 7.45995 5.49255 7.43148 5.60959 7.40377C5.94325 7.32475 6.25101 7.25188 6.48025 7.22312C6.63853 7.19086 6.8022 7.19771 6.95733 7.24311C7.11375 7.28888 7.25675 7.37247 7.37396 7.48662L7.23811 7.62878C7.1438 7.53692 7.02873 7.46966 6.90286 7.43283Z" fill="black" fill-opacity="0.11"/>
</g>
<defs>
<clipPath id="clip0">
<rect width="9" height="32" fill="white" transform="translate(0 0.604492)"/>
</clipPath>
</defs>
</svg>
