<svg xmlns="http://www.w3.org/2000/svg" viewBox="0 0 1923.5 677.43"><defs><style>.cls-1{fill:#fff;}.cls-2{fill:#f40009;}</style></defs><title>3</title><g id="Слой_2" data-name="Слой 2"><g id="Слой_1-2" data-name="Слой 1"><path class="cls-1" d="M0,0C2.94,93.22.84,430.19,3.5,620.14v57.29c65.3-27.5,133.2-47.1,176.9-54.1,13.6-2.2,28.8-4.1,45.2-5.9,8-1.7,15.4-3.1,22.3-4.2,55.9-9,137.5-14.1,228-19.7,95.8-6,201.6-12.6,297.5-25.1C838.6,557.13,896,542,938,521.23c132.6-65.7,272.3-162.1,364.3-225.6,25-17.3,46.5-32.1,63.4-43.2,146.3-96.5,258.4-120,364.1-142.1,3.2-.7,6.4-1.3,9.6-2,13.3-3.1,26.4-5.9,39.4-8.5l9.2-2.1a630.39,630.39,0,0,1,67.8-12.3,674.39,674.39,0,0,1,67.7-9.2V1"/><path class="cls-2" d="M1923.5,26c-40.5,15.2-88.2,32-144.2,47.1-20.8,5.6-42.6,10.1-65.8,15h0c-84.5,17.6-187,39-323,128.7-16.8,11.1-38.3,25.9-63.3,43.2h0c-92,63.5-231.6,160-364.3,225.6-114,56.4-341.1,70.6-529.6,82.4h0c-90.6,5.7-172.2,10.8-228,19.7-49.3,7.9-129.4,31.8-201.8,65.1v24.6c65.3-27.5,133.2-47.1,176.9-54.1,13.6-2.2,28.8-4.1,45.2-5.9,8-1.7,15.4-3.1,22.3-4.2,55.9-9,137.5-14.1,228-19.7h0c95.8-6,201.6-12.6,297.5-25.1C838.6,557.13,896,542,938,521.23c132.6-65.7,272.3-162.1,364.3-225.6,25-17.3,46.5-32.1,63.4-43.2,146.3-96.5,258.4-120,364.1-142.1,3.2-.7,6.4-1.3,9.6-2,13.3-3.1,26.4-5.9,39.4-8.5l9.2-2.1a630.39,630.39,0,0,1,67.8-12.3,674.39,674.39,0,0,1,67.7-9.2"/></g></g></svg>