<?xml version="1.0" encoding="utf-8"?>
<!-- Generator: Adobe Illustrator 22.1.0, SVG Export Plug-In . SVG Version: 6.00 Build 0)  -->
<svg version="1.1" id="Слой_1" xmlns="http://www.w3.org/2000/svg" xmlns:xlink="http://www.w3.org/1999/xlink" x="0px" y="0px"
	 viewBox="0 0 1919.8 661.1" style="enable-background:new 0 0 1919.8 661.1;" xml:space="preserve">
<style type="text/css">
	.st0{fill:#FFFFFF;}
	.st1{fill:#F40009;}
</style>
<g>
	<path class="st0" d="M1919.8,15.4c-178.1-49.8-531.3,27-839.6,144.1c-126.8,48.2-383.8,57.2-556.6,63.3l0,0
		c-76,2.7-135.7,4.8-160.8,9.4C189.7,263.8,73.9,323.3,0,404.4l0.1,256.7h485.8c0,0,174.8-0.9,267.4-0.3l236.5-5.5
		c190.1,5.8,536.1,5.8,536.1,5.8h394"/>
	<path class="st1" d="M1919.8,15.4c-178.1-49.8-531.3,27-839.6,144.1c-126.8,48.2-383.8,57.2-556.6,63.3l0,0
		c-74.3,2.6-133.1,4.7-159.1,9.1c-1.3,0.2-2.7,0.4-4.1,0.6c-152.8,18.2-287,24.2-360.5,104.8L0,426
		c74.2-102.1,223.1-153.3,380.2-173.3c38.8-4.9,107-4.2,187.7-3.3l0,0c174.8,1.9,408.3,4.5,528-48.8
		C1412.1,60,1681.5-16.2,1919.8,51.9"/>
</g>
</svg>
