<svg xmlns="http://www.w3.org/2000/svg" viewBox="0 0 1919.8 661.14">
    <defs>
        <style>.cls-1{fill:#ffffff;}.cls-2{fill:#f40009;}</style>
    </defs>
    <title>Ресурс 2</title>
    <g id="Слой_2" data-name="Слой 2">
        <g id="Слой_1-2" data-name="Слой 1">
            <path class="cls-1"
                  d="M1919.8,15.42c-178.07-49.78-531.25,27-839.57,144.07-126.81,48.15-383.84,57.19-556.6,63.26h0c-76,2.67-135.67,4.77-160.8,9.37C189.68,263.84,73.93,323.31,0,404.4L.05,661.14H485.8s174.79-.88,267.36-.27l236.5-5.53c190.14,5.8,536.14,5.8,536.14,5.8h394"/>
            <path class="cls-2"
                  d="M1919.8,15.42c-178.07-49.78-531.25,27-839.57,144.07-126.81,48.15-383.84,57.19-556.6,63.26h0c-76,2.67-135.67,4.77-160.8,9.37C189.68,263.84,73.93,323.31,0,404.4l.05,88.73c74.2-102.08,223-220.46,380.11-240.48,38.78-4.94,107-4.19,187.72-3.31h0c174.84,1.91,408.3,4.46,528-48.76C1412.05,60,1681.48-16.23,1919.8,51.87"/>
        </g>
    </g>
</svg>