<svg width="10" height="12" viewBox="0 0 10 12" fill="none" xmlns="http://www.w3.org/2000/svg">
<path d="M9.42803 4.45282L3.58777 10.9127C2.86923 11.7075 1.70019 11.7075 0.98242 10.9131C0.263877 10.1183 0.263877 8.82531 0.98242 8.03022L1.73553 7.19628L6.8219 1.57018L7.4346 0.892847C7.91906 0.356696 8.70734 0.356696 9.19257 0.892847C9.67703 1.42918 9.67703 2.3016 9.19257 2.83769L7.57578 4.6266L3.49427 9.14155L3.40022 9.24559C3.15769 9.51345 2.76338 9.51387 2.52085 9.24559C2.27832 8.97772 2.27832 8.54154 2.52085 8.27326L6.69663 3.65427C6.78344 3.55849 6.78344 3.40292 6.69663 3.30689C6.60966 3.21087 6.46979 3.21087 6.3826 3.30689L2.20704 7.92612C1.79112 8.38579 1.79112 9.13372 2.20704 9.59315C2.6222 10.0528 3.29811 10.0524 3.71403 9.59315L3.80808 9.48911L7.88959 4.97416L9.50638 3.18525C10.1642 2.45754 10.1648 1.27361 9.50638 0.54565C8.84869 -0.181883 7.77848 -0.181883 7.12018 0.54565L6.50826 1.22299L1.42194 6.84933L0.668829 7.68284C-0.222943 8.66883 -0.222943 10.2738 0.668829 11.2602C1.56 12.2467 3.01064 12.2465 3.90235 11.2602L9.74184 4.8002C9.82881 4.70442 9.82881 4.54909 9.74184 4.45306C9.65486 4.35686 9.515 4.35686 9.42803 4.45282Z" fill="#F40009"/>
</svg>
