<svg width="23" height="32" viewBox="0 0 23 32" fill="none" xmlns="http://www.w3.org/2000/svg">
<path d="M22.7879 25.946L21.2406 23.0161V15.7806C21.2406 11.3077 18.2632 7.52362 14.2029 6.33875V2.727C14.203 1.22331 12.9905 0 11.5 0C10.0096 0 8.79708 1.22331 8.79708 2.727V6.33881C4.73694 7.52375 1.75938 11.3078 1.75938 15.7806V23.0161L0.212118 25.946C-0.0858615 26.5102 -0.0690112 27.1742 0.257093 27.7224C0.58326 28.2705 1.15624 28.5977 1.78992 28.5977H7.93276C8.03739 30.4916 9.5971 32 11.5 32C13.4029 32 14.9627 30.4916 15.0673 28.5977H21.2102C21.8438 28.5977 22.4168 28.2705 22.743 27.7224C23.069 27.1742 23.0858 26.5102 22.7879 25.946ZM10.2273 2.727C10.2273 2.01888 10.7982 1.44288 11.5 1.44288C12.2017 1.44288 12.7727 2.01888 12.7727 2.727V6.0375C12.356 5.98237 11.9312 5.95363 11.5 5.95363C11.0686 5.95363 10.6439 5.98244 10.2273 6.0375V2.727ZM3.18962 15.7806C3.18962 11.1576 6.91764 7.39638 11.5 7.39638C16.0824 7.39638 19.8104 11.1576 19.8104 15.7806V22.4191H3.18962V15.7806ZM11.5 30.5571C10.3861 30.5571 9.46837 29.6951 9.36677 28.5977H13.6334C13.5317 29.6951 12.6138 30.5571 11.5 30.5571ZM21.5167 26.9797C21.4854 27.0324 21.3929 27.1549 21.2102 27.1549H1.78992C1.60729 27.1549 1.51468 27.0324 1.48339 26.9797C1.45205 26.9272 1.38849 26.7871 1.47441 26.6244L2.93327 23.862H20.0669L21.5258 26.6244C21.6116 26.7871 21.5479 26.9271 21.5167 26.9797Z" fill="#F40009"/>
<path d="M11.5 9.31958C7.96869 9.31958 5.0957 12.2181 5.0957 15.7807C5.0957 16.1791 5.41586 16.5021 5.81079 16.5021C6.20572 16.5021 6.52588 16.1791 6.52588 15.7807C6.52588 13.0137 8.75726 10.7625 11.5 10.7625C11.8949 10.7625 12.2151 10.4394 12.2151 10.041C12.2151 9.64252 11.8949 9.31958 11.5 9.31958Z" fill="#F40009"/>
</svg>
