<svg width="273" height="834" viewBox="0 0 273 834" fill="none" xmlns="http://www.w3.org/2000/svg">
<g filter="url(#filter0_d)">
<path fill-rule="evenodd" clip-rule="evenodd" d="M32.6421 540.007C43.91 595.845 43.5465 644.772 33.3691 687.697C17.9212 733.35 5.19945 778.275 59.1761 802.284C114.061 817.926 168.765 818.653 223.65 799.919C249.639 789.006 256 762.633 251.82 728.075C234.191 676.966 225.104 622.946 239.643 560.924C252.002 493.263 252.183 424.874 241.824 355.94C235.645 314.47 228.012 294.463 214.563 256.268C203.295 223.71 194.572 190.425 188.938 156.049C185.303 133.678 184.758 119.854 185.485 97.4827C195.481 85.1145 194.754 70.9276 185.485 55.2855C188.211 54.7399 191.119 54.3761 191.846 50.1928C195.117 27.821 180.578 20.7275 166.766 20C149.319 20 131.872 20 114.425 20C87.7092 20 84.4378 29.0942 82.6204 38.7341C81.3483 49.1015 83.1657 54.558 89.1631 55.6493C80.4396 69.8363 77.35 84.0232 88.9813 97.6645C104.429 239.17 -16.2458 315.198 32.6421 540.007Z" fill="#F5F6FA"/>
<path d="M33.1323 539.908L33.1307 539.901C8.71213 427.613 26.6367 352.5 48.7449 287.759C52.4101 277.025 56.1927 266.573 59.9175 256.279C78.6558 204.497 95.9344 156.749 89.4784 97.6103L89.4617 97.4573L89.3618 97.3401C83.6244 90.6112 81.5373 83.779 81.9383 76.8906C82.3404 69.9819 85.2481 62.9707 89.589 55.9112L89.972 55.2883L89.2526 55.1574C87.8226 54.8972 86.6682 54.3822 85.7515 53.6195C84.8351 52.8569 84.1313 51.8259 83.634 50.4952C82.6334 47.8175 82.4835 43.9657 83.1148 38.8109C84.0203 34.0126 85.269 29.4978 89.4966 26.1438C93.7473 22.7713 101.104 20.5 114.425 20.5H114.527H114.629H114.732H114.834H114.936H115.038H115.14H115.243H115.345H115.447L115.549 20.5H115.652H115.754H115.856H115.958H116.061H116.163H116.265H116.367H116.469H116.572H116.674H116.776H116.878H116.981H117.083H117.185H117.287H117.389H117.492H117.594H117.696H117.798H117.901H118.003H118.105H118.207H118.31H118.412H118.514H118.616H118.718H118.821H118.923H119.025H119.127H119.23H119.332H119.434H119.536H119.638H119.741H119.843H119.945H120.047H120.15H120.252H120.354H120.456H120.559H120.661H120.763H120.865H120.967H121.07H121.172H121.274H121.376H121.479H121.581H121.683H121.785H121.888H121.99H122.092H122.194H122.296H122.399H122.501H122.603H122.705H122.808H122.91H123.012H123.114H123.216H123.319H123.421H123.523H123.625H123.728H123.83H123.932H124.034H124.137H124.239H124.341H124.443H124.545H124.648H124.75H124.852H124.954H125.057H125.159H125.261H125.363H125.466H125.568H125.67H125.772H125.874H125.977H126.079H126.181H126.283H126.386H126.488H126.59H126.692H126.794H126.897H126.999H127.101H127.203H127.306H127.408H127.51H127.612H127.715H127.817H127.919H128.021H128.123H128.226H128.328H128.43H128.532H128.635H128.737H128.839H128.941H129.044H129.146H129.248H129.35H129.452H129.555H129.657H129.759H129.861H129.964H130.066H130.168H130.27H130.372H130.475H130.577H130.679H130.781H130.884H130.986H131.088H131.19H131.293H131.395H131.497H131.599H131.701H131.804H131.906H132.008H132.11H132.213H132.315H132.417H132.519H132.622H132.724H132.826H132.928H133.03H133.133H133.235H133.337H133.439H133.542H133.644H133.746H133.848H133.95H134.053H134.155H134.257H134.359H134.462H134.564H134.666H134.768H134.871H134.973H135.075H135.177H135.279H135.382H135.484H135.586H135.688H135.791H135.893H135.995H136.097H136.2H136.302H136.404H136.506H136.608H136.711H136.813H136.915H137.017H137.12H137.222H137.324H137.426H137.528H137.631H137.733H137.835H137.937H138.04H138.142H138.244H138.346H138.449H138.551H138.653H138.755H138.857H138.96H139.062H139.164H139.266H139.369H139.471H139.573H139.675H139.777H139.88H139.982H140.084H140.186H140.289H140.391H140.493H140.595H140.698H140.8H140.902H141.004H141.106H141.209H141.311H141.413H141.515H141.618H141.72H141.822H141.924H142.027H142.129H142.231H142.333H142.435H142.538H142.64H142.742H142.844H142.947H143.049H143.151H143.253H143.355H143.458H143.56H143.662H143.764H143.867H143.969H144.071H144.173H144.276H144.378H144.48H144.582H144.684H144.787H144.889H144.991H145.093H145.196H145.298H145.4H145.502H145.605H145.707H145.809H145.911H146.013H146.116H146.218H146.32H146.422H146.525H146.627H146.729H146.831H146.933H147.036H147.138H147.24H147.342H147.445H147.547H147.649H147.751H147.854H147.956H148.058H148.16H148.262H148.365H148.467H148.569H148.671H148.774H148.876H148.978H149.08H149.183H149.285H149.387H149.489H149.591H149.694H149.796H149.898H150H150.103H150.205H150.307H150.409H150.511H150.614H150.716H150.818H150.92H151.023H151.125H151.227H151.329H151.432H151.534H151.636H151.738H151.84H151.943H152.045H152.147H152.249H152.352H152.454H152.556H152.658H152.76H152.863H152.965H153.067H153.169H153.272H153.374H153.476H153.578H153.681H153.783H153.885H153.987H154.089H154.192H154.294H154.396H154.498H154.601H154.703H154.805H154.907H155.01H155.112H155.214H155.316H155.418H155.521H155.623H155.725H155.827H155.93H156.032H156.134H156.236H156.338H156.441H156.543H156.645H156.747H156.85H156.952H157.054H157.156H157.259H157.361H157.463H157.565H157.667H157.77H157.872H157.974H158.076H158.179H158.281H158.383H158.485H158.588H158.69H158.792H158.894H158.996H159.099H159.201H159.303H159.405H159.508H159.61H159.712H159.814H159.916H160.019H160.121H160.223H160.325H160.428H160.53H160.632H160.734H160.837H160.939H161.041H161.143H161.245H161.348H161.45H161.552H161.654H161.757H161.859H161.961H162.063H162.166H162.268H162.37H162.472H162.574H162.677H162.779H162.881H162.983H163.086H163.188H163.29H163.392H163.494H163.597H163.699H163.801H163.903H164.006H164.108H164.21H164.312H164.415H164.517H164.619H164.721H164.823H164.926H165.028H165.13H165.232H165.335H165.437H165.539H165.641H165.744H165.846H165.948H166.05H166.152H166.255H166.357H166.459H166.561H166.664H166.753C173.593 20.8623 180.54 22.7992 185.369 27.3439C190.176 31.8671 192.968 39.0539 191.352 50.1137C191.01 52.0719 190.179 53.0731 189.161 53.6724C188.194 54.242 187.031 54.4709 185.78 54.7175C185.65 54.7431 185.519 54.7689 185.387 54.7953L184.695 54.9337L185.055 55.5404C189.66 63.3128 192.12 70.6842 192.209 77.6183C192.298 84.5413 190.026 91.0682 185.096 97.1684L184.991 97.2988L184.985 97.4664C184.257 119.864 184.804 133.72 188.444 156.13L188.445 156.13C194.084 190.537 202.815 223.85 214.091 256.431L214.092 256.434C214.938 258.837 215.761 261.168 216.562 263.436C228.493 297.227 235.547 317.202 241.33 356.014L241.33 356.014C251.681 424.895 251.499 493.223 239.154 560.822C224.595 622.938 233.694 677.039 251.33 728.188C253.408 745.409 252.852 760.536 248.577 772.698C244.306 784.845 236.32 794.052 223.473 799.452C168.712 818.139 114.13 817.419 59.3472 801.813C45.93 795.84 36.6906 788.584 30.6016 780.373C24.5095 772.159 21.5482 762.958 20.7367 753.066C19.1109 733.247 26.1126 710.702 33.8427 687.857L33.8502 687.835L33.8556 687.812C44.0525 644.805 44.4117 595.804 33.1323 539.908Z" stroke="#F5F6FA" stroke-opacity="0.07"/>
</g>
<mask id="mask0" mask-type="alpha" maskUnits="userSpaceOnUse" x="20" y="20" width="233" height="794">
<path fill-rule="evenodd" clip-rule="evenodd" d="M32.6421 540.007C43.91 595.845 43.5465 644.772 33.3691 687.697C17.9212 733.35 5.19945 778.275 59.1761 802.284C114.061 817.926 168.765 818.653 223.65 799.919C249.639 789.006 256 762.633 251.82 728.075C234.191 676.966 225.104 622.946 239.643 560.924C252.002 493.263 252.183 424.874 241.824 355.94C235.645 314.47 228.012 294.463 214.563 256.268C203.295 223.71 194.572 190.425 188.938 156.049C185.303 133.678 184.758 119.854 185.485 97.4827C195.481 85.1145 194.754 70.9276 185.485 55.2855C188.211 54.7399 191.119 54.3761 191.846 50.1928C195.117 27.821 180.578 20.7275 166.766 20C149.319 20 131.872 20 114.425 20C87.7092 20 84.4378 29.0942 82.6204 38.7341C81.3483 49.1015 83.1657 54.558 89.1631 55.6493C80.4396 69.8363 77.35 84.0232 88.9813 97.6645C104.429 239.17 -16.2458 315.198 32.6421 540.007Z" fill="#E51E26"/>
</mask>
<g mask="url(#mask0)">
<path d="M219.002 406.07C311.5 420.5 297.846 447.997 297 470.5C292.363 479.908 243.236 610.537 242.516 612.965C241.616 616 224.997 617.985 198.832 618.412C172.668 618.839 138.395 620.075 131.87 619.799C125.346 619.522 79.8596 622.203 61.8214 621.438C43.7833 620.673 -23.3801 617.825 -28.9378 612.979C-33.3839 609.102 -151.424 440.405 -170.158 384.08C-168.015 316.81 -131.207 304.683 -105.32 318.413C-57.5742 343.735 -13.9109 333.692 23.8137 344.746C46.9079 351.512 56.6913 392.268 95.5012 427.57C131.616 460.42 167.239 397.995 219.002 406.07Z" fill="#F40009"/>
<path d="M185.07 744.89C211.908 777.1 193.655 822.639 181.173 841.382C172.308 846.973 154.106 858.579 152.223 860.272C149.87 862.388 134.68 855.37 112.175 842.021C89.6708 828.673 59.8375 811.764 54.4259 808.108C49.0143 804.453 8.87674 782.899 -6.08474 772.793C-21.0462 762.687 -76.7538 725.058 -78.954 718.014C-80.7142 712.378 -93.0689 506.68 -79.5851 448.838C-42.602 392.606 -4.91893 401.558 9.95101 426.831C37.3769 473.445 79.8093 487.767 106.159 516.963C122.289 534.836 130.278 589.765 105.554 636.059C87.6799 669.528 151.522 704.628 185.07 744.89Z" fill="#F40009"/>
<g filter="url(#filter1_d)">
<path d="M94.2136 448.734C50.4224 447.805 25.1503 492.48 17.9882 514.934C19.2044 525.84 21.5982 548.315 21.4438 550.961C21.2507 554.268 36.8835 562.116 62.4529 571.816C88.0223 581.515 121.277 594.887 127.789 596.929C134.301 598.97 178.065 617.742 196.069 623.386C214.074 629.03 281.112 650.046 288.297 647.246C294.045 645.006 311.728 621.191 319.851 609.564C341.64 542.578 387.179 406.105 395.018 396.101C404.818 383.596 355.837 357.295 331.721 364.47C307.604 371.645 256.567 392.273 234.897 442.737C219.23 479.22 148.953 449.896 94.2136 448.734Z" fill="#DE0B12"/>
</g>
<g filter="url(#filter2_d)">
<path d="M101.646 534.432C133.617 520.324 185.259 554.323 207.084 573.086C214.184 583.62 228.899 605.292 230.956 607.711C233.528 610.736 227.633 622.777 215.688 639.55C203.744 656.322 188.764 678.841 185.407 682.713C182.05 686.585 163.199 717.315 153.917 728.02C144.636 738.725 110.078 778.583 102.665 778.146C96.7344 777.797 66.0657 760.946 51.4726 752.565C-13.952 696.717 -148.099 583.284 -161.289 576.33C-177.777 567.637 -160.563 528.312 -137.313 527.707C-114.063 527.103 -60.8631 530.897 -7.65713 571.381C30.809 600.649 61.683 552.066 101.646 534.432Z" fill="#DE0B12"/>
</g>
<g filter="url(#filter3_d)">
<path d="M83.3178 650.058C42.778 666.751 37.4418 717.786 39.8412 741.217C45.3133 750.717 56.4862 770.338 57.4015 772.823C58.5455 775.929 76.0198 776.853 103.348 775.492C130.677 774.13 166.522 773.053 173.311 772.314C180.1 771.574 227.741 771.231 246.511 769.187C265.28 767.142 335.167 759.53 340.639 754.088C345.017 749.734 351.725 720.842 354.531 706.94C347.761 636.87 335.02 493.654 338.215 481.352C342.208 465.975 286.774 461.513 267.519 477.745C248.263 493.977 209.687 533.313 209.967 588.206C210.17 627.891 133.993 629.192 83.3178 650.058Z" fill="#DE0B12"/>
</g>
<g filter="url(#filter4_d)">
<path d="M76.8404 539.905C79.1401 496.128 35.3176 469.414 13.1188 461.53C2.18927 462.397 -20.3292 464.071 -22.9668 463.832C-26.2637 463.532 -34.5904 478.919 -45.0777 504.187C-55.565 529.455 -69.9601 562.293 -72.2028 568.742C-74.4455 575.191 -94.562 618.37 -100.762 636.2C-106.963 654.03 -130.049 720.419 -127.478 727.696C-125.422 733.518 -102.193 751.971 -90.8364 760.47C-24.6249 784.414 110.234 834.345 119.979 842.508C132.161 852.712 159.96 804.557 153.55 780.201C147.14 755.846 128.139 704.128 78.4232 680.832C42.4804 663.99 73.9657 594.627 76.8404 539.905Z" fill="#F8222A"/>
</g>
<g filter="url(#filter5_d)">
<path d="M22.7886 460.553C10.5861 418.445 -39.5618 407.651 -63.1105 407.517C-73.1454 411.937 -93.8575 420.937 -96.4264 421.579C-99.6376 422.383 -102.447 439.66 -104.053 466.982C-105.659 494.303 -108.468 530.062 -108.468 536.893C-108.468 543.723 -113.285 591.134 -113.285 610.018C-113.285 628.902 -113.285 699.215 -108.468 705.242C-104.615 710.063 -76.6242 719.84 -63.1105 724.126C7.26789 724.93 150.995 727.662 162.876 732.162C177.728 737.787 188.164 683.144 174.116 662.251C160.067 641.358 125.145 598.768 70.555 593.143C31.0882 589.076 38.0417 513.187 22.7886 460.553Z" fill="#DE0B12"/>
</g>
<path d="M365.277 699.613C405.562 688.076 439.782 723.209 451.857 742.218C453.378 752.595 456.618 773.953 457.403 776.361C458.384 779.371 445.827 790.437 424.527 805.637C403.226 820.837 375.708 841.305 370.179 844.78C364.65 848.255 328.72 876.277 313.434 885.884C298.148 895.491 241.232 931.262 233.906 930.426C228.045 929.758 35.1167 857.848 -12.2732 822.104C-48.6859 765.499 -25.2616 734.626 3.84455 731.239C57.5276 724.992 87.7789 691.944 125.113 679.635C147.968 672.101 201.384 687.01 233.677 728.371C257.024 758.274 314.92 714.034 365.277 699.613Z" fill="#F40009"/>
<path d="M273.062 346.417C272.889 304.475 315.95 281.028 337.502 274.547C347.894 275.894 369.31 278.563 371.838 278.459C374.999 278.33 382.236 293.428 391.079 318.071C399.922 342.714 412.145 374.776 413.987 381.045C415.83 387.315 433.037 429.529 438.131 446.862C443.226 464.194 462.195 528.729 459.406 535.561C457.174 541.027 335.725 707.419 288.506 743.389C224.204 763.128 200.865 732.19 205.498 703.228C214.043 649.812 190.464 611.706 188.748 572.398C187.698 548.335 216.515 500.91 265.043 481.009C300.127 466.62 273.279 398.845 273.062 346.417Z" fill="#F40009"/>
<g filter="url(#filter6_d)">
<path d="M43.0371 734.07C0.655312 745.139 -11.4842 795.024 -12.2562 818.584C-8.11443 828.744 0.312183 849.713 0.884553 852.301C1.60002 855.536 18.7776 858.816 46.0191 861.163C73.2606 863.51 108.896 867.291 115.717 867.476C122.538 867.661 169.755 873.765 188.614 874.277C207.473 874.789 277.691 876.695 283.841 872.039C288.76 868.314 299.283 840.571 303.929 827.165C306.639 756.766 313.263 613.026 318.079 601.259C324.099 586.551 269.812 574.627 248.566 588.118C227.32 601.609 183.841 635.398 176.744 689.868C171.613 729.249 96.0143 720.234 43.0371 734.07Z" fill="#F8222A"/>
</g>
<path d="M157 329.5C157 326.737 159.246 324.498 162.017 324.498C164.788 324.498 167.035 326.737 167.035 329.5C167.035 332.262 164.788 334.502 162.017 334.502C159.246 334.502 157 332.262 157 329.5Z" fill="#F40009"/>
<ellipse cx="166.052" cy="380.326" rx="15.052" ry="15.0054" transform="rotate(180 166.052 380.326)" fill="#F40009"/>
<ellipse cx="180.604" cy="374.824" rx="5.51906" ry="5.50198" transform="rotate(180 180.604 374.824)" fill="#F40009"/>
<ellipse cx="165.05" cy="404.335" rx="6.0208" ry="6.00216" transform="rotate(180 165.05 404.335)" fill="#F40009"/>
<ellipse cx="159.029" cy="359.318" rx="5.01733" ry="5.0018" transform="rotate(180 159.029 359.318)" fill="#F40009"/>
<ellipse cx="171.069" cy="317.303" rx="3.0104" ry="3.00108" transform="rotate(180 171.069 317.303)" fill="#F40009"/>
<ellipse cx="172.073" cy="324.306" rx="2.00693" ry="2.00072" transform="rotate(180 172.073 324.306)" fill="#F40009"/>
<ellipse cx="172.575" cy="348.815" rx="8.52946" ry="8.50306" transform="rotate(180 172.575 348.815)" fill="#F40009"/>
<ellipse cx="177.592" cy="342.812" rx="3.51213" ry="3.50126" transform="rotate(180 177.592 342.812)" fill="#F40009"/>
<ellipse cx="94.9994" cy="385.598" rx="1.59084" ry="1.5184" fill="#F40009"/>
<ellipse cx="94.3632" cy="370.11" rx="4.77252" ry="4.55521" fill="#F40009"/>
<ellipse cx="89.7497" cy="371.781" rx="1.74992" ry="1.67024" fill="#F40009"/>
<ellipse cx="94.6807" cy="362.822" rx="1.90901" ry="1.82208" fill="#F40009"/>
<ellipse cx="96.5903" cy="376.488" rx="1.59084" ry="1.5184" fill="#F40009"/>
<ellipse cx="92.7721" cy="389.242" rx="0.954503" ry="0.911042" fill="#F40009"/>
<ellipse cx="92.454" cy="387.116" rx="0.636335" ry="0.607362" fill="#F40009"/>
<ellipse cx="92.2951" cy="379.677" rx="2.70443" ry="2.58129" fill="#F40009"/>
<ellipse cx="90.7043" cy="381.498" rx="1.11359" ry="1.06288" fill="#F40009"/>
<ellipse cx="165.196" cy="273.493" rx="1.83561" ry="1.83102" transform="rotate(180 165.196 273.493)" fill="#F40009"/>
<ellipse cx="165.931" cy="292.169" rx="5.50683" ry="5.49305" transform="rotate(180 165.931 292.169)" fill="#F40009"/>
<ellipse cx="171.253" cy="290.155" rx="2.01917" ry="2.01412" transform="rotate(180 171.253 290.155)" fill="#F40009"/>
<ellipse cx="165.563" cy="300.958" rx="2.20273" ry="2.19722" transform="rotate(180 165.563 300.958)" fill="#F40009"/>
<ellipse cx="163.36" cy="284.479" rx="1.83561" ry="1.83102" transform="rotate(180 163.36 284.479)" fill="#F40009"/>
<ellipse cx="167.766" cy="269.099" rx="1.10137" ry="1.09861" transform="rotate(180 167.766 269.099)" fill="#F40009"/>
<ellipse cx="168.133" cy="271.662" rx="0.734244" ry="0.732407" transform="rotate(180 168.133 271.662)" fill="#F40009"/>
<ellipse cx="168.317" cy="280.634" rx="3.12054" ry="3.11273" transform="rotate(180 168.317 280.634)" fill="#F40009"/>
<ellipse cx="170.153" cy="278.437" rx="1.28493" ry="1.28171" transform="rotate(180 170.153 278.437)" fill="#F40009"/>
</g>
<defs>
<filter id="filter0_d" x="0" y="0" width="273" height="834" filterUnits="userSpaceOnUse" color-interpolation-filters="sRGB">
<feFlood flood-opacity="0" result="BackgroundImageFix"/>
<feColorMatrix in="SourceAlpha" type="matrix" values="0 0 0 0 0 0 0 0 0 0 0 0 0 0 0 0 0 0 127 0"/>
<feOffset/>
<feGaussianBlur stdDeviation="10"/>
<feColorMatrix type="matrix" values="0 0 0 0 0 0 0 0 0 0 0 0 0 0 0 0 0 0 0.11 0"/>
<feBlend mode="normal" in2="BackgroundImageFix" result="effect1_dropShadow"/>
<feBlend mode="normal" in="SourceGraphic" in2="effect1_dropShadow" result="shape"/>
</filter>
<filter id="filter1_d" x="-12.0117" y="333.25" width="438.309" height="344.251" filterUnits="userSpaceOnUse" color-interpolation-filters="sRGB">
<feFlood flood-opacity="0" result="BackgroundImageFix"/>
<feColorMatrix in="SourceAlpha" type="matrix" values="0 0 0 0 0 0 0 0 0 0 0 0 0 0 0 0 0 0 127 0"/>
<feOffset/>
<feGaussianBlur stdDeviation="15"/>
<feColorMatrix type="matrix" values="0 0 0 0 0 0 0 0 0 0 0 0 0 0 0 0 0 0 0.35 0"/>
<feBlend mode="normal" in2="BackgroundImageFix" result="effect1_dropShadow"/>
<feBlend mode="normal" in="SourceGraphic" in2="effect1_dropShadow" result="shape"/>
</filter>
<filter id="filter2_d" x="-197.821" y="497.653" width="459.372" height="310.497" filterUnits="userSpaceOnUse" color-interpolation-filters="sRGB">
<feFlood flood-opacity="0" result="BackgroundImageFix"/>
<feColorMatrix in="SourceAlpha" type="matrix" values="0 0 0 0 0 0 0 0 0 0 0 0 0 0 0 0 0 0 127 0"/>
<feOffset/>
<feGaussianBlur stdDeviation="15"/>
<feColorMatrix type="matrix" values="0 0 0 0 0 0 0 0 0 0 0 0 0 0 0 0 0 0 0.35 0"/>
<feBlend mode="normal" in2="BackgroundImageFix" result="effect1_dropShadow"/>
<feBlend mode="normal" in="SourceGraphic" in2="effect1_dropShadow" result="shape"/>
</filter>
<filter id="filter3_d" x="9.35754" y="437.504" width="375.173" height="368.598" filterUnits="userSpaceOnUse" color-interpolation-filters="sRGB">
<feFlood flood-opacity="0" result="BackgroundImageFix"/>
<feColorMatrix in="SourceAlpha" type="matrix" values="0 0 0 0 0 0 0 0 0 0 0 0 0 0 0 0 0 0 127 0"/>
<feOffset/>
<feGaussianBlur stdDeviation="15"/>
<feColorMatrix type="matrix" values="0 0 0 0 0 0 0 0 0 0 0 0 0 0 0 0 0 0 0.35 0"/>
<feBlend mode="normal" in2="BackgroundImageFix" result="effect1_dropShadow"/>
<feBlend mode="normal" in="SourceGraphic" in2="effect1_dropShadow" result="shape"/>
</filter>
<filter id="filter4_d" x="-157.677" y="431.53" width="342.174" height="442.377" filterUnits="userSpaceOnUse" color-interpolation-filters="sRGB">
<feFlood flood-opacity="0" result="BackgroundImageFix"/>
<feColorMatrix in="SourceAlpha" type="matrix" values="0 0 0 0 0 0 0 0 0 0 0 0 0 0 0 0 0 0 127 0"/>
<feOffset/>
<feGaussianBlur stdDeviation="15"/>
<feColorMatrix type="matrix" values="0 0 0 0 0 0 0 0 0 0 0 0 0 0 0 0 0 0 0.35 0"/>
<feBlend mode="normal" in2="BackgroundImageFix" result="effect1_dropShadow"/>
<feBlend mode="normal" in="SourceGraphic" in2="effect1_dropShadow" result="shape"/>
</filter>
<filter id="filter5_d" x="-143.285" y="377.517" width="354.031" height="385.049" filterUnits="userSpaceOnUse" color-interpolation-filters="sRGB">
<feFlood flood-opacity="0" result="BackgroundImageFix"/>
<feColorMatrix in="SourceAlpha" type="matrix" values="0 0 0 0 0 0 0 0 0 0 0 0 0 0 0 0 0 0 127 0"/>
<feOffset/>
<feGaussianBlur stdDeviation="15"/>
<feColorMatrix type="matrix" values="0 0 0 0 0 0 0 0 0 0 0 0 0 0 0 0 0 0 0.35 0"/>
<feBlend mode="normal" in2="BackgroundImageFix" result="effect1_dropShadow"/>
<feBlend mode="normal" in="SourceGraphic" in2="effect1_dropShadow" result="shape"/>
</filter>
<filter id="filter6_d" x="-42.2562" y="552.224" width="390.798" height="352.874" filterUnits="userSpaceOnUse" color-interpolation-filters="sRGB">
<feFlood flood-opacity="0" result="BackgroundImageFix"/>
<feColorMatrix in="SourceAlpha" type="matrix" values="0 0 0 0 0 0 0 0 0 0 0 0 0 0 0 0 0 0 127 0"/>
<feOffset/>
<feGaussianBlur stdDeviation="15"/>
<feColorMatrix type="matrix" values="0 0 0 0 0 0 0 0 0 0 0 0 0 0 0 0 0 0 0.35 0"/>
<feBlend mode="normal" in2="BackgroundImageFix" result="effect1_dropShadow"/>
<feBlend mode="normal" in="SourceGraphic" in2="effect1_dropShadow" result="shape"/>
</filter>
</defs>
</svg>
