<svg width="867" height="519" viewBox="0 0 867 519" fill="none" xmlns="http://www.w3.org/2000/svg">
<path fill-rule="evenodd" clip-rule="evenodd" d="M283.213 201.051C234.074 229.864 187.688 245.431 143.786 249.765C95.5913 250.002 48.9707 252.58 43.8189 311.43C46.8747 368.419 63.9752 420.386 99.5387 466.197C118.31 487.225 145.318 484.664 176.639 469.473C219.238 436.183 267.367 410.024 330.746 403.604C398.749 393.289 463.479 371.222 525.298 339.01C562.505 319.681 578.943 305.957 610.689 280.819C637.813 259.576 666.452 240.503 697.128 223.997C717.102 213.285 729.996 208.274 751.389 201.687C766.335 207.118 779.515 201.817 791.293 187.965C792.695 190.366 793.985 192.997 798.177 192.324C820.397 188.143 822.377 172.087 818.573 158.789C812.9 142.291 807.226 125.792 801.553 109.293C792.866 84.0293 783.202 83.893 773.495 85.3091C763.277 87.4773 758.708 90.9703 759.627 96.9967C743.374 93.3606 728.953 95.0523 719.836 110.487C591.044 171.111 479.907 81.7168 283.213 201.051Z" fill="#F5F6FA"/>
<mask id="mask0" mask-type="alpha" maskUnits="userSpaceOnUse" x="20" y="19" width="827" height="480">
<path fill-rule="evenodd" clip-rule="evenodd" d="M283.406 200.786C234.266 229.599 187.88 245.165 143.979 249.499C95.7837 249.737 49.1631 252.315 44.0113 311.165C47.067 368.154 64.1676 420.121 99.7311 465.932C118.502 486.959 145.51 484.398 176.831 469.208C219.43 435.918 267.559 409.758 330.939 403.339C398.941 393.023 463.672 370.957 525.491 338.745C562.697 319.416 579.135 305.692 610.882 280.554C638.005 259.311 666.645 240.238 697.32 223.732C717.294 213.02 730.189 208.009 751.581 201.422C766.528 206.852 779.707 201.552 791.485 187.7C792.887 190.101 794.177 192.732 798.369 192.059C820.589 187.878 822.569 171.822 818.766 158.524C813.092 142.025 807.419 125.527 801.745 109.028C793.058 83.7642 783.394 83.6279 773.687 85.044C763.47 87.2122 758.901 90.7052 759.819 96.7315C743.566 93.0955 729.146 94.7871 720.028 110.222C591.236 170.845 480.099 81.4516 283.406 200.786Z" fill="#E51E26"/>
</mask>
<g mask="url(#mask0)">
<g filter="url(#filter0_d)">
<path d="M239.298 207.797C206.159 179.156 158.203 197.452 138.367 210.181C132.349 219.358 119.861 238.196 118.055 240.135C115.797 242.56 122.834 258.574 136.344 282.351C149.854 306.129 166.942 337.635 170.657 343.36C174.371 349.086 196.111 391.453 206.38 407.283C216.649 423.112 254.886 482.05 262.206 484.475C268.062 486.415 296.869 479.347 310.541 475.571C370.042 437.868 492.149 361.785 504.567 359.079C520.09 355.695 499.133 304.201 475.981 294.349C452.829 284.496 400.361 267.839 351.489 292.891C316.155 311.003 280.722 243.599 239.298 207.797Z" fill="#DE0B12"/>
</g>
<path d="M529 197C568.898 184.118 644.268 191.554 657.001 210.128C658.88 220.439 626.05 248.109 626.918 250.487C628.003 253.46 615.824 264.934 595.043 280.833C574.261 296.732 547.442 318.102 542.031 321.759C536.621 325.415 501.648 354.612 486.689 364.723C471.731 374.833 416.033 412.478 408.677 411.89C402.791 411.421 207.338 346.134 158.704 312.042C120.332 256.748 142.698 225.127 171.694 220.761C225.175 212.708 254.295 178.683 291.213 165.13C313.814 156.834 367.757 169.916 401.484 210.128C425.867 239.199 479.128 213.103 529 197Z" fill="#F40009"/>
<g filter="url(#filter1_d)">
<path d="M206.626 161.708C164.625 141.104 120.075 172.921 103.05 191.405C99.3284 202.496 91.5507 225.3 90.2123 227.788C88.5394 230.899 100.157 245.52 120.567 266.403C140.977 287.286 167.182 315.177 172.573 320.081C177.964 324.985 211.922 362.826 226.827 376.384C241.731 389.942 297.227 440.425 305.444 440.952C312.018 441.373 339.845 426.308 352.937 418.722C404.137 363.77 509.558 252.33 521.646 246.186C536.756 238.507 507.5 208.5 490.5 200C466.469 187.984 389.255 180.183 345.593 219.217C314.027 247.437 259.127 187.464 206.626 161.708Z" fill="#F8222A"/>
</g>
<g filter="url(#filter2_d)">
<path d="M478.551 321.992C435.042 327.38 416.408 375.192 412.53 398.425C415.296 409.033 420.886 430.91 421.112 433.549C421.395 436.847 438.003 442.355 464.719 448.263C491.435 454.171 526.289 462.603 533.032 463.684C539.775 464.765 585.812 477.022 604.454 480.01C623.096 482.998 692.508 494.122 699.224 490.319C704.597 487.277 718.701 461.183 725.082 448.517C737.071 379.146 762.632 237.65 768.965 226.63C776.88 212.854 724.598 193.903 701.737 204.47C678.877 215.038 631.278 242.784 617.041 295.801C606.748 334.13 532.937 315.257 478.551 321.992Z" fill="#DE0B12"/>
</g>
<path d="M543.472 274.887C583.37 262.005 618.809 295.931 631.542 314.505C633.421 324.816 637.398 346.034 638.266 348.412C639.351 351.385 627.172 362.86 606.391 378.759C585.609 394.657 558.79 416.027 553.379 419.684C547.969 423.341 512.996 452.538 498.037 462.648C483.079 472.759 427.381 510.403 420.025 509.816C414.139 509.346 218.686 444.059 170.052 409.968C131.68 354.674 154.046 323.052 183.042 318.686C236.523 310.633 265.642 276.609 302.561 263.056C325.162 254.759 379.105 267.842 412.832 308.053C437.215 337.125 493.6 290.989 543.472 274.887Z" fill="#F40009"/>
<g filter="url(#filter3_d)">
<path d="M225.657 237.428C194.961 206.172 145.643 220.454 124.821 231.502C118.068 240.148 104.072 257.886 102.112 259.67C99.6616 261.9 105.366 278.43 116.888 303.226C128.411 328.023 142.867 360.812 146.101 366.821C149.336 372.83 167.54 416.821 176.483 433.433C185.425 450.046 218.721 511.9 225.82 514.918C231.5 517.332 260.804 512.661 274.746 510.023C337.167 477.36 465.158 411.614 477.763 409.939C493.518 407.845 476.843 354.827 454.565 343.109C432.287 331.391 381.335 310.483 330.55 331.419C293.833 346.555 264.027 276.498 225.657 237.428Z" fill="#DE0B12"/>
</g>
<g filter="url(#filter4_d)">
<path d="M376.065 380.508C332.812 387.672 316.154 436.206 313.232 459.578C316.431 470.064 322.913 491.693 323.247 494.32C323.665 497.604 340.486 502.427 367.422 507.236C394.359 512.045 429.53 519.043 436.312 519.847C443.094 520.65 489.596 531.012 508.346 533.234C527.095 535.456 596.907 543.728 603.461 539.654C608.704 536.394 621.727 509.745 627.583 496.829C636.718 427.027 656.455 284.607 662.331 273.336C669.675 259.248 616.658 242.454 594.249 253.949C571.841 265.443 525.419 295.115 513.367 348.669C504.655 387.386 430.13 371.552 376.065 380.508Z" fill="#DE0B12"/>
</g>
<g filter="url(#filter5_d)">
<path d="M452.476 224.316C409.333 216.753 377.574 257.076 367.088 278.183C366.635 289.148 365.591 311.725 365.037 314.317C364.344 317.557 378.605 327.686 402.406 341.153C426.208 354.621 457.048 372.884 463.175 375.89C469.302 378.896 509.71 404.091 526.65 412.402C543.59 420.713 606.662 451.657 614.189 449.98C620.21 448.639 641.302 427.783 651.095 417.523C682.797 354.619 748.517 226.637 757.784 217.938C769.368 207.064 724.945 173.636 700.019 177.068C675.093 180.5 621.517 193.145 592.44 239.736C571.418 273.42 506.405 233.771 452.476 224.316Z" fill="#DE0B12"/>
</g>
<path d="M262.438 558.67C286.448 593.014 264.352 636.799 250.303 654.399C240.984 659.212 221.841 669.221 219.819 670.746C217.292 672.653 202.744 664.376 181.443 649.177C160.143 633.977 131.839 614.61 126.755 610.512C121.671 606.413 83.4879 581.548 69.4322 570.217C55.3765 558.885 3.04159 516.694 1.44979 509.495C0.176358 503.735 5.44181 297.908 23.8328 241.471C65.5201 188.63 102.332 200.742 115 227.165C138.364 275.899 179.454 293.76 203.233 325.062C217.791 344.225 221.062 399.586 192.449 443.574C171.763 475.376 232.426 515.74 262.438 558.67Z" fill="#F40009"/>
<path d="M616.408 199.84C648.527 172.926 694.073 191.117 712.831 203.578C718.439 212.441 730.079 230.638 731.775 232.52C733.895 234.871 726.919 250.085 713.635 272.631C700.352 295.176 683.528 325.062 679.889 330.484C676.249 335.906 654.81 376.112 644.748 391.103C634.686 406.093 597.221 461.909 590.188 464.123C584.561 465.894 379.06 478.604 321.233 465.207C264.958 428.288 273.812 390.559 299.029 375.635C345.539 348.108 359.747 305.618 388.856 279.198C406.676 263.024 461.541 254.937 507.857 279.603C541.342 297.436 576.259 233.482 616.408 199.84Z" fill="#F40009"/>
<path d="M488.388 344.681C527.994 330.878 564.17 363.974 577.307 382.248C579.412 392.513 583.853 413.633 584.773 415.99C585.923 418.937 573.999 430.69 553.57 447.066C533.142 463.442 506.797 485.426 501.468 489.208C496.139 492.989 461.814 522.988 447.08 533.442C432.347 543.895 377.487 582.819 370.119 582.403C364.225 582.07 167.383 521.329 118.013 488.373C78.4368 433.984 100.104 401.854 128.999 396.817C182.291 387.528 210.658 352.838 247.272 338.434C269.686 329.616 323.903 341.446 358.504 380.864C383.519 409.363 438.881 361.934 488.388 344.681Z" fill="#F40009"/>
<g filter="url(#filter6_d)">
<path d="M103.27 273.721C79.021 237.242 27.899 241.984 5.36903 248.915C-2.89272 256.136 -19.9815 270.923 -22.2427 272.306C-25.0691 274.034 -22.5848 291.345 -15.9459 317.869C-9.30707 344.393 -1.29446 379.321 0.748609 385.832C2.79168 392.342 12.3728 438.978 18.0213 456.979C23.6697 474.979 44.7013 542.001 51.1042 546.302C56.2265 549.743 85.8832 550.672 100.071 550.707C167.526 530.377 305.608 489.899 318.301 490.628C334.167 491.538 327.79 436.323 308.123 420.619C288.457 404.915 242.366 374.787 188.548 385.788C149.639 393.742 133.581 319.32 103.27 273.721Z" fill="#F8222A"/>
</g>
<g filter="url(#filter7_d)">
<path d="M707.599 217.507C664.158 211.648 633.957 253.15 624.287 274.634C624.258 285.599 624.088 308.18 623.634 310.789C623.067 314.051 637.722 323.604 662.048 336.116C686.374 348.628 717.925 365.652 724.169 368.413C730.413 371.174 771.802 394.743 789.066 402.376C806.329 410.009 870.607 438.429 878.07 436.46C884.04 434.884 904.327 413.236 913.724 402.608C942.994 338.564 1003.77 208.215 1012.7 199.167C1023.86 187.857 978.139 156.225 953.343 160.629C928.547 165.033 875.453 179.758 848.177 227.413C828.458 261.866 761.901 224.832 707.599 217.507Z" fill="#F8222A"/>
</g>
<g filter="url(#filter8_d)">
<path d="M279.376 376.645C235.554 375.438 209.942 419.913 202.613 442.301C203.753 453.206 205.988 475.675 205.814 478.318C205.598 481.622 221.187 489.562 246.709 499.416C272.231 509.27 305.417 522.841 311.92 524.923C318.423 527.004 362.09 546.037 380.069 551.791C398.048 557.545 464.992 578.969 472.203 576.217C477.972 574.016 495.84 550.335 504.053 538.769C526.339 471.981 572.891 335.919 580.808 325.973C590.705 313.541 541.872 286.952 517.684 293.967C493.496 300.982 442.268 321.267 420.219 371.548C404.279 407.9 334.152 378.154 279.376 376.645Z" fill="#F8222A"/>
</g>
<g filter="url(#filter9_d)">
<path d="M264.332 243.622C304.737 220.044 302.877 165.338 296.897 140.932C289.715 131.696 275.02 112.6 273.687 110.109C272.021 106.994 253.411 108.579 224.72 114.021C196.028 119.463 158.292 125.853 151.223 127.629C144.155 129.405 93.8388 136.748 74.2962 141.658C54.7536 146.568 -18.0113 164.85 -22.9967 171.402C-26.985 176.644 -29.8295 208.154 -30.7532 223.254C-13.2973 296.3 21.222 445.758 19.6524 459.224C17.6903 476.057 76.9509 472.65 94.9219 452.678C112.893 432.706 147.894 385.491 139.53 327.531C133.483 285.629 213.825 273.093 264.332 243.622Z" fill="#DE0B12"/>
</g>
<path d="M-157.329 562.683C-199.179 578.542 -238.718 544.279 -253.256 525.166C-255.797 514.277 -261.141 491.877 -262.19 489.389C-263.502 486.279 -251.12 473.4 -229.801 455.346C-208.482 437.293 -181.013 413.087 -175.437 408.9C-169.861 404.714 -134.11 371.731 -118.695 360.157C-103.279 348.584 -45.8815 305.49 -38.0103 305.723C-31.7133 305.909 179.999 365.046 233.609 398.78C277.388 455.657 255.2 490.551 224.524 496.753C167.945 508.192 138.684 546.007 100.044 562.423C76.3889 572.472 18.2161 561.411 -19.8249 520.359C-47.3273 490.679 -105.016 542.858 -157.329 562.683Z" fill="#F40009"/>
<g filter="url(#filter10_d)">
<path d="M267.648 213.719C311.771 198.169 320.261 144.086 318.99 118.988C313.68 108.564 302.85 87.042 302.011 84.3439C300.962 80.9713 282.39 79.0236 253.189 78.9669C223.988 78.9102 185.727 78.0814 178.451 78.4949C171.175 78.9084 120.382 76.6466 100.265 77.7898C80.1492 78.933 5.24838 83.1896 -0.882633 88.6864C-5.78747 93.0838 -14.5227 123.498 -18.2771 138.155C-14.9101 213.187 -9.19613 366.484 -13.2768 379.415C-18.3777 395.579 40.4571 403.391 61.8703 387.158C83.2836 370.925 126.557 331.14 129.273 272.637C131.237 230.342 212.495 233.156 267.648 213.719Z" fill="#F8222A"/>
</g>
<g filter="url(#filter11_d)">
<path d="M774.869 165.444C731.423 159.619 701.255 201.146 691.602 222.638C691.583 233.602 691.431 256.184 690.979 258.794C690.415 262.056 705.077 271.597 729.413 284.089C753.749 296.582 785.314 313.58 791.561 316.336C797.807 319.091 839.215 342.627 856.485 350.246C873.755 357.865 938.056 386.233 945.517 384.258C951.486 382.678 971.755 361.012 981.144 350.377C1010.36 286.31 1071.03 155.911 1079.95 146.856C1091.11 135.537 1045.36 103.942 1020.57 108.366C995.774 112.791 942.692 127.558 915.455 175.235C895.763 209.704 829.176 172.724 774.869 165.444Z" fill="#DE0B12"/>
</g>
</g>
<defs>
<filter id="filter0_d" x="87.6379" y="162.59" width="452.276" height="352.216" filterUnits="userSpaceOnUse" color-interpolation-filters="sRGB">
<feFlood flood-opacity="0" result="BackgroundImageFix"/>
<feColorMatrix in="SourceAlpha" type="matrix" values="0 0 0 0 0 0 0 0 0 0 0 0 0 0 0 0 0 0 127 0"/>
<feOffset/>
<feGaussianBlur stdDeviation="15"/>
<feColorMatrix type="matrix" values="0 0 0 0 0 0 0 0 0 0 0 0 0 0 0 0 0 0 0.35 0"/>
<feBlend mode="normal" in2="BackgroundImageFix" result="effect1_dropShadow"/>
<feBlend mode="normal" in="SourceGraphic" in2="effect1_dropShadow" result="shape"/>
</filter>
<filter id="filter1_d" x="60.0532" y="125.011" width="495.791" height="345.95" filterUnits="userSpaceOnUse" color-interpolation-filters="sRGB">
<feFlood flood-opacity="0" result="BackgroundImageFix"/>
<feColorMatrix in="SourceAlpha" type="matrix" values="0 0 0 0 0 0 0 0 0 0 0 0 0 0 0 0 0 0 127 0"/>
<feOffset/>
<feGaussianBlur stdDeviation="15"/>
<feColorMatrix type="matrix" values="0 0 0 0 0 0 0 0 0 0 0 0 0 0 0 0 0 0 0.35 0"/>
<feBlend mode="normal" in2="BackgroundImageFix" result="effect1_dropShadow"/>
<feBlend mode="normal" in="SourceGraphic" in2="effect1_dropShadow" result="shape"/>
</filter>
<filter id="filter2_d" x="382.53" y="171.394" width="417.243" height="349.709" filterUnits="userSpaceOnUse" color-interpolation-filters="sRGB">
<feFlood flood-opacity="0" result="BackgroundImageFix"/>
<feColorMatrix in="SourceAlpha" type="matrix" values="0 0 0 0 0 0 0 0 0 0 0 0 0 0 0 0 0 0 127 0"/>
<feOffset/>
<feGaussianBlur stdDeviation="15"/>
<feColorMatrix type="matrix" values="0 0 0 0 0 0 0 0 0 0 0 0 0 0 0 0 0 0 0.35 0"/>
<feBlend mode="normal" in2="BackgroundImageFix" result="effect1_dropShadow"/>
<feBlend mode="normal" in="SourceGraphic" in2="effect1_dropShadow" result="shape"/>
</filter>
<filter id="filter3_d" x="71.5515" y="188.452" width="442.41" height="357.138" filterUnits="userSpaceOnUse" color-interpolation-filters="sRGB">
<feFlood flood-opacity="0" result="BackgroundImageFix"/>
<feColorMatrix in="SourceAlpha" type="matrix" values="0 0 0 0 0 0 0 0 0 0 0 0 0 0 0 0 0 0 127 0"/>
<feOffset/>
<feGaussianBlur stdDeviation="15"/>
<feColorMatrix type="matrix" values="0 0 0 0 0 0 0 0 0 0 0 0 0 0 0 0 0 0 0.35 0"/>
<feBlend mode="normal" in2="BackgroundImageFix" result="effect1_dropShadow"/>
<feBlend mode="normal" in="SourceGraphic" in2="effect1_dropShadow" result="shape"/>
</filter>
<filter id="filter4_d" x="283.231" y="220.129" width="409.792" height="350.636" filterUnits="userSpaceOnUse" color-interpolation-filters="sRGB">
<feFlood flood-opacity="0" result="BackgroundImageFix"/>
<feColorMatrix in="SourceAlpha" type="matrix" values="0 0 0 0 0 0 0 0 0 0 0 0 0 0 0 0 0 0 127 0"/>
<feOffset/>
<feGaussianBlur stdDeviation="15"/>
<feColorMatrix type="matrix" values="0 0 0 0 0 0 0 0 0 0 0 0 0 0 0 0 0 0 0.35 0"/>
<feBlend mode="normal" in2="BackgroundImageFix" result="effect1_dropShadow"/>
<feBlend mode="normal" in="SourceGraphic" in2="effect1_dropShadow" result="shape"/>
</filter>
<filter id="filter5_d" x="335.012" y="146.822" width="454.662" height="333.224" filterUnits="userSpaceOnUse" color-interpolation-filters="sRGB">
<feFlood flood-opacity="0" result="BackgroundImageFix"/>
<feColorMatrix in="SourceAlpha" type="matrix" values="0 0 0 0 0 0 0 0 0 0 0 0 0 0 0 0 0 0 127 0"/>
<feOffset/>
<feGaussianBlur stdDeviation="15"/>
<feColorMatrix type="matrix" values="0 0 0 0 0 0 0 0 0 0 0 0 0 0 0 0 0 0 0.35 0"/>
<feBlend mode="normal" in2="BackgroundImageFix" result="effect1_dropShadow"/>
<feBlend mode="normal" in="SourceGraphic" in2="effect1_dropShadow" result="shape"/>
</filter>
<filter id="filter6_d" x="-53.3936" y="214.098" width="410.64" height="366.609" filterUnits="userSpaceOnUse" color-interpolation-filters="sRGB">
<feFlood flood-opacity="0" result="BackgroundImageFix"/>
<feColorMatrix in="SourceAlpha" type="matrix" values="0 0 0 0 0 0 0 0 0 0 0 0 0 0 0 0 0 0 127 0"/>
<feOffset/>
<feGaussianBlur stdDeviation="15"/>
<feColorMatrix type="matrix" values="0 0 0 0 0 0 0 0 0 0 0 0 0 0 0 0 0 0 0.35 0"/>
<feBlend mode="normal" in2="BackgroundImageFix" result="effect1_dropShadow"/>
<feBlend mode="normal" in="SourceGraphic" in2="effect1_dropShadow" result="shape"/>
</filter>
<filter id="filter7_d" x="593.618" y="130.211" width="450.804" height="336.346" filterUnits="userSpaceOnUse" color-interpolation-filters="sRGB">
<feFlood flood-opacity="0" result="BackgroundImageFix"/>
<feColorMatrix in="SourceAlpha" type="matrix" values="0 0 0 0 0 0 0 0 0 0 0 0 0 0 0 0 0 0 127 0"/>
<feOffset/>
<feGaussianBlur stdDeviation="15"/>
<feColorMatrix type="matrix" values="0 0 0 0 0 0 0 0 0 0 0 0 0 0 0 0 0 0 0.35 0"/>
<feBlend mode="normal" in2="BackgroundImageFix" result="effect1_dropShadow"/>
<feBlend mode="normal" in="SourceGraphic" in2="effect1_dropShadow" result="shape"/>
</filter>
<filter id="filter8_d" x="172.614" y="262.807" width="439.501" height="343.653" filterUnits="userSpaceOnUse" color-interpolation-filters="sRGB">
<feFlood flood-opacity="0" result="BackgroundImageFix"/>
<feColorMatrix in="SourceAlpha" type="matrix" values="0 0 0 0 0 0 0 0 0 0 0 0 0 0 0 0 0 0 127 0"/>
<feOffset/>
<feGaussianBlur stdDeviation="15"/>
<feColorMatrix type="matrix" values="0 0 0 0 0 0 0 0 0 0 0 0 0 0 0 0 0 0 0.35 0"/>
<feBlend mode="normal" in2="BackgroundImageFix" result="effect1_dropShadow"/>
<feBlend mode="normal" in="SourceGraphic" in2="effect1_dropShadow" result="shape"/>
</filter>
<filter id="filter9_d" x="-60.7532" y="78.5286" width="390.89" height="421.476" filterUnits="userSpaceOnUse" color-interpolation-filters="sRGB">
<feFlood flood-opacity="0" result="BackgroundImageFix"/>
<feColorMatrix in="SourceAlpha" type="matrix" values="0 0 0 0 0 0 0 0 0 0 0 0 0 0 0 0 0 0 127 0"/>
<feOffset/>
<feGaussianBlur stdDeviation="15"/>
<feColorMatrix type="matrix" values="0 0 0 0 0 0 0 0 0 0 0 0 0 0 0 0 0 0 0.35 0"/>
<feBlend mode="normal" in2="BackgroundImageFix" result="effect1_dropShadow"/>
<feBlend mode="normal" in="SourceGraphic" in2="effect1_dropShadow" result="shape"/>
</filter>
<filter id="filter10_d" x="-48.2771" y="47.4636" width="397.385" height="378.647" filterUnits="userSpaceOnUse" color-interpolation-filters="sRGB">
<feFlood flood-opacity="0" result="BackgroundImageFix"/>
<feColorMatrix in="SourceAlpha" type="matrix" values="0 0 0 0 0 0 0 0 0 0 0 0 0 0 0 0 0 0 127 0"/>
<feOffset/>
<feGaussianBlur stdDeviation="15"/>
<feColorMatrix type="matrix" values="0 0 0 0 0 0 0 0 0 0 0 0 0 0 0 0 0 0 0.35 0"/>
<feBlend mode="normal" in2="BackgroundImageFix" result="effect1_dropShadow"/>
<feBlend mode="normal" in="SourceGraphic" in2="effect1_dropShadow" result="shape"/>
</filter>
<filter id="filter11_d" x="660.964" y="77.9446" width="450.71" height="336.412" filterUnits="userSpaceOnUse" color-interpolation-filters="sRGB">
<feFlood flood-opacity="0" result="BackgroundImageFix"/>
<feColorMatrix in="SourceAlpha" type="matrix" values="0 0 0 0 0 0 0 0 0 0 0 0 0 0 0 0 0 0 127 0"/>
<feOffset/>
<feGaussianBlur stdDeviation="15"/>
<feColorMatrix type="matrix" values="0 0 0 0 0 0 0 0 0 0 0 0 0 0 0 0 0 0 0.35 0"/>
<feBlend mode="normal" in2="BackgroundImageFix" result="effect1_dropShadow"/>
<feBlend mode="normal" in="SourceGraphic" in2="effect1_dropShadow" result="shape"/>
</filter>
</defs>
</svg>
