<svg width="410" height="285" viewBox="0 0 410 285" fill="none" xmlns="http://www.w3.org/2000/svg">
<g filter="url(#filter0_d)">
<path d="M164 227.759C111.6 242.959 98.1667 305.426 98 334.759C103.5 347.259 114.7 373.059 115.5 376.259C116.5 380.259 138 383.759 172 385.759C206 387.759 250.5 391.259 259 391.259C267.5 391.259 326.5 397.259 350 397.259C373.5 397.259 461 397.259 468.5 391.259C474.5 386.459 486.667 351.593 492 334.759C493 247.093 496.4 68.0594 502 53.2594C509 34.7594 441 21.7594 415 39.2594C389 56.7594 336 100.259 329 168.259C323.939 217.421 229.5 208.759 164 227.759Z" fill="#DE0B12"/>
<path d="M164 227.759C111.6 242.959 98.1667 305.426 98 334.759C103.5 347.259 114.7 373.059 115.5 376.259C116.5 380.259 138 383.759 172 385.759C206 387.759 250.5 391.259 259 391.259C267.5 391.259 326.5 397.259 350 397.259C373.5 397.259 461 397.259 468.5 391.259C474.5 386.459 486.667 351.593 492 334.759C493 247.093 496.4 68.0594 502 53.2594C509 34.7594 441 21.7594 415 39.2594C389 56.7594 336 100.259 329 168.259C323.939 217.421 229.5 208.759 164 227.759Z" stroke="#F44F55"/>
</g>
<path d="M554.803 283.277C606.645 277.225 641.639 327.265 652.656 353.041C652.437 366.091 652.121 392.972 652.601 396.088C653.201 399.982 635.538 411.041 606.296 425.417C577.053 439.792 539.107 459.384 531.611 462.538C524.115 465.691 474.308 492.865 453.584 501.583C432.86 510.301 355.696 542.763 346.859 540.261C339.789 538.259 117.106 411.081 66.0464 357.638C32.679 280.789 67.6871 247.594 104.148 249.299C171.395 252.442 215.233 217.952 263.603 210.358C293.214 205.71 355.875 234.781 387.246 292.081C409.926 333.507 489.999 290.841 554.803 283.277Z" fill="#F40009" stroke="#F44F55"/>
<g filter="url(#filter1_d)">
<path d="M151.756 260.671C97.4302 265.725 72.4672 324.542 66.7764 353.318C69.8225 366.631 75.9606 394.079 76.1433 397.372C76.3717 401.489 96.8271 408.978 129.841 417.348C162.855 425.719 205.899 437.541 214.246 439.143C222.594 440.744 279.407 457.754 302.486 462.182C325.565 466.61 411.498 483.097 419.994 478.618C426.791 475.034 445.309 443.085 453.719 427.558C471.22 341.65 508.293 166.464 516.581 152.984C526.942 136.135 462.609 110.555 433.778 122.842C404.946 135.13 344.699 167.864 325.011 233.327C310.778 280.654 219.662 254.353 151.756 260.671Z" fill="#F8222A"/>
<path d="M151.756 260.671C97.4302 265.725 72.4672 324.542 66.7764 353.318C69.8225 366.631 75.9606 394.079 76.1433 397.372C76.3717 401.489 96.8271 408.978 129.841 417.348C162.855 425.719 205.899 437.541 214.246 439.143C222.594 440.744 279.407 457.754 302.486 462.182C325.565 466.61 411.498 483.097 419.994 478.618C426.791 475.034 445.309 443.085 453.719 427.558C471.22 341.65 508.293 166.464 516.581 152.984C526.942 136.135 462.609 110.555 433.778 122.842C404.946 135.13 344.699 167.864 325.011 233.327C310.778 280.654 219.662 254.353 151.756 260.671Z" stroke="#F44F55"/>
</g>
<defs>
<filter id="filter0_d" x="67.4995" y="0.5" width="465.503" height="427.259" filterUnits="userSpaceOnUse" color-interpolation-filters="sRGB">
<feFlood flood-opacity="0" result="BackgroundImageFix"/>
<feColorMatrix in="SourceAlpha" type="matrix" values="0 0 0 0 0 0 0 0 0 0 0 0 0 0 0 0 0 0 127 0"/>
<feOffset/>
<feGaussianBlur stdDeviation="15"/>
<feColorMatrix type="matrix" values="0 0 0 0 0 0 0 0 0 0 0 0 0 0 0 0 0 0 0.35 0"/>
<feBlend mode="normal" in2="BackgroundImageFix" result="effect1_dropShadow"/>
<feBlend mode="normal" in="SourceGraphic" in2="effect1_dropShadow" result="shape"/>
</filter>
<filter id="filter1_d" x="24.4141" y="24.4146" width="527.441" height="497.088" filterUnits="userSpaceOnUse" color-interpolation-filters="sRGB">
<feFlood flood-opacity="0" result="BackgroundImageFix"/>
<feColorMatrix in="SourceAlpha" type="matrix" values="0 0 0 0 0 0 0 0 0 0 0 0 0 0 0 0 0 0 127 0"/>
<feOffset/>
<feGaussianBlur stdDeviation="15"/>
<feColorMatrix type="matrix" values="0 0 0 0 0 0 0 0 0 0 0 0 0 0 0 0 0 0 0.35 0"/>
<feBlend mode="normal" in2="BackgroundImageFix" result="effect1_dropShadow"/>
<feBlend mode="normal" in="SourceGraphic" in2="effect1_dropShadow" result="shape"/>
</filter>
</defs>
</svg>
