<svg width="24" height="25" viewBox="0 0 24 25" fill="none" xmlns="http://www.w3.org/2000/svg">
<path d="M23.2682 1.46382H18.472V0.736945C18.472 0.330029 18.1443 0 17.7401 0C17.3359 0 17.0081 0.330029 17.0081 0.736945V1.46382H12.732V0.736945C12.732 0.330029 12.4042 0 12 0C11.5958 0 11.268 0.330029 11.268 0.736945V1.46382H7.17363V0.736945C7.17363 0.330029 6.84583 0 6.44167 0C6.03751 0 5.70972 0.330029 5.70972 0.736945V1.46382H0.731953C0.327793 1.46382 0 1.79385 0 2.20076V18.8523C0 19.2592 0.327793 19.5892 0.731953 19.5892H5.22444C5.94431 22.6861 8.70792 25 12 25C15.2921 25 18.0557 22.686 18.7756 19.5892H23.268C23.6722 19.5892 24 19.2592 24 18.8523V2.20076C24.0001 1.79385 23.6725 1.46382 23.2682 1.46382ZM5.70972 2.93771V3.60366C5.70972 4.01058 6.03751 4.34061 6.44167 4.34061C6.84583 4.34061 7.17363 4.01058 7.17363 3.60366V2.93771H11.268V3.60366C11.268 4.01058 11.5958 4.34061 12 4.34061C12.4042 4.34061 12.732 4.01058 12.732 3.60366V2.93771H17.0081V3.60366C17.0081 4.01058 17.3359 4.34061 17.7401 4.34061C18.1443 4.34061 18.472 4.01058 18.472 3.60366V2.93771H22.5362V5.95132H1.46391V2.93771H5.70972ZM12 23.5261C8.96947 23.5261 6.50389 21.0437 6.50389 17.9925C6.50389 14.9413 8.96947 12.4589 12 12.4589C15.0305 12.4589 17.4961 14.9412 17.4961 17.9925C17.4961 21.0438 15.0307 23.5261 12 23.5261ZM18.957 18.1153C18.9577 18.0743 18.96 18.0337 18.96 17.9925C18.96 14.1286 15.8378 10.985 12 10.985C8.16225 10.985 5.03998 14.1286 5.03998 17.9925C5.03998 18.0337 5.04242 18.0743 5.04303 18.1153H1.46378V7.42534H22.5361V18.1153H18.957Z" fill="#F40009"/>
<path d="M12.732 18.1785V14.6134C12.732 14.2065 12.4042 13.8765 12 13.8765C11.5959 13.8765 11.2681 14.2065 11.2681 14.6134V18.4838C11.2681 18.6793 11.3452 18.8667 11.4824 19.005L13.1647 20.6989C13.3077 20.8427 13.4949 20.9147 13.6823 20.9147C13.8695 20.9147 14.0569 20.8427 14.1999 20.6989C14.4857 20.4111 14.4857 19.9445 14.1999 19.6567L12.732 18.1785Z" fill="#F40009"/>
</svg>
