<svg width="13" height="14" viewBox="0 0 13 14" fill="none" xmlns="http://www.w3.org/2000/svg">
<path d="M10.568 9.12603C12.7184 7.76299 12.9986 6.16377 13 5.44743C13 5.38047 12.9613 5.31903 12.9005 5.28867C12.8391 5.25805 12.7731 5.27621 12.7101 5.30285C11.9063 5.64298 10.5414 3.91761 7.90832 3.23876C6.67126 2.91981 5.79521 1.08389 5.79521 1.08389L5.79469 1.08409C5.46514 0.474297 4.89908 0 4.05232 0C2.57583 0 0.808025 1.44105 0.808025 2.53161C0.808025 2.57547 0.813148 2.61843 0.816853 2.66162L0.0571605 3.36431C0.0028327 3.41444 -0.0147073 3.49178 0.0129341 3.55957C0.0406625 3.62725 0.107928 3.67176 0.182604 3.67176H1.30085C1.30826 3.67944 1.31608 3.68665 1.32346 3.69424C0.407469 8.17704 3.16687 9.60685 5.21445 10.0591L5.30062 10.5846L4.46634 12.0814C4.46032 12.0924 4.46032 12.1046 4.45528 12.1161L3.68963 11.8806C3.56656 11.8433 3.4324 11.9099 3.39368 12.031C3.3544 12.1525 3.4232 12.2818 3.54763 12.3201L4.00491 12.4607L3.48305 12.8181C3.37616 12.8912 3.35023 13.0347 3.42543 13.1389C3.47156 13.2027 3.54441 13.2368 3.61857 13.2368C3.66563 13.2368 3.71307 13.2234 3.7542 13.195L4.60605 12.6113H5.67139C5.80178 12.6113 5.90737 12.5084 5.90737 12.381C5.90737 12.2538 5.80178 12.1507 5.67139 12.1507H5.23382L6.04101 10.7032L6.69928 10.2565C7.02056 10.272 7.21873 10.2634 7.21873 10.2634L7.21926 10.261C7.40678 10.2583 7.58794 10.2454 7.7645 10.2257L8.30564 10.8419L8.19279 12.7762H7.27599C7.14545 12.7762 7.03998 12.8793 7.03998 13.0065C7.03998 13.1339 7.14548 13.2368 7.27599 13.2368H8.06645L7.98989 13.7356C7.97058 13.8615 8.05956 13.9787 8.18816 13.9976C8.20017 13.9991 8.21171 14 8.22364 14C8.33852 14 8.43901 13.9181 8.45644 13.8039L8.55143 13.1858L9.46638 12.9217C9.59127 12.8858 9.66273 12.7576 9.62589 12.6357C9.58898 12.5136 9.45717 12.443 9.33277 12.4801L8.91233 12.6013L9.01193 10.8982L10.568 9.12603Z" fill="#FF8989"/>
<path fill-rule="evenodd" clip-rule="evenodd" d="M10.0755 8.55023L10.1665 8.49257C11.5218 7.63347 12.0026 6.70584 12.1677 6.06377C11.9877 6.02719 11.8244 5.96556 11.6881 5.90542C11.3737 5.76664 11.0247 5.55177 10.6862 5.34337C10.6582 5.32616 10.6303 5.30899 10.6025 5.29192C9.83764 4.8219 8.92025 4.27418 7.72108 3.96501C6.8405 3.73797 6.18048 3.01588 5.78759 2.49134C5.66149 2.32299 5.55166 2.15954 5.45971 2.01334L5.44698 2.01816L5.31111 1.76675C5.30758 1.76062 5.30409 1.75455 5.30065 1.74855C5.24417 1.64996 5.20014 1.56778 5.16955 1.50882C5.15483 1.48045 5.14317 1.45736 5.13468 1.4403C4.90359 1.01291 4.56117 0.75 4.05232 0.75C3.53399 0.75 2.88251 1.01648 2.34236 1.44461C2.07981 1.65271 1.87174 1.87755 1.73485 2.0867C1.59516 2.30012 1.55895 2.45087 1.55804 2.5286C1.55813 2.53004 1.5583 2.53262 1.55862 2.53657L1.5607 2.55993L1.56411 2.59752L1.59192 2.92176H1.61949L1.83667 3.14695L1.84498 3.15509C1.84913 3.15919 1.85486 3.16491 1.86143 3.17166L2.13764 3.456L2.05828 3.84439C1.6359 5.9115 2.07814 7.13946 2.72817 7.90134C3.40801 8.69815 4.426 9.1169 5.37622 9.3268L5.87235 9.43639L5.94242 9.8637L6.48532 9.49527L6.73544 9.50734C6.81958 9.5114 6.89402 9.51363 6.95701 9.51477L7.2083 9.5111C7.36842 9.50876 7.52521 9.49774 7.68115 9.4803L8.06994 9.43682L8.68349 10.1355L10.0755 8.55023ZM9.01193 10.8982L8.91233 12.6013L9.33277 12.4801C9.33466 12.4795 9.33655 12.479 9.33844 12.4784C9.33854 12.4784 9.33834 12.4785 9.33844 12.4784C9.46106 12.4453 9.58957 12.5155 9.62589 12.6357C9.62663 12.6382 9.62734 12.6406 9.628 12.6431C9.65981 12.7628 9.58874 12.8865 9.46638 12.9217L8.55143 13.1858L8.45644 13.8039C8.45628 13.8049 8.45611 13.806 8.45594 13.807C8.45593 13.807 8.45594 13.807 8.45594 13.807C8.43712 13.9196 8.33743 14 8.22364 14C8.21171 14 8.20017 13.9991 8.18816 13.9976C8.14118 13.9907 8.0995 13.9707 8.06645 13.9419C8.00901 13.8919 7.97763 13.8155 7.98989 13.7356L8.06645 13.2368H7.27599C7.14548 13.2368 7.03998 13.1339 7.03998 13.0065C7.03998 12.8793 7.14545 12.7762 7.27599 12.7762H8.19279L8.30564 10.8419L7.7645 10.2257C7.58794 10.2454 7.40678 10.2583 7.21926 10.261L7.21873 10.2634C7.21873 10.2634 7.02056 10.272 6.69928 10.2565L6.04101 10.7032L5.23382 12.1507H5.67139C5.80178 12.1507 5.90737 12.2538 5.90737 12.381C5.90737 12.4269 5.89367 12.4696 5.87005 12.5055C5.82808 12.5692 5.75481 12.6113 5.67139 12.6113H4.60605L3.7542 13.195C3.75124 13.197 3.74825 13.199 3.74523 13.2009C3.74516 13.2009 3.74529 13.2009 3.74523 13.2009C3.70629 13.2252 3.66218 13.2368 3.61857 13.2368C3.54441 13.2368 3.47156 13.2027 3.42543 13.1389C3.40675 13.113 3.39431 13.0847 3.3878 13.0556C3.36811 12.9677 3.40271 12.873 3.48305 12.8181L4.00491 12.4607L3.54763 12.3201C3.4232 12.2818 3.3544 12.1525 3.39368 12.031C3.42316 11.9388 3.50795 11.8782 3.60106 11.871C3.62815 11.8689 3.65595 11.8713 3.68329 11.8788C3.68335 11.8788 3.68323 11.8787 3.68329 11.8788C3.68534 11.8793 3.68758 11.88 3.68963 11.8806L4.45528 12.1161C4.45738 12.1113 4.4586 12.1064 4.45975 12.1015C4.45985 12.1011 4.45995 12.1007 4.46005 12.1002C4.46139 12.0945 4.46273 12.0888 4.46534 12.0834C4.46565 12.0827 4.46599 12.082 4.46634 12.0814L5.30062 10.5846L5.21445 10.0591C3.28199 9.63228 0.715499 8.33473 1.20304 4.42176C1.22768 4.22397 1.26013 4.01949 1.30085 3.80811C1.30812 3.77038 1.31566 3.73242 1.32346 3.69424C1.31989 3.69057 1.31622 3.68699 1.31255 3.6834C1.30862 3.67957 1.30468 3.67573 1.30085 3.67176H0.182604C0.107928 3.67176 0.0406625 3.62725 0.0129341 3.55957C-0.0147073 3.49178 0.0028327 3.41444 0.0571605 3.36431L0.816853 2.66162C0.81605 2.65227 0.815182 2.64293 0.814313 2.63358C0.811169 2.59978 0.808025 2.56597 0.808025 2.53161C0.808025 1.44105 2.57583 0 4.05232 0C4.89908 0 5.46514 0.474297 5.79469 1.08409C5.79469 1.08409 6.67126 2.91981 7.90832 3.23876C9.26421 3.58833 10.2838 4.21542 11.0637 4.69506C11.7983 5.14685 12.3202 5.46783 12.7101 5.30285C12.7731 5.27621 12.8391 5.25805 12.9005 5.28867C12.9613 5.31903 13 5.38047 13 5.44743C12.9998 5.57402 12.9908 5.72819 12.9644 5.90374C12.9643 5.90384 12.9644 5.90365 12.9644 5.90374C12.9591 5.93833 12.9532 5.97403 12.9466 6.01023C12.9462 6.01217 12.9459 6.01412 12.9455 6.01607C12.7937 6.83585 12.2593 8.05399 10.568 9.12603L9.01193 10.8982ZM7.18765 9.51409C7.18782 9.51408 7.18784 9.51408 7.18765 9.51409Z" fill="#F40009"/>
</svg>
