<svg width="157" height="89" viewBox="0 0 157 89" fill="none" xmlns="http://www.w3.org/2000/svg">
<g filter="url(#filter0_d)">
<path d="M111.047 54.2885C111.046 54.2885 110.747 54.5567 110.747 54.5567C110.321 54.9409 109.882 55.3522 109.352 55.1465C109.206 55.0928 109.103 54.8964 109.078 54.7439C109.054 53.6443 109.545 52.6253 110.022 51.6332L110.144 51.3737C111.515 49.0672 113.109 46.3495 115.45 44.4634C115.844 44.1767 116.272 43.9357 116.724 44.1237C116.828 44.2217 116.949 44.3918 116.949 44.5615C116.949 44.6153 116.901 44.7583 116.874 44.8027C116.22 45.8671 115.598 46.9845 114.992 48.0572C113.809 50.1761 112.582 52.3662 111.047 54.2888L111.047 54.2885ZM98.3648 48.8529C98.2752 48.9158 96.694 48.3792 96.3884 46.9041C96.1292 45.6342 96.9972 44.6418 97.837 44.1416C98.1975 43.8554 98.7405 43.7573 99.1388 43.8997C99.5085 44.1504 99.6086 44.5978 99.6086 45.0798C99.6086 45.3754 99.5697 45.6791 99.5354 45.9562C99.5354 45.9562 99.5289 46.01 99.5278 46.019C99.2643 47.011 98.8612 47.9856 98.3648 48.853L98.3648 48.8529ZM92.3246 54.8519C92.1633 54.6105 92.1098 54.3466 92.1045 54.0612C92.0735 52.3082 93.9456 49.169 95.267 47.4587H95.2699C95.8237 48.6803 97.0776 49.4656 97.8346 49.7965C96.8944 51.9065 93.6699 56.4253 92.3249 54.8519H92.3246ZM115.146 55.1632C114.833 55.3777 114.393 55.2128 114.558 54.7212C114.967 53.4696 116.595 50.9189 116.595 50.9189L121.13 42.8163H118.024C117.876 43.0606 117.56 43.6217 117.56 43.6217C117.417 43.3805 116.987 42.8442 116.81 42.7284C116.051 42.2453 114.938 42.4737 114.17 42.9117C110.831 44.8788 108.394 48.7655 106.473 51.7961C106.473 51.7961 104.45 55.1652 103.327 55.4158C102.451 55.4874 102.541 54.2978 102.579 54.0207C102.918 52.0177 103.705 50.1136 104.498 48.3881C106.111 47.2617 107.952 45.7866 109.624 44.1685C113.254 40.6725 116.314 36.7119 116.762 35.8269C116.762 35.8269 116.277 35.9254 115.706 35.9431C112.913 39.8679 107.198 45.5722 105.466 46.421C106.233 44.5611 111.192 35.6837 115.412 31.4374L116.076 30.7935C117.103 29.7832 118.167 28.7462 118.996 28.5763C119.084 28.5674 119.196 28.5763 119.294 28.7822C119.331 29.5688 119.04 30.15 118.707 30.8115L118.239 31.7772C118.239 31.7772 118.901 31.652 119.336 31.5086C119.84 30.5524 120.399 29.4793 120.193 28.2011C120.124 27.7898 119.829 27.477 119.443 27.4054C118.184 27.164 116.812 28.1024 115.708 28.8626L115.663 28.8892C109.989 33.3683 105.197 39.8235 101.008 48.6385C100.704 48.8706 99.5309 49.1481 99.3314 49.0138C99.7451 48.1557 100.266 47.0021 100.527 45.7506C100.572 45.3929 100.614 45.0265 100.614 44.6689C100.614 43.8994 100.43 43.1756 99.7462 42.6751C98.944 42.2727 97.9526 42.4605 97.2841 42.7644C94.2894 44.016 92.0514 47.1096 90.4363 49.6571C89.5676 51.2757 88.7015 53.0092 88.4617 54.9945C88.2928 56.5498 88.6367 57.5511 89.5144 58.052C90.4171 58.5166 91.5533 58.0337 91.9996 57.8014C95.0334 56.1923 97.1533 52.965 98.8241 50.0145C98.8906 50.0057 99.8029 49.9791 100.493 49.8C100.502 49.8 100.506 49.8 100.521 49.8094C100.482 49.9429 100.125 51.0161 100.125 51.0161C99.0662 54.1449 98.5765 56.2728 99.5767 57.5335C101.006 59.3128 103.373 57.4712 105.298 55.039C104.885 57.9535 106.384 58.4096 107.527 58.1863C108.84 57.8289 110.302 56.416 110.981 55.6921C110.763 56.5412 110.823 58.0613 112.017 58.2131C112.835 58.3655 113.448 57.917 114.157 57.5324C116.699 56.1376 119.743 51.4899 120.533 50.1461H119.497C118.374 51.8565 116.944 54.099 115.146 55.1635L115.146 55.1632ZM75.9765 37.8077H78.8864L80.5288 35.1202H77.6182L75.9765 37.8077ZM122.46 30.6682C120.241 31.938 117.941 32.7603 115.157 32.4743C114.385 33.3506 113.634 34.2535 112.941 35.1832C116.849 36.1845 120.992 33.9584 123.302 31.8398C125.747 29.703 127 27.0122 127 27.0122C127 27.0122 125.168 29.1219 122.46 30.6683L122.46 30.6682ZM97.9914 29.989C97.5287 35.3352 93.4038 38.4738 92.3833 38.7234C91.7648 38.8484 90.7094 38.5715 91.6515 36.3278C93.039 33.3056 95.4077 30.7402 97.9493 29.4257C98.0111 29.6493 98.0095 29.792 97.9913 29.9889L97.9914 29.989ZM89.9539 43.4618C89.6584 42.8182 88.9568 42.4069 88.2092 42.4515C85.7814 42.6752 83.4067 44.6866 82.1597 47.5744C81.5055 49.0586 81.1484 50.2833 80.9142 52.2322C81.6691 51.3563 83.209 49.917 84.9565 49.1302C84.9565 49.1302 85.1943 47.2618 86.4068 45.5988C86.8656 44.9102 87.7838 43.8017 88.8148 44.0967C89.7156 44.4008 89.399 46.9131 88.2018 49.3441C87.3159 51.1325 85.9603 52.921 84.5887 54.1544C83.3761 55.1915 81.5819 56.4431 80.0122 55.4776C79.0235 54.8878 78.5193 53.6538 78.6258 52.0624C79.0982 47.5478 81.1381 43.7033 84.0569 39.3227C87.0669 35.2548 90.3848 31.0798 94.8546 28.8531C95.7663 28.3883 96.6106 28.281 97.3403 28.5671C97.3403 28.5671 93.1446 30.8916 91.1444 35.1921C90.6356 36.283 89.928 37.7577 90.6406 39.0631C91.0129 39.7424 91.6741 39.7961 92.2064 39.7604C94.658 39.1881 96.2419 36.8815 97.5361 34.7719C98.2864 33.1716 98.9533 31.5802 98.9533 29.8097C98.9533 29.5952 98.9423 29.3093 98.9242 29.0945C100.096 28.4689 102.497 29.5772 102.497 29.5772C104.374 30.2033 108.371 33.2879 109.718 33.8776C110.376 33.1089 111.457 31.9468 112.065 31.3656L111.184 30.8201C109.774 29.9529 108.284 29.1303 106.816 28.3168C103.485 26.4844 100.772 27.1279 99.392 27.6286C98.8495 27.8252 98.3537 27.9951 98.3537 27.9951C97.3293 26.8687 95.6494 26.9757 94.4115 27.2799C89.9599 28.5672 85.827 31.7051 81.3959 37.1499C78.1382 41.4144 76.1171 45.098 75.0404 48.7364C74.2102 51.1859 73.9579 54.7887 75.9843 56.9255C77.7071 58.7398 79.9916 58.3469 81.605 57.6944C85.1003 55.96 88.2418 52.2226 89.8074 47.9226C90.1851 46.6443 90.6043 44.8384 89.954 43.4615L89.9539 43.4618ZM51.2092 39.3138C51.2034 39.3317 50.6156 40.6904 50.6156 40.6904C50.5306 40.7619 50.3962 40.7262 50.2422 40.6904L49.9784 40.6455C49.1499 40.3864 48.5249 39.832 48.3323 39.1705C48.0665 37.883 49.1582 36.8728 49.6391 36.5064C50.1006 36.1843 50.8181 36.0145 51.2347 36.3454C51.4916 36.6495 51.589 37.0427 51.589 37.4721C51.5891 38.0531 51.4111 38.7057 51.2092 39.3138H51.2092ZM49.9465 41.8972C49.9465 41.8972 49.9198 41.978 49.9066 42.0044C49.9033 42.0044 48.5705 44.1945 48.5705 44.1945C47.7661 45.2764 46.7618 46.6357 45.5063 47.288C45.1342 47.4132 44.6198 47.4939 44.3577 47.1633C43.802 46.4926 44.0884 45.5629 44.3211 44.812L44.4034 44.5437C45.0705 42.7201 46.1291 41.1105 47.1593 39.6173C47.1722 39.6085 47.201 39.5996 47.2115 39.5996C47.2139 39.6085 47.218 39.6085 47.2198 39.6264C47.8663 40.8779 49.0786 41.4587 49.9852 41.7273C49.9907 41.7273 49.9965 41.7362 49.9965 41.7542C49.9966 41.7809 49.9818 41.8169 49.9465 41.897L49.9465 41.8972ZM66.6191 40.458C67.2152 39.6267 68.9505 37.4005 69.3735 37.025C70.7963 35.764 71.3649 36.3189 71.4142 36.7119C70.0863 39.1078 68.5192 41.8524 67.0457 44.32C67.0486 44.3112 66.5846 45.0262 66.5846 45.0262C65.9338 46.0273 65.2786 46.8856 64.2098 47.4846C64.0574 47.5295 63.8061 47.5475 63.6389 47.4219C63.4376 47.2878 63.3582 47.0642 63.3809 46.8316C63.4449 46.063 64.2218 43.7121 66.619 40.4578L66.6191 40.458ZM51.8434 35.0224C50.004 33.8065 46.307 36.131 43.3461 40.1179C40.6383 43.6943 39.469 47.8511 40.7415 49.7734C42.6344 52.0352 46.1483 48.7453 47.6426 46.9843L47.8354 46.7785C48.8516 45.6788 49.6367 44.3556 50.3966 43.0859C50.3966 43.0859 51.0951 41.9237 51.1284 41.87C51.5601 41.7898 52.08 41.6646 52.6659 41.4947C52.6575 41.5213 50.4243 45.3031 50.6521 47.1805C50.7231 47.7532 50.6689 49.8451 52.6962 50.4798C55.3982 50.936 57.556 48.8258 59.4591 46.9484C59.4591 46.9484 59.7835 46.6358 59.9669 46.4573C59.9205 46.6446 59.86 46.8944 59.86 46.8944C59.0689 49.6659 60.1352 50.2474 60.8022 50.462C62.818 51.0524 65.2262 48.1019 65.234 48.1019C65.1715 49.0313 64.9889 49.8002 65.9614 50.4171C66.8793 50.7481 67.8082 50.2435 68.5142 49.7696C71.0575 47.9637 73.1063 45.1373 74.7611 42.6941H73.7055C73.693 42.6941 71.1006 46.4796 69.4173 47.3024C69.4149 47.3024 69.1083 47.4608 68.9318 47.3355C68.7133 47.1476 68.7995 46.7572 68.9342 46.4806C68.9427 46.4625 75.4338 35.1203 75.4338 35.1203H72.369C72.369 35.1203 72.0343 35.666 72.007 35.7017C71.9864 35.6839 71.9373 35.5901 71.9032 35.5451C70.0044 32.8989 65.7043 36.9693 62.4669 41.6893C61.2206 43.5043 59.6338 45.5479 57.9884 47.0232C57.9884 47.0232 55.5508 49.2744 54.5093 47.657C54.1286 46.9774 54.2457 45.9839 54.4605 45.3315C55.6731 41.8537 57.7626 38.6977 60.1404 36.793C60.8116 36.2659 61.5412 36.1134 61.9033 36.337C62.2482 36.5429 62.3039 37.0521 62.0856 37.4008C61.5319 37.383 61.0882 37.5526 60.7275 37.9281C60.017 38.6791 59.7701 39.4034 59.996 40.083C61.0935 41.6564 63.2822 38.5451 63.1763 36.6498C63.1385 35.9702 62.7786 35.3267 62.2416 35.0135C61.4413 34.5309 60.2202 34.6559 59.43 35.0406C58.3722 35.4427 56.6978 36.8462 55.7203 37.9371C54.4899 39.3052 52.3796 40.8249 51.7196 40.6547C51.9358 40.0733 53.7183 36.399 51.8432 35.0226L51.8434 35.0224ZM67.2481 54.9143C63.6387 52.5718 58.7401 52.1607 50.8404 54.3689C42.4188 56.3628 39.6106 57.6409 35.9231 55.0751C34.5064 53.8146 33.9984 51.7852 34.3778 48.8621C35.2575 44.0966 37.6347 39.5105 41.8575 34.4238C44.2145 31.7776 46.4008 29.5066 49.2878 28.5948C51.5004 28.0227 51.2935 29.7746 51.0258 30.0251C50.7433 30.0251 50.2687 30.07 49.9019 30.3111C49.6043 30.5437 48.7872 31.2948 48.7433 32.305C48.68 33.8516 50.2686 33.5296 50.9538 32.6805C51.6924 31.7237 52.7838 29.8912 51.9253 28.1834C51.5654 27.5756 50.9436 27.1555 50.1716 27.0124C47.5281 26.8602 45.066 28.1298 42.7937 29.5334C37.8258 33.011 33.8507 37.83 31.6017 43.1048C30.3049 46.2874 29.1322 50.8463 30.8901 54.5571C32.25 57.1317 35.0732 58.4993 38.4417 58.2133C40.804 57.9632 43.6603 57.194 45.5819 56.7295C47.5031 56.2644 57.3375 52.8585 60.569 58.7862C60.569 58.7862 61.6436 56.6847 64.3289 56.6399C66.5366 56.4346 69.7217 57.2838 72.041 59C71.2683 57.8292 69.0775 56.1037 67.2498 54.9145L67.2481 54.9143Z" fill="white"/>
</g>
<defs>
<filter id="filter0_d" x="0" y="-3" width="157" height="92" filterUnits="userSpaceOnUse" color-interpolation-filters="sRGB">
<feFlood flood-opacity="0" result="BackgroundImageFix"/>
<feColorMatrix in="SourceAlpha" type="matrix" values="0 0 0 0 0 0 0 0 0 0 0 0 0 0 0 0 0 0 127 0"/>
<feOffset/>
<feGaussianBlur stdDeviation="15"/>
<feColorMatrix type="matrix" values="0 0 0 0 0 0 0 0 0 0 0 0 0 0 0 0 0 0 0.35 0"/>
<feBlend mode="normal" in2="BackgroundImageFix" result="effect1_dropShadow"/>
<feBlend mode="normal" in="SourceGraphic" in2="effect1_dropShadow" result="shape"/>
</filter>
</defs>
</svg>
