<svg width="24" height="22" viewBox="0 0 24 22" fill="none" xmlns="http://www.w3.org/2000/svg">
<path d="M23.9999 11C23.9999 10.4775 23.7181 10.0077 23.2643 9.77364L21.4773 8.85325L23.2643 7.93291C23.2643 7.93286 23.2644 7.93281 23.2644 7.93281C23.7182 7.69887 24 7.22899 24 6.70648C24 6.18407 23.7181 5.7142 23.2643 5.48015L13.176 0.284244C12.4395 -0.0947561 11.5603 -0.0947561 10.8236 0.284292L0.735513 5.48039C0.281858 5.71425 9.35043e-08 6.18407 9.35043e-08 6.70653C9.35043e-08 7.22904 0.281812 7.69887 0.735653 7.93291L2.52257 8.85325L0.735419 9.77373C0.281812 10.0077 9.35043e-08 10.4775 9.35043e-08 11C9.35043e-08 11.5225 0.281812 11.9924 0.735653 12.2263L2.52257 13.1467L0.735794 14.067C0.282186 14.3005 0.000187593 14.7702 9.35043e-08 15.2927C-0.000187406 15.8156 0.281624 16.2857 0.735653 16.5198L10.8238 21.7158C11.1921 21.9053 11.5959 22 11.9999 22C12.4039 22 12.8079 21.9052 13.1762 21.7157L23.2644 16.5197C23.7182 16.2858 24.0001 15.8156 23.9999 15.2928C23.9997 14.7702 23.7177 14.3005 23.2643 14.0672L21.4773 13.1468L23.2644 12.2263C23.7181 11.9924 23.9999 11.5225 23.9999 11ZM1.22929 6.91643C1.11965 6.85989 1.10334 6.76066 1.10334 6.70658C1.10334 6.6525 1.11975 6.55327 1.2291 6.49687L11.3169 1.30106C11.5308 1.19097 11.7654 1.13602 12 1.13602C12.2346 1.13602 12.4691 1.19101 12.6829 1.30101L22.7707 6.49678C22.8802 6.55327 22.8966 6.6525 22.8966 6.70658C22.8966 6.76066 22.8803 6.85989 22.7707 6.91643L12.683 12.1121C12.2553 12.3322 11.7446 12.3322 11.3171 12.1121L1.22929 6.91643ZM22.771 15.0838C22.8802 15.14 22.8966 15.239 22.8966 15.2932C22.8966 15.3474 22.8803 15.4468 22.7708 15.5032L12.683 20.699C12.2552 20.9191 11.7446 20.9192 11.3171 20.6991L1.22929 15.5033C1.11965 15.4467 1.10329 15.3473 1.10334 15.2931C1.10334 15.2391 1.11965 15.14 1.2291 15.0837L3.75622 13.7821L10.8238 17.4223C11.1921 17.6118 11.5959 17.7065 11.9999 17.7065C12.4039 17.7065 12.8079 17.6117 13.1762 17.4222L20.2436 13.7821L22.771 15.0838ZM22.7708 11.2098L12.683 16.4056C12.2552 16.6257 11.7446 16.6257 11.3171 16.4056L1.22929 11.2099C1.11965 11.1534 1.10334 11.0541 1.10334 11.0001C1.10334 10.9459 1.11965 10.8468 1.2291 10.7903L3.75622 9.4887L10.8238 13.1289C11.192 13.3184 11.5959 13.4131 11.9999 13.4131C12.4038 13.4131 12.8078 13.3183 13.1761 13.1288L20.2436 9.48865L22.7706 10.7902C22.8802 10.8467 22.8965 10.9459 22.8965 11C22.8966 11.0541 22.8802 11.1533 22.7708 11.2098Z" fill="#F40009"/>
</svg>
