<svg width="15" height="15" viewBox="0 0 15 15" fill="none" xmlns="http://www.w3.org/2000/svg">
<path fill-rule="evenodd" clip-rule="evenodd" d="M5.76961 0.292893C6.16013 0.683417 6.16013 1.31658 5.76961 1.70711L2.41421 5.0625L5.76961 8.41789C6.16013 8.80842 6.16013 9.44158 5.76961 9.83211C5.37908 10.2226 4.74592 10.2226 4.35539 9.83211L0.292893 5.76961C-0.0976311 5.37908 -0.0976311 4.74592 0.292893 4.35539L4.35539 0.292893C4.74592 -0.0976311 5.37908 -0.0976311 5.76961 0.292893Z" fill="#F40009"/>
<path fill-rule="evenodd" clip-rule="evenodd" d="M0 5.0625C0 4.51022 0.447715 4.0625 1 4.0625H10.75C13.0972 4.0625 15 5.96529 15 8.3125V14C15 14.5523 14.5523 15 14 15C13.4477 15 13 14.5523 13 14V8.3125C13 7.06986 11.9926 6.0625 10.75 6.0625H1C0.447715 6.0625 0 5.61478 0 5.0625Z" fill="#F40009"/>
</svg>
