<svg width="29" height="29" viewBox="0 0 29 29" fill="none" xmlns="http://www.w3.org/2000/svg">
<path d="M25.7772 4.60294C26.0118 4.60294 26.202 4.41266 26.202 4.17813V0.424805C26.202 0.190277 26.0118 0 25.7772 0H22.0239C21.7892 0 21.5991 0.190277 21.5991 0.424805V0.469055H7.43497V0.424805C7.43497 0.190277 7.24469 0 7.01016 0H3.25684C3.02231 0 2.83203 0.190277 2.83203 0.424805V4.17813C2.83203 4.41266 3.02231 4.60294 3.25684 4.60294H3.30131V24.3971H3.25684C3.02231 24.3971 2.83203 24.5873 2.83203 24.8219V28.5752C2.83203 28.8097 3.02231 29 3.25684 29H7.01016C7.24469 29 7.43497 28.8097 7.43497 28.5752V28.5307H21.5989V28.5752C21.5989 28.8097 21.7892 29 22.0237 29H25.7772C26.0118 29 26.202 28.8097 26.202 28.5752V24.8219C26.202 24.5873 26.0118 24.3971 25.7772 24.3971H25.7328V4.60294H25.7772ZM22.4487 0.849609H25.3524V3.75333H25.3086C25.3084 3.75333 25.3082 3.75333 25.308 3.75333C25.3077 3.75333 25.3075 3.75333 25.3075 3.75333H23.9006C23.0999 3.75333 22.4487 3.10196 22.4487 2.30147V0.849609ZM21.5991 1.31866V2.30147C21.5991 2.31629 21.5998 2.33112 21.6002 2.34572H10.6763C10.4416 2.34572 10.2515 2.536 10.2515 2.77052C10.2515 3.00527 10.4416 3.19533 10.6763 3.19533H21.7796C22.0128 3.74669 22.4551 4.18897 23.0065 4.42217V24.5778C22.4576 24.8099 22.0171 25.2493 21.783 25.7971H7.25089C7.0168 25.2493 6.57629 24.8099 6.02758 24.5778V4.42217C6.57872 4.18897 7.021 3.74669 7.2542 3.19533H8.97422C9.20897 3.19533 9.39902 3.00527 9.39902 2.77052C9.39902 2.536 9.20897 2.34572 8.97422 2.34572H7.43386C7.43408 2.33112 7.43497 2.31629 7.43497 2.30147V1.31866H21.5991ZM3.68164 0.849609H6.58536V2.30147C6.58536 3.10218 5.93421 3.75333 5.1335 3.75333H3.72678C3.72655 3.75333 3.72633 3.75333 3.72611 3.75333C3.72589 3.75333 3.72567 3.75333 3.72545 3.75333H3.68164V0.849609ZM4.15092 4.60294H5.1335C5.14854 4.60294 5.16315 4.60205 5.17797 4.60183V24.3982C5.16315 24.3977 5.14832 24.3971 5.1335 24.3971H4.15092V4.60294ZM6.58536 28.1504H3.68164V25.2467H5.1335C5.93421 25.2467 6.58536 25.8978 6.58536 26.6983V28.1504ZM7.43497 27.6811V26.6985C7.43497 26.6811 7.43408 26.664 7.43364 26.6468H21.6002C21.6 26.664 21.5991 26.6811 21.5991 26.6985V27.6811H7.43497ZM25.3524 28.1504H22.4487V26.6985C22.4487 25.8978 23.0999 25.2467 23.9004 25.2467H25.3524V28.1504ZM24.8832 24.3971H23.9004C23.8855 24.3971 23.8709 24.3979 23.8561 24.3982V4.60183C23.8709 4.60205 23.8855 4.60294 23.9004 4.60294H24.8832V24.3971Z" fill="#F40009"/>
<path d="M24.3409 2.30167C24.3409 2.5446 24.1439 2.74152 23.901 2.74152C23.6581 2.74152 23.4609 2.5446 23.4609 2.30167C23.4609 2.05873 23.6581 1.86182 23.901 1.86182C24.1439 1.86182 24.3409 2.05873 24.3409 2.30167Z" fill="#F40009"/>
<path d="M5.57306 2.30167C5.57306 2.5446 5.37614 2.74152 5.13321 2.74152C4.89027 2.74152 4.69336 2.5446 4.69336 2.30167C4.69336 2.05873 4.89027 1.86182 5.13321 1.86182C5.37614 1.86182 5.57306 2.05873 5.57306 2.30167Z" fill="#F40009"/>
<path d="M24.3409 26.6986C24.3409 26.9416 24.1439 27.1385 23.901 27.1385C23.6581 27.1385 23.4609 26.9416 23.4609 26.6986C23.4609 26.4557 23.6581 26.2588 23.901 26.2588C24.1439 26.2588 24.3409 26.4557 24.3409 26.6986Z" fill="#F40009"/>
<path d="M5.57306 26.6986C5.57306 26.9416 5.37614 27.1385 5.13321 27.1385C4.89027 27.1385 4.69336 26.9416 4.69336 26.6986C4.69336 26.4557 4.89027 26.2588 5.13321 26.2588C5.37614 26.2588 5.57306 26.4557 5.57306 26.6986Z" fill="#F40009"/>
<path d="M13.5791 11.1712C13.8136 11.1712 14.0039 10.9809 14.0039 10.7464V10.2773C14.0039 10.0426 13.8136 9.85254 13.5791 9.85254C13.3446 9.85254 13.1543 10.0426 13.1543 10.2773V10.7464C13.1543 10.9811 13.3446 11.1712 13.5791 11.1712Z" fill="#F40009"/>
<path d="M15.4551 11.1712C15.6896 11.1712 15.8799 10.9809 15.8799 10.7464V10.2773C15.8799 10.0426 15.6896 9.85254 15.4551 9.85254C15.2203 9.85254 15.0303 10.0426 15.0303 10.2773V10.7464C15.0303 10.9811 15.2203 11.1712 15.4551 11.1712Z" fill="#F40009"/>
<path d="M9.82533 13.9862H12.2396C12.3766 14.1216 12.5255 14.2451 12.6846 14.3546V15.6009L11.6332 15.9514H10.7634C9.50518 15.9514 8.48145 16.9751 8.48145 18.2334V22.0064C8.48145 22.2139 8.63145 22.3912 8.83633 22.4255L14.4469 23.3638C14.4491 23.3642 14.4513 23.364 14.4535 23.3642C14.4743 23.3673 14.4953 23.3695 14.517 23.3695C14.5387 23.3695 14.5597 23.3673 14.5805 23.3642C14.5827 23.364 14.5847 23.3642 14.5869 23.3638L20.2169 22.4255C20.4227 22.3912 20.5729 22.2128 20.5718 22.0042L20.5523 18.2334C20.5523 16.9751 19.5286 15.9514 18.2703 15.9514H17.4008L16.3494 15.6009V14.3544C16.5085 14.2449 16.6576 14.1216 16.7943 13.986H19.2086C19.4434 13.986 19.6335 13.7959 19.6335 13.5612V9.80787C19.6335 6.98668 17.3382 4.69141 14.517 4.69141C11.6958 4.69141 9.40053 6.98668 9.40053 9.80787V13.5612C9.40053 13.7959 9.59058 13.9862 9.82533 13.9862ZM13.9634 7.41768H15.0703C15.2445 8.3465 15.9781 9.08017 16.9072 9.2543V11.6845C16.9072 13.0025 15.835 14.0747 14.517 14.0747C13.199 14.0747 12.1268 13.0025 12.1268 11.6845V9.2543C13.0558 9.08017 13.7893 8.3465 13.9634 7.41768ZM12.9534 16.4069L13.9223 17.6988L12.8569 18.498L12.2392 16.645L12.9534 16.4069ZM9.33105 18.2334C9.33105 17.4435 9.97379 16.801 10.7634 16.801H11.3958L12.2372 19.3257C12.2806 19.4551 12.3832 19.556 12.5135 19.5967C12.5551 19.6098 12.5978 19.616 12.6403 19.616C12.731 19.616 12.8206 19.587 12.8952 19.531L14.0922 18.6334V22.4429L9.33128 21.6466V18.2334H9.33105ZM17.6382 16.801H18.2703C19.0602 16.801 19.7027 17.4435 19.7027 18.2356L19.7204 21.6469L14.9418 22.4434V18.6334L16.1388 19.5312C16.2131 19.587 16.3027 19.6162 16.3937 19.6162C16.4361 19.6162 16.4788 19.6098 16.5202 19.597C16.6505 19.5563 16.7534 19.4554 16.7966 19.3257L17.6382 16.801ZM16.177 18.498L15.1117 17.6988L16.0806 16.4069L16.7948 16.645L16.177 18.498ZM15.4998 15.7655L14.517 17.0758L13.5342 15.7655V14.7717C13.8444 14.8706 14.1745 14.9243 14.517 14.9243C14.8595 14.9243 15.1896 14.8706 15.4998 14.7717V15.7655ZM10.2501 9.80787C10.2501 7.45507 12.1642 5.54102 14.517 5.54102C16.8698 5.54102 18.7838 7.45507 18.7838 9.80787V13.1366H17.4119C17.632 12.6994 17.7566 12.2065 17.7566 11.6845V9.29434H17.801C18.0358 9.29434 18.2258 9.10406 18.2258 8.86954C18.2258 8.63479 18.0358 8.44473 17.801 8.44473H17.332C16.6788 8.44473 16.1251 8.01108 15.9434 7.41657C16.1691 7.40684 16.3494 7.22099 16.3494 6.99287C16.3494 6.75813 16.1591 6.56807 15.9246 6.56807H14.9418V6.52382C14.9418 6.28907 14.7515 6.09901 14.517 6.09901C14.2822 6.09901 14.0922 6.28907 14.0922 6.52382V6.56807H13.1094C12.8749 6.56807 12.6846 6.75813 12.6846 6.99287C12.6846 7.22099 12.8647 7.40662 13.0906 7.41657C12.9087 8.01108 12.3551 8.44473 11.702 8.44473H11.2327C10.9982 8.44473 10.8079 8.63479 10.8079 8.86954C10.8079 9.10406 10.9982 9.29434 11.2327 9.29434H11.2772V11.6845C11.2772 12.2065 11.402 12.6994 11.6221 13.1366H10.2501V9.80787Z" fill="#F40009"/>
</svg>
