<svg width="23" height="31" viewBox="0 0 23 31" fill="none" xmlns="http://www.w3.org/2000/svg">
<path d="M8.54735 6.91553C7.40585 6.91553 6.48047 7.85754 6.48047 9.01955C6.48047 10.1816 7.40585 11.1236 8.54735 11.1236C9.68886 11.1236 10.6142 10.1816 10.6142 9.01955C10.6142 7.85754 9.68886 6.91553 8.54735 6.91553ZM8.54735 10.0716C7.97657 10.0716 7.51391 9.60059 7.51391 9.01955C7.51675 8.44062 7.97864 7.9728 8.54735 7.9728V7.96754C9.11814 7.96754 9.5808 8.43851 9.5808 9.01955C9.5808 9.60059 9.11814 10.0716 8.54735 10.0716Z" fill="#F40009"/>
<path d="M14.4585 6.91553C13.317 6.91553 12.3916 7.85754 12.3916 9.01955C12.3916 10.1816 13.317 11.1236 14.4585 11.1236C15.6 11.1236 16.5254 10.1816 16.5254 9.01955C16.5254 7.85754 15.6 6.91553 14.4585 6.91553ZM14.4585 10.0716C13.8877 10.0716 13.425 9.60059 13.425 9.01955C13.4279 8.44062 13.8898 7.9728 14.4585 7.9728V7.96754C15.0293 7.96754 15.4919 8.43851 15.4919 9.01955C15.4919 9.60059 15.0293 10.0716 14.4585 10.0716Z" fill="#F40009"/>
<path d="M20.7594 9.337C20.5364 8.0882 19.5488 7.12758 18.3132 6.95755C17.9722 5.67409 16.9904 4.58 15.0165 4.58H12.0195V3.42279C12.926 3.1323 13.4295 2.14874 13.1441 1.22606C12.8587 0.303311 11.8925 -0.209216 10.9861 0.0813363C10.0796 0.371823 9.57616 1.35539 9.86159 2.27807C10.0304 2.82367 10.4501 3.25105 10.9861 3.42279V4.5537H7.99428C6.59914 4.5537 5.13165 5.20595 4.68727 6.93125C3.11249 7.15132 2.0111 8.62926 2.22728 10.2323C2.39677 11.4893 3.34179 12.4923 4.56842 12.7173L4.56325 12.7436C4.71827 15.0528 6.40278 15.8996 7.98912 15.8996H15.0165C17.3779 15.8996 18.3235 14.3216 18.4424 12.7436C20.0063 12.4542 21.0436 10.929 20.7594 9.337ZM4.54769 11.6916C3.57173 11.4044 3.00921 10.3662 3.29128 9.37271C3.46664 8.75511 3.94099 8.27223 4.54769 8.09372V11.6916ZM10.8155 1.78165C10.8155 1.3953 11.1232 1.08206 11.5028 1.08206C11.8823 1.08206 12.19 1.3953 12.19 1.78165C12.19 2.168 11.8823 2.48124 11.5028 2.48124C11.1232 2.48124 10.8155 2.168 10.8155 1.78165ZM17.4244 12.3649C17.4244 13.2801 17.1092 14.8161 15.0165 14.8161H7.99422C7.09512 14.8161 5.5863 14.4952 5.5863 12.3649L5.58113 8.09372C5.58113 5.95814 7.08996 5.64253 7.98905 5.64253H15.0165C17.1144 5.64253 17.4244 7.17847 17.4244 8.09372V12.3649ZM18.4372 11.6548V8.0569C19.2249 8.28834 19.768 9.02127 19.7703 9.85584C19.768 10.6904 19.2249 11.4233 18.4372 11.6548Z" fill="#F40009"/>
<path d="M14.4588 12.5542H8.54748C8.26212 12.5542 8.03076 12.7897 8.03076 13.0802C8.03076 13.3707 8.26212 13.6062 8.54748 13.6062H14.4588C14.7441 13.6062 14.9755 13.3707 14.9755 13.0802C14.9755 12.7897 14.7441 12.5542 14.4588 12.5542Z" fill="#F40009"/>
<path d="M23 16.8832C22.9901 15.7561 22.0846 14.8505 20.9774 14.8606C20.0509 14.869 19.2507 15.5225 19.0419 16.4413L17.6623 16.7149H5.34362L3.96398 16.4413C3.72758 15.3401 2.65906 14.6425 1.57731 14.8832C0.495549 15.1238 -0.189752 16.2115 0.0466476 17.3127C0.207348 18.0612 0.766247 18.6551 1.49405 18.8505V22.7798C0.61995 23.0171 0.0102833 23.8209 0.00589119 24.7418V25.6728C0.00589119 25.9633 0.237253 26.1988 0.522612 26.1988C0.807972 26.1988 1.03933 25.9633 1.03933 25.6728V24.7365C1.03933 24.1904 1.47428 23.7476 2.01077 23.7476C2.54726 23.7476 2.98221 24.1904 2.98221 24.7365V25.6728C2.98221 25.9633 3.21357 26.1988 3.49893 26.1988C3.78429 26.1988 4.01565 25.9633 4.01565 25.6728V24.7365C4.01126 23.8156 3.40159 23.0119 2.52749 22.7745V18.8453C3.18392 18.6652 3.70555 18.158 3.91231 17.4987L4.77523 17.6723V24.1632C4.77626 25.1148 4.97339 26.0555 5.35396 26.9247V26.972C6.87951 30.4146 10.8577 31.9463 14.2394 30.3933C15.7318 29.7079 16.927 28.4913 17.6003 26.972L17.6261 26.9142C18.0107 26.0495 18.2132 25.1124 18.2203 24.1632V17.6723L19.0833 17.4987C19.29 18.158 19.8116 18.6652 20.4681 18.8453V22.7745C19.594 23.0119 18.9843 23.8156 18.9799 24.7365V25.6728C18.9799 25.9633 19.2113 26.1988 19.4966 26.1988C19.782 26.1988 20.0134 25.9633 20.0134 25.6728V24.7365C20.0139 24.1904 20.4492 23.748 20.9857 23.7485C21.5215 23.7491 21.9557 24.1911 21.9562 24.7365V25.6728C21.9562 25.9633 22.1876 26.1988 22.4729 26.1988C22.7583 26.1988 22.9897 25.9633 22.9897 25.6728V24.7365C22.9853 23.8156 22.3756 23.0119 21.5015 22.7745V18.8453C22.3797 18.6118 22.9943 17.807 23 16.8832ZM2.01077 17.8721C1.47428 17.8721 1.03933 17.4293 1.03933 16.8832C1.03933 16.3371 1.47428 15.8943 2.01077 15.8943C2.54726 15.8943 2.98221 16.3371 2.98221 16.8832C2.98221 17.4293 2.54726 17.8721 2.01077 17.8721ZM11.5029 29.9544C9.55626 29.9544 7.74496 28.9402 6.7026 27.2665H16.3033C15.2609 28.9402 13.4496 29.9544 11.5029 29.9544ZM17.1869 24.1684C17.1844 24.8698 17.0565 25.5649 16.8097 26.2198H6.18588C5.93902 25.5649 5.81119 24.8698 5.80867 24.1684V17.7669H17.1869V24.1684ZM21.0005 17.8719C20.9987 17.8719 20.9969 17.872 20.9951 17.872L20.9848 17.8562C20.4483 17.8562 20.0134 17.4135 20.0134 16.8673C20.0134 16.3212 20.4483 15.8784 20.9848 15.8784C21.5213 15.8784 21.9562 16.3212 21.9562 16.8673C21.9648 17.4135 21.5369 17.8632 21.0005 17.8719Z" fill="#F40009"/>
<path d="M13.3306 21.4795C13.236 21.3925 13.1132 21.3443 12.9857 21.344H11.4355L13.337 19.3557C13.5198 19.1326 13.4904 18.8009 13.2713 18.6148C13.0753 18.4484 12.7894 18.4525 12.5981 18.6245L9.844 21.507C9.64422 21.7145 9.64752 22.0475 9.8513 22.2509C9.94864 22.348 10.0798 22.402 10.216 22.4012H11.8075L9.84917 24.621C9.6585 24.8361 9.67465 25.1678 9.88534 25.3626C10.0967 25.5567 10.4225 25.5403 10.6139 25.3258L13.368 22.2224C13.5592 22.0067 13.5425 21.6741 13.3306 21.4795Z" fill="#F40009"/>
</svg>
