<svg width="23" height="20" viewBox="0 0 23 20" fill="none" xmlns="http://www.w3.org/2000/svg">
<path d="M20.1929 4.76474V1.1207C20.1929 0.719407 19.9832 0.358674 19.6319 0.15577C19.2793 -0.0479299 18.8552 -0.0521321 18.4976 0.144844C15.0825 2.02552 11.3674 3.12382 7.45559 3.40944C7.42563 3.41161 3.89005 3.42683 3.89005 3.42683C3.00208 3.42683 2.26815 4.08694 2.16658 4.93482H1.44087C0.646426 4.93482 0 5.57127 0 6.3536V9.47072C0 10.2531 0.646426 10.8895 1.44087 10.8895H2.16649C2.23962 11.4998 2.64015 12.0123 3.19004 12.2519L5.77237 19.2696C5.93378 19.7065 6.35937 20 6.83154 20H9.42295C9.79032 20 10.1354 19.8231 10.3461 19.5268C10.5569 19.2305 10.6077 18.8506 10.4823 18.5112L8.2636 12.4848C11.879 12.8547 15.3181 13.9269 18.4976 15.6778C18.673 15.7744 18.8644 15.8226 19.0555 15.8226C19.2539 15.8225 19.4522 15.7706 19.6318 15.6668C19.983 15.4639 20.1928 15.1032 20.1928 14.7018V11.0578C21.7741 10.8561 23 9.52243 23 7.91128C23 6.30008 21.7741 4.96641 20.1929 4.76474ZM2.15405 9.79527H1.44087C1.25907 9.79527 1.11123 9.64969 1.11123 9.47068V6.3536C1.11123 6.17472 1.25907 6.02905 1.44087 6.02905H2.15405V9.79527ZM3.63553 11.2494C3.41766 11.1532 3.26528 10.938 3.26528 10.6881V5.13614H3.26533C3.26533 4.79699 3.54559 4.52105 3.89001 4.52105H6.91473V11.3033C6.91473 11.3033 3.86364 11.3021 3.85048 11.3013C3.73903 11.2886 3.71558 11.283 3.63553 11.2494ZM9.43768 18.8846C9.43948 18.8891 9.44065 18.8923 9.43584 18.899C9.43112 18.9056 9.42762 18.9056 9.4229 18.9056H6.83149C6.82489 18.9056 6.81883 18.9015 6.8168 18.8961L4.42548 12.3975H7.04941L9.43768 18.8846ZM19.0816 14.7019C19.0816 14.7098 19.0816 14.7161 19.0697 14.723C19.0554 14.7312 19.0468 14.7265 19.04 14.7228C15.6244 12.8419 11.9213 11.7128 8.02597 11.3627V4.46036C11.9216 4.10972 15.6247 2.98054 19.0399 1.09987C19.0469 1.09611 19.0555 1.09146 19.0697 1.0996C19.0816 1.10655 19.0816 1.11278 19.0816 1.1207V14.7019ZM20.1929 9.95014V5.87238C21.1588 6.0632 21.8888 6.90476 21.8888 7.91123C21.8888 8.91775 21.1588 9.75935 20.1929 9.95014Z" fill="#F40009"/>
</svg>
