<svg width="10" height="10" viewBox="0 0 10 10" fill="none" xmlns="http://www.w3.org/2000/svg">
<path fill-rule="evenodd" clip-rule="evenodd" d="M5 10C7.76147 10 10 7.76147 10 5C10 2.23853 7.76147 0 5 0C2.23853 0 0 2.23853 0 5C0 7.76147 2.23853 10 5 10ZM4.97803 5.25598C4.91406 5.40405 4.88208 5.57996 4.88208 5.78406V5.92798H5.38599V5.67004C5.38599 5.578 5.41211 5.49194 5.46411 5.41199C5.51611 5.33203 5.58398 5.26599 5.66797 5.21399C5.78052 5.14844 5.88721 5.07739 5.98853 5.00085C6.06055 4.94666 6.12964 4.88965 6.19604 4.82996C6.24414 4.7887 6.28687 4.74023 6.32446 4.68445C6.35254 4.64294 6.37769 4.59741 6.3999 4.54797C6.4519 4.42798 6.47803 4.29395 6.47803 4.146V3.84595C6.47803 3.53796 6.38208 3.31995 6.18994 3.19202C6.00195 3.06396 5.69189 3 5.26001 3C4.82788 3 4.40796 3.03796 4 3.11401V3.552C4.48389 3.46802 4.86597 3.42603 5.146 3.42603C5.42212 3.42603 5.61597 3.45801 5.72803 3.52197C5.84399 3.58606 5.9021 3.70801 5.9021 3.88794V4.06799C5.9021 4.32397 5.78198 4.53198 5.54199 4.69202C5.49658 4.7207 5.44263 4.75806 5.37988 4.80396C5.33765 4.83472 5.29175 4.86938 5.24194 4.90796C5.13403 4.98804 5.0459 5.104 4.97803 5.25598ZM5.47607 6.30603H4.78003V6.95398H5.47607V6.30603Z" fill="#37393C"/>
</svg>
