<svg width="303" height="352" viewBox="0 0 303 352" fill="none" xmlns="http://www.w3.org/2000/svg">
<g filter="url(#filter0_d)">
<path d="M78.0621 109.172C133.996 106.222 162.022 46.9155 169.044 17.6311C166.466 3.85012 161.299 -24.5583 161.247 -27.9442C161.182 -32.1765 140.508 -40.6994 106.987 -50.6439C73.4655 -60.5884 29.7985 -74.4861 21.3014 -76.4724C12.8043 -78.4587 -44.7736 -98.2439 -68.2656 -103.735C-91.7576 -109.227 -179.228 -129.674 -188.127 -125.429C-195.247 -122.032 -215.557 -90.0208 -224.822 -74.4395C-246.308 12.9636 -291.544 191.142 -300.6 204.628C-311.921 221.486 -246.982 250.372 -216.902 238.953C-186.821 227.535 -123.674 196.435 -100.786 130.094C-84.2386 82.1316 8.14442 112.859 78.0621 109.172Z" fill="#DE0B12"/>
<path d="M78.0621 109.172C133.996 106.222 162.022 46.9155 169.044 17.6311C166.466 3.85012 161.299 -24.5583 161.247 -27.9442C161.182 -32.1765 140.508 -40.6994 106.987 -50.6439C73.4655 -60.5884 29.7985 -74.4861 21.3014 -76.4724C12.8043 -78.4587 -44.7736 -98.2439 -68.2656 -103.735C-91.7576 -109.227 -179.228 -129.674 -188.127 -125.429C-195.247 -122.032 -215.557 -90.0208 -224.822 -74.4395C-246.308 12.9636 -291.544 191.142 -300.6 204.628C-311.921 221.486 -246.982 250.372 -216.902 238.953C-186.821 227.535 -123.674 196.435 -100.786 130.094C-84.2386 82.1316 8.14442 112.859 78.0621 109.172Z" stroke="#F44F55"/>
</g>
<path d="M-299.634 -37.65C-352.873 -43.7154 -376.162 -101.915 -381.151 -130.257C-377.883 -143.252 -371.285 -170.05 -371.037 -173.276C-370.727 -177.31 -350.486 -184.237 -317.894 -191.775C-285.302 -199.312 -242.79 -210.03 -234.56 -211.43C-226.33 -212.831 -170.19 -228.357 -147.436 -232.229C-124.681 -236.102 -39.958 -250.521 -31.7085 -245.954C-25.1088 -242.3 167.779 -63.1287 206.333 2.22769C221.731 86.8479 178.977 111.85 142.928 101.626C76.4381 82.7693 24.5552 107.004 -25.5729 103.292C-56.2602 101.019 -112.106 57.3153 -130.077 -7.29598C-143.069 -54.0078 -233.085 -30.0682 -299.634 -37.65Z" fill="#F40009" stroke="#F44F55"/>
<g filter="url(#filter1_d)">
<path d="M97.9931 79.1326C153.481 86.775 192.18 33.8118 204.593 6.37494C204.659 -7.64476 204.937 -36.5179 205.524 -39.8529C206.258 -44.0217 187.56 -56.2876 156.513 -72.3702C125.466 -88.4528 85.1997 -110.329 77.2291 -113.881C69.2585 -117.433 16.44 -147.713 -5.59645 -157.533C-27.6329 -167.352 -109.684 -203.915 -119.224 -201.422C-126.856 -199.428 -152.834 -171.817 -164.869 -158.261C-202.439 -76.4715 -280.437 89.9913 -291.873 101.53C-306.167 115.952 -247.834 156.557 -216.141 151.011C-184.448 145.465 -116.572 126.821 -81.5935 65.9808C-56.3053 21.9954 28.6331 69.5797 97.9931 79.1326Z" fill="#F8222A"/>
<path d="M97.9931 79.1326C153.481 86.775 192.18 33.8118 204.593 6.37494C204.659 -7.64476 204.937 -36.5179 205.524 -39.8529C206.258 -44.0217 187.56 -56.2876 156.513 -72.3702C125.466 -88.4528 85.1997 -110.329 77.2291 -113.881C69.2585 -117.433 16.44 -147.713 -5.59645 -157.533C-27.6329 -167.352 -109.684 -203.915 -119.224 -201.422C-126.856 -199.428 -152.834 -171.817 -164.869 -158.261C-202.439 -76.4715 -280.437 89.9913 -291.873 101.53C-306.167 115.952 -247.834 156.557 -216.141 151.011C-184.448 145.465 -116.572 126.821 -81.5935 65.9808C-56.3053 21.9954 28.6331 69.5797 97.9931 79.1326Z" stroke="#F44F55"/>
</g>
<defs>
<filter id="filter0_d" x="-336.905" y="-169.973" width="551.155" height="521.861" filterUnits="userSpaceOnUse" color-interpolation-filters="sRGB">
<feFlood flood-opacity="0" result="BackgroundImageFix"/>
<feColorMatrix in="SourceAlpha" type="matrix" values="0 0 0 0 0 0 0 0 0 0 0 0 0 0 0 0 0 0 127 0"/>
<feOffset/>
<feGaussianBlur stdDeviation="15"/>
<feColorMatrix type="matrix" values="0 0 0 0 0 0 0 0 0 0 0 0 0 0 0 0 0 0 0.35 0"/>
<feBlend mode="normal" in2="BackgroundImageFix" result="effect1_dropShadow"/>
<feBlend mode="normal" in="SourceGraphic" in2="effect1_dropShadow" result="shape"/>
</filter>
<filter id="filter1_d" x="-332.306" y="-251.917" width="593.676" height="573.794" filterUnits="userSpaceOnUse" color-interpolation-filters="sRGB">
<feFlood flood-opacity="0" result="BackgroundImageFix"/>
<feColorMatrix in="SourceAlpha" type="matrix" values="0 0 0 0 0 0 0 0 0 0 0 0 0 0 0 0 0 0 127 0"/>
<feOffset/>
<feGaussianBlur stdDeviation="15"/>
<feColorMatrix type="matrix" values="0 0 0 0 0 0 0 0 0 0 0 0 0 0 0 0 0 0 0.35 0"/>
<feBlend mode="normal" in2="BackgroundImageFix" result="effect1_dropShadow"/>
<feBlend mode="normal" in="SourceGraphic" in2="effect1_dropShadow" result="shape"/>
</filter>
</defs>
</svg>
