<svg width="577" height="255" viewBox="0 0 577 255" fill="none" xmlns="http://www.w3.org/2000/svg">
<g filter="url(#filter0_d)">
<path d="M495.835 31.9318C543.858 49.4882 588.633 9.72758 605.017 -12.3473C607.789 -24.8419 613.624 -50.5467 614.794 -53.4083C616.255 -56.9854 601.947 -71.5469 577.362 -91.903C552.777 -112.259 521.088 -139.569 514.664 -144.28C508.241 -148.991 466.98 -186.226 449.221 -199.251C431.462 -212.276 365.338 -260.774 356.345 -260.397C349.15 -260.095 320.631 -240.489 307.27 -230.724C257.925 -165.029 156.125 -31.6176 143.69 -23.5371C128.146 -13.4364 172.329 34.0772 201.676 35.2631C231.024 36.449 295.187 32.9516 338.166 -14.5563C369.239 -48.9029 435.806 9.98632 495.835 31.9318Z" fill="#DE0B12"/>
<path d="M495.835 31.9318C543.858 49.4882 588.633 9.72758 605.017 -12.3473C607.789 -24.8419 613.624 -50.5467 614.794 -53.4083C616.255 -56.9854 601.947 -71.5469 577.362 -91.903C552.777 -112.259 521.088 -139.569 514.664 -144.28C508.241 -148.991 466.98 -186.226 449.221 -199.251C431.462 -212.276 365.338 -260.774 356.345 -260.397C349.15 -260.095 320.631 -240.489 307.27 -230.724C257.925 -165.029 156.125 -31.6176 143.69 -23.5371C128.146 -13.4364 172.329 34.0772 201.676 35.2631C231.024 36.449 295.187 32.9516 338.166 -14.5563C369.239 -48.9029 435.806 9.98632 495.835 31.9318Z" stroke="#F44F55"/>
</g>
<path d="M231.276 -226.628C188.744 -250.789 190.034 -307.999 195.995 -333.584C203.394 -343.326 218.532 -363.464 219.895 -366.084C221.6 -369.36 241.078 -367.928 271.144 -362.583C301.211 -357.239 340.746 -351.013 348.158 -349.241C355.571 -347.47 408.271 -340.399 428.765 -335.501C449.258 -330.603 525.563 -312.366 530.854 -305.576C535.087 -300.145 632.88 -80.6129 641.845 -11.9259C624.466 64.6431 579.612 70.3249 553.004 48.8284C503.928 9.18046 451.683 10.9475 410.92 -10.1235C385.967 -23.0227 354.727 -79.7219 362.779 -140.411C368.6 -184.287 284.44 -196.426 231.276 -226.628Z" fill="#F40009" stroke="#F44F55"/>
<g filter="url(#filter1_d)">
<path d="M523.33 13.8471C567.185 40.1378 618.649 9.52596 638.899 -9.06632C643.975 -20.8149 654.55 -44.9595 656.238 -47.5497C658.347 -50.7873 647.039 -67.7838 626.73 -92.4079C606.42 -117.032 580.445 -149.823 575.024 -155.66C569.604 -161.497 536.098 -205.84 521.111 -221.978C506.125 -238.116 450.323 -298.204 441.42 -299.528C434.297 -300.588 402.595 -286.707 387.634 -279.635C326.793 -224.414 201.679 -112.574 187.944 -106.981C170.776 -99.9902 205.214 -45.0026 233.813 -38.3081C262.411 -31.6136 326.083 -22.9585 377.244 -61.5171C414.232 -89.3936 468.511 -19.0163 523.33 13.8471Z" fill="#F8222A"/>
<path d="M523.33 13.8471C567.185 40.1378 618.649 9.52596 638.899 -9.06632C643.975 -20.8149 654.55 -44.9595 656.238 -47.5497C658.347 -50.7873 647.039 -67.7838 626.73 -92.4079C606.42 -117.032 580.445 -149.823 575.024 -155.66C569.604 -161.497 536.098 -205.84 521.111 -221.978C506.125 -238.116 450.323 -298.204 441.42 -299.528C434.297 -300.588 402.595 -286.707 387.634 -279.635C326.793 -224.414 201.679 -112.574 187.944 -106.981C170.776 -99.9902 205.214 -45.0026 233.813 -38.3081C262.411 -31.6136 326.083 -22.9585 377.244 -61.5171C414.232 -89.3936 468.511 -19.0163 523.33 13.8471Z" stroke="#F44F55"/>
</g>
<defs>
<filter id="filter0_d" x="100.274" y="-314.476" width="570.083" height="562.379" filterUnits="userSpaceOnUse" color-interpolation-filters="sRGB">
<feFlood flood-opacity="0" result="BackgroundImageFix"/>
<feColorMatrix in="SourceAlpha" type="matrix" values="0 0 0 0 0 0 0 0 0 0 0 0 0 0 0 0 0 0 127 0"/>
<feOffset/>
<feGaussianBlur stdDeviation="15"/>
<feColorMatrix type="matrix" values="0 0 0 0 0 0 0 0 0 0 0 0 0 0 0 0 0 0 0.35 0"/>
<feBlend mode="normal" in2="BackgroundImageFix" result="effect1_dropShadow"/>
<feBlend mode="normal" in="SourceGraphic" in2="effect1_dropShadow" result="shape"/>
</filter>
<filter id="filter1_d" x="141.631" y="-357.412" width="570.895" height="572.769" filterUnits="userSpaceOnUse" color-interpolation-filters="sRGB">
<feFlood flood-opacity="0" result="BackgroundImageFix"/>
<feColorMatrix in="SourceAlpha" type="matrix" values="0 0 0 0 0 0 0 0 0 0 0 0 0 0 0 0 0 0 127 0"/>
<feOffset/>
<feGaussianBlur stdDeviation="15"/>
<feColorMatrix type="matrix" values="0 0 0 0 0 0 0 0 0 0 0 0 0 0 0 0 0 0 0.35 0"/>
<feBlend mode="normal" in2="BackgroundImageFix" result="effect1_dropShadow"/>
<feBlend mode="normal" in="SourceGraphic" in2="effect1_dropShadow" result="shape"/>
</filter>
</defs>
</svg>
