<svg width="24" height="20" viewBox="0 0 24 20" fill="none" xmlns="http://www.w3.org/2000/svg">
<path d="M12.7007 12.1946C12.2056 11.4959 11.4105 11.069 10.5579 11.0367C10.5399 11.0346 10.5216 11.0335 10.503 11.0335C9.41858 11.0335 8.52247 10.216 8.40027 9.16646C8.7125 8.93964 9.0006 8.65179 9.25593 8.307C9.77226 7.60969 10.1074 6.73839 10.2317 5.79617C10.2697 5.75488 10.3018 5.70681 10.3248 5.6521C10.5434 5.13281 10.6543 4.57839 10.6543 4.00425C10.6543 1.79627 8.98077 0 6.92379 0C6.39181 0 5.87566 0.120543 5.38779 0.358403C5.2054 0.37374 5.02666 0.40647 4.85505 0.456034C3.13539 0.951626 2.16343 3.02573 2.68848 5.0795C2.74131 5.28613 2.80848 5.48934 2.88826 5.68343C2.91001 5.73646 2.94048 5.78303 2.97639 5.82371C3.17443 7.27424 3.8627 8.48112 4.804 9.16384C4.68302 10.2147 3.78625 11.0336 2.70085 11.0336C2.68417 11.0336 2.66767 11.0345 2.65135 11.0361C1.18055 11.0879 0 12.2968 0 13.7763V16.7286C0 17.0041 0.223829 17.2274 0.499971 17.2274H9.33365C9.60974 17.2274 9.83362 17.0041 9.83362 16.7286C9.83362 16.4532 9.60974 16.2299 9.33365 16.2299H0.999895V13.7763C0.999895 12.8138 1.78487 12.0308 2.74975 12.0308C2.76643 12.0308 2.78293 12.0299 2.79925 12.0283C3.15939 12.0171 3.50425 11.9448 3.82384 11.8212L6.1909 15.2291C6.28428 15.3635 6.43784 15.4438 6.60185 15.4438C6.76587 15.4438 6.91943 15.3636 7.01281 15.2291L9.37991 11.8212C9.69955 11.9448 10.0444 12.0171 10.4045 12.0283C10.4208 12.0299 10.4373 12.0308 10.454 12.0308C11.0214 12.0308 11.5561 12.3072 11.8842 12.7703C11.9816 12.9077 12.136 12.9811 12.2929 12.9811C12.3926 12.9811 12.4934 12.9514 12.581 12.8896C12.8065 12.7308 12.8601 12.4195 12.7007 12.1946ZM5.13246 1.41407C5.26361 1.37629 5.40232 1.35384 5.54477 1.34744C5.61818 1.34416 5.6898 1.3248 5.75487 1.29072C6.1264 1.09602 6.51959 0.997262 6.92361 0.997262C8.39877 0.997262 9.60365 2.29219 9.65193 3.90386C9.35127 3.67708 8.97725 3.54227 8.57216 3.54227H5.95751C5.82729 3.54227 5.70363 3.5015 5.60008 3.4244C5.51144 3.35842 5.44301 3.26986 5.40208 3.16807C5.30763 2.93362 5.07396 2.78717 4.82163 2.80307C4.56775 2.81929 4.35414 2.99529 4.29016 3.24078C4.16261 3.72954 3.92448 4.18473 3.60072 4.57128C3.3414 3.12524 3.99438 1.74208 5.13246 1.41407ZM3.95997 5.63766C4.39666 5.23834 4.75005 4.75439 4.9968 4.21994C4.99849 4.2212 5.00022 4.22247 5.00196 4.22373C5.27969 4.43049 5.61007 4.53972 5.95746 4.53972H8.57211C8.88618 4.53972 9.15744 4.72301 9.28621 4.98753C9.28288 6.02355 8.98696 6.99131 8.45155 7.71424C7.94666 8.39598 7.28975 8.77145 6.60176 8.77145C5.96505 8.77145 5.34518 8.44334 4.85632 7.84764C4.38203 7.26975 4.0682 6.49188 3.95997 5.63766ZM6.60181 14.0694L4.6885 11.3148C5.20179 10.8899 5.57594 10.304 5.73415 9.63577C6.01273 9.72274 6.30326 9.76894 6.60176 9.76894C6.89867 9.76894 7.18943 9.72401 7.46989 9.63722C7.62828 10.3048 8.0023 10.8902 8.51521 11.3147L6.60181 14.0694Z" fill="#F40009"/>
<path d="M21.349 13.8087C21.3327 13.8071 21.3162 13.8062 21.2995 13.8062C20.2135 13.8062 19.3164 12.9865 19.1961 11.9348C19.8084 11.49 20.3133 10.8232 20.646 10.0121C20.6937 10.1676 20.8156 10.2931 20.976 10.3427C21.0247 10.3577 21.0746 10.3651 21.124 10.3651C21.2755 10.3651 21.4221 10.2962 21.5185 10.1727C22.2161 9.27905 22.5787 8.11598 22.5397 6.8977C22.5013 5.70255 22.0801 4.58059 21.3536 3.73856C20.6097 2.87643 19.6277 2.39664 18.5874 2.38673C18.5322 2.38449 18.395 2.38921 18.3728 2.39056C17.8384 2.14873 17.2736 2.03576 16.692 2.05418C15.4908 2.09248 14.3859 2.68968 13.5809 3.73576C12.7987 4.75233 12.3924 6.07826 12.437 7.46941C12.4445 7.70512 12.4632 7.92217 12.4934 8.12884C12.5748 8.72169 12.7385 9.28948 12.98 9.8164C13.0568 9.98412 13.2202 10.0959 13.4047 10.1069C13.5886 10.118 13.7647 10.0266 13.8612 9.86924C13.9014 9.80363 13.9531 9.72185 14.0101 9.64171C14.233 10.3171 14.5738 10.924 15.0064 11.4031C15.1909 11.6074 15.3902 11.7852 15.6002 11.9368C15.4789 12.9875 14.5823 13.8061 13.4971 13.8061C13.4804 13.8061 13.4639 13.807 13.4476 13.8086C11.9769 13.8606 10.7964 15.0695 10.7964 16.5489V19.5013C10.7964 19.7767 11.0203 20 11.2964 20H23.5001C23.7762 20 24.0001 19.7767 24.0001 19.5013V16.5489C24.0002 15.0696 22.8196 13.8607 21.349 13.8087ZM13.5991 8.57969C13.5498 8.3876 13.5112 8.19061 13.4835 7.98932C13.4582 7.81594 13.4428 7.63545 13.4365 7.43761C13.3993 6.27628 13.7323 5.17727 14.3742 4.34315C14.9933 3.53853 15.8278 3.07974 16.7239 3.05117C16.7539 3.05018 17.3983 3.01399 18.0562 3.34467C18.1297 3.38161 18.2145 3.39877 18.297 3.39643C18.3065 3.39615 18.5631 3.38404 18.5706 3.38413C19.3215 3.38909 20.0407 3.74609 20.5957 4.3893C21.1738 5.05925 21.5092 5.96141 21.5402 6.92963C21.5571 7.45552 21.483 7.96673 21.3261 8.43707C21.2789 8.31148 21.2262 8.18781 21.1682 8.06619C20.6855 7.04171 19.8729 6.24818 18.8802 5.8317C18.7544 5.77895 18.6125 5.77975 18.4874 5.8339C18.3623 5.888 18.2648 5.99077 18.2175 6.11842C18.1509 6.29779 18.0703 6.47252 17.9777 6.63772C17.7159 7.10465 17.1882 7.38244 16.6014 7.36196C16.5133 7.35897 16.4239 7.35883 16.3358 7.36163C15.9034 7.37543 15.4818 7.45763 15.0805 7.60674C14.684 7.75599 14.0177 8.13048 13.5991 8.57969ZM14.8291 8.85112C15.0187 8.72445 15.2204 8.62013 15.4316 8.5405C15.729 8.43006 16.0439 8.36881 16.3677 8.35847C16.4338 8.35632 16.5007 8.35642 16.5667 8.35871C17.5321 8.39167 18.405 7.91895 18.8504 7.12447C18.8778 7.07561 18.9044 7.026 18.9301 6.97592C19.3861 7.25615 19.7759 7.65111 20.069 8.13048C20.0664 8.14526 20.0643 8.16008 20.063 8.17532C19.9864 9.12157 19.6591 9.98997 19.1416 10.6206C18.6527 11.2163 18.0328 11.5444 17.3961 11.5444C16.2191 11.5443 15.172 10.4282 14.8291 8.85112ZM16.5308 12.4077C16.8122 12.4954 17.1024 12.5417 17.3961 12.5417C17.6954 12.5417 17.9866 12.4952 18.2659 12.4077C18.4667 13.257 19.0173 13.9726 19.7574 14.3947C19.4687 15.4354 18.5092 16.1836 17.3984 16.1836C16.2875 16.1836 15.3281 15.4353 15.0395 14.3947C15.7795 13.9726 16.33 13.257 16.5308 12.4077ZM23.0003 19.0027H11.7964V16.549C11.7964 15.5866 12.5814 14.8036 13.5463 14.8036C13.563 14.8036 13.5795 14.8027 13.5958 14.8011C13.7679 14.7957 13.9367 14.7768 14.1009 14.7445C14.5352 16.1667 15.864 17.1811 17.3984 17.1811C18.9328 17.1811 20.2616 16.1667 20.696 14.7446C20.86 14.7769 21.0288 14.7957 21.2009 14.8011C21.2173 14.8027 21.2338 14.8036 21.2504 14.8036C22.2153 14.8036 23.0003 15.5866 23.0003 16.549V19.0027Z" fill="#F40009"/>
</svg>
